<svg clip-rule="evenodd" fill-rule="evenodd" height="221" image-rendering="optimizeQuality" shape-rendering="geometricPrecision" text-rendering="geometricPrecision" viewBox="0 0 31 13.73" width="500" xmlns="http://www.w3.org/2000/svg"><path d="m1.32 11.86c-.37-.28-.74-.55-1.1-.82-.04.06-.04.12-.03.18 0 .38 0 .25-.01.57 0 .32-.02.58.02.74.04.17.13.3.32.43.2.13.5.38.81.58-.17-.12-.15-1.13-.06-1.59.01-.03.03-.06.05-.09z" fill="#696969"/><path d="m30.61.88c-9.69 3.6-19.37 7.2-29.05 10.81-.06.02-.17.08-.24.17-.02.03-.04.06-.05.09-.09.46-.11 1.47.06 1.59.01.01.02.01.04.01.49.02 4.79-2.01 5.19-1.82.31.14.11.6 1.8-.17.85-.39.41-.59.54-1.17.03-.18 5.07-2.04 5.54-2.21.12-.05.24-.09.34-.13.45-.15.69-.21.76-.23l.12.76.59.41.46-.17 4.39-1.81c.19-.45-.6-.07 1.51-.93.06-.02.11-.04.17-.07.77-.31.42-.07.57.32.05.13 4.72-1.77 6.62-2.54.54-.22.89-.51.86-1.17-.03-.49.08-1.3-.22-1.74z" fill="#858585"/><path d="m1.56 11.69c9.68-3.61 19.36-7.21 29.05-10.81-.07-.1-.16-.18-.28-.23-.4-.17-.59-.26-.86-.38-.28-.12-.57-.13-.86-.02-9.48 3.53-17.67 6.7-27.14 10.22-.21.06-.42.12-.6.18s-.33.12-.44.18c-.11.07-.18.14-.21.21.36.27.73.54 1.1.82.07-.09.18-.15.24-.17z" fill="#bfbfbf"/><path d="m15.54 7.82c-.07.02-.31.08-.76.23l.88.53z" fill="#696969"/><path d="m22.61 6.08.74.25c-.15-.39.2-.63-.57-.32-.06.03-.11.05-.17.07z" fill="#696969"/><g fill="#5f5f5f" fill-rule="nonzero"><path d="m.01 11.22c0-.1.08-.18.18-.18.09 0 .17.08.17.18v.32l-.01.38c0 .25-.01.46.02.58.01.05.03.1.07.15.04.06.1.11.18.16.09.06.19.14.31.23.15.11.32.24.49.35.09.06.11.16.06.25-.06.08-.16.1-.24.05-.19-.12-.37-.26-.52-.38-.12-.08-.22-.16-.29-.21-.12-.08-.21-.15-.27-.24-.07-.09-.11-.18-.13-.29-.04-.16-.03-.38-.03-.65l.01-.38v-.32z"/><path d="m1.36 13.73c-.09 0-.17-.08-.17-.18s.08-.17.18-.17c.18 0 1.1-.37 2.11-.79 1.36-.55 2.86-1.16 3.15-1.02.1.04.15.1.2.15.12.12.23.24 1.45-.32.47-.21.46-.34.44-.54-.02-.14-.04-.3.01-.51.05-.25 4.17-1.79 5.37-2.23l.28-.11c.54-.2.87-.29 1.03-.34l.08-.02c.09-.03.19.02.22.11v.03l.11.69.46.31c1.57-.58 3.12-1.27 4.67-1.91 0-.02 0-.03 0-.04-.05-.12-.07-.19.12-.31.1-.06.31-.14.76-.32.21-.08.46-.19.89-.36.51-.21.67-.25.74-.06.05.1 0 .2.05.33.03.08.39-.11.92-.31 1.24-.46 3.24-1.28 4.69-1.86l.78-.32c.25-.1.45-.21.58-.37.12-.15.18-.35.17-.63 0-.12 0-.26 0-.41.01-.54.02-1.23-.39-1.41-.09-.04-.13-.14-.09-.23.03-.09.14-.13.23-.09.62.27.61 1.09.6 1.74 0 .14-.01.27 0 .38.02.38-.08.66-.25.87s-.42.36-.72.48l-.78.31c-1.44.58-3.53 1.42-4.78 1.89-.53.2-.9.36-1.11.35-.07-.01-.16-.07-.17-.12-.06-.14-.01-.27-.02-.29-.02-.06-.07-.03-.32.07-.32.13-.64.26-.89.36-.36.15-.56.23-.66.27.01.07.01.15-.04.28-.02.04-.05.07-.1.09-1.6.66-3.22 1.38-4.85 1.98-.05.02-.1.02-.15-.02l-.6-.4c-.04-.02-.07-.07-.08-.12l-.08-.57c-.18.05-.47.14-.9.3l-.28.11c-1.16.43-5.14 1.91-5.15 1.97-.03.16-.02.29-.01.4.04.35.07.58-.63.9-1.45.66-1.65.45-1.85.24-.03-.03-.06-.06-.09-.08-.16-.07-1.59.51-2.88 1.04-1.04.42-2 .81-2.25.81z"/><path d="m1.53 11.61c.04-.02.09 0 .11.05.02.04-.01.09-.05.11-.04.01-.11.05-.16.1-.04.04-.06.07-.07.1-.04.18-.06.46-.07.73 0 .2 0 .41.03.56.01.12.03.2.05.21.05 0 .08.04.08.09 0 .04-.04.08-.09.08h-.02c-.11-.02-.17-.16-.2-.35-.02-.16-.03-.38-.02-.6 0-.28.03-.57.07-.76.01-.07.06-.13.12-.18.07-.07.17-.13.22-.14z"/><path d="m1.53 10.64c-.09.03-.19-.02-.22-.11s.01-.19.1-.22c4.7-1.75 9.14-3.43 13.57-5.11 4.4-1.67 8.79-3.34 13.57-5.11.16-.07.33-.09.5-.09.16.01.33.04.49.11l.86.38c.08.04.13.14.09.23s-.15.13-.23.09l-.86-.38c-.12-.05-.24-.08-.36-.08-.13 0-.25.02-.37.06-4.7 1.75-9.14 3.43-13.57 5.11-4.4 1.67-8.79 3.34-13.57 5.12z"/><path d="m1.59 11.77c-.05.02-.1-.01-.11-.05-.02-.05 0-.1.05-.11l29.05-10.81c.04-.02.09 0 .11.05.02.04-.01.09-.05.11z"/><path d="m23.41 6.17c.09.03.14.13.11.22-.04.09-.14.14-.23.11l-.73-.25c-.09-.04-.14-.13-.11-.23.03-.09.13-.14.22-.11z"/><path d="m15.75 8.43c.08.05.11.16.06.24-.05.09-.16.11-.24.06l-.88-.53c-.08-.05-.11-.16-.06-.24s.16-.11.24-.06z"/><path d="m.16 11.11c-.04-.03-.04-.08-.01-.12.02-.04.08-.05.12-.02l1.11.82c.03.02.04.08.01.12s-.08.04-.12.02z"/><path d="m1.43 10.31c.09-.03.18.02.21.12.03.09-.03.19-.12.21h-.01c-.2.06-.41.12-.58.18-.09.02-.17.05-.24.08s-.12.06-.17.08c-.04.03-.08.05-.1.08h-.01c-.02.02-.03.04-.04.06-.01.01-.01.02-.01.03v.06c.01.09-.07.18-.16.18-.1.01-.18-.07-.19-.16 0-.04 0-.07 0-.11v-.01c.01-.05.02-.1.05-.15.02-.05.06-.1.11-.14l.01-.02c.04-.04.1-.08.16-.12.06-.03.14-.07.22-.1s.17-.06.26-.1c.18-.06.39-.11.6-.17z"/></g></svg>