<?xml version="1.0" encoding="UTF-8"?>
<!DOCTYPE svg PUBLIC "-//W3C//DTD SVG 1.1//EN" "http://www.w3.org/Graphics/SVG/1.1/DTD/svg11.dtd">
<!-- Creator: CorelDRAW 2021.5 -->
<svg xmlns="http://www.w3.org/2000/svg" xml:space="preserve" width="500px" height="239px" version="1.1" style="shape-rendering:geometricPrecision; text-rendering:geometricPrecision; image-rendering:optimizeQuality; fill-rule:evenodd; clip-rule:evenodd"
viewBox="0 0 32.55 15.57"
 xmlns:xlink="http://www.w3.org/1999/xlink"
 xmlns:xodm="http://www.corel.com/coreldraw/odm/2003">
 <defs>
  <style type="text/css">
   <![CDATA[
    .fil0 {fill:dimgray}
    .fil1 {fill:#858585}
    .fil2 {fill:#999999}
    .fil3 {fill:#BFBFBF}
    .fil4 {fill:#5F5F5F;fill-rule:nonzero}
   ]]>
  </style>
 </defs>
 <g id="Слой_x0020_1">
  <metadata id="CorelCorpID_0Corel-Layer"/>
  <g id="_2904341898976">
   <path class="fil0" d="M26.82 3.38c0.1,0.14 0.28,0.19 0.43,0.13l1.35 -0.54 -0.01 -0.01c-0.2,-0.22 -0.51,-0.3 -0.79,-0.18l-1.1 0.43c0.04,0.05 0.08,0.11 0.12,0.17z"/>
   <path class="fil1" d="M26.7 3.21l1.1 -0.43c0.28,-0.12 0.59,-0.04 0.79,0.18l0.01 0.01 0.22 -0.09c0.19,-0.07 0.18,-0.28 0.11,-0.46 -0.18,-0.42 -0.45,-0.81 -0.99,-0.6 -1.71,0.67 -1.86,0.51 -1.24,1.39z"/>
   <path class="fil2" d="M6.33 11.89c-0.37,-0.64 -0.75,-1.28 -1.13,-1.93 -0.16,0.16 -0.29,0.33 -0.4,0.47 -0.14,0.16 -0.24,0.27 -0.49,0.4 0.36,0.64 0.73,1.28 1.09,1.91 0.02,-0.01 0.04,-0.02 0.06,-0.04 0.22,-0.18 0.4,-0.4 0.58,-0.59 0.06,-0.06 0.13,-0.12 0.29,-0.22z"/>
   <path class="fil3" d="M5.4 12.74c-0.36,-0.63 -0.73,-1.27 -1.09,-1.91 -0.07,0.04 -0.14,0.07 -0.23,0.11 -0.42,0.18 -1.14,0.42 -1.73,0.61 -0.59,0.19 -1.06,0.35 -1.33,0.46 -0.18,0.08 -0.28,0.13 -0.35,0.21 0.33,0.63 0.66,1.26 0.99,1.89 0.12,-0.05 0.27,-0.1 0.46,-0.17 0.6,-0.2 1.59,-0.5 2.22,-0.72 0.58,-0.2 0.85,-0.32 1.06,-0.48z"/>
   <path class="fil2" d="M1.66 14.11c-0.33,-0.63 -0.66,-1.26 -0.99,-1.89 -0.04,0.03 -0.07,0.08 -0.11,0.13 -0.1,0.16 -0.22,0.4 -0.29,0.58 -0.07,0.18 -0.09,0.3 -0.08,0.48 0,0.18 0.04,0.42 0.14,0.63 0.1,0.22 0.26,0.41 0.42,0.52 0.1,0.08 0.2,0.12 0.3,0.15 0.05,0.01 0.1,0.02 0.15,0.04 -0.03,-0.01 -0.05,-0.02 -0.07,-0.04 -0.06,-0.04 -0.07,-0.1 -0.06,-0.16 0.01,-0.06 0.05,-0.12 0.16,-0.21 0.07,-0.06 0.19,-0.13 0.43,-0.23z"/>
   <path class="fil1" d="M17.64 7.34c-2.26,0.86 -6.65,2.59 -8.94,3.52 -1.47,0.6 -2.07,0.87 -2.37,1.03 -0.16,0.1 -0.23,0.16 -0.29,0.22 -0.18,0.19 -0.36,0.41 -0.58,0.59 -0.02,0.02 -0.04,0.03 -0.06,0.04 -0.21,0.16 -0.48,0.28 -1.06,0.48 -0.63,0.22 -1.62,0.52 -2.22,0.72 -0.19,0.07 -0.34,0.12 -0.46,0.17 -0.24,0.1 -0.36,0.17 -0.43,0.23 -0.11,0.09 -0.15,0.15 -0.16,0.21 -0.01,0.06 0,0.12 0.06,0.16 0.02,0.02 0.04,0.03 0.07,0.04 0.01,0 0.01,0 0.01,0 0.06,0.01 0.15,0.01 0.25,-0.01 0.16,-0.03 0.36,-0.12 0.55,-0.18 0.19,-0.06 0.37,-0.11 0.47,-0.11 0.11,0 0.14,0.04 0.03,0.11 -0.11,0.08 -0.37,0.2 -0.58,0.28 -0.22,0.07 -0.39,0.1 -0.52,0.11 -0.13,0.01 -0.2,0.01 -0.26,-0.04 -0.02,-0.02 -0.04,-0.05 -0.06,-0.09 0.04,0.13 0.08,0.26 0.15,0.36 0.07,0.09 0.16,0.14 0.27,0.17 0.11,0.03 0.22,0.04 0.36,0.03 0.14,-0.02 0.31,-0.06 0.91,-0.3 0.6,-0.23 1.65,-0.66 2.23,-0.9 0.58,-0.24 0.68,-0.29 0.79,-0.38 0.11,-0.09 0.22,-0.22 0.39,-0.35 0.18,-0.12 0.41,-0.25 2.41,-1.07 2,-0.82 5.76,-2.35 8.69,-3.53 2.92,-1.18 5.01,-2.03 6.09,-2.46 1.08,-0.44 1.15,-0.47 1.23,-0.48 0.09,-0.02 0.19,-0.02 0.35,-0.05 0.16,-0.02 0.39,-0.08 0.91,-0.25 0.53,-0.17 1.35,-0.46 2.45,-0.86 1.09,-0.4 2.46,-0.92 3.83,-1.44 0.03,-0.03 0.06,-0.08 0.09,-0.15 0.06,-0.18 0.09,-0.49 0.11,-0.72 0.02,-0.23 0.02,-0.38 -0.01,-0.53 -3.14,1.2 -6.28,2.4 -8.15,3.14 -1.88,0.73 -2.48,1 -2.94,1.15 -0.47,0.16 -0.79,0.2 -1.01,0.22 -0.23,0.03 -0.35,0.05 -2.6,0.92zm-14.51 6.61c0.14,0.05 0.2,0.23 0.15,0.42 -0.06,0.19 -0.22,0.31 -0.36,0.26 -0.14,-0.04 -0.21,-0.23 -0.15,-0.42 0.06,-0.18 0.22,-0.3 0.36,-0.26z"/>
   <path class="fil0" d="M2.51 14.56c0.11,-0.07 0.08,-0.11 -0.03,-0.11 -0.1,0 -0.28,0.05 -0.47,0.11 -0.19,0.06 -0.39,0.15 -0.55,0.18 -0.1,0.02 -0.19,0.02 -0.25,0.01 0,0 0,0 -0.01,0 0,0 0,0 0,0 -0.05,-0.02 -0.1,-0.03 -0.15,-0.04 0.01,0.03 0.02,0.07 0.04,0.11 0.02,0.04 0.04,0.07 0.06,0.09 0.06,0.05 0.13,0.05 0.26,0.04 0.13,-0.01 0.3,-0.04 0.52,-0.11 0.21,-0.08 0.47,-0.2 0.58,-0.28z"/>
   <path class="fil3" d="M5.2 9.96c0.38,0.65 0.76,1.29 1.13,1.93 0.3,-0.16 0.9,-0.43 2.37,-1.03 2.29,-0.93 6.68,-2.66 8.94,-3.52 2.25,-0.87 2.37,-0.89 2.6,-0.92 0.22,-0.02 0.54,-0.06 1.01,-0.22 0.46,-0.15 1.06,-0.42 2.94,-1.15 1.87,-0.74 5.01,-1.94 8.15,-3.14 -0.03,-0.16 -0.09,-0.32 -0.28,-0.63 -0.19,-0.3 -0.51,-0.74 -0.74,-0.94 -0.23,-0.2 -0.38,-0.16 -0.5,-0.12 -0.11,0.03 -0.2,0.06 -0.29,0.1 -0.02,0 -0.04,0.01 -0.06,0.02 -6.11,2.3 -12.19,4.58 -15.27,5.73 -3.12,1.17 -3.18,1.17 -3.26,1.18 -0.08,0 -0.17,0.01 -0.3,0.02 -0.13,0.02 -0.31,0.05 -1.21,0.39 -0.91,0.34 -2.54,0.99 -3.5,1.38 -0.96,0.39 -1.26,0.52 -1.51,0.72 -0.08,0.06 -0.15,0.13 -0.22,0.2zm21.5 -6.75c-0.62,-0.88 -0.47,-0.72 1.24,-1.39 0.54,-0.21 0.81,0.18 0.99,0.6 0.07,0.18 0.08,0.39 -0.11,0.46l-0.22 0.09 -1.35 0.54c-0.15,0.06 -0.33,0.01 -0.43,-0.13 -0.04,-0.06 -0.08,-0.12 -0.12,-0.17z"/>
   <path class="fil4" d="M1.1 14.63c0.02,-0.01 0.05,-0.01 0.08,0.01 0.02,0.01 0.05,0.02 0.1,0.03 0.04,0 0.1,0 0.16,-0.02 0.1,-0.02 0.23,-0.06 0.35,-0.11 0.06,-0.02 0.12,-0.04 0.19,-0.07 0.1,-0.03 0.2,-0.06 0.28,-0.08 0.09,-0.02 0.16,-0.03 0.22,-0.03 0.05,0 0.09,0 0.12,0.02l0.01 0c0.02,0.02 0.04,0.04 0.05,0.07l0.01 0.01c0,0.03 0,0.05 -0.02,0.08 -0.01,0.03 -0.04,0.07 -0.09,0.1 -0.06,0.04 -0.16,0.09 -0.27,0.15 -0.1,0.05 -0.22,0.1 -0.33,0.13 -0.12,0.04 -0.22,0.07 -0.31,0.09 -0.09,0.02 -0.17,0.03 -0.23,0.03 -0.07,0.01 -0.13,0.01 -0.18,0 -0.06,0 -0.1,-0.02 -0.15,-0.06 -0.03,-0.03 -0.06,-0.07 -0.08,-0.12 -0.02,-0.04 -0.03,-0.08 -0.05,-0.13 -0.01,-0.04 0.01,-0.1 0.06,-0.11 0.03,-0.01 0.06,0 0.08,0.01zm0.16 0.22l-0.05 -0.01c0.01,0.01 0.03,0.02 0.06,0.02 0.03,0.01 0.08,0.01 0.13,0 0.06,0 0.14,-0.01 0.22,-0.03 0.08,-0.02 0.17,-0.04 0.28,-0.08 0.1,-0.04 0.21,-0.08 0.32,-0.13l0.1 -0.05 -0.02 0c-0.08,0.02 -0.17,0.05 -0.26,0.08 -0.06,0.02 -0.12,0.04 -0.18,0.06 -0.14,0.05 -0.27,0.1 -0.38,0.12 -0.09,0.02 -0.16,0.02 -0.22,0.02z"/>
   <path class="fil4" d="M32.31 1.82c0.05,-0.02 0.1,0.01 0.12,0.06 0.02,0.04 -0.01,0.1 -0.06,0.11l-0.03 0.02c-3.13,1.2 -6.26,2.39 -8.12,3.12 -0.8,0.32 -1.35,0.54 -1.77,0.71 -0.59,0.24 -0.91,0.36 -1.17,0.45 -0.48,0.16 -0.81,0.2 -1.03,0.22l0 0c-0.11,0.02 -0.19,0.03 -0.52,0.14 -0.34,0.12 -0.93,0.34 -2.06,0.77 -1.2,0.47 -3.04,1.18 -4.85,1.9 -1.53,0.6 -3.03,1.2 -4.08,1.63 -1.15,0.46 -1.76,0.73 -2.12,0.9 -0.34,0.17 -0.43,0.24 -0.52,0.33 -0.06,0.06 -0.12,0.12 -0.18,0.19 -0.13,0.14 -0.26,0.28 -0.41,0.4 -0.11,0.1 -0.24,0.18 -0.42,0.26 -0.18,0.08 -0.4,0.17 -0.72,0.28 -0.3,0.1 -0.68,0.22 -1.07,0.34 -0.42,0.14 -0.84,0.27 -1.15,0.38 -0.29,0.1 -0.48,0.18 -0.62,0.24 -0.12,0.06 -0.2,0.1 -0.25,0.14 -0.04,0.04 -0.07,0.07 -0.09,0.1l0 0c-0.02,0.02 -0.02,0.04 -0.03,0.06 0,0.02 0,0.03 0,0.05l0 0c0.01,0.01 0.01,0.01 0.02,0.02 0.04,0.03 0.05,0.08 0.02,0.13 -0.02,0.04 -0.08,0.05 -0.12,0.02 -0.05,-0.03 -0.08,-0.07 -0.09,-0.12l0 0c-0.02,-0.05 -0.02,-0.09 -0.01,-0.14 0.01,-0.04 0.02,-0.08 0.05,-0.12l0.01 -0.01c0.03,-0.04 0.07,-0.08 0.13,-0.13 0.06,-0.05 0.14,-0.1 0.29,-0.17 0.14,-0.06 0.33,-0.14 0.63,-0.25 0.32,-0.1 0.74,-0.24 1.16,-0.37 0.37,-0.12 0.75,-0.24 1.06,-0.35 0.31,-0.1 0.53,-0.18 0.7,-0.26 0.17,-0.08 0.28,-0.15 0.39,-0.24 0.14,-0.11 0.26,-0.25 0.38,-0.38 0.07,-0.07 0.13,-0.14 0.19,-0.2 0.1,-0.1 0.2,-0.19 0.57,-0.37 0.36,-0.17 0.98,-0.44 2.13,-0.9 1.05,-0.43 2.55,-1.03 4.08,-1.63 1.78,-0.71 3.63,-1.43 4.86,-1.9 1.13,-0.44 1.72,-0.66 2.06,-0.77 0.35,-0.12 0.44,-0.13 0.55,-0.15l0.01 0c0.21,-0.02 0.53,-0.06 0.99,-0.21 0.27,-0.09 0.58,-0.22 1.16,-0.45 0.42,-0.17 0.99,-0.4 1.77,-0.71 1.87,-0.73 5,-1.93 8.12,-3.12l0.04 -0.02z"/>
   <path class="fil4" d="M30.61 0.09c0.1,-0.04 0.2,0.01 0.24,0.11 0.03,0.09 -0.01,0.2 -0.11,0.23l-8.89 3.34c-2.7,1.02 -5.03,1.89 -6.59,2.47 -1.59,0.6 -2.38,0.89 -2.77,1.03 -0.44,0.15 -0.49,0.16 -0.54,0.16l-0.05 0c-0.06,0.01 -0.14,0.01 -0.24,0.02 -0.06,0.01 -0.13,0.02 -0.29,0.07 -0.17,0.05 -0.44,0.14 -0.88,0.31 -0.39,0.14 -0.94,0.36 -1.52,0.59 -0.71,0.28 -1.44,0.57 -1.97,0.79 -0.48,0.19 -0.79,0.32 -1.01,0.43 -0.21,0.1 -0.34,0.17 -0.45,0.26 -0.21,0.17 -0.39,0.39 -0.54,0.57l-0.06 0.08c-0.09,0.11 -0.17,0.2 -0.29,0.29 -0.12,0.09 -0.27,0.17 -0.5,0.27 -0.39,0.17 -1.03,0.38 -1.59,0.56l-0.16 0.05c-0.31,0.11 -0.58,0.2 -0.78,0.27 -0.21,0.07 -0.39,0.14 -0.53,0.19 -0.12,0.05 -0.2,0.09 -0.25,0.13 -0.05,0.04 -0.08,0.08 -0.12,0.14 -0.05,0.07 -0.1,0.16 -0.14,0.25 -0.05,0.1 -0.1,0.21 -0.14,0.3 -0.03,0.08 -0.05,0.15 -0.06,0.21 -0.01,0.06 -0.02,0.12 -0.01,0.19 0,0.09 0.01,0.19 0.04,0.3 0.02,0.09 0.05,0.18 0.09,0.27 0.04,0.08 0.09,0.17 0.15,0.24l0 0.01c0.07,0.08 0.14,0.16 0.2,0.21 0.06,0.05 0.11,0.09 0.16,0.12 0.05,0.03 0.1,0.05 0.15,0.08 0.09,0.04 0.13,0.15 0.08,0.24 -0.04,0.09 -0.15,0.13 -0.24,0.09 -0.06,-0.03 -0.12,-0.06 -0.18,-0.1 -0.07,-0.04 -0.14,-0.09 -0.22,-0.15 -0.07,-0.07 -0.16,-0.16 -0.24,-0.27l-0.01 -0.01c-0.07,-0.09 -0.13,-0.2 -0.18,-0.31 -0.05,-0.11 -0.09,-0.22 -0.12,-0.33 -0.03,-0.14 -0.04,-0.26 -0.05,-0.37 0,-0.11 0,-0.19 0.02,-0.28 0.02,-0.09 0.04,-0.17 0.08,-0.27 0.04,-0.1 0.09,-0.22 0.15,-0.33 0.05,-0.11 0.11,-0.21 0.16,-0.29 0.06,-0.09 0.12,-0.16 0.21,-0.23 0.08,-0.06 0.18,-0.11 0.33,-0.18 0.14,-0.05 0.33,-0.12 0.55,-0.2 0.25,-0.09 0.51,-0.17 0.79,-0.26l0.15 -0.06c0.56,-0.18 1.19,-0.38 1.57,-0.55 0.2,-0.08 0.32,-0.15 0.41,-0.22 0.09,-0.07 0.16,-0.15 0.23,-0.24l0.07 -0.08c0.16,-0.19 0.36,-0.43 0.59,-0.61 0.14,-0.11 0.28,-0.2 0.52,-0.32 0.23,-0.11 0.55,-0.24 1.03,-0.43 0.54,-0.22 1.27,-0.52 1.97,-0.79 0.56,-0.22 1.11,-0.44 1.53,-0.6 0.46,-0.17 0.73,-0.26 0.91,-0.31 0.19,-0.06 0.27,-0.07 0.35,-0.08 0.1,-0.01 0.19,-0.02 0.26,-0.02l0.05 -0.01c0.02,0 0.04,0 0.44,-0.14 0.43,-0.15 1.23,-0.45 2.76,-1.02 1.56,-0.58 3.89,-1.45 6.6,-2.47l8.88 -3.34z"/>
   <path class="fil4" d="M0.91 14.87c-0.03,-0.1 0.03,-0.2 0.13,-0.23 0.1,-0.03 0.2,0.03 0.23,0.13 0.03,0.11 0.07,0.23 0.12,0.3 0.02,0.02 0.04,0.04 0.07,0.06l0.01 0.01c0.03,0.01 0.06,0.03 0.09,0.04l0 0c0.04,0.01 0.09,0.02 0.13,0.02 0.05,0 0.1,0 0.16,0 0.06,-0.01 0.13,-0.03 0.25,-0.06 0.13,-0.04 0.31,-0.11 0.61,-0.23 0.28,-0.11 0.66,-0.26 1.05,-0.42 0.43,-0.17 0.87,-0.35 1.18,-0.48 0.29,-0.12 0.46,-0.19 0.56,-0.24 0.1,-0.05 0.14,-0.08 0.19,-0.11 0.03,-0.04 0.07,-0.07 0.11,-0.11 0.08,-0.07 0.17,-0.16 0.29,-0.24 0.09,-0.07 0.2,-0.14 0.55,-0.3 0.32,-0.15 0.88,-0.38 1.89,-0.8 1.06,-0.43 2.49,-1.02 4,-1.63 1.56,-0.63 3.23,-1.31 4.69,-1.9 2.12,-0.86 4.24,-1.71 6.35,-2.57 0.85,-0.34 0.91,-0.37 1.01,-0.39 0.04,0 0.08,-0.01 0.14,-0.01 0.05,-0.01 0.12,-0.01 0.21,-0.03 0.07,-0.01 0.17,-0.03 0.3,-0.07 0.14,-0.03 0.33,-0.09 0.59,-0.17 0.27,-0.09 0.62,-0.21 1.05,-0.36 0.39,-0.14 0.85,-0.31 1.38,-0.5 1.11,-0.41 2.45,-0.92 3.8,-1.43l0.03 -0.01c0.1,-0.04 0.2,0.01 0.24,0.11 0.03,0.09 -0.01,0.2 -0.11,0.23l-0.03 0.01c-1.37,0.52 -2.74,1.04 -3.8,1.43 -0.52,0.19 -0.99,0.36 -1.39,0.5 -0.43,0.16 -0.79,0.28 -1.06,0.37 -0.27,0.08 -0.46,0.14 -0.6,0.18 -0.15,0.04 -0.25,0.06 -0.34,0.07 -0.1,0.02 -0.17,0.03 -0.24,0.03 -0.04,0.01 -0.07,0.01 -0.11,0.02 -0.06,0.01 -0.12,0.03 -0.93,0.36l-6.35 2.57c-1.46,0.59 -3.14,1.27 -4.69,1.9 -1.6,0.65 -3.05,1.24 -4,1.63 -0.99,0.41 -1.55,0.65 -1.88,0.8 -0.32,0.14 -0.41,0.2 -0.49,0.25 -0.1,0.08 -0.18,0.15 -0.25,0.22 -0.05,0.04 -0.09,0.08 -0.13,0.12 -0.06,0.05 -0.13,0.09 -0.26,0.16 -0.12,0.06 -0.29,0.13 -0.58,0.25 -0.3,0.13 -0.74,0.31 -1.18,0.49 -0.38,0.15 -0.76,0.3 -1.05,0.41 -0.31,0.12 -0.5,0.19 -0.64,0.24 -0.15,0.04 -0.24,0.06 -0.31,0.07 -0.09,0.01 -0.16,0.01 -0.23,0.01 -0.08,-0.01 -0.15,-0.02 -0.21,-0.04 -0.07,-0.02 -0.13,-0.05 -0.19,-0.08l-0.01 -0.01c-0.06,-0.04 -0.12,-0.09 -0.17,-0.16 -0.08,-0.11 -0.13,-0.26 -0.17,-0.4l-0.01 -0.01z"/>
   <path class="fil4" d="M5.12 10.01c-0.02,-0.04 -0.01,-0.1 0.03,-0.12 0.05,-0.03 0.1,-0.02 0.13,0.03l1.13 1.93c0.03,0.04 0.01,0.1 -0.03,0.12 -0.04,0.03 -0.1,0.01 -0.12,-0.03l-1.14 -1.93z"/>
   <path class="fil4" d="M4.23 10.88c-0.03,-0.04 -0.01,-0.1 0.03,-0.13 0.05,-0.02 0.1,-0.01 0.13,0.04l1.09 1.91c0.03,0.04 0.01,0.1 -0.03,0.12 -0.04,0.03 -0.1,0.01 -0.12,-0.03l-1.1 -1.91z"/>
   <path class="fil4" d="M0.59 12.26c-0.03,-0.05 -0.01,-0.1 0.04,-0.12 0.04,-0.03 0.1,-0.01 0.12,0.03l0.99 1.9c0.03,0.04 0.01,0.1 -0.03,0.12 -0.05,0.03 -0.11,0.01 -0.13,-0.04l-0.99 -1.89z"/>
   <path class="fil4" d="M26.75 3.43l-0.09 -0.12c-0.33,-0.46 -0.48,-0.67 -0.33,-0.88 0.1,-0.14 0.37,-0.24 0.86,-0.42 0.2,-0.07 0.44,-0.16 0.72,-0.27 0.31,-0.12 0.54,-0.07 0.72,0.07 0.17,0.14 0.29,0.35 0.38,0.57l0.01 0.02c0.04,0.1 0.06,0.21 0.04,0.31 -0.02,0.11 -0.08,0.21 -0.2,0.26 -0.53,0.2 -1.05,0.41 -1.57,0.62 -0.1,0.04 -0.2,0.04 -0.3,0.02 -0.09,-0.03 -0.18,-0.09 -0.24,-0.18zm0.06 -0.23l0.09 0.13c0.04,0.05 0.09,0.08 0.14,0.1 0.06,0.02 0.12,0.01 0.18,-0.01 0.52,-0.2 1.06,-0.4 1.57,-0.62 0.05,-0.03 0.08,-0.07 0.09,-0.12 0.01,-0.06 0,-0.14 -0.03,-0.21l-0.01 -0.02c-0.08,-0.2 -0.19,-0.38 -0.33,-0.49 -0.13,-0.11 -0.3,-0.14 -0.53,-0.05 -0.28,0.11 -0.52,0.2 -0.73,0.27 -0.45,0.17 -0.7,0.26 -0.77,0.36 -0.07,0.1 0.05,0.27 0.33,0.66z"/>
   <path class="fil4" d="M26.73 3.29c-0.04,0.02 -0.1,0 -0.11,-0.05 -0.02,-0.05 0,-0.1 0.05,-0.12l1.1 -0.43c0.16,-0.06 0.32,-0.07 0.48,-0.04 0.15,0.04 0.3,0.12 0.41,0.25l0.01 0.01c0.03,0.04 0.03,0.09 -0.01,0.13 -0.03,0.03 -0.09,0.03 -0.13,-0.01l0 -0.01c-0.09,-0.1 -0.2,-0.16 -0.32,-0.19 -0.12,-0.03 -0.25,-0.02 -0.38,0.03l-1.1 0.43z"/>
   <path class="fil4" d="M30.54 0.51c-0.1,0.04 -0.2,-0.01 -0.24,-0.11 -0.04,-0.09 0.01,-0.2 0.1,-0.23l0.02 -0.01c0.1,-0.04 0.21,-0.08 0.34,-0.12 0.08,-0.02 0.17,-0.05 0.29,-0.04 0.11,0.02 0.24,0.07 0.39,0.2 0.11,0.1 0.24,0.24 0.36,0.4 0.16,0.2 0.3,0.41 0.41,0.58 0.1,0.16 0.17,0.29 0.22,0.4 0.05,0.11 0.07,0.2 0.09,0.29 0.02,0.09 0.03,0.18 0.03,0.28 0,0.09 0,0.19 -0.01,0.31 -0.01,0.13 -0.03,0.29 -0.06,0.44 -0.02,0.12 -0.04,0.23 -0.07,0.32 -0.05,0.12 -0.1,0.2 -0.17,0.25 -0.06,0.06 -0.12,0.08 -0.18,0.1 -0.1,0.03 -0.21,-0.01 -0.24,-0.11 -0.03,-0.09 0.01,-0.2 0.11,-0.23 0.03,-0.02 0.06,-0.03 0.08,-0.04 0.02,-0.02 0.04,-0.04 0.05,-0.09 0.03,-0.07 0.05,-0.16 0.06,-0.26 0.02,-0.13 0.04,-0.28 0.05,-0.41 0.01,-0.12 0.01,-0.21 0.01,-0.28 0,-0.07 0,-0.14 -0.02,-0.21 -0.01,-0.06 -0.03,-0.13 -0.07,-0.22 -0.04,-0.09 -0.1,-0.2 -0.19,-0.34 -0.1,-0.16 -0.24,-0.37 -0.38,-0.55 -0.12,-0.14 -0.23,-0.27 -0.32,-0.35 -0.09,-0.08 -0.15,-0.11 -0.2,-0.11 -0.04,-0.01 -0.08,0.01 -0.13,0.02 -0.11,0.04 -0.22,0.08 -0.33,0.12l0 0z"/>
   <ellipse class="fil2" transform="matrix(1.2419 0.390158 -0.390158 1.2419 3.02387 14.2921)" rx="0.2" ry="0.27"/>
   <path class="fil4" d="M3.16 13.86c0.1,0.04 0.17,0.11 0.2,0.22l0.01 0c0.03,0.1 0.03,0.21 -0.01,0.32 -0.03,0.11 -0.1,0.2 -0.18,0.26 -0.09,0.07 -0.19,0.09 -0.29,0.06 -0.1,-0.03 -0.17,-0.11 -0.21,-0.21 -0.03,-0.1 -0.03,-0.21 0,-0.32 0.04,-0.12 0.11,-0.21 0.19,-0.27 0.09,-0.06 0.19,-0.09 0.29,-0.06zm0.03 0.28c-0.02,-0.05 -0.05,-0.09 -0.09,-0.1 -0.04,-0.01 -0.08,0 -0.13,0.03 -0.04,0.04 -0.09,0.1 -0.11,0.17 -0.02,0.08 -0.02,0.15 0,0.21 0.01,0.04 0.04,0.08 0.08,0.09 0.04,0.02 0.09,0 0.13,-0.03 0.05,-0.03 0.09,-0.09 0.12,-0.17 0.02,-0.07 0.02,-0.14 0,-0.2l0 0z"/>
  </g>
 </g>
</svg>
