<?xml version="1.0" encoding="UTF-8"?>
<!DOCTYPE svg PUBLIC "-//W3C//DTD SVG 1.1//EN" "http://www.w3.org/Graphics/SVG/1.1/DTD/svg11.dtd">
<!-- Creator: CorelDRAW 2021.5 -->
<svg xmlns="http://www.w3.org/2000/svg" xml:space="preserve" width="500px" height="253px" version="1.1" style="shape-rendering:geometricPrecision; text-rendering:geometricPrecision; image-rendering:optimizeQuality; fill-rule:evenodd; clip-rule:evenodd"
viewBox="0 0 56.11 28.45"
 xmlns:xlink="http://www.w3.org/1999/xlink"
 xmlns:xodm="http://www.corel.com/coreldraw/odm/2003">
 <defs>
  <style type="text/css">
   <![CDATA[
    .fil4 {fill:#737373}
    .fil2 {fill:#858585}
    .fil3 {fill:#999999}
    .fil1 {fill:#A5C8FA}
    .fil0 {fill:#BFBFBF}
    .fil5 {fill:#5F5F5F;fill-rule:nonzero}
   ]]>
  </style>
 </defs>
 <g id="Слой_x0020_1">
  <metadata id="CorelCorpID_0Corel-Layer"/>
  <g id="_2126726076960">
   <path class="fil0" d="M44.76 4.73c1.97,-0.72 2.49,-0.91 2.82,-1.02 0.34,-0.11 0.48,-0.14 0.63,-0.13 0.14,0.02 0.29,0.07 0.53,0.18 0.24,0.1 0.57,0.26 0.78,0.34 0.21,0.09 0.3,0.12 0.44,0.13 0.15,0.01 0.35,0.01 1.27,-0.28 0.92,-0.29 2.56,-0.86 4.19,-1.44 -0.08,-0.08 -0.22,-0.19 -0.5,-0.39 -0.43,-0.32 -1.18,-0.85 -1.65,-1.18 -0.47,-0.32 -0.66,-0.45 -0.81,-0.52 -0.15,-0.08 -0.27,-0.1 -0.4,-0.1 -0.12,-0.01 -0.25,0.02 -0.46,0.09 -0.21,0.07 -0.5,0.19 -8.97,3.27 -8.48,3.09 -25.15,9.15 -33.51,12.2 -8.37,3.05 -8.43,3.09 -8.48,3.14 0.61,1.45 1.22,2.89 1.59,3.75 0.38,0.87 0.52,1.15 0.63,1.32 0.11,0.18 0.19,0.25 0.29,0.3 0.11,0.04 0.24,0.06 1.19,-0.11 0.96,-0.18 2.74,-0.54 3.68,-0.73 0.93,-0.2 1.02,-0.23 1.11,-0.32 0.09,-0.09 0.18,-0.24 0.31,-0.51 0.11,-0.25 0.26,-0.61 0.41,-0.97 -0.49,0.12 -1.36,0.34 -1.88,0.46 -0.53,0.13 -0.68,0.16 -0.79,0.16 -0.11,-0.01 -0.18,-0.05 -0.29,-0.19 -0.09,-0.13 -0.21,-0.35 -0.29,-0.51 0,-0.02 -0.01,-0.04 -0.02,-0.06 -0.03,-0.06 -0.04,-0.1 -0.05,-0.14 -0.06,-0.18 -0.12,-0.34 -0.15,-0.45 -0.05,-0.16 -0.05,-0.23 -0.02,-0.3 0.02,-0.07 0.07,-0.15 1.4,-0.65 1.32,-0.49 3.92,-1.41 5.36,-1.92 1.44,-0.5 1.73,-0.58 2.02,-0.64 0.29,-0.05 0.59,-0.08 0.95,0.02 0.37,0.1 0.8,0.33 1.1,0.6 0.3,0.26 0.47,0.56 0.55,0.86 0.08,0.29 0.1,0.58 0.1,0.87 0,0.02 0,0.04 0,0.05 0.01,0.18 0,0.38 -0.06,0.64 -0.02,0.1 -0.06,0.21 -0.1,0.34 -0.03,0.09 -0.07,0.19 -0.11,0.29 -0.16,0.41 -0.39,0.87 -0.52,1.16 -0.11,0.23 -0.16,0.35 -0.19,0.44 0.02,0.05 0.03,0.09 0.08,0.13 0.04,0.03 0.12,0.06 0.55,-0.09 0.43,-0.15 1.22,-0.47 1.67,-0.66 0.46,-0.19 0.58,-0.26 0.68,-0.34 0.11,-0.08 0.2,-0.18 0.29,-0.33 0.09,-0.16 0.18,-0.36 0.27,-0.54 0.1,-0.19 0.2,-0.35 0.35,-0.51 0.14,-0.15 0.33,-0.28 3.18,-1.48 2.86,-1.2 8.39,-3.45 11.17,-4.6 2.79,-1.14 2.81,-1.17 2.84,-1.2 -0.04,-0.11 -0.14,-0.3 -0.34,-0.71 -0.11,-0.2 -0.24,-0.46 -0.38,-0.75 -0.09,-0.17 -0.19,-0.36 -0.28,-0.55 -0.22,-0.43 -0.43,-0.86 -0.57,-1.17 -0.05,-0.11 -0.09,-0.2 -0.13,-0.28 -0.02,-0.05 -0.04,-0.1 -0.06,-0.15 -0.12,-0.3 -0.24,-0.58 -0.31,-0.78 -0.08,-0.24 -0.09,-0.36 -0.06,-0.47 0.03,-0.12 0.1,-0.23 1.84,-0.92 1.74,-0.68 5.15,-1.93 7.11,-2.65z"/>
   <path class="fil1" d="M8.02 23.55c-0.94,0.19 -2.72,0.55 -3.68,0.73 -0.95,0.17 -1.08,0.15 -1.19,0.11 -0.1,-0.05 -0.18,-0.12 -0.29,-0.3 -0.11,-0.17 -0.25,-0.45 -0.63,-1.32 -0.37,-0.86 -0.98,-2.3 -1.59,-3.75 -0.04,0.06 -0.07,0.13 -0.11,0.3 -0.05,0.18 -0.12,0.46 -0.15,0.63 -0.03,0.17 -0.01,0.23 0.34,1.06 0.11,0.26 0.25,0.6 0.41,0.96 0.13,0.29 0.25,0.58 0.38,0.87 0.24,0.54 0.48,1.07 0.67,1.44 0.41,0.84 0.55,0.9 0.68,0.93 0.13,0.03 0.25,0.03 0.51,0 0.26,-0.03 0.65,-0.09 1.66,-0.3 0.48,-0.1 1.1,-0.23 1.71,-0.36 0.67,-0.14 1.32,-0.28 1.76,-0.38 0.85,-0.19 0.92,-0.23 1,-0.31 0.06,-0.08 0.14,-0.19 0.27,-0.43 0.02,-0.04 0.04,-0.07 0.06,-0.11 0.11,-0.22 0.26,-0.52 0.39,-0.78 0.06,-0.14 0.13,-0.26 0.17,-0.36 0.14,-0.3 0.17,-0.38 0.17,-0.44 -0.01,-0.05 -0.04,-0.08 -0.09,-0.09 -0.05,-0.02 -0.1,-0.02 -0.58,0.09 -0.02,0.01 -0.03,0.01 -0.04,0.01 -0.15,0.36 -0.3,0.72 -0.41,0.97 -0.13,0.27 -0.22,0.42 -0.31,0.51 -0.09,0.09 -0.18,0.12 -1.11,0.32z"/>
   <path class="fil2" d="M6.74 24.55c-0.61,0.13 -1.23,0.26 -1.71,0.36 -1.01,0.21 -1.4,0.27 -1.66,0.3 -0.26,0.03 -0.38,0.03 -0.51,0 -0.13,-0.03 -0.27,-0.09 -0.68,-0.93 -0.19,-0.37 -0.42,-0.89 -0.66,-1.43 0.61,1.41 1.19,2.72 1.52,3.47 0.4,0.9 0.45,0.98 0.52,1.05 0.07,0.07 0.17,0.12 0.3,0.15 0.14,0.02 0.31,0.02 1.19,-0.12 0.88,-0.14 2.45,-0.42 3.31,-0.57 0.85,-0.15 0.98,-0.19 1.08,-0.26 0.1,-0.08 0.19,-0.2 0.35,-0.48 0.16,-0.27 0.4,-0.69 0.64,-1.11 -0.05,0.01 -0.11,0.02 -0.17,0.04 -0.54,0.12 -1.58,0.4 -2.14,0.55 -0.57,0.15 -0.67,0.18 -0.77,0.17 -0.1,0 -0.21,-0.03 -0.29,-0.09 -0.08,-0.07 -0.12,-0.16 -0.17,-0.35 -0.05,-0.19 -0.1,-0.47 -0.15,-0.75z"/>
   <path class="fil2" d="M9.89 21.74c0.48,-0.11 0.53,-0.11 0.58,-0.09 0.05,0.01 0.08,0.04 0.09,0.09 0,0.06 -0.03,0.14 -0.17,0.44 -0.04,0.1 -0.11,0.22 -0.17,0.36 1.8,-0.62 3.6,-1.24 4.68,-1.61 1.09,-0.36 1.46,-0.48 1.77,-0.52 0.31,-0.05 0.57,-0.02 0.76,0.02 0.14,0.03 0.25,0.07 0.35,0.12 0.06,-0.26 0.07,-0.46 0.06,-0.64 0,-0.02 0,-0.03 0,-0.05 -0.01,-0.27 -0.05,-0.5 -0.23,-0.76 -0.19,-0.26 -0.51,-0.55 -0.84,-0.73 -0.33,-0.18 -0.66,-0.26 -1.04,-0.26 -0.37,0 -0.8,0.07 -2.29,0.58 -1.49,0.51 -4.04,1.45 -5.37,1.96 -1.34,0.51 -1.45,0.59 -1.5,0.66 -0.04,0.05 -0.05,0.09 -0.04,0.16 0.02,0.06 0.05,0.13 0.07,0.2 0.08,0.16 0.2,0.38 0.29,0.51 0.11,0.14 0.18,0.18 0.29,0.19 0.11,0 0.26,-0.03 0.79,-0.16 0.52,-0.12 1.39,-0.34 1.88,-0.46 0.01,0 0.02,0 0.04,-0.01z"/>
   <path class="fil3" d="M35.1 14.36c-2.78,1.15 -8.31,3.4 -11.17,4.6 -2.85,1.2 -3.04,1.33 -3.18,1.48 -0.15,0.16 -0.25,0.32 -0.35,0.51 -0.09,0.18 -0.18,0.38 -0.27,0.54 -0.09,0.15 -0.18,0.25 -0.29,0.33 -0.1,0.08 -0.22,0.15 -0.68,0.34 -0.45,0.19 -1.24,0.51 -1.67,0.66 -0.43,0.15 -0.51,0.12 -0.55,0.09 -0.05,-0.04 -0.06,-0.08 -0.08,-0.13 -0.01,0.05 -0.02,0.1 -0.02,0.14 0,0.11 0.03,0.25 0.09,0.36 0.07,0.11 0.16,0.18 0.27,0.21 0.1,0.03 0.21,0.02 0.56,-0.1 0.09,-0.03 0.21,-0.07 0.34,-0.12 0.32,-0.11 0.71,-0.26 1.03,-0.39 0.44,-0.19 0.74,-0.34 0.96,-0.49 0.22,-0.16 0.36,-0.31 0.49,-0.51 0.13,-0.2 0.24,-0.45 0.37,-0.66 0.13,-0.2 0.28,-0.36 0.44,-0.47 0.16,-0.12 0.33,-0.19 3.07,-1.32 2.74,-1.13 8.04,-3.33 10.72,-4.45 0.68,-0.29 1.19,-0.51 1.58,-0.67 1.13,-0.49 1.17,-0.54 1.2,-0.62 0.04,-0.11 0.04,-0.27 0.02,-0.39 0,-0.04 -0.01,-0.08 -0.04,-0.14 -0.03,0.03 -0.05,0.06 -2.84,1.2z"/>
   <path class="fil4" d="M24.17 21.99c-2.77,1.13 -3.08,1.26 -3.31,1.4 -0.23,0.15 -0.38,0.31 -0.49,0.56 -0.11,0.25 -0.18,0.58 -0.3,0.81 -0.11,0.22 -0.26,0.33 -0.52,0.48 -0.26,0.16 -0.63,0.36 -0.99,0.53 -0.36,0.18 -0.72,0.32 -0.95,0.4 -0.23,0.07 -0.34,0.08 -0.4,0.06 -0.07,-0.02 -0.08,-0.06 -0.09,-0.1 0.01,0.05 0.02,0.08 0.04,0.12 0.04,0.1 0.1,0.2 0.17,0.26 0.07,0.06 0.15,0.1 0.28,0.12 0.12,0.02 0.29,0.03 0.58,-0.04 0.28,-0.08 0.69,-0.23 1.05,-0.39 0.36,-0.16 0.69,-0.32 0.91,-0.47 0.22,-0.14 0.33,-0.27 0.45,-0.5 0.11,-0.22 0.23,-0.54 0.33,-0.78 0.09,-0.23 0.17,-0.39 0.27,-0.52 0.1,-0.12 0.23,-0.22 1.25,-0.65 1.02,-0.42 2.94,-1.18 5.1,-2.04 2.15,-0.86 4.54,-1.82 6.22,-2.49 1.67,-0.67 2.62,-1.05 3.15,-1.29 0.53,-0.25 0.63,-0.35 0.69,-0.47 0.06,-0.12 0.08,-0.25 0.07,-0.37 -0.01,-0.12 -0.04,-0.23 -0.19,-0.61 0.01,0.12 0.02,0.24 0.01,0.34 -0.02,0.1 -0.07,0.18 -2.71,1.28 -2.63,1.1 -7.86,3.23 -10.62,4.36z"/>
   <path class="fil3" d="M8.07 20.65c1.33,-0.51 3.88,-1.45 5.37,-1.96 1.49,-0.51 1.92,-0.58 2.29,-0.58 0.38,0 0.71,0.08 1.04,0.26 0.33,0.18 0.65,0.47 0.84,0.73 0.18,0.26 0.22,0.49 0.23,0.76 0,-0.29 -0.02,-0.58 -0.1,-0.87 -0.08,-0.3 -0.25,-0.6 -0.55,-0.86 -0.3,-0.27 -0.73,-0.5 -1.1,-0.6 -0.36,-0.1 -0.66,-0.07 -0.95,-0.02 -0.29,0.06 -0.58,0.14 -2.02,0.64 -1.44,0.51 -4.04,1.43 -5.36,1.92 -1.33,0.5 -1.38,0.58 -1.4,0.65 -0.03,0.07 -0.03,0.14 0.02,0.3 0.03,0.11 0.09,0.27 0.15,0.45 -0.01,-0.07 0,-0.11 0.04,-0.16 0.05,-0.07 0.16,-0.15 1.5,-0.66z"/>
   <path class="fil4" d="M10.22 22.54c-0.13,0.26 -0.28,0.56 -0.39,0.78 0.11,-0.22 0.26,-0.52 0.39,-0.78zm-0.45 0.89c0.02,-0.04 0.04,-0.07 0.06,-0.11 -0.02,0.04 -0.04,0.07 -0.06,0.11zm5.13 -2.5c-1.08,0.37 -2.88,0.99 -4.68,1.61 0.06,-0.14 0.13,-0.26 0.17,-0.36 0.14,-0.3 0.17,-0.38 0.17,-0.44 -0.01,-0.05 -0.04,-0.08 -0.09,-0.09 -0.05,-0.02 -0.1,-0.02 -0.58,0.09 -0.02,0.01 -0.03,0.01 -0.04,0.01 -0.15,0.36 -0.3,0.72 -0.41,0.97 -0.13,0.27 -0.22,0.42 -0.31,0.51 -0.09,0.09 -0.18,0.12 -1.11,0.32 -0.94,0.19 -2.72,0.55 -3.68,0.73 -0.95,0.17 -1.08,0.15 -1.19,0.11 -0.1,-0.05 -0.18,-0.12 -0.29,-0.3 -0.11,-0.17 -0.25,-0.45 -0.63,-1.32 -0.37,-0.86 -0.98,-2.3 -1.59,-3.75 -0.04,0.06 -0.07,0.13 -0.11,0.3 -0.05,0.18 -0.12,0.46 -0.15,0.63 -0.03,0.17 -0.01,0.23 0.34,1.06 0.11,0.26 0.25,0.6 0.41,0.96 0.13,0.29 0.25,0.58 0.38,0.87 0,0 0,0.01 0.01,0.01 0.24,0.54 0.47,1.06 0.66,1.43 0.41,0.84 0.55,0.9 0.68,0.93 0.13,0.03 0.25,0.03 0.51,0 0.26,-0.03 0.65,-0.09 1.66,-0.3 0.48,-0.1 1.1,-0.23 1.71,-0.36 0.67,-0.14 1.32,-0.28 1.76,-0.38 0.85,-0.19 0.92,-0.23 1,-0.31 0.06,-0.08 0.14,-0.19 0.27,-0.43 2.24,-0.81 4.47,-1.61 5.7,-2.01 1.24,-0.4 1.47,-0.4 1.66,-0.37 0.18,0.02 0.31,0.07 0.44,0.13 0.04,-0.1 0.08,-0.2 0.11,-0.29 0.04,-0.13 0.08,-0.24 0.1,-0.34 -0.1,-0.05 -0.21,-0.09 -0.35,-0.12 -0.19,-0.04 -0.45,-0.07 -0.76,-0.02 -0.31,0.04 -0.68,0.16 -1.77,0.52z"/>
   <path class="fil2" d="M35.18 14.98c-2.68,1.12 -7.98,3.32 -10.72,4.45 -2.74,1.13 -2.91,1.2 -3.07,1.32 -0.16,0.11 -0.31,0.27 -0.44,0.47 -0.13,0.21 -0.24,0.46 -0.37,0.66 -0.13,0.2 -0.27,0.35 -0.49,0.51 -0.22,0.15 -0.52,0.3 -0.96,0.49 -0.32,0.13 -0.71,0.28 -1.03,0.39 0.02,0.14 0.04,0.29 -0.02,0.54 -0.05,0.25 -0.18,0.61 -0.33,0.9 -0.15,0.29 -0.32,0.52 -0.44,0.71 -0.12,0.19 -0.19,0.35 -0.21,0.48 -0.01,0.09 0,0.16 0.02,0.23 0.01,0.04 0.02,0.08 0.09,0.1 0.06,0.02 0.17,0.01 0.4,-0.06 0.23,-0.08 0.59,-0.22 0.95,-0.4 0.36,-0.17 0.73,-0.37 0.99,-0.53 0.26,-0.15 0.41,-0.26 0.52,-0.48 0.12,-0.23 0.19,-0.56 0.3,-0.81 0.11,-0.25 0.26,-0.41 0.49,-0.56 0.23,-0.14 0.54,-0.27 3.31,-1.4 2.76,-1.13 7.99,-3.26 10.62,-4.36 2.64,-1.1 2.69,-1.18 2.71,-1.28 0.01,-0.1 0,-0.22 -0.01,-0.34 -0.16,-0.39 -0.45,-1.04 -0.73,-1.7 -0.39,0.16 -0.9,0.38 -1.58,0.67z"/>
   <path class="fil3" d="M45.19 5.3c1.74,-0.63 2.03,-0.74 2.27,-0.82 0.23,-0.08 0.42,-0.14 0.61,-0.15 0.18,-0.02 0.37,0 0.56,0.07 0.19,0.08 0.4,0.2 0.61,0.31 0.22,0.12 0.45,0.23 0.72,0.24 0.21,0.01 0.44,-0.04 0.93,-0.19 0.17,-0.06 0.35,-0.12 0.58,-0.19 0.92,-0.31 2.44,-0.82 3.22,-1.12 0.79,-0.29 0.85,-0.36 0.87,-0.46 0.03,-0.1 0.02,-0.23 -0.04,-0.35 -0.02,-0.04 -0.05,-0.08 -0.1,-0.13 -1.63,0.58 -3.27,1.15 -4.19,1.44 -0.92,0.29 -1.12,0.29 -1.27,0.28 -0.14,-0.01 -0.23,-0.04 -0.44,-0.13 -0.21,-0.08 -0.54,-0.24 -0.78,-0.34 -0.24,-0.11 -0.39,-0.16 -0.53,-0.18 -0.15,-0.01 -0.29,0.02 -0.63,0.13 -0.33,0.11 -0.85,0.3 -2.82,1.02 -1.96,0.72 -5.37,1.97 -7.11,2.65 -1.74,0.69 -1.81,0.8 -1.84,0.92 -0.03,0.11 -0.02,0.23 0.06,0.47 0.07,0.2 0.19,0.48 0.31,0.78 -0.11,-0.29 -0.11,-0.38 -0.08,-0.47 0.04,-0.14 0.12,-0.29 0.29,-0.44 0.18,-0.14 0.44,-0.28 2.16,-0.92 1.72,-0.65 4.91,-1.79 6.64,-2.42z"/>
   <path class="fil2" d="M47.46 4.48c-0.24,0.08 -0.53,0.19 -2.27,0.82 -1.73,0.63 -4.92,1.77 -6.64,2.42 -1.72,0.64 -1.98,0.78 -2.16,0.92 -0.17,0.15 -0.25,0.3 -0.29,0.44 -0.03,0.09 -0.03,0.18 0.08,0.47 0.02,0.05 0.04,0.1 0.06,0.15 0.04,0.08 0.08,0.17 0.13,0.28 0.14,0.31 0.35,0.74 0.57,1.17 3.51,-1.29 7.01,-2.58 8.95,-3.3 1.93,-0.71 2.29,-0.85 2.58,-0.87 0.29,-0.02 0.5,0.07 0.79,0.24 0.28,0.18 0.64,0.43 1.21,0.92 0.57,0.48 1.36,1.2 1.84,1.6 0.48,0.39 0.66,0.47 0.86,0.5 0.2,0.03 0.42,0 0.7,-0.06 0.28,-0.06 0.61,-0.15 0.91,-0.26 0.29,-0.1 0.55,-0.22 0.81,-0.34 -0.05,-0.04 -0.11,-0.09 -0.19,-0.16 -0.32,-0.28 -0.96,-0.8 -1.67,-1.38 -0.72,-0.57 -1.52,-1.2 -1.98,-1.6 -0.45,-0.39 -0.56,-0.56 -0.65,-0.75 -0.08,-0.18 -0.14,-0.38 -0.17,-0.54 -0.03,-0.16 -0.03,-0.28 -0.04,-0.39 -0.49,0.15 -0.72,0.2 -0.93,0.19 -0.27,-0.01 -0.5,-0.12 -0.72,-0.24 -0.21,-0.11 -0.42,-0.23 -0.61,-0.31 -0.19,-0.07 -0.38,-0.09 -0.56,-0.07 -0.19,0.01 -0.38,0.07 -0.61,0.15z"/>
   <path class="fil4" d="M48.47 6.98c-0.29,0.02 -0.65,0.16 -2.58,0.87 -1.94,0.72 -5.44,2.01 -8.95,3.3 0.09,0.19 0.19,0.38 0.28,0.55 3.48,-1.28 6.97,-2.57 8.83,-3.24 1.85,-0.67 2.07,-0.72 2.31,-0.72 0.24,-0.01 0.51,0.03 1.06,0.41 0.54,0.39 1.37,1.12 1.93,1.61 0.55,0.49 0.84,0.75 1.06,0.91 0.22,0.17 0.37,0.24 0.53,0.28 0.15,0.05 0.31,0.08 0.48,0.07 0.17,0 0.35,-0.03 0.73,-0.15 0.39,-0.13 0.97,-0.35 1.28,-0.47 0.3,-0.12 0.32,-0.15 0.34,-0.2 0.01,-0.06 0.02,-0.15 0.02,-0.23 -0.01,-0.08 -0.03,-0.16 -0.04,-0.2 -0.01,-0.04 -0.02,-0.06 -0.16,-0.19 -0.26,0.12 -0.52,0.24 -0.81,0.34 -0.3,0.11 -0.63,0.2 -0.91,0.26 -0.28,0.06 -0.5,0.09 -0.7,0.06 -0.2,-0.03 -0.38,-0.11 -0.86,-0.5 -0.48,-0.4 -1.27,-1.12 -1.84,-1.6 -0.57,-0.49 -0.93,-0.74 -1.21,-0.92 -0.29,-0.17 -0.5,-0.26 -0.79,-0.24z"/>
   <path class="fil4" d="M1.51 22.84c-0.13,-0.29 -0.25,-0.58 -0.38,-0.87 0.12,0.28 0.25,0.57 0.38,0.87zm8.83 3.53c0.18,-0.3 0.36,-0.66 0.45,-0.88 0.1,-0.22 0.1,-0.31 0.11,-0.38 0,-0.07 0,-0.13 -0.03,-0.16 -0.02,-0.04 -0.06,-0.06 -0.44,0.03 -0.24,0.42 -0.48,0.84 -0.64,1.11 -0.16,0.28 -0.25,0.4 -0.35,0.48 -0.1,0.07 -0.23,0.11 -1.08,0.26 -0.86,0.15 -2.43,0.43 -3.31,0.57 -0.88,0.14 -1.05,0.14 -1.19,0.12 -0.13,-0.03 -0.23,-0.08 -0.3,-0.15 -0.07,-0.07 -0.12,-0.15 -0.52,-1.05 -0.33,-0.75 -0.91,-2.06 -1.52,-3.47 -0.01,0 -0.01,-0.01 -0.01,-0.01 -0.13,-0.29 -0.25,-0.58 -0.38,-0.87 -0.16,-0.36 -0.3,-0.7 -0.41,-0.96 -0.32,-0.75 -0.36,-0.87 -0.35,-1.01 -0.02,0.17 -0.04,0.35 -0.05,0.46 -0.01,0.13 0,0.19 0.45,1.39 0.46,1.21 1.35,3.57 1.82,4.78 0.48,1.21 0.52,1.28 0.6,1.34 0.08,0.06 0.18,0.11 0.32,0.14 0.14,0.03 0.32,0.04 1.34,-0.11 1.01,-0.14 2.85,-0.44 3.81,-0.61 0.96,-0.17 1.04,-0.2 1.18,-0.34 0.13,-0.14 0.32,-0.38 0.5,-0.68z"/>
   <path class="fil5" d="M53.45 0.68c0.23,0.16 0.56,0.39 0.92,0.65 0.28,0.2 0.55,0.39 0.74,0.53 0.22,0.17 0.37,0.28 0.46,0.36l0.02 0.02c0.11,0.1 0.16,0.17 0.21,0.26 0.04,0.09 0.07,0.18 0.08,0.27l0 0.01c0.02,0.1 0.01,0.2 -0.01,0.28l-0.01 0.03c-0.03,0.11 -0.08,0.21 -0.29,0.33 -0.13,0.08 -0.35,0.18 -0.77,0.33 -0.34,0.13 -0.83,0.3 -1.36,0.48 -0.72,0.25 -1.41,0.49 -1.87,0.64 -0.46,0.15 -0.77,0.25 -1.02,0.32 -0.26,0.06 -0.43,0.09 -0.6,0.08 -0.18,-0.01 -0.33,-0.04 -0.48,-0.1 -0.14,-0.05 -0.26,-0.11 -0.38,-0.18l-0.13 -0.07c-0.16,-0.09 -0.31,-0.17 -0.44,-0.22 -0.07,-0.03 -0.15,-0.05 -0.22,-0.06 -0.07,-0.01 -0.14,-0.01 -0.2,0 -0.07,0.01 -0.15,0.02 -0.24,0.05l-0.01 0c-0.09,0.02 -0.19,0.06 -0.29,0.09l-2.87 1.04c-1.79,0.64 -4.49,1.62 -6.03,2.19 -0.85,0.32 -1.34,0.51 -1.64,0.65 -0.27,0.12 -0.36,0.17 -0.42,0.23 -0.06,0.05 -0.1,0.1 -0.13,0.15 -0.03,0.04 -0.05,0.08 -0.06,0.13 -0.01,0.01 -0.01,0.03 0,0.08 0.03,0.11 0.1,0.29 0.24,0.6 0.29,0.62 0.87,1.76 1.2,2.41l0.03 0.05c0.16,0.32 0.26,0.51 0.31,0.63 0.07,0.15 0.09,0.22 0.11,0.31 0.01,0.09 0.01,0.18 0.01,0.27l0 0.01c-0.01,0.09 -0.02,0.18 -0.05,0.26 -0.04,0.13 -0.09,0.22 -0.56,0.45 -0.37,0.17 -1.06,0.47 -2.4,1.03 -1.25,0.53 -3.28,1.37 -5.34,2.22l-5.62 2.33c-2.48,1.02 -2.64,1.09 -2.77,1.18 -0.06,0.05 -0.12,0.1 -0.18,0.17l-0.02 0.01c-0.05,0.06 -0.1,0.13 -0.15,0.21 -0.07,0.1 -0.12,0.21 -0.18,0.31 -0.06,0.12 -0.12,0.24 -0.19,0.35 -0.08,0.12 -0.16,0.22 -0.25,0.32 -0.1,0.1 -0.2,0.19 -0.33,0.28 -0.12,0.08 -0.27,0.16 -0.44,0.25 -0.16,0.09 -0.35,0.17 -0.58,0.27l-0.02 0c-0.2,0.09 -0.45,0.19 -0.68,0.27 -0.26,0.1 -0.51,0.19 -0.69,0.25 -0.19,0.07 -0.32,0.1 -0.42,0.12 -0.14,0.02 -0.24,0.02 -0.33,-0.01l-0.04 -0.01c-0.08,-0.03 -0.15,-0.08 -0.22,-0.13 -0.07,-0.06 -0.14,-0.13 -0.19,-0.22 -0.05,-0.08 -0.08,-0.17 -0.1,-0.25l0 -0.02c-0.02,-0.08 -0.03,-0.17 -0.03,-0.26 0,-0.09 0.01,-0.17 0.06,-0.29 0.03,-0.1 0.08,-0.22 0.17,-0.41l0.07 -0.15c0.17,-0.36 0.42,-0.88 0.55,-1.28l0.01 -0.01c0.07,-0.21 0.1,-0.37 0.12,-0.51 0.02,-0.15 0.02,-0.27 0.02,-0.39 -0.01,-0.11 -0.02,-0.22 -0.05,-0.31 -0.02,-0.09 -0.06,-0.18 -0.13,-0.28 -0.08,-0.11 -0.19,-0.23 -0.32,-0.34 -0.13,-0.11 -0.27,-0.22 -0.41,-0.3l-0.02 0c-0.13,-0.08 -0.27,-0.13 -0.41,-0.16 -0.14,-0.04 -0.29,-0.06 -0.46,-0.06 -0.16,0 -0.34,0.02 -0.65,0.09 -0.33,0.08 -0.8,0.22 -1.54,0.48 -0.69,0.23 -1.59,0.55 -2.49,0.88 -1.1,0.4 -2.18,0.81 -2.87,1.07 -0.65,0.25 -1.01,0.4 -1.21,0.49l-0.1 0.05 0 0.01c0.03,0.07 0.08,0.17 0.13,0.27 0.05,0.08 0.11,0.17 0.15,0.23l0.05 0.06c0.03,0 0.07,0 0.16,-0.02 0.12,-0.02 0.29,-0.06 0.54,-0.12l0.73 -0.18c0.44,-0.11 0.9,-0.23 1.18,-0.3 0.25,-0.05 0.39,-0.08 0.48,-0.1 0.15,-0.02 0.21,-0.01 0.28,0.01l0.02 0.01c0.06,0.03 0.12,0.06 0.17,0.11 0.06,0.07 0.1,0.15 0.11,0.26 0.01,0.07 0,0.14 -0.04,0.26 -0.03,0.06 -0.07,0.17 -0.15,0.33 -0.08,0.17 -0.19,0.4 -0.29,0.6 -0.09,0.18 -0.19,0.38 -0.28,0.55 -0.09,0.18 -0.16,0.3 -0.21,0.38 -0.07,0.1 -0.12,0.17 -0.17,0.23l-0.01 0.01c-0.07,0.07 -0.14,0.13 -0.34,0.19 -0.13,0.05 -0.37,0.11 -0.81,0.21 -0.45,0.1 -1.05,0.23 -1.65,0.36 -0.61,0.13 -1.28,0.27 -1.83,0.38 -0.53,0.11 -0.88,0.18 -1.12,0.22 -0.26,0.05 -0.43,0.07 -0.56,0.09 -0.14,0.02 -0.25,0.02 -0.34,0.02 -0.1,0 -0.19,-0.01 -0.28,-0.03 -0.12,-0.03 -0.24,-0.07 -0.4,-0.27 -0.12,-0.14 -0.28,-0.39 -0.5,-0.83 -0.16,-0.33 -0.38,-0.81 -0.61,-1.32 -0.32,-0.71 -0.64,-1.47 -0.85,-1.96 -0.18,-0.43 -0.28,-0.67 -0.32,-0.81 -0.07,-0.21 -0.06,-0.3 -0.04,-0.43 0.01,-0.09 0.03,-0.19 0.06,-0.29 0.03,-0.13 0.06,-0.27 0.09,-0.37 0.03,-0.09 0.05,-0.16 0.07,-0.22l0.01 -0.02c0.02,-0.07 0.06,-0.13 0.1,-0.17 0.05,-0.07 0.1,-0.12 1.25,-0.55 1.1,-0.41 3.21,-1.19 7.36,-2.7 4.75,-1.73 12.17,-4.43 19.25,-7l14.26 -5.19c5.02,-1.83 7.28,-2.66 8.24,-3.01l0.02 -0.01c0.54,-0.19 0.63,-0.23 0.72,-0.26 0.11,-0.04 0.21,-0.06 0.3,-0.08 0.1,-0.02 0.18,-0.03 0.27,-0.03 0.09,0 0.17,0.01 0.26,0.03l0.01 0.01c0.08,0.02 0.17,0.05 0.26,0.1 0.08,0.04 0.18,0.09 0.32,0.18 0.14,0.09 0.3,0.2 0.53,0.36zm0.55 1.16c-0.29,-0.2 -0.63,-0.44 -0.91,-0.64 -0.24,-0.17 -0.41,-0.28 -0.52,-0.35 -0.1,-0.07 -0.18,-0.11 -0.25,-0.15 -0.05,-0.02 -0.09,-0.04 -0.13,-0.05l-0.02 0c-0.04,-0.01 -0.07,-0.02 -0.11,-0.02 -0.04,0 -0.08,0.01 -0.13,0.02 -0.07,0.01 -0.14,0.03 -0.23,0.06l-0.72 0.26c-0.83,0.31 -2.81,1.03 -8.25,3.01l-14.25 5.19c-7.08,2.58 -14.51,5.28 -19.26,7.01 -4.22,1.54 -6.32,2.31 -7.35,2.69 -0.99,0.37 -0.97,0.34 -0.98,0.35l-0.01 0.02c-0.01,0.03 -0.03,0.09 -0.05,0.17 -0.02,0.09 -0.06,0.22 -0.09,0.35 -0.02,0.09 -0.04,0.17 -0.05,0.24 0,0.04 0,0.06 0.02,0.14 0.04,0.13 0.13,0.35 0.3,0.75 0.21,0.49 0.53,1.24 0.85,1.95 0.21,0.48 0.43,0.95 0.6,1.3 0.2,0.4 0.32,0.6 0.41,0.71 0.04,0.05 0.06,0.05 0.07,0.06 0.04,0 0.08,0.01 0.13,0.01 0.07,0 0.15,-0.01 0.26,-0.02 0.12,-0.02 0.28,-0.04 0.53,-0.08 0.28,-0.05 0.63,-0.12 1.1,-0.22 0.48,-0.09 1.15,-0.23 1.83,-0.38 0.65,-0.14 1.25,-0.27 1.64,-0.36 0.41,-0.09 0.63,-0.15 0.76,-0.19 0.06,-0.02 0.07,-0.02 0.07,-0.03 0.03,-0.03 0.06,-0.07 0.1,-0.13 0.05,-0.09 0.11,-0.19 0.19,-0.34 0.07,-0.14 0.17,-0.33 0.27,-0.54 0.12,-0.23 0.22,-0.45 0.29,-0.59l0.01 -0.03 -0.16 0.04c-0.31,0.08 -0.76,0.19 -1.18,0.29l-0.73 0.18c-0.28,0.07 -0.46,0.11 -0.57,0.13 -0.14,0.03 -0.23,0.04 -0.3,0.03l-0.01 0c-0.11,0 -0.21,-0.02 -0.31,-0.09 -0.08,-0.05 -0.15,-0.12 -0.22,-0.23 -0.06,-0.08 -0.13,-0.19 -0.19,-0.3 -0.06,-0.11 -0.12,-0.23 -0.16,-0.32 -0.05,-0.12 -0.08,-0.21 -0.08,-0.3 0,-0.13 0.04,-0.23 0.11,-0.32 0.05,-0.07 0.12,-0.14 0.39,-0.26 0.19,-0.09 0.56,-0.24 1.24,-0.5 0.75,-0.29 1.83,-0.7 2.88,-1.08 0.92,-0.34 1.83,-0.66 2.51,-0.89 0.74,-0.26 1.23,-0.41 1.59,-0.49 0.37,-0.09 0.59,-0.11 0.81,-0.11 0.21,0 0.41,0.03 0.61,0.07 0.19,0.05 0.37,0.12 0.55,0.22l0.02 0.01c0.18,0.1 0.37,0.23 0.53,0.37 0.16,0.15 0.31,0.3 0.42,0.45 0.11,0.16 0.18,0.32 0.22,0.48 0.05,0.15 0.06,0.3 0.07,0.45 0,0.15 0,0.31 -0.02,0.5 -0.03,0.18 -0.07,0.39 -0.15,0.63l-0.01 0.02c-0.14,0.41 -0.4,0.95 -0.57,1.33l-0.07 0.16c-0.09,0.17 -0.13,0.28 -0.16,0.35 -0.01,0.05 -0.02,0.07 -0.02,0.09 0,0.03 0,0.07 0.01,0.1l0 0.01c0.01,0.04 0.02,0.07 0.04,0.09 0.01,0.02 0.02,0.03 0.04,0.05l0.03 0.02 0.01 0c0,0 0.02,0 0.04,0 0.07,-0.01 0.17,-0.04 0.33,-0.1 0.17,-0.05 0.41,-0.14 0.67,-0.24 0.22,-0.08 0.45,-0.17 0.66,-0.26l0.02 -0.01c0.21,-0.09 0.39,-0.17 0.54,-0.24 0.14,-0.08 0.26,-0.15 0.36,-0.21 0.09,-0.07 0.17,-0.13 0.23,-0.2 0.07,-0.06 0.12,-0.14 0.17,-0.22 0.06,-0.09 0.12,-0.2 0.17,-0.3 0.07,-0.12 0.13,-0.25 0.2,-0.36 0.07,-0.1 0.15,-0.2 0.22,-0.29l0.02 -0.02c0.09,-0.1 0.18,-0.18 0.28,-0.25 0.19,-0.13 0.36,-0.2 2.9,-1.25l5.62 -2.33c1.94,-0.81 3.91,-1.63 5.34,-2.22 1.34,-0.57 2.02,-0.86 2.37,-1.03 0.23,-0.11 0.22,-0.05 0.23,-0.07 0.01,-0.03 0.01,-0.06 0.02,-0.1l0 -0.01c0,-0.04 0,-0.09 -0.01,-0.13 0,-0.03 -0.01,-0.07 -0.05,-0.15 -0.06,-0.12 -0.15,-0.29 -0.31,-0.61l-0.02 -0.04c-0.33,-0.65 -0.91,-1.79 -1.21,-2.44 -0.16,-0.34 -0.24,-0.55 -0.28,-0.7 -0.05,-0.2 -0.04,-0.31 0,-0.42 0.03,-0.1 0.07,-0.2 0.13,-0.3 0.07,-0.09 0.15,-0.19 0.26,-0.29 0.11,-0.09 0.24,-0.17 0.57,-0.32 0.3,-0.13 0.8,-0.33 1.68,-0.66 1.53,-0.57 4.24,-1.55 6.04,-2.2l2.19 -0.79c0.37,-0.14 0.51,-0.19 0.68,-0.25 0.13,-0.04 0.24,-0.08 0.33,-0.1l0.02 -0.01c0.11,-0.03 0.22,-0.05 0.34,-0.06 0.11,-0.01 0.23,-0.01 0.35,0.01 0.11,0.01 0.23,0.04 0.35,0.09 0.18,0.06 0.35,0.16 0.53,0.26l0.12 0.07c0.1,0.05 0.2,0.1 0.3,0.14 0.09,0.03 0.18,0.06 0.28,0.06 0.11,0 0.23,-0.02 0.42,-0.07 0.21,-0.05 0.52,-0.15 0.98,-0.3 0.57,-0.19 1.28,-0.43 1.87,-0.63 0.51,-0.18 0.99,-0.35 1.34,-0.48 0.38,-0.14 0.57,-0.23 0.68,-0.28l0 0 0 -0.03c-0.01,-0.02 -0.01,-0.04 -0.02,-0.06 -0.01,-0.02 -0.03,-0.05 -0.08,-0.08l-0.01 -0.02c-0.08,-0.07 -0.21,-0.17 -0.42,-0.32 -0.2,-0.15 -0.46,-0.34 -0.73,-0.53z"/>
   <path class="fil5" d="M0.5 19.09c-0.04,-0.09 0,-0.18 0.08,-0.21 0.08,-0.04 0.17,0 0.21,0.08l0.01 0.02c0.6,1.44 1.21,2.87 1.58,3.73 0.18,0.42 0.31,0.71 0.41,0.91 0.09,0.2 0.15,0.31 0.2,0.39 0.05,0.08 0.09,0.13 0.13,0.17l0 0c0.03,0.03 0.06,0.05 0.1,0.06l0 0c0.03,0.02 0.08,0.02 0.2,0.01 0.16,-0.01 0.43,-0.05 0.9,-0.13 0.4,-0.07 0.98,-0.18 1.59,-0.31 0.77,-0.15 1.56,-0.31 2.08,-0.42 0.46,-0.09 0.72,-0.15 0.86,-0.19 0.11,-0.03 0.14,-0.05 0.17,-0.08 0.03,-0.03 0.07,-0.09 0.11,-0.16l0.01 0c0.04,-0.08 0.1,-0.18 0.15,-0.31 0.13,-0.26 0.29,-0.66 0.45,-1.05 0.03,-0.08 0.12,-0.12 0.2,-0.09 0.08,0.04 0.12,0.13 0.09,0.21 -0.16,0.39 -0.32,0.79 -0.45,1.07 -0.06,0.13 -0.12,0.24 -0.17,0.33l0 0.01c-0.06,0.09 -0.11,0.16 -0.17,0.21 -0.06,0.07 -0.12,0.11 -0.3,0.16 -0.16,0.05 -0.42,0.11 -0.89,0.2 -0.53,0.11 -1.33,0.28 -2.08,0.43 -0.58,0.11 -1.16,0.22 -1.6,0.3 -0.48,0.09 -0.76,0.13 -0.93,0.14 -0.19,0.01 -0.27,0 -0.34,-0.03l-0.01 -0.01c-0.06,-0.02 -0.12,-0.06 -0.18,-0.12l-0.01 -0.01c-0.06,-0.05 -0.12,-0.12 -0.18,-0.22 -0.06,-0.09 -0.12,-0.21 -0.22,-0.42 -0.09,-0.2 -0.22,-0.49 -0.41,-0.92 -0.37,-0.86 -0.98,-2.3 -1.58,-3.73l-0.01 -0.02z"/>
   <path class="fil5" d="M6.56 21.54c0.02,0.08 -0.04,0.17 -0.12,0.19 -0.09,0.01 -0.17,-0.04 -0.19,-0.12l-0.06 -0.31c-0.03,-0.1 -0.04,-0.19 -0.05,-0.26 -0.01,-0.09 -0.01,-0.16 0,-0.23 0.01,-0.07 0.04,-0.14 0.08,-0.2 0.04,-0.07 0.09,-0.14 0.33,-0.25l0.01 -0.01c0.21,-0.1 0.57,-0.25 1.23,-0.49 0.59,-0.22 1.4,-0.51 2.24,-0.8 1.1,-0.39 2.26,-0.8 3.06,-1.07 0.71,-0.24 1.13,-0.39 1.43,-0.48 0.29,-0.09 0.44,-0.12 0.59,-0.15 0.15,-0.03 0.31,-0.05 0.48,-0.05 0.17,0 0.34,0.02 0.54,0.07 0.2,0.05 0.41,0.14 0.62,0.25 0.2,0.11 0.39,0.24 0.54,0.38 0.17,0.14 0.29,0.29 0.39,0.45 0.1,0.16 0.17,0.32 0.21,0.49 0.05,0.16 0.08,0.33 0.09,0.49l0 0.01c0.01,0.16 0.02,0.31 0.02,0.46 0,0.09 -0.07,0.16 -0.15,0.16 -0.09,0 -0.16,-0.07 -0.16,-0.15 -0.01,-0.15 -0.01,-0.3 -0.02,-0.44l0 -0.02c-0.02,-0.14 -0.04,-0.28 -0.08,-0.42 -0.04,-0.14 -0.1,-0.28 -0.18,-0.41 -0.08,-0.14 -0.19,-0.26 -0.32,-0.39 -0.14,-0.12 -0.31,-0.23 -0.49,-0.33 -0.19,-0.1 -0.38,-0.18 -0.55,-0.23 -0.17,-0.04 -0.32,-0.06 -0.46,-0.06 -0.14,0 -0.28,0.02 -0.42,0.05 -0.14,0.03 -0.28,0.06 -0.56,0.15 -0.28,0.08 -0.7,0.22 -1.42,0.47 -0.8,0.28 -1.97,0.68 -3.06,1.06 -0.86,0.31 -1.67,0.6 -2.23,0.81 -0.65,0.24 -1,0.38 -1.2,0.48l-0.01 0c-0.16,0.08 -0.19,0.11 -0.21,0.14 -0.01,0.02 -0.02,0.05 -0.03,0.08 0,0.03 0,0.08 0,0.14 0.01,0.07 0.03,0.15 0.04,0.24l0.07 0.3z"/>
   <path class="fil5" d="M16.71 22.83c-0.02,-0.09 0.03,-0.17 0.11,-0.2 0.08,-0.02 0.17,0.02 0.2,0.11 0,0.01 0.01,0.03 0.01,0.04 0.01,0.01 0,0 0.02,0 0.07,-0.01 0.19,-0.04 0.39,-0.11 0.18,-0.06 0.43,-0.16 0.7,-0.26 0.36,-0.15 0.72,-0.29 0.96,-0.4 0.22,-0.09 0.36,-0.15 0.46,-0.2 0.09,-0.05 0.14,-0.08 0.19,-0.11 0.04,-0.04 0.09,-0.08 0.13,-0.12 0.04,-0.05 0.08,-0.11 0.12,-0.17l0 -0.01c0.05,-0.09 0.1,-0.19 0.15,-0.3l0.11 -0.23c0.05,-0.09 0.11,-0.18 0.17,-0.27 0.06,-0.1 0.13,-0.18 0.2,-0.26 0.09,-0.09 0.18,-0.17 0.63,-0.39 0.42,-0.2 1.18,-0.54 2.61,-1.13 2,-0.84 5.38,-2.23 8.17,-3.37l3 -1.23c1.38,-0.57 2.08,-0.86 2.45,-1.02 0.33,-0.15 0.34,-0.15 0.34,-0.15 0.06,-0.06 0.16,-0.07 0.22,-0.01 0.06,0.06 0.07,0.16 0.01,0.23 -0.03,0.02 -0.06,0.05 -0.44,0.22 -0.35,0.15 -1.05,0.44 -2.46,1.02l-3 1.23c-2.77,1.14 -6.12,2.51 -8.16,3.37 -1.43,0.6 -2.19,0.93 -2.61,1.13 -0.39,0.19 -0.47,0.25 -0.53,0.31 -0.06,0.07 -0.12,0.15 -0.17,0.22 -0.05,0.08 -0.1,0.16 -0.15,0.25l-0.1 0.21c-0.06,0.12 -0.11,0.23 -0.17,0.33l0 0.01c-0.05,0.08 -0.1,0.15 -0.16,0.21 -0.05,0.07 -0.11,0.12 -0.17,0.17 -0.06,0.04 -0.13,0.09 -0.24,0.14 -0.09,0.05 -0.24,0.12 -0.48,0.21 -0.27,0.12 -0.64,0.27 -0.97,0.4 -0.26,0.11 -0.52,0.2 -0.71,0.27 -0.23,0.08 -0.37,0.11 -0.45,0.12 -0.14,0.01 -0.2,-0.02 -0.25,-0.06 -0.04,-0.03 -0.06,-0.06 -0.08,-0.09l-0.01 -0.02c-0.02,-0.03 -0.03,-0.06 -0.04,-0.09z"/>
   <path class="fil5" d="M36.21 9.63c0.03,0.08 -0.01,0.17 -0.09,0.2 -0.08,0.03 -0.17,-0.01 -0.21,-0.09 -0.06,-0.16 -0.12,-0.32 -0.17,-0.45 -0.05,-0.14 -0.1,-0.28 -0.13,-0.4 -0.03,-0.12 -0.05,-0.22 -0.05,-0.32 -0.01,-0.1 0.01,-0.19 0.05,-0.29 0.04,-0.1 0.09,-0.21 0.4,-0.39 0.26,-0.15 0.74,-0.37 1.62,-0.72 1.67,-0.66 4.87,-1.81 6.86,-2.52l1.4 -0.5c1.02,-0.37 1.39,-0.5 1.65,-0.59 0.17,-0.06 0.29,-0.09 0.39,-0.11 0.12,-0.03 0.2,-0.03 0.29,-0.03 0.09,0.01 0.17,0.03 0.27,0.07 0.09,0.03 0.19,0.07 0.31,0.12l0.33 0.15c0.17,0.07 0.33,0.15 0.45,0.2 0.1,0.04 0.17,0.07 0.23,0.08l0 0c0.06,0.02 0.1,0.02 0.17,0.03l0 0c0.06,0 0.14,0 0.3,-0.03 0.18,-0.03 0.45,-0.1 0.9,-0.24 0.46,-0.15 1.1,-0.36 1.83,-0.61 0.78,-0.27 1.57,-0.55 2.36,-0.82 0.08,-0.03 0.17,0.01 0.2,0.09 0.03,0.09 -0.01,0.18 -0.1,0.2 -0.84,0.3 -1.69,0.6 -2.36,0.83 -0.73,0.25 -1.37,0.46 -1.83,0.61 -0.47,0.14 -0.75,0.22 -0.94,0.25 -0.2,0.04 -0.3,0.04 -0.38,0.03l-0.01 0c-0.08,0 -0.14,-0.01 -0.22,-0.03l0 0c-0.08,-0.02 -0.16,-0.05 -0.27,-0.1 -0.13,-0.05 -0.29,-0.13 -0.46,-0.2l-0.33 -0.15c-0.11,-0.05 -0.2,-0.09 -0.28,-0.12 -0.08,-0.02 -0.14,-0.04 -0.2,-0.04 -0.05,-0.01 -0.11,0 -0.19,0.01 -0.09,0.02 -0.21,0.06 -0.37,0.11 -0.24,0.08 -0.61,0.21 -1.64,0.58l-1.4 0.51c-1.97,0.71 -5.15,1.85 -6.84,2.52 -0.87,0.34 -1.34,0.55 -1.58,0.7 -0.22,0.12 -0.25,0.18 -0.27,0.23 -0.02,0.05 -0.03,0.11 -0.03,0.17 0,0.06 0.02,0.14 0.04,0.24 0.03,0.1 0.08,0.23 0.13,0.37 0.06,0.16 0.11,0.3 0.17,0.45z"/>
   <path class="fil5" d="M0.07 19.91c0.02,-0.17 0.17,-0.3 0.35,-0.28 0.17,0.02 0.3,0.18 0.28,0.35l-0.01 0.02c-0.02,0.19 -0.05,0.37 -0.06,0.48 0,0.03 0,0.05 0.04,0.18 0.06,0.18 0.18,0.49 0.4,1.08 0.21,0.55 0.57,1.52 0.97,2.56 0.34,0.89 0.66,1.72 0.85,2.21 0.23,0.6 0.36,0.92 0.44,1.09l0.05 0.12c0.03,0.01 0.05,0.03 0.08,0.04l0.01 0.01c0.03,0.01 0.06,0.02 0.11,0.03 0.04,0.01 0.1,0.02 0.25,0.01 0.18,-0.01 0.47,-0.05 0.97,-0.12 0.49,-0.07 1.13,-0.17 1.77,-0.27 0.72,-0.12 1.5,-0.25 2.04,-0.34 0.47,-0.08 0.72,-0.13 0.86,-0.17 0.09,-0.03 0.11,-0.05 0.14,-0.08 0.06,-0.06 0.13,-0.15 0.22,-0.26 0.07,-0.11 0.16,-0.23 0.24,-0.37 0.08,-0.13 0.16,-0.28 0.24,-0.42l0.01 -0.02c0.07,-0.14 0.14,-0.28 0.18,-0.39l0.04 -0.09 -0.21 0.04c-0.28,0.07 -0.67,0.17 -1.05,0.27l-1.13 0.3c-0.56,0.15 -0.66,0.17 -0.81,0.17 -0.08,0 -0.17,-0.02 -0.25,-0.04 -0.08,-0.03 -0.16,-0.07 -0.23,-0.13 -0.07,-0.06 -0.13,-0.13 -0.18,-0.23l-0.01 -0.02c-0.03,-0.08 -0.06,-0.16 -0.09,-0.26l-0.01 -0.03c-0.02,-0.1 -0.04,-0.21 -0.06,-0.33l-0.08 -0.41c-0.03,-0.18 0.09,-0.34 0.26,-0.37 0.17,-0.03 0.34,0.09 0.37,0.26l0.07 0.4c0.02,0.11 0.04,0.21 0.06,0.29l0 0.03c0.02,0.07 0.04,0.11 0.05,0.15l0.01 0.01c0,0.01 0.01,0.02 0.01,0.02 0.01,0.01 0.02,0.01 0.03,0.02 0.02,0 0.04,0.01 0.07,0.01 0.05,0 0.14,-0.02 0.63,-0.15l1.13 -0.3c0.41,-0.11 0.81,-0.21 1.07,-0.27 0.27,-0.07 0.44,-0.1 0.54,-0.1l0.01 -0.01c0.23,-0.01 0.32,0.06 0.38,0.15l0.02 0.02c0.04,0.06 0.06,0.12 0.07,0.19l0 0.02c0,0.04 0,0.09 0,0.14 0,0.05 0,0.11 -0.02,0.19 -0.02,0.08 -0.05,0.17 -0.1,0.29l0 0.01c-0.05,0.12 -0.13,0.27 -0.21,0.44l-0.01 0.02c-0.08,0.15 -0.17,0.31 -0.26,0.46 -0.09,0.16 -0.19,0.29 -0.27,0.41 -0.1,0.13 -0.2,0.25 -0.27,0.33 -0.11,0.11 -0.19,0.17 -0.42,0.24 -0.17,0.05 -0.44,0.11 -0.94,0.19 -0.48,0.09 -1.25,0.21 -2.05,0.34 -0.67,0.11 -1.32,0.21 -1.77,0.28 -0.51,0.07 -0.82,0.11 -1.02,0.12 -0.22,0.01 -0.33,0 -0.42,-0.02 -0.09,-0.02 -0.17,-0.04 -0.24,-0.07l-0.02 -0.01c-0.07,-0.04 -0.14,-0.08 -0.2,-0.12 -0.07,-0.06 -0.13,-0.12 -0.24,-0.36 -0.08,-0.18 -0.21,-0.51 -0.45,-1.12 -0.25,-0.63 -0.56,-1.44 -0.85,-2.22 -0.33,-0.85 -0.7,-1.82 -0.97,-2.56 -0.23,-0.61 -0.35,-0.93 -0.41,-1.11 -0.07,-0.24 -0.07,-0.31 -0.07,-0.41 0.01,-0.13 0.04,-0.33 0.07,-0.52l0 -0.01z"/>
   <path class="fil5" d="M10.29 24.9c0.04,-0.08 0.14,-0.1 0.21,-0.06 0.08,0.04 0.11,0.14 0.06,0.22 -0.24,0.42 -0.48,0.84 -0.64,1.11 -0.08,0.14 -0.14,0.25 -0.2,0.33 -0.06,0.08 -0.12,0.14 -0.19,0.19 -0.07,0.05 -0.14,0.09 -0.31,0.13 -0.16,0.04 -0.41,0.09 -0.84,0.16 -0.49,0.09 -1.18,0.21 -1.82,0.32 -0.53,0.09 -1.07,0.18 -1.49,0.25 -0.44,0.07 -0.71,0.11 -0.88,0.13 -0.19,0.01 -0.28,0.01 -0.36,-0.01 -0.08,-0.01 -0.15,-0.04 -0.21,-0.07 -0.07,-0.03 -0.12,-0.07 -0.17,-0.11l0 -0.01c-0.05,-0.04 -0.09,-0.09 -0.17,-0.25 -0.07,-0.15 -0.18,-0.39 -0.38,-0.85 -0.4,-0.89 -1.11,-2.5 -1.83,-4.15l-0.09 -0.2c-0.03,-0.08 0.01,-0.17 0.09,-0.21 0.07,-0.03 0.17,0 0.2,0.08l0.09 0.21c0.73,1.66 1.45,3.3 1.82,4.14 0.2,0.45 0.32,0.7 0.39,0.84 0.05,0.11 0.08,0.14 0.1,0.16l0 0.01c0.03,0.02 0.06,0.04 0.09,0.06 0.03,0.02 0.08,0.03 0.13,0.04 0.05,0.01 0.12,0.02 0.27,0 0.17,-0.01 0.43,-0.05 0.86,-0.12 0.38,-0.06 0.92,-0.15 1.49,-0.25 0.7,-0.12 1.38,-0.24 1.82,-0.32 0.42,-0.07 0.66,-0.12 0.81,-0.15 0.13,-0.03 0.17,-0.05 0.21,-0.08 0.03,-0.03 0.07,-0.07 0.12,-0.13 0.05,-0.07 0.1,-0.17 0.18,-0.3 0.16,-0.27 0.4,-0.69 0.64,-1.11z"/>
   <path class="fil5" d="M9.88 23.73c-0.17,0.05 -0.35,-0.03 -0.41,-0.2 -0.06,-0.16 0.03,-0.34 0.19,-0.4l0.1 -0.03c2.21,-0.8 4.42,-1.59 5.62,-1.98 0.63,-0.2 1.01,-0.31 1.25,-0.36 0.29,-0.05 0.42,-0.04 0.54,-0.03 0.22,0.03 0.37,0.09 0.52,0.15l0 0c0.16,0.07 0.24,0.25 0.18,0.41 -0.07,0.17 -0.25,0.25 -0.42,0.18 -0.11,-0.04 -0.22,-0.09 -0.37,-0.11 -0.06,-0.01 -0.14,-0.01 -0.32,0.02 -0.23,0.05 -0.58,0.15 -1.19,0.34 -1.23,0.4 -3.41,1.18 -5.6,1.97l-0.09 0.04z"/>
   <path class="fil5" d="M17.78 23.27c0,-0.17 0.15,-0.31 0.32,-0.31 0.17,0 0.31,0.13 0.32,0.3 0.02,0.16 0.03,0.33 -0.03,0.61 -0.03,0.14 -0.08,0.32 -0.14,0.49 -0.07,0.17 -0.14,0.34 -0.21,0.49 -0.12,0.23 -0.25,0.41 -0.35,0.57l-0.13 0.19c-0.04,0.07 -0.08,0.14 -0.1,0.2 -0.03,0.05 -0.04,0.1 -0.05,0.13 0,0.04 0,0.06 0.01,0.09 0,0.03 0.01,0.06 0.03,0.1 0.01,0.03 0.03,0.06 0.05,0.09 0.02,0.03 0.03,0.04 0.04,0.06l0.04 0.02c0.02,0 0.04,0.01 0.08,0.02 0.05,0.01 0.1,0.01 0.16,0.01 0.08,-0.01 0.17,-0.02 0.29,-0.05 0.13,-0.03 0.28,-0.08 0.44,-0.14 0.19,-0.07 0.38,-0.15 0.57,-0.23 0.17,-0.08 0.35,-0.16 0.5,-0.24 0.14,-0.07 0.26,-0.14 0.35,-0.2l0.01 -0.01c0.08,-0.05 0.14,-0.1 0.2,-0.16 0.05,-0.06 0.09,-0.12 0.14,-0.21 0.07,-0.15 0.16,-0.37 0.23,-0.56l0.09 -0.21c0.05,-0.12 0.1,-0.22 0.14,-0.31 0.05,-0.1 0.11,-0.19 0.18,-0.27 0.07,-0.1 0.15,-0.18 0.37,-0.3 0.18,-0.1 0.48,-0.23 1,-0.45 0.8,-0.33 2.24,-0.9 3.92,-1.57 2.48,-0.99 4.96,-1.99 7.45,-2.98 1.64,-0.66 2.58,-1.04 3.09,-1.27 0.24,-0.11 0.39,-0.19 0.47,-0.25 0.05,-0.03 0.06,-0.05 0.07,-0.07 0.02,-0.03 0.02,-0.06 0.03,-0.09l0 -0.01c0.01,-0.04 0.01,-0.07 0.01,-0.11 -0.01,-0.03 -0.01,-0.07 -0.03,-0.13 -0.03,-0.09 -0.07,-0.2 -0.15,-0.38 -0.16,-0.4 -0.44,-1.05 -0.72,-1.7 -0.07,-0.16 0,-0.34 0.16,-0.41 0.16,-0.07 0.35,0 0.42,0.16 0.29,0.67 0.58,1.34 0.73,1.71 0.08,0.2 0.13,0.33 0.16,0.43 0.04,0.12 0.05,0.2 0.06,0.28 0,0.08 0,0.16 -0.01,0.24l-0.01 0.03c-0.01,0.09 -0.04,0.18 -0.08,0.27 -0.06,0.09 -0.12,0.19 -0.27,0.29 -0.12,0.09 -0.29,0.18 -0.58,0.31 -0.53,0.25 -1.47,0.63 -3.12,1.29 -2.48,0.99 -4.97,1.99 -7.45,2.97 -1.64,0.66 -3.05,1.22 -3.91,1.58 -0.5,0.21 -0.78,0.33 -0.94,0.42 -0.12,0.07 -0.15,0.1 -0.18,0.13 -0.04,0.05 -0.07,0.1 -0.11,0.17 -0.04,0.07 -0.08,0.16 -0.12,0.26 -0.02,0.07 -0.05,0.14 -0.08,0.2 -0.08,0.21 -0.17,0.44 -0.26,0.62 -0.07,0.13 -0.14,0.24 -0.23,0.34 -0.09,0.1 -0.19,0.18 -0.31,0.27l-0.02 0.01c-0.11,0.07 -0.25,0.15 -0.41,0.24 -0.16,0.08 -0.35,0.16 -0.54,0.25 -0.2,0.09 -0.41,0.17 -0.61,0.24 -0.18,0.07 -0.35,0.13 -0.49,0.16 -0.17,0.04 -0.31,0.06 -0.42,0.07 -0.12,0.01 -0.22,0 -0.3,-0.02 -0.08,-0.01 -0.16,-0.03 -0.23,-0.06 -0.07,-0.04 -0.14,-0.08 -0.2,-0.13 -0.06,-0.06 -0.1,-0.11 -0.15,-0.17 -0.04,-0.06 -0.07,-0.13 -0.1,-0.2 -0.03,-0.07 -0.06,-0.15 -0.08,-0.24 -0.01,-0.09 -0.02,-0.18 0,-0.28 0.01,-0.1 0.04,-0.2 0.09,-0.3 0.04,-0.09 0.09,-0.19 0.15,-0.29l0.13 -0.2c0.1,-0.14 0.21,-0.31 0.31,-0.5 0.07,-0.14 0.13,-0.28 0.18,-0.42 0.06,-0.15 0.1,-0.29 0.12,-0.41 0.04,-0.18 0.03,-0.29 0.02,-0.4 0,-0.02 -0.01,-0.04 -0.01,-0.07z"/>
   <path class="fil5" d="M37.33 16.03c-0.01,-0.09 0.05,-0.17 0.14,-0.18 0.08,-0.01 0.16,0.05 0.17,0.14 0.01,0.06 0.02,0.12 0.02,0.19 0,0.07 0,0.13 -0.01,0.19 -0.01,0.1 -0.04,0.18 -0.45,0.38 -0.35,0.18 -1.03,0.47 -2.35,1.03 -2.4,1 -6.88,2.83 -9.76,4.01l-0.87 0.35c-1.39,0.57 -2.16,0.88 -2.59,1.07l-0.01 0c-0.44,0.18 -0.56,0.25 -0.67,0.32 -0.1,0.06 -0.19,0.13 -0.26,0.21 -0.07,0.08 -0.13,0.17 -0.18,0.27 -0.05,0.12 -0.09,0.25 -0.13,0.38 -0.05,0.15 -0.1,0.31 -0.16,0.44 -0.07,0.13 -0.15,0.23 -0.25,0.31 -0.09,0.08 -0.2,0.15 -0.34,0.24 -0.14,0.08 -0.31,0.18 -0.5,0.28 -0.16,0.08 -0.33,0.17 -0.5,0.26 -0.18,0.08 -0.36,0.16 -0.52,0.23 -0.17,0.07 -0.33,0.13 -0.45,0.17 -0.13,0.04 -0.22,0.06 -0.3,0.07 -0.08,0.01 -0.15,0.01 -0.2,-0.01 -0.14,-0.04 -0.17,-0.12 -0.19,-0.19 -0.03,-0.09 0.01,-0.18 0.09,-0.2 0.08,-0.03 0.17,0.01 0.2,0.09l0.06 0c0.06,-0.01 0.14,-0.03 0.24,-0.06 0.12,-0.04 0.26,-0.1 0.43,-0.16 0.16,-0.07 0.33,-0.15 0.5,-0.23 0.16,-0.08 0.33,-0.16 0.49,-0.25 0.19,-0.1 0.36,-0.19 0.49,-0.27 0.12,-0.08 0.22,-0.14 0.29,-0.21 0.07,-0.06 0.13,-0.12 0.17,-0.21 0.05,-0.11 0.1,-0.25 0.15,-0.4 0.04,-0.14 0.09,-0.28 0.14,-0.41 0.07,-0.14 0.14,-0.25 0.23,-0.35 0.1,-0.1 0.2,-0.19 0.33,-0.27 0.12,-0.08 0.26,-0.15 0.71,-0.34l0.01 0c0.47,-0.2 1.23,-0.51 2.61,-1.07l0.86 -0.36c2.89,-1.18 7.4,-3.02 9.76,-4.01 1.32,-0.55 1.99,-0.84 2.33,-1.01 0.27,-0.14 0.28,-0.14 0.28,-0.15 0.01,-0.04 0.01,-0.08 0,-0.13 0,-0.04 -0.01,-0.1 -0.01,-0.16z"/>
   <path class="fil5" d="M37.33 12c-0.17,0.06 -0.35,-0.02 -0.41,-0.19 -0.06,-0.16 0.02,-0.34 0.19,-0.4 3.44,-1.27 6.87,-2.54 8.83,-3.25 0.93,-0.33 1.45,-0.51 1.78,-0.61 0.35,-0.11 0.49,-0.13 0.64,-0.13 0.15,0 0.31,0.01 0.52,0.08 0.19,0.07 0.42,0.18 0.72,0.4 0.28,0.19 0.63,0.48 0.98,0.77 0.33,0.28 0.69,0.6 0.97,0.85l0.18 0.16c0.44,0.39 0.68,0.6 0.87,0.74 0.09,0.07 0.17,0.12 0.24,0.16 0.07,0.03 0.13,0.05 0.19,0.07 0.06,0.02 0.12,0.03 0.19,0.04 0.07,0.01 0.13,0.02 0.2,0.02 0.06,0 0.13,-0.01 0.23,-0.03 0.1,-0.02 0.23,-0.05 0.41,-0.11 0.16,-0.06 0.37,-0.13 0.58,-0.21 0.26,-0.09 0.51,-0.19 0.67,-0.25l0.16 -0.07 0 -0.05 0 -0.06 -0.01 -0.04c-0.04,-0.04 -0.12,-0.11 -0.26,-0.23 -0.2,-0.16 -0.48,-0.4 -0.79,-0.65 -0.26,-0.22 -0.55,-0.46 -0.88,-0.72l-0.6 -0.48c-0.54,-0.43 -1.06,-0.84 -1.39,-1.13l-0.02 -0.02c-0.23,-0.2 -0.38,-0.35 -0.48,-0.47 -0.11,-0.14 -0.17,-0.25 -0.22,-0.36 -0.05,-0.1 -0.09,-0.21 -0.12,-0.31 -0.04,-0.11 -0.06,-0.22 -0.08,-0.31 -0.02,-0.1 -0.03,-0.18 -0.03,-0.25 -0.01,-0.06 -0.01,-0.13 -0.01,-0.2 0,-0.18 0.14,-0.32 0.31,-0.32 0.18,0 0.32,0.14 0.32,0.31 0,0.05 0,0.1 0.01,0.17 0,0.05 0.01,0.11 0.02,0.17 0.01,0.08 0.03,0.16 0.06,0.24 0.03,0.08 0.06,0.16 0.09,0.23 0.03,0.07 0.07,0.14 0.14,0.23 0.09,0.1 0.21,0.22 0.41,0.4l0.02 0.01c0.33,0.29 0.84,0.7 1.37,1.12l0.59 0.48c0.31,0.24 0.62,0.49 0.89,0.72 0.35,0.29 0.63,0.52 0.79,0.66 0.17,0.14 0.26,0.22 0.32,0.27 0.09,0.1 0.11,0.15 0.13,0.22 0.01,0.04 0.03,0.09 0.04,0.14 0,0.05 0.01,0.1 0.01,0.15 0.01,0.05 0.01,0.11 0,0.16 -0.01,0.06 -0.02,0.12 -0.03,0.16 -0.03,0.11 -0.06,0.18 -0.2,0.26 -0.06,0.04 -0.16,0.09 -0.32,0.15 -0.18,0.08 -0.44,0.17 -0.69,0.27 -0.21,0.08 -0.43,0.15 -0.61,0.21 -0.21,0.07 -0.36,0.11 -0.48,0.13 -0.13,0.03 -0.24,0.04 -0.35,0.04 -0.1,0 -0.2,-0.01 -0.29,-0.02 -0.1,-0.01 -0.19,-0.04 -0.28,-0.06 -0.1,-0.03 -0.19,-0.07 -0.3,-0.12 -0.1,-0.05 -0.2,-0.12 -0.33,-0.21 -0.21,-0.15 -0.46,-0.38 -0.9,-0.77l-0.18 -0.16c-0.27,-0.24 -0.61,-0.54 -0.97,-0.84 -0.34,-0.29 -0.67,-0.56 -0.94,-0.75 -0.24,-0.17 -0.42,-0.26 -0.56,-0.31 -0.12,-0.04 -0.21,-0.05 -0.3,-0.05 -0.1,0.01 -0.19,0.02 -0.47,0.1 -0.31,0.1 -0.83,0.27 -1.75,0.61 -1.75,0.63 -5.29,1.93 -8.82,3.24z"/>
   <path class="fil5" d="M55.52 9.44c0.08,-0.04 0.17,0 0.21,0.07 0.04,0.08 0,0.18 -0.08,0.21 -0.12,0.06 -0.24,0.12 -0.39,0.18 -0.14,0.06 -0.28,0.12 -0.43,0.17 -0.15,0.06 -0.31,0.11 -0.46,0.15 -0.16,0.05 -0.32,0.09 -0.46,0.12 -0.15,0.03 -0.28,0.05 -0.4,0.06 -0.13,0.01 -0.25,0.01 -0.36,0 -0.12,-0.02 -0.23,-0.05 -0.38,-0.13 -0.14,-0.08 -0.31,-0.21 -0.56,-0.41 -0.28,-0.23 -0.63,-0.54 -0.99,-0.86 -0.3,-0.26 -0.61,-0.53 -0.86,-0.74 -0.28,-0.24 -0.51,-0.42 -0.7,-0.57 -0.19,-0.14 -0.35,-0.25 -0.49,-0.33 -0.13,-0.08 -0.24,-0.14 -0.35,-0.18 -0.11,-0.04 -0.21,-0.05 -0.34,-0.04 -0.26,0.02 -0.61,0.15 -2.48,0.84l-9.01 3.32c-0.08,0.03 -0.17,-0.01 -0.2,-0.09 -0.03,-0.08 0.01,-0.18 0.1,-0.21l9 -3.32c1.9,-0.7 2.26,-0.83 2.57,-0.86 0.17,-0.01 0.31,0.01 0.46,0.06 0.13,0.05 0.27,0.12 0.42,0.21 0.14,0.09 0.31,0.2 0.51,0.35 0.19,0.14 0.43,0.33 0.72,0.58 0.26,0.22 0.56,0.49 0.86,0.74 0.37,0.33 0.73,0.65 0.98,0.85 0.23,0.2 0.39,0.31 0.51,0.38 0.11,0.06 0.19,0.08 0.27,0.09 0.09,0.02 0.18,0.02 0.29,0.01 0.1,-0.01 0.23,-0.03 0.36,-0.06 0.14,-0.03 0.29,-0.07 0.45,-0.11 0.15,-0.05 0.3,-0.09 0.44,-0.14 0.14,-0.06 0.27,-0.11 0.4,-0.17 0.12,-0.05 0.26,-0.11 0.39,-0.17z"/>
   <path class="fil5" d="M10.27 22.69c-0.08,0.03 -0.17,-0.02 -0.2,-0.1 -0.03,-0.08 0.02,-0.17 0.1,-0.2l0.09 -0.03c1.75,-0.61 3.5,-1.21 4.59,-1.58 0.55,-0.18 0.91,-0.3 1.18,-0.38 0.28,-0.09 0.45,-0.13 0.62,-0.15 0.16,-0.02 0.32,-0.03 0.45,-0.02 0.14,0.01 0.26,0.02 0.36,0.05 0.11,0.02 0.19,0.05 0.28,0.08 0.08,0.03 0.15,0.06 0.21,0.09 0.08,0.03 0.12,0.13 0.08,0.21 -0.03,0.08 -0.13,0.11 -0.21,0.08 -0.06,-0.03 -0.13,-0.06 -0.19,-0.09 -0.07,-0.02 -0.14,-0.04 -0.23,-0.06 -0.09,-0.02 -0.19,-0.04 -0.31,-0.05 -0.12,0 -0.25,0 -0.4,0.02 -0.14,0.02 -0.31,0.06 -0.57,0.14 -0.26,0.08 -0.63,0.2 -1.17,0.38 -1.03,0.35 -2.8,0.96 -4.59,1.58l-0.09 0.03z"/>
  </g>
 </g>
</svg>
