<?xml version="1.0" encoding="UTF-8"?>
<!DOCTYPE svg PUBLIC "-//W3C//DTD SVG 1.1//EN" "http://www.w3.org/Graphics/SVG/1.1/DTD/svg11.dtd">
<!-- Creator: CorelDRAW 2021.5 -->
<svg xmlns="http://www.w3.org/2000/svg" xml:space="preserve" width="500px" height="238px" version="1.1" style="shape-rendering:geometricPrecision; text-rendering:geometricPrecision; image-rendering:optimizeQuality; fill-rule:evenodd; clip-rule:evenodd"
viewBox="0 0 328.1 156.44"
 xmlns:xlink="http://www.w3.org/1999/xlink"
 xmlns:xodm="http://www.corel.com/coreldraw/odm/2003">
 <defs>
  <style type="text/css">
   <![CDATA[
    .fil0 {fill:none}
    .fil7 {fill:dimgray}
    .fil6 {fill:#7A7A7A}
    .fil5 {fill:#858585}
    .fil3 {fill:#868686}
    .fil4 {fill:#8C8C8C}
    .fil2 {fill:#999999}
    .fil1 {fill:#AFAFAF}
    .fil8 {fill:#BFBFBF}
    .fil9 {fill:#5F5F5F;fill-rule:nonzero}
   ]]>
  </style>
 </defs>
 <g id="Слой_x0020_1">
  <metadata id="CorelCorpID_0Corel-Layer"/>
  <g id="_1856122403056">
   <polygon class="fil0" points="139.07,97.72 132.17,101.61 132.17,108.21 139.07,104.22 "/>
   <path class="fil1" d="M201.52 65.74c9.76,6.13 19.24,10.68 25.31,12.99 6.08,2.31 8.75,2.39 11.47,2.03 2.71,-0.36 27.13,-13.76 37.51,-19.6 10.38,-5.84 32.25,-19.2 50.27,-30.08 -0.11,-0.48 -0.17,-0.72 -0.43,-1.37 -0.26,-0.64 -0.79,-1.62 -3.91,-5.34 -3.12,-3.73 -8.91,-10.41 -12.56,-14.42 -3.65,-4.02 -5.16,-5.37 -6.26,-6.25 -1.11,-0.88 -1.82,-1.3 -2.55,-1.56 -0.74,-0.26 -1.49,-0.35 -2.31,-0.25 -0.83,0.11 -1.72,0.42 -8.73,3.9 -7.01,3.48 -45.66,25.19 -53.22,28.96 -7.55,3.77 -9.55,4.67 -11.7,4.86 -2.15,0.18 -4.47,-0.34 -6.95,-1.47 -2.48,-1.13 -5.12,-2.88 -7.91,-4.73 -2.27,-1.52 -4.64,-3.1 -6.59,-4.32 -10.42,5.03 -20.84,10.07 -31.25,15.1 10.03,7.71 20.06,15.42 29.81,21.55z"/>
   <path class="fil2" d="M226.83 78.73c-6.07,-2.31 -15.55,-6.86 -25.31,-12.99 -9.75,-6.13 -19.78,-13.84 -29.81,-21.55 -1.59,0.77 -3.18,1.53 -4.78,2.3 3.55,2.62 7.09,5.23 12.81,9.55 5.72,4.32 13.61,10.34 22.29,15.63 8.69,5.29 18.17,9.84 24.24,12.15 6.08,2.31 8.76,2.39 11.47,2.03 2.71,-0.37 5.47,-1.17 15.85,-7.01 10.38,-5.84 53.92,-31.79 71.93,-42.67 0.6,-1.9 0.75,-2.99 0.73,-3.67 -0.01,-0.68 -0.07,-0.96 -0.17,-1.42 -18.02,10.88 -39.89,24.24 -50.27,30.08 -10.38,5.84 -34.8,19.24 -37.51,19.6 -2.72,0.36 -5.39,0.28 -11.47,-2.03z"/>
   <path class="fil3" d="M226.27 83.82c-6.07,-2.31 -15.55,-6.86 -24.24,-12.15 -8.68,-5.29 -16.57,-11.31 -22.29,-15.63 -5.72,-4.32 -9.26,-6.93 -12.81,-9.55 0.09,17.28 0.17,34.56 0.26,51.84 1.41,-0.03 3.26,0.09 7.74,0.68 4.48,0.59 11.59,1.66 17.63,2.73 6.04,1.07 11.01,2.13 14.75,2.7 3.73,0.57 6.23,0.65 8.53,0.62 2.31,-0.03 4.42,-0.16 7.32,-0.58 2.9,-0.42 6.58,-1.14 9.67,-2.06 3.1,-0.92 5.61,-2.04 10.86,-5.13 5.26,-3.08 34.92,-20.72 43.18,-25.69 8.25,-4.96 20.62,-12.33 25.59,-15.39 4.97,-3.06 6.41,-4.28 7.33,-5.46 0.91,-1.17 1.31,-2.29 2.24,-4.82 0.93,-2.52 2.76,-7.56 3.22,-8.94 0.47,-1.39 0.19,-0.57 0.27,-0.82 -18.01,10.88 -61.55,36.83 -71.93,42.67 -10.38,5.84 -13.14,6.64 -15.85,7.01 -2.71,0.36 -5.39,0.28 -11.47,-2.03z"/>
   <path class="fil4" d="M93.14 120.78c1.05,-1.61 1.97,-3.69 2.25,-5.48 0.28,-1.8 -0.09,-3.3 -0.88,-4.18 -0.74,-0.82 -1.86,-1.09 -3.32,-0.95 -0.34,1.32 -0.68,2.64 -1.35,4.06 -0.66,1.41 -1.64,2.92 -2.95,4.38 -1.31,1.45 -2.93,2.85 -8.79,6.02 -5.86,3.17 -15.94,8.11 -21.16,10.86 -5.21,2.76 -5.55,3.33 -5.74,4.06 1.74,1.1 3.49,2.21 5.23,3.31 0.28,-0.69 0.74,-1.3 1.46,-1.91 1.17,-0.98 3.02,-1.95 8.44,-4.65 5.43,-2.71 14.43,-7.16 19.52,-9.95 5.08,-2.8 6.25,-3.96 7.29,-5.57z"/>
   <path class="fil4" d="M56.43 142.86c-1.74,-1.1 -3.49,-2.21 -5.23,-3.31 -0.18,0.73 -0.21,1.63 -0.03,2.89 0.19,1.26 0.59,2.89 1.29,4.23 0.71,1.34 1.72,2.39 2.96,3.54 1.24,1.14 2.72,2.38 4.19,3.61 -0.1,-0.09 -0.19,-0.18 -0.29,-0.29 -0.92,-0.98 -1.9,-2.82 -2.5,-4.56 -0.61,-1.75 -0.84,-3.4 -0.71,-4.72 0.05,-0.5 0.15,-0.96 0.32,-1.39z"/>
   <path class="fil4" d="M6.57 104.42c0.04,-0.46 0.16,-0.88 0.44,-1.3 -1.49,-0.94 -2.97,-1.88 -4.46,-2.82 -0.39,0.48 -0.62,1.07 -0.68,1.87 -0.09,1.18 0.19,2.82 0.95,4.74 0.76,1.93 2.01,4.14 3.41,5.85 1.4,1.7 2.96,2.9 4.17,3.5 1.21,0.6 2.08,0.6 3.2,0.41 1.04,-0.18 2.29,-0.51 5.52,-1.79 -1.84,0.6 -3.68,1.19 -4.93,1.36 -1.25,0.17 -1.91,-0.09 -2.62,-0.82 -0.72,-0.73 -1.5,-1.93 -2.27,-3.4 -0.78,-1.47 -1.56,-3.22 -2.06,-4.55 -0.5,-1.33 -0.72,-2.25 -0.67,-3.05z"/>
   <path class="fil5" d="M102.23 44.78l10.71 -4.37c0.45,-0.19 0.9,-0.25 1.35,-0.2l0.16 -5.55c-0.38,-0.02 -0.77,0.06 -1.15,0.21l-14.25 5.83c-0.4,0.16 -0.65,0.5 -0.69,0.93 -0.04,0.42 0.15,0.81 0.51,1.04l3.36 2.11z"/>
   <path class="fil6" d="M115.51 40.65l12.73 8.32 3.47 -1.44c0.39,-0.16 0.64,-0.5 0.68,-0.92 0.04,-0.43 -0.15,-0.81 -0.5,-1.04l-16.01 -10.45c-0.45,-0.3 -0.94,-0.45 -1.43,-0.46l-0.16 5.55c0.43,0.04 0.84,0.19 1.22,0.44z"/>
   <path class="fil7" d="M128.24 48.97l-12.73 -8.32c-0.38,-0.25 -0.79,-0.4 -1.22,-0.44 -0.45,-0.05 -0.9,0.01 -1.35,0.2l-10.71 4.37 13.1 8.28c0.79,0.5 1.69,0.57 2.55,0.22l10.36 -4.31z"/>
   <path class="fil4" d="M52.98 94.61c-0.45,-0.42 -1,-0.88 -1.67,-1.42 -3.28,-2.64 -9.42,-6.9 -15.72,-11.18 -6.29,-4.29 -12.74,-8.6 -16.71,-11.22 -3.98,-2.63 -5.48,-3.58 -6.72,-4.35 -1.24,-0.77 -2.2,-1.37 -3.13,-1.77 -0.92,-0.4 -1.8,-0.59 -2.59,-0.53 -2.98,1.27 -2.54,5.16 -2.59,7.84 -0.08,3.89 -0.08,10.05 -0.08,16.21 0,0.24 0,0.48 0.05,0.68 0.04,0.2 0.14,0.36 0.64,0.74 0.51,0.37 1.42,0.97 2.01,1.27 0.59,0.29 0.86,0.29 0.99,0.09 0.14,-0.2 0.14,-0.6 0.14,-1.02 0,-0.42 0,-0.86 0.03,-3.07 0.04,-2.22 0.12,-6.21 0.19,-8.66 0.07,-2.44 0.15,-3.34 0.33,-4.01 0.18,-0.67 0.48,-1.11 1,-1.26 0.52,-0.15 1.26,-0.02 2.1,0.38 0.85,0.4 1.81,1.08 2.87,1.78 1.07,0.71 2.25,1.45 5.64,3.73 1.65,1.1 3.81,2.57 6.19,4.19 1.72,1.18 3.55,2.44 5.39,3.71 0.88,0.61 1.76,1.22 2.63,1.82 0.4,0.28 0.8,0.56 1.2,0.84 4.71,3.29 8.93,6.33 11.28,8.26 2.15,1.78 2.71,2.62 2.93,3.44 0.04,0.14 0.06,0.28 0.09,0.43 0.16,0.97 0.16,2.14 0.18,5.12 0.01,2.99 0.04,7.81 0.06,10.41 0.02,2.6 0.03,3 0.24,3.41 0.21,0.42 0.62,0.85 1.63,1.59 1.02,0.73 2.65,1.77 4.28,2.8 -0.27,-0.23 -0.32,-1.09 -0.36,-4.23 -0.05,-3.84 -0.06,-11.08 -0.07,-15.44 -0.01,-2.25 -0.01,-3.74 -0.04,-4.82 -0.03,-1.01 -0.08,-1.67 -0.18,-2.28 -0.16,-0.99 -0.46,-1.84 -2.23,-3.48z"/>
   <path class="fil5" d="M167.19 98.33c-0.09,-17.28 -0.17,-34.56 -0.26,-51.84 -37.18,17.96 -74.36,35.92 -111.54,53.88 0.03,1.08 0.03,2.57 0.04,4.82 0.01,4.36 0.02,11.6 0.07,15.44 0.04,3.14 0.09,4 0.36,4.23 0.06,0.05 0.12,0.07 0.21,0.07 0.44,0.03 1.26,-0.34 1.98,-0.67 0.71,-0.33 1.33,-0.62 5.86,-2.71 4.53,-2.09 12.97,-5.98 18.19,-8.24 5.22,-2.27 7.21,-2.91 8.81,-3.11 0.1,-0.01 0.19,-0.02 0.28,-0.03 1.46,-0.14 2.58,0.13 3.32,0.95 0.79,0.88 1.16,2.38 0.88,4.18 -0.28,1.79 -1.2,3.87 -2.25,5.48 -1.04,1.61 -2.21,2.77 -7.29,5.57 -5.09,2.79 -14.09,7.24 -19.52,9.95 -5.42,2.7 -7.27,3.67 -8.44,4.65 -0.72,0.61 -1.18,1.22 -1.46,1.91 -0.17,0.43 -0.27,0.89 -0.32,1.39 -0.13,1.32 0.1,2.97 0.71,4.72 0.6,1.74 1.58,3.58 2.5,4.56 0.1,0.11 0.19,0.2 0.29,0.29 0.81,0.73 1.57,0.83 2.32,0.75 0.84,-0.1 1.66,-0.45 18.65,-9.79 16.98,-9.35 50.11,-27.71 67.17,-36.97 17.05,-9.27 18.03,-9.45 19.44,-9.48zm-28.12 -0.61l0 6.5 -6.9 3.99 0 -2.87 0 -3.73 6.9 -3.89z"/>
   <path class="fil7" d="M20 114.53c3.89,-1.58 10.3,-4.35 15.62,-6.78 5.31,-2.44 9.54,-4.55 13.76,-6.65 -0.22,-0.82 -0.78,-1.66 -2.93,-3.44 -2.35,-1.93 -6.57,-4.97 -11.28,-8.26 -0.95,0.44 -1.9,0.87 -5.73,2.59 -3.82,1.71 -10.53,4.7 -14.7,6.62 -4.16,1.91 -5.79,2.76 -6.77,3.53 -0.44,0.33 -0.75,0.66 -0.96,0.98 -0.28,0.42 -0.4,0.84 -0.44,1.3 -0.05,0.8 0.17,1.72 0.67,3.05 0.5,1.33 1.28,3.08 2.06,4.55 0.77,1.47 1.55,2.67 2.27,3.4 0.71,0.73 1.37,0.99 2.62,0.82 1.25,-0.17 3.09,-0.76 4.93,-1.36 0.28,-0.11 0.57,-0.23 0.88,-0.35z"/>
   <path class="fil4" d="M7.97 102.14c0.98,-0.77 2.61,-1.62 6.77,-3.53 4.17,-1.92 10.88,-4.91 14.7,-6.62 3.83,-1.72 4.78,-2.15 5.73,-2.59 -0.4,-0.28 -0.8,-0.56 -1.2,-0.84 -0.87,-0.6 -1.75,-1.21 -2.63,-1.82 -8.32,3.76 -16.65,7.52 -21.39,9.66 -4.75,2.13 -5.91,2.64 -6.72,3.25 -0.26,0.2 -0.49,0.41 -0.68,0.65 1.49,0.94 2.97,1.88 4.46,2.82 0.21,-0.32 0.52,-0.65 0.96,-0.98z"/>
   <path class="fil8" d="M35.59 82.01c6.3,4.28 12.44,8.54 15.72,11.18 0.67,0.54 1.22,1 1.67,1.42 47.83,-22.73 95.65,-45.47 143.48,-68.2 -2.02,-0.46 -4.95,-0.99 -9.5,-1.73 -11.3,-1.85 -32.57,-4.99 -43.63,-6.64 -11.06,-1.65 -11.91,-1.81 -13.02,-1.63 -1.1,0.18 -2.45,0.69 -22.38,8.37 -19.93,7.67 -62.99,24.53 -101.49,39.36 0.79,-0.06 1.67,0.13 2.59,0.53 0.93,0.4 1.89,1 3.13,1.77 1.24,0.77 2.74,1.72 6.72,4.35 3.97,2.62 10.42,6.93 16.71,11.22zm79.74 -28.95l-13.1 -8.28 -3.36 -2.11c-0.36,-0.23 -0.55,-0.62 -0.51,-1.04 0.04,-0.43 0.29,-0.77 0.69,-0.93l14.25 -5.83c0.38,-0.15 0.77,-0.23 1.15,-0.21 0.49,0.01 0.98,0.16 1.43,0.46l16.01 10.45c0.35,0.23 0.54,0.61 0.5,1.04 -0.04,0.42 -0.29,0.76 -0.68,0.92l-3.47 1.44 -10.36 4.31c-0.86,0.35 -1.76,0.28 -2.55,-0.22z"/>
   <path class="fil2" d="M196.46 26.41c-47.83,22.73 -95.65,45.47 -143.48,68.2 1.77,1.64 2.07,2.49 2.23,3.48 0.1,0.61 0.15,1.27 0.18,2.28 37.18,-17.96 74.36,-35.92 111.54,-53.88 1.6,-0.77 3.19,-1.53 4.78,-2.3 10.41,-5.03 20.83,-10.07 31.25,-15.1 -0.44,-0.27 -0.87,-0.53 -1.26,-0.76 -1.27,-0.75 -2.25,-1.25 -5.24,-1.92z"/>
   <path class="fil7" d="M25.95 83.03c-2.38,-1.62 -4.54,-3.09 -6.19,-4.19 -3.39,-2.28 -4.57,-3.02 -5.64,-3.73 -1.06,-0.7 -2.02,-1.38 -2.87,-1.78 -0.84,-0.4 -1.58,-0.53 -2.1,-0.38 -0.52,0.15 -0.82,0.59 -1,1.26 -0.18,0.67 -0.26,1.57 -0.33,4.01 -0.07,2.45 -0.15,6.44 -0.19,8.66 -0.03,2.21 -0.03,2.65 -0.03,3.07 0,0.42 0,0.82 -0.14,1.02 6.16,-2.65 12.32,-5.29 18.49,-7.94z"/>
   <path class="fil6" d="M233.87 102.1l1.13 -16.1c-2.06,-0.08 -4.62,-0.62 -8.73,-2.18 -6.07,-2.31 -15.55,-6.86 -24.24,-12.15 -8.68,-5.29 -16.57,-11.31 -22.29,-15.63 -5.72,-4.32 -9.26,-6.93 -12.81,-9.55 0.09,17.28 0.17,34.56 0.26,51.84 1.41,-0.03 3.26,0.09 7.74,0.68 4.48,0.59 11.59,1.66 17.63,2.73 6.04,1.07 11.01,2.13 14.75,2.7 3.73,0.57 6.23,0.65 8.53,0.62 2.31,-0.03 4.42,-0.16 7.32,-0.58 2.9,-0.42 6.58,-1.14 9.67,-2.06 0.35,-0.1 0.7,-0.21 1.04,-0.32z"/>
   <path class="fil9" d="M5.72 62.44c0.94,-0.39 2.03,0.05 2.42,0.99 0.4,0.94 -0.04,2.02 -0.98,2.42 -1.47,0.62 -1.47,3.05 -1.46,5.06l0 1.1c-0.04,1.95 -0.07,4.45 -0.07,7.22l-0.01 8.96c0,1.02 -0.83,1.85 -1.85,1.85 -1.03,0 -1.86,-0.83 -1.86,-1.85l0.02 -8.97c0.01,-2.82 0.03,-5.34 0.07,-7.28l0.01 -1.03c-0.01,-3.11 -0.02,-6.89 3.71,-8.47z"/>
   <path class="fil9" d="M56.43 124.08l0.07 0.01 -0.07 -0.01zm0.03 0.02c0.33,0.15 0.55,0.5 0.53,0.89 -0.03,0.51 -0.48,0.9 -0.99,0.87 -0.71,-0.05 -1.12,-0.31 -1.28,-1.53 -0.09,-0.63 -0.12,-1.73 -0.14,-3.69l-0.05 -7.53 -0.03 -8.1c0,-4.16 -0.01,-5.6 -0.2,-6.77 -0.08,-0.5 -0.2,-0.95 -0.63,-1.53 -0.49,-0.68 -1.36,-1.53 -2.94,-2.8 -1.61,-1.3 -3.96,-3.02 -6.68,-4.94 -2.72,-1.92 -5.83,-4.06 -8.98,-6.2 -2.98,-2.03 -5.88,-3.99 -8.5,-5.75 -3.16,-2.11 -6.03,-4.03 -8.2,-5.46 -1.96,-1.3 -3.34,-2.19 -4.38,-2.86l-2.39 -1.52c-0.54,-0.34 -1.04,-0.65 -1.58,-0.97 -0.48,-0.28 -0.93,-0.51 -1.35,-0.69 -0.42,-0.18 -0.82,-0.31 -1.19,-0.39 -0.33,-0.06 -0.66,-0.09 -0.97,-0.06 -0.51,0.04 -0.95,-0.34 -0.99,-0.85 -0.04,-0.51 0.34,-0.96 0.85,-1 0.46,-0.04 0.96,0 1.48,0.1 0.51,0.11 1.03,0.27 1.55,0.5 0.5,0.21 1.01,0.48 1.54,0.79 0.44,0.25 1,0.61 1.64,1l2.41 1.53c1.01,0.65 2.38,1.54 4.4,2.88 2.13,1.4 5,3.32 8.2,5.47l8.52 5.75c3.15,2.14 6.27,4.29 9.01,6.22 2.74,1.94 5.11,3.67 6.77,5.01 1.71,1.37 2.69,2.34 3.27,3.15 0.65,0.89 0.84,1.58 0.97,2.32 0.21,1.3 0.21,2.79 0.22,7.07l0.02 8.1 0.05 7.5c0.03,1.88 0.05,2.92 0.13,3.47l-0.09 0.02z"/>
   <path class="fil9" d="M7.11 65.87c-0.95,0.36 -2.03,-0.11 -2.39,-1.06 -0.37,-0.95 0.1,-2.02 1.05,-2.39 22.05,-8.5 45.6,-17.66 65.43,-25.37 14.81,-5.76 27.55,-10.72 36.06,-13.99 9.93,-3.83 15.24,-5.87 18.28,-7.01 3.12,-1.17 3.81,-1.36 4.48,-1.46 1.31,-0.21 2.14,-0.09 11.16,1.26l7.04 1.05c11.56,1.72 28.93,4.3 39.03,5.95 5.7,0.93 8.91,1.54 10.98,2.08 2.25,0.59 3.22,1.1 4.41,1.8 2.03,1.2 4.76,3.02 7.4,4.78l0.54 0.35c1.38,0.93 2.74,1.82 4.01,2.6 1.29,0.79 2.51,1.48 3.64,2 1.11,0.5 2.18,0.87 3.21,1.1 0.98,0.21 1.91,0.28 2.81,0.2 0.88,-0.08 1.76,-0.31 3.27,-0.95 1.67,-0.7 4.03,-1.85 7.77,-3.72 3.8,-1.89 15.45,-8.32 26.98,-14.68 11.41,-6.29 22.69,-12.52 26.24,-14.28 3.52,-1.74 5.52,-2.7 6.76,-3.25 1.42,-0.61 1.98,-0.75 2.55,-0.82 0.56,-0.07 1.11,-0.08 1.63,-0.02 0.53,0.06 1.04,0.18 1.53,0.36 0.47,0.16 0.94,0.39 1.48,0.71 0.5,0.3 1.01,0.67 1.61,1.14 0.59,0.47 1.28,1.07 2.32,2.07 1,0.98 2.32,2.35 4.16,4.38 1.79,1.97 4.01,4.49 6.16,6.95 2.38,2.73 4.77,5.52 6.45,7.53 1.57,1.88 2.49,3.04 3.08,3.86 0.65,0.9 0.9,1.42 1.13,1.99 0.22,0.54 0.4,1.12 0.53,1.7l0.01 0.08c0.11,0.52 0.18,1.07 0.19,1.65 0.01,0.65 -0.04,1.28 -0.22,2.11 -0.15,0.74 -0.43,1.67 -0.87,3l-0.04 0.09c-0.77,2.32 -1.9,5.37 -2.77,7.73l-0.51 1.39c-0.94,2.56 -1.37,3.73 -2.45,5.11 -0.55,0.7 -1.24,1.41 -2.47,2.35 -1.16,0.89 -2.82,2 -5.34,3.55 -2.98,1.83 -9.67,5.84 -16.26,9.79l-9.35 5.61c-4.02,2.42 -12.39,7.41 -20.67,12.33l-0.12 0.07c-9.92,5.9 -19.74,11.73 -22.4,13.29 -2.68,1.58 -4.67,2.66 -6.4,3.46 -1.77,0.83 -3.25,1.37 -4.87,1.86 -1.48,0.44 -3.09,0.83 -4.69,1.17 -1.83,0.39 -3.66,0.71 -5.25,0.94 -1.5,0.22 -2.79,0.36 -4,0.45 -1.16,0.09 -2.32,0.13 -3.55,0.15 -1.23,0.01 -2.48,0 -3.87,-0.09 -1.45,-0.09 -3.07,-0.26 -4.97,-0.54 -2.05,-0.32 -4.58,-0.8 -7.47,-1.36 -2.15,-0.41 -4.53,-0.86 -7.32,-1.36 -3,-0.53 -6.02,-1.02 -8.75,-1.45 -3.27,-0.5 -6.39,-0.95 -8.8,-1.27 -2.15,-0.28 -3.71,-0.46 -4.93,-0.56 -1.17,-0.09 -1.92,-0.11 -2.54,-0.1 -0.47,0.01 -0.88,0.05 -3.1,1.1 -2.54,1.2 -7.02,3.55 -15.49,8.15 -11.56,6.28 -31.88,17.5 -48.82,26.85l-18.34 10.12c-8.56,4.71 -13.03,7.14 -15.42,8.38 -2.71,1.41 -3.28,1.55 -3.91,1.62 -0.66,0.08 -1.34,0.06 -2.08,-0.19 -0.7,-0.24 -1.41,-0.68 -2.09,-1.41 -0.56,-0.61 -1.12,-1.43 -1.62,-2.33 -0.48,-0.88 -0.93,-1.9 -1.28,-2.9 -0.34,-0.99 -0.58,-1.94 -0.71,-2.82 -0.14,-0.94 -0.17,-1.84 -0.09,-2.67 0.09,-0.91 0.31,-1.71 0.71,-2.47 0.39,-0.75 0.95,-1.43 1.71,-2.07l0.13 -0.1c0.67,-0.54 1.49,-1.07 2.81,-1.79 1.41,-0.77 3.22,-1.69 5.88,-3.01l2.07 -1.04c5.44,-2.7 12.96,-6.45 17.38,-8.88 2.44,-1.34 3.93,-2.28 4.9,-3.05 0.86,-0.69 1.31,-1.25 1.73,-1.9 0.49,-0.75 0.95,-1.61 1.31,-2.49l0.04 -0.09c0.3,-0.74 0.52,-1.49 0.63,-2.18 0.1,-0.64 0.08,-1.22 -0.02,-1.72 -0.09,-0.41 -0.23,-0.73 -0.42,-0.93 -0.13,-0.15 -0.31,-0.25 -0.54,-0.31 -0.37,-0.08 -0.86,-0.08 -1.45,-0.01 -0.7,0.09 -1.49,0.27 -2.68,0.68 -1.3,0.46 -3.06,1.17 -5.63,2.28 -2.52,1.1 -5.95,2.64 -9.31,4.18l-14.7 6.76c-0.38,0.17 -0.78,0.36 -1.21,0.52l-0.11 0.04c-0.54,0.19 -1.07,0.31 -1.56,0.28 -1.02,-0.07 -1.79,-0.95 -1.72,-1.97 0.06,-0.99 0.91,-1.75 1.89,-1.73l0.19 -0.08c0.27,-0.1 0.64,-0.27 0.97,-0.43l14.71 -6.75c3.29,-1.5 6.7,-3.04 9.39,-4.21 2.65,-1.15 4.49,-1.89 5.89,-2.38 1.51,-0.52 2.52,-0.75 3.43,-0.87 1,-0.12 1.92,-0.1 2.75,0.1 0.97,0.23 1.79,0.7 2.45,1.42 0.61,0.69 1.06,1.59 1.28,2.64 0.19,0.91 0.22,1.95 0.05,3.06 -0.15,0.97 -0.46,2 -0.87,3l-0.03 0.1c-0.45,1.1 -1.02,2.17 -1.63,3.11 -0.62,0.96 -1.28,1.78 -2.53,2.78 -1.14,0.9 -2.78,1.95 -5.42,3.4 -4.55,2.5 -12.07,6.25 -17.51,8.95l-2.07 1.03c-2.77,1.39 -4.6,2.31 -5.76,2.94 -1.1,0.6 -1.76,1.02 -2.23,1.4l-0.08 0.07c-0.4,0.34 -0.67,0.65 -0.84,0.97 -0.17,0.32 -0.26,0.68 -0.3,1.1 -0.05,0.51 -0.02,1.11 0.08,1.79 0.1,0.69 0.28,1.42 0.53,2.15 0.27,0.76 0.63,1.57 1.03,2.31 0.37,0.66 0.74,1.23 1.08,1.59 0.23,0.25 0.42,0.38 0.58,0.43 0.13,0.05 0.29,0.05 0.47,0.03 0.2,-0.03 0.47,-0.11 2.62,-1.23 2.49,-1.3 6.93,-3.71 15.34,-8.35l18.34 -10.11c16.51,-9.12 36.32,-20.05 48.85,-26.86 8.58,-4.66 13.12,-7.04 15.67,-8.25 2.89,-1.36 3.67,-1.42 4.61,-1.44 0.79,-0.02 1.67,0 2.9,0.1 1.17,0.1 2.78,0.28 5.11,0.58 2.37,0.32 5.52,0.77 8.89,1.29 3.09,0.48 6.19,0.99 8.83,1.45 2.53,0.45 5.07,0.94 7.38,1.38 2.77,0.53 5.2,1 7.32,1.32 1.83,0.28 3.34,0.44 4.65,0.52 1.35,0.08 2.5,0.09 3.59,0.08 1.07,-0.01 2.13,-0.05 3.32,-0.14 1.15,-0.09 2.36,-0.22 3.76,-0.42 1.51,-0.22 3.25,-0.53 5,-0.9 1.5,-0.32 3.01,-0.69 4.4,-1.1 1.48,-0.44 2.8,-0.92 4.37,-1.65 1.61,-0.76 3.51,-1.79 6.09,-3.3 2.96,-1.74 12.76,-7.56 22.38,-13.28l0.13 -0.08c8.61,-5.12 17.03,-10.15 20.65,-12.32l9.35 -5.61c6.27,-3.76 12.63,-7.57 16.22,-9.78 2.45,-1.5 4,-2.54 5.03,-3.33 0.95,-0.72 1.45,-1.22 1.81,-1.68 0.7,-0.9 1.08,-1.91 1.89,-4.12l0.51 -1.39c0.91,-2.48 2.1,-5.69 2.74,-7.62l0.03 -0.09c0.38,-1.15 0.62,-1.96 0.76,-2.61 0.12,-0.54 0.15,-0.92 0.15,-1.25 -0.01,-0.31 -0.05,-0.64 -0.12,-0.97l-0.01 -0.06c-0.09,-0.39 -0.21,-0.77 -0.34,-1.11 -0.12,-0.29 -0.26,-0.58 -0.71,-1.2 -0.5,-0.72 -1.37,-1.81 -2.91,-3.64 -1.59,-1.9 -3.96,-4.67 -6.41,-7.48 -2.22,-2.55 -4.43,-5.05 -6.1,-6.89 -1.8,-1.99 -3.07,-3.3 -4,-4.22 -0.91,-0.89 -1.53,-1.41 -2.05,-1.82 -0.51,-0.41 -0.9,-0.69 -1.22,-0.88 -0.27,-0.17 -0.53,-0.29 -0.79,-0.38 -0.23,-0.09 -0.47,-0.14 -0.72,-0.17 -0.24,-0.03 -0.48,-0.03 -0.74,0.01 -0.25,0.03 -0.54,0.11 -1.54,0.54 -1.16,0.51 -3.11,1.45 -6.6,3.18 -3.41,1.69 -14.7,7.92 -26.09,14.2 -11.59,6.4 -23.31,12.86 -27.12,14.76 -3.82,1.91 -6.24,3.09 -7.99,3.82 -1.91,0.81 -3.11,1.11 -4.38,1.22 -1.26,0.11 -2.56,0.02 -3.9,-0.27 -1.28,-0.28 -2.61,-0.74 -3.98,-1.36 -1.34,-0.62 -2.68,-1.37 -4.03,-2.2 -1.37,-0.84 -2.73,-1.74 -4.13,-2.67l-0.53 -0.36c-2.6,-1.73 -5.29,-3.52 -7.24,-4.67 -0.93,-0.55 -1.69,-0.95 -3.46,-1.41 -1.94,-0.51 -5.05,-1.09 -10.64,-2.01 -9.63,-1.57 -27.26,-4.19 -38.97,-5.94l-7.04 -1.05c-8.54,-1.27 -9.32,-1.39 -10.05,-1.27 -0.42,0.07 -0.96,0.22 -3.77,1.27 -2.9,1.09 -8.24,3.14 -18.23,6.99 -8.52,3.28 -21.26,8.24 -36.06,14 -19.84,7.71 -43.39,16.87 -65.43,25.37z"/>
   <path class="fil9" d="M56.85 123.3c0.86,0.54 1.12,1.69 0.57,2.55 -0.54,0.87 -1.69,1.12 -2.55,0.57 -1.62,-1.02 -3.23,-2.05 -4.36,-2.86 -0.6,-0.43 -1.03,-0.79 -1.35,-1.1 -0.41,-0.41 -0.67,-0.78 -0.86,-1.15l-0.06 -0.14c-0.18,-0.39 -0.28,-0.77 -0.33,-1.47 -0.03,-0.46 -0.03,-1.25 -0.04,-2.63l-0.07 -10.75c-0.02,-2.62 -0.02,-3.69 -0.16,-4.5 -0.04,-0.24 -0.1,-0.46 -0.29,-0.73 -0.33,-0.46 -0.94,-1.07 -2.08,-2 -1.2,-1 -3,-2.35 -5.16,-3.91 -2.09,-1.52 -4.58,-3.28 -7.2,-5.1 -2.49,-1.73 -4.91,-3.4 -7.08,-4.89 -2.97,-2.03 -5.44,-3.7 -7.09,-4.82 -2.33,-1.56 -3.67,-2.43 -4.63,-3.06l-1.53 -1c-0.8,-0.54 -1.54,-1.03 -2.12,-1.31 -0.21,-0.1 -0.39,-0.17 -0.55,-0.21 -0.05,0.2 -0.09,0.47 -0.12,0.9 -0.05,0.66 -0.09,1.46 -0.12,2.59l-0.1 3.67c-0.05,2.66 -0.11,5.34 -0.13,8 0.01,0.71 0.01,1.37 -0.44,2.05 -0.46,0.67 -1.07,1.02 -1.99,0.96 -0.4,-0.03 -0.85,-0.17 -1.37,-0.43 -0.33,-0.17 -0.73,-0.4 -1.12,-0.65 -0.42,-0.26 -0.85,-0.56 -1.16,-0.79 -0.37,-0.27 -0.62,-0.5 -0.81,-0.74 -0.32,-0.38 -0.44,-0.69 -0.53,-1.03 -0.11,-0.44 -0.11,-0.79 -0.11,-1.13 0,-1.03 0.83,-1.86 1.86,-1.86 1.02,0 1.84,0.82 1.85,1.84l0.15 0.1 0.11 -6.4 0.09 -3.7c0.04,-1.32 0.08,-2.19 0.13,-2.76 0.05,-0.73 0.14,-1.23 0.27,-1.69 0.15,-0.56 0.37,-1.05 0.68,-1.46 0.38,-0.49 0.86,-0.84 1.46,-1.04l0.12 -0.04c0.53,-0.16 1.13,-0.18 1.78,-0.06 0.52,0.09 1.07,0.27 1.63,0.54 0.84,0.4 1.67,0.95 2.59,1.56l1.5 0.99c0.9,0.59 2.15,1.41 4.66,3.09 2.05,1.38 4.61,3.11 7.12,4.83 2.41,1.65 4.89,3.36 7.12,4.91 2.56,1.79 5.05,3.54 7.26,5.14 2.15,1.56 4,2.95 5.33,4.05 1.4,1.16 2.22,2 2.73,2.7 0.64,0.89 0.82,1.56 0.94,2.3 0.18,1.06 0.19,2.23 0.2,5.08l0.07 10.74c0.01,1.22 0.02,1.93 0.05,2.42 0.01,0.13 -0.01,0.15 -0.01,0.16 0.02,0.04 0.07,0.11 0.17,0.21 0.19,0.18 0.47,0.42 0.89,0.72 0.9,0.65 2.55,1.69 4.19,2.74z"/>
   <path class="fil9" d="M60.8 152.4c0.78,0.66 0.89,1.82 0.23,2.61 -0.66,0.78 -1.82,0.89 -2.61,0.23l-2.19 -1.86c-0.74,-0.63 -1.45,-1.25 -2.06,-1.81 -0.66,-0.61 -1.27,-1.21 -1.83,-1.85 -0.58,-0.68 -1.09,-1.39 -1.51,-2.19 -0.38,-0.71 -0.68,-1.49 -0.91,-2.26 -0.28,-0.91 -0.47,-1.81 -0.58,-2.56 -0.1,-0.71 -0.15,-1.35 -0.14,-1.94 0.01,-0.64 0.08,-1.19 0.21,-1.67 0.18,-0.72 0.42,-1.35 1.65,-2.29 0.84,-0.64 2.32,-1.53 5.02,-2.95 2.23,-1.18 5.37,-2.77 8.69,-4.45 4.4,-2.22 9.11,-4.6 12.45,-6.4 2.86,-1.55 4.67,-2.65 5.91,-3.54 1.15,-0.82 1.81,-1.46 2.38,-2.1 0.58,-0.64 1.09,-1.3 1.52,-1.95l0.07 -0.09c0.43,-0.65 0.79,-1.28 1.07,-1.89 0.29,-0.62 0.51,-1.23 0.7,-1.83 0.23,-0.71 0.38,-1.3 0.53,-1.89 0.25,-0.99 1.26,-1.59 2.25,-1.34 0.98,0.25 1.58,1.26 1.33,2.25 -0.19,0.73 -0.38,1.45 -0.57,2.08 -0.24,0.74 -0.52,1.51 -0.89,2.31 -0.37,0.77 -0.82,1.57 -1.34,2.36l-0.08 0.12c-0.52,0.78 -1.14,1.57 -1.83,2.34 -0.73,0.81 -1.55,1.61 -3,2.64 -1.36,0.98 -3.3,2.16 -6.3,3.78 -3.35,1.82 -8.1,4.22 -12.53,6.46 -3.29,1.66 -6.4,3.23 -8.64,4.41 -2.5,1.32 -3.81,2.1 -4.49,2.62l-0.31 0.25c-0.06,0.24 -0.1,0.51 -0.1,0.82 -0.01,0.36 0.03,0.8 0.11,1.36 0.09,0.62 0.23,1.33 0.44,2.02 0.17,0.55 0.38,1.1 0.65,1.61 0.28,0.53 0.63,1.02 1.04,1.49 0.43,0.5 0.95,1.01 1.53,1.54 0.63,0.58 1.29,1.16 1.96,1.74l2.17 1.82z"/>
   <path class="fil9" d="M48.55 99.44c0.91,-0.45 2.02,-0.08 2.48,0.83 0.45,0.91 0.08,2.02 -0.83,2.48l-0.03 0.01c-4.15,2.08 -8.31,4.15 -13.79,6.67 -2.55,1.17 -5.42,2.45 -8.18,3.64 -2.91,1.27 -5.59,2.4 -7.52,3.18 -1.97,0.79 -3.33,1.3 -4.35,1.62 -1.07,0.36 -1.78,0.52 -2.42,0.62 -0.7,0.12 -1.35,0.18 -2.05,0.11 -0.73,-0.08 -1.46,-0.28 -2.28,-0.68 -0.77,-0.38 -1.63,-0.95 -2.51,-1.68 -0.75,-0.63 -1.52,-1.4 -2.27,-2.31 -0.76,-0.92 -1.46,-1.95 -2.07,-2.99 -0.65,-1.11 -1.21,-2.27 -1.63,-3.34 -0.41,-1.04 -0.7,-2.01 -0.88,-2.89 -0.2,-1 -0.26,-1.91 -0.2,-2.68 0.07,-0.87 0.28,-1.6 0.64,-2.24 0.36,-0.63 0.85,-1.15 1.45,-1.61 0.93,-0.71 2.04,-1.21 6.27,-3.11l22.2 -10.02c0.93,-0.42 2.03,0 2.45,0.93 0.42,0.93 0,2.03 -0.93,2.44l-22.2 10.02c-3.92,1.77 -4.96,2.24 -5.56,2.69 -0.2,0.15 -0.35,0.3 -0.45,0.47 -0.09,0.17 -0.15,0.4 -0.18,0.71 -0.03,0.44 0.01,1.01 0.15,1.67 0.13,0.67 0.36,1.43 0.68,2.25 0.36,0.91 0.84,1.89 1.4,2.85 0.53,0.91 1.12,1.78 1.72,2.5 0.57,0.7 1.18,1.32 1.79,1.82 0.65,0.54 1.25,0.95 1.77,1.2 0.39,0.19 0.71,0.29 1,0.32 0.31,0.03 0.66,-0.01 1.08,-0.08 0.48,-0.08 1.02,-0.2 1.89,-0.48 0.93,-0.3 2.21,-0.78 4.12,-1.55 2.06,-0.83 4.69,-1.94 7.43,-3.13 2.64,-1.14 5.47,-2.41 8.11,-3.61 5.12,-2.36 9.4,-4.49 13.67,-6.62l0.03 -0.01z"/>
   <path class="fil9" d="M34.78 88.56c0.46,-0.22 1.01,-0.01 1.23,0.45 0.21,0.46 0.01,1.01 -0.45,1.23 -0.89,0.41 -1.78,0.82 -5.74,2.59l-2 0.9c-3.87,1.73 -9.17,4.1 -12.69,5.72 -2.03,0.93 -3.46,1.61 -4.54,2.17 -1.01,0.53 -1.62,0.9 -2.06,1.24 -0.39,0.31 -0.65,0.59 -0.81,0.86 -0.14,0.24 -0.2,0.49 -0.22,0.76 -0.03,0.32 0.01,0.66 0.1,1.07 0.1,0.44 0.27,0.97 0.51,1.6 0.25,0.66 0.57,1.44 0.93,2.23 0.34,0.75 0.71,1.52 1.07,2.21 0.39,0.73 0.77,1.38 1.14,1.94 0.34,0.5 0.67,0.93 0.98,1.24 0.25,0.26 0.48,0.43 0.74,0.51 0.28,0.09 0.63,0.11 1.1,0.04 1.17,-0.15 2.97,-0.74 4.77,-1.32 0.48,-0.15 1,0.11 1.16,0.6 0.15,0.48 -0.11,1.01 -0.6,1.16 -1.87,0.61 -3.75,1.22 -5.08,1.4 -0.78,0.1 -1.38,0.06 -1.93,-0.12 -0.56,-0.18 -1.02,-0.51 -1.48,-0.97 -0.39,-0.4 -0.79,-0.91 -1.19,-1.51 -0.41,-0.61 -0.83,-1.33 -1.24,-2.11 -0.39,-0.74 -0.78,-1.54 -1.13,-2.31 -0.37,-0.82 -0.71,-1.64 -0.97,-2.34 -0.27,-0.7 -0.46,-1.31 -0.58,-1.85 -0.14,-0.59 -0.18,-1.11 -0.15,-1.6 0.04,-0.54 0.18,-1.05 0.47,-1.55 0.28,-0.48 0.69,-0.93 1.28,-1.39 0.54,-0.43 1.24,-0.86 2.34,-1.43 1.02,-0.53 2.49,-1.23 4.62,-2.21 3.5,-1.61 8.82,-3.99 12.71,-5.73l2 -0.9c3.69,-1.65 4.7,-2.12 5.71,-2.58z"/>
   <path class="fil9" d="M8.19 92.67c-0.94,0.41 -2.03,-0.03 -2.43,-0.97 -0.4,-0.94 0.03,-2.03 0.97,-2.43l18.48 -7.94c0.94,-0.4 2.04,0.03 2.44,0.97 0.4,0.94 -0.03,2.03 -0.97,2.43l-18.49 7.94z"/>
   <path class="fil9" d="M56.92 142.08c0.44,0.27 0.57,0.84 0.29,1.27 -0.27,0.44 -0.84,0.56 -1.27,0.29l-5.23 -3.31c-0.43,-0.27 -0.56,-0.84 -0.29,-1.27 0.27,-0.44 0.84,-0.56 1.28,-0.29l5.22 3.31z"/>
   <path class="fil9" d="M2.05 101.08c-0.43,-0.27 -0.56,-0.85 -0.28,-1.28 0.27,-0.43 0.84,-0.56 1.28,-0.28l4.45 2.82c0.44,0.28 0.56,0.85 0.29,1.28 -0.27,0.43 -0.85,0.56 -1.28,0.28l-4.46 -2.82z"/>
   <path class="fil9" d="M53.37 95.45c-0.46,0.22 -1.01,0.02 -1.23,-0.44 -0.21,-0.46 -0.02,-1.02 0.44,-1.23l143.48 -68.21c0.46,-0.22 1.02,-0.02 1.23,0.44 0.22,0.46 0.02,1.02 -0.44,1.23l-143.48 68.21z"/>
   <path class="fil9" d="M55.8 101.2c-0.47,0.22 -1.02,0.03 -1.24,-0.43 -0.22,-0.46 -0.03,-1.01 0.43,-1.24l147.57 -71.27c0.45,-0.22 1.01,-0.03 1.23,0.43 0.22,0.46 0.03,1.01 -0.43,1.24l-147.56 71.27z"/>
   <path class="fil9" d="M113.6 35.74l-14.21 5.81 -0.08 0.07 -0.03 0.09 0.02 0.1 0.07 0.08 16.45 10.39c0.27,0.16 0.55,0.26 0.84,0.28 0.28,0.03 0.58,-0.02 0.87,-0.14l13.82 -5.74 0.08 -0.06 0.04 -0.1 -0.02 -0.1c-1.75,-1.78 -13.12,-8.6 -16.08,-10.53 -0.27,-0.17 -0.55,-0.28 -0.83,-0.3l-0.02 -0.01c-0.28,-0.02 -0.58,0.03 -0.86,0.14l-0.06 0.02zm-14.9 4.1l14.25 -5.82c0.57,-0.24 1.16,-0.33 1.73,-0.28l0.03 0.01c0.58,0.05 1.15,0.25 1.67,0.59l16.01 10.46c0.32,0.21 0.57,0.49 0.73,0.82 0.15,0.32 0.22,0.69 0.19,1.07 -0.04,0.38 -0.17,0.73 -0.38,1.02 -0.22,0.29 -0.52,0.53 -0.87,0.67l-13.82 5.75c-0.57,0.23 -1.16,0.33 -1.74,0.28 -0.57,-0.05 -1.14,-0.24 -1.66,-0.57l-16.46 -10.39c-0.33,-0.21 -0.58,-0.49 -0.74,-0.82 -0.17,-0.33 -0.24,-0.7 -0.2,-1.08 0.03,-0.38 0.17,-0.74 0.39,-1.04 0.21,-0.29 0.51,-0.53 0.87,-0.67z"/>
   <path class="fil9" d="M128.75 48.19c0.42,0.28 0.55,0.86 0.27,1.28 -0.28,0.43 -0.85,0.55 -1.28,0.27l-12.73 -8.31c-0.27,-0.18 -0.56,-0.28 -0.84,-0.31l-0.02 0c-0.28,-0.02 -0.57,0.02 -0.86,0.14l-10.72 4.38c-0.47,0.19 -1.01,-0.04 -1.2,-0.51 -0.19,-0.47 0.04,-1.01 0.51,-1.2l10.71 -4.38c0.56,-0.23 1.15,-0.32 1.72,-0.27l0.03 0c0.59,0.06 1.15,0.26 1.67,0.6l12.74 8.31z"/>
   <path class="fil9" d="M115.21 40.23c-0.01,0.51 -0.43,0.91 -0.94,0.9 -0.51,-0.01 -0.91,-0.44 -0.9,-0.95l0.15 -5.55c0.02,-0.51 0.44,-0.91 0.95,-0.9 0.51,0.02 0.91,0.44 0.9,0.95l-0.16 5.55z"/>
   <path class="fil9" d="M171.14 44.92c-0.4,-0.31 -0.48,-0.89 -0.17,-1.3 0.32,-0.4 0.9,-0.47 1.3,-0.16l0.05 0.03c9.99,7.69 19.99,15.38 29.69,21.47 4.47,2.8 8.87,5.28 12.91,7.35 4.74,2.43 8.98,4.32 12.24,5.56 2.97,1.13 5.1,1.71 6.8,1.96 1.67,0.25 2.94,0.18 4.22,0.01 0.97,-0.13 5.5,-2.36 11.24,-5.35 8.53,-4.46 19.72,-10.64 25.94,-14.13 8.31,-4.68 23.79,-14.06 38.82,-23.16l11.42 -6.91c0.44,-0.27 1.01,-0.13 1.27,0.31 0.26,0.44 0.12,1.01 -0.31,1.27l-11.42 6.91c-15.11,9.15 -30.68,18.57 -38.88,23.19 -6.16,3.47 -17.34,9.63 -25.99,14.15 -5.9,3.08 -10.64,5.39 -11.85,5.55 -1.44,0.2 -2.86,0.27 -4.73,-0.01 -1.83,-0.27 -4.08,-0.88 -7.19,-2.06 -3.3,-1.26 -7.61,-3.18 -12.42,-5.65 -4.09,-2.09 -8.55,-4.6 -13.05,-7.43 -9.78,-6.14 -19.81,-13.85 -29.84,-21.56l-0.05 -0.04z"/>
   <path class="fil9" d="M168.11 98.33c0,0.51 -0.41,0.93 -0.92,0.93 -0.51,0 -0.92,-0.41 -0.93,-0.92l-0.25 -51.84c0,-0.51 0.41,-0.93 0.92,-0.93 0.51,0 0.93,0.41 0.93,0.92l0.25 51.84z"/>
   <path class="fil9" d="M166.39 47.24c-0.41,-0.3 -0.5,-0.88 -0.2,-1.29 0.3,-0.42 0.88,-0.5 1.29,-0.2l5.59 4.13c2.13,1.59 4.47,3.34 7.23,5.42l0.77 0.58c5.63,4.26 13.19,9.98 21.45,15 4.07,2.48 8.31,4.79 12.27,6.78 4.47,2.24 8.61,4.08 11.81,5.29 2.97,1.13 5.1,1.72 6.8,1.97 1.67,0.25 2.94,0.18 4.22,0.01 1.28,-0.17 2.58,-0.45 4.81,-1.39 2.3,-0.96 5.55,-2.61 10.71,-5.51 4.58,-2.58 15.64,-9.09 28.11,-16.48 15.71,-9.32 33.71,-20.09 43.79,-26.18 0.44,-0.26 1.01,-0.12 1.27,0.32 0.27,0.44 0.13,1.01 -0.31,1.27 -10.02,6.05 -28.02,16.82 -43.81,26.18 -12.48,7.41 -23.56,13.92 -28.15,16.5 -5.23,2.95 -8.54,4.62 -10.89,5.61 -2.42,1.01 -3.86,1.32 -5.29,1.51 -1.43,0.19 -2.86,0.27 -4.72,-0.01 -1.83,-0.27 -4.09,-0.88 -7.19,-2.07 -3.24,-1.23 -7.44,-3.1 -11.98,-5.37 -4.03,-2.02 -8.32,-4.36 -12.42,-6.85 -8.34,-5.08 -15.94,-10.82 -21.59,-15.1l-0.78 -0.58c-2.96,-2.24 -5.25,-3.96 -7.21,-5.41l-5.58 -4.13z"/>
   <path class="fil9" d="M234.08 85.94c0.03,-0.51 0.47,-0.9 0.98,-0.87 0.51,0.04 0.89,0.48 0.86,0.99l-1.08 15.41c-0.03,0.51 -0.47,0.89 -0.98,0.86 -0.51,-0.03 -0.9,-0.47 -0.86,-0.98l1.08 -15.41z"/>
   <polygon class="fil7" points="139.07,104.22 139.07,97.72 132.17,101.61 132.17,105.34 132.17,108.21 "/>
   <path class="fil9" d="M138.15 103.69l0 -4.38 -5.06 2.84 0 4.46 5.06 -2.92zm1.85 -5.97l0 6.5c0,0.32 -0.17,0.63 -0.46,0.8l-6.85 3.96c-0.15,0.1 -0.33,0.16 -0.52,0.16 -0.51,0 -0.93,-0.42 -0.93,-0.93l0 -6.6c0,-0.32 0.17,-0.63 0.48,-0.8l6.85 -3.86c0.14,-0.1 0.32,-0.15 0.5,-0.15 0.52,0 0.93,0.41 0.93,0.92z"/>
   <path class="fil9" d="M132.62 106.14c-0.44,0.25 -1,0.1 -1.26,-0.35 -0.25,-0.44 -0.09,-1.01 0.35,-1.26l3.84 -2.17 0 -3.14c0,-0.51 0.41,-0.93 0.92,-0.93 0.51,0 0.93,0.42 0.93,0.93l0 3.68c0,0.32 -0.17,0.63 -0.47,0.8l-4.31 2.44z"/>
  </g>
 </g>
</svg>
