<?xml version="1.0" encoding="UTF-8"?>
<!DOCTYPE svg PUBLIC "-//W3C//DTD SVG 1.1//EN" "http://www.w3.org/Graphics/SVG/1.1/DTD/svg11.dtd">
<!-- Creator: CorelDRAW 2021.5 -->
<svg xmlns="http://www.w3.org/2000/svg" xml:space="preserve" width="500px" height="283px" version="1.1" style="shape-rendering:geometricPrecision; text-rendering:geometricPrecision; image-rendering:optimizeQuality; fill-rule:evenodd; clip-rule:evenodd"
viewBox="0 0 54.42 30.76"
 xmlns:xlink="http://www.w3.org/1999/xlink"
 xmlns:xodm="http://www.corel.com/coreldraw/odm/2003">
 <defs>
  <style type="text/css">
   <![CDATA[
    .fil4 {fill:#5C5C5C}
    .fil2 {fill:#737373}
    .fil3 {fill:#999999}
    .fil0 {fill:#BFBFBF}
    .fil1 {fill:#5F5F5F;fill-rule:nonzero}
   ]]>
  </style>
 </defs>
 <g id="Слой_x0020_1">
  <metadata id="CorelCorpID_0Corel-Layer"/>
  <g id="_1910644653424">
   <path class="fil0" d="M8.99 17.34l45.12 -15.42 -3.98 -1.61 -44.46 14.64c-3.23,1.07 -5.33,3.94 -5.36,7.35l0 0.7c-0.02,2.26 1.17,4.2 3.18,5.21l2.72 1.37c-1.34,-0.98 -2.16,-2.4 -2.15,-4.05l0 -1.34c0.02,-3.16 1.94,-5.83 4.93,-6.85z"/>
   <path class="fil1" d="M8.94 17.2l44.73 -15.3 -3.55 -1.43 -44.4 14.63c-1.58,0.52 -2.89,1.48 -3.81,2.74 -0.91,1.25 -1.43,2.79 -1.44,4.46l-0.01 0.7c-0.01,1.1 0.28,2.12 0.81,2.99 0.53,0.87 1.31,1.59 2.29,2.09l1.68 0.84c-0.3,-0.33 -0.56,-0.69 -0.77,-1.08 -0.37,-0.7 -0.57,-1.48 -0.56,-2.32l0 -1.33c0.01,-1.61 0.5,-3.1 1.38,-4.31 0.87,-1.22 2.12,-2.16 3.65,-2.68zm45.22 -15.14l-45.12 15.43c-1.47,0.5 -2.67,1.4 -3.51,2.57 -0.83,1.16 -1.31,2.59 -1.31,4.13l-0.01 1.34c0,0.78 0.19,1.51 0.54,2.17 0.36,0.68 0.89,1.27 1.55,1.75 0.06,0.04 0.08,0.13 0.05,0.2 -0.04,0.07 -0.13,0.1 -0.21,0.06l-2.72 -1.36c-1.03,-0.52 -1.85,-1.28 -2.41,-2.2 -0.57,-0.91 -0.87,-1.99 -0.86,-3.15l0.01 -0.7c0.01,-1.74 0.56,-3.34 1.51,-4.64 0.95,-1.31 2.31,-2.31 3.96,-2.86l44.45 -14.64c0.03,-0.01 0.07,-0.01 0.1,0.01l3.98 1.6c0.04,0.02 0.08,0.05 0.09,0.1 0.03,0.08 -0.01,0.16 -0.09,0.19z"/>
   <path class="fil2" d="M54.11 1.92l-45.12 15.42c-2.99,1.02 -4.91,3.69 -4.93,6.85l0 1.34c-0.01,1.65 0.81,3.07 2.15,4.05l0.49 0.24c1.43,0.72 2.91,0.83 4.42,0.32l19.73 -6.6 -0.08 -2.16 -20.61 6.95c-0.91,0.31 -1.83,0.17 -2.61,-0.4 -0.7,-0.51 -1.11,-1.24 -1.17,-2.09 -0.01,-0.09 -0.01,-0.18 -0.01,-0.26l0.01 -1.28c0.03,-2.27 1.41,-4.18 3.56,-4.91l44.17 -15.03 0 -2.44z"/>
   <path class="fil1" d="M53.95 2.13l-44.91 15.36c-1.47,0.5 -2.67,1.4 -3.51,2.57 -0.83,1.16 -1.31,2.59 -1.31,4.13l-0.01 1.34c0,0.78 0.19,1.51 0.54,2.17 0.36,0.67 0.88,1.27 1.54,1.75l0.48 0.24c0.69,0.35 1.4,0.55 2.12,0.6 0.72,0.05 1.45,-0.05 2.19,-0.3l19.61 -6.55 -0.07 -1.85 -20.41 6.89c-0.48,0.16 -0.96,0.2 -1.43,0.13 -0.46,-0.07 -0.91,-0.26 -1.32,-0.55 -0.37,-0.27 -0.66,-0.6 -0.87,-0.97 -0.21,-0.38 -0.33,-0.8 -0.37,-1.24l0 -0.14 0 -0.13 0.01 -1.28c0.01,-1.17 0.38,-2.24 1.01,-3.12 0.64,-0.88 1.55,-1.56 2.65,-1.94l44.06 -14.99 0 -2.12zm-45.01 15.07l45.11 -15.43c0.02,0 0.04,-0.01 0.06,-0.01 0.08,0 0.15,0.07 0.15,0.16l0 2.44c0,0.06 -0.04,0.12 -0.1,0.14l-44.17 15.03c-1.04,0.36 -1.9,1 -2.5,1.83 -0.6,0.83 -0.94,1.84 -0.95,2.94l-0.02 1.28 0 0.12 0.01 0.12c0.03,0.41 0.14,0.78 0.33,1.12 0.18,0.33 0.45,0.63 0.78,0.87 0.37,0.27 0.77,0.43 1.19,0.5 0.42,0.06 0.85,0.02 1.28,-0.13l20.61 -6.95c0.01,0 0.03,0 0.04,0 0.09,-0.01 0.16,0.06 0.16,0.14l0.08 2.17c0,0.06 -0.04,0.13 -0.1,0.15l-19.73 6.59c-0.77,0.26 -1.54,0.37 -2.3,0.31 -0.76,-0.05 -1.51,-0.26 -2.24,-0.63l-0.49 -0.25 -0.02 -0.01c-0.7,-0.51 -1.26,-1.14 -1.65,-1.86 -0.37,-0.7 -0.57,-1.48 -0.56,-2.32l0 -1.33c0.01,-1.61 0.5,-3.1 1.38,-4.31 0.87,-1.22 2.12,-2.16 3.65,-2.68z"/>
   <path class="fil3" d="M26.09 19.42l-19.71 6.42c0.06,0.85 0.47,1.58 1.17,2.09 0.78,0.57 1.7,0.71 2.61,0.4l20.61 -6.95 -4.68 -1.96zm-2.49 2.64l-0.85 -0.4c-0.05,-0.03 -0.08,-0.08 -0.08,-0.14 0.01,-0.06 0.05,-0.11 0.1,-0.13l2.24 -0.67c0.14,-0.04 0.28,-0.07 0.42,-0.07 0.25,-0.02 0.48,0.03 0.72,0.12l1.06 0.43c0.05,0.02 0.09,0.08 0.09,0.14 -0.01,0.06 -0.05,0.11 -0.11,0.13l-1.76 0.51 -0.62 0.18c-0.42,0.12 -0.82,0.09 -1.21,-0.1z"/>
   <path class="fil1" d="M26.09 19.59l-19.55 6.35c0.04,0.36 0.15,0.7 0.32,1 0.18,0.33 0.45,0.63 0.78,0.87 0.37,0.27 0.77,0.43 1.19,0.5 0.42,0.06 0.85,0.02 1.28,-0.13l20.22 -6.82 -4.24 -1.77zm-19.76 6.1l19.72 -6.41c0.03,-0.01 0.07,-0.01 0.1,0l4.68 1.96c0.04,0.01 0.07,0.05 0.08,0.09 0.03,0.08 -0.01,0.17 -0.09,0.19l-20.61 6.96c-0.48,0.16 -0.96,0.2 -1.43,0.13 -0.46,-0.07 -0.91,-0.26 -1.32,-0.55 -0.37,-0.27 -0.66,-0.6 -0.87,-0.97 -0.21,-0.38 -0.33,-0.79 -0.37,-1.24 0,-0.07 0.04,-0.14 0.11,-0.16zm17.2 -3.49l-0.85 -0.41c-0.05,-0.02 -0.09,-0.06 -0.12,-0.11 -0.03,-0.05 -0.05,-0.11 -0.04,-0.17 0,-0.06 0.03,-0.12 0.06,-0.16 0.04,-0.05 0.09,-0.09 0.15,-0.1l2.24 -0.68c0.08,-0.02 0.15,-0.04 0.22,-0.05 0.08,-0.02 0.16,-0.02 0.24,-0.03 0.13,0 0.26,0 0.39,0.03l0.01 0c0.13,0.02 0.26,0.06 0.38,0.11l1.05 0.43c0.06,0.02 0.11,0.06 0.14,0.11 0.03,0.05 0.05,0.11 0.05,0.18 0,0.06 -0.03,0.12 -0.07,0.17 -0.03,0.04 -0.08,0.08 -0.15,0.1 -0.79,0.2 -1.59,0.46 -2.37,0.68 -0.23,0.07 -0.46,0.09 -0.68,0.08 -0.22,-0.02 -0.43,-0.08 -0.65,-0.18zm-0.69 -0.67l0.82 0.39c0.18,0.09 0.36,0.14 0.55,0.15 0.18,0.02 0.37,-0.01 0.56,-0.06l2.35 -0.68 -1.02 -0.41c-0.11,-0.05 -0.22,-0.08 -0.32,-0.1l-0.01 0c-0.11,-0.02 -0.22,-0.03 -0.33,-0.02 -0.06,0 -0.13,0.01 -0.19,0.02 -0.07,0.01 -0.13,0.03 -0.19,0.05l-2.22 0.66z"/>
   <path class="fil1" d="M25.98 19.71c-0.16,-0.07 -0.23,-0.25 -0.17,-0.41 0.07,-0.15 0.25,-0.23 0.4,-0.16l4.68 1.96c0.11,0.04 0.19,0.16 0.18,0.28l0.08 2.15c0.01,0.14 -0.08,0.26 -0.21,0.31l-19.72 6.59c-0.8,0.27 -1.59,0.37 -2.36,0.32 -0.78,-0.06 -1.55,-0.28 -2.3,-0.65l-3.21 -1.61c-1.06,-0.54 -1.9,-1.31 -2.48,-2.26 -0.57,-0.94 -0.88,-2.04 -0.87,-3.23l0.01 -0.7c0.01,-1.77 0.56,-3.4 1.53,-4.73 0.97,-1.33 2.36,-2.36 4.04,-2.91l44.45 -14.64c0.08,-0.03 0.16,-0.02 0.23,0.01l3.96 1.6c0.12,0.05 0.19,0.16 0.19,0.29l0.01 2.44c0,0.17 -0.14,0.31 -0.31,0.31 -0.17,0 -0.31,-0.14 -0.31,-0.31l0 -2.24 -3.68 -1.49 -44.35 14.61c-1.56,0.51 -2.84,1.46 -3.73,2.69 -0.9,1.22 -1.41,2.73 -1.42,4.37l-0.01 0.7c-0.01,1.07 0.27,2.07 0.79,2.91 0.51,0.85 1.27,1.55 2.23,2.03l3.2 1.61c0.68,0.34 1.37,0.53 2.07,0.58 0.7,0.05 1.41,-0.04 2.13,-0.28l19.5 -6.52 -0.06 -1.74 -4.49 -1.88z"/>
   <path class="fil1" d="M54.01 4.07c0.16,-0.06 0.33,0.03 0.39,0.19 0.05,0.16 -0.03,0.33 -0.19,0.39l-44.17 15.03c-1.01,0.34 -1.84,0.96 -2.43,1.77 -0.58,0.8 -0.91,1.78 -0.92,2.85l-0.02 1.28c0,0.43 0.09,0.83 0.27,1.19 0.18,0.35 0.44,0.66 0.79,0.91 0.35,0.26 0.73,0.41 1.12,0.47 0.39,0.06 0.8,0.03 1.21,-0.11l20.61 -6.95c0.16,-0.06 0.33,0.03 0.39,0.19 0.05,0.16 -0.03,0.34 -0.19,0.39l-20.61 6.95c-0.51,0.17 -1.01,0.22 -1.5,0.14 -0.49,-0.07 -0.96,-0.27 -1.39,-0.58 -0.43,-0.31 -0.76,-0.7 -0.98,-1.14 -0.22,-0.44 -0.33,-0.94 -0.33,-1.47l0.02 -1.27c0.01,-1.2 0.38,-2.31 1.04,-3.21 0.65,-0.91 1.59,-1.61 2.72,-1.99l44.17 -15.03z"/>
   <path class="fil1" d="M54.06 1.77c0.08,-0.03 0.17,0.02 0.19,0.1 0.03,0.08 -0.01,0.16 -0.09,0.19l-45.12 15.43c-1.47,0.5 -2.67,1.4 -3.51,2.57 -0.83,1.16 -1.31,2.59 -1.31,4.13l-0.01 1.34c0,0.78 0.19,1.51 0.54,2.17 0.36,0.68 0.89,1.27 1.55,1.75 0.07,0.05 0.08,0.15 0.03,0.22 -0.05,0.07 -0.14,0.08 -0.21,0.03 -0.7,-0.51 -1.26,-1.14 -1.65,-1.86 -0.37,-0.7 -0.57,-1.48 -0.56,-2.32l0 -1.33c0.01,-1.61 0.5,-3.1 1.38,-4.31 0.87,-1.22 2.12,-2.16 3.65,-2.68l45.12 -15.43z"/>
   <path class="fil1" d="M26 19.13c0.16,-0.05 0.33,0.04 0.39,0.2 0.05,0.16 -0.04,0.33 -0.2,0.38l-19.72 6.42c-0.16,0.05 -0.33,-0.04 -0.39,-0.2 -0.05,-0.16 0.04,-0.33 0.2,-0.39l19.72 -6.41z"/>
   <path class="fil2" d="M23.6 22.06l-0.85 -0.4c-0.05,-0.03 -0.08,-0.08 -0.08,-0.14 0.01,-0.06 0.05,-0.11 0.1,-0.13l2.24 -0.67c0.39,-0.12 0.76,-0.1 1.14,0.05l1.06 0.43c0.05,0.02 0.09,0.08 0.09,0.14 -0.01,0.06 -0.05,0.11 -0.11,0.13l-2.38 0.69c-0.42,0.12 -0.82,0.09 -1.21,-0.1z"/>
   <path class="fil1" d="M23.53 22.2l-0.84 -0.4c-0.06,-0.03 -0.1,-0.07 -0.13,-0.12 -0.03,-0.05 -0.05,-0.11 -0.04,-0.17 0,-0.06 0.03,-0.12 0.06,-0.16l0.01 -0.02c0.04,-0.04 0.09,-0.07 0.14,-0.08l2.23 -0.68c0.21,-0.06 0.42,-0.09 0.63,-0.08 0.21,0.01 0.42,0.06 0.62,0.14l1.05 0.43c0.06,0.02 0.11,0.06 0.14,0.11l0.01 0.01c0.03,0.05 0.04,0.11 0.04,0.17 0,0.06 -0.03,0.12 -0.06,0.17 -0.04,0.04 -0.09,0.08 -0.16,0.1l-2.37 0.68c-0.23,0.07 -0.46,0.09 -0.68,0.08 -0.22,-0.02 -0.43,-0.08 -0.65,-0.18zm-0.69 -0.67l0.82 0.39c0.18,0.09 0.36,0.14 0.55,0.15 0.18,0.02 0.37,0 0.56,-0.06l2.35 -0.68 -1.02 -0.41c-0.18,-0.07 -0.35,-0.11 -0.52,-0.12 -0.17,-0.01 -0.35,0.01 -0.53,0.07l-2.21 0.66z"/>
   <path class="fil4" d="M25.43 20.65l0 1.33 1.76 -0.51c0.06,-0.02 0.1,-0.07 0.11,-0.13 0,-0.06 -0.04,-0.12 -0.09,-0.14l-1.06 -0.43c-0.24,-0.09 -0.47,-0.14 -0.72,-0.12z"/>
   <path class="fil1" d="M23.53 22.2l-0.84 -0.4c-0.06,-0.03 -0.1,-0.07 -0.13,-0.12 -0.03,-0.05 -0.05,-0.11 -0.04,-0.17 0,-0.06 0.03,-0.12 0.06,-0.16l0.01 -0.02c0.04,-0.04 0.09,-0.07 0.14,-0.08l2.23 -0.68c0.21,-0.06 0.42,-0.09 0.63,-0.08 0.21,0.01 0.42,0.06 0.62,0.14l1.05 0.43c0.06,0.02 0.11,0.06 0.14,0.11l0.01 0.01c0.03,0.05 0.04,0.11 0.04,0.17 0,0.06 -0.03,0.12 -0.06,0.17 -0.04,0.04 -0.09,0.08 -0.16,0.1l-2.37 0.68c-0.23,0.07 -0.46,0.09 -0.68,0.08 -0.22,-0.02 -0.43,-0.08 -0.65,-0.18zm-0.69 -0.67l0.82 0.39c0.18,0.09 0.36,0.14 0.55,0.15 0.18,0.02 0.37,0 0.56,-0.06l2.35 -0.68 -1.02 -0.41c-0.18,-0.07 -0.35,-0.11 -0.52,-0.12 -0.17,-0.01 -0.35,0.01 -0.53,0.07l-2.21 0.66z"/>
  </g>
 </g>
</svg>
