<?xml version="1.0" encoding="UTF-8"?>
<!DOCTYPE svg PUBLIC "-//W3C//DTD SVG 1.1//EN" "http://www.w3.org/Graphics/SVG/1.1/DTD/svg11.dtd">
<!-- Creator: CorelDRAW 2021.5 -->
<svg xmlns="http://www.w3.org/2000/svg" xml:space="preserve" width="500px" height="247px" version="1.1" style="shape-rendering:geometricPrecision; text-rendering:geometricPrecision; image-rendering:optimizeQuality; fill-rule:evenodd; clip-rule:evenodd"
viewBox="0 0 606.03 299.15"
 xmlns:xlink="http://www.w3.org/1999/xlink"
 xmlns:xodm="http://www.corel.com/coreldraw/odm/2003">
 <defs>
  <style type="text/css">
   <![CDATA[
    .fil0 {fill:dimgray}
    .fil8 {fill:#787878}
    .fil1 {fill:#7A7A7A}
    .fil4 {fill:gray}
    .fil2 {fill:#858585}
    .fil5 {fill:#8C8C8C}
    .fil6 {fill:#A6A6A6}
    .fil3 {fill:#BFBFBF}
    .fil7 {fill:#5F5F5F;fill-rule:nonzero}
   ]]>
  </style>
 </defs>
 <g id="Слой_x0020_1">
  <metadata id="CorelCorpID_0Corel-Layer"/>
  <g id="_1704872550960">
   <path class="fil0" d="M281.52 85.08l0 -10.7 0 -2.12 -8.6 2.12c-8.51,2.1 -10.47,5.08 -2.29,8.52 3.22,1.36 6.99,2.03 10.89,2.18z"/>
   <path class="fil0" d="M62.65 253.95c-3.15,-1.27 -6.27,-2.53 -9.3,-3.76 -1.5,-1.56 -2.99,-3.13 -4.87,-6.33 -1.88,-3.2 -4.13,-8.03 -5.37,-13.1 -1.13,-4.62 -1.42,-9.43 -1.73,-13.95 -1.99,8.16 -3.99,16.32 -5.14,22.08 -1.15,5.76 -1.45,9.12 -1.16,12.16 0.29,3.03 1.19,5.75 2.51,7.97 1.33,2.22 3.1,3.95 4.78,5.13 1.68,1.18 3.28,1.8 4.99,2.29 1.71,0.49 3.53,0.86 5.55,1.09 2.02,0.22 4.24,0.29 6.46,0.37 0.56,-0.09 1.11,-0.19 1.66,-0.31 3.63,-0.75 6.86,-1.96 10.1,-3.16 -3.05,-3.42 -5.76,-6.95 -8.48,-10.48z"/>
   <path class="fil1" d="M35.08 251.05c-0.29,-3.04 0.01,-6.4 1.16,-12.16 1.15,-5.76 3.15,-13.92 5.14,-22.08 -0.03,-0.44 -0.06,-0.86 -0.09,-1.29 -0.35,-4.88 -0.81,-9.35 -1.8,-12.44 -0.57,-1.78 -1.31,-3.1 -2.25,-4.02 -3.12,14 -6.24,28 -8.06,36.91 -0.23,1.11 -0.43,2.13 -0.62,3.09 -0.07,0.34 -0.13,0.67 -0.19,0.99 -1.16,6.1 -1.49,9.21 -1.3,11.94 0.22,3.28 1.19,6.03 2.95,8.57 1.77,2.54 4.33,4.87 7.68,6.23 3.35,1.36 7.49,1.76 11.58,1.81 3.47,0.04 6.9,-0.17 10.09,-0.7 -2.22,-0.08 -4.44,-0.15 -6.46,-0.37 -2.02,-0.23 -3.84,-0.6 -5.55,-1.09 -1.71,-0.49 -3.31,-1.11 -4.99,-2.29 -1.68,-1.18 -3.45,-2.91 -4.78,-5.13 -1.32,-2.22 -2.22,-4.94 -2.51,-7.97z"/>
   <path class="fil0" d="M113.07 284.36c-1.32,-3.51 -2.55,-7.74 -3.77,-11.97 -3.91,-1.47 -8.28,-3.15 -13.24,-5.1 -9.76,-3.83 -21.82,-8.66 -33.41,-13.34 2.72,3.53 5.43,7.06 8.48,10.48 1.82,2.05 3.77,4.07 5.91,6.02 5.7,5.21 12.76,9.98 18.73,13.77 5.98,3.8 10.86,6.63 15.29,8.62 4.42,1.99 8.39,3.15 13.58,2.83 2.31,-0.14 4.86,-0.59 7.55,-1.23 -2.81,0.42 -5.62,0.85 -8.12,0.68 -2.49,-0.16 -4.67,-0.9 -6.47,-2.68 -1.8,-1.77 -3.21,-4.57 -4.53,-8.08z"/>
   <path class="fil0" d="M29.18 235.97c1.82,-8.91 4.94,-22.91 8.06,-36.91 -0.7,-0.69 -1.5,-1.15 -2.42,-1.41 -2.15,-0.62 -4.93,-0.12 -6.93,1.19 -2.01,1.31 -3.23,3.42 -4.07,7.17 -0.85,3.73 -1.31,9.1 -1.11,13.88 0.2,4.78 1.06,8.99 2.14,12.09 1.09,3.09 2.4,5.09 3.71,7.08 0.19,-0.96 0.39,-1.98 0.62,-3.09z"/>
   <path class="fil2" d="M152.7 193.76c-1.05,20.65 -4.27,54.95 -7.48,89.26 4.16,0.66 7.85,0.97 11.05,1.05 1.68,0.03 3.22,0 4.68,-0.09 1.83,-0.55 2.31,-0.4 2.79,-0.25 2.47,-0.3 4.81,-0.77 7.36,-1.38 4.93,-1.19 10.61,-2.9 49.73,-19.7 39.13,-16.79 111.69,-48.67 149.49,-65.26 37.8,-16.58 40.84,-17.88 42.92,-19.95 2.07,-2.08 3.17,-4.93 3.27,-7.19 0.09,-2.27 -0.82,-3.94 -2.41,-5.55 -1.6,-1.62 -3.87,-3.17 -8.21,-5.17 -1,-0.45 -2.1,-0.94 -3.28,-1.44 -3.97,-1.7 -8.79,-3.68 -13.2,-5.98 -5.71,-2.97 -10.73,-6.49 -14.35,-10.6 -3.62,-4.12 -5.85,-8.85 -7.76,-15.1 -1.91,-6.25 -3.5,-14.03 -5.26,-19.14 -0.25,-0.72 -0.5,-1.39 -0.76,-2.01 -1.6,-3.8 -3.6,-5.97 -7.67,-8.58 -1.91,-1.22 -4.28,-2.54 -7.37,-3.99 -60.35,21.97 -120.71,43.94 -153.08,55.1 -32.39,11.16 -36.79,11.51 -41.64,11.31 -2.21,-0.1 -4.51,-0.3 -8.15,-0.96 2.45,0.77 4.65,1.96 6.28,4.08 2.99,3.88 4.1,10.88 3.05,31.54zm69.3 19.97c-0.22,-11.42 -0.33,-29.53 0.22,-39.97 0.55,-10.44 1.75,-13.21 3.35,-15.76 1.6,-2.54 3.59,-4.86 21.89,-11.74 18.3,-6.88 52.91,-18.33 71.39,-24.03 18.49,-5.71 20.85,-5.69 23.23,-5.03 2.37,0.65 4.75,1.94 5.83,4.61 1.09,2.68 0.88,6.74 0.6,17.04 -0.27,10.31 -0.61,26.86 -1.2,36.69 -0.59,9.84 -1.43,12.96 -2.48,15.18 -1.05,2.22 -2.33,3.55 -20.31,11.53 -17.98,7.98 -52.68,22.61 -71.92,30.12 -19.23,7.51 -23.01,7.91 -25.38,7.09 -2.37,-0.82 -3.33,-2.85 -3.98,-6.23 -0.66,-3.37 -1.01,-8.09 -1.24,-19.5z"/>
   <path class="fil3" d="M193.16 147.79c32.37,-11.16 92.73,-33.13 153.08,-55.1 -4.6,-2.15 -10.82,-4.59 -19.54,-7.42 -5.48,-1.79 -11.97,-3.73 -18.61,-5.64l-9.61 3.09c-5.03,1.62 -11.14,2.58 -16.96,2.36 -3.9,-0.15 -7.67,-0.82 -10.89,-2.18 -8.18,-3.44 -6.22,-6.42 2.29,-8.52l8.6 -2.12c-1.41,-0.39 -2.75,-0.75 -4.02,-1.09 -13.03,-3.5 -17.48,-4.65 -21.17,-5.13 -3.68,-0.47 -6.59,-0.27 -9.28,0.29 -2.69,0.56 -5.16,1.48 -31.48,8.67 -26.32,7.19 -76.49,20.66 -106.91,28.74 -30.41,8.07 -41.05,10.76 -50.22,13.65 -7.67,2.41 -14.3,4.97 -19.54,7.55 -0.44,0.61 -0.88,1.22 -1.11,1.69 -0.23,0.47 -0.26,0.8 -0.01,1.46 0.25,0.65 0.79,1.64 17.22,6.57 16.44,4.94 48.78,13.83 67.59,18.66 6.04,1.55 10.68,2.67 14.36,3.5 2.2,0.34 4.4,0.69 6.42,1.32 3.64,0.66 5.94,0.86 8.15,0.96 4.85,0.2 9.25,-0.15 41.64,-11.31z"/>
   <path class="fil4" d="M222.22 173.76c-0.55,10.44 -0.44,28.55 -0.22,39.97 0.23,11.41 0.58,16.13 1.24,19.5 0.65,3.38 1.61,5.41 3.98,6.23 2.37,0.82 6.15,0.42 25.38,-7.09 19.24,-7.51 53.94,-22.14 71.92,-30.12 17.98,-7.98 19.26,-9.31 20.31,-11.53 1.05,-2.22 1.89,-5.34 2.48,-15.18 0.59,-9.83 0.93,-26.38 1.2,-36.69 0.28,-10.3 0.49,-14.36 -0.6,-17.04 -1.08,-2.67 -3.46,-3.96 -5.83,-4.61 -2.38,-0.66 -4.74,-0.68 -23.23,5.03 -18.48,5.7 -53.09,17.15 -71.39,24.03 -18.3,6.88 -20.29,9.2 -21.89,11.74 -1.6,2.55 -2.8,5.32 -3.35,15.76z"/>
   <path class="fil5" d="M152.7 193.76c1.05,-20.66 -0.06,-27.66 -3.05,-31.54 -1.63,-2.12 -3.83,-3.31 -6.28,-4.08 -1.77,-0.32 -3.87,-0.75 -6.42,-1.32 -3.68,-0.83 -8.32,-1.95 -14.36,-3.5 -18.81,-4.83 -51.15,-13.72 -67.59,-18.66 -16.43,-4.93 -16.97,-5.92 -17.22,-6.57 -0.25,-0.66 -0.22,-0.99 0.01,-1.46 0.23,-0.47 0.67,-1.08 1.11,-1.69 -1.02,0.5 -1.98,1 -2.89,1.5 -5.6,3.08 -9.1,6.16 -11.77,9.48 -2.66,3.33 -4.48,6.9 -7.65,17.41 -3.18,10.51 -7.7,27.96 -10.18,38.42 -2.48,10.46 -2.91,13.93 -2.98,17.51 -0.06,3.57 0.23,7.24 0.7,10.23 0.46,3 1.09,5.31 1.96,7.33 0.87,2.01 1.98,3.72 4.48,5.36 2.31,1.52 4.67,2.53 17.8,7.87 0.06,-0.32 0.12,-0.65 0.19,-0.99 -1.31,-1.99 -2.62,-3.99 -3.71,-7.08 -1.08,-3.1 -1.94,-7.31 -2.14,-12.09 -0.2,-4.78 0.26,-10.15 1.11,-13.88 0.84,-3.75 2.06,-5.86 4.07,-7.17 2,-1.31 4.78,-1.81 6.93,-1.19 0.92,0.26 1.72,0.72 2.42,1.41 0.94,0.92 1.68,2.24 2.25,4.02 0.99,3.09 1.45,7.56 1.8,12.44 0.03,0.43 0.06,0.85 0.09,1.29 0.31,4.52 0.6,9.33 1.73,13.95 1.24,5.07 3.49,9.9 5.37,13.1 1.88,3.2 3.37,4.77 4.87,6.33 3.03,1.23 6.15,2.49 9.3,3.76 11.59,4.68 23.65,9.51 33.41,13.34 4.96,1.95 9.33,3.63 13.24,5.1 11.17,4.21 18.52,6.65 25.06,8.34 3.91,1.02 7.54,1.76 10.86,2.29 3.21,-34.31 6.43,-68.61 7.48,-89.26z"/>
   <path class="fil0" d="M134.36 280.73c-6.54,-1.69 -13.89,-4.13 -25.06,-8.34 1.22,4.23 2.45,8.46 3.77,11.97 1.32,3.51 2.73,6.31 4.53,8.08 1.8,1.78 3.98,2.52 6.47,2.68 2.5,0.17 5.31,-0.26 8.12,-0.68 3.35,-0.81 6.91,-1.95 10.46,-3.24 6.41,-2.34 12.82,-5.2 16.34,-6.53 0.79,-0.3 1.43,-0.52 1.96,-0.69 -1.46,0.09 -3,0.12 -4.68,0.09 -3.2,-0.08 -6.89,-0.39 -11.05,-1.05 -3.32,-0.53 -6.95,-1.27 -10.86,-2.29z"/>
   <path class="fil6" d="M281.52 74.38l0 10.7c5.82,0.22 11.93,-0.74 16.96,-2.36l9.61 -3.09c6.64,1.91 13.13,3.85 18.61,5.64 8.72,2.83 14.94,5.27 19.54,7.42 3.09,1.45 5.46,2.77 7.37,3.99 4.07,2.61 6.07,4.78 7.67,8.58 23.21,-8.03 46.42,-16.05 61.42,-22.38 15,-6.33 21.78,-10.96 28.8,-14.5 7.03,-3.53 14.3,-5.97 37.98,-13.32 23.68,-7.36 63.77,-19.63 84.82,-26.2 21.05,-6.58 23.05,-7.45 24.74,-8.14 1.68,-0.7 3.04,-1.23 3.31,-2 0.27,-0.76 -0.56,-1.76 -1.49,-2.35 -0.86,-0.55 -1.81,-0.74 -2.77,-0.91 -13.51,-4.07 -26.79,-8.06 -34.26,-10.09 -7.76,-2.12 -9.22,-2.12 -10.99,-1.76 -1.77,0.36 -3.84,1.09 -15.9,5.12 -12.05,4.03 -34.09,11.37 -52.59,17.24 -18.49,5.87 -33.45,10.28 -44.67,13.16 -11.22,2.89 -18.71,4.27 -27.22,5.53 -8.52,1.26 -18.07,2.41 -26.23,3.53 -8.15,1.13 -14.91,2.24 -20.91,3.36 -6,1.13 -11.23,2.28 -25.16,6.11 -13.82,3.8 -36.2,10.25 -58.64,16.72z"/>
   <path class="fil1" d="M422.7 82.88c-15,6.33 -38.21,14.35 -61.42,22.38 0.26,0.62 0.51,1.29 0.76,2.01 1.76,5.11 3.35,12.89 5.26,19.14 1.91,6.25 4.14,10.98 7.76,15.1 3.62,4.11 8.64,7.63 14.35,10.6 4.41,2.3 9.23,4.28 13.2,5.98 11.17,-5.01 22.34,-10.01 30.15,-14.48 7.8,-4.46 12.24,-8.39 16.28,-11.97 4.04,-3.58 7.69,-6.81 12.56,-10.06 4.87,-3.25 10.97,-6.52 29.14,-13.97 18.18,-7.45 48.42,-19.08 66.09,-25.69 17.68,-6.62 22.79,-8.23 26.85,-9.5 4.06,-1.28 7.08,-2.23 10.05,-3.83 2.97,-1.61 5.9,-3.88 7.38,-8.59 1.48,-4.72 1.52,-11.89 1.49,-19.18 -0.04,-7.29 -0.14,-14.69 -0.25,-22.1 -0.27,0.77 -1.63,1.3 -3.31,2 -1.69,0.69 -3.69,1.56 -24.74,8.14 -21.05,6.57 -61.14,18.84 -84.82,26.2 -23.68,7.35 -30.95,9.79 -37.98,13.32 -7.02,3.54 -13.8,8.17 -28.8,14.5z"/>
   <path class="fil7" d="M52.06 253.37c-1.75,-0.71 -2.6,-2.71 -1.89,-4.47 0.71,-1.75 2.72,-2.6 4.47,-1.89l22 8.88c7.22,2.89 14.33,5.72 20.67,8.21 9.6,3.76 16.95,6.55 22.9,8.64 5.99,2.11 10.7,3.57 15,4.68 3.97,1.03 7.7,1.78 11.13,2.3 3.82,0.58 7.15,0.86 9.99,0.92 2.66,0.06 4.98,-0.06 7.25,-0.35 2.29,-0.29 4.44,-0.72 6.72,-1.27 2.34,-0.57 4.89,-1.27 11.61,-3.86 6.81,-2.63 17.97,-7.24 37.58,-15.66 35.95,-15.43 99.25,-43.21 138.7,-60.53l14.47 -6.35c33.72,-14.79 36.59,-16.05 38.15,-17.61 0.68,-0.68 1.22,-1.5 1.6,-2.34l0.1 -0.21c0.35,-0.83 0.55,-1.65 0.58,-2.35 0.02,-0.56 -0.08,-1.03 -0.27,-1.45 -0.24,-0.51 -0.63,-1.03 -1.15,-1.55 -0.63,-0.64 -1.41,-1.27 -2.5,-1.97 -1.17,-0.75 -2.69,-1.56 -4.72,-2.49l-0.17 -0.09c-1.27,-0.57 -2.99,-1.31 -4.83,-2.09 -3.66,-1.56 -7.82,-3.33 -11.62,-5.31 -3.08,-1.6 -6.01,-3.39 -8.68,-5.37 -2.52,-1.85 -4.77,-3.86 -6.66,-6.02 -2,-2.27 -3.63,-4.72 -5.01,-7.47 -1.34,-2.64 -2.44,-5.57 -3.46,-8.9 -0.97,-3.17 -1.75,-6.25 -2.51,-9.23 -0.92,-3.63 -1.81,-7.15 -2.72,-9.79 -0.75,-2.19 -1.51,-3.77 -2.53,-5.05 -1.05,-1.32 -2.46,-2.47 -4.49,-3.77 -2.22,-1.42 -5.15,-3 -9.3,-4.81 -4.18,-1.83 -9.62,-3.88 -16.83,-6.22 -2.68,-0.88 -5.65,-1.8 -8.79,-2.75 -3.94,-1.18 -7.09,-2.12 -9.7,-2.87 -1.81,-0.51 -2.87,-2.41 -2.35,-4.22 0.52,-1.82 2.41,-2.87 4.23,-2.35 4.03,1.16 7.45,2.16 9.8,2.87 3.12,0.94 6.14,1.89 8.94,2.79 7.37,2.4 13.01,4.54 17.44,6.47 4.47,1.95 7.71,3.71 10.23,5.32 2.71,1.74 4.65,3.33 6.19,5.27 1.56,1.97 2.65,4.18 3.66,7.1 1,2.93 1.93,6.57 2.88,10.32 0.8,3.17 1.63,6.43 2.4,8.94 0.89,2.92 1.86,5.49 3.03,7.79 1.11,2.21 2.42,4.19 4.04,6.03 1.59,1.81 3.48,3.5 5.59,5.05 2.3,1.71 4.93,3.3 7.76,4.78 3.71,1.92 7.67,3.61 11.15,5.09 1.73,0.74 3.35,1.43 4.99,2.18l0.19 0.08c2.31,1.06 4.11,2.03 5.55,2.96 1.54,0.98 2.7,1.93 3.67,2.91 1.07,1.08 1.92,2.22 2.51,3.5 0.63,1.39 0.95,2.89 0.88,4.6 -0.07,1.52 -0.45,3.21 -1.16,4.83l-0.11 0.29c-0.7,1.54 -1.71,3.06 -3,4.35 -2.44,2.45 -5.4,3.75 -40.26,19.04l-14.47 6.35c-39.68,17.42 -103.35,45.36 -138.75,60.56 -19.51,8.37 -30.77,13.02 -37.8,15.73 -7.13,2.76 -9.9,3.51 -12.47,4.13 -2.65,0.64 -5.05,1.13 -7.5,1.44 -2.48,0.31 -5.11,0.44 -8.21,0.38 -3.23,-0.08 -6.88,-0.38 -10.88,-0.98 -3.54,-0.54 -7.48,-1.34 -11.82,-2.46 -4.51,-1.17 -9.38,-2.68 -15.54,-4.84 -6.18,-2.17 -13.59,-4.98 -23.15,-8.73 -6.06,-2.38 -13.23,-5.23 -20.72,-8.23l-22.03 -8.88zm230.34 -184.43c1.83,0.49 2.92,2.37 2.43,4.2 -0.49,1.83 -2.37,2.92 -4.2,2.43l-4.01 -1.08c-6.66,-1.79 -11.09,-2.97 -14.01,-3.69 -3.09,-0.76 -5.02,-1.14 -6.71,-1.36 -1.64,-0.21 -3.1,-0.27 -4.45,-0.22 -1.3,0.05 -2.52,0.22 -3.7,0.47 -1.15,0.23 -2.36,0.58 -6.05,1.62 -3.87,1.09 -10.62,3 -25.23,6.99 -14.32,3.91 -32.12,8.72 -49.35,13.36 -19.68,5.29 -40.97,10.98 -57.58,15.39l-17.24 4.56c-17.65,4.67 -25.7,6.8 -32.84,9.05 -4.53,1.43 -8.67,2.9 -12.35,4.38 -3.59,1.45 -6.77,2.93 -9.45,4.41 -2.63,1.44 -4.73,2.86 -6.46,4.28 -1.71,1.41 -3.09,2.85 -4.29,4.34 -1.15,1.44 -2.13,2.95 -3.18,5.27 -1.1,2.46 -2.3,5.85 -3.85,10.99l-0.05 0.15c-1.48,4.9 -3.22,11.17 -4.89,17.48 -1.93,7.29 -3.84,14.88 -5.19,20.58 -1.24,5.21 -1.95,8.62 -2.35,11.09 -0.4,2.45 -0.52,4.07 -0.55,5.68 -0.02,1.55 0.03,3.2 0.14,4.83 0.12,1.78 0.3,3.42 0.52,4.83 0.2,1.32 0.46,2.53 0.76,3.67 0.28,1.02 0.6,1.96 0.97,2.82l0.1 0.24c0.29,0.64 0.63,1.25 1.07,1.82l0.13 0.17c0.46,0.55 1.08,1.09 1.9,1.63 0.96,0.63 2,1.19 4.35,2.22l0.16 0.08c2.33,1.01 6.21,2.6 12.71,5.25 1.75,0.71 2.6,2.71 1.89,4.46 -0.71,1.76 -2.71,2.61 -4.47,1.9 -6.33,-2.58 -10.15,-4.15 -12.88,-5.34l-0.17 -0.07c-2.69,-1.18 -3.99,-1.89 -5.34,-2.78 -1.46,-0.96 -2.58,-1.97 -3.46,-3.04l-0.21 -0.24c-0.82,-1.04 -1.42,-2.13 -1.94,-3.29l-0.15 -0.3c-0.49,-1.14 -0.92,-2.38 -1.29,-3.76 -0.34,-1.27 -0.64,-2.71 -0.89,-4.39 -0.27,-1.71 -0.48,-3.57 -0.61,-5.42 -0.11,-1.71 -0.16,-3.54 -0.13,-5.4 0.04,-1.95 0.17,-3.87 0.63,-6.66 0.44,-2.77 1.19,-6.34 2.43,-11.58 1.3,-5.49 3.22,-13.11 5.24,-20.75 1.73,-6.51 3.49,-12.89 4.95,-17.71l0.04 -0.16c1.62,-5.37 2.92,-9.03 4.18,-11.82 1.32,-2.92 2.59,-4.86 4.09,-6.74 1.47,-1.83 3.17,-3.6 5.28,-5.33 2.08,-1.71 4.54,-3.38 7.5,-5.01 2.89,-1.59 6.32,-3.19 10.22,-4.76 3.87,-1.57 8.19,-3.1 12.85,-4.57 7.2,-2.26 15.31,-4.41 33.14,-9.12l17.23 -4.57c15.13,-4.02 36.36,-9.69 57.56,-15.39 20.2,-5.43 38.47,-10.37 49.32,-13.33 13,-3.55 20.74,-5.74 25.18,-6.99 3.84,-1.09 5.11,-1.44 6.51,-1.73 1.51,-0.32 3.09,-0.53 4.83,-0.6 1.69,-0.07 3.53,0.01 5.57,0.27 1.99,0.25 4.14,0.68 7.46,1.49 3.48,0.86 7.81,2.01 14.17,3.72l4.01 1.08z"/>
   <path class="fil7" d="M31.42 237.18c1.03,1.58 0.59,3.7 -0.98,4.74 -1.58,1.04 -3.7,0.6 -4.74,-0.98 -0.7,-1.07 -1.4,-2.14 -2.07,-3.34 -0.71,-1.28 -1.39,-2.72 -2.01,-4.5 -0.64,-1.81 -1.2,-3.93 -1.61,-6.24 -0.36,-2.05 -0.62,-4.35 -0.72,-6.83 -0.11,-2.54 -0.04,-5.17 0.15,-7.63 0.2,-2.57 0.56,-5.06 1.03,-7.15 0.51,-2.22 1.14,-4 1.97,-5.44l0.12 -0.2c0.92,-1.55 2.05,-2.72 3.45,-3.64 1.4,-0.91 3.06,-1.54 4.73,-1.83 1.69,-0.29 3.44,-0.24 5.01,0.21 1.73,0.49 3.2,1.42 4.43,2.84 1.08,1.25 1.93,2.85 2.57,4.84 0.56,1.74 0.97,3.84 1.27,6.14 0.31,2.25 0.52,4.65 0.69,7.11l0.13 1.85c0.28,4.23 0.59,8.7 1.6,12.83 0.52,2.11 1.23,4.19 2.02,6.11 0.96,2.35 2.02,4.44 2.97,6.06 0.83,1.42 1.59,2.48 2.3,3.36 0.69,0.86 1.4,1.6 2.11,2.34 1.3,1.37 1.24,3.54 -0.13,4.84 -1.36,1.3 -3.54,1.25 -4.84,-0.12 -0.79,-0.82 -1.58,-1.65 -2.48,-2.77 -0.88,-1.09 -1.82,-2.41 -2.86,-4.19 -1.1,-1.88 -2.32,-4.28 -3.4,-6.92 -0.91,-2.21 -1.74,-4.63 -2.35,-7.1 -1.16,-4.74 -1.48,-9.5 -1.78,-13.98l-0.13 -1.83c-0.17,-2.42 -0.37,-4.7 -0.63,-6.67 -0.26,-1.93 -0.58,-3.63 -1.01,-4.97 -0.36,-1.1 -0.76,-1.91 -1.23,-2.45 -0.31,-0.36 -0.69,-0.6 -1.12,-0.72 -0.57,-0.17 -1.27,-0.17 -1.99,-0.05 -0.76,0.13 -1.51,0.41 -2.12,0.81 -0.51,0.33 -0.94,0.77 -1.3,1.36l-0.07 0.14c-0.5,0.87 -0.9,2.03 -1.24,3.55 -0.39,1.7 -0.69,3.85 -0.88,6.18 -0.18,2.28 -0.24,4.64 -0.15,6.82 0.08,2.07 0.32,4.07 0.64,5.92 0.36,1.99 0.81,3.74 1.31,5.17 0.47,1.32 0.99,2.43 1.54,3.43 0.59,1.06 1.19,1.98 1.8,2.9z"/>
   <path class="fil7" d="M307.04 76.36c1.8,-0.57 3.74,0.42 4.31,2.22 0.58,1.8 -0.41,3.73 -2.21,4.31l-9.61 3.09c-4.76,1.53 -10.46,2.51 -16.03,2.55 -0.81,-0.01 -1.63,0.01 -2.43,-0.05 -4.18,-0.19 -8.24,-0.94 -11.77,-2.42 -2.82,-1.19 -4.75,-2.44 -5.85,-3.72 -1.2,-1.39 -1.64,-2.88 -1.39,-4.43 0.23,-1.43 1.03,-2.66 2.34,-3.69 1.61,-1.25 4.23,-2.32 7.7,-3.17l8.6 -2.12c1.84,-0.46 3.69,0.67 4.15,2.51 0.06,0.27 0.1,0.54 0.1,0.82l0 9.39c4.37,-0.18 8.75,-0.99 12.48,-2.19l9.61 -3.1zm-35.08 3.39c1.85,0.78 3.92,1.3 6.12,1.6l0 -4.72 -4.34 1.08c-1.53,0.37 -2.77,0.76 -3.7,1.14 0.51,0.28 1.15,0.58 1.92,0.9z"/>
   <path class="fil7" d="M37.5 123.95c0.55,-0.77 1.62,-0.96 2.39,-0.41 0.77,0.55 0.95,1.62 0.41,2.39l-0.04 0.06c-0.38,0.52 -0.76,1.04 -0.93,1.37l0.05 0.12c0.01,0.01 0.05,0.05 1.62,0.71 2.16,0.92 6.34,2.38 14.49,4.83 8.12,2.44 19.94,5.8 32.05,9.14 12.77,3.52 25.91,7.05 35.47,9.5 9.33,2.39 15.33,3.78 19.61,4.6 4.19,0.8 6.64,1.03 8.97,1.13 2.28,0.09 4.46,0.05 10.01,-1.35 5.69,-1.44 14.85,-4.31 31,-9.87 32.47,-11.19 92.77,-33.14 153.05,-55.09 0.89,-0.32 1.88,0.14 2.2,1.03 0.32,0.88 -0.14,1.87 -1.03,2.19 -60.41,21.99 -120.83,43.99 -153.11,55.12 -16.23,5.59 -25.48,8.48 -31.28,9.95 -5.97,1.51 -8.41,1.54 -10.97,1.44 -2.51,-0.11 -5.13,-0.35 -9.49,-1.19 -4.26,-0.81 -10.31,-2.21 -19.8,-4.65 -9.66,-2.47 -22.82,-6 -35.54,-9.51 -12.29,-3.39 -24.16,-6.76 -32.11,-9.15 -8.29,-2.49 -12.59,-4 -14.87,-4.97 -2.87,-1.22 -3.23,-2.01 -3.47,-2.64 -0.2,-0.53 -0.3,-0.98 -0.29,-1.44 0.01,-0.47 0.12,-0.86 0.31,-1.27l0.05 -0.12c0.29,-0.58 0.75,-1.22 1.21,-1.87l0.04 -0.05zm1.81 3.37c0,-0.02 0,-0.04 0,0z"/>
   <path class="fil7" d="M136.62 158.5c-0.94,-0.18 -1.54,-1.09 -1.36,-2.02 0.19,-0.92 1.09,-1.53 2.02,-1.35l0.09 0.02c5.14,0.81 10.27,1.65 13.63,6.02 1.69,2.19 2.83,5.17 3.39,10.35 0.53,4.9 0.55,11.9 0.02,22.32 -0.53,10.44 -1.6,24.19 -2.93,39.58 -1.27,14.69 -2.91,32.21 -4.56,49.75 -0.08,0.94 -0.91,1.63 -1.85,1.55 -0.94,-0.08 -1.64,-0.92 -1.55,-1.86 1.57,-16.76 3.14,-33.55 4.54,-49.74 1.34,-15.5 2.41,-29.24 2.93,-39.45 0.52,-10.23 0.51,-17.06 0,-21.79 -0.49,-4.46 -1.39,-6.92 -2.7,-8.61 -2.54,-3.31 -6.98,-4.04 -11.45,-4.74l-0.22 -0.03z"/>
   <path class="fil7" d="M59.96 256.06c-1.15,-1.47 -0.91,-3.61 0.56,-4.78 1.47,-1.18 3.62,-0.94 4.8,0.54l0.05 0.06c4.25,5.51 8.49,11.02 13.98,16.03 2.77,2.54 5.86,4.95 8.96,7.18 3.04,2.19 6.28,4.32 9.3,6.24 3,1.9 5.68,3.54 8.08,4.9 2.41,1.36 4.65,2.53 6.78,3.48l0.17 0.09c1.95,0.87 3.8,1.56 5.67,1.98 1.88,0.43 3.87,0.61 6.13,0.47 2.38,-0.15 5.07,-0.65 7.9,-1.38 2.89,-0.74 6,-1.75 9.14,-2.89 3.84,-1.4 7.78,-3.04 11.04,-4.39 2.03,-0.84 3.8,-1.58 5.26,-2.13 2.01,-0.76 3.3,-1.1 4.2,-1.23 1.44,-0.2 2.13,0.02 2.81,0.24 1.8,0.57 2.79,2.5 2.21,4.31 -0.56,1.75 -2.4,2.73 -4.16,2.25 -0.45,0.08 -1.23,0.31 -2.64,0.84 -1.24,0.47 -3.02,1.21 -5.05,2.05 -3.29,1.37 -7.26,3.02 -11.33,4.5 -3.26,1.19 -6.57,2.25 -9.79,3.08 -3.26,0.84 -6.38,1.42 -9.19,1.59 -2.92,0.18 -5.52,-0.06 -8.03,-0.63 -2.38,-0.54 -4.64,-1.38 -6.98,-2.42l-0.18 -0.08c-2.3,-1.03 -4.72,-2.28 -7.35,-3.77 -2.64,-1.5 -5.39,-3.18 -8.36,-5.07 -2.95,-1.87 -6.24,-4.03 -9.63,-6.48 -3.35,-2.4 -6.65,-4.99 -9.58,-7.66 -5.9,-5.38 -10.34,-11.15 -14.77,-16.92z"/>
   <path class="fil7" d="M107.65 272.87c-0.26,-0.91 0.26,-1.86 1.17,-2.12 0.91,-0.26 1.86,0.26 2.12,1.17 1.22,4.19 2.43,8.4 3.73,11.84 0.63,1.69 1.29,3.2 1.99,4.48 0.66,1.21 1.36,2.22 2.14,2.98 0.73,0.72 1.53,1.23 2.4,1.58 0.92,0.35 1.92,0.54 2.98,0.61 1.15,0.08 2.39,0.02 3.66,-0.11l0.04 -0.01c1.22,-0.12 2.64,-0.34 4.05,-0.55 0.94,-0.14 1.82,0.5 1.96,1.44 0.14,0.94 -0.51,1.81 -1.45,1.95 -1.35,0.21 -2.72,0.42 -4.21,0.57l-0.04 0c-1.45,0.15 -2.88,0.22 -4.22,0.13 -1.43,-0.09 -2.78,-0.35 -4.03,-0.85 -1.29,-0.51 -2.48,-1.26 -3.54,-2.31 -1.03,-1.01 -1.93,-2.29 -2.75,-3.8 -0.79,-1.44 -1.5,-3.09 -2.19,-4.91 -1.34,-3.58 -2.58,-7.84 -3.81,-12.09z"/>
   <path class="fil7" d="M33.9 198.32c0.41,-1.84 2.23,-3.01 4.08,-2.6 1.84,0.41 3.01,2.23 2.6,4.08l-4.5 20.34c-1.47,6.69 -2.73,12.5 -3.55,16.51 -0.89,4.37 -1.46,7.49 -1.78,9.88 -0.29,2.22 -0.36,3.8 -0.26,5.23 0.09,1.36 0.33,2.58 0.71,3.68 0.37,1.08 0.92,2.13 1.64,3.16 0.76,1.1 1.69,2.13 2.78,3.02 0.97,0.79 2.1,1.47 3.37,1.99 1.4,0.57 3.01,0.94 4.69,1.18 1.84,0.26 3.76,0.37 5.64,0.39 1.91,0.02 3.87,-0.05 5.85,-0.21 1.84,-0.16 3.59,-0.41 5.16,-0.73 3.41,-0.71 6.51,-1.87 9.6,-3.02 1.77,-0.66 3.74,0.24 4.4,2.01 0.66,1.77 -0.24,3.75 -2.01,4.4 -3.36,1.26 -6.74,2.52 -10.59,3.32 -1.98,0.4 -3.97,0.68 -5.96,0.86 -2.06,0.17 -4.26,0.23 -6.52,0.21 -2.21,-0.02 -4.42,-0.15 -6.51,-0.44 -2.23,-0.31 -4.38,-0.82 -6.33,-1.61 -1.9,-0.78 -3.61,-1.82 -5.11,-3.04 -1.64,-1.33 -3.01,-2.84 -4.09,-4.41 -1.05,-1.5 -1.87,-3.11 -2.47,-4.85 -0.6,-1.72 -0.96,-3.53 -1.09,-5.45 -0.13,-1.85 -0.05,-3.83 0.31,-6.57 0.34,-2.57 0.94,-5.83 1.86,-10.37 1,-4.89 2.22,-10.55 3.55,-16.58l4.53 -20.38z"/>
   <path class="fil7" d="M59.4 266.19c0.94,0.02 1.69,0.8 1.68,1.74 -0.02,0.95 -0.81,1.7 -1.75,1.68l-0.09 0c-2.26,-0.08 -4.51,-0.16 -6.52,-0.38 -1.06,-0.12 -2.08,-0.27 -3.03,-0.46 -0.94,-0.19 -1.87,-0.42 -2.81,-0.69 -0.93,-0.27 -1.84,-0.57 -2.71,-0.96 -0.91,-0.4 -1.82,-0.9 -2.78,-1.57 -0.98,-0.69 -1.99,-1.54 -2.93,-2.55 -0.84,-0.91 -1.64,-1.95 -2.33,-3.1 -0.75,-1.26 -1.37,-2.64 -1.84,-4.1l-0.02 -0.09c-0.43,-1.4 -0.74,-2.91 -0.89,-4.5 -0.16,-1.62 -0.16,-3.32 0.04,-5.37 0.19,-2.05 0.56,-4.39 1.14,-7.29 1.13,-5.66 3.14,-13.88 5.14,-22.1l0.02 -0.07c0.24,-0.92 1.17,-1.47 2.09,-1.23 0.91,0.24 1.46,1.17 1.23,2.09l-0.02 0.04c-1.96,8.06 -3.93,16.11 -5.09,21.94 -0.57,2.86 -0.93,5.09 -1.11,6.92 -0.17,1.83 -0.17,3.33 -0.04,4.75 0.13,1.32 0.39,2.6 0.76,3.79l0.03 0.08c0.39,1.24 0.9,2.38 1.49,3.38 0.56,0.93 1.22,1.78 1.91,2.52 0.77,0.84 1.59,1.54 2.38,2.09 0.73,0.5 1.46,0.9 2.2,1.23 0.77,0.34 1.52,0.6 2.29,0.82 0.77,0.22 1.6,0.42 2.51,0.6 0.88,0.18 1.8,0.32 2.75,0.42 1.97,0.22 4.1,0.3 6.23,0.37l0.07 0z"/>
   <path class="fil7" d="M223.93 173.85c-0.24,4.57 -0.36,10.59 -0.39,16.83 -0.04,8.08 0.05,16.6 0.17,23.01 0.12,5.64 0.26,9.65 0.46,12.69 0.19,2.94 0.44,4.91 0.75,6.53 0.29,1.5 0.64,2.68 1.14,3.51 0.4,0.68 0.95,1.16 1.72,1.42 0.9,0.31 2.16,0.37 5.39,-0.46 3.55,-0.91 9.24,-2.87 18.81,-6.61 9.17,-3.57 21.81,-8.76 34.47,-14.06 14.1,-5.9 28.11,-11.9 37.38,-16.02 8.91,-3.95 13.67,-6.25 16.32,-7.83l0.09 -0.05c2.2,-1.32 2.65,-2 3.04,-2.82 0.47,-0.99 0.9,-2.21 1.28,-4.3 0.4,-2.21 0.75,-5.39 1.04,-10.25 0.48,-8.07 0.8,-20.53 1.04,-30.41l0.23 -8.58c0.23,-8.33 0.32,-11.86 -0.55,-14 -0.4,-1 -1.06,-1.75 -1.84,-2.31 -0.85,-0.61 -1.86,-1.02 -2.85,-1.29 -0.96,-0.27 -1.95,-0.4 -4.79,0.16 -3.16,0.61 -8.32,2.02 -17.48,4.85 -10.01,3.09 -24.71,7.86 -38.97,12.66 -12.1,4.07 -23.92,8.18 -32.32,11.34 -9.06,3.41 -14.05,5.67 -16.95,7.37 -2.65,1.56 -3.42,2.61 -4.11,3.69 -0.71,1.13 -1.34,2.33 -1.85,4.4 -0.54,2.22 -0.96,5.43 -1.23,10.53zm-3.81 16.82c0.04,-6.35 0.15,-12.44 0.39,-17 0.28,-5.34 0.74,-8.75 1.33,-11.16 0.63,-2.55 1.4,-4.02 2.28,-5.42 0.92,-1.46 1.94,-2.85 5.27,-4.8 3.07,-1.81 8.23,-4.16 17.47,-7.63 8.4,-3.16 20.27,-7.29 32.44,-11.39 14.34,-4.83 29.07,-9.6 39.05,-12.68 9.32,-2.88 14.59,-4.32 17.83,-4.95 3.55,-0.69 4.94,-0.48 6.35,-0.09 1.37,0.38 2.75,0.95 3.95,1.8 1.27,0.93 2.35,2.16 3.03,3.82 1.12,2.78 1.02,6.52 0.78,15.37l-0.23 8.57c-0.25,9.98 -0.56,22.55 -1.04,30.54 -0.3,4.97 -0.67,8.28 -1.09,10.64 -0.45,2.47 -0.97,3.94 -1.55,5.16 -0.65,1.38 -1.35,2.47 -4.39,4.29l-0.09 0.06c-2.74,1.63 -7.61,3.99 -16.69,8.01 -9.57,4.25 -23.6,10.27 -37.45,16.07 -12.72,5.32 -25.39,10.52 -34.53,14.09 -9.66,3.77 -15.49,5.77 -19.22,6.73 -4.05,1.04 -5.88,0.88 -7.34,0.38 -1.6,-0.56 -2.72,-1.52 -3.55,-2.9 -0.73,-1.23 -1.2,-2.76 -1.57,-4.62 -0.34,-1.75 -0.6,-3.85 -0.8,-6.96 -0.2,-3 -0.34,-7.06 -0.46,-12.84 -0.12,-6.42 -0.21,-14.97 -0.17,-23.09z"/>
   <path class="fil7" d="M281.94 77.82c-1.82,0.52 -3.71,-0.53 -4.23,-2.35 -0.52,-1.81 0.53,-3.71 2.35,-4.22l32.84 -9.46c9.6,-2.75 18.61,-5.3 26.36,-7.43 7.25,-1.99 12.06,-3.25 15.66,-4.11 3.74,-0.89 6.63,-1.48 9.77,-2.06 2.97,-0.56 6.2,-1.13 9.74,-1.7 3.59,-0.58 7.35,-1.14 11.33,-1.69l10.26 -1.36c5.12,-0.67 10.4,-1.36 15.94,-2.18 4.21,-0.62 8.16,-1.27 12.43,-2.12 4.42,-0.88 9.06,-1.93 14.45,-3.32 5.46,-1.4 11.98,-3.22 19.53,-5.45 7.58,-2.23 15.92,-4.79 24.95,-7.66 8.42,-2.67 18.73,-6.04 28.67,-9.31 10.94,-3.61 18.71,-6.2 23.87,-7.92l3.65 -1.22c9.02,-3.02 10.87,-3.64 12.64,-4 1.24,-0.25 2.36,-0.38 4.41,-0.09 1.66,0.23 4.1,0.79 8.17,1.9 8.15,2.22 21.9,6.36 35.69,10.51l0.28 0.09c1.81,0.55 2.83,2.46 2.29,4.27 -0.55,1.81 -2.47,2.83 -4.27,2.28l-0.26 -0.07c-14.14,-4.25 -28.25,-8.5 -35.53,-10.48 -3.68,-1.01 -5.86,-1.51 -7.31,-1.71 -1.06,-0.15 -1.57,-0.1 -2.1,0.01 -1.36,0.27 -3.14,0.87 -11.83,3.78l-3.66 1.22c-6.9,2.31 -16.18,5.41 -23.89,7.95 -8.71,2.87 -18.68,6.12 -28.75,9.31 -9.43,2.99 -17.8,5.57 -25.09,7.72 -7.39,2.17 -14,4.01 -19.77,5.5 -5.83,1.5 -10.55,2.58 -14.8,3.42 -4.42,0.88 -8.48,1.55 -12.78,2.18 -4.72,0.7 -10.47,1.45 -16.05,2.18l-10.2 1.36c-4.17,0.57 -7.88,1.13 -11.2,1.67 -3.37,0.54 -6.53,1.09 -9.55,1.66 -2.86,0.54 -5.59,1.09 -9.45,2.01 -3.99,0.96 -8.77,2.2 -15.44,4.03 -6.17,1.7 -15.44,4.33 -26.28,7.43l-32.84 9.43z"/>
   <path class="fil7" d="M361.83 106.87c-0.89,0.31 -1.86,-0.16 -2.17,-1.06 -0.3,-0.89 0.17,-1.86 1.06,-2.17 23.18,-8.01 46.36,-16.03 61.32,-22.34 10.39,-4.38 16.82,-7.96 22.14,-10.91 2.33,-1.3 4.46,-2.48 6.55,-3.53 3.58,-1.81 7.22,-3.33 12.95,-5.32 5.68,-1.98 13.44,-4.44 25.29,-8.12l39.43 -12.17c16.73,-5.15 33.54,-10.33 45.39,-14.03 20.63,-6.44 22.87,-7.37 24.5,-8.05l2.2 -0.91c-0.15,-0.16 -0.34,-0.32 -0.55,-0.44l-0.09 -0.07c-0.27,-0.16 -0.58,-0.27 -0.91,-0.36l-0.06 -0.02c-0.38,-0.1 -0.84,-0.18 -1.29,-0.26 -0.94,-0.16 -1.56,-1.04 -1.41,-1.98 0.16,-0.93 1.05,-1.56 1.98,-1.4 0.52,0.09 1.05,0.18 1.63,0.34l0.08 0.02c0.6,0.17 1.19,0.4 1.78,0.75l0.13 0.08c0.69,0.43 1.35,1.06 1.78,1.73 0.51,0.83 0.72,1.73 0.41,2.64 -0.51,1.45 -2.07,2.09 -4.03,2.91l-0.35 0.14c-1.7,0.71 -4.08,1.69 -24.78,8.15 -10.98,3.43 -28.21,8.74 -45.41,14.03l-39.42 12.17c-11.82,3.68 -19.55,6.12 -25.17,8.08 -5.57,1.94 -9.09,3.41 -12.54,5.14 -2.12,1.07 -4.17,2.22 -6.43,3.47 -5.38,2.99 -11.9,6.61 -22.48,11.08 -15.04,6.34 -38.28,14.38 -61.53,22.41z"/>
   <path class="fil7" d="M404 161.22c-1.72,0.76 -3.75,-0.01 -4.52,-1.74 -0.77,-1.72 0.01,-3.75 1.73,-4.52 5.48,-2.45 10.96,-4.91 16.27,-7.41 5.06,-2.38 9.72,-4.71 13.57,-6.92 7.43,-4.25 11.7,-8 15.56,-11.41l0.37 -0.32c4.08,-3.62 7.8,-6.9 12.72,-10.17l0.25 -0.15c2.48,-1.65 5.31,-3.31 9.73,-5.48 4.49,-2.2 10.63,-4.91 19.76,-8.65 8.22,-3.37 18.92,-7.6 29.8,-11.83 13.15,-5.11 26.65,-10.26 36.4,-13.91 8.92,-3.34 14.63,-5.4 18.59,-6.78 4.19,-1.45 6.44,-2.16 8.43,-2.78l0.03 -0.01c3.87,-1.22 6.75,-2.13 9.42,-3.57 1.21,-0.66 2.4,-1.43 3.39,-2.47 0.95,-1 1.77,-2.32 2.34,-4.12 0.65,-2.07 0.99,-4.77 1.16,-7.8 0.19,-3.27 0.19,-6.8 0.18,-10.34 -0.03,-7.25 -0.14,-14.66 -0.25,-22.07l0 -0.04c-0.02,-1.9 1.52,-3.44 3.42,-3.44 1.9,0 3.44,1.54 3.44,3.43 0.09,7.39 0.2,14.78 0.23,22.09 0.02,3.74 0.02,7.44 -0.17,10.75 -0.21,3.56 -0.63,6.81 -1.47,9.46 -0.91,2.91 -2.3,5.09 -3.92,6.8 -1.58,1.67 -3.35,2.83 -5.11,3.78 -3.24,1.76 -6.38,2.75 -10.59,4.07l-0.06 0.02c-2.07,0.65 -4.42,1.39 -8.21,2.71 -4.02,1.39 -9.71,3.45 -18.46,6.72 -9.63,3.61 -23.08,8.74 -36.31,13.88 -10.83,4.21 -21.48,8.42 -29.68,11.78 -9.03,3.7 -15.04,6.35 -19.35,8.47 -4.09,2 -6.69,3.53 -8.96,5.02l-0.22 0.17c-4.67,3.11 -8.17,6.19 -12,9.59l-0.21 0.18c-4.18,3.7 -8.77,7.77 -16.84,12.38 -3.95,2.26 -8.78,4.67 -14.05,7.16 -5.01,2.36 -10.71,4.92 -16.41,7.47z"/>
   <path class="fil8" d="M338.79 132.77c-0.28,10.31 -0.62,26.86 -1.2,36.69 -0.59,9.84 -1.43,12.96 -2.48,15.18 -1.06,2.23 -2.33,3.55 -20.31,11.53 -17.98,7.98 -52.68,22.61 -71.92,30.12 -10.21,3.99 -16.06,5.97 -19.67,6.83 0.01,0.04 0.02,0.08 0.03,0.11 0.65,3.38 1.61,5.41 3.98,6.23 2.37,0.82 6.15,0.42 25.38,-7.09 19.24,-7.51 53.94,-22.14 71.92,-30.12 17.98,-7.98 19.26,-9.31 20.31,-11.53 1.05,-2.22 1.89,-5.34 2.48,-15.18 0.59,-9.83 0.93,-26.38 1.2,-36.69 0.28,-10.3 0.49,-14.36 -0.6,-17.04 -1.08,-2.67 -3.46,-3.96 -5.83,-4.61 -0.89,-0.25 -1.77,-0.41 -3.49,-0.21 0.62,2.72 0.43,6.96 0.2,15.78z"/>
   <path class="fil7" d="M340.5 132.81l-0.16 6.22c-0.25,9.98 -0.57,22.55 -1.04,30.53 -0.3,4.98 -0.67,8.29 -1.1,10.65 -0.44,2.47 -0.97,3.94 -1.55,5.16 -0.65,1.39 -1.36,2.49 -4.47,4.35 -2.74,1.63 -7.62,3.99 -16.69,8.01 -9.57,4.25 -23.6,10.27 -37.45,16.07 -12.72,5.32 -25.4,10.52 -34.53,14.09 -5.05,1.97 -9.1,3.47 -12.39,4.6 -2.37,0.83 -4.3,1.43 -5.87,1.87 0.22,0.83 0.48,1.52 0.81,2.06 0.4,0.68 0.95,1.16 1.72,1.42 0.9,0.31 2.16,0.37 5.39,-0.46 3.55,-0.91 9.24,-2.87 18.81,-6.61 9.17,-3.57 21.81,-8.76 34.47,-14.06 14.1,-5.9 28.11,-11.9 37.38,-16.02 8.91,-3.95 13.67,-6.25 16.32,-7.83l0.09 -0.05c2.2,-1.32 2.65,-2 3.04,-2.82 0.47,-0.99 0.9,-2.21 1.28,-4.3 0.4,-2.21 0.75,-5.39 1.04,-10.25 0.48,-8.07 0.8,-20.53 1.04,-30.41l0.23 -8.58c0.23,-8.33 0.32,-11.86 -0.55,-14 -0.4,-1 -1.06,-1.75 -1.84,-2.31 -0.85,-0.61 -1.86,-1.02 -2.85,-1.29 -0.33,-0.09 -0.66,-0.17 -1.06,-0.21 0.25,2.55 0.15,6.11 -0.01,11.79l-0.06 2.38zm-3.58 6.14l0.22 -8.6c0.19,-6.99 0.3,-10.63 -0.21,-12.89l-0.05 -0.27c-0.11,-0.94 0.57,-1.79 1.51,-1.9 0.96,-0.11 1.71,-0.12 2.35,-0.07l0.05 0c0.65,0.05 1.2,0.18 1.74,0.33 1.37,0.38 2.75,0.95 3.95,1.8 1.27,0.93 2.35,2.16 3.03,3.82 1.12,2.78 1.02,6.52 0.78,15.37l-0.23 8.57c-0.25,9.98 -0.56,22.55 -1.04,30.54 -0.3,4.97 -0.67,8.28 -1.09,10.64 -0.45,2.47 -0.97,3.94 -1.55,5.16 -0.65,1.38 -1.35,2.47 -4.39,4.29l-0.09 0.06c-2.74,1.63 -7.61,3.99 -16.69,8.01 -9.57,4.25 -23.6,10.27 -37.45,16.07 -12.72,5.32 -25.39,10.52 -34.53,14.09 -9.66,3.77 -15.49,5.77 -19.22,6.73 -4.05,1.04 -5.88,0.88 -7.34,0.38 -1.6,-0.56 -2.72,-1.52 -3.55,-2.9 -0.72,-1.21 -1.19,-2.7 -1.55,-4.53l-0.04 -0.19c-0.18,-0.91 0.39,-1.8 1.29,-2.01 1.78,-0.42 4.1,-1.12 7.19,-2.19 3.1,-1.07 7.09,-2.55 12.25,-4.57 9.17,-3.58 21.81,-8.76 34.46,-14.06 14.1,-5.9 28.11,-11.9 37.39,-16.02 8.9,-3.95 13.66,-6.25 16.31,-7.83 2.28,-1.35 2.74,-2.04 3.14,-2.87 0.47,-1 0.9,-2.21 1.28,-4.31 0.4,-2.2 0.75,-5.38 1.04,-10.24 0.48,-8.07 0.79,-20.53 1.04,-30.41z"/>
  </g>
 </g>
</svg>
