<?xml version="1.0" encoding="UTF-8"?>
<!DOCTYPE svg PUBLIC "-//W3C//DTD SVG 1.1//EN" "http://www.w3.org/Graphics/SVG/1.1/DTD/svg11.dtd">
<!-- Creator: CorelDRAW 2021.5 -->
<svg xmlns="http://www.w3.org/2000/svg" xml:space="preserve" width="500px" height="273px" version="1.1" style="shape-rendering:geometricPrecision; text-rendering:geometricPrecision; image-rendering:optimizeQuality; fill-rule:evenodd; clip-rule:evenodd"
viewBox="0 0 37.04 20.22"
 xmlns:xlink="http://www.w3.org/1999/xlink"
 xmlns:xodm="http://www.corel.com/coreldraw/odm/2003">
 <defs>
  <style type="text/css">
   <![CDATA[
    .fil0 {fill:dimgray}
    .fil1 {fill:#858585}
    .fil3 {fill:#999999}
    .fil2 {fill:#BFBFBF}
    .fil4 {fill:#5F5F5F;fill-rule:nonzero}
   ]]>
  </style>
 </defs>
 <g id="Слой_x0020_1">
  <metadata id="CorelCorpID_0Corel-Layer"/>
  <g id="_2904341890048">
   <path class="fil0" d="M4.62 18.24c-0.12,0.12 -0.27,0.24 -0.49,0.35 -0.22,0.11 -0.5,0.2 -0.66,0.29 -0.15,0.1 -0.17,0.19 -0.18,0.27 -0.02,0.09 -0.04,0.18 0.02,0.29 0.06,0.12 0.19,0.27 0.32,0.42 -0.05,-0.07 -0.08,-0.15 -0.08,-0.24 0,-0.12 0.05,-0.23 0.19,-0.32 0.13,-0.08 0.34,-0.14 0.56,-0.25 0.23,-0.12 0.47,-0.3 0.62,-0.48 0.14,-0.17 0.19,-0.34 0.19,-0.53 0,-0.2 -0.05,-0.42 -0.12,-0.57 -0.06,-0.13 -0.13,-0.21 -0.22,-0.26 0.04,0.03 0.08,0.06 0.12,0.13 0.03,0.07 0.07,0.17 0.07,0.28 -0.01,0.1 -0.05,0.19 -0.11,0.29 -0.05,0.11 -0.12,0.21 -0.23,0.33z"/>
   <path class="fil0" d="M16.98 13.52c-0.07,0.14 -0.14,0.26 -0.19,0.35 -0.05,0.08 -0.06,0.12 -0.07,0.15 0,0.04 0.01,0.07 0.1,0.16 0.08,0.09 0.25,0.23 0.42,0.36 -0.03,-0.04 -0.05,-0.09 -0.06,-0.14 -0.01,-0.1 0.05,-0.22 0.13,-0.35 0.09,-0.12 0.19,-0.27 0.26,-0.42 0.07,-0.15 0.11,-0.32 0.08,-0.48 -0.02,-0.16 -0.11,-0.32 -0.21,-0.43 -0.09,-0.11 -0.2,-0.17 -0.31,-0.2 0.02,0.07 0.04,0.14 0.04,0.24 0.01,0.1 0,0.22 -0.03,0.35 -0.03,0.14 -0.09,0.28 -0.16,0.41z"/>
   <path class="fil0" d="M3.44 15.96c0.01,-0.09 0.02,-0.17 0.02,-0.24 0.01,-0.07 0.01,-0.14 0,-0.21 -0.02,-0.2 -0.1,-0.37 -0.28,-0.6 -0.07,-0.08 -0.15,-0.17 -0.24,-0.28 -0.23,-0.25 -0.53,-0.55 -0.84,-0.89 -0.43,-0.48 -0.89,-1.05 -1.14,-1.34 -0.16,-0.19 -0.24,-0.26 -0.29,-0.27 -0.01,0 -0.02,0 -0.03,0 -0.01,0.01 -0.02,0.02 -0.03,0.03 -0.05,0.06 -0.12,0.2 -0.17,0.44 -0.06,0.25 -0.11,0.61 -0.14,0.86 -0.03,0.25 -0.04,0.4 -0.01,0.51 0.03,0.09 0.08,0.15 0.17,0.17 0.02,0 0.03,0.01 0.04,0.01 0.09,0.01 0.22,-0.01 0.36,-0.03 -0.08,0.01 -0.16,0.02 -0.21,0 -0.06,-0.01 -0.09,-0.05 -0.07,-0.25 0.01,-0.2 0.08,-0.56 0.14,-0.73 0.06,-0.17 0.11,-0.15 0.42,0.16 0.31,0.31 0.88,0.92 1.24,1.29 0.35,0.37 0.49,0.51 0.57,0.67 0.07,0.15 0.07,0.32 0.03,0.58 -0.02,0.09 -0.04,0.19 -0.06,0.29 -0.03,0.19 -0.08,0.39 -0.09,0.52 -0.03,0.19 0,0.23 0.09,0.31 0.09,0.06 0.23,0.16 0.37,0.26 -0.01,-0.02 -0.02,-0.03 -0.02,-0.04 -0.04,-0.08 -0.04,-0.18 0.01,-0.45 0.04,-0.21 0.12,-0.51 0.16,-0.77z"/>
   <path class="fil0" d="M1.36 15.77c0.22,-0.09 0.41,-0.18 0.53,-0.27 0.13,-0.09 0.19,-0.18 0.23,-0.36 0.03,-0.18 0.04,-0.45 0,-0.63 0.01,0.08 0.02,0.15 0,0.23 -0.02,0.08 -0.07,0.16 -0.22,0.28 -0.15,0.11 -0.41,0.25 -0.63,0.35 -0.23,0.11 -0.43,0.17 -0.55,0.27 -0.12,0.1 -0.16,0.24 -0.17,0.37 -0.01,0.13 0.01,0.24 0.03,0.36 -0.01,-0.03 -0.01,-0.05 -0.01,-0.08 0,-0.11 0.06,-0.2 0.2,-0.29 0.15,-0.08 0.38,-0.15 0.59,-0.23z"/>
   <path class="fil1" d="M3.46 15.72c0,0.07 -0.01,0.15 -0.02,0.24 0.01,-0.09 0.02,-0.17 0.02,-0.24zm0 -0.21c0.01,0.07 0.01,0.14 0,0.21 0.01,-0.07 0.01,-0.14 0,-0.21zm33.18 -12.66c-11.06,4.22 -22.12,8.44 -33.18,12.66 -0.02,-0.2 -0.1,-0.37 -0.28,-0.6 -0.07,-0.08 -0.15,-0.17 -0.24,-0.28 -0.23,-0.25 -0.53,-0.55 -0.84,-0.89 -0.43,-0.48 -0.89,-1.05 -1.14,-1.34 -0.2,-0.23 -0.27,-0.29 -0.32,-0.27 -0.01,0.01 -0.02,0.02 -0.03,0.03 -0.05,0.06 -0.12,0.2 -0.17,0.44 -0.06,0.25 -0.11,0.61 -0.14,0.86 -0.03,0.25 -0.04,0.4 -0.01,0.51 0.03,0.1 0.1,0.16 0.21,0.18 0.12,0.01 0.29,-0.02 0.45,-0.05 0.17,-0.03 0.33,-0.06 0.5,-0.05 0.16,0.01 0.32,0.07 0.44,0.13 0.12,0.07 0.19,0.15 0.23,0.33 0.04,0.18 0.03,0.45 0,0.63 -0.04,0.18 -0.1,0.27 -0.23,0.36 -0.12,0.09 -0.31,0.18 -0.53,0.27 -0.21,0.08 -0.44,0.15 -0.59,0.23 -0.14,0.09 -0.2,0.18 -0.2,0.29 0,0.11 0.05,0.24 0.11,0.33 0.07,0.08 0.15,0.13 0.61,0.01 0.47,-0.12 1.31,-0.39 2.15,-0.67 -0.04,0.26 -0.12,0.56 -0.16,0.77 -0.05,0.27 -0.05,0.37 -0.01,0.45 0.03,0.07 0.1,0.1 0.21,0.09 0.1,0 0.22,-0.05 0.38,-0.1 0.16,-0.04 0.34,-0.08 0.49,-0.08 0.16,0 0.28,0.04 0.38,0.09 0.11,0.06 0.2,0.14 0.26,0.29 0.07,0.15 0.12,0.37 0.12,0.57 0,0.19 -0.05,0.36 -0.19,0.53 -0.15,0.18 -0.39,0.36 -0.62,0.48 -0.22,0.11 -0.43,0.17 -0.56,0.25 -0.14,0.09 -0.19,0.2 -0.19,0.32 0,0.12 0.05,0.23 0.13,0.3 0.08,0.07 0.2,0.1 0.34,0.08 0.14,-0.01 0.31,-0.05 1.81,-0.64 1.5,-0.59 4.33,-1.73 5.8,-2.33 1.47,-0.6 1.59,-0.67 1.65,-0.76 0.07,-0.09 0.09,-0.18 0.07,-0.29 -0.01,-0.1 -0.04,-0.21 -0.13,-0.28 -0.09,-0.07 -0.22,-0.11 -0.34,-0.14 -0.11,-0.04 -0.21,-0.08 -0.31,-0.14 -0.09,-0.07 -0.18,-0.15 -0.22,-0.3 -0.05,-0.14 -0.05,-0.35 0.02,-0.52 0.07,-0.17 0.21,-0.3 0.36,-0.42 0.15,-0.12 0.3,-0.22 0.98,-0.51 0.67,-0.28 1.86,-0.75 2.52,-0.97 0.66,-0.23 0.78,-0.21 0.9,-0.18 0.11,0.03 0.22,0.09 0.31,0.2 0.1,0.11 0.19,0.27 0.21,0.43 0.03,0.16 -0.01,0.33 -0.08,0.48 -0.07,0.15 -0.17,0.3 -0.26,0.42 -0.08,0.13 -0.14,0.25 -0.13,0.35 0.01,0.11 0.1,0.2 0.18,0.24 0.09,0.04 0.17,0.03 0.49,-0.09 0.33,-0.12 0.9,-0.35 1.2,-0.51 0.29,-0.17 0.32,-0.27 0.3,-0.44 -0.03,-0.16 -0.11,-0.41 -0.17,-0.61 -0.06,-0.2 -0.09,-0.37 -0.1,-0.5 0,-0.13 0.03,-0.24 0.09,-0.32 0.05,-0.08 0.13,-0.14 2.99,-1.24 2.87,-1.11 8.51,-3.26 14.16,-5.4 0.15,-0.08 0.3,-0.15 0.39,-0.27 0.09,-0.13 0.11,-0.3 0.12,-0.61 0,-0.31 -0.02,-0.76 -0.07,-1.18 -0.03,-0.21 -0.07,-0.42 -0.12,-0.62z"/>
   <path class="fil0" d="M3.46 15.51c-0.02,-0.2 -0.1,-0.37 -0.28,-0.6 -0.07,-0.08 -0.15,-0.17 -0.24,-0.28 -0.23,-0.25 -0.53,-0.55 -0.84,-0.89 -0.43,-0.48 -0.89,-1.05 -1.14,-1.34 -0.2,-0.23 -0.27,-0.29 -0.32,-0.27 -0.01,0.01 -0.02,0.02 -0.03,0.03 -0.05,0.06 -0.12,0.2 -0.17,0.44 -0.06,0.25 -0.11,0.61 -0.14,0.86 -0.03,0.25 -0.04,0.4 -0.01,0.51 0.03,0.1 0.1,0.16 0.21,0.18 0.12,0.01 0.29,-0.02 0.45,-0.05 0.17,-0.03 0.33,-0.06 0.5,-0.05 0.16,0.01 0.32,0.07 0.44,0.13 0.12,0.07 0.19,0.15 0.23,0.33 0.04,0.18 0.03,0.45 0,0.63 -0.04,0.18 -0.1,0.27 -0.23,0.36 -0.12,0.09 -0.31,0.18 -0.53,0.27 -0.21,0.08 -0.44,0.15 -0.59,0.23 -0.14,0.09 -0.2,0.18 -0.2,0.29 0,0.11 0.05,0.24 0.11,0.33 0.07,0.08 0.15,0.13 0.61,0.01 0.47,-0.12 1.31,-0.39 2.15,-0.67 0.01,-0.09 0.02,-0.17 0.02,-0.24 0.01,-0.07 0.01,-0.14 0,-0.21z"/>
   <path class="fil2" d="M2.94 14.63c11.08,-4.24 22.17,-8.49 33.25,-12.73 -0.13,-0.15 -0.3,-0.3 -0.55,-0.48 -0.48,-0.36 -1.22,-0.84 -1.66,-1.05 -0.43,-0.22 -0.55,-0.18 -0.9,-0.05 -0.32,0.12 -0.82,0.3 -1.35,0.5 -0.05,0.02 -0.1,0.03 -0.15,0.05 -10.31,3.76 -20.63,7.51 -30.94,11.26 0.05,-0.02 0.12,0.04 0.32,0.27 0.25,0.29 0.71,0.86 1.14,1.34 0.31,0.34 0.61,0.64 0.84,0.89z"/>
   <path class="fil3" d="M36.19 1.9c-11.08,4.24 -22.17,8.49 -33.25,12.73 0.09,0.11 0.17,0.2 0.24,0.28 0.18,0.23 0.26,0.4 0.28,0.6 11.06,-4.22 22.12,-8.44 33.18,-12.66 -0.04,-0.19 -0.1,-0.37 -0.18,-0.53 -0.07,-0.15 -0.15,-0.28 -0.27,-0.42z"/>
   <path class="fil4" d="M0.36 16.28c0,-0.11 0.1,-0.2 0.21,-0.2 0.12,0 0.21,0.1 0.21,0.21 0,0.03 0,0.06 0.02,0.1 0.01,0.04 0.03,0.07 0.05,0.1l0.01 0c0.07,0.01 0.18,-0.01 0.38,-0.06 0.47,-0.12 0.79,-0.22 1.6,-0.5l0.02 0c0.11,-0.04 0.23,0.02 0.26,0.13 0.04,0.11 -0.02,0.23 -0.13,0.26l-0.02 0.01c-0.84,0.28 -1.17,0.39 -1.62,0.5 -0.26,0.07 -0.41,0.09 -0.52,0.08l-0.01 0c-0.16,-0.02 -0.24,-0.08 -0.3,-0.17 -0.05,-0.06 -0.09,-0.14 -0.12,-0.22 -0.02,-0.07 -0.04,-0.16 -0.04,-0.24z"/>
   <path class="fil4" d="M2.02 14.53c-0.01,-0.06 0.02,-0.11 0.08,-0.12 0.06,-0.01 0.11,0.02 0.12,0.08 0.02,0.09 0.03,0.21 0.03,0.32 0,0.13 -0.01,0.25 -0.03,0.35 -0.02,0.1 -0.05,0.18 -0.09,0.25 -0.05,0.07 -0.1,0.12 -0.18,0.17 -0.06,0.05 -0.14,0.1 -0.23,0.14 -0.1,0.05 -0.21,0.1 -0.32,0.14l-0.19 0.08c-0.15,0.05 -0.29,0.1 -0.39,0.15 -0.05,0.04 -0.09,0.07 -0.12,0.1l0 0.01c-0.02,0.03 -0.03,0.06 -0.03,0.09 0,0.06 -0.04,0.1 -0.1,0.1 -0.06,0 -0.11,-0.05 -0.1,-0.1 0,-0.08 0.02,-0.14 0.06,-0.21l0 0c0.04,-0.06 0.1,-0.12 0.19,-0.17 0.11,-0.06 0.26,-0.11 0.41,-0.17l0.2 -0.07c0.1,-0.04 0.2,-0.09 0.29,-0.13 0.08,-0.04 0.16,-0.08 0.21,-0.13 0.05,-0.03 0.09,-0.07 0.12,-0.11 0.03,-0.05 0.05,-0.11 0.06,-0.18 0.02,-0.09 0.03,-0.2 0.03,-0.31 0,-0.1 -0.01,-0.2 -0.02,-0.28z"/>
   <path class="fil4" d="M0.72 11.93c0.11,0.02 0.18,0.13 0.16,0.25 -0.02,0.07 -0.07,0.12 -0.13,0.15 -0.05,0.07 -0.1,0.2 -0.15,0.35l0 0.01c-0.08,0.28 -0.14,0.58 -0.15,0.74 -0.02,0.13 -0.03,0.23 -0.03,0.31 -0.01,0.07 0,0.13 0,0.16l0.02 0.01c0.03,0.01 0.06,0.03 0.09,0.03 0.08,0.01 0.23,-0.02 0.38,-0.04l0.01 -0.01c0.09,-0.01 0.18,-0.03 0.26,-0.04 0.09,-0.01 0.18,-0.01 0.28,-0.01 0.09,0.01 0.19,0.03 0.28,0.05 0.09,0.03 0.18,0.07 0.25,0.11 0.08,0.05 0.15,0.1 0.21,0.18 0.06,0.08 0.1,0.17 0.12,0.29 0.03,0.11 -0.04,0.22 -0.16,0.24 -0.11,0.03 -0.22,-0.05 -0.24,-0.16 -0.01,-0.05 -0.03,-0.09 -0.05,-0.12 -0.02,-0.02 -0.05,-0.05 -0.08,-0.07 -0.05,-0.02 -0.11,-0.05 -0.17,-0.07 -0.06,-0.01 -0.12,-0.03 -0.19,-0.03 -0.07,0 -0.13,0 -0.2,0.01 -0.09,0.01 -0.16,0.02 -0.24,0.03l-0.01 0.01c-0.18,0.03 -0.36,0.06 -0.5,0.04 -0.1,-0.01 -0.2,-0.05 -0.28,-0.1 -0.08,-0.06 -0.14,-0.14 -0.17,-0.23l-0.01 -0.01c-0.02,-0.08 -0.02,-0.17 -0.02,-0.28 0.01,-0.1 0.02,-0.21 0.03,-0.34 0.02,-0.18 0.09,-0.52 0.17,-0.81l0 -0.01c0.07,-0.23 0.16,-0.44 0.25,-0.55 0.03,-0.03 0.06,-0.05 0.1,-0.07 0.05,-0.03 0.1,-0.04 0.17,-0.02z"/>
   <path class="fil4" d="M3.36 17.13c0.02,0.05 0,0.11 -0.05,0.14 -0.05,0.02 -0.11,0 -0.14,-0.05 -0.02,-0.05 -0.04,-0.11 -0.03,-0.2 0,-0.07 0.01,-0.17 0.04,-0.31l0.05 -0.22c0.05,-0.24 0.11,-0.54 0.13,-0.77 0.01,-0.15 0,-0.26 -0.04,-0.37 -0.04,-0.12 -0.11,-0.23 -0.22,-0.37 -0.14,-0.17 -0.33,-0.38 -0.56,-0.62 -0.16,-0.17 -0.33,-0.35 -0.51,-0.55 -0.29,-0.32 -0.59,-0.68 -0.83,-0.96 -0.13,-0.16 -0.24,-0.29 -0.32,-0.38 -0.08,-0.09 -0.14,-0.15 -0.18,-0.19 -0.03,-0.03 -0.05,-0.05 -0.05,-0.05 -0.06,-0.01 -0.09,-0.07 -0.08,-0.12 0.01,-0.06 0.07,-0.09 0.13,-0.08 0.04,0.01 0.08,0.04 0.14,0.09 0.05,0.05 0.11,0.12 0.2,0.21 0.09,0.11 0.2,0.24 0.32,0.38 0.24,0.29 0.54,0.64 0.82,0.96 0.18,0.2 0.35,0.38 0.51,0.55 0.23,0.24 0.43,0.45 0.57,0.63 0.13,0.16 0.21,0.29 0.26,0.43 0.05,0.14 0.06,0.28 0.05,0.45 -0.02,0.25 -0.09,0.56 -0.14,0.81l-0.05 0.21c-0.02,0.13 -0.03,0.21 -0.04,0.28 0,0.05 0.01,0.08 0.02,0.1z"/>
   <path class="fil4" d="M4.83 17c0.1,0.06 0.14,0.18 0.09,0.28 -0.06,0.11 -0.19,0.14 -0.29,0.09 -0.04,-0.02 -0.08,-0.04 -0.12,-0.05 -0.05,-0.01 -0.1,-0.02 -0.16,-0.02 -0.05,0 -0.12,0.01 -0.19,0.02 -0.08,0.01 -0.17,0.03 -0.25,0.05l-0.13 0.04c-0.11,0.04 -0.21,0.07 -0.3,0.07 -0.04,0 -0.07,0 -0.11,-0.01l-0.01 0c-0.04,-0.01 -0.07,-0.02 -0.1,-0.03 -0.1,-0.05 -0.15,-0.18 -0.1,-0.28 0.05,-0.1 0.17,-0.15 0.28,-0.1 0.01,0 0.02,0 0.03,0 0.03,0 0.1,-0.02 0.19,-0.04 0.04,-0.02 0.08,-0.03 0.15,-0.05 0.09,-0.02 0.19,-0.05 0.28,-0.06 0.09,-0.02 0.18,-0.02 0.26,-0.02 0.1,-0.01 0.18,0.01 0.26,0.02 0.08,0.02 0.16,0.05 0.22,0.09z"/>
   <path class="fil4" d="M3.66 19.62c0,0.06 -0.05,0.1 -0.11,0.1 -0.05,0 -0.1,-0.04 -0.1,-0.1 0,-0.08 0.02,-0.16 0.06,-0.23 0.04,-0.07 0.09,-0.13 0.17,-0.18 0.08,-0.05 0.17,-0.09 0.28,-0.13 0.09,-0.03 0.19,-0.07 0.29,-0.13 0.12,-0.05 0.23,-0.13 0.33,-0.21 0.1,-0.07 0.19,-0.15 0.26,-0.23 0.06,-0.08 0.1,-0.16 0.13,-0.23l0 0c0.02,-0.08 0.03,-0.16 0.03,-0.24 0,-0.09 -0.01,-0.19 -0.03,-0.28 -0.02,-0.09 -0.04,-0.17 -0.07,-0.24 -0.03,-0.07 -0.06,-0.12 -0.1,-0.15 -0.03,-0.04 -0.07,-0.07 -0.12,-0.09 -0.05,-0.03 -0.07,-0.1 -0.04,-0.15 0.03,-0.05 0.09,-0.06 0.14,-0.04 0.06,0.04 0.12,0.08 0.17,0.13 0.05,0.06 0.1,0.12 0.14,0.21 0.03,0.08 0.07,0.19 0.09,0.29 0.02,0.1 0.03,0.21 0.03,0.32 0,0.1 -0.01,0.2 -0.04,0.3l-0.01 0.01c-0.03,0.1 -0.08,0.19 -0.16,0.29 -0.08,0.09 -0.18,0.18 -0.29,0.27 -0.11,0.09 -0.24,0.17 -0.36,0.23 -0.11,0.06 -0.22,0.1 -0.31,0.14 -0.1,0.03 -0.19,0.07 -0.25,0.11 -0.04,0.03 -0.08,0.06 -0.1,0.1 -0.02,0.04 -0.03,0.09 -0.03,0.13z"/>
   <path class="fil4" d="M36.25 5.33c0.11,-0.04 0.23,0.01 0.27,0.12 0.04,0.11 -0.01,0.23 -0.12,0.27l-0.2 0.07c-5.63,2.15 -11.24,4.28 -13.96,5.33 -1.43,0.55 -2.17,0.84 -2.55,1 -0.33,0.14 -0.34,0.15 -0.35,0.16 -0.02,0.03 -0.03,0.05 -0.03,0.08 -0.01,0.04 -0.02,0.08 -0.02,0.12l0 0.01c0,0.05 0.01,0.11 0.03,0.18l0 0.01c0.01,0.08 0.04,0.16 0.06,0.25l0.05 0.16c0.05,0.17 0.1,0.34 0.12,0.48 0.02,0.13 0.02,0.24 -0.06,0.36 -0.06,0.1 -0.16,0.19 -0.35,0.29 -0.13,0.07 -0.31,0.16 -0.5,0.24 -0.25,0.1 -0.52,0.21 -0.71,0.28 -0.18,0.07 -0.29,0.1 -0.37,0.12 -0.13,0.02 -0.2,0.01 -0.29,-0.03 -0.07,-0.03 -0.14,-0.09 -0.2,-0.17 -0.05,-0.06 -0.09,-0.15 -0.1,-0.23l0 -0.01c-0.01,-0.09 0.01,-0.18 0.05,-0.27 0.03,-0.07 0.07,-0.14 0.12,-0.21l0.07 -0.1c0.06,-0.09 0.13,-0.19 0.17,-0.3 0.03,-0.06 0.06,-0.13 0.07,-0.19 0.01,-0.06 0.01,-0.11 0,-0.17 -0.01,-0.05 -0.03,-0.11 -0.06,-0.16 -0.03,-0.06 -0.06,-0.12 -0.1,-0.16l0 0c-0.04,-0.04 -0.07,-0.07 -0.11,-0.09 -0.03,-0.02 -0.07,-0.04 -0.11,-0.05 -0.03,-0.01 -0.07,-0.02 -0.15,0 -0.12,0.02 -0.3,0.07 -0.62,0.18 -0.32,0.1 -0.76,0.27 -1.2,0.44 -0.48,0.18 -0.97,0.38 -1.31,0.52 -0.33,0.14 -0.53,0.24 -0.67,0.31 -0.12,0.07 -0.19,0.12 -0.26,0.17l-0.01 0.01c-0.06,0.05 -0.12,0.1 -0.17,0.16 -0.05,0.05 -0.09,0.11 -0.12,0.17 -0.02,0.06 -0.03,0.12 -0.04,0.19 0,0.07 0.01,0.14 0.03,0.19 0.01,0.05 0.03,0.08 0.05,0.11l0.01 0.01c0.02,0.02 0.05,0.04 0.08,0.06 0.04,0.03 0.07,0.05 0.11,0.07 0.05,0.01 0.09,0.03 0.15,0.05l0.05 0.02c0.12,0.03 0.25,0.07 0.35,0.16 0.07,0.05 0.12,0.12 0.15,0.19 0.03,0.07 0.05,0.15 0.06,0.23 0.01,0.07 0.01,0.15 -0.01,0.22l0 0.01c-0.02,0.07 -0.05,0.14 -0.1,0.21 -0.05,0.06 -0.11,0.12 -0.38,0.25 -0.21,0.1 -0.61,0.27 -1.36,0.57 -0.75,0.31 -1.77,0.72 -2.77,1.12 -1.13,0.46 -2.27,0.91 -3.03,1.21 -0.75,0.29 -1.17,0.45 -1.43,0.54 -0.27,0.1 -0.36,0.12 -0.44,0.12 -0.1,0.01 -0.18,0 -0.26,-0.01 -0.09,-0.03 -0.17,-0.06 -0.23,-0.12 -0.09,-0.07 -0.1,-0.21 -0.03,-0.29 0.08,-0.09 0.21,-0.1 0.3,-0.03 0.01,0.02 0.03,0.03 0.06,0.03 0.03,0.01 0.07,0.01 0.12,0.01 0.06,-0.01 0.12,-0.02 0.35,-0.1 0.24,-0.08 0.65,-0.24 1.4,-0.54 0.79,-0.31 1.92,-0.76 3.03,-1.2 1.08,-0.43 2.1,-0.85 2.77,-1.12 0.73,-0.3 1.12,-0.47 1.35,-0.57 0.18,-0.09 0.2,-0.11 0.22,-0.13 0.01,-0.01 0.02,-0.03 0.02,-0.05l0 0c0.01,-0.03 0.01,-0.06 0.01,-0.09 -0.01,-0.03 -0.01,-0.06 -0.03,-0.09 -0.01,-0.02 -0.02,-0.04 -0.03,-0.05 -0.04,-0.03 -0.13,-0.06 -0.21,-0.09l-0.06 -0.01c-0.06,-0.02 -0.12,-0.05 -0.18,-0.07 -0.07,-0.03 -0.12,-0.06 -0.18,-0.1 -0.06,-0.04 -0.11,-0.08 -0.17,-0.14l-0.01 -0.01c-0.06,-0.07 -0.1,-0.15 -0.13,-0.26 -0.03,-0.1 -0.05,-0.21 -0.04,-0.33 0,-0.11 0.03,-0.23 0.07,-0.33 0.05,-0.11 0.11,-0.21 0.19,-0.29 0.06,-0.07 0.14,-0.14 0.22,-0.2l0.01 -0.01c0.08,-0.07 0.17,-0.13 0.32,-0.21 0.15,-0.08 0.36,-0.19 0.71,-0.33 0.35,-0.15 0.84,-0.35 1.32,-0.53 0.45,-0.18 0.9,-0.34 1.22,-0.45 0.34,-0.12 0.54,-0.17 0.68,-0.19 0.17,-0.03 0.26,-0.01 0.34,0.01 0.07,0.02 0.14,0.05 0.21,0.09 0.07,0.05 0.13,0.1 0.19,0.17l0.01 0c0.06,0.07 0.12,0.16 0.17,0.26 0.04,0.08 0.07,0.18 0.09,0.28 0.02,0.1 0.01,0.2 0,0.3 -0.02,0.1 -0.05,0.2 -0.1,0.3 -0.06,0.13 -0.13,0.24 -0.21,0.35l-0.06 0.1c-0.04,0.05 -0.07,0.1 -0.09,0.15 -0.01,0.02 -0.01,0.04 -0.01,0.06l0 0c0,0.01 0.01,0.02 0.01,0.03 0.02,0.02 0.04,0.04 0.05,0.04l0.03 0c0.06,-0.01 0.15,-0.04 0.3,-0.1 0.18,-0.06 0.44,-0.17 0.69,-0.28 0.19,-0.07 0.36,-0.15 0.48,-0.22 0.11,-0.06 0.17,-0.1 0.19,-0.14 0.01,-0.01 0.01,-0.04 0,-0.07 -0.02,-0.12 -0.06,-0.28 -0.11,-0.43l-0.05 -0.16c-0.03,-0.1 -0.05,-0.2 -0.07,-0.29l0 0c-0.02,-0.1 -0.03,-0.18 -0.03,-0.26l0 -0.01c-0.01,-0.08 0,-0.16 0.02,-0.23 0.02,-0.08 0.05,-0.15 0.09,-0.21 0.05,-0.07 0.1,-0.12 0.54,-0.31 0.39,-0.16 1.12,-0.46 2.56,-1.01 2.93,-1.13 8.43,-3.22 13.96,-5.33l0.2 -0.07z"/>
   <path class="fil4" d="M0.71 12.33c-0.1,0.04 -0.22,-0.02 -0.26,-0.13 -0.04,-0.11 0.01,-0.22 0.12,-0.26l31.09 -11.32c0.11,-0.04 0.23,0.02 0.27,0.13 0.04,0.1 -0.02,0.22 -0.12,0.26l-31.1 11.32z"/>
   <path class="fil4" d="M2.98 14.73c-0.06,0.02 -0.12,-0.01 -0.14,-0.06 -0.02,-0.05 0.01,-0.11 0.06,-0.13l33.25 -12.74c0.06,-0.02 0.12,0.01 0.14,0.06 0.02,0.06 -0.01,0.12 -0.06,0.14l-33.25 12.73z"/>
   <path class="fil4" d="M3.5 15.61c-0.05,0.02 -0.11,-0.01 -0.14,-0.06 -0.02,-0.06 0.01,-0.12 0.07,-0.14l33.18 -12.65c0.05,-0.02 0.11,0 0.13,0.06 0.02,0.05 0,0.11 -0.06,0.13l-33.18 12.66z"/>
   <path class="fil4" d="M31.65 1.07c-0.11,0.04 -0.23,-0.02 -0.27,-0.12 -0.04,-0.11 0.02,-0.23 0.12,-0.27l1.51 -0.55c0.41,-0.15 0.55,-0.21 1.07,0.05 0.21,0.11 0.51,0.28 0.81,0.47 0.31,0.2 0.63,0.41 0.87,0.6 0.25,0.19 0.43,0.34 0.57,0.49 0.14,0.16 0.24,0.32 0.32,0.5l0.01 0.01c0.08,0.17 0.14,0.36 0.19,0.56 0.05,0.2 0.09,0.41 0.11,0.63 0.03,0.21 0.05,0.41 0.06,0.6 0.01,0.22 0.02,0.43 0.02,0.61 -0.01,0.16 -0.01,0.3 -0.03,0.41 -0.03,0.13 -0.07,0.23 -0.13,0.32 -0.06,0.09 -0.14,0.15 -0.23,0.21 -0.08,0.05 -0.16,0.09 -0.24,0.12 -0.1,0.05 -0.23,0.01 -0.28,-0.1 -0.04,-0.1 0,-0.22 0.1,-0.27 0.07,-0.04 0.14,-0.07 0.2,-0.1 0.04,-0.03 0.08,-0.07 0.11,-0.1 0.03,-0.04 0.04,-0.09 0.06,-0.16 0.01,-0.08 0.02,-0.19 0.02,-0.34 0,-0.15 0,-0.35 -0.02,-0.57 -0.01,-0.19 -0.02,-0.38 -0.05,-0.57 -0.03,-0.21 -0.06,-0.4 -0.11,-0.59 -0.04,-0.18 -0.1,-0.35 -0.16,-0.49l-0.01 -0.01c-0.06,-0.14 -0.14,-0.26 -0.25,-0.39 -0.12,-0.13 -0.28,-0.27 -0.51,-0.44 -0.23,-0.17 -0.54,-0.38 -0.84,-0.58 -0.29,-0.18 -0.57,-0.34 -0.78,-0.45 -0.35,-0.17 -0.45,-0.14 -0.74,-0.03l-1.5 0.55z"/>
   <path class="fil4" d="M17.37 14.38c0.09,0.07 0.11,0.21 0.03,0.29 -0.07,0.09 -0.2,0.11 -0.29,0.04l-0.25 -0.21c-0.07,-0.06 -0.14,-0.12 -0.19,-0.17 -0.06,-0.06 -0.1,-0.11 -0.12,-0.15 -0.04,-0.07 -0.04,-0.12 -0.03,-0.18l0 0c0,-0.04 0.01,-0.08 0.03,-0.12 0.01,-0.03 0.03,-0.07 0.06,-0.12l0.05 -0.08c0.04,-0.07 0.09,-0.16 0.14,-0.25 0.03,-0.07 0.06,-0.13 0.08,-0.19l0.01 -0.02c0.02,-0.05 0.04,-0.1 0.05,-0.15 0.01,-0.06 0.02,-0.11 0.02,-0.15 0.01,-0.06 0.01,-0.11 0,-0.15 0,-0.07 -0.02,-0.13 -0.03,-0.19 -0.03,-0.11 0.03,-0.23 0.14,-0.26 0.11,-0.03 0.23,0.03 0.26,0.14l0 0.01c0.02,0.08 0.04,0.16 0.05,0.28 0,0.06 0,0.13 0,0.2 -0.01,0.07 -0.02,0.14 -0.04,0.21 -0.01,0.07 -0.04,0.14 -0.06,0.21l-0.01 0.02c-0.03,0.07 -0.06,0.15 -0.1,0.23 -0.05,0.1 -0.11,0.19 -0.16,0.27l-0.07 0.13 0.02 0.01c0.04,0.04 0.1,0.09 0.17,0.15l0.24 0.2z"/>
   <path class="fil4" d="M3.78 19.72c0.08,0.09 0.07,0.22 -0.01,0.3 -0.09,0.07 -0.22,0.07 -0.3,-0.02l-0.01 -0.01c-0.13,-0.16 -0.27,-0.32 -0.34,-0.46 -0.04,-0.08 -0.06,-0.16 -0.06,-0.24 0,-0.07 0.01,-0.12 0.02,-0.18 0.01,-0.06 0.03,-0.12 0.07,-0.19 0.04,-0.08 0.11,-0.15 0.22,-0.21 0.1,-0.06 0.23,-0.12 0.37,-0.18 0.1,-0.04 0.2,-0.08 0.3,-0.13l0.01 0c0.09,-0.05 0.17,-0.1 0.24,-0.15 0.07,-0.05 0.13,-0.1 0.18,-0.15 0.04,-0.05 0.08,-0.1 0.12,-0.15 0.03,-0.04 0.06,-0.09 0.08,-0.14 0.02,-0.04 0.05,-0.08 0.06,-0.12 0.01,-0.03 0.02,-0.06 0.02,-0.08 0,-0.03 0,-0.05 -0.01,-0.08l0 0c-0.01,-0.04 -0.02,-0.07 -0.04,-0.09 -0.01,-0.03 -0.04,-0.05 -0.06,-0.07 -0.09,-0.08 -0.1,-0.21 -0.03,-0.3 0.08,-0.08 0.21,-0.09 0.3,-0.02 0.05,0.04 0.1,0.09 0.16,0.19 0.03,0.05 0.05,0.11 0.07,0.18l0 0.01c0.02,0.06 0.03,0.13 0.03,0.19 -0.01,0.08 -0.02,0.15 -0.05,0.22 -0.02,0.06 -0.05,0.12 -0.08,0.17 -0.03,0.06 -0.07,0.12 -0.11,0.18 -0.05,0.06 -0.1,0.13 -0.16,0.19 -0.07,0.07 -0.14,0.14 -0.23,0.2 -0.09,0.07 -0.19,0.13 -0.31,0.19l-0.01 0.01c-0.09,0.04 -0.21,0.09 -0.32,0.14 -0.13,0.05 -0.25,0.1 -0.32,0.14 -0.04,0.03 -0.06,0.05 -0.07,0.06 -0.01,0.02 -0.01,0.05 -0.02,0.07 -0.01,0.04 -0.01,0.07 -0.01,0.09 0,0.02 0,0.04 0.02,0.07 0.04,0.09 0.16,0.23 0.28,0.36l0 0.01z"/>
   <path class="fil4" d="M3.47 17.08c0.1,0.07 0.12,0.2 0.06,0.29 -0.07,0.1 -0.2,0.12 -0.29,0.06l-0.01 -0.01c-0.17,-0.11 -0.34,-0.23 -0.43,-0.3l-0.02 -0.01c-0.07,-0.06 -0.11,-0.1 -0.15,-0.19 -0.03,-0.08 -0.03,-0.17 -0.01,-0.3 0.01,-0.11 0.04,-0.25 0.07,-0.4l0.01 -0.02c0.02,-0.13 0.05,-0.27 0.07,-0.39 0.02,-0.12 0.03,-0.21 0.03,-0.29 -0.01,-0.07 -0.02,-0.13 -0.04,-0.18 -0.05,-0.11 -0.17,-0.23 -0.43,-0.5l-0.44 -0.46c-0.31,-0.32 -0.66,-0.69 -0.9,-0.93l-0.11 -0.11c-0.02,0.05 -0.03,0.11 -0.04,0.17 -0.03,0.14 -0.05,0.27 -0.05,0.37l-0.01 0.04 0.05 -0.01c0.11,-0.01 0.22,0.07 0.23,0.18 0.02,0.11 -0.06,0.22 -0.18,0.23 -0.04,0.01 -0.08,0.02 -0.13,0.02 -0.05,0 -0.1,0 -0.14,-0.01l-0.02 -0.01c-0.09,-0.02 -0.16,-0.07 -0.2,-0.19 -0.02,-0.07 -0.03,-0.15 -0.02,-0.28 0.01,-0.11 0.03,-0.27 0.06,-0.42 0.03,-0.13 0.06,-0.27 0.09,-0.36 0.07,-0.22 0.16,-0.31 0.39,-0.22 0.09,0.03 0.2,0.12 0.37,0.29l0.01 0.01c0.21,0.22 0.58,0.61 0.9,0.95l0.44 0.45c0.3,0.31 0.43,0.45 0.51,0.62 0.04,0.1 0.07,0.21 0.07,0.33 0.01,0.11 -0.01,0.23 -0.03,0.37 -0.02,0.13 -0.05,0.28 -0.08,0.42l0 0.01c-0.03,0.15 -0.06,0.29 -0.07,0.38 0,0.05 -0.01,0.08 -0.01,0.09l0.03 0.02c0.1,0.07 0.25,0.18 0.41,0.29l0.01 0z"/>
   <path class="fil4" d="M1.55 14.25c-0.08,-0.08 -0.08,-0.22 0,-0.3 0.08,-0.08 0.21,-0.08 0.29,0 0.08,0.07 0.17,0.14 0.23,0.22 0.04,0.05 0.08,0.1 0.1,0.16 0.02,0.07 0.04,0.13 0.04,0.2l0 0.01c0,0.07 -0.01,0.14 -0.03,0.22 -0.02,0.07 -0.05,0.15 -0.09,0.22 -0.04,0.08 -0.09,0.16 -0.17,0.25 -0.07,0.08 -0.17,0.15 -0.3,0.23 -0.11,0.06 -0.24,0.11 -0.36,0.16 -0.14,0.06 -0.28,0.12 -0.37,0.18 -0.06,0.04 -0.1,0.08 -0.12,0.12 -0.02,0.03 -0.03,0.07 -0.04,0.11 0,0.09 0.02,0.18 0.05,0.28l0 0c0.03,0.11 -0.03,0.23 -0.14,0.26 -0.11,0.03 -0.23,-0.03 -0.26,-0.14l-0.01 -0.01c-0.03,-0.13 -0.07,-0.27 -0.05,-0.43 0.01,-0.09 0.03,-0.18 0.09,-0.28 0.05,-0.09 0.13,-0.18 0.26,-0.26 0.12,-0.08 0.27,-0.14 0.42,-0.21 0.12,-0.05 0.24,-0.1 0.33,-0.15 0.09,-0.05 0.15,-0.1 0.2,-0.15 0.05,-0.05 0.08,-0.1 0.1,-0.15 0.03,-0.05 0.05,-0.09 0.06,-0.13 0.01,-0.05 0.01,-0.08 0.01,-0.12 0,-0.02 0,-0.04 -0.01,-0.06 0,-0.01 -0.02,-0.03 -0.03,-0.05 -0.04,-0.05 -0.1,-0.1 -0.17,-0.16l-0.03 -0.02z"/>
  </g>
 </g>
</svg>
