<?xml version="1.0" encoding="UTF-8"?>
<!DOCTYPE svg PUBLIC "-//W3C//DTD SVG 1.1//EN" "http://www.w3.org/Graphics/SVG/1.1/DTD/svg11.dtd">
<!-- Creator: CorelDRAW 2021.5 -->
<svg xmlns="http://www.w3.org/2000/svg" xml:space="preserve" width="500px" height="307px" version="1.1" style="shape-rendering:geometricPrecision; text-rendering:geometricPrecision; image-rendering:optimizeQuality; fill-rule:evenodd; clip-rule:evenodd"
viewBox="0 0 74.89 46.01"
 xmlns:xlink="http://www.w3.org/1999/xlink"
 xmlns:xodm="http://www.corel.com/coreldraw/odm/2003">
 <defs>
  <style type="text/css">
   <![CDATA[
    .fil7 {fill:#616161}
    .fil6 {fill:#707070}
    .fil5 {fill:#737373}
    .fil0 {fill:gray}
    .fil2 {fill:#878787}
    .fil1 {fill:#8F8F8F}
    .fil4 {fill:#999999}
    .fil3 {fill:#BFBFBF}
    .fil8 {fill:#5F5F5F;fill-rule:nonzero}
   ]]>
  </style>
 </defs>
 <g id="Слой_x0020_1">
  <metadata id="CorelCorpID_0Corel-Layer"/>
  <g id="_1910652712976">
   <path class="fil0" d="M74.46 9.36l-47.5 17.9c0.36,0.65 -0.35,1.18 -1.44,0.43 -0.03,0.02 -0.07,0.04 -0.12,0.05l-4.16 1.64c-2.84,1.11 -5.03,3.08 -6.02,5.97 -0.99,2.89 -0.25,6.13 1.19,8.82l0.75 1.42 1.4 -0.75 0 -2.17 3.26 -1.19 1.82 -0.67 0 1.47 10.53 -3.7 9.42 -14.05 30.87 -11.55 0 -3.62zm-52.9 24.36c0.98,0.51 1.3,2.15 0.72,3.67 -0.59,1.52 -1.86,2.34 -2.84,1.84 -0.01,-0.01 -0.02,-0.01 -0.03,-0.02 -0.16,-0.02 -0.32,-0.06 -0.48,-0.14 -0.98,-0.51 -1.3,-2.15 -0.71,-3.67 0.58,-1.52 1.85,-2.34 2.83,-1.83 0.01,0 0.02,0.01 0.03,0.01 0.17,0.02 0.33,0.06 0.48,0.14z"/>
   <path class="fil1" d="M21.24 29.38l4.16 -1.64c-0.04,0.01 -0.09,0.02 -0.14,0.03l-1.28 -0.65 -3.86 1.48 -0.2 0.08c-2.44,0.94 -4.35,2.59 -5.5,4.89 -0.09,0.18 -0.18,0.37 -0.26,0.56 -0.78,1.82 -0.95,3.66 -0.62,5.5 0.15,0.77 0.38,1.55 0.7,2.32l1.19 2.84 1.73 0.8 -0.75 -1.42c-1.44,-2.69 -2.18,-5.93 -1.19,-8.82 0.99,-2.89 3.18,-4.86 6.02,-5.97z"/>
   <path class="fil2" d="M18.73 35.56c0.49,-1.28 1.47,-2.07 2.35,-1.98 -0.01,0 -0.02,-0.01 -0.03,-0.01 -0.98,-0.51 -2.25,0.31 -2.83,1.83 -0.59,1.52 -0.27,3.16 0.71,3.67 0.16,0.08 0.32,0.12 0.48,0.14 -0.95,-0.52 -1.26,-2.15 -0.68,-3.65z"/>
   <path class="fil3" d="M14.9 17.93l9.22 4.18 47.54 -17.4 -2.35 -1.09 -25.83 10.05c-1.59,0.62 -3.22,0.47 -4.68,-0.41l-0.38 -0.23c-0.31,-0.19 -0.48,-0.53 -0.44,-0.89 0.03,-0.37 0.26,-0.66 0.61,-0.79l26.46 -9.72 -2.79 -1.21 -47.36 17.51z"/>
   <polygon class="fil4" points="71.66,4.71 24.12,22.11 26.96,27.26 74.46,9.36 "/>
   <path class="fil5" d="M43.48 13.67l21.56 -8.39 0.01 -3.65 -26.46 9.72c-0.35,0.13 -0.58,0.42 -0.61,0.79 -0.04,0.36 0.13,0.7 0.44,0.89l0.38 0.23c1.46,0.88 3.09,1.03 4.68,0.41z"/>
   <path class="fil6" d="M23.25 23.15l-7.85 -3.82 -1.58 1.72c0.06,1.01 -0.59,1.36 -1.96,0.82l-4.87 1.63c-2.28,0.76 -3.89,2.11 -4.78,4.35 -0.89,2.24 -0.8,4.74 0.34,6.86 0.19,0.35 0.4,0.63 0.67,0.92 1.36,0.85 2.97,1.25 3.77,1.16l0.67 -0.07 -1.17 -0.58c-0.02,-0.01 -0.04,-0.02 -0.06,-0.03 -0.11,-0.04 -0.22,-0.08 -0.33,-0.14 -0.29,-0.07 -0.58,-0.2 -0.84,-0.37 -1.9,-1.26 -2.19,-4.69 -0.65,-7.66 1.45,-2.83 4.04,-4.24 5.91,-3.29 0.3,0.07 0.58,0.2 0.85,0.37 0.06,0.04 0.13,0.09 0.18,0.13 0.61,-0.23 1.24,-0.2 1.84,0.1l1.98 0.98 0 0.66 2.78 1.33c0.21,-0.11 0.41,-0.21 0.63,-0.3l1.34 0.68 3.86 -1.48 1.28 0.65c0.05,-0.01 0.1,-0.02 0.14,-0.03l0.12 -0.05c0.14,-0.08 0.11,-0.22 -0.01,-0.44l-2.26 -4.1z"/>
   <path class="fil7" d="M5.16 28.14c1.32,-2.55 3.56,-3.95 5.36,-3.49 -1.87,-0.95 -4.46,0.46 -5.91,3.29 -1.54,2.97 -1.25,6.4 0.65,7.66 0.26,0.17 0.55,0.3 0.84,0.37 -0.1,-0.05 -0.19,-0.1 -0.29,-0.16 -1.6,-1.07 -2.05,-3.69 -1.22,-6.27l-0.12 -0.58c-0.03,-0.12 -0.01,-0.25 0.04,-0.35 0.06,-0.11 0.15,-0.2 0.26,-0.25l0.37 -0.18c0.01,-0.01 0.02,-0.02 0.02,-0.04z"/>
   <path class="fil6" d="M10.52 24.65c-1.8,-0.46 -4.04,0.94 -5.36,3.49 0,0.02 -0.01,0.03 -0.02,0.04l6.24 -2.95c0.06,-0.03 0.12,-0.05 0.17,-0.08 -0.05,-0.04 -0.12,-0.09 -0.18,-0.13 -0.27,-0.17 -0.55,-0.3 -0.85,-0.37z"/>
   <path class="fil4" d="M11.38 25.23l-6.24 2.95 -0.37 0.18c-0.11,0.05 -0.2,0.14 -0.26,0.25l3.21 1.6 0.01 0.19c0.86,-0.78 1.76,-1.5 2.7,-2.19 0.17,-0.12 0.37,-0.14 0.56,-0.05l1.75 0.83 0.98 -0.5 0 -0.73c0.43,-0.6 0.98,-1.1 1.65,-1.53l-1.98 -0.98c-0.6,-0.3 -1.23,-0.33 -1.84,-0.1 -0.05,0.03 -0.11,0.05 -0.17,0.08z"/>
   <path class="fil0" d="M7.72 30.21l-3.21 -1.6c-0.05,0.1 -0.07,0.23 -0.04,0.35l0.12 0.58 1.13 5.61c0.08,0.36 0.26,0.65 0.55,0.86 0.05,0.04 0.11,0.07 0.16,0.1 0.02,0.01 0.04,0.02 0.06,0.03l1.17 0.58 5.88 2.91c-0.33,-1.84 -0.16,-3.68 0.62,-5.5 0.08,-0.19 0.17,-0.38 0.26,-0.56l-1.37 -0.68 0.02 1.02 -1.73 -0.83 0.05 0.79 -2.37 -1.19 -0.04 -0.86 -1.18 -0.54 -0.07 -0.88 -0.01 -0.19z"/>
   <path class="fil0" d="M10.43 28.21c-0.94,0.69 -1.84,1.41 -2.7,2.19l0.07 0.88 1.18 0.54 0.04 0.86 2.37 1.19 -0.05 -0.79 1.73 0.83 -0.02 -1.02 2.4 -2.04 -0.06 -0.59 -2.65 -1.27 -1.75 -0.83c-0.19,-0.09 -0.39,-0.07 -0.56,0.05z"/>
   <path class="fil0" d="M13.72 27.76l2.89 1.35c0.49,-0.32 1,-0.62 1.54,-0.89l-2.78 -1.33 0 -0.66c-0.67,0.43 -1.22,0.93 -1.65,1.53z"/>
   <path class="fil0" d="M16.61 29.11l-2.89 -1.35 0 0.73 2.22 1.09c0.22,-0.16 0.44,-0.32 0.67,-0.47z"/>
   <path class="fil0" d="M15.94 29.58l-2.22 -1.09 -0.98 0.5 2.65 1.27 -0.02 -0.25c0.19,-0.15 0.38,-0.29 0.57,-0.43z"/>
   <path class="fil4" d="M16.61 29.11c-0.23,0.15 -0.45,0.31 -0.67,0.47 -0.19,0.14 -0.38,0.28 -0.57,0.43l0.02 0.25 0.06 0.59 -2.4 2.04 1.37 0.68c1.15,-2.3 3.06,-3.95 5.5,-4.89l0.2 -0.08 -1.34 -0.68c-0.22,0.09 -0.42,0.19 -0.63,0.3 -0.54,0.27 -1.05,0.57 -1.54,0.89z"/>
   <path class="fil6" d="M5.72 35.15l-1.13 -5.61c-0.83,2.58 -0.38,5.2 1.22,6.27 0.1,0.06 0.19,0.11 0.29,0.16 0.06,0.02 0.11,0.03 0.17,0.04 -0.29,-0.21 -0.47,-0.5 -0.55,-0.86z"/>
   <path class="fil1" d="M10.35 21.24c-0.07,-0.02 -0.13,-0.05 -0.19,-0.07l-4.52 1.51c-2.24,0.75 -3.71,2.14 -4.58,4.34 -0.87,2.2 -0.9,4.59 0.22,6.67 0.43,0.8 1.14,1.45 1.94,1.94 -0.27,-0.29 -0.48,-0.57 -0.67,-0.92 -1.14,-2.12 -1.23,-4.62 -0.34,-6.86 0.89,-2.24 2.5,-3.59 4.78,-4.35l4.87 -1.63 -1.51 -0.63z"/>
   <polygon class="fil5" points="23.64,40.81 21.82,41.48 23.64,42.28 "/>
   <path class="fil4" d="M19.44 39.23c0.98,0.5 2.25,-0.32 2.84,-1.84 0.58,-1.52 0.26,-3.16 -0.72,-3.67 -0.15,-0.08 -0.31,-0.12 -0.48,-0.14 -0.88,-0.09 -1.86,0.7 -2.35,1.98 -0.58,1.5 -0.27,3.13 0.68,3.65 0.01,0.01 0.02,0.01 0.03,0.02z"/>
   <path class="fil8" d="M27.04 27.46c-0.11,0.04 -0.23,-0.02 -0.28,-0.13 -0.04,-0.1 0.02,-0.23 0.13,-0.27l47.5 -17.9c0.11,-0.04 0.23,0.02 0.27,0.13 0.04,0.1 -0.01,0.23 -0.12,0.27l-47.5 17.9z"/>
   <path class="fil8" d="M74.83 9.14c0.12,0.2 0.05,0.46 -0.15,0.58 -0.2,0.12 -0.46,0.06 -0.58,-0.14l-2.74 -4.54 -2.07 -0.96 -25.65 9.98c-0.86,0.34 -1.73,0.47 -2.59,0.39 -0.85,-0.08 -1.69,-0.35 -2.47,-0.83l-0.38 -0.23c-0.23,-0.14 -0.4,-0.33 -0.51,-0.55 -0.11,-0.23 -0.16,-0.48 -0.13,-0.74l0 -0.02c0.03,-0.26 0.12,-0.49 0.27,-0.68 0.15,-0.2 0.36,-0.36 0.61,-0.45l25.47 -9.35 -1.66 -0.72 -47.2 17.45c-0.22,0.08 -0.47,-0.03 -0.55,-0.25 -0.08,-0.22 0.04,-0.47 0.26,-0.55l47.35 -17.51c0.1,-0.03 0.21,-0.03 0.31,0.01l2.76 1.2c0.12,0.04 0.22,0.13 0.26,0.26 0.08,0.22 -0.03,0.46 -0.25,0.54l-26.46 9.72c-0.1,0.03 -0.18,0.09 -0.23,0.16 -0.06,0.07 -0.09,0.16 -0.1,0.26l0 0.01c-0.01,0.1 0,0.2 0.05,0.28 0.04,0.08 0.1,0.15 0.19,0.21l0.38 0.22c0.67,0.41 1.38,0.65 2.11,0.72 0.72,0.06 1.47,-0.05 2.2,-0.33l25.8 -10.04c0.11,-0.05 0.24,-0.05 0.35,0l2.34 1.08c0.08,0.04 0.15,0.09 0.2,0.17l2.81 4.65z"/>
   <path class="fil8" d="M64.62 1.63c0,-0.23 0.19,-0.42 0.43,-0.42 0.23,0 0.42,0.19 0.42,0.42l0 3.65c0,0.24 -0.19,0.42 -0.43,0.42 -0.23,0 -0.42,-0.18 -0.42,-0.42l0 -3.65z"/>
   <path class="fil8" d="M38.52 13.11c-0.1,0.04 -0.23,-0.01 -0.27,-0.12 -0.04,-0.11 0.02,-0.23 0.13,-0.27l26.47 -9.91c0.1,-0.04 0.23,0.01 0.27,0.12 0.04,0.11 -0.02,0.23 -0.13,0.27l-26.47 9.91z"/>
   <path class="fil8" d="M24.19 22.31c-0.11,0.04 -0.23,-0.02 -0.27,-0.13 -0.04,-0.11 0.02,-0.23 0.13,-0.27l47.53 -17.4c0.11,-0.04 0.24,0.02 0.28,0.13 0.04,0.11 -0.02,0.23 -0.13,0.27l-47.54 17.4z"/>
   <path class="fil8" d="M74.04 9.36c0,-0.23 0.19,-0.42 0.42,-0.42 0.24,0 0.43,0.19 0.43,0.42l0 3.62c0,0.19 -0.14,0.36 -0.31,0.4l-30.71 11.5 -9.35 13.93c-0.05,0.08 -0.13,0.14 -0.21,0.17l-10.53 3.7c-0.22,0.08 -0.46,-0.04 -0.54,-0.26 -0.01,-0.04 -0.02,-0.09 -0.02,-0.14l0 -0.87 -4.24 1.55 0 1.88c0,0.18 -0.11,0.33 -0.26,0.4l-1.36 0.72c-0.21,0.11 -0.46,0.03 -0.57,-0.17 -0.11,-0.21 -0.03,-0.46 0.17,-0.57l1.17 -0.63 0 -1.92c0,-0.18 0.11,-0.34 0.28,-0.4l5.06 -1.84c0.05,-0.03 0.11,-0.04 0.17,-0.04 0.23,0 0.42,0.19 0.42,0.42l0 0.88 9.84 -3.46 9.34 -13.93c0.05,-0.07 0.12,-0.13 0.2,-0.16l30.6 -11.45 0 -3.33z"/>
   <path class="fil8" d="M23.81 41.9c0.21,0.09 0.31,0.34 0.22,0.55 -0.1,0.22 -0.35,0.31 -0.56,0.22l-1.82 -0.81c-0.21,-0.09 -0.31,-0.34 -0.22,-0.55 0.1,-0.22 0.35,-0.31 0.56,-0.22l1.82 0.81z"/>
   <path class="fil8" d="M25.45 27.39c0.21,0.11 0.29,0.36 0.18,0.57 -0.1,0.21 -0.36,0.29 -0.56,0.18l-1.11 -0.56 -3.88 1.49c-1.28,0.5 -2.41,1.19 -3.35,2.08 -0.91,0.86 -1.65,1.92 -2.18,3.14 -0.52,1.22 -0.76,2.45 -0.75,3.67 0.02,1.27 0.3,2.55 0.83,3.83l1.12 2.69 1.59 0.72c0.21,0.1 0.3,0.35 0.2,0.56 -0.09,0.21 -0.34,0.31 -0.55,0.21l-1.72 -0.79c-0.1,-0.04 -0.19,-0.12 -0.23,-0.23l-1.19 -2.84c-0.57,-1.37 -0.88,-2.76 -0.89,-4.14 -0.01,-1.34 0.25,-2.68 0.82,-4.01 0.57,-1.33 1.37,-2.48 2.37,-3.42 1.02,-0.97 2.24,-1.72 3.62,-2.25l4.06 -1.57c0.11,-0.04 0.24,-0.04 0.35,0.02l1.27 0.65z"/>
   <path class="fil8" d="M14.51 33.39c0.11,0.05 0.15,0.17 0.1,0.28 -0.05,0.1 -0.18,0.15 -0.28,0.09l-1.37 -0.68c-0.11,-0.05 -0.15,-0.18 -0.1,-0.28 0.06,-0.11 0.18,-0.15 0.29,-0.1l1.36 0.69zm-6.7 -3.37c0.11,0.06 0.15,0.18 0.1,0.29 -0.06,0.1 -0.18,0.14 -0.29,0.09l-3.2 -1.6c-0.1,-0.06 -0.15,-0.18 -0.09,-0.29 0.05,-0.1 0.18,-0.14 0.28,-0.09l3.2 1.6z"/>
   <path class="fil8" d="M7.51 30.23c-0.01,-0.12 0.08,-0.22 0.19,-0.23 0.12,-0.01 0.22,0.08 0.23,0.2l0.07 0.94 1.07 0.49c0.07,0.04 0.12,0.11 0.12,0.18l0.04 0.74 1.92 0.96 -0.02 -0.42c-0.01,-0.11 0.08,-0.21 0.19,-0.22 0.04,0 0.08,0.01 0.11,0.02l1.42 0.68 -0.01 -0.68c0,-0.07 0.03,-0.13 0.08,-0.17l2.31 -1.96 -0.07 -0.73c-0.01,-0.07 0.03,-0.14 0.08,-0.18 0.51,-0.41 1.05,-0.8 1.63,-1.15 0.57,-0.36 1.18,-0.68 1.82,-0.97 0.06,-0.03 0.13,-0.03 0.18,0l1.35 0.68c0.1,0.06 0.14,0.18 0.09,0.29 -0.05,0.1 -0.18,0.14 -0.28,0.09l-1.26 -0.64c-0.59,0.28 -1.15,0.58 -1.68,0.91 -0.53,0.32 -1.02,0.67 -1.5,1.05l0.07 0.72c0.01,0.07 -0.02,0.13 -0.07,0.18l-2.32 1.98 0.01 0.89c0,0.04 0,0.08 -0.02,0.12 -0.05,0.1 -0.18,0.15 -0.28,0.1l-1.41 -0.67 0.03 0.42c0,0.04 -0.01,0.08 -0.02,0.11 -0.06,0.1 -0.18,0.15 -0.29,0.09l-2.35 -1.18c-0.07,-0.03 -0.12,-0.1 -0.13,-0.18l-0.03 -0.73 -1.06 -0.48c-0.07,-0.03 -0.13,-0.1 -0.13,-0.18l-0.08 -1.07z"/>
   <path class="fil8" d="M14.95 26.23c0,-0.23 0.19,-0.42 0.42,-0.42 0.23,0 0.42,0.19 0.42,0.42l0 0.4 2.36 1.12 0.44 -0.21c0.13,-0.06 0.26,-0.05 0.38,0l1.15 0.59c0.21,0.1 0.29,0.36 0.19,0.57 -0.11,0.2 -0.36,0.29 -0.57,0.18l-0.97 -0.49 -0.41 0.2c-0.12,0.06 -0.26,0.07 -0.39,0.01l-2.75 -1.31c-0.16,-0.07 -0.27,-0.22 -0.27,-0.4l0 -0.66z"/>
   <path class="fil8" d="M15.26 26.06c0.1,-0.07 0.23,-0.04 0.29,0.06 0.06,0.1 0.03,0.23 -0.07,0.29 -0.32,0.2 -0.62,0.43 -0.89,0.68 -0.2,0.18 -0.38,0.38 -0.55,0.59l2.66 1.24c0.11,0.05 0.15,0.17 0.1,0.28 -0.05,0.1 -0.17,0.15 -0.28,0.1l-2.88 -1.35 -0.04 -0.02c-0.1,-0.07 -0.12,-0.2 -0.05,-0.29 0.22,-0.31 0.47,-0.6 0.76,-0.86 0.28,-0.27 0.6,-0.51 0.95,-0.72z"/>
   <path class="fil8" d="M7.87 30.55c-0.08,0.08 -0.22,0.08 -0.3,-0.01 -0.07,-0.09 -0.07,-0.22 0.02,-0.3 0.43,-0.39 0.87,-0.77 1.33,-1.14 0.45,-0.36 0.92,-0.71 1.39,-1.06 0.11,-0.08 0.24,-0.13 0.37,-0.15 0.14,-0.01 0.27,0.02 0.4,0.08l4.41 2.1c0.1,0.05 0.14,0.18 0.09,0.28 -0.05,0.11 -0.17,0.15 -0.28,0.1l-4.4 -2.1c-0.06,-0.03 -0.12,-0.04 -0.18,-0.04 -0.06,0.01 -0.11,0.03 -0.16,0.07 -0.47,0.34 -0.93,0.69 -1.38,1.05 -0.44,0.36 -0.88,0.73 -1.31,1.12z"/>
   <path class="fil8" d="M12.11 28.77c-0.1,0.05 -0.23,0 -0.28,-0.1 -0.05,-0.11 -0.01,-0.23 0.1,-0.28l1.7 -0.82c0.1,-0.05 0.23,-0.01 0.28,0.1 0.05,0.1 0.01,0.23 -0.1,0.28l-1.7 0.82z"/>
   <path class="fil8" d="M12.83 29.18c-0.1,0.05 -0.23,0.01 -0.28,-0.09 -0.05,-0.11 -0.01,-0.23 0.09,-0.29l0.99 -0.49c0.06,-0.03 0.13,-0.03 0.18,-0.01l2.22 1.09c0.11,0.05 0.15,0.17 0.1,0.28 -0.05,0.1 -0.18,0.15 -0.28,0.1l-2.13 -1.04 -0.89 0.45z"/>
   <path class="fil8" d="M13.51 27.76c0,-0.12 0.09,-0.21 0.21,-0.21 0.12,0 0.21,0.09 0.21,0.21l0 0.73c0,0.12 -0.09,0.22 -0.21,0.22 -0.12,0 -0.21,-0.1 -0.21,-0.22l0 -0.73z"/>
   <path class="fil8" d="M11.94 21.67c0.11,0.05 0.16,0.17 0.11,0.28 -0.04,0.1 -0.16,0.16 -0.27,0.11l-1.7 -0.7c-0.11,-0.04 -0.16,-0.17 -0.11,-0.27 0.04,-0.11 0.16,-0.16 0.27,-0.12l1.7 0.7z"/>
   <path class="fil1" d="M15.4 19.33l7.85 3.82 2.26 4.1c0.12,0.22 0.15,0.36 0.01,0.44 1.09,0.75 1.8,0.22 1.44,-0.43l-2.84 -5.15 -9.22 -4.18 -2.52 2.51 1.44 0.61 1.58 -1.72z"/>
   <path class="fil5" d="M11.86 21.87c1.37,0.54 2.02,0.19 1.96,-0.82l-1.44 -0.61c0.32,1.12 -0.57,1.38 -2.03,0.8l1.51 0.63z"/>
   <path class="fil8" d="M3.4 35.52c0.08,0.08 0.08,0.21 -0.01,0.29 -0.08,0.08 -0.21,0.08 -0.29,0 -0.16,-0.16 -0.29,-0.31 -0.41,-0.48 -0.12,-0.16 -0.23,-0.33 -0.33,-0.52 -0.58,-1.08 -0.89,-2.25 -0.95,-3.44 -0.06,-1.21 0.15,-2.44 0.6,-3.6 0.46,-1.15 1.1,-2.07 1.93,-2.81 0.82,-0.73 1.81,-1.27 2.98,-1.66l4.87 -1.63c0.05,-0.02 0.1,-0.02 0.15,0 0.45,0.18 0.8,0.25 1.08,0.24 0.14,-0.01 0.25,-0.04 0.34,-0.1 0.08,-0.06 0.15,-0.14 0.19,-0.24l0 -0.01c0.05,-0.13 0.07,-0.3 0.06,-0.5 -0.01,-0.06 0.01,-0.11 0.05,-0.15l1.58 -1.72c0.07,-0.08 0.17,-0.09 0.25,-0.05l7.85 3.82c0.04,0.02 0.08,0.05 0.1,0.09l2.26 4.11c0.11,0.22 0.16,0.39 0.09,0.54 -0.07,0.16 -0.23,0.25 -0.53,0.28 -0.12,0.01 -0.22,-0.07 -0.24,-0.19 -0.01,-0.11 0.07,-0.22 0.19,-0.23 0.13,-0.01 0.19,-0.02 0.19,-0.03 0.01,-0.01 -0.02,-0.07 -0.07,-0.17l-2.23 -4.05 -7.65 -3.72 -1.42 1.54c0.01,0.22 -0.02,0.42 -0.09,0.58l0 0.01c-0.07,0.19 -0.19,0.33 -0.34,0.44 -0.15,0.1 -0.34,0.16 -0.56,0.17 -0.32,0.02 -0.71,-0.06 -1.19,-0.24l-4.79 1.61c-1.12,0.37 -2.07,0.88 -2.84,1.58 -0.78,0.69 -1.38,1.56 -1.81,2.65 -0.44,1.1 -0.63,2.27 -0.58,3.42 0.06,1.13 0.36,2.24 0.91,3.26 0.09,0.17 0.19,0.33 0.29,0.47 0.11,0.15 0.23,0.29 0.37,0.44z"/>
   <path class="fil8" d="M12.29 20.64c-0.1,-0.05 -0.15,-0.17 -0.11,-0.28 0.05,-0.11 0.17,-0.16 0.28,-0.11l1.44 0.6c0.11,0.05 0.16,0.17 0.11,0.28 -0.04,0.11 -0.17,0.16 -0.27,0.11l-1.45 -0.6z"/>
   <path class="fil8" d="M17.35 45.49c0.05,0.1 0.01,0.23 -0.09,0.28 -0.1,0.06 -0.23,0.02 -0.29,-0.08l-0.75 -1.42c-0.77,-1.45 -1.35,-3.06 -1.57,-4.69 -0.19,-1.44 -0.11,-2.91 0.37,-4.3 0.49,-1.43 1.27,-2.65 2.28,-3.65 1.07,-1.05 2.38,-1.87 3.87,-2.45l4.28 -1.68c0.1,-0.05 0.23,0.01 0.27,0.12 0.04,0.11 -0.01,0.23 -0.12,0.27l-4.28 1.68c-1.43,0.57 -2.7,1.35 -3.72,2.36 -0.96,0.96 -1.71,2.12 -2.18,3.49 -0.45,1.32 -0.54,2.72 -0.35,4.11 0.21,1.58 0.77,3.14 1.52,4.54l0.76 1.42z"/>
   <path class="fil8" d="M19.43 39c0.12,0.01 0.2,0.11 0.19,0.23 -0.01,0.12 -0.11,0.2 -0.23,0.19 -0.09,-0.01 -0.19,-0.03 -0.28,-0.06 -0.1,-0.02 -0.19,-0.06 -0.28,-0.1 -0.55,-0.29 -0.91,-0.88 -1.05,-1.61 -0.14,-0.7 -0.07,-1.53 0.24,-2.33 0.06,-0.15 0.13,-0.31 0.2,-0.45 0.32,-0.62 0.76,-1.1 1.24,-1.38 0.5,-0.29 1.04,-0.37 1.53,-0.18 0.05,0.02 0.11,0.04 0.16,0.07l0.03 0.01c0.1,0.06 0.14,0.19 0.09,0.29 -0.06,0.1 -0.18,0.14 -0.29,0.09 -0.04,-0.03 -0.09,-0.05 -0.14,-0.07 -0.37,-0.14 -0.78,-0.07 -1.17,0.15 -0.41,0.24 -0.79,0.66 -1.07,1.22 -0.07,0.13 -0.13,0.26 -0.19,0.41 -0.28,0.72 -0.34,1.47 -0.22,2.09 0.12,0.61 0.41,1.09 0.84,1.31 0.06,0.03 0.13,0.06 0.2,0.08 0.06,0.02 0.13,0.03 0.2,0.04z"/>
   <path class="fil8" d="M21.66 33.54c0.55,0.28 0.91,0.87 1.05,1.6 0.14,0.7 0.07,1.53 -0.24,2.33 -0.06,0.16 -0.12,0.31 -0.2,0.45 -0.32,0.62 -0.76,1.1 -1.24,1.38 -0.5,0.29 -1.03,0.37 -1.53,0.18 -0.05,-0.02 -0.1,-0.04 -0.15,-0.07 -0.55,-0.28 -0.92,-0.87 -1.06,-1.6 -0.14,-0.7 -0.07,-1.53 0.24,-2.33 0.06,-0.16 0.13,-0.31 0.2,-0.45 0.32,-0.62 0.76,-1.1 1.24,-1.38 0.5,-0.29 1.04,-0.37 1.53,-0.18 0.06,0.02 0.11,0.04 0.16,0.07zm0.64 1.68c-0.12,-0.6 -0.4,-1.09 -0.83,-1.31l-0.12 -0.05c-0.37,-0.14 -0.78,-0.08 -1.17,0.15 -0.41,0.24 -0.79,0.66 -1.07,1.22 -0.07,0.13 -0.13,0.26 -0.19,0.4 -0.27,0.73 -0.34,1.47 -0.22,2.1 0.12,0.6 0.41,1.09 0.84,1.31l0.11 0.05c0.37,0.14 0.78,0.08 1.17,-0.15 0.41,-0.24 0.79,-0.66 1.08,-1.22 0.07,-0.13 0.13,-0.26 0.18,-0.4 0.28,-0.72 0.34,-1.47 0.22,-2.1z"/>
   <path class="fil8" d="M13.73 39.25c0.21,0.1 0.3,0.36 0.19,0.56 -0.1,0.21 -0.35,0.3 -0.56,0.2l-7.06 -3.49c-0.26,-0.13 -0.48,-0.31 -0.65,-0.53 -0.17,-0.22 -0.28,-0.47 -0.34,-0.76l-1.25 -6.19c-0.05,-0.21 -0.02,-0.43 0.08,-0.62 0.09,-0.19 0.25,-0.35 0.45,-0.44l6.61 -3.13c0.39,-0.19 0.79,-0.28 1.19,-0.27 0.41,0 0.81,0.1 1.19,0.29l1.98 0.99c0.21,0.1 0.29,0.35 0.19,0.56 -0.11,0.21 -0.36,0.3 -0.57,0.19l-1.98 -0.98c-0.27,-0.14 -0.54,-0.21 -0.81,-0.21 -0.28,0 -0.56,0.06 -0.83,0.19l-6.61 3.13c-0.03,0.01 -0.05,0.03 -0.06,0.06 -0.01,0.02 -0.01,0.05 -0.01,0.08l1.26 6.18c0.03,0.16 0.09,0.3 0.18,0.42 0.09,0.11 0.21,0.21 0.35,0.28l7.06 3.49z"/>
   <path class="fil8" d="M6.5 35.91c0.11,0.04 0.17,0.16 0.13,0.27 -0.03,0.11 -0.15,0.17 -0.26,0.13 -0.12,-0.04 -0.23,-0.09 -0.35,-0.14 -0.11,-0.06 -0.22,-0.12 -0.32,-0.19 -0.84,-0.56 -1.39,-1.51 -1.61,-2.66 -0.23,-1.15 -0.13,-2.51 0.3,-3.85 0.03,-0.11 0.15,-0.17 0.26,-0.13 0.11,0.03 0.17,0.15 0.14,0.26 -0.41,1.27 -0.5,2.55 -0.29,3.64 0.21,1.04 0.69,1.9 1.43,2.39 0.09,0.06 0.19,0.11 0.28,0.16 0.09,0.05 0.19,0.09 0.29,0.12zm-1.17 -7.63c-0.05,0.1 -0.18,0.14 -0.28,0.09 -0.1,-0.05 -0.15,-0.18 -0.09,-0.28l0.02 -0.04c0.15,-0.3 0.32,-0.59 0.5,-0.86 0.77,-1.17 1.75,-2.02 2.74,-2.47 1.03,-0.46 2.08,-0.51 2.98,-0.04 0.1,0.05 0.19,0.1 0.29,0.17l0.19 0.14c0.1,0.07 0.11,0.2 0.04,0.29 -0.07,0.1 -0.2,0.11 -0.29,0.04l-0.18 -0.12c-0.07,-0.05 -0.16,-0.1 -0.24,-0.15 -0.78,-0.4 -1.71,-0.36 -2.61,0.05 -0.93,0.42 -1.84,1.22 -2.57,2.33 -0.17,0.25 -0.33,0.52 -0.48,0.81l-0.02 0.04z"/>
   <path class="fil8" d="M6.31 35.8c0.11,0.02 0.19,0.13 0.17,0.25 -0.02,0.11 -0.14,0.19 -0.25,0.17 -0.19,-0.04 -0.38,-0.09 -0.57,-0.17 -0.17,-0.07 -0.35,-0.16 -0.52,-0.28 -1,-0.66 -1.58,-1.89 -1.7,-3.34 -0.12,-1.42 0.19,-3.07 0.98,-4.59 0.74,-1.45 1.78,-2.53 2.87,-3.14 1.13,-0.63 2.32,-0.75 3.33,-0.24 0.1,0.05 0.14,0.18 0.09,0.28 -0.05,0.11 -0.18,0.15 -0.28,0.1 -0.88,-0.44 -1.93,-0.33 -2.93,0.23 -1.03,0.57 -2,1.59 -2.71,2.96 -0.74,1.46 -1.05,3.02 -0.93,4.37 0.11,1.32 0.62,2.43 1.51,3.02 0.15,0.1 0.3,0.18 0.45,0.24 0.16,0.06 0.32,0.11 0.49,0.14z"/>
   <path class="fil8" d="M14.6 17.63c0.17,-0.16 0.44,-0.16 0.6,0 0.16,0.17 0.16,0.44 0,0.6l-2.36 2.35c0.03,0.17 0.03,0.33 0.01,0.48l-0.01 0.04c-0.05,0.3 -0.21,0.52 -0.45,0.67 -0.21,0.14 -0.49,0.2 -0.81,0.19 -0.4,0 -0.89,-0.12 -1.44,-0.34l-4.37 1.46c-1.06,0.36 -1.93,0.86 -2.64,1.53 -0.71,0.68 -1.26,1.53 -1.68,2.57 -0.42,1.08 -0.64,2.2 -0.6,3.3 0.03,1.04 0.29,2.06 0.8,3.01 0.46,0.85 1.29,1.52 2.17,2.01 1.19,0.64 2.47,0.94 3.12,0.87l0.67 -0.07c0.24,-0.02 0.44,0.14 0.47,0.37 0.02,0.24 -0.14,0.44 -0.38,0.47l-0.67 0.07c-0.79,0.09 -2.27,-0.24 -3.61,-0.97 -1.01,-0.55 -1.97,-1.34 -2.51,-2.35 -0.58,-1.07 -0.87,-2.22 -0.91,-3.38 -0.04,-1.22 0.2,-2.46 0.67,-3.64 0.45,-1.16 1.07,-2.11 1.87,-2.87 0.81,-0.76 1.79,-1.32 2.97,-1.72l4.5 -1.51c0.1,-0.03 0.21,-0.04 0.32,0.01 0.51,0.22 0.94,0.33 1.27,0.34 0.15,0 0.27,-0.02 0.34,-0.06 0.04,-0.02 0.06,-0.06 0.07,-0.11l0 -0.02c0.02,-0.09 0.01,-0.21 -0.04,-0.36 -0.04,-0.15 -0.01,-0.31 0.11,-0.43l2.52 -2.51z"/>
   <path class="fil8" d="M14.73 18.32c-0.22,-0.1 -0.31,-0.35 -0.21,-0.56 0.09,-0.21 0.34,-0.31 0.55,-0.21l9.22 4.17c0.09,0.04 0.16,0.11 0.2,0.19l2.84 5.15c0.11,0.2 0.04,0.46 -0.16,0.57 -0.21,0.11 -0.47,0.04 -0.58,-0.17l-2.77 -5.02 -9.09 -4.12z"/>
   <path class="fil8" d="M25.16 28.09c-0.19,-0.13 -0.24,-0.39 -0.11,-0.58 0.13,-0.2 0.39,-0.25 0.59,-0.12 0.32,0.23 0.6,0.3 0.79,0.28 0.07,-0.01 0.13,-0.03 0.16,-0.05l0.01 -0.01c0.01,-0.01 0.02,-0.02 0.02,-0.03 0.01,-0.03 0,-0.07 -0.03,-0.12 -0.11,-0.2 -0.04,-0.46 0.17,-0.57 0.2,-0.11 0.46,-0.04 0.57,0.17 0.14,0.25 0.17,0.51 0.11,0.74 -0.06,0.19 -0.17,0.36 -0.33,0.48l-0.02 0.02c-0.15,0.11 -0.34,0.18 -0.57,0.21 -0.37,0.04 -0.85,-0.07 -1.36,-0.42z"/>
  </g>
 </g>
</svg>
