<?xml version="1.0" encoding="UTF-8"?>
<!DOCTYPE svg PUBLIC "-//W3C//DTD SVG 1.1//EN" "http://www.w3.org/Graphics/SVG/1.1/DTD/svg11.dtd">
<!-- Creator: CorelDRAW 2021.5 -->
<svg xmlns="http://www.w3.org/2000/svg" xml:space="preserve" width="500px" height="243px" version="1.1" style="shape-rendering:geometricPrecision; text-rendering:geometricPrecision; image-rendering:optimizeQuality; fill-rule:evenodd; clip-rule:evenodd"
viewBox="0 0 76.79 37.32"
 xmlns:xlink="http://www.w3.org/1999/xlink"
 xmlns:xodm="http://www.corel.com/coreldraw/odm/2003">
 <defs>
  <style type="text/css">
   <![CDATA[
    .fil5 {fill:dimgray}
    .fil4 {fill:#737373}
    .fil0 {fill:#858585}
    .fil3 {fill:#999999}
    .fil1 {fill:#BFBFBF}
    .fil2 {fill:#5F5F5F;fill-rule:nonzero}
   ]]>
  </style>
 </defs>
 <g id="Слой_x0020_1">
  <metadata id="CorelCorpID_0Corel-Layer"/>
  <g id="_2928719032176">
   <polygon class="fil0" points="62.34,19.93 60.86,17.4 76.36,10.4 76.27,13.62 "/>
   <path class="fil1" d="M19.05 35.14c3.69,-1.39 10.6,-3.99 14.11,-5.32 3.52,-1.32 3.63,-1.37 3.78,-1.38 0.14,-0.02 0.32,-0.02 0.64,0.07 0.32,0.09 0.79,0.27 1.13,0.37 0.34,0.1 0.54,0.14 0.72,0.16 0.17,0.02 0.33,0.01 0.57,-0.05 0.24,-0.06 0.57,-0.17 1.32,-0.45 0.75,-0.27 1.93,-0.7 2.56,-0.94 0.62,-0.24 0.69,-0.3 0.74,-0.38 0.04,-0.09 0.07,-0.2 0.08,-0.31 0.01,-0.11 -0.01,-0.22 -0.09,-0.4 -0.09,-0.19 -0.24,-0.46 -0.54,-0.92 -0.3,-0.45 -0.76,-1.1 -1.04,-1.51 -0.27,-0.41 -0.35,-0.58 -0.4,-0.73 -0.05,-0.14 -0.07,-0.26 -0.05,-0.38 0.01,-0.11 0.06,-0.23 0.16,-0.34 0.1,-0.11 0.25,-0.2 0.67,-0.39 0.42,-0.19 1.11,-0.49 1.82,-0.79 0.7,-0.29 1.43,-0.59 2.18,-0.94 0.74,-0.35 1.52,-0.75 2.51,-1.28 0.99,-0.52 2.21,-1.18 3.31,-1.77 1.11,-0.58 2.11,-1.09 3.48,-1.68 1.37,-0.58 3.12,-1.24 4.98,-1.95 1.86,-0.7 3.83,-1.45 5.61,-2.13 1.79,-0.68 3.4,-1.28 4.81,-1.81 1.4,-0.54 2.6,-1 3.24,-1.25 0.64,-0.25 0.72,-0.28 0.78,-0.32 0.05,-0.05 0.08,-0.09 0.09,-0.19 0.01,-0.09 0,-0.23 0,-0.84 0,-0.6 0,-1.67 -0.01,-2.27 -0.01,-0.6 -0.04,-0.72 -0.12,-0.9 -0.07,-0.17 -0.2,-0.4 -0.33,-0.59 -0.12,-0.18 -0.26,-0.32 -0.5,-0.54 -0.24,-0.23 -0.59,-0.55 -1.01,-0.87 -0.41,-0.31 -0.9,-0.62 -1.35,-0.89 -0.46,-0.28 -0.87,-0.51 -1.19,-0.64 -0.32,-0.13 -0.55,-0.17 -0.77,-0.16 -0.23,0.01 -0.44,0.07 -3.47,1.17 -3.03,1.11 -8.88,3.26 -12.1,4.45 -3.22,1.19 -3.81,1.41 -4.68,1.7 -0.87,0.29 -2.01,0.64 -3.82,1.17 -1.82,0.52 -4.31,1.2 -5.98,1.66 -1.68,0.46 -2.54,0.69 -3.68,1.07 -1.15,0.38 -2.57,0.9 -8.02,2.93 -5.44,2.02 -14.9,5.55 -24.36,9.08 0.56,0.29 1.12,0.57 1.68,0.86 -0.38,0.18 -0.75,0.36 -1.1,0.66 -0.35,0.3 -0.68,0.72 -0.91,1.1 -0.24,0.38 -0.39,0.72 -0.56,1.02 -0.17,0.29 -0.36,0.55 -0.62,0.76 -0.25,0.2 -0.57,0.36 -0.89,0.48 -0.32,0.13 -0.64,0.22 -0.97,0.3 -0.33,0.08 -0.68,0.15 -1.03,0.21 1.17,0.59 2.33,1.18 3.49,1.77 0.54,-0.08 1.07,-0.16 1.56,-0.26 0.49,-0.09 0.93,-0.21 1.27,-0.34 0.34,-0.13 0.56,-0.27 0.77,-0.51 0.2,-0.24 0.38,-0.56 0.52,-0.87 0.14,-0.3 0.25,-0.59 0.37,-0.84 0.13,-0.25 0.26,-0.47 0.45,-0.67 0.19,-0.2 0.43,-0.39 0.7,-0.53 0.27,-0.14 0.57,-0.23 0.87,-0.32 0.45,0.17 0.91,0.35 1.27,0.54 0.35,0.18 0.61,0.37 0.79,0.59 0.19,0.23 0.32,0.5 0.44,0.91 0.12,0.42 0.24,0.98 0.34,2.11 0.11,1.14 0.2,2.85 0.27,3.94 0.06,1.09 0.11,1.56 0.18,1.84 0.08,0.29 0.18,0.39 0.31,0.44 0.13,0.05 0.29,0.05 0.59,-0.04 0.3,-0.09 0.75,-0.28 4.43,-1.67z"/>
   <path class="fil2" d="M18.9 34.74c3.68,-1.4 10.59,-4 14.11,-5.32l0.03 -0.01c3.53,-1.33 3.65,-1.38 3.85,-1.4 0.1,-0.02 0.21,-0.02 0.35,-0.01 0.12,0.02 0.27,0.05 0.45,0.1 0.21,0.06 0.46,0.14 0.7,0.22l0.45 0.15c0.15,0.04 0.27,0.08 0.38,0.1 0.1,0.02 0.18,0.03 0.25,0.04 0.06,0 0.12,0.01 0.19,0 0.07,0 0.14,-0.01 0.24,-0.04 0.1,-0.02 0.23,-0.06 0.43,-0.13 0.24,-0.09 0.5,-0.18 0.84,-0.3l1.33 -0.49c0.49,-0.18 0.95,-0.35 1.22,-0.45 0.29,-0.12 0.45,-0.19 0.53,-0.23l0.01 -0.01c0,-0.02 0.01,-0.05 0.01,-0.07l0 -0.06c-0.01,-0.03 -0.03,-0.08 -0.06,-0.15l-0.01 -0.03c-0.04,-0.07 -0.08,-0.17 -0.15,-0.28 -0.08,-0.14 -0.19,-0.32 -0.34,-0.54 -0.16,-0.24 -0.35,-0.51 -0.52,-0.76 -0.19,-0.26 -0.37,-0.52 -0.52,-0.75 -0.14,-0.21 -0.24,-0.37 -0.3,-0.5 -0.08,-0.13 -0.12,-0.24 -0.15,-0.33l-0.01 -0.03c-0.03,-0.09 -0.05,-0.17 -0.06,-0.25l0 -0.02c-0.01,-0.09 -0.01,-0.18 0,-0.27 0.01,-0.11 0.04,-0.21 0.09,-0.32 0.04,-0.09 0.11,-0.18 0.19,-0.27 0.07,-0.08 0.16,-0.15 0.31,-0.24 0.11,-0.06 0.26,-0.14 0.49,-0.24 0.19,-0.09 0.45,-0.2 0.75,-0.33 0.33,-0.15 0.71,-0.31 1.08,-0.47l0.26 -0.11c0.61,-0.25 1.24,-0.51 1.9,-0.82 0.38,-0.18 0.75,-0.36 1.15,-0.57 0.4,-0.2 0.84,-0.43 1.35,-0.7l1.32 -0.71c0.66,-0.35 1.35,-0.72 1.99,-1.06 0.55,-0.29 1.07,-0.56 1.65,-0.84 0.58,-0.29 1.18,-0.56 1.86,-0.85 1.29,-0.55 2.91,-1.17 4.64,-1.82 3.59,-1.37 7.18,-2.73 10.77,-4.09l3.25 -1.24 0.59 -0.24 0 -1.14c0,-0.6 0,-1.36 -0.01,-1.83 -0.01,-0.28 -0.02,-0.44 -0.03,-0.56 -0.01,-0.07 -0.03,-0.12 -0.06,-0.18 -0.03,-0.08 -0.07,-0.17 -0.12,-0.26l-0.02 -0.02c-0.04,-0.08 -0.09,-0.16 -0.14,-0.23 -0.05,-0.07 -0.11,-0.14 -0.17,-0.21 -0.08,-0.08 -0.16,-0.16 -0.27,-0.27 -0.12,-0.11 -0.26,-0.25 -0.43,-0.39 -0.16,-0.14 -0.35,-0.29 -0.54,-0.44 -0.2,-0.15 -0.42,-0.3 -0.65,-0.45 -0.24,-0.16 -0.47,-0.3 -0.68,-0.42 -0.21,-0.13 -0.42,-0.26 -0.62,-0.36 -0.19,-0.11 -0.36,-0.19 -0.51,-0.25 -0.13,-0.05 -0.24,-0.09 -0.34,-0.11l-0.01 0c-0.08,-0.01 -0.16,-0.02 -0.24,-0.02 -0.07,0.01 -0.15,0.02 -0.56,0.16 -0.43,0.14 -1.24,0.43 -2.77,0.99 -1.4,0.51 -3.65,1.33 -5.98,2.19l-6.42 2.37c-2.93,1.08 -3.51,1.3 -4.39,1.59 -0.44,0.15 -0.95,0.31 -1.57,0.5 -0.67,0.2 -1.41,0.42 -2.28,0.67 -0.83,0.24 -1.92,0.55 -3.04,0.86l-3.22 0.88c-1.47,0.41 -2.28,0.63 -3.38,0.99 -0.58,0.2 -1.23,0.42 -2.38,0.84 -1.25,0.46 -2.95,1.09 -5.62,2.08 -5.25,1.96 -14.25,5.31 -23.38,8.72l-0.06 0.02 0.81 0.42c0.21,0.11 0.29,0.37 0.18,0.58 -0.05,0.1 -0.12,0.16 -0.22,0.2 -0.17,0.08 -0.34,0.17 -0.51,0.26 -0.16,0.1 -0.32,0.2 -0.47,0.33 -0.14,0.12 -0.28,0.27 -0.42,0.43 -0.15,0.19 -0.29,0.39 -0.41,0.57 -0.13,0.22 -0.24,0.43 -0.34,0.62 -0.07,0.14 -0.14,0.27 -0.2,0.38 -0.1,0.17 -0.2,0.32 -0.32,0.47 -0.12,0.15 -0.25,0.29 -0.41,0.41 -0.15,0.12 -0.32,0.23 -0.49,0.32 -0.17,0.09 -0.34,0.17 -0.52,0.23 -0.16,0.07 -0.33,0.13 -0.51,0.18 -0.11,0.04 -0.23,0.07 -0.35,0.1l2.28 1.15 0.65 -0.1c0.25,-0.04 0.49,-0.08 0.75,-0.13 0.24,-0.05 0.48,-0.1 0.69,-0.16 0.19,-0.05 0.36,-0.1 0.5,-0.16 0.14,-0.05 0.26,-0.11 0.35,-0.17 0.09,-0.06 0.17,-0.14 0.25,-0.22 0.08,-0.1 0.16,-0.22 0.24,-0.35 0.08,-0.14 0.15,-0.28 0.22,-0.42 0.06,-0.13 0.12,-0.28 0.18,-0.42l0.01 -0.02c0.06,-0.14 0.12,-0.28 0.19,-0.41 0.06,-0.14 0.14,-0.27 0.22,-0.4 0.08,-0.13 0.18,-0.25 0.29,-0.38 0.12,-0.12 0.25,-0.24 0.39,-0.34 0.13,-0.1 0.28,-0.2 0.44,-0.28 0.3,-0.15 0.61,-0.25 0.93,-0.35l0.04 -0.01c0.1,-0.02 0.19,0 0.27,0.04 0.22,0.08 0.45,0.17 0.65,0.25 0.23,0.1 0.44,0.19 0.63,0.29 0.2,0.1 0.37,0.21 0.53,0.32 0.15,0.12 0.29,0.25 0.41,0.39 0.11,0.14 0.21,0.29 0.3,0.47 0.08,0.17 0.15,0.36 0.22,0.59l0 0.02c0.06,0.22 0.13,0.47 0.19,0.81 0.05,0.34 0.11,0.78 0.16,1.37 0.09,0.92 0.16,2.16 0.22,3.18l0.05 0.77c0.03,0.54 0.06,0.93 0.09,1.2 0.02,0.26 0.05,0.43 0.08,0.55 0.02,0.08 0.04,0.13 0.06,0.15l0.03 0c0.06,0 0.15,-0.02 0.26,-0.05 0.18,-0.06 0.46,-0.16 1.77,-0.66l2.64 -1zm14.41 -4.51c-3.51,1.32 -10.42,3.92 -14.1,5.32l-2.64 1c-1.32,0.5 -1.6,0.6 -1.83,0.67 -0.18,0.06 -0.33,0.09 -0.45,0.1 -0.16,0 -0.29,-0.02 -0.42,-0.07 -0.12,-0.04 -0.23,-0.12 -0.33,-0.23l-0.02 -0.03c-0.09,-0.12 -0.16,-0.26 -0.22,-0.47 -0.04,-0.16 -0.07,-0.37 -0.1,-0.68 -0.03,-0.31 -0.06,-0.7 -0.1,-1.24l-0.04 -0.77c-0.06,-1.03 -0.14,-2.29 -0.22,-3.16 -0.05,-0.54 -0.1,-0.96 -0.16,-1.29 -0.05,-0.31 -0.1,-0.53 -0.16,-0.72l0 -0.02c-0.06,-0.18 -0.11,-0.33 -0.17,-0.46 -0.06,-0.11 -0.12,-0.2 -0.19,-0.29 -0.07,-0.08 -0.16,-0.17 -0.26,-0.25 -0.11,-0.08 -0.24,-0.16 -0.4,-0.24 -0.16,-0.09 -0.36,-0.17 -0.56,-0.26l-0.53 -0.21c-0.23,0.07 -0.45,0.15 -0.65,0.25 -0.11,0.06 -0.21,0.12 -0.31,0.2 -0.1,0.08 -0.2,0.16 -0.27,0.24 -0.08,0.08 -0.15,0.17 -0.21,0.26 -0.06,0.1 -0.11,0.2 -0.17,0.31 -0.05,0.11 -0.11,0.24 -0.16,0.37l-0.01 0.02c-0.06,0.13 -0.12,0.27 -0.2,0.45 -0.08,0.16 -0.16,0.33 -0.26,0.49 -0.1,0.17 -0.21,0.33 -0.33,0.47 -0.12,0.15 -0.26,0.27 -0.42,0.38 -0.15,0.1 -0.32,0.18 -0.51,0.26 -0.19,0.07 -0.39,0.13 -0.6,0.19 -0.23,0.06 -0.48,0.12 -0.74,0.17 -0.23,0.05 -0.5,0.09 -0.78,0.14l-0.8 0.12c-0.09,0.01 -0.18,0 -0.26,-0.04l-3.49 -1.77c-0.12,-0.06 -0.21,-0.17 -0.23,-0.31 -0.05,-0.23 0.11,-0.46 0.34,-0.5 0.34,-0.06 0.68,-0.13 1.01,-0.21 0.15,-0.03 0.3,-0.07 0.46,-0.12 0.15,-0.05 0.3,-0.1 0.45,-0.16 0.15,-0.06 0.29,-0.12 0.43,-0.19 0.13,-0.07 0.25,-0.15 0.35,-0.23 0.1,-0.08 0.19,-0.17 0.28,-0.28 0.08,-0.1 0.16,-0.23 0.24,-0.36 0.06,-0.12 0.12,-0.23 0.18,-0.35 0.11,-0.21 0.23,-0.43 0.38,-0.67 0.13,-0.22 0.3,-0.45 0.48,-0.67 0.16,-0.19 0.33,-0.38 0.52,-0.53 0.14,-0.13 0.29,-0.24 0.44,-0.33l-0.94 -0.49c-0.09,-0.05 -0.16,-0.13 -0.2,-0.23 -0.09,-0.22 0.03,-0.47 0.25,-0.56l0.98 -0.36c9.13,-3.4 18.13,-6.76 23.38,-8.72 2.78,-1.03 4.51,-1.67 5.62,-2.08 1.21,-0.44 1.85,-0.66 2.41,-0.85 1.06,-0.35 1.9,-0.58 3.43,-1l3.21 -0.88c1,-0.28 2.05,-0.58 3.04,-0.86 0.95,-0.27 1.68,-0.49 2.26,-0.67 0.62,-0.19 1.12,-0.35 1.54,-0.49 0.8,-0.26 1.39,-0.48 4.38,-1.58l6.41 -2.37c2.16,-0.79 4.35,-1.6 5.98,-2.2 1.5,-0.54 2.32,-0.83 2.8,-0.99 0.51,-0.17 0.65,-0.19 0.8,-0.2 0.13,0 0.27,0 0.43,0.03l0.01 0c0.16,0.03 0.32,0.08 0.51,0.16 0.18,0.07 0.38,0.17 0.59,0.29 0.2,0.11 0.43,0.23 0.66,0.37 0.24,0.15 0.48,0.3 0.7,0.45 0.23,0.14 0.47,0.31 0.69,0.48 0.23,0.16 0.43,0.33 0.6,0.48 0.18,0.16 0.33,0.3 0.45,0.41 0.13,0.13 0.23,0.22 0.31,0.31 0.1,0.11 0.17,0.2 0.25,0.31 0.06,0.09 0.13,0.19 0.18,0.3l0.02 0.02c0.07,0.12 0.13,0.24 0.17,0.34 0.05,0.12 0.09,0.23 0.11,0.4 0.02,0.15 0.03,0.34 0.04,0.66 0.01,0.47 0.01,1.24 0.01,1.85l0.01 0.84c0,0.3 0,0.4 -0.01,0.48 -0.01,0.09 -0.03,0.16 -0.06,0.23l-0.01 0.03c-0.05,0.09 -0.11,0.16 -0.18,0.22 -0.06,0.04 -0.12,0.08 -0.27,0.14 -0.12,0.05 -0.3,0.12 -0.62,0.25l-1.49 0.57c-4.18,1.59 -8.35,3.17 -12.53,4.75 -1.72,0.66 -3.33,1.26 -4.61,1.81 -0.69,0.29 -1.28,0.56 -1.82,0.83 -0.53,0.26 -1.06,0.54 -1.62,0.84 -0.65,0.34 -1.33,0.7 -1.99,1.05l-1.33 0.72c-0.49,0.26 -0.93,0.49 -1.35,0.71 -0.42,0.21 -0.81,0.4 -1.18,0.57 -0.65,0.3 -1.3,0.58 -1.93,0.84l-1.34 0.57c-0.27,0.12 -0.52,0.23 -0.73,0.32 -0.19,0.09 -0.32,0.15 -0.42,0.21 -0.06,0.04 -0.09,0.06 -0.12,0.09 -0.01,0.01 -0.02,0.03 -0.03,0.04 -0.01,0.02 -0.01,0.04 -0.01,0.06l0 0.06c0,0.03 0.01,0.06 0.02,0.1l0.01 0.02c0.02,0.06 0.04,0.12 0.09,0.2 0.05,0.1 0.14,0.24 0.26,0.43 0.13,0.19 0.31,0.46 0.51,0.74 0.19,0.28 0.39,0.56 0.53,0.77 0.16,0.24 0.27,0.43 0.36,0.58 0.09,0.15 0.15,0.26 0.19,0.36l0.02 0.04c0.05,0.12 0.09,0.22 0.11,0.31 0.02,0.11 0.03,0.19 0.02,0.28l0 0.01c0,0.09 -0.02,0.18 -0.04,0.26 -0.02,0.08 -0.06,0.17 -0.1,0.24 -0.06,0.11 -0.13,0.19 -0.32,0.3 -0.12,0.06 -0.31,0.14 -0.64,0.27 -0.34,0.14 -0.79,0.3 -1.23,0.47l-1.33 0.48 -0.86 0.31c-0.21,0.07 -0.37,0.12 -0.51,0.15 -0.14,0.04 -0.27,0.06 -0.38,0.07 -0.12,0 -0.22,0 -0.33,-0.01 -0.11,-0.01 -0.22,-0.03 -0.35,-0.05 -0.12,-0.03 -0.27,-0.07 -0.46,-0.13 -0.14,-0.04 -0.3,-0.1 -0.47,-0.15 -0.23,-0.08 -0.47,-0.16 -0.65,-0.21 -0.13,-0.04 -0.23,-0.06 -0.31,-0.07 -0.07,0 -0.12,0 -0.16,0 -0.09,0.02 -0.2,0.06 -3.64,1.35l-0.04 0.02zm10.94 -3.24c-0.01,0.01 -0.01,0.02 -0.01,0.01l0.01 -0.01z"/>
   <path class="fil3" d="M36.91 18.73c-5.55,2.17 -14.94,5.58 -24.34,8.99 0.15,0.2 0.26,0.45 0.36,0.8 0.07,0.23 0.13,0.49 0.19,0.87 9.21,-3.34 18.42,-6.68 23.87,-8.82 5.47,-2.14 7.16,-3.07 8.53,-3.82 1.36,-0.75 2.39,-1.32 7.45,-3.2 5.06,-1.88 14.15,-5.07 23.24,-8.26 0,-0.1 0,-0.19 0,-0.27 -0.01,-0.6 -0.04,-0.72 -0.12,-0.9 -0.07,-0.16 -0.19,-0.38 -0.31,-0.56 -8.94,3.14 -17.89,6.28 -22.88,8.14 -4.99,1.85 -6.02,2.42 -7.38,3.17 -1.37,0.76 -3.06,1.69 -8.61,3.86z"/>
   <path class="fil0" d="M36.99 20.57c-5.45,2.14 -14.66,5.48 -23.87,8.82 0.06,0.32 0.11,0.72 0.15,1.24 0.11,1.14 0.2,2.85 0.27,3.94 0.06,1.09 0.11,1.56 0.18,1.84 0.06,0.23 0.15,0.35 0.24,0.41 0.02,0 0.03,0.01 0.04,0.02 0.01,0 0.02,0.01 0.03,0.01 0.13,0.05 0.29,0.05 0.59,-0.04 0.3,-0.09 0.75,-0.28 4.43,-1.67 3.69,-1.39 10.6,-3.99 14.11,-5.32 3.52,-1.32 3.63,-1.37 3.78,-1.38 0.14,-0.02 0.32,-0.02 0.64,0.07 0.32,0.09 0.79,0.27 1.13,0.37 0.34,0.1 0.54,0.14 0.72,0.16 0.17,0.02 0.33,0.01 0.57,-0.05 0.24,-0.06 0.57,-0.17 1.32,-0.45 0.75,-0.27 1.93,-0.7 2.56,-0.94 0.62,-0.24 0.69,-0.3 0.74,-0.38 0.04,-0.09 0.08,-0.2 0.08,-0.31 0.01,-0.11 -0.01,-0.22 -0.09,-0.4 -0.09,-0.19 -0.24,-0.46 -0.54,-0.92 -0.3,-0.45 -0.76,-1.1 -1.04,-1.51 -0.27,-0.41 -0.35,-0.58 -0.4,-0.73 -0.05,-0.14 -0.07,-0.26 -0.05,-0.38 0.01,-0.11 0.06,-0.23 0.16,-0.34 0.1,-0.11 0.25,-0.2 0.67,-0.39 0.42,-0.19 1.11,-0.49 1.82,-0.79 0.7,-0.29 1.43,-0.59 2.18,-0.94 0.74,-0.35 1.52,-0.75 2.51,-1.28 0.99,-0.52 2.21,-1.18 3.31,-1.77 1.11,-0.58 2.11,-1.09 3.48,-1.68 1.37,-0.58 3.12,-1.24 4.98,-1.95 1.86,-0.7 3.83,-1.45 5.61,-2.13 1.79,-0.68 3.4,-1.28 4.81,-1.81 1.4,-0.54 2.6,-1 3.24,-1.25 0.64,-0.25 0.72,-0.28 0.78,-0.32 0.05,-0.05 0.08,-0.09 0.09,-0.19 0.01,-0.09 0,-0.23 0,-0.84 0,-0.52 0,-1.39 -0.01,-2 -9.09,3.19 -18.18,6.38 -23.24,8.26 -5.06,1.88 -6.09,2.45 -7.45,3.2 -1.37,0.75 -3.06,1.68 -8.53,3.82z"/>
   <path class="fil3" d="M10.43 27.89c0,-0.47 0,-0.94 0,-1.41 -0.3,0.09 -0.6,0.18 -0.87,0.32 -0.27,0.14 -0.51,0.33 -0.7,0.53 -0.19,0.2 -0.32,0.42 -0.45,0.67 -0.12,0.25 -0.23,0.54 -0.37,0.84 -0.14,0.31 -0.32,0.63 -0.52,0.87 -0.21,0.24 -0.44,0.38 -0.77,0.51 -0.33,0.13 -0.78,0.25 -1.27,0.34 -0.48,0.1 -1.02,0.18 -1.56,0.26 0,0.45 0,0.9 0,1.35 0.09,-0.02 0.18,-0.03 0.27,-0.04 0.26,-0.04 0.52,-0.08 0.8,-0.13 0.22,-0.04 0.44,-0.08 0.67,-0.14 0.63,-0.14 1.33,-0.35 1.8,-0.51 0.47,-0.16 0.71,-0.28 0.97,-0.7 0.27,-0.42 0.56,-1.14 0.81,-1.63 0.26,-0.48 0.47,-0.71 0.67,-0.86 0.19,-0.15 0.35,-0.21 0.52,-0.27z"/>
   <path class="fil4" d="M10.43 26.48c0,0.47 0,0.94 0,1.41 0.21,0.05 0.42,0.11 0.63,0.22 0.2,0.11 0.39,0.28 0.54,0.45 0.14,0.17 0.23,0.35 0.31,0.64 0.07,0.27 0.14,0.64 0.22,1.57 0.01,0.06 0.01,0.11 0.02,0.17 0.08,1.06 0.19,2.77 0.24,3.7 0.06,0.93 0.07,1.08 0.09,1.19 0.03,0.1 0.06,0.16 0.31,0.32 0.25,0.16 0.71,0.41 1.17,0.67 -0.09,-0.06 -0.18,-0.18 -0.24,-0.41 -0.07,-0.28 -0.12,-0.75 -0.18,-1.84 -0.07,-1.09 -0.16,-2.8 -0.27,-3.94 -0.04,-0.52 -0.09,-0.92 -0.15,-1.24 -0.06,-0.38 -0.12,-0.64 -0.19,-0.87 -0.1,-0.35 -0.21,-0.6 -0.36,-0.8 -0.02,-0.04 -0.05,-0.07 -0.08,-0.11 -0.19,-0.22 -0.44,-0.41 -0.79,-0.59 -0.36,-0.19 -0.82,-0.37 -1.27,-0.54z"/>
   <path class="fil5" d="M10.43 27.89c-0.17,0.06 -0.33,0.12 -0.52,0.27 -0.2,0.15 -0.41,0.38 -0.67,0.86 -0.25,0.49 -0.54,1.21 -0.81,1.63 -0.26,0.42 -0.5,0.54 -0.97,0.7 -0.47,0.16 -1.17,0.37 -1.8,0.51 -0.23,0.06 -0.45,0.1 -0.67,0.14 0.15,0.25 0.31,0.49 0.45,0.65 0.14,0.15 0.26,0.2 0.42,0.23 0.16,0.02 0.34,0.01 1.39,-0.35 1.05,-0.35 2.97,-1.06 4.88,-1.76 -0.08,-0.93 -0.15,-1.3 -0.22,-1.57 -0.08,-0.29 -0.17,-0.47 -0.31,-0.64 -0.15,-0.17 -0.34,-0.34 -0.54,-0.45 -0.21,-0.11 -0.42,-0.17 -0.63,-0.22z"/>
   <path class="fil4" d="M4.5 26.28c0.23,-0.38 0.56,-0.8 0.91,-1.1 0.35,-0.3 0.72,-0.48 1.1,-0.66 -0.56,-0.29 -1.12,-0.57 -1.68,-0.86 -0.1,0.04 -0.21,0.09 -0.35,0.2 -0.13,0.1 -0.31,0.28 -0.41,0.46 -0.11,0.18 -0.15,0.35 -0.17,0.86 -0.01,0.5 0,1.33 0.01,2.17 0.01,-0.02 0.02,-0.04 0.03,-0.05 0.17,-0.3 0.32,-0.64 0.56,-1.02z"/>
   <path class="fil4" d="M3.92 30.82c-1.16,-0.59 -2.32,-1.18 -3.49,-1.77 0.01,0.43 0.02,0.85 0.02,1.28 1.16,0.61 2.32,1.22 3.47,1.84 0,-0.45 0,-0.9 0,-1.35z"/>
   <path class="fil2" d="M10.21 26.48c0,-0.12 0.1,-0.22 0.22,-0.22 0.11,0 0.21,0.1 0.21,0.22l0 1.41c0,0.12 -0.1,0.21 -0.21,0.21 -0.12,0 -0.22,-0.09 -0.22,-0.21l0 -1.41z"/>
   <path class="fil2" d="M3.71 30.82c0,-0.12 0.09,-0.21 0.21,-0.21 0.12,0 0.22,0.09 0.22,0.21l0 1.35c0,0.12 -0.1,0.21 -0.22,0.21 -0.12,0 -0.21,-0.09 -0.21,-0.21l0 -1.35z"/>
   <path class="fil2" d="M4.62 32.23c-0.13,-0.2 -0.06,-0.47 0.14,-0.6 0.2,-0.12 0.47,-0.06 0.59,0.14 0.15,0.23 0.29,0.46 0.4,0.58l0.02 0.02c0.03,0.03 0.05,0.05 0.07,0.06 0.02,0.01 0.05,0.01 0.08,0.02 0.04,0 0.08,0 0.21,-0.02 0.18,-0.05 0.47,-0.13 0.98,-0.31 1.06,-0.36 2.97,-1.05 4.88,-1.75 0.22,-0.08 0.47,0.03 0.55,0.26 0.08,0.22 -0.04,0.47 -0.26,0.55 -1.92,0.7 -3.85,1.41 -4.89,1.76 -0.54,0.18 -0.86,0.28 -1.07,0.33 -0.27,0.06 -0.4,0.05 -0.52,0.04 -0.12,-0.02 -0.24,-0.06 -0.36,-0.12 -0.1,-0.05 -0.2,-0.12 -0.29,-0.22l-0.03 -0.03c-0.17,-0.18 -0.34,-0.45 -0.5,-0.71z"/>
   <path class="fil2" d="M5.87 32.66c0.12,0.01 0.21,0.11 0.21,0.23 -0.01,0.11 -0.11,0.21 -0.23,0.2 -0.14,0 -0.28,-0.01 -0.42,-0.03 -0.15,-0.02 -0.3,-0.06 -0.46,-0.13 -0.16,-0.07 -0.31,-0.17 -0.47,-0.28 -0.14,-0.11 -0.3,-0.23 -0.45,-0.35 -0.09,-0.08 -0.1,-0.22 -0.03,-0.31 0.08,-0.09 0.21,-0.1 0.31,-0.03 0.14,0.12 0.28,0.23 0.42,0.34 0.14,0.09 0.27,0.18 0.39,0.23 0.12,0.06 0.24,0.09 0.36,0.1 0.12,0.02 0.25,0.03 0.37,0.03z"/>
   <path class="fil2" d="M4.66 23.26c0.22,-0.09 0.48,0.01 0.57,0.23 0.09,0.22 -0.01,0.47 -0.23,0.57l-0.13 0.05c-0.03,0.02 -0.07,0.05 -0.12,0.08 -0.05,0.05 -0.12,0.11 -0.18,0.18 -0.05,0.06 -0.1,0.12 -0.13,0.17 -0.03,0.05 -0.05,0.1 -0.07,0.17 -0.02,0.1 -0.03,0.25 -0.04,0.48 0,0.25 0,0.58 0,0.95l0.01 1.2c0.01,0.24 -0.18,0.43 -0.42,0.44 -0.24,0 -0.43,-0.19 -0.44,-0.43l-0.02 -1.21c0,-0.38 0,-0.72 0.01,-0.97 0.01,-0.28 0.02,-0.47 0.06,-0.63 0.03,-0.19 0.09,-0.32 0.17,-0.44 0.06,-0.12 0.14,-0.22 0.23,-0.31 0.09,-0.11 0.19,-0.2 0.28,-0.27 0.09,-0.07 0.18,-0.13 0.26,-0.17 0.09,-0.05 0.14,-0.07 0.19,-0.09z"/>
   <path class="fil2" d="M12.65 27.92c-0.12,0.04 -0.24,-0.02 -0.28,-0.13 -0.04,-0.11 0.02,-0.23 0.13,-0.27l0.05 -0.02c9.37,-3.4 18.74,-6.8 24.28,-8.97 2.77,-1.09 4.58,-1.86 5.86,-2.46 1.28,-0.59 2.04,-1.01 2.72,-1.38l0.02 -0.01c1.36,-0.75 2.4,-1.33 7.39,-3.18 5.01,-1.87 13.95,-5 22.89,-8.14 0.11,-0.04 0.24,0.02 0.28,0.13 0.04,0.12 -0.02,0.24 -0.14,0.28 -8.95,3.14 -17.9,6.28 -22.87,8.13 -4.96,1.84 -5.99,2.41 -7.35,3.16l-0.01 0c-0.68,0.38 -1.45,0.8 -2.75,1.41 -1.29,0.6 -3.1,1.37 -5.88,2.46 -5.54,2.17 -14.91,5.57 -24.3,8.98l-0.04 0.01z"/>
   <path class="fil2" d="M10.32 28.31c-0.24,-0.07 -0.37,-0.3 -0.31,-0.53 0.06,-0.23 0.29,-0.37 0.52,-0.31 0.12,0.03 0.23,0.06 0.35,0.1l0.02 0.01c0.12,0.04 0.24,0.09 0.36,0.15 0.13,0.07 0.25,0.15 0.36,0.25 0.11,0.09 0.22,0.2 0.31,0.31 0.09,0.11 0.17,0.22 0.23,0.36 0.06,0.12 0.11,0.26 0.16,0.43l0.01 0.02c0.04,0.16 0.08,0.35 0.12,0.62 0.04,0.28 0.08,0.66 0.13,1.19 0.08,0.93 0.17,2.46 0.23,3.44l0.07 1.16 0.02 0.19 0.12 0.08c0.13,0.09 0.31,0.19 0.5,0.3l0.69 0.38c0.21,0.11 0.28,0.38 0.17,0.58 -0.12,0.21 -0.38,0.29 -0.59,0.18l-0.69 -0.39c-0.22,-0.13 -0.41,-0.24 -0.54,-0.31 -0.16,-0.11 -0.26,-0.19 -0.33,-0.26 -0.1,-0.12 -0.14,-0.21 -0.16,-0.32l-0.01 -0.02c-0.01,-0.07 -0.03,-0.15 -0.04,-0.34l-0.07 -1.18c-0.06,-0.95 -0.15,-2.43 -0.23,-3.42 -0.05,-0.52 -0.09,-0.88 -0.12,-1.14 -0.04,-0.23 -0.07,-0.39 -0.1,-0.51l-0.01 -0.01c-0.03,-0.12 -0.07,-0.21 -0.11,-0.29 -0.03,-0.07 -0.07,-0.13 -0.12,-0.2 -0.05,-0.06 -0.12,-0.13 -0.19,-0.19 -0.07,-0.06 -0.15,-0.11 -0.22,-0.15 -0.07,-0.04 -0.15,-0.07 -0.22,-0.1l-0.02 0c-0.09,-0.03 -0.19,-0.06 -0.29,-0.08z"/>
   <path class="fil2" d="M0 29.06c0,-0.24 0.19,-0.43 0.43,-0.44 0.23,0 0.43,0.19 0.43,0.43l0.02 1.01 3.12 1.66c0.5,-0.07 1.01,-0.15 1.57,-0.28 0.28,-0.06 0.58,-0.14 0.87,-0.23 0.33,-0.09 0.64,-0.19 0.88,-0.27 0.21,-0.07 0.36,-0.13 0.46,-0.2 0.1,-0.07 0.19,-0.16 0.29,-0.32 0.14,-0.22 0.3,-0.57 0.46,-0.91 0.11,-0.24 0.22,-0.47 0.33,-0.69 0.14,-0.26 0.27,-0.46 0.4,-0.62 0.14,-0.17 0.26,-0.29 0.38,-0.38l0.03 -0.02c0.11,-0.09 0.21,-0.15 0.32,-0.2 0.11,-0.05 0.19,-0.08 0.28,-0.12 0.23,-0.08 0.48,0.03 0.56,0.26 0.08,0.22 -0.03,0.47 -0.25,0.55 -0.08,0.03 -0.16,0.06 -0.22,0.09 -0.05,0.03 -0.11,0.06 -0.17,0.1l-0.02 0.02c-0.07,0.06 -0.15,0.13 -0.23,0.24 -0.1,0.11 -0.2,0.27 -0.31,0.49 -0.09,0.16 -0.2,0.4 -0.32,0.64 -0.17,0.36 -0.34,0.74 -0.51,1.01 -0.17,0.27 -0.33,0.44 -0.54,0.58 -0.19,0.13 -0.39,0.21 -0.66,0.3 -0.25,0.09 -0.57,0.19 -0.92,0.29 -0.29,0.08 -0.61,0.16 -0.92,0.23 -0.65,0.15 -1.21,0.23 -1.78,0.31 -0.08,0.02 -0.17,0 -0.26,-0.04l-3.47 -1.84c-0.13,-0.07 -0.23,-0.21 -0.23,-0.38l-0.02 -1.27z"/>
   <path class="fil2" d="M13.14 29.62c-0.11,0.04 -0.24,-0.02 -0.28,-0.13 -0.04,-0.11 0.02,-0.24 0.13,-0.28 9.23,-3.35 18.46,-6.69 23.92,-8.84 2.73,-1.07 4.52,-1.83 5.79,-2.43 1.27,-0.59 2.03,-1.01 2.71,-1.38l0.02 -0.01c1.36,-0.75 2.4,-1.32 7.47,-3.2 2.55,-0.95 6.09,-2.22 10.11,-3.65 3.96,-1.4 8.55,-3.01 13.13,-4.62 0.11,-0.04 0.24,0.02 0.28,0.14 0.04,0.11 -0.02,0.23 -0.14,0.27 -4.5,1.58 -9,3.16 -13.13,4.62 -4.06,1.44 -7.6,2.71 -10.1,3.64 -5.03,1.87 -6.06,2.44 -7.41,3.18l-0.02 0.01c-0.68,0.38 -1.45,0.8 -2.74,1.4 -1.28,0.59 -3.07,1.36 -5.81,2.44 -5.46,2.14 -14.7,5.49 -23.93,8.84z"/>
   <path class="fil3" d="M10.43 26.48l-3.92 -1.96c-0.38,0.18 -0.75,0.36 -1.1,0.66 -0.35,0.3 -0.68,0.72 -0.91,1.1 -0.24,0.38 -0.39,0.72 -0.56,1.02 -0.01,0.01 -0.02,0.03 -0.03,0.05 -0.16,0.27 -0.34,0.51 -0.59,0.71 -0.25,0.2 -0.57,0.36 -0.89,0.48 -0.32,0.13 -0.64,0.22 -0.97,0.3 -0.33,0.08 -0.68,0.15 -1.03,0.21 1.17,0.59 2.33,1.18 3.49,1.77 0.54,-0.08 1.08,-0.16 1.56,-0.26 0.49,-0.09 0.94,-0.21 1.27,-0.34 0.33,-0.13 0.56,-0.27 0.77,-0.51 0.2,-0.24 0.38,-0.56 0.52,-0.87 0.14,-0.3 0.25,-0.59 0.37,-0.84 0.13,-0.25 0.26,-0.47 0.45,-0.67 0.19,-0.2 0.43,-0.39 0.7,-0.53 0.27,-0.14 0.57,-0.23 0.87,-0.32z"/>
   <path class="fil4" d="M4.28 28.72c0.15,-0.04 0.33,-0.11 0.46,-0.21 0.13,-0.09 0.22,-0.21 0.31,-0.37 0.09,-0.17 0.19,-0.39 0.29,-0.54 0.11,-0.16 0.22,-0.26 0.35,-0.31 0.13,-0.06 0.29,-0.08 0.42,-0.07 0.13,0.02 0.23,0.07 0.32,0.18 0.08,0.1 0.14,0.26 0.15,0.41 0,0.15 -0.04,0.3 -0.11,0.47 -0.07,0.17 -0.18,0.37 -0.31,0.53 -0.13,0.16 -0.3,0.28 -0.54,0.4 -0.23,0.11 -0.53,0.22 -0.82,0.24 -0.29,0.02 -0.56,-0.05 -0.75,-0.13 -0.19,-0.09 -0.3,-0.19 -0.32,-0.28 -0.01,-0.09 0.07,-0.17 0.18,-0.21 0.1,-0.05 0.22,-0.06 0.37,-0.11z"/>
   <path class="fil2" d="M4.23 28.51c0.07,-0.02 0.15,-0.04 0.22,-0.07 0.06,-0.03 0.12,-0.06 0.17,-0.1 0.04,-0.03 0.09,-0.07 0.12,-0.12 0.04,-0.05 0.08,-0.12 0.12,-0.19l0.1 -0.19c0.06,-0.12 0.13,-0.25 0.2,-0.36 0.07,-0.1 0.13,-0.17 0.2,-0.24l0.02 -0.01c0.07,-0.06 0.14,-0.11 0.22,-0.14 0.09,-0.04 0.18,-0.06 0.26,-0.08 0.09,-0.01 0.19,-0.01 0.27,0l0.01 0c0.09,0.01 0.17,0.04 0.24,0.08 0.08,0.04 0.15,0.1 0.22,0.17 0.05,0.08 0.1,0.16 0.14,0.26l0 0.01c0.03,0.09 0.05,0.18 0.05,0.27 0.01,0.1 0,0.2 -0.03,0.29l0 0.01c-0.02,0.09 -0.05,0.18 -0.09,0.27 -0.04,0.09 -0.09,0.19 -0.14,0.29 -0.06,0.1 -0.13,0.2 -0.2,0.29l-0.02 0.01c-0.07,0.09 -0.16,0.17 -0.25,0.24 -0.1,0.07 -0.21,0.14 -0.34,0.2l-0.01 0.01c-0.14,0.06 -0.29,0.13 -0.45,0.17 -0.15,0.04 -0.3,0.07 -0.45,0.08 -0.15,0.01 -0.29,0 -0.43,-0.02l-0.02 0c-0.15,-0.03 -0.29,-0.08 -0.4,-0.13 -0.11,-0.05 -0.21,-0.11 -0.28,-0.17 -0.09,-0.08 -0.15,-0.17 -0.16,-0.27 -0.02,-0.11 0.02,-0.21 0.08,-0.29l0.02 -0.01c0.05,-0.06 0.12,-0.11 0.2,-0.14 0.08,-0.04 0.16,-0.06 0.25,-0.07l0.16 -0.05zm0.4 0.32c-0.09,0.04 -0.19,0.07 -0.28,0.1l-0.18 0.05c-0.07,0.01 -0.13,0.02 -0.18,0.04l-0.01 0.01c0.04,0.03 0.09,0.06 0.16,0.09 0.08,0.04 0.19,0.07 0.3,0.09l0.02 0c0.1,0.02 0.21,0.03 0.33,0.02 0.11,0 0.23,-0.03 0.35,-0.06 0.13,-0.04 0.26,-0.09 0.38,-0.15l0.01 0c0.1,-0.06 0.19,-0.11 0.27,-0.17 0.07,-0.05 0.13,-0.11 0.19,-0.17l0 -0.01c0.06,-0.07 0.11,-0.15 0.16,-0.23 0.05,-0.08 0.09,-0.16 0.12,-0.24 0.03,-0.07 0.05,-0.14 0.07,-0.2l0 -0.01c0.02,-0.06 0.02,-0.11 0.02,-0.17 0,-0.05 -0.01,-0.1 -0.03,-0.15l0 -0.01c-0.02,-0.05 -0.04,-0.09 -0.07,-0.13 -0.02,-0.02 -0.05,-0.05 -0.08,-0.06 -0.03,-0.02 -0.06,-0.03 -0.1,-0.03l0 0c-0.05,-0.01 -0.1,-0.01 -0.15,0 -0.05,0.01 -0.1,0.02 -0.15,0.04 -0.04,0.02 -0.08,0.05 -0.12,0.08l-0.01 0.01c-0.04,0.04 -0.09,0.09 -0.13,0.15 -0.06,0.09 -0.12,0.2 -0.17,0.32l-0.11 0.2c-0.05,0.09 -0.1,0.18 -0.16,0.25 -0.06,0.07 -0.13,0.14 -0.21,0.2 -0.07,0.05 -0.16,0.1 -0.24,0.14z"/>
   <path class="fil2" d="M18.9 34.74c3.68,-1.4 10.59,-4 14.11,-5.32l0.03 -0.01c3.53,-1.33 3.65,-1.38 3.85,-1.4 0.1,-0.02 0.21,-0.02 0.35,-0.01 0.12,0.02 0.27,0.05 0.45,0.1 0.21,0.06 0.46,0.14 0.7,0.22l0.45 0.15c0.15,0.04 0.27,0.08 0.38,0.1 0.1,0.02 0.18,0.03 0.25,0.04 0.06,0 0.12,0.01 0.19,0 0.07,0 0.14,-0.01 0.24,-0.04 0.1,-0.02 0.23,-0.06 0.43,-0.13 0.24,-0.09 0.5,-0.18 0.84,-0.3l1.33 -0.49c0.49,-0.18 0.95,-0.35 1.22,-0.45 0.29,-0.12 0.45,-0.19 0.53,-0.23l0.01 -0.01c0,-0.02 0.01,-0.05 0.01,-0.07l0 -0.06c-0.01,-0.03 -0.03,-0.08 -0.06,-0.15l-0.01 -0.03c-0.04,-0.07 -0.08,-0.17 -0.15,-0.28 -0.08,-0.14 -0.19,-0.32 -0.34,-0.54 -0.16,-0.24 -0.35,-0.51 -0.52,-0.76 -0.19,-0.26 -0.37,-0.52 -0.52,-0.75 -0.14,-0.21 -0.24,-0.37 -0.3,-0.5 -0.08,-0.13 -0.12,-0.24 -0.15,-0.33l-0.01 -0.03c-0.03,-0.09 -0.05,-0.17 -0.06,-0.25l0 -0.02c-0.01,-0.09 -0.01,-0.18 0,-0.27 0.01,-0.11 0.04,-0.21 0.09,-0.32 0.04,-0.09 0.11,-0.18 0.19,-0.27 0.07,-0.08 0.16,-0.15 0.31,-0.24 0.11,-0.06 0.26,-0.14 0.49,-0.24 0.19,-0.09 0.45,-0.2 0.75,-0.33 0.33,-0.15 0.71,-0.31 1.08,-0.47l0.26 -0.11c0.61,-0.25 1.24,-0.51 1.9,-0.82 0.38,-0.18 0.75,-0.36 1.15,-0.57 0.4,-0.2 0.84,-0.43 1.35,-0.7l1.32 -0.71c0.66,-0.35 1.35,-0.72 1.99,-1.06 0.55,-0.29 1.07,-0.56 1.65,-0.84 0.58,-0.29 1.18,-0.56 1.86,-0.85 1.29,-0.55 2.91,-1.17 4.64,-1.82 3.59,-1.37 7.18,-2.73 10.77,-4.09l3.25 -1.24 0.59 -0.24 0 -1.14c0,-0.6 0,-1.36 -0.01,-1.83 -0.01,-0.28 -0.02,-0.44 -0.03,-0.56 -0.01,-0.07 -0.03,-0.12 -0.06,-0.18 -0.03,-0.08 -0.07,-0.17 -0.12,-0.26l-0.02 -0.02c-0.04,-0.08 -0.09,-0.16 -0.14,-0.23 -0.05,-0.07 -0.11,-0.14 -0.17,-0.21 -0.08,-0.08 -0.16,-0.16 -0.27,-0.27 -0.12,-0.11 -0.26,-0.25 -0.43,-0.39 -0.16,-0.14 -0.35,-0.29 -0.54,-0.44 -0.2,-0.15 -0.42,-0.3 -0.65,-0.45 -0.24,-0.16 -0.47,-0.3 -0.68,-0.42 -0.21,-0.13 -0.42,-0.26 -0.62,-0.36 -0.19,-0.11 -0.36,-0.19 -0.51,-0.25 -0.13,-0.05 -0.24,-0.09 -0.34,-0.11l-0.01 0c-0.08,-0.01 -0.16,-0.02 -0.24,-0.02 -0.07,0.01 -0.15,0.02 -0.56,0.16 -0.43,0.14 -1.24,0.43 -2.77,0.99 -1.4,0.51 -3.65,1.33 -5.98,2.19l-6.42 2.37c-2.93,1.08 -3.51,1.3 -4.39,1.59 -0.44,0.15 -0.95,0.31 -1.57,0.5 -0.67,0.2 -1.41,0.42 -2.28,0.67 -0.83,0.24 -1.92,0.55 -3.04,0.86l-3.22 0.88c-1.47,0.41 -2.28,0.63 -3.38,0.99 -0.58,0.2 -1.23,0.42 -2.38,0.84 -1.25,0.46 -2.95,1.09 -5.62,2.08 -5.25,1.96 -14.25,5.31 -23.38,8.72l-0.06 0.02 0.81 0.42c0.21,0.11 0.29,0.37 0.18,0.58 -0.05,0.1 -0.12,0.16 -0.22,0.2 -0.17,0.08 -0.34,0.17 -0.51,0.26 -0.16,0.1 -0.32,0.2 -0.47,0.33 -0.14,0.12 -0.28,0.27 -0.42,0.43 -0.15,0.19 -0.29,0.39 -0.41,0.57 -0.13,0.22 -0.24,0.43 -0.34,0.62 -0.07,0.14 -0.14,0.27 -0.2,0.38 -0.1,0.17 -0.2,0.32 -0.32,0.47 -0.12,0.15 -0.25,0.29 -0.41,0.41 -0.15,0.12 -0.32,0.23 -0.49,0.32 -0.17,0.09 -0.34,0.17 -0.52,0.23 -0.16,0.07 -0.33,0.13 -0.51,0.18 -0.11,0.04 -0.23,0.07 -0.35,0.1l2.28 1.15 0.65 -0.1c0.25,-0.04 0.49,-0.08 0.75,-0.13 0.24,-0.05 0.48,-0.1 0.69,-0.16 0.19,-0.05 0.36,-0.1 0.5,-0.16 0.14,-0.05 0.26,-0.11 0.35,-0.17 0.09,-0.06 0.17,-0.14 0.25,-0.22 0.08,-0.1 0.16,-0.22 0.24,-0.35 0.08,-0.14 0.15,-0.28 0.22,-0.42 0.06,-0.13 0.12,-0.28 0.18,-0.42l0.01 -0.02c0.06,-0.14 0.12,-0.28 0.19,-0.41 0.06,-0.14 0.14,-0.27 0.22,-0.4 0.08,-0.13 0.18,-0.25 0.29,-0.38 0.12,-0.12 0.25,-0.24 0.39,-0.34 0.13,-0.1 0.28,-0.2 0.44,-0.28 0.3,-0.15 0.61,-0.25 0.93,-0.35l0.04 -0.01c0.1,-0.02 0.19,0 0.27,0.04 0.22,0.08 0.45,0.17 0.65,0.25 0.23,0.1 0.44,0.19 0.63,0.29 0.2,0.1 0.37,0.21 0.53,0.32 0.15,0.12 0.29,0.25 0.41,0.39 0.11,0.14 0.21,0.29 0.3,0.47 0.08,0.17 0.15,0.36 0.22,0.59l0 0.02c0.06,0.22 0.13,0.47 0.19,0.81 0.05,0.34 0.11,0.78 0.16,1.37 0.09,0.92 0.16,2.16 0.22,3.18l0.05 0.77c0.03,0.54 0.06,0.93 0.09,1.2 0.02,0.26 0.05,0.43 0.08,0.55 0.02,0.08 0.04,0.13 0.06,0.15l0.03 0c0.06,0 0.15,-0.02 0.26,-0.05 0.18,-0.06 0.46,-0.16 1.77,-0.66l2.64 -1zm14.41 -4.51c-3.51,1.32 -10.42,3.92 -14.1,5.32l-2.64 1c-1.32,0.5 -1.6,0.6 -1.83,0.67 -0.18,0.06 -0.33,0.09 -0.45,0.1 -0.16,0 -0.29,-0.02 -0.42,-0.07 -0.12,-0.04 -0.23,-0.12 -0.33,-0.23l-0.02 -0.03c-0.09,-0.12 -0.16,-0.26 -0.22,-0.47 -0.04,-0.16 -0.07,-0.37 -0.1,-0.68 -0.03,-0.31 -0.06,-0.7 -0.1,-1.24l-0.04 -0.77c-0.06,-1.03 -0.14,-2.29 -0.22,-3.16 -0.05,-0.54 -0.1,-0.96 -0.16,-1.29 -0.05,-0.31 -0.1,-0.53 -0.16,-0.72l0 -0.02c-0.06,-0.18 -0.11,-0.33 -0.17,-0.46 -0.06,-0.11 -0.12,-0.2 -0.19,-0.29 -0.07,-0.08 -0.16,-0.17 -0.26,-0.25 -0.11,-0.08 -0.24,-0.16 -0.4,-0.24 -0.16,-0.09 -0.36,-0.17 -0.56,-0.26l-0.53 -0.21c-0.23,0.07 -0.45,0.15 -0.65,0.25 -0.11,0.06 -0.21,0.12 -0.31,0.2 -0.1,0.08 -0.2,0.16 -0.27,0.24 -0.08,0.08 -0.15,0.17 -0.21,0.26 -0.06,0.1 -0.11,0.2 -0.17,0.31 -0.05,0.11 -0.11,0.24 -0.16,0.37l-0.01 0.02c-0.06,0.13 -0.12,0.27 -0.2,0.45 -0.08,0.16 -0.16,0.33 -0.26,0.49 -0.1,0.17 -0.21,0.33 -0.33,0.47 -0.12,0.15 -0.26,0.27 -0.42,0.38 -0.15,0.1 -0.32,0.18 -0.51,0.26 -0.19,0.07 -0.39,0.13 -0.6,0.19 -0.23,0.06 -0.48,0.12 -0.74,0.17 -0.23,0.05 -0.5,0.09 -0.78,0.14l-0.8 0.12c-0.09,0.01 -0.18,0 -0.26,-0.04l-3.49 -1.77c-0.12,-0.06 -0.21,-0.17 -0.23,-0.31 -0.05,-0.23 0.11,-0.46 0.34,-0.5 0.34,-0.06 0.68,-0.13 1.01,-0.21 0.15,-0.03 0.3,-0.07 0.46,-0.12 0.15,-0.05 0.3,-0.1 0.45,-0.16 0.15,-0.06 0.29,-0.12 0.43,-0.19 0.13,-0.07 0.25,-0.15 0.35,-0.23 0.1,-0.08 0.19,-0.17 0.28,-0.28 0.08,-0.1 0.16,-0.23 0.24,-0.36 0.06,-0.12 0.12,-0.23 0.18,-0.35 0.11,-0.21 0.23,-0.43 0.38,-0.67 0.13,-0.22 0.3,-0.45 0.48,-0.67 0.16,-0.19 0.33,-0.38 0.52,-0.53 0.14,-0.13 0.29,-0.24 0.44,-0.33l-0.94 -0.49c-0.09,-0.05 -0.16,-0.13 -0.2,-0.23 -0.09,-0.22 0.03,-0.47 0.25,-0.56l0.98 -0.36c9.13,-3.4 18.13,-6.76 23.38,-8.72 2.78,-1.03 4.51,-1.67 5.62,-2.08 1.21,-0.44 1.85,-0.66 2.41,-0.85 1.06,-0.35 1.9,-0.58 3.43,-1l3.21 -0.88c1,-0.28 2.05,-0.58 3.04,-0.86 0.95,-0.27 1.68,-0.49 2.26,-0.67 0.62,-0.19 1.12,-0.35 1.54,-0.49 0.8,-0.26 1.39,-0.48 4.38,-1.58l6.41 -2.37c2.16,-0.79 4.35,-1.6 5.98,-2.2 1.5,-0.54 2.32,-0.83 2.8,-0.99 0.51,-0.17 0.65,-0.19 0.8,-0.2 0.13,0 0.27,0 0.43,0.03l0.01 0c0.16,0.03 0.32,0.08 0.51,0.16 0.18,0.07 0.38,0.17 0.59,0.29 0.2,0.11 0.43,0.23 0.66,0.37 0.24,0.15 0.48,0.3 0.7,0.45 0.23,0.14 0.47,0.31 0.69,0.48 0.23,0.16 0.43,0.33 0.6,0.48 0.18,0.16 0.33,0.3 0.45,0.41 0.13,0.13 0.23,0.22 0.31,0.31 0.1,0.11 0.17,0.2 0.25,0.31 0.06,0.09 0.13,0.19 0.18,0.3l0.02 0.02c0.07,0.12 0.13,0.24 0.17,0.34 0.05,0.12 0.09,0.23 0.11,0.4 0.02,0.15 0.03,0.34 0.04,0.66 0.01,0.47 0.01,1.24 0.01,1.85l0.01 0.84c0,0.3 0,0.4 -0.01,0.48 -0.01,0.09 -0.03,0.16 -0.06,0.23l-0.01 0.03c-0.05,0.09 -0.11,0.16 -0.18,0.22 -0.06,0.04 -0.12,0.08 -0.27,0.14 -0.12,0.05 -0.3,0.12 -0.62,0.25l-1.49 0.57c-4.18,1.59 -8.35,3.17 -12.53,4.75 -1.72,0.66 -3.33,1.26 -4.61,1.81 -0.69,0.29 -1.28,0.56 -1.82,0.83 -0.53,0.26 -1.06,0.54 -1.62,0.84 -0.65,0.34 -1.33,0.7 -1.99,1.05l-1.33 0.72c-0.49,0.26 -0.93,0.49 -1.35,0.71 -0.42,0.21 -0.81,0.4 -1.18,0.57 -0.65,0.3 -1.3,0.58 -1.93,0.84l-1.34 0.57c-0.27,0.12 -0.52,0.23 -0.73,0.32 -0.19,0.09 -0.32,0.15 -0.42,0.21 -0.06,0.04 -0.09,0.06 -0.12,0.09 -0.01,0.01 -0.02,0.03 -0.03,0.04 -0.01,0.02 -0.01,0.04 -0.01,0.06l0 0.06c0,0.03 0.01,0.06 0.02,0.1l0.01 0.02c0.02,0.06 0.04,0.12 0.09,0.2 0.05,0.1 0.14,0.24 0.26,0.43 0.13,0.19 0.31,0.46 0.51,0.74 0.19,0.28 0.39,0.56 0.53,0.77 0.16,0.24 0.27,0.43 0.36,0.58 0.09,0.15 0.15,0.26 0.19,0.36l0.02 0.04c0.05,0.12 0.09,0.22 0.11,0.31 0.02,0.11 0.03,0.19 0.02,0.28l0 0.01c0,0.09 -0.02,0.18 -0.04,0.26 -0.02,0.08 -0.06,0.17 -0.1,0.24 -0.06,0.11 -0.13,0.19 -0.32,0.3 -0.12,0.06 -0.31,0.14 -0.64,0.27 -0.34,0.14 -0.79,0.3 -1.23,0.47l-1.33 0.48 -0.86 0.31c-0.21,0.07 -0.37,0.12 -0.51,0.15 -0.14,0.04 -0.27,0.06 -0.38,0.07 -0.12,0 -0.22,0 -0.33,-0.01 -0.11,-0.01 -0.22,-0.03 -0.35,-0.05 -0.12,-0.03 -0.27,-0.07 -0.46,-0.13 -0.14,-0.04 -0.3,-0.1 -0.47,-0.15 -0.23,-0.08 -0.47,-0.16 -0.65,-0.21 -0.13,-0.04 -0.23,-0.06 -0.31,-0.07 -0.07,0 -0.12,0 -0.16,0 -0.09,0.02 -0.2,0.06 -3.64,1.35l-0.04 0.02zm10.94 -3.24c-0.01,0.01 -0.01,0.02 -0.01,0.01l0.01 -0.01z"/>
   <path class="fil2" d="M6.31 24.91c-0.21,-0.11 -0.3,-0.37 -0.19,-0.58 0.11,-0.21 0.37,-0.3 0.58,-0.19l3.92 1.95c0.21,0.11 0.3,0.37 0.19,0.58 -0.1,0.21 -0.36,0.3 -0.58,0.19l-3.92 -1.95z"/>
   <path class="fil2" d="M76.09 13.22c0.22,-0.09 0.47,0 0.57,0.22 0.1,0.22 0,0.47 -0.21,0.57l-13.93 6.31c-0.21,0.1 -0.46,0.01 -0.56,-0.2l-1.48 -2.5c-0.12,-0.21 -0.05,-0.47 0.16,-0.59l15.54 -7.02c0.22,-0.1 0.48,-0.01 0.58,0.21 0.09,0.22 0,0.48 -0.22,0.57l-15.07 6.81 1.05 1.77 13.57 -6.15z"/>
   <path class="fil5" d="M60.69 17.49c0.5,-0.34 1.28,-0.07 1.74,0.6 0.45,0.68 0.41,1.5 -0.09,1.84 -0.5,0.34 -1.28,0.07 -1.73,-0.61 -0.46,-0.67 -0.42,-1.49 0.08,-1.83z"/>
   <path class="fil2" d="M60.45 17.13c0.37,-0.25 0.83,-0.28 1.27,-0.13 0.4,0.14 0.78,0.43 1.06,0.85 0.29,0.41 0.41,0.88 0.39,1.3 -0.02,0.46 -0.21,0.87 -0.56,1.12l-0.05 0.03c-0.36,0.24 -0.81,0.26 -1.24,0.11 -0.39,-0.13 -0.78,-0.42 -1.06,-0.82l-0.02 -0.04c-0.27,-0.41 -0.4,-0.87 -0.38,-1.29 0.02,-0.47 0.22,-0.88 0.59,-1.13zm0.98 0.69c-0.18,-0.07 -0.36,-0.06 -0.5,0.03 -0.13,0.09 -0.2,0.25 -0.21,0.45 -0.01,0.24 0.07,0.52 0.24,0.77l0.01 0.01c0.17,0.26 0.4,0.44 0.63,0.52 0.19,0.06 0.37,0.06 0.5,-0.03l0 0c0.13,-0.09 0.2,-0.26 0.21,-0.45 0.01,-0.25 -0.07,-0.53 -0.24,-0.79 -0.18,-0.25 -0.41,-0.43 -0.64,-0.51z"/>
  </g>
 </g>
</svg>
