<?xml version="1.0" encoding="UTF-8"?>
<!DOCTYPE svg PUBLIC "-//W3C//DTD SVG 1.1//EN" "http://www.w3.org/Graphics/SVG/1.1/DTD/svg11.dtd">
<!-- Creator: CorelDRAW 2021.5 -->
<svg xmlns="http://www.w3.org/2000/svg" xml:space="preserve" width="500px" height="243px" version="1.1" style="shape-rendering:geometricPrecision; text-rendering:geometricPrecision; image-rendering:optimizeQuality; fill-rule:evenodd; clip-rule:evenodd"
viewBox="0 0 73.37 35.72"
 xmlns:xlink="http://www.w3.org/1999/xlink"
 xmlns:xodm="http://www.corel.com/coreldraw/odm/2003">
 <defs>
  <style type="text/css">
   <![CDATA[
    .fil5 {fill:dimgray}
    .fil4 {fill:#737373}
    .fil3 {fill:#858585}
    .fil2 {fill:#999999}
    .fil0 {fill:#BFBFBF}
    .fil1 {fill:#5F5F5F;fill-rule:nonzero}
   ]]>
  </style>
 </defs>
 <g id="Слой_x0020_1">
  <metadata id="CorelCorpID_0Corel-Layer"/>
  <g id="_2122572752448">
   <path class="fil0" d="M18.24 33.63c3.52,-1.33 10.14,-3.82 13.5,-5.09 3.36,-1.26 3.48,-1.31 3.62,-1.32 0.13,-0.02 0.3,-0.01 0.61,0.07 0.31,0.09 0.76,0.25 1.08,0.35 0.32,0.1 0.52,0.14 0.69,0.15 0.17,0.02 0.31,0.02 0.55,-0.04 0.23,-0.06 0.54,-0.17 1.26,-0.43 0.72,-0.26 1.85,-0.67 2.45,-0.9 0.59,-0.24 0.66,-0.29 0.7,-0.37 0.05,-0.08 0.08,-0.19 0.08,-0.29 0.01,-0.11 -0.01,-0.21 -0.09,-0.39 -0.08,-0.18 -0.22,-0.44 -0.51,-0.87 -0.29,-0.44 -0.73,-1.06 -0.99,-1.45 -0.26,-0.39 -0.34,-0.56 -0.39,-0.7 -0.05,-0.14 -0.06,-0.25 -0.05,-0.36 0.02,-0.11 0.06,-0.23 0.16,-0.33 0.09,-0.1 0.24,-0.19 0.64,-0.37 0.4,-0.19 1.06,-0.47 1.74,-0.76 0.67,-0.28 1.37,-0.57 2.08,-0.9 0.72,-0.33 1.46,-0.71 2.41,-1.22 0.95,-0.51 2.11,-1.14 3.17,-1.7 1.06,-0.55 2.02,-1.04 3.33,-1.6 1.31,-0.56 2.99,-1.19 4.77,-1.87 1.78,-0.67 3.66,-1.39 5.37,-2.04 1.71,-0.65 3.25,-1.23 4.59,-1.74 1.35,-0.51 2.5,-0.95 3.11,-1.19 0.62,-0.24 0.69,-0.27 0.74,-0.31 0.06,-0.04 0.08,-0.09 0.09,-0.18 0.01,-0.09 0.01,-0.22 0,-0.8 0,-0.58 0,-1.6 -0.01,-2.17 -0.01,-0.58 -0.04,-0.69 -0.11,-0.86 -0.07,-0.17 -0.19,-0.39 -0.31,-0.57 -0.13,-0.17 -0.25,-0.3 -0.48,-0.52 -0.23,-0.22 -0.57,-0.53 -0.97,-0.83 -0.4,-0.3 -0.87,-0.6 -1.3,-0.86 -0.43,-0.26 -0.83,-0.48 -1.14,-0.6 -0.3,-0.13 -0.52,-0.16 -0.74,-0.16 -0.21,0.01 -0.41,0.06 -3.31,1.12 -2.9,1.06 -8.5,3.13 -11.58,4.26 -3.08,1.14 -3.65,1.35 -4.48,1.63 -0.83,0.27 -1.93,0.61 -3.66,1.11 -1.74,0.5 -4.12,1.16 -5.73,1.6 -1.6,0.44 -2.42,0.66 -3.52,1.02 -1.09,0.36 -2.46,0.87 -7.67,2.8 -5.21,1.94 -14.26,5.32 -23.32,8.69 0.54,0.28 1.07,0.56 1.61,0.83 -0.36,0.17 -0.72,0.35 -1.05,0.63 -0.34,0.29 -0.65,0.69 -0.88,1.06 -0.22,0.36 -0.37,0.68 -0.53,0.97 -0.16,0.28 -0.34,0.53 -0.59,0.72 -0.24,0.2 -0.55,0.35 -0.86,0.47 -0.3,0.12 -0.61,0.21 -0.92,0.29 -0.32,0.07 -0.65,0.14 -0.99,0.2 1.12,0.56 2.23,1.13 3.35,1.69 0.51,-0.08 1.02,-0.15 1.49,-0.25 0.47,-0.09 0.89,-0.2 1.21,-0.32 0.32,-0.13 0.54,-0.27 0.73,-0.49 0.2,-0.23 0.37,-0.54 0.51,-0.84 0.13,-0.29 0.24,-0.56 0.35,-0.8 0.12,-0.24 0.25,-0.45 0.43,-0.64 0.18,-0.2 0.42,-0.38 0.67,-0.51 0.26,-0.13 0.55,-0.22 0.83,-0.31 0.44,0.17 0.88,0.34 1.22,0.52 0.34,0.17 0.58,0.35 0.76,0.57 0.18,0.22 0.3,0.47 0.42,0.87 0.11,0.4 0.23,0.93 0.32,2.02 0.1,1.09 0.19,2.73 0.26,3.77 0.06,1.04 0.1,1.49 0.17,1.76 0.08,0.27 0.18,0.37 0.3,0.42 0.13,0.05 0.27,0.05 0.56,-0.04 0.29,-0.09 0.72,-0.26 4.25,-1.6z"/>
   <path class="fil1" d="M18.09 33.25c3.53,-1.33 10.14,-3.82 13.5,-5.09l0.04 -0.01c3.37,-1.28 3.49,-1.32 3.67,-1.34 0.1,-0.02 0.21,-0.02 0.34,-0.01 0.12,0.02 0.26,0.04 0.44,0.09 0.19,0.06 0.43,0.14 0.66,0.22l0.43 0.14c0.15,0.04 0.27,0.07 0.37,0.09 0.09,0.03 0.17,0.04 0.24,0.04 0.06,0.01 0.12,0.01 0.18,0.01 0.06,-0.01 0.14,-0.02 0.23,-0.04 0.09,-0.03 0.22,-0.06 0.41,-0.13 0.23,-0.08 0.48,-0.17 0.81,-0.29l1.27 -0.46c0.47,-0.17 0.9,-0.34 1.17,-0.44 0.28,-0.11 0.43,-0.17 0.51,-0.22l0 -0.01c0.01,-0.02 0.01,-0.04 0.01,-0.07 0,-0.02 0,-0.03 0,-0.05 -0.01,-0.03 -0.03,-0.08 -0.06,-0.14l-0.01 -0.03c-0.03,-0.07 -0.08,-0.16 -0.14,-0.27 -0.08,-0.14 -0.18,-0.3 -0.32,-0.52 -0.16,-0.23 -0.33,-0.48 -0.5,-0.73 -0.18,-0.25 -0.35,-0.49 -0.5,-0.71 -0.13,-0.21 -0.22,-0.36 -0.29,-0.48 -0.07,-0.13 -0.11,-0.23 -0.14,-0.32l-0.01 -0.02c-0.03,-0.09 -0.05,-0.17 -0.06,-0.24l0 -0.02c-0.01,-0.09 -0.01,-0.17 0,-0.26 0.02,-0.1 0.04,-0.21 0.09,-0.3 0.04,-0.1 0.1,-0.18 0.18,-0.26 0.07,-0.08 0.16,-0.15 0.3,-0.23 0.1,-0.06 0.25,-0.14 0.47,-0.24 0.18,-0.08 0.43,-0.19 0.71,-0.32 0.32,-0.14 0.68,-0.29 1.04,-0.44l0.25 -0.1c0.59,-0.25 1.18,-0.5 1.82,-0.79l0.03 -0.02c0.32,-0.15 0.67,-0.32 1.07,-0.52 0.38,-0.2 0.8,-0.42 1.29,-0.68l1.27 -0.67c0.62,-0.34 1.28,-0.69 1.9,-1.02 0.52,-0.28 1.02,-0.54 1.58,-0.81 0.55,-0.27 1.12,-0.54 1.78,-0.81 1.23,-0.53 2.78,-1.12 4.44,-1.75 3.44,-1.3 6.87,-2.6 10.31,-3.91l3.1 -1.18 0.57 -0.23 0 -1.1c0,-0.57 0,-1.29 -0.01,-1.75 -0.01,-0.26 -0.02,-0.42 -0.03,-0.53 -0.01,-0.07 -0.03,-0.12 -0.05,-0.17 -0.03,-0.08 -0.08,-0.16 -0.12,-0.25l-0.02 -0.02c-0.04,-0.08 -0.09,-0.15 -0.13,-0.22 -0.05,-0.07 -0.1,-0.14 -0.17,-0.2 -0.07,-0.08 -0.15,-0.16 -0.26,-0.26 -0.11,-0.11 -0.25,-0.24 -0.4,-0.37 -0.16,-0.14 -0.34,-0.29 -0.53,-0.43 -0.18,-0.14 -0.39,-0.28 -0.61,-0.43 -0.23,-0.15 -0.45,-0.28 -0.65,-0.4 -0.21,-0.13 -0.41,-0.24 -0.6,-0.35 -0.18,-0.09 -0.35,-0.18 -0.48,-0.23 -0.13,-0.05 -0.24,-0.09 -0.33,-0.1l-0.01 -0.01c-0.08,-0.01 -0.16,-0.01 -0.23,-0.01 -0.07,0 -0.15,0.01 -0.54,0.14 -0.41,0.14 -1.19,0.42 -2.65,0.95 -1.34,0.49 -3.49,1.28 -5.72,2.1l-6.14 2.27c-2.81,1.03 -3.37,1.24 -4.21,1.52 -0.38,0.13 -0.86,0.28 -1.5,0.48 -0.64,0.19 -1.35,0.4 -2.18,0.64 -0.8,0.23 -1.84,0.52 -2.91,0.82l-3.08 0.85c-1.41,0.39 -2.19,0.6 -3.24,0.95 -0.56,0.18 -1.17,0.4 -2.28,0.8 -1.19,0.44 -2.82,1.04 -5.37,1.99 -5.03,1.87 -13.65,5.08 -22.39,8.34l-0.06 0.02 0.78 0.4c0.2,0.11 0.28,0.36 0.18,0.56 -0.05,0.09 -0.13,0.16 -0.21,0.19 -0.17,0.08 -0.33,0.16 -0.49,0.25 -0.16,0.09 -0.31,0.19 -0.46,0.32 -0.13,0.11 -0.27,0.26 -0.39,0.41 -0.15,0.18 -0.28,0.37 -0.39,0.55 -0.14,0.21 -0.24,0.41 -0.33,0.59 -0.07,0.13 -0.14,0.26 -0.2,0.36 -0.09,0.16 -0.19,0.31 -0.3,0.45 -0.11,0.14 -0.24,0.28 -0.39,0.4 -0.15,0.11 -0.31,0.21 -0.47,0.3 -0.16,0.09 -0.33,0.16 -0.5,0.22 -0.16,0.07 -0.32,0.12 -0.48,0.17 -0.12,0.04 -0.23,0.07 -0.34,0.1l2.17 1.1 0.63 -0.09c0.24,-0.04 0.47,-0.08 0.72,-0.13 0.23,-0.05 0.45,-0.1 0.66,-0.15 0.18,-0.05 0.35,-0.1 0.48,-0.16 0.13,-0.05 0.24,-0.1 0.33,-0.16 0.09,-0.06 0.17,-0.13 0.24,-0.21 0.08,-0.1 0.16,-0.21 0.23,-0.34l0.01 -0.02c0.07,-0.12 0.14,-0.25 0.2,-0.38 0.06,-0.12 0.12,-0.26 0.18,-0.4l0.01 -0.02c0.06,-0.14 0.11,-0.26 0.17,-0.39 0.07,-0.13 0.14,-0.26 0.22,-0.38 0.08,-0.13 0.17,-0.25 0.28,-0.36 0.11,-0.12 0.23,-0.23 0.37,-0.34 0.12,-0.09 0.27,-0.18 0.41,-0.26 0.29,-0.15 0.59,-0.24 0.9,-0.33l0.04 -0.01c0.09,-0.02 0.18,-0.01 0.26,0.03 0.21,0.08 0.42,0.16 0.62,0.25 0.22,0.09 0.43,0.18 0.61,0.27 0.18,0.1 0.35,0.2 0.49,0.31 0.16,0.11 0.28,0.23 0.4,0.37 0.11,0.13 0.2,0.28 0.28,0.45 0.08,0.16 0.15,0.35 0.21,0.56l0.01 0.02c0.06,0.21 0.12,0.46 0.17,0.78 0.06,0.32 0.11,0.74 0.17,1.3 0.08,0.89 0.15,2.08 0.2,3.05l0.05 0.74c0.03,0.52 0.06,0.89 0.08,1.15 0.03,0.25 0.05,0.41 0.08,0.53 0.02,0.07 0.04,0.11 0.06,0.14l0.03 0c0.06,0 0.14,-0.02 0.25,-0.05 0.18,-0.06 0.44,-0.16 1.7,-0.63l2.52 -0.96zm13.79 -4.32c-3.36,1.27 -9.97,3.76 -13.5,5.09l-2.52 0.96c-1.26,0.48 -1.53,0.58 -1.75,0.65 -0.18,0.05 -0.32,0.08 -0.43,0.09 -0.16,0.01 -0.28,-0.02 -0.4,-0.06 -0.12,-0.05 -0.24,-0.13 -0.34,-0.26 -0.09,-0.11 -0.16,-0.25 -0.21,-0.44 -0.04,-0.16 -0.07,-0.36 -0.1,-0.66 -0.03,-0.29 -0.06,-0.67 -0.09,-1.18l-0.04 -0.74c-0.06,-0.99 -0.13,-2.19 -0.21,-3.02 -0.04,-0.52 -0.1,-0.92 -0.15,-1.24 -0.05,-0.3 -0.1,-0.51 -0.16,-0.69l0 -0.01c-0.05,-0.18 -0.1,-0.33 -0.16,-0.44 -0.05,-0.11 -0.11,-0.2 -0.18,-0.28 -0.07,-0.09 -0.15,-0.17 -0.25,-0.24 -0.11,-0.08 -0.23,-0.16 -0.38,-0.23 -0.16,-0.09 -0.35,-0.17 -0.54,-0.25l-0.51 -0.2c-0.21,0.07 -0.43,0.14 -0.62,0.24 -0.1,0.05 -0.2,0.11 -0.3,0.19 -0.09,0.07 -0.18,0.15 -0.26,0.23 -0.07,0.08 -0.13,0.16 -0.19,0.25 -0.06,0.09 -0.11,0.18 -0.16,0.29 -0.06,0.11 -0.11,0.23 -0.16,0.36l-0.01 0.02c-0.05,0.12 -0.11,0.25 -0.19,0.42 -0.07,0.15 -0.15,0.3 -0.23,0.45l-0.02 0.03c-0.09,0.16 -0.2,0.31 -0.31,0.44 -0.13,0.15 -0.26,0.27 -0.41,0.36 -0.14,0.1 -0.3,0.18 -0.49,0.25 -0.17,0.07 -0.37,0.13 -0.57,0.19 -0.22,0.06 -0.46,0.11 -0.71,0.16 -0.22,0.05 -0.48,0.09 -0.75,0.13l-0.76 0.12c-0.09,0.01 -0.17,0 -0.25,-0.04l-3.34 -1.69c-0.11,-0.06 -0.2,-0.17 -0.22,-0.3 -0.04,-0.22 0.1,-0.44 0.33,-0.48 0.32,-0.06 0.65,-0.12 0.96,-0.19 0.15,-0.04 0.3,-0.08 0.44,-0.13 0.14,-0.04 0.29,-0.09 0.43,-0.15 0.14,-0.05 0.28,-0.11 0.41,-0.18 0.13,-0.07 0.24,-0.14 0.34,-0.22 0.1,-0.08 0.18,-0.17 0.26,-0.26 0.09,-0.11 0.16,-0.22 0.23,-0.35 0.07,-0.11 0.12,-0.22 0.18,-0.33 0.1,-0.2 0.22,-0.42 0.36,-0.65 0.13,-0.21 0.29,-0.43 0.46,-0.64 0.15,-0.18 0.32,-0.36 0.5,-0.51 0.14,-0.12 0.28,-0.22 0.43,-0.31l-0.91 -0.47c-0.08,-0.04 -0.16,-0.12 -0.19,-0.22 -0.08,-0.22 0.03,-0.45 0.24,-0.53l0.93 -0.35c8.74,-3.26 17.36,-6.47 22.39,-8.34 2.66,-0.99 4.31,-1.61 5.38,-2 1.15,-0.42 1.77,-0.63 2.3,-0.81 1.01,-0.33 1.82,-0.56 3.28,-0.96l3.08 -0.85c0.95,-0.26 1.96,-0.55 2.9,-0.82 0.92,-0.26 1.62,-0.46 2.17,-0.63 0.54,-0.17 1.03,-0.33 1.48,-0.48 0.76,-0.25 1.32,-0.45 4.18,-1.51l6.15 -2.27c2.06,-0.76 4.16,-1.53 5.72,-2.1 1.43,-0.52 2.21,-0.8 2.68,-0.95 0.49,-0.16 0.62,-0.18 0.76,-0.19 0.13,0 0.26,0 0.41,0.03l0.02 0c0.14,0.03 0.3,0.08 0.48,0.15 0.17,0.07 0.36,0.17 0.56,0.28 0.2,0.1 0.41,0.22 0.63,0.36 0.23,0.14 0.47,0.28 0.68,0.42 0.22,0.14 0.44,0.3 0.66,0.46 0.21,0.16 0.4,0.32 0.57,0.46 0.17,0.15 0.32,0.29 0.43,0.4 0.13,0.12 0.22,0.21 0.3,0.3 0.09,0.09 0.16,0.18 0.23,0.29 0.07,0.09 0.13,0.18 0.18,0.28l0.02 0.03c0.06,0.11 0.12,0.22 0.16,0.32 0.05,0.12 0.09,0.22 0.11,0.39 0.02,0.13 0.03,0.32 0.04,0.63 0,0.45 0.01,1.19 0.01,1.76l0 0.81c0,0.28 0,0.38 -0.01,0.46 -0.01,0.08 -0.02,0.15 -0.05,0.22l-0.02 0.03c-0.04,0.08 -0.1,0.15 -0.17,0.21 -0.05,0.04 -0.11,0.07 -0.25,0.13 -0.11,0.05 -0.29,0.12 -0.6,0.24l-1.42 0.55c-4,1.52 -8,3.03 -12,4.55 -1.64,0.62 -3.18,1.21 -4.41,1.73 -0.66,0.28 -1.22,0.54 -1.74,0.79 -0.51,0.25 -1.02,0.52 -1.56,0.8 -0.61,0.33 -1.27,0.68 -1.89,1.01l-1.28 0.69c-0.47,0.25 -0.89,0.47 -1.29,0.67 -0.37,0.19 -0.72,0.37 -1.1,0.54l-0.03 0.02c-0.62,0.28 -1.24,0.55 -1.85,0.8l-1.28 0.54c-0.26,0.12 -0.5,0.22 -0.7,0.31 -0.18,0.08 -0.3,0.15 -0.4,0.2 -0.06,0.04 -0.09,0.06 -0.11,0.08 -0.02,0.02 -0.03,0.03 -0.03,0.05 -0.01,0.02 -0.02,0.04 -0.02,0.05l0 0.06c0.01,0.03 0.01,0.06 0.02,0.09l0.01 0.03c0.02,0.05 0.04,0.11 0.09,0.19 0.05,0.1 0.13,0.23 0.25,0.41 0.12,0.18 0.3,0.44 0.49,0.7 0.18,0.27 0.37,0.55 0.51,0.75 0.15,0.22 0.26,0.4 0.34,0.55 0.08,0.14 0.14,0.25 0.18,0.35l0.02 0.03c0.05,0.11 0.08,0.21 0.1,0.3 0.03,0.1 0.03,0.18 0.03,0.27l0 0.01c-0.01,0.08 -0.02,0.16 -0.04,0.24 -0.02,0.07 -0.05,0.14 -0.08,0.2l-0.02 0.04c-0.06,0.09 -0.12,0.18 -0.31,0.28 -0.11,0.06 -0.29,0.14 -0.6,0.26 -0.34,0.13 -0.76,0.29 -1.19,0.45l-1.27 0.46 -0.82 0.29c-0.21,0.07 -0.35,0.12 -0.49,0.15 -0.14,0.04 -0.25,0.06 -0.36,0.06 -0.11,0.01 -0.21,0.01 -0.32,0 -0.11,-0.01 -0.21,-0.03 -0.34,-0.06 -0.11,-0.02 -0.25,-0.06 -0.43,-0.11 -0.14,-0.04 -0.29,-0.1 -0.45,-0.15 -0.22,-0.07 -0.45,-0.15 -0.62,-0.2 -0.13,-0.04 -0.23,-0.05 -0.31,-0.06 -0.06,-0.01 -0.1,-0.01 -0.14,0 -0.09,0.01 -0.2,0.05 -3.49,1.29l-0.04 0.01zm10.47 -3.1c0,0.01 -0.01,0.02 0,0.01l0 -0.01z"/>
   <path class="fil2" d="M35.33 17.93c-5.31,2.07 -14.3,5.34 -23.29,8.6 0.14,0.2 0.24,0.43 0.34,0.77 0.06,0.21 0.12,0.47 0.18,0.83 8.82,-3.2 17.63,-6.39 22.85,-8.44 5.23,-2.05 6.85,-2.94 8.16,-3.66 1.3,-0.72 2.29,-1.26 7.13,-3.06 4.84,-1.8 13.55,-4.86 22.25,-7.91 0,-0.09 -0.01,-0.18 -0.01,-0.25 -0.01,-0.58 -0.04,-0.69 -0.11,-0.86 -0.07,-0.16 -0.18,-0.37 -0.29,-0.54 -8.57,3.01 -17.13,6.01 -21.91,7.79 -4.77,1.77 -5.76,2.32 -7.06,3.04 -1.31,0.72 -2.93,1.61 -8.24,3.69z"/>
   <path class="fil3" d="M35.41 19.69c-5.22,2.05 -14.03,5.24 -22.85,8.44 0.05,0.31 0.1,0.69 0.14,1.19 0.1,1.09 0.19,2.73 0.26,3.77 0.06,1.04 0.1,1.49 0.17,1.76 0.06,0.22 0.14,0.33 0.24,0.39 0.01,0.01 0.02,0.01 0.03,0.02 0.01,0 0.02,0.01 0.03,0.01 0.13,0.05 0.27,0.05 0.56,-0.04 0.29,-0.09 0.72,-0.26 4.25,-1.6 3.52,-1.33 10.14,-3.82 13.5,-5.09 3.36,-1.26 3.48,-1.31 3.62,-1.32 0.13,-0.02 0.3,-0.01 0.61,0.07 0.31,0.09 0.76,0.25 1.08,0.35 0.32,0.1 0.52,0.14 0.69,0.15 0.17,0.02 0.31,0.02 0.55,-0.04 0.23,-0.06 0.54,-0.17 1.26,-0.43 0.72,-0.26 1.85,-0.67 2.45,-0.9 0.59,-0.24 0.66,-0.29 0.7,-0.37 0.05,-0.08 0.08,-0.19 0.08,-0.29 0.01,-0.11 -0.01,-0.21 -0.09,-0.39 -0.08,-0.18 -0.22,-0.44 -0.51,-0.87 -0.29,-0.44 -0.73,-1.06 -0.99,-1.45 -0.26,-0.39 -0.34,-0.56 -0.39,-0.7 -0.05,-0.14 -0.06,-0.25 -0.05,-0.36 0.02,-0.11 0.06,-0.23 0.16,-0.33 0.09,-0.1 0.24,-0.19 0.64,-0.37 0.4,-0.19 1.06,-0.47 1.74,-0.76 0.67,-0.28 1.37,-0.57 2.08,-0.9 0.72,-0.33 1.46,-0.71 2.41,-1.22 0.95,-0.51 2.11,-1.14 3.17,-1.7 1.06,-0.55 2.02,-1.04 3.33,-1.6 1.31,-0.56 2.99,-1.19 4.77,-1.87 1.78,-0.67 3.66,-1.39 5.37,-2.04 1.71,-0.65 3.25,-1.23 4.59,-1.74 1.35,-0.51 2.5,-0.95 3.11,-1.19 0.62,-0.24 0.69,-0.27 0.74,-0.31 0.06,-0.04 0.08,-0.09 0.09,-0.18 0.01,-0.09 0.01,-0.22 0,-0.8 0,-0.5 0,-1.33 0,-1.92 -8.7,3.05 -17.41,6.11 -22.25,7.91 -4.84,1.8 -5.83,2.34 -7.13,3.06 -1.31,0.72 -2.93,1.61 -8.16,3.66z"/>
   <path class="fil2" d="M9.98 26.69c0,-0.45 0,-0.9 0,-1.35 -0.28,0.09 -0.57,0.18 -0.83,0.31 -0.25,0.13 -0.49,0.31 -0.67,0.51 -0.18,0.19 -0.31,0.4 -0.43,0.64 -0.11,0.24 -0.22,0.51 -0.35,0.8 -0.14,0.3 -0.31,0.61 -0.51,0.84 -0.19,0.22 -0.41,0.36 -0.73,0.49 -0.32,0.12 -0.74,0.23 -1.21,0.32 -0.47,0.1 -0.98,0.17 -1.49,0.25 0,0.43 0,0.86 0,1.29 0.08,-0.01 0.16,-0.03 0.25,-0.04 0.25,-0.04 0.5,-0.07 0.76,-0.12 0.21,-0.04 0.43,-0.08 0.65,-0.13 0.6,-0.14 1.27,-0.34 1.72,-0.49 0.45,-0.16 0.68,-0.27 0.93,-0.67 0.25,-0.4 0.53,-1.1 0.78,-1.56 0.24,-0.46 0.45,-0.68 0.63,-0.83 0.18,-0.14 0.34,-0.2 0.5,-0.26z"/>
   <path class="fil4" d="M9.98 25.34c0,0.45 0,0.9 0,1.35 0.2,0.06 0.41,0.11 0.6,0.22 0.2,0.1 0.38,0.26 0.52,0.43 0.13,0.16 0.22,0.33 0.3,0.61 0.07,0.26 0.14,0.61 0.21,1.5 0.01,0.06 0.01,0.11 0.02,0.17 0.08,1.01 0.18,2.65 0.23,3.54 0.06,0.89 0.07,1.03 0.09,1.13 0.02,0.1 0.05,0.16 0.29,0.31 0.24,0.15 0.68,0.39 1.13,0.64 -0.1,-0.06 -0.18,-0.17 -0.24,-0.39 -0.07,-0.27 -0.11,-0.72 -0.17,-1.76 -0.07,-1.04 -0.16,-2.68 -0.26,-3.77 -0.04,-0.5 -0.09,-0.88 -0.14,-1.19 -0.06,-0.36 -0.12,-0.62 -0.18,-0.83 -0.1,-0.34 -0.2,-0.57 -0.34,-0.77 -0.03,-0.03 -0.05,-0.07 -0.08,-0.1 -0.18,-0.22 -0.42,-0.4 -0.76,-0.57 -0.34,-0.18 -0.78,-0.35 -1.22,-0.52z"/>
   <path class="fil5" d="M9.98 26.69c-0.16,0.06 -0.32,0.12 -0.5,0.26 -0.18,0.15 -0.39,0.37 -0.63,0.83 -0.25,0.46 -0.53,1.16 -0.78,1.56 -0.25,0.4 -0.48,0.51 -0.93,0.67 -0.45,0.15 -1.12,0.35 -1.72,0.49 -0.22,0.05 -0.44,0.09 -0.65,0.13 0.15,0.24 0.3,0.47 0.43,0.62 0.14,0.14 0.26,0.2 0.41,0.22 0.15,0.02 0.33,0.01 1.33,-0.33 1.01,-0.34 2.84,-1.01 4.67,-1.69 -0.07,-0.89 -0.14,-1.24 -0.21,-1.5 -0.08,-0.28 -0.17,-0.45 -0.3,-0.61 -0.14,-0.17 -0.32,-0.33 -0.52,-0.43 -0.19,-0.11 -0.4,-0.16 -0.6,-0.22z"/>
   <path class="fil4" d="M4.3 25.16c0.23,-0.37 0.54,-0.77 0.88,-1.06 0.33,-0.28 0.69,-0.46 1.05,-0.63 -0.54,-0.27 -1.07,-0.55 -1.61,-0.83 -0.1,0.05 -0.2,0.09 -0.33,0.19 -0.13,0.11 -0.3,0.28 -0.4,0.45 -0.1,0.17 -0.14,0.34 -0.16,0.82 -0.01,0.48 0,1.28 0.02,2.07 0,-0.01 0.01,-0.03 0.02,-0.04 0.16,-0.29 0.31,-0.61 0.53,-0.97z"/>
   <path class="fil4" d="M3.76 29.5c-1.12,-0.56 -2.23,-1.13 -3.35,-1.69 0.01,0.4 0.02,0.81 0.02,1.22 1.11,0.58 2.22,1.17 3.33,1.76 0,-0.43 0,-0.86 0,-1.29z"/>
   <path class="fil1" d="M9.77 25.34c0,-0.11 0.09,-0.2 0.21,-0.2 0.11,0 0.21,0.09 0.21,0.2l0 1.35c0,0.12 -0.1,0.21 -0.21,0.21 -0.12,0 -0.21,-0.09 -0.21,-0.21l0 -1.35z"/>
   <path class="fil1" d="M3.55 29.5c0,-0.11 0.09,-0.21 0.21,-0.21 0.11,0 0.2,0.1 0.2,0.21l0 1.29c0,0.11 -0.09,0.2 -0.2,0.2 -0.12,0 -0.21,-0.09 -0.21,-0.2l0 -1.29z"/>
   <path class="fil1" d="M4.42 30.85c-0.12,-0.2 -0.06,-0.45 0.14,-0.57 0.19,-0.12 0.44,-0.06 0.57,0.13 0.13,0.22 0.27,0.44 0.38,0.56l0.01 0.01c0.03,0.03 0.05,0.05 0.07,0.06 0.02,0.01 0.05,0.01 0.08,0.02l0.01 0c0.03,0 0.07,0 0.18,-0.02 0.17,-0.04 0.46,-0.13 0.95,-0.29 1.01,-0.35 2.84,-1.02 4.66,-1.68 0.22,-0.08 0.45,0.03 0.53,0.24 0.08,0.22 -0.03,0.46 -0.25,0.53 -1.84,0.68 -3.68,1.35 -4.68,1.69 -0.51,0.17 -0.82,0.27 -1.03,0.31 -0.24,0.06 -0.36,0.06 -0.47,0.04l-0.02 0c-0.12,-0.02 -0.23,-0.05 -0.34,-0.11 -0.1,-0.05 -0.19,-0.12 -0.28,-0.22l-0.03 -0.02c-0.16,-0.18 -0.32,-0.43 -0.48,-0.68z"/>
   <path class="fil1" d="M5.62 31.26c0.11,0.01 0.2,0.1 0.2,0.22 -0.01,0.11 -0.1,0.2 -0.22,0.19 -0.13,0 -0.27,-0.01 -0.4,-0.03 -0.14,-0.02 -0.29,-0.06 -0.45,-0.12 -0.14,-0.07 -0.29,-0.17 -0.44,-0.27 -0.14,-0.1 -0.29,-0.22 -0.43,-0.34 -0.09,-0.07 -0.1,-0.2 -0.03,-0.29 0.07,-0.09 0.2,-0.1 0.29,-0.03 0.14,0.11 0.27,0.22 0.41,0.32 0.13,0.1 0.26,0.18 0.37,0.23 0.12,0.05 0.23,0.08 0.34,0.09 0.12,0.02 0.24,0.03 0.36,0.03z"/>
   <path class="fil1" d="M4.47 22.26c0.21,-0.09 0.45,0.01 0.54,0.23 0.08,0.21 -0.02,0.45 -0.23,0.54 -0.04,0.01 -0.09,0.03 -0.12,0.05 -0.03,0.02 -0.07,0.04 -0.11,0.08 -0.06,0.04 -0.12,0.1 -0.18,0.16 -0.05,0.06 -0.09,0.12 -0.13,0.17 -0.02,0.04 -0.04,0.09 -0.06,0.16 -0.02,0.1 -0.03,0.24 -0.03,0.46 -0.01,0.24 -0.01,0.56 -0.01,0.91l0.02 1.15c0,0.23 -0.18,0.41 -0.41,0.42 -0.23,0 -0.41,-0.18 -0.42,-0.41l-0.01 -1.16c-0.01,-0.36 -0.01,-0.69 0,-0.93 0.01,-0.27 0.02,-0.45 0.05,-0.6 0.04,-0.18 0.09,-0.3 0.17,-0.43 0.06,-0.1 0.14,-0.2 0.22,-0.29 0.09,-0.1 0.19,-0.19 0.27,-0.26 0.09,-0.07 0.17,-0.12 0.25,-0.16 0.07,-0.04 0.13,-0.07 0.19,-0.09z"/>
   <path class="fil1" d="M12.1 26.73c-0.1,0.03 -0.22,-0.02 -0.26,-0.13 -0.04,-0.11 0.02,-0.23 0.13,-0.26l0.04 -0.02c8.97,-3.26 17.94,-6.51 23.24,-8.59 2.65,-1.03 4.38,-1.77 5.61,-2.34 1.23,-0.57 1.96,-0.98 2.61,-1.33l0.01 -0.01c1.3,-0.72 2.3,-1.27 7.08,-3.05 4.79,-1.78 13.35,-4.78 21.91,-7.78 0.1,-0.04 0.22,0.02 0.26,0.12 0.04,0.11 -0.02,0.23 -0.13,0.27 -8.57,3 -17.14,6.01 -21.9,7.78 -4.74,1.76 -5.73,2.31 -7.02,3.02l-0.01 0.01c-0.66,0.36 -1.39,0.76 -2.64,1.34 -1.23,0.57 -2.97,1.32 -5.63,2.36 -5.29,2.07 -14.27,5.33 -23.25,8.59l-0.05 0.02z"/>
   <path class="fil1" d="M9.87 27.09c-0.22,-0.06 -0.35,-0.28 -0.29,-0.5 0.06,-0.22 0.28,-0.36 0.5,-0.3 0.11,0.03 0.22,0.06 0.33,0.1l0.02 0.01c0.12,0.03 0.24,0.08 0.35,0.14 0.12,0.07 0.23,0.15 0.34,0.24 0.11,0.09 0.21,0.19 0.3,0.29 0.08,0.11 0.16,0.22 0.22,0.35 0.06,0.12 0.11,0.26 0.15,0.42 0.05,0.15 0.09,0.33 0.13,0.61 0.04,0.27 0.08,0.62 0.12,1.13 0.07,0.9 0.16,2.36 0.22,3.3l0.07 1.11 0.02 0.18 0.11 0.08c0.13,0.08 0.3,0.18 0.48,0.28l0.66 0.36c0.2,0.11 0.27,0.37 0.16,0.57 -0.11,0.2 -0.36,0.27 -0.56,0.16l-0.66 -0.37c-0.22,-0.12 -0.4,-0.22 -0.52,-0.3 -0.15,-0.1 -0.25,-0.17 -0.31,-0.25 -0.11,-0.11 -0.14,-0.21 -0.17,-0.32 -0.01,-0.07 -0.02,-0.15 -0.04,-0.33l-0.07 -1.12c-0.05,-0.91 -0.14,-2.33 -0.22,-3.28 -0.04,-0.5 -0.08,-0.84 -0.11,-1.08 -0.04,-0.24 -0.07,-0.39 -0.1,-0.51 -0.03,-0.12 -0.07,-0.21 -0.1,-0.28 -0.03,-0.06 -0.07,-0.12 -0.12,-0.18 -0.05,-0.07 -0.12,-0.13 -0.19,-0.19 -0.06,-0.05 -0.13,-0.1 -0.21,-0.14 -0.06,-0.04 -0.14,-0.07 -0.21,-0.09l-0.02 -0.01c-0.08,-0.03 -0.18,-0.05 -0.28,-0.08z"/>
   <path class="fil1" d="M0 27.81c0,-0.22 0.18,-0.41 0.41,-0.42 0.22,0 0.41,0.18 0.42,0.41l0.01 0.97 2.99 1.59c0.48,-0.07 0.97,-0.14 1.5,-0.27 0.27,-0.06 0.56,-0.13 0.84,-0.21 0.31,-0.09 0.6,-0.19 0.84,-0.27 0.19,-0.06 0.34,-0.12 0.44,-0.19 0.09,-0.06 0.18,-0.15 0.27,-0.3 0.14,-0.22 0.29,-0.55 0.44,-0.88 0.11,-0.22 0.21,-0.44 0.32,-0.65 0.14,-0.26 0.26,-0.45 0.38,-0.6 0.13,-0.16 0.25,-0.28 0.37,-0.36l0.02 -0.02c0.11,-0.08 0.21,-0.14 0.31,-0.19 0.1,-0.05 0.19,-0.08 0.27,-0.11 0.22,-0.09 0.46,0.02 0.54,0.24 0.08,0.21 -0.03,0.45 -0.25,0.53 -0.07,0.03 -0.14,0.05 -0.2,0.08 -0.05,0.03 -0.11,0.06 -0.16,0.1l-0.03 0.02c-0.06,0.05 -0.14,0.12 -0.22,0.22 -0.09,0.12 -0.19,0.27 -0.3,0.47 -0.08,0.16 -0.19,0.39 -0.29,0.62 -0.17,0.35 -0.33,0.71 -0.5,0.97 -0.16,0.25 -0.32,0.42 -0.51,0.55 -0.19,0.12 -0.38,0.2 -0.63,0.29 -0.24,0.08 -0.55,0.18 -0.88,0.27 -0.29,0.08 -0.59,0.16 -0.89,0.23 -0.62,0.14 -1.16,0.22 -1.7,0.3 -0.08,0.01 -0.17,0 -0.25,-0.05l-3.32 -1.76c-0.13,-0.07 -0.22,-0.2 -0.22,-0.36l-0.02 -1.22z"/>
   <path class="fil1" d="M12.57 28.35c-0.1,0.04 -0.22,-0.02 -0.26,-0.12 -0.04,-0.11 0.02,-0.23 0.12,-0.27 8.84,-3.2 17.67,-6.41 22.9,-8.46 2.61,-1.02 4.32,-1.76 5.54,-2.32 1.22,-0.57 1.95,-0.97 2.6,-1.33l0.01 -0.01c1.3,-0.72 2.3,-1.27 7.15,-3.07 2.45,-0.91 5.83,-2.12 9.68,-3.48 3.79,-1.34 8.18,-2.88 12.57,-4.42 0.11,-0.04 0.22,0.02 0.26,0.12 0.04,0.11 -0.02,0.23 -0.13,0.27 -4.31,1.51 -8.62,3.02 -12.56,4.42 -3.89,1.38 -7.28,2.59 -9.68,3.48 -4.81,1.79 -5.8,2.33 -7.09,3.05l-0.01 0c-0.66,0.36 -1.4,0.77 -2.62,1.34 -1.23,0.57 -2.95,1.31 -5.57,2.34 -5.23,2.04 -14.07,5.25 -22.91,8.46z"/>
   <path class="fil2" d="M9.98 25.34l-3.75 -1.87c-0.36,0.17 -0.72,0.35 -1.05,0.63 -0.34,0.29 -0.65,0.69 -0.88,1.06 -0.22,0.36 -0.37,0.68 -0.53,0.97 -0.01,0.01 -0.02,0.03 -0.02,0.04 -0.16,0.27 -0.34,0.5 -0.57,0.68 -0.24,0.2 -0.55,0.35 -0.86,0.47 -0.3,0.12 -0.61,0.21 -0.92,0.29 -0.32,0.07 -0.65,0.14 -0.99,0.2 1.12,0.56 2.23,1.13 3.35,1.69 0.51,-0.08 1.02,-0.15 1.49,-0.25 0.47,-0.09 0.89,-0.2 1.21,-0.32 0.32,-0.13 0.54,-0.27 0.73,-0.49 0.2,-0.23 0.37,-0.54 0.51,-0.84 0.13,-0.29 0.24,-0.56 0.35,-0.8 0.12,-0.24 0.25,-0.45 0.43,-0.64 0.18,-0.2 0.42,-0.38 0.67,-0.51 0.26,-0.13 0.55,-0.22 0.83,-0.31z"/>
   <path class="fil4" d="M4.1 27.49c0.14,-0.04 0.31,-0.11 0.44,-0.2 0.13,-0.09 0.21,-0.2 0.3,-0.36 0.08,-0.16 0.17,-0.36 0.27,-0.51 0.1,-0.15 0.21,-0.25 0.34,-0.3 0.13,-0.06 0.27,-0.08 0.39,-0.06 0.13,0.01 0.23,0.06 0.31,0.17 0.08,0.1 0.14,0.24 0.15,0.39 0,0.15 -0.04,0.29 -0.11,0.45 -0.07,0.17 -0.17,0.35 -0.29,0.5 -0.13,0.16 -0.29,0.28 -0.52,0.39 -0.22,0.11 -0.51,0.21 -0.79,0.23 -0.27,0.02 -0.53,-0.05 -0.71,-0.13 -0.19,-0.08 -0.29,-0.18 -0.31,-0.27 -0.01,-0.08 0.07,-0.16 0.17,-0.2 0.1,-0.04 0.22,-0.06 0.36,-0.1z"/>
   <path class="fil1" d="M4.05 27.29c0.07,-0.02 0.14,-0.04 0.21,-0.07 0.06,-0.03 0.11,-0.06 0.16,-0.09 0.04,-0.04 0.08,-0.08 0.12,-0.12 0.04,-0.05 0.08,-0.11 0.11,-0.18l0.1 -0.18c0.06,-0.12 0.12,-0.24 0.19,-0.35 0.06,-0.09 0.13,-0.16 0.19,-0.22l0.02 -0.01c0.06,-0.06 0.14,-0.11 0.21,-0.14 0.09,-0.04 0.17,-0.06 0.25,-0.08 0.09,-0.01 0.18,-0.01 0.26,0l0.01 0c0.08,0.01 0.16,0.04 0.23,0.08 0.08,0.04 0.15,0.09 0.2,0.17 0.06,0.06 0.1,0.15 0.14,0.24l0 0.01c0.03,0.08 0.05,0.17 0.05,0.26 0.01,0.1 0,0.19 -0.03,0.28l0 0.01c-0.02,0.08 -0.05,0.17 -0.09,0.25 -0.04,0.09 -0.08,0.19 -0.13,0.28 -0.06,0.09 -0.12,0.19 -0.2,0.28l-0.01 0.01c-0.07,0.08 -0.15,0.16 -0.24,0.23 -0.09,0.07 -0.2,0.13 -0.33,0.19l-0.01 0.01c-0.13,0.06 -0.27,0.12 -0.43,0.16 -0.13,0.04 -0.28,0.07 -0.42,0.08 -0.15,0.01 -0.29,0 -0.42,-0.02l-0.01 0c-0.15,-0.03 -0.28,-0.07 -0.39,-0.12 -0.11,-0.05 -0.2,-0.11 -0.26,-0.17 -0.09,-0.07 -0.15,-0.16 -0.16,-0.26 -0.02,-0.1 0.02,-0.19 0.08,-0.27l0.01 -0.01c0.05,-0.06 0.12,-0.11 0.2,-0.14 0.07,-0.03 0.15,-0.05 0.24,-0.07l0.15 -0.04zm0.38 0.3c-0.09,0.04 -0.18,0.08 -0.26,0.1l-0.18 0.04c-0.07,0.02 -0.13,0.03 -0.17,0.05l-0.01 0c0.04,0.03 0.09,0.06 0.15,0.09 0.08,0.04 0.18,0.07 0.29,0.09l0.01 0c0.1,0.02 0.21,0.03 0.32,0.02 0.11,-0.01 0.23,-0.03 0.34,-0.06 0.13,-0.04 0.25,-0.09 0.36,-0.14l0.01 -0.01c0.1,-0.05 0.19,-0.1 0.26,-0.16 0.07,-0.05 0.13,-0.1 0.18,-0.16l0.01 -0.01c0.05,-0.07 0.1,-0.14 0.15,-0.22 0.04,-0.08 0.08,-0.16 0.11,-0.23 0.03,-0.07 0.05,-0.13 0.07,-0.19l0 -0.01c0.01,-0.06 0.02,-0.11 0.02,-0.16 0,-0.05 -0.01,-0.1 -0.03,-0.14l0 -0.01c-0.02,-0.05 -0.04,-0.09 -0.07,-0.13 -0.02,-0.02 -0.05,-0.04 -0.07,-0.06 -0.03,-0.01 -0.06,-0.02 -0.1,-0.03l0 0c-0.05,0 -0.1,0 -0.15,0 -0.05,0.01 -0.09,0.03 -0.14,0.04 -0.04,0.02 -0.08,0.05 -0.11,0.08l-0.01 0.01c-0.04,0.03 -0.09,0.08 -0.12,0.14 -0.06,0.08 -0.12,0.2 -0.17,0.31l-0.1 0.19c-0.05,0.09 -0.1,0.17 -0.16,0.24 -0.06,0.07 -0.12,0.13 -0.2,0.19 -0.07,0.05 -0.15,0.1 -0.23,0.13z"/>
   <path class="fil1" d="M18.09 33.25c3.53,-1.33 10.14,-3.82 13.5,-5.09l0.04 -0.01c3.37,-1.28 3.49,-1.32 3.67,-1.34 0.1,-0.02 0.21,-0.02 0.34,-0.01 0.12,0.02 0.26,0.04 0.44,0.09 0.19,0.06 0.43,0.14 0.66,0.22l0.43 0.14c0.15,0.04 0.27,0.07 0.37,0.09 0.09,0.03 0.17,0.04 0.24,0.04 0.06,0.01 0.12,0.01 0.18,0.01 0.06,-0.01 0.14,-0.02 0.23,-0.04 0.09,-0.03 0.22,-0.06 0.41,-0.13 0.23,-0.08 0.48,-0.17 0.81,-0.29l1.27 -0.46c0.47,-0.17 0.9,-0.34 1.17,-0.44 0.28,-0.11 0.43,-0.17 0.51,-0.22l0 -0.01c0.01,-0.02 0.01,-0.04 0.01,-0.07 0,-0.02 0,-0.03 0,-0.05 -0.01,-0.03 -0.03,-0.08 -0.06,-0.14l-0.01 -0.03c-0.03,-0.07 -0.08,-0.16 -0.14,-0.27 -0.08,-0.14 -0.18,-0.3 -0.32,-0.52 -0.16,-0.23 -0.33,-0.48 -0.5,-0.73 -0.18,-0.25 -0.35,-0.49 -0.5,-0.71 -0.13,-0.21 -0.22,-0.36 -0.29,-0.48 -0.07,-0.13 -0.11,-0.23 -0.14,-0.32l-0.01 -0.02c-0.03,-0.09 -0.05,-0.17 -0.06,-0.24l0 -0.02c-0.01,-0.09 -0.01,-0.17 0,-0.26 0.02,-0.1 0.04,-0.21 0.09,-0.3 0.04,-0.1 0.1,-0.18 0.18,-0.26 0.07,-0.08 0.16,-0.15 0.3,-0.23 0.1,-0.06 0.25,-0.14 0.47,-0.24 0.18,-0.08 0.43,-0.19 0.71,-0.32 0.32,-0.14 0.68,-0.29 1.04,-0.44l0.25 -0.1c0.59,-0.25 1.18,-0.5 1.82,-0.79l0.03 -0.02c0.32,-0.15 0.67,-0.32 1.07,-0.52 0.38,-0.2 0.8,-0.42 1.29,-0.68l1.27 -0.67c0.62,-0.34 1.28,-0.69 1.9,-1.02 0.52,-0.28 1.02,-0.54 1.58,-0.81 0.55,-0.27 1.12,-0.54 1.78,-0.81 1.23,-0.53 2.78,-1.12 4.44,-1.75 3.44,-1.3 6.87,-2.6 10.31,-3.91l3.1 -1.18 0.57 -0.23 0 -1.1c0,-0.57 0,-1.29 -0.01,-1.75 -0.01,-0.26 -0.02,-0.42 -0.03,-0.53 -0.01,-0.07 -0.03,-0.12 -0.05,-0.17 -0.03,-0.08 -0.08,-0.16 -0.12,-0.25l-0.02 -0.02c-0.04,-0.08 -0.09,-0.15 -0.13,-0.22 -0.05,-0.07 -0.1,-0.14 -0.17,-0.2 -0.07,-0.08 -0.15,-0.16 -0.26,-0.26 -0.11,-0.11 -0.25,-0.24 -0.4,-0.37 -0.16,-0.14 -0.34,-0.29 -0.53,-0.43 -0.18,-0.14 -0.39,-0.28 -0.61,-0.43 -0.23,-0.15 -0.45,-0.28 -0.65,-0.4 -0.21,-0.13 -0.41,-0.24 -0.6,-0.35 -0.18,-0.09 -0.35,-0.18 -0.48,-0.23 -0.13,-0.05 -0.24,-0.09 -0.33,-0.1l-0.01 -0.01c-0.08,-0.01 -0.16,-0.01 -0.23,-0.01 -0.07,0 -0.15,0.01 -0.54,0.14 -0.41,0.14 -1.19,0.42 -2.65,0.95 -1.34,0.49 -3.49,1.28 -5.72,2.1l-6.14 2.27c-2.81,1.03 -3.37,1.24 -4.21,1.52 -0.38,0.13 -0.86,0.28 -1.5,0.48 -0.64,0.19 -1.35,0.4 -2.18,0.64 -0.8,0.23 -1.84,0.52 -2.91,0.82l-3.08 0.85c-1.41,0.39 -2.19,0.6 -3.24,0.95 -0.56,0.18 -1.17,0.4 -2.28,0.8 -1.19,0.44 -2.82,1.04 -5.37,1.99 -5.03,1.87 -13.65,5.08 -22.39,8.34l-0.06 0.02 0.78 0.4c0.2,0.11 0.28,0.36 0.18,0.56 -0.05,0.09 -0.13,0.16 -0.21,0.19 -0.17,0.08 -0.33,0.16 -0.49,0.25 -0.16,0.09 -0.31,0.19 -0.46,0.32 -0.13,0.11 -0.27,0.26 -0.39,0.41 -0.15,0.18 -0.28,0.37 -0.39,0.55 -0.14,0.21 -0.24,0.41 -0.33,0.59 -0.07,0.13 -0.14,0.26 -0.2,0.36 -0.09,0.16 -0.19,0.31 -0.3,0.45 -0.11,0.14 -0.24,0.28 -0.39,0.4 -0.15,0.11 -0.31,0.21 -0.47,0.3 -0.16,0.09 -0.33,0.16 -0.5,0.22 -0.16,0.07 -0.32,0.12 -0.48,0.17 -0.12,0.04 -0.23,0.07 -0.34,0.1l2.17 1.1 0.63 -0.09c0.24,-0.04 0.47,-0.08 0.72,-0.13 0.23,-0.05 0.45,-0.1 0.66,-0.15 0.18,-0.05 0.35,-0.1 0.48,-0.16 0.13,-0.05 0.24,-0.1 0.33,-0.16 0.09,-0.06 0.17,-0.13 0.24,-0.21 0.08,-0.1 0.16,-0.21 0.23,-0.34l0.01 -0.02c0.07,-0.12 0.14,-0.25 0.2,-0.38 0.06,-0.12 0.12,-0.26 0.18,-0.4l0.01 -0.02c0.06,-0.14 0.11,-0.26 0.17,-0.39 0.07,-0.13 0.14,-0.26 0.22,-0.38 0.08,-0.13 0.17,-0.25 0.28,-0.36 0.11,-0.12 0.23,-0.23 0.37,-0.34 0.12,-0.09 0.27,-0.18 0.41,-0.26 0.29,-0.15 0.59,-0.24 0.9,-0.33l0.04 -0.01c0.09,-0.02 0.18,-0.01 0.26,0.03 0.21,0.08 0.42,0.16 0.62,0.25 0.22,0.09 0.43,0.18 0.61,0.27 0.18,0.1 0.35,0.2 0.49,0.31 0.16,0.11 0.28,0.23 0.4,0.37 0.11,0.13 0.2,0.28 0.28,0.45 0.08,0.16 0.15,0.35 0.21,0.56l0.01 0.02c0.06,0.21 0.12,0.46 0.17,0.78 0.06,0.32 0.11,0.74 0.17,1.3 0.08,0.89 0.15,2.08 0.2,3.05l0.05 0.74c0.03,0.52 0.06,0.89 0.08,1.15 0.03,0.25 0.05,0.41 0.08,0.53 0.02,0.07 0.04,0.11 0.06,0.14l0.03 0c0.06,0 0.14,-0.02 0.25,-0.05 0.18,-0.06 0.44,-0.16 1.7,-0.63l2.52 -0.96zm13.79 -4.32c-3.36,1.27 -9.97,3.76 -13.5,5.09l-2.52 0.96c-1.26,0.48 -1.53,0.58 -1.75,0.65 -0.18,0.05 -0.32,0.08 -0.43,0.09 -0.16,0.01 -0.28,-0.02 -0.4,-0.06 -0.12,-0.05 -0.24,-0.13 -0.34,-0.26 -0.09,-0.11 -0.16,-0.25 -0.21,-0.44 -0.04,-0.16 -0.07,-0.36 -0.1,-0.66 -0.03,-0.29 -0.06,-0.67 -0.09,-1.18l-0.04 -0.74c-0.06,-0.99 -0.13,-2.19 -0.21,-3.02 -0.04,-0.52 -0.1,-0.92 -0.15,-1.24 -0.05,-0.3 -0.1,-0.51 -0.16,-0.69l0 -0.01c-0.05,-0.18 -0.1,-0.33 -0.16,-0.44 -0.05,-0.11 -0.11,-0.2 -0.18,-0.28 -0.07,-0.09 -0.15,-0.17 -0.25,-0.24 -0.11,-0.08 -0.23,-0.16 -0.38,-0.23 -0.16,-0.09 -0.35,-0.17 -0.54,-0.25l-0.51 -0.2c-0.21,0.07 -0.43,0.14 -0.62,0.24 -0.1,0.05 -0.2,0.11 -0.3,0.19 -0.09,0.07 -0.18,0.15 -0.26,0.23 -0.07,0.08 -0.13,0.16 -0.19,0.25 -0.06,0.09 -0.11,0.18 -0.16,0.29 -0.06,0.11 -0.11,0.23 -0.16,0.36l-0.01 0.02c-0.05,0.12 -0.11,0.25 -0.19,0.42 -0.07,0.15 -0.15,0.3 -0.23,0.45l-0.02 0.03c-0.09,0.16 -0.2,0.31 -0.31,0.44 -0.13,0.15 -0.26,0.27 -0.41,0.36 -0.14,0.1 -0.3,0.18 -0.49,0.25 -0.17,0.07 -0.37,0.13 -0.57,0.19 -0.22,0.06 -0.46,0.11 -0.71,0.16 -0.22,0.05 -0.48,0.09 -0.75,0.13l-0.76 0.12c-0.09,0.01 -0.17,0 -0.25,-0.04l-3.34 -1.69c-0.11,-0.06 -0.2,-0.17 -0.22,-0.3 -0.04,-0.22 0.1,-0.44 0.33,-0.48 0.32,-0.06 0.65,-0.12 0.96,-0.19 0.15,-0.04 0.3,-0.08 0.44,-0.13 0.14,-0.04 0.29,-0.09 0.43,-0.15 0.14,-0.05 0.28,-0.11 0.41,-0.18 0.13,-0.07 0.24,-0.14 0.34,-0.22 0.1,-0.08 0.18,-0.17 0.26,-0.26 0.09,-0.11 0.16,-0.22 0.23,-0.35 0.07,-0.11 0.12,-0.22 0.18,-0.33 0.1,-0.2 0.22,-0.42 0.36,-0.65 0.13,-0.21 0.29,-0.43 0.46,-0.64 0.15,-0.18 0.32,-0.36 0.5,-0.51 0.14,-0.12 0.28,-0.22 0.43,-0.31l-0.91 -0.47c-0.08,-0.04 -0.16,-0.12 -0.19,-0.22 -0.08,-0.22 0.03,-0.45 0.24,-0.53l0.93 -0.35c8.74,-3.26 17.36,-6.47 22.39,-8.34 2.66,-0.99 4.31,-1.61 5.38,-2 1.15,-0.42 1.77,-0.63 2.3,-0.81 1.01,-0.33 1.82,-0.56 3.28,-0.96l3.08 -0.85c0.95,-0.26 1.96,-0.55 2.9,-0.82 0.92,-0.26 1.62,-0.46 2.17,-0.63 0.54,-0.17 1.03,-0.33 1.48,-0.48 0.76,-0.25 1.32,-0.45 4.18,-1.51l6.15 -2.27c2.06,-0.76 4.16,-1.53 5.72,-2.1 1.43,-0.52 2.21,-0.8 2.68,-0.95 0.49,-0.16 0.62,-0.18 0.76,-0.19 0.13,0 0.26,0 0.41,0.03l0.02 0c0.14,0.03 0.3,0.08 0.48,0.15 0.17,0.07 0.36,0.17 0.56,0.28 0.2,0.1 0.41,0.22 0.63,0.36 0.23,0.14 0.47,0.28 0.68,0.42 0.22,0.14 0.44,0.3 0.66,0.46 0.21,0.16 0.4,0.32 0.57,0.46 0.17,0.15 0.32,0.29 0.43,0.4 0.13,0.12 0.22,0.21 0.3,0.3 0.09,0.09 0.16,0.18 0.23,0.29 0.07,0.09 0.13,0.18 0.18,0.28l0.02 0.03c0.06,0.11 0.12,0.22 0.16,0.32 0.05,0.12 0.09,0.22 0.11,0.39 0.02,0.13 0.03,0.32 0.04,0.63 0,0.45 0.01,1.19 0.01,1.76l0 0.81c0,0.28 0,0.38 -0.01,0.46 -0.01,0.08 -0.02,0.15 -0.05,0.22l-0.02 0.03c-0.04,0.08 -0.1,0.15 -0.17,0.21 -0.05,0.04 -0.11,0.07 -0.25,0.13 -0.11,0.05 -0.29,0.12 -0.6,0.24l-1.42 0.55c-4,1.52 -8,3.03 -12,4.55 -1.64,0.62 -3.18,1.21 -4.41,1.73 -0.66,0.28 -1.22,0.54 -1.74,0.79 -0.51,0.25 -1.02,0.52 -1.56,0.8 -0.61,0.33 -1.27,0.68 -1.89,1.01l-1.28 0.69c-0.47,0.25 -0.89,0.47 -1.29,0.67 -0.37,0.19 -0.72,0.37 -1.1,0.54l-0.03 0.02c-0.62,0.28 -1.24,0.55 -1.85,0.8l-1.28 0.54c-0.26,0.12 -0.5,0.22 -0.7,0.31 -0.18,0.08 -0.3,0.15 -0.4,0.2 -0.06,0.04 -0.09,0.06 -0.11,0.08 -0.02,0.02 -0.03,0.03 -0.03,0.05 -0.01,0.02 -0.02,0.04 -0.02,0.05l0 0.06c0.01,0.03 0.01,0.06 0.02,0.09l0.01 0.03c0.02,0.05 0.04,0.11 0.09,0.19 0.05,0.1 0.13,0.23 0.25,0.41 0.12,0.18 0.3,0.44 0.49,0.7 0.18,0.27 0.37,0.55 0.51,0.75 0.15,0.22 0.26,0.4 0.34,0.55 0.08,0.14 0.14,0.25 0.18,0.35l0.02 0.03c0.05,0.11 0.08,0.21 0.1,0.3 0.03,0.1 0.03,0.18 0.03,0.27l0 0.01c-0.01,0.08 -0.02,0.16 -0.04,0.24 -0.02,0.07 -0.05,0.14 -0.08,0.2l-0.02 0.04c-0.06,0.09 -0.12,0.18 -0.31,0.28 -0.11,0.06 -0.29,0.14 -0.6,0.26 -0.34,0.13 -0.76,0.29 -1.19,0.45l-1.27 0.46 -0.82 0.29c-0.21,0.07 -0.35,0.12 -0.49,0.15 -0.14,0.04 -0.25,0.06 -0.36,0.06 -0.11,0.01 -0.21,0.01 -0.32,0 -0.11,-0.01 -0.21,-0.03 -0.34,-0.06 -0.11,-0.02 -0.25,-0.06 -0.43,-0.11 -0.14,-0.04 -0.29,-0.1 -0.45,-0.15 -0.22,-0.07 -0.45,-0.15 -0.62,-0.2 -0.13,-0.04 -0.23,-0.05 -0.31,-0.06 -0.06,-0.01 -0.1,-0.01 -0.14,0 -0.09,0.01 -0.2,0.05 -3.49,1.29l-0.04 0.01zm10.47 -3.1c0,0.01 -0.01,0.02 0,0.01l0 -0.01z"/>
   <path class="fil1" d="M6.04 23.84c-0.2,-0.1 -0.28,-0.35 -0.18,-0.55 0.1,-0.21 0.35,-0.29 0.55,-0.19l3.75 1.87c0.21,0.1 0.29,0.35 0.19,0.56 -0.1,0.2 -0.35,0.29 -0.56,0.18l-3.75 -1.87z"/>
  </g>
 </g>
</svg>
