<?xml version="1.0" encoding="UTF-8"?>
<!DOCTYPE svg PUBLIC "-//W3C//DTD SVG 1.1//EN" "http://www.w3.org/Graphics/SVG/1.1/DTD/svg11.dtd">
<!-- Creator: CorelDRAW 2021.5 -->
<svg xmlns="http://www.w3.org/2000/svg" xml:space="preserve" width="500px" height="260px" version="1.1" style="shape-rendering:geometricPrecision; text-rendering:geometricPrecision; image-rendering:optimizeQuality; fill-rule:evenodd; clip-rule:evenodd"
viewBox="0 0 45.88 23.83"
 xmlns:xlink="http://www.w3.org/1999/xlink"
 xmlns:xodm="http://www.corel.com/coreldraw/odm/2003">
 <defs>
  <style type="text/css">
   <![CDATA[
    .fil0 {fill:dimgray}
    .fil1 {fill:#858585}
    .fil4 {fill:#999999}
    .fil2 {fill:#BFBFBF}
    .fil3 {fill:#5F5F5F;fill-rule:nonzero}
   ]]>
  </style>
 </defs>
 <g id="Слой_x0020_1">
  <metadata id="CorelCorpID_0Corel-Layer"/>
  <g id="_2009324867360">
   <path class="fil0" d="M2.27 19.01c-0.56,-0.54 -1.12,-1.08 -1.68,-1.62 0.11,0.7 0.22,1.4 0.32,2.1 0.45,-0.16 0.9,-0.32 1.36,-0.48z"/>
   <path class="fil1" d="M0.59 17.39c0.56,0.54 1.12,1.08 1.68,1.62 0.69,0.67 1.39,1.34 2.08,2.01 -0.05,-0.51 -0.11,-1.01 -0.16,-1.52 -1.29,-1.29 -2.58,-2.59 -3.87,-3.88 0.09,0.59 0.18,1.18 0.27,1.77z"/>
   <path class="fil1" d="M4.19 19.5c0.05,0.51 0.11,1.01 0.16,1.52 0.09,0.85 0.18,1.7 0.27,2.56 3.99,-1.49 7.97,-2.97 11.96,-4.45 -0.08,-0.9 -0.15,-1.81 -0.23,-2.42 -0.07,-0.61 -0.15,-0.92 -0.24,-1.17 -0.05,-0.14 -0.11,-0.26 -0.16,-0.36 -0.04,-0.07 -0.08,-0.14 -0.12,-0.2l-11.64 4.52z"/>
   <path class="fil1" d="M17.7 15.28c-0.43,1.21 -0.32,1.88 0.07,2.63 0.06,0.12 0.14,0.24 0.24,0.34 0.06,0.05 0.11,0.1 0.17,0.16 0.42,0.33 0.99,0.43 1.52,0.22 5,-1.99 9.86,-3.93 12.61,-5.02 2.95,-1.17 3.46,-1.38 3.98,-1.6 0.51,-0.22 1.02,-0.46 1.45,-0.87 0.43,-0.41 1.08,-0.88 1.47,-1.5 0.39,-0.61 0.87,-1.21 1.44,-1.78 0.57,-0.57 1.1,-0.87 2.02,-1.31 0.91,-0.44 1.84,-0.73 2.96,-1.11l-0.03 -1.62 -23.11 9.04 -3.77 1.35c-0.45,0.17 -0.87,0.62 -1.02,1.07z"/>
   <path class="fil2" d="M22.21 12.85l23.24 -9.13 -5.29 -3.46c-8.36,3.09 -16.72,6.19 -21.15,7.83 -0.64,0.23 -1.2,0.44 -1.69,0.62 0.31,0.09 0.62,0.18 0.94,0.3 0.28,0.11 0.57,0.25 0.88,0.45 0.68,0.42 1.6,1.27 1.96,1.68 0.35,0.41 0.99,1.5 1.11,1.71z"/>
   <path class="fil2" d="M13.42 11.66l3.2 -1.24 2.52 -0.96c-0.31,-0.2 -0.6,-0.34 -0.88,-0.45l-5.82 2.36 -0.84 -0.19 -11.6 4.51c1.29,1.3 2.9,2.52 4.19,3.81l11.64 -4.52 -0.71 -0.69 1.39 -0.53 5.08 -1.93c-0.12,-0.21 -0.28,-0.44 -0.49,-0.69l-2.75 1.09c-0.01,0.01 -0.03,0.02 -0.05,0.03l-0.25 0.09 -0.47 0.19 -1.19 0.47 -1.13 0.45 -1.32 0.52 -1.19 0.48 -1.1 0.43 -1.33 0.53 -1.05 0.42 -1.06 0.42 -2.72 1.08 -0.24 0.09c-0.42,0.17 -0.87,0.06 -1.2,-0.25l-0.62 -0.6c-0.18,-0.18 -0.25,-0.41 -0.2,-0.66 0.05,-0.25 0.21,-0.43 0.44,-0.52l2.64 -1.01 1.07 -0.42 1.08 -0.41 1.36 -0.52 1.09 -0.42 1.22 -0.47 1.29 -0.49z"/>
   <path class="fil2" d="M13.56 10.92l4.7 -1.91c-0.32,-0.12 -0.63,-0.21 -0.94,-0.3 -2.88,1.07 -3.28,1.34 -3.6,1.55 -0.32,0.21 -0.41,0.02 -0.52,0.2 -0.1,0.17 0.42,0.3 0.36,0.46z"/>
   <path class="fil0" d="M16.98 14.13c-0.16,0.25 -0.31,0.51 -0.4,0.74 -0.1,0.24 -0.13,0.45 -0.16,0.67 -0.16,0.58 0.08,1 0.15,1.62 0.36,0.33 1.02,0.86 1.38,1.19 -0.09,-0.1 -0.17,-0.21 -0.24,-0.34 -0.39,-0.75 -0.5,-1.41 -0.07,-2.63 0.1,-0.27 0.29,-0.55 0.53,-0.76l-0.97 -0.57 -0.22 0.08z"/>
   <path class="fil1" d="M17.26 13.97l0.93 0.57c0.15,-0.14 0.32,-0.24 0.49,-0.3l3.77 -1.36c-0.1,-0.25 -0.52,-0.25 -0.68,-0.52l-4.51 1.61z"/>
   <path class="fil0" d="M16.61 14.81c0.05,-0.12 -0.21,-0.39 1.03,-0.98 1.29,-0.61 4.07,-1.55 4.15,-1.68l-0.46 -0.35 -6.21 2.49 0.71 0.69c0.04,0.06 0.4,0.75 0.44,0.81 0.03,-0.21 0.25,-0.75 0.34,-0.98z"/>
   <path class="fil3" d="M40.07 0.02c0.13,-0.05 0.28,0.01 0.33,0.15 0.05,0.13 -0.02,0.28 -0.15,0.32l-26.64 10.09 0.16 0.13c0.1,0.09 0.12,0.25 0.02,0.36 -0.09,0.11 -0.25,0.12 -0.36,0.03l-0.47 -0.41c-0.03,-0.03 -0.06,-0.07 -0.08,-0.11 -0.05,-0.13 0.02,-0.28 0.15,-0.33l27.04 -10.23z"/>
   <path class="fil3" d="M4.71 23.81c-0.13,0.05 -0.28,-0.01 -0.33,-0.15 -0.05,-0.13 0.02,-0.27 0.15,-0.32l11.96 -4.45c0.13,-0.05 0.28,0.02 0.33,0.15 0.04,0.13 -0.02,0.28 -0.15,0.33l-11.96 4.44z"/>
   <path class="fil3" d="M45.54 5.2c0.14,-0.05 0.28,0.02 0.33,0.16 0.04,0.13 -0.03,0.27 -0.16,0.32 -0.57,0.19 -1.14,0.39 -1.65,0.58 -0.53,0.19 -1.03,0.4 -1.48,0.61 -1.65,0.79 -2.32,1.74 -2.95,2.63 -0.48,0.67 -0.94,1.32 -1.75,1.85 -1.46,0.96 -2.77,1.46 -4.29,2.04 -0.4,0.15 -0.82,0.31 -1.18,0.46l-12.62 5.01c-0.42,0.17 -0.88,0.17 -1.28,0.02 -0.41,-0.15 -0.76,-0.45 -0.97,-0.85l-0.01 -0.02c-0.2,-0.4 -0.33,-0.73 -0.35,-1.14 -0.02,-0.4 0.07,-0.85 0.29,-1.49 0.09,-0.26 0.25,-0.51 0.46,-0.72 0.2,-0.21 0.45,-0.39 0.71,-0.49l3.75 -1.55c0.13,-0.05 0.28,0.01 0.33,0.14 0.06,0.13 0,0.28 -0.13,0.33l-3.76 1.55c-0.19,0.08 -0.38,0.21 -0.53,0.37 -0.16,0.16 -0.28,0.35 -0.35,0.54 -0.2,0.57 -0.28,0.97 -0.26,1.3 0.01,0.31 0.12,0.59 0.3,0.93l0.01 0.01c0.15,0.29 0.4,0.5 0.68,0.61 0.29,0.11 0.62,0.11 0.93,-0.01l12.61 -5.02c0.46,-0.18 0.83,-0.32 1.19,-0.46 1.49,-0.57 2.78,-1.06 4.19,-1.99 0.74,-0.48 1.16,-1.08 1.61,-1.72 0.67,-0.93 1.38,-1.94 3.15,-2.79 0.46,-0.22 0.98,-0.43 1.52,-0.63 0.56,-0.21 1.11,-0.4 1.66,-0.58z"/>
   <path class="fil3" d="M16.83 19.11c0.01,0.14 -0.09,0.26 -0.23,0.27 -0.14,0.02 -0.27,-0.09 -0.28,-0.23l0 -0.02c-0.07,-0.89 -0.15,-1.78 -0.22,-2.39 -0.04,-0.29 -0.07,-0.52 -0.11,-0.7 -0.04,-0.17 -0.08,-0.3 -0.12,-0.41 -0.08,-0.22 -0.17,-0.37 -0.26,-0.52l0 0c-0.07,-0.13 -0.03,-0.28 0.09,-0.35 0.13,-0.07 0.28,-0.03 0.35,0.09l0 0c0.11,0.18 0.21,0.35 0.3,0.61 0.05,0.13 0.1,0.28 0.14,0.48 0.04,0.19 0.08,0.43 0.12,0.74 0.07,0.61 0.15,1.51 0.22,2.41l0 0.02z"/>
   <path class="fil3" d="M18.37 18.23c0.11,0.08 0.13,0.25 0.04,0.36 -0.09,0.11 -0.25,0.13 -0.36,0.04l-1.82 -1.43c-0.11,-0.09 -0.13,-0.25 -0.04,-0.36 0.08,-0.11 0.24,-0.13 0.35,-0.04l1.83 1.43z"/>
   <path class="fil3" d="M4.87 23.55c0.02,0.14 -0.08,0.27 -0.22,0.28 -0.14,0.01 -0.27,-0.09 -0.28,-0.23l-0.43 -4.07c-0.02,-0.14 0.08,-0.27 0.22,-0.28 0.14,-0.02 0.27,0.09 0.28,0.23l0.43 4.07z"/>
   <path class="fil3" d="M0.07 15.65c-0.02,-0.14 0.08,-0.27 0.22,-0.29 0.14,-0.02 0.27,0.08 0.29,0.22l0.58 3.87c0.02,0.14 -0.07,0.27 -0.21,0.29 -0.14,0.02 -0.27,-0.08 -0.29,-0.22l-0.59 -3.87z"/>
   <path class="fil3" d="M4.37 19.32c0.1,0.1 0.1,0.26 0,0.36 -0.1,0.1 -0.26,0.1 -0.36,0l-3.87 -3.88c-0.1,-0.1 -0.1,-0.27 0,-0.36 0.1,-0.1 0.27,-0.1 0.37,0l3.86 3.88z"/>
   <path class="fil3" d="M4.53 20.84c0.1,0.09 0.1,0.26 0,0.36 -0.09,0.1 -0.26,0.1 -0.36,0l-3.75 -3.63c-0.11,-0.09 -0.11,-0.25 -0.01,-0.36 0.1,-0.1 0.26,-0.1 0.36,0l3.76 3.63z"/>
   <path class="fil3" d="M1 19.73c-0.14,0.04 -0.28,-0.03 -0.33,-0.16 -0.05,-0.13 0.02,-0.28 0.16,-0.32l1.37 -0.49c0.13,-0.05 0.27,0.02 0.32,0.16 0.05,0.13 -0.02,0.27 -0.15,0.32l-1.37 0.49z"/>
   <path class="fil3" d="M22.58 13.1c-0.13,0.05 -0.28,-0.02 -0.33,-0.15 -0.05,-0.13 0.01,-0.28 0.15,-0.33l23.1 -9.04c0.13,-0.05 0.28,0.01 0.33,0.14 0.06,0.13 -0.01,0.28 -0.14,0.33l-23.11 9.05z"/>
   <path class="fil4" d="M20.71 15.05c0.51,0.23 0.7,0.91 0.42,1.52 -0.28,0.61 -0.91,0.91 -1.42,0.68 -0.51,-0.23 -0.69,-0.91 -0.42,-1.52 0.28,-0.61 0.92,-0.91 1.42,-0.68z"/>
   <path class="fil3" d="M20.77 14.94c0.29,0.13 0.48,0.39 0.57,0.7 0.08,0.29 0.06,0.64 -0.09,0.97l-0.01 0.02c-0.15,0.33 -0.4,0.57 -0.68,0.71 -0.28,0.13 -0.6,0.16 -0.89,0.03l-0.02 -0.01c-0.29,-0.13 -0.48,-0.39 -0.57,-0.7 -0.08,-0.29 -0.05,-0.64 0.09,-0.97l0.01 -0.02c0.15,-0.33 0.4,-0.58 0.68,-0.71l0.01 0c0.29,-0.14 0.61,-0.16 0.9,-0.02zm0.32 0.76c-0.06,-0.24 -0.21,-0.43 -0.43,-0.53 -0.21,-0.1 -0.46,-0.09 -0.68,0.02l-0.01 0c-0.23,0.11 -0.43,0.32 -0.56,0.59l0 0c-0.13,0.28 -0.15,0.57 -0.08,0.82 0.07,0.23 0.21,0.43 0.43,0.53l0 0c0.22,0.1 0.47,0.08 0.69,-0.02 0.23,-0.11 0.44,-0.32 0.56,-0.59l0 0c0.13,-0.28 0.15,-0.57 0.08,-0.82z"/>
   <path class="fil3" d="M45.88 5.43c0,0.14 -0.11,0.26 -0.25,0.26 -0.14,0 -0.26,-0.11 -0.26,-0.25l-0.03 -1.48 -5.32 -3.49c-0.12,-0.08 -0.15,-0.24 -0.07,-0.35 0.07,-0.12 0.23,-0.16 0.35,-0.08l5.44 3.56c0.06,0.05 0.11,0.12 0.11,0.21l0.03 1.62z"/>
   <path class="fil4" d="M19.14 9.46l1.96 1.68 -15.85 6.29c-0.42,0.17 -0.87,0.06 -1.2,-0.25l-0.62 -0.6c-0.18,-0.18 -0.25,-0.41 -0.2,-0.66 0.05,-0.25 0.21,-0.43 0.44,-0.52l15.47 -5.94z"/>
   <path class="fil3" d="M19.22 9.36l1.96 1.69c0.05,0.04 0.06,0.12 0.01,0.18 -0.01,0.01 -0.03,0.03 -0.05,0.03l-15.84 6.29c-0.23,0.09 -0.47,0.11 -0.7,0.06 -0.23,-0.05 -0.45,-0.17 -0.64,-0.34l-0.62 -0.6c-0.11,-0.1 -0.18,-0.22 -0.22,-0.36 -0.04,-0.13 -0.05,-0.27 -0.02,-0.42 0.03,-0.14 0.1,-0.27 0.19,-0.37 0.08,-0.11 0.2,-0.19 0.34,-0.24l15.46 -5.94c0.05,-0.02 0.1,-0.01 0.13,0.02zm1.63 1.74l-1.74 -1.5 -15.39 5.92c-0.1,0.03 -0.18,0.09 -0.24,0.16 -0.06,0.08 -0.1,0.16 -0.13,0.27 -0.02,0.1 -0.01,0.2 0.01,0.29 0.03,0.09 0.08,0.17 0.16,0.24l0.62 0.61c0.15,0.14 0.33,0.23 0.51,0.27 0.18,0.04 0.37,0.03 0.56,-0.05l15.64 -6.21z"/>
   <path class="fil3" d="M3.58 15.48c-0.05,-0.05 -0.04,-0.13 0.01,-0.18 0.05,-0.04 0.13,-0.04 0.18,0.01l1.81 1.94c0.05,0.05 0.05,0.14 -0.01,0.18 -0.05,0.05 -0.13,0.05 -0.18,0l-1.81 -1.95z"/>
   <path class="fil3" d="M6.22 14.48c-0.05,-0.05 -0.05,-0.13 0,-0.18 0.05,-0.05 0.13,-0.05 0.18,-0.01l1.9 1.88c0.05,0.05 0.05,0.13 0,0.18 -0.05,0.05 -0.13,0.05 -0.18,0l-1.9 -1.87z"/>
   <path class="fil3" d="M9.36 15.75c0.05,0.05 0.05,0.13 0,0.18 -0.05,0.05 -0.13,0.05 -0.18,0l-1.89 -1.87c-0.05,-0.05 -0.05,-0.13 0,-0.18 0.05,-0.05 0.13,-0.05 0.18,0l1.89 1.87z"/>
   <path class="fil3" d="M8.37 13.65c-0.05,-0.05 -0.05,-0.13 0,-0.18 0.05,-0.05 0.13,-0.05 0.18,0l1.86 1.86c0.05,0.05 0.05,0.13 0,0.18 -0.05,0.05 -0.13,0.05 -0.18,0l-1.86 -1.86z"/>
   <path class="fil3" d="M9.73 13.13c-0.05,-0.05 -0.05,-0.13 0,-0.18 0.05,-0.05 0.13,-0.05 0.18,0l1.83 1.85c0.05,0.05 0.05,0.13 0,0.18 -0.05,0.05 -0.13,0.05 -0.18,0l-1.83 -1.85z"/>
   <path class="fil3" d="M10.82 12.71c-0.05,-0.05 -0.05,-0.13 0,-0.18 0.05,-0.05 0.13,-0.05 0.18,0l1.84 1.84c0.05,0.05 0.05,0.13 0,0.18 -0.05,0.05 -0.13,0.05 -0.18,0l-1.84 -1.84z"/>
   <path class="fil3" d="M12.04 12.24c-0.05,-0.05 -0.05,-0.13 0,-0.18 0.05,-0.05 0.13,-0.05 0.18,0l1.82 1.83c0.05,0.05 0.04,0.13 -0.01,0.18 -0.05,0.05 -0.13,0.05 -0.18,0l-1.81 -1.83z"/>
   <path class="fil3" d="M13.33 11.75c-0.05,-0.05 -0.05,-0.13 -0.01,-0.18 0.05,-0.05 0.13,-0.05 0.18,0l1.85 1.8c0.05,0.05 0.05,0.13 0,0.18 -0.05,0.05 -0.13,0.05 -0.18,0l-1.84 -1.8z"/>
   <path class="fil3" d="M14.58 11.27c-0.05,-0.05 -0.04,-0.14 0.01,-0.18 0.05,-0.05 0.13,-0.05 0.18,0l1.71 1.84c0.05,0.05 0.05,0.13 -0.01,0.18 -0.05,0.04 -0.13,0.04 -0.18,-0.01l-1.71 -1.83z"/>
   <path class="fil3" d="M17.67 12.45c0.05,0.05 0.05,0.13 0,0.18 -0.05,0.05 -0.13,0.05 -0.18,0l-1.77 -1.77c-0.05,-0.05 -0.05,-0.13 0,-0.18 0.05,-0.05 0.13,-0.05 0.18,0l1.77 1.77z"/>
   <path class="fil0" d="M20.56 15.4c0.34,0.16 0.47,0.62 0.28,1.04 -0.19,0.41 -0.62,0.62 -0.97,0.46 -0.35,-0.16 -0.48,-0.62 -0.29,-1.04 0.19,-0.41 0.63,-0.62 0.98,-0.46z"/>
   <path class="fil3" d="M20.61 15.28c0.21,0.1 0.35,0.28 0.41,0.51 0.06,0.21 0.04,0.46 -0.06,0.7 -0.11,0.24 -0.29,0.41 -0.49,0.51l-0.01 0c-0.21,0.1 -0.44,0.11 -0.64,0.02 -0.21,-0.1 -0.36,-0.28 -0.42,-0.51l0 0c-0.06,-0.22 -0.04,-0.47 0.07,-0.7 0.1,-0.24 0.28,-0.41 0.48,-0.51l0.01 0c0.21,-0.1 0.44,-0.11 0.65,-0.02zm0.17 0.57c-0.04,-0.15 -0.14,-0.27 -0.28,-0.34 -0.13,-0.06 -0.29,-0.05 -0.43,0.02l-0.01 0c-0.15,0.07 -0.28,0.21 -0.36,0.39 -0.08,0.17 -0.1,0.36 -0.05,0.52l0 0c0.04,0.16 0.13,0.28 0.27,0.35 0.14,0.06 0.29,0.05 0.43,-0.02l0.01 0c0.15,-0.07 0.28,-0.21 0.37,-0.39 0.08,-0.18 0.09,-0.36 0.05,-0.53z"/>
   <path class="fil3" d="M4.28 19.74c-0.13,0.05 -0.28,-0.01 -0.33,-0.15 -0.05,-0.13 0.02,-0.28 0.15,-0.33l11.27 -4.37 -0.43 -0.41c-0.1,-0.1 -0.11,-0.26 -0.01,-0.36 0.03,-0.03 0.06,-0.05 0.09,-0.06l6.36 -2.6c0.13,-0.05 0.28,0.01 0.33,0.14 0.05,0.13 -0.01,0.28 -0.14,0.34l-5.99 2.44 0.43 0.41c0.02,0.03 0.05,0.06 0.06,0.1 0.05,0.13 -0.02,0.28 -0.15,0.33l-11.64 4.52z"/>
   <path class="fil3" d="M0.42 15.85c-0.13,0.06 -0.28,-0.01 -0.33,-0.14 -0.05,-0.13 0.01,-0.28 0.14,-0.33l11.23 -4.44c0.1,-0.04 0.21,-0.01 0.28,0.07l0.23 0.22 1.53 -0.57c0.14,-0.05 0.28,0.01 0.33,0.15 0.05,0.13 -0.02,0.28 -0.15,0.32l-1.67 0.63c-0.09,0.04 -0.2,0.02 -0.28,-0.05l-0.24 -0.23 -11.07 4.37z"/>
   <path class="fil3" d="M18.29 14.56c0.06,0.04 0.08,0.12 0.04,0.18 -0.04,0.06 -0.11,0.08 -0.17,0.04l-0.98 -0.57c-0.06,-0.03 -0.08,-0.11 -0.04,-0.17 0.04,-0.06 0.11,-0.08 0.17,-0.05l0.98 0.57z"/>
   <polygon class="fil0" points="6.45,15.51 4.88,15.35 6.1,16.65 "/>
   <path class="fil3" d="M6.28 15.62l-1.08 -0.11 0.84 0.89 0.24 -0.78zm-1.39 -0.39l1.57 0.15 0.03 0c0.06,0.02 0.1,0.1 0.08,0.16l-0.35 1.14c-0.01,0.02 -0.02,0.04 -0.04,0.06 -0.05,0.05 -0.13,0.04 -0.18,-0.01l-1.22 -1.29c-0.02,-0.03 -0.03,-0.06 -0.03,-0.1 0.01,-0.07 0.07,-0.12 0.14,-0.11z"/>
   <path class="fil0" d="M10.47 14.39l-0.05 -0.05c-0.04,-0.04 -0.06,-0.08 -0.05,-0.13 0.01,-0.06 0.04,-0.1 0.09,-0.12l2.56 -1.09c0.11,-0.05 0.23,-0.03 0.32,0.06l0.05 0.05c0.04,0.03 0.05,0.08 0.04,0.13 -0.01,0.05 -0.04,0.09 -0.08,0.11l-2.57 1.09c-0.11,0.04 -0.22,0.02 -0.31,-0.05z"/>
   <path class="fil3" d="M10.38 14.48l-0.05 -0.05c-0.03,-0.03 -0.06,-0.07 -0.07,-0.11 -0.02,-0.04 -0.02,-0.09 -0.01,-0.14 0.01,-0.04 0.02,-0.08 0.05,-0.12 0.03,-0.04 0.07,-0.07 0.11,-0.08l2.56 -1.1c0.08,-0.03 0.17,-0.04 0.24,-0.03 0.08,0.02 0.16,0.06 0.22,0.11l0.06 0.06c0.03,0.03 0.05,0.07 0.06,0.11l0 0.01c0.02,0.04 0.02,0.08 0.01,0.12 -0.01,0.05 -0.03,0.09 -0.06,0.13 -0.02,0.03 -0.06,0.06 -0.1,0.08l-2.57 1.09c-0.08,0.03 -0.16,0.04 -0.23,0.02 -0.08,-0.01 -0.16,-0.04 -0.22,-0.1zm0.13 -0.23l0.05 0.04c0.02,0.02 0.05,0.04 0.08,0.04 0.03,0.01 0.06,0 0.09,-0.01l2.57 -1.09 0 0 0.01 -0.01 0 -0.01c-0.01,-0.02 -0.04,-0.04 -0.06,-0.06 -0.02,-0.03 -0.05,-0.04 -0.08,-0.05 -0.03,0 -0.06,0 -0.1,0.02l-2.56 1.09 -0.01 0.01 0 0.01 0 0.01 0.01 0.01z"/>
   <path class="fil1" d="M16.98 10.54l1.4 1.37c0.05,0.05 0.07,0.12 0.06,0.19 -0.02,0.06 -0.04,0.1 -0.09,0.13l2.75 -1.09 -1.96 -1.68 -2.52 0.96c0.13,-0.02 0.26,0.02 0.36,0.12z"/>
   <path class="fil3" d="M18.09 12.47c-0.06,0.03 -0.14,-0.01 -0.16,-0.07 -0.03,-0.07 0.01,-0.14 0.07,-0.17l0.26 -0.09c0.01,-0.01 0.02,-0.01 0.03,-0.02 0.01,-0.01 0.02,-0.03 0.02,-0.04 0,-0.02 0,-0.03 0,-0.04 0,-0.02 -0.01,-0.03 -0.02,-0.04l-1.4 -1.37c-0.04,-0.04 -0.09,-0.07 -0.14,-0.08 -0.06,-0.01 -0.11,0 -0.17,0.02l-0.29 0.11c-0.06,0.02 -0.14,-0.01 -0.16,-0.08 -0.03,-0.06 0,-0.13 0.07,-0.16l0.29 -0.11c0.1,-0.04 0.21,-0.05 0.31,-0.03 0.1,0.02 0.19,0.07 0.27,0.15l1.4 1.37c0.04,0.04 0.07,0.09 0.08,0.14 0.02,0.06 0.02,0.11 0.01,0.17 -0.01,0.06 -0.04,0.11 -0.07,0.15 -0.04,0.05 -0.09,0.08 -0.14,0.1l-0.26 0.09z"/>
   <path class="fil3" d="M22.49 12.83c0.07,0.13 0.02,0.28 -0.11,0.35 -0.12,0.06 -0.28,0.01 -0.34,-0.11 -0.15,-0.28 -0.29,-0.56 -0.46,-0.84 -0.17,-0.27 -0.37,-0.56 -0.63,-0.86 -0.26,-0.31 -0.59,-0.63 -0.93,-0.93 -0.34,-0.29 -0.69,-0.56 -1.02,-0.77 -0.64,-0.4 -0.92,-0.48 -1.46,-0.63l-0.01 0c-0.13,-0.04 -0.21,-0.18 -0.17,-0.32 0.03,-0.13 0.17,-0.21 0.31,-0.17l0.01 0c0.58,0.16 0.89,0.25 1.59,0.69 0.35,0.22 0.73,0.5 1.08,0.81 0.36,0.32 0.71,0.66 0.99,0.99 0.28,0.32 0.5,0.63 0.68,0.93 0.18,0.3 0.32,0.58 0.47,0.86z"/>
   <path class="fil3" d="M19.22 9.36l1.96 1.69c0.05,0.04 0.06,0.12 0.01,0.18 -0.01,0.01 -0.03,0.03 -0.05,0.03l-15.84 6.29c-0.23,0.09 -0.47,0.11 -0.7,0.06 -0.23,-0.05 -0.45,-0.17 -0.64,-0.34l-0.62 -0.6c-0.11,-0.1 -0.18,-0.22 -0.22,-0.36 -0.04,-0.13 -0.05,-0.27 -0.02,-0.42 0.03,-0.14 0.1,-0.27 0.19,-0.37 0.08,-0.11 0.2,-0.19 0.34,-0.24l15.46 -5.94c0.05,-0.02 0.1,-0.01 0.13,0.02zm1.63 1.74l-1.74 -1.5 -15.39 5.92c-0.1,0.03 -0.18,0.09 -0.24,0.16 -0.06,0.08 -0.1,0.16 -0.13,0.27 -0.02,0.1 -0.01,0.2 0.01,0.29 0.03,0.09 0.08,0.17 0.16,0.24l0.62 0.61c0.15,0.14 0.33,0.23 0.51,0.27 0.18,0.04 0.37,0.03 0.56,-0.05l15.64 -6.21z"/>
   <path class="fil3" d="M13.65 11.02c-0.07,0.03 -0.14,0 -0.17,-0.07 -0.02,-0.06 0.01,-0.14 0.07,-0.17l4.46 -1.8c0.07,-0.03 0.14,0 0.17,0.07 0.03,0.06 -0.01,0.14 -0.07,0.16l-4.46 1.81z"/>
   <path class="fil3" d="M21.59 12.15c0.06,-0.02 0.14,0.01 0.16,0.08 0.03,0.06 -0.01,0.14 -0.07,0.16 -0.68,0.26 -1.36,0.51 -2.01,0.76 -0.62,0.24 -1.16,0.45 -1.55,0.62 -0.39,0.16 -0.63,0.27 -0.79,0.36 -0.15,0.08 -0.23,0.15 -0.29,0.22 -0.07,0.07 -0.13,0.15 -0.19,0.24 -0.05,0.09 -0.1,0.19 -0.15,0.32l-0.01 0.01c-0.05,0.12 -0.1,0.26 -0.13,0.41 -0.04,0.16 -0.06,0.34 -0.06,0.52 0,0.19 0.02,0.4 0.06,0.61 0.03,0.22 0.08,0.45 0.13,0.67 0.02,0.07 -0.03,0.14 -0.1,0.16 -0.06,0.01 -0.13,-0.03 -0.15,-0.1 -0.05,-0.23 -0.1,-0.45 -0.14,-0.68 -0.03,-0.23 -0.06,-0.45 -0.06,-0.66 0,-0.21 0.03,-0.4 0.07,-0.57 0.04,-0.17 0.09,-0.32 0.14,-0.46l0.01 -0.01c0.05,-0.14 0.11,-0.25 0.18,-0.36 0.06,-0.1 0.13,-0.19 0.21,-0.28 0.08,-0.08 0.18,-0.16 0.35,-0.26 0.17,-0.1 0.42,-0.21 0.82,-0.38 0.4,-0.17 0.94,-0.38 1.56,-0.62 0.59,-0.22 1.3,-0.49 2.01,-0.76z"/>
  </g>
 </g>
</svg>
