<?xml version="1.0" encoding="UTF-8"?>
<!DOCTYPE svg PUBLIC "-//W3C//DTD SVG 1.1//EN" "http://www.w3.org/Graphics/SVG/1.1/DTD/svg11.dtd">
<!-- Creator: CorelDRAW 2021.5 -->
<svg xmlns="http://www.w3.org/2000/svg" xml:space="preserve" width="500px" height="280px" version="1.1" style="shape-rendering:geometricPrecision; text-rendering:geometricPrecision; image-rendering:optimizeQuality; fill-rule:evenodd; clip-rule:evenodd"
viewBox="0 0 97.56 54.69"
 xmlns:xlink="http://www.w3.org/1999/xlink"
 xmlns:xodm="http://www.corel.com/coreldraw/odm/2003">
 <defs>
  <style type="text/css">
   <![CDATA[
    .fil6 {fill:#525252}
    .fil4 {fill:#666666}
    .fil8 {fill:#666666}
    .fil3 {fill:#707070}
    .fil2 {fill:#737373}
    .fil1 {fill:#858585}
    .fil0 {fill:#999999}
    .fil5 {fill:#BFBFBF}
    .fil7 {fill:#5F5F5F;fill-rule:nonzero}
   ]]>
  </style>
 </defs>
 <g id="Слой_x0020_1">
  <metadata id="CorelCorpID_0Corel-Layer"/>
  <g id="_1795620294768">
   <path class="fil0" d="M12.61 32.88c5.22,-1.88 13.88,-4.98 22.54,-8.08 2.11,-0.85 4.08,-1.65 5.74,-2.33 6.8,-2.77 8.59,-3.59 10.68,-4.94 2.08,-1.34 4.46,-3.2 6.77,-4.95 0.78,-0.58 1.55,-1.16 2.35,-1.72 -0.19,-0.26 -0.39,-0.52 -0.67,-0.66 -0.29,-0.13 -0.67,-0.15 -10.46,3.36 -9.8,3.51 -29,10.55 -38.67,14.14 -9.66,3.59 -9.77,3.72 -9.86,3.96 0.98,1.53 1.96,3.06 2.94,4.59 0.06,-0.17 0.26,-0.29 0.73,-0.48 0.88,-0.37 2.68,-1.02 7.91,-2.89z"/>
   <path class="fil1" d="M5.84 48.71c-0.82,-2.48 -0.41,-7.3 -1.77,-11.79 -0.09,-0.33 -0.16,-0.53 -0.1,-0.67 -0.98,-1.53 -1.96,-3.06 -2.94,-4.59 -0.09,0.23 -0.53,1.59 -0.46,3.13 0.14,3.29 0.26,6.77 1.65,10.03 1.15,1.41 2.47,2.48 3.62,3.89z"/>
   <path class="fil2" d="M5.84 48.71c2.03,-0.66 5.94,-1.71 7.97,-2.37 -0.11,-1.21 -0.16,-1.84 -0.36,-2.46 -0.22,-0.65 -0.62,-1.27 -1.17,-2.18 -0.55,-0.92 -1.25,-2.12 -1.68,-2.85 -0.44,-0.74 -0.61,-1 -0.74,-1.08 -0.13,-0.09 -0.22,0 -0.03,1.37 0.19,1.37 0.66,4.02 1.13,6.66 -0.52,-0.47 -1.04,-0.94 -1.55,-1.41 -0.42,-2.55 -0.84,-5.09 -1.05,-6.59 -0.21,-1.51 -0.21,-1.97 0.18,-2.32 0.38,-0.35 1.16,-0.58 7.45,-3.05 4.75,-1.87 12.65,-5.01 19.16,-7.63 -8.66,3.1 -17.32,6.2 -22.54,8.08 -5.23,1.87 -7.03,2.52 -7.91,2.89 -0.47,0.19 -0.67,0.31 -0.73,0.48 -0.06,0.14 0.06,0.13 0.1,0.67 0.27,3.03 0.34,8.65 1.77,11.79z"/>
   <path class="fil3" d="M32.99 29.42c0.5,0.62 1.22,1.49 1.67,1.97 0.52,0.58 0.67,0.62 0.82,0.64 0.14,0.02 0.29,0 1.41,-0.41 1.13,-0.41 3.23,-1.22 4.33,-1.68 0.15,-0.06 0.27,-0.11 0.39,-0.16 -0.54,-0.49 -1.27,-1.1 -1.72,-1.49 -0.58,-0.5 -0.72,-0.63 -0.84,-0.72 -0.12,-0.09 -0.22,-0.14 -0.36,-0.15 -0.15,-0.01 -0.33,0.01 -1.33,0.36 -1,0.36 -2.81,1.05 -3.79,1.42 -0.24,0.09 -0.43,0.16 -0.58,0.22z"/>
   <path class="fil1" d="M33.57 29.2c0.98,-0.37 2.79,-1.06 3.79,-1.42 1,-0.35 1.18,-0.37 1.33,-0.36 0.14,0.01 0.24,0.06 0.36,0.15 0.12,0.09 0.26,0.22 0.84,0.72 0.45,0.39 1.18,1 1.72,1.49 0.74,-0.32 0.83,-0.4 0.87,-0.51 0.06,-0.13 0.06,-0.29 -0.46,-0.8 -0.51,-0.52 -1.54,-1.39 -2.13,-1.89 -0.58,-0.5 -0.72,-0.63 -0.84,-0.72 -0.12,-0.08 -0.22,-0.14 -0.36,-0.15 -0.15,-0.01 -0.33,0.01 -1.33,0.36 -1,0.36 -2.81,1.05 -3.79,1.42 -0.98,0.37 -1.12,0.43 -1.21,0.5 -0.08,0.08 -0.12,0.18 -0.12,0.28 0,0.11 0.04,0.23 0.51,0.84 0.07,0.09 0.15,0.2 0.24,0.31 0.15,-0.06 0.34,-0.13 0.58,-0.22z"/>
   <path class="fil0" d="M40.72 33.2c-6.4,2.53 -16.2,6.33 -26,10.14 0.28,0.78 0.37,1.4 0.42,1.99 12.45,-4.83 24.9,-9.66 33.21,-12.93 8.31,-3.27 12.49,-4.97 15.82,-7.29 3.34,-2.31 5.84,-5.24 8.23,-7.51 2.39,-2.28 4.67,-3.9 7.34,-5.25 2.68,-1.34 5.75,-2.42 8.67,-3.44 2.9,-1.02 5.66,-1.98 8.42,-2.95 -0.08,-0.18 -0.18,-0.31 -0.43,-0.63 -0.29,-0.37 -0.77,-0.99 -1.72,-1.72 -0.96,-0.73 -2.39,-1.56 -3.39,-2.06 -1,-0.5 -1.58,-0.66 -2.07,-0.78 -0.34,-0.08 -0.64,-0.15 -0.99,-0.19 -2.57,0.56 -5.13,1.12 -8.17,2.1 -3.04,0.98 -6.56,2.38 -10.1,4.45 -3.55,2.08 -7.13,4.84 -9.13,7.69 -2.01,2.84 -2.43,5.77 -2.86,7.75 -0.43,1.98 -0.85,3.01 -1.66,3.78 -0.81,0.78 -2,1.3 -4.09,2.18 -2.1,0.89 -5.09,2.14 -11.5,4.67z"/>
   <path class="fil1" d="M48.35 32.4c-8.31,3.27 -20.76,8.1 -33.21,12.93 0.02,0.23 0.04,0.45 0.06,0.68 0.08,1.02 0.23,2.14 0.36,3.51 0.12,1.37 0.23,2.99 0.33,4.62 2.7,-1.12 5.41,-2.23 8.11,-3.35 0.06,0.27 0.12,0.53 0.18,0.8 0.95,-0.36 1.9,-0.71 2.85,-1.07 -0.04,-0.29 -0.08,-0.57 -0.12,-0.85 2.38,-1.08 4.76,-2.15 7.14,-3.22 0.06,0.24 0.12,0.48 0.18,0.71 2.58,-1.11 5.17,-2.22 7.76,-3.33 -0.04,-0.22 -0.07,-0.44 -0.1,-0.66 4.38,-1.94 8.75,-3.88 11.27,-5.11 2.52,-1.22 3.18,-1.73 5.14,-3.3 1.96,-1.58 5.22,-4.23 7.9,-6.72 2.69,-2.49 4.81,-4.82 6.54,-6.73 1.72,-1.92 3.05,-3.43 4.45,-4.64 1.4,-1.2 2.88,-2.09 5.97,-3.43 3.1,-1.33 7.82,-3.1 10.36,-4.02 2.55,-0.91 2.93,-0.97 3.15,-1.2 0.22,-0.22 0.29,-0.62 0.3,-1 0,-0.37 -0.04,-0.73 -0.11,-0.96 -0.01,-0.04 -0.02,-0.07 -0.03,-0.1 -2.76,0.97 -5.52,1.93 -8.42,2.95 -2.92,1.02 -5.99,2.1 -8.67,3.44 -2.67,1.35 -4.95,2.97 -7.34,5.25 -2.39,2.27 -4.89,5.2 -8.23,7.51 -3.33,2.32 -7.51,4.02 -15.82,7.29z"/>
   <path class="fil4" d="M11.42 37.66c-0.88,-1.28 -1.24,-1.71 -1.62,-1.93 -0.38,-0.23 -0.78,-0.26 -1.04,-0.19 -0.26,0.07 -0.36,0.24 -0.43,0.38 -0.06,0.14 -0.08,0.25 -0.11,0.36 -0.01,0.34 0.04,0.82 0.14,1.52 0.21,1.5 0.63,4.04 1.05,6.59 0.51,0.47 1.03,0.94 1.55,1.41 -0.47,-2.64 -0.94,-5.29 -1.13,-6.66 -0.19,-1.37 -0.1,-1.46 0.03,-1.37 0.13,0.08 0.3,0.34 0.74,1.08 0.43,0.73 1.13,1.93 1.68,2.85 0.55,0.91 0.95,1.53 1.17,2.18 0.2,0.62 0.25,1.25 0.36,2.46 0.01,0.08 0.02,0.16 0.02,0.25 0.13,1.37 0.33,3.44 0.54,5.51 0.5,0.68 1.01,1.36 1.52,2.04 -0.1,-1.63 -0.21,-3.25 -0.33,-4.62 -0.13,-1.37 -0.28,-2.49 -0.36,-3.51 -0.02,-0.23 -0.04,-0.45 -0.06,-0.68 -0.05,-0.59 -0.14,-1.21 -0.42,-1.99 -0.09,-0.24 -0.19,-0.49 -0.32,-0.76 -0.7,-1.52 -2.1,-3.64 -2.98,-4.92z"/>
   <path class="fil5" d="M39.05 25.86c0.12,0.09 0.26,0.22 0.84,0.72 0.59,0.5 1.62,1.37 2.13,1.89 0.52,0.51 0.52,0.67 0.46,0.8 -0.04,0.11 -0.13,0.19 -0.87,0.51 -0.12,0.05 -0.24,0.1 -0.39,0.16 -1.1,0.46 -3.2,1.27 -4.33,1.68 -1.12,0.41 -1.27,0.43 -1.41,0.41 -0.15,-0.02 -0.3,-0.06 -0.82,-0.64 -0.45,-0.48 -1.17,-1.35 -1.67,-1.97 -0.09,-0.11 -0.17,-0.22 -0.24,-0.31 -0.47,-0.61 -0.51,-0.73 -0.51,-0.84 0,-0.1 0.04,-0.2 0.12,-0.28 0.09,-0.07 0.23,-0.13 1.21,-0.5 0.98,-0.37 2.79,-1.06 3.79,-1.42 1,-0.35 1.18,-0.37 1.33,-0.36 0.14,0.01 0.24,0.07 0.36,0.15zm-29.25 9.87c0.38,0.22 0.74,0.65 1.62,1.93 0.88,1.28 2.28,3.4 2.98,4.92 0.13,0.27 0.23,0.52 0.32,0.76 9.8,-3.81 19.6,-7.61 26,-10.14 6.41,-2.53 9.4,-3.78 11.5,-4.67 2.09,-0.88 3.28,-1.4 4.09,-2.18 0.81,-0.77 1.23,-1.8 1.66,-3.78 0.43,-1.98 0.85,-4.91 2.86,-7.75 2,-2.85 5.58,-5.61 9.13,-7.69 3.54,-2.07 7.06,-3.47 10.1,-4.45 3.04,-0.98 5.6,-1.54 8.17,-2.1 -0.16,-0.01 -0.33,-0.02 -0.51,-0.02 -0.62,0 -1.45,0.08 -3.18,0.42 -1.73,0.33 -4.35,0.9 -7.73,2.04 -3.37,1.14 -7.51,2.84 -10.7,4.51 -2.12,1.11 -3.83,2.2 -5.42,3.33 -0.8,0.56 -1.57,1.14 -2.35,1.72 -2.31,1.75 -4.69,3.61 -6.77,4.95 -2.09,1.35 -3.88,2.17 -10.68,4.94 -1.66,0.68 -3.63,1.48 -5.74,2.33 -6.51,2.62 -14.41,5.76 -19.16,7.63 -6.29,2.47 -7.07,2.7 -7.45,3.05 -0.21,0.18 -0.31,0.4 -0.32,0.8 0.03,-0.11 0.05,-0.22 0.11,-0.36 0.07,-0.14 0.17,-0.31 0.43,-0.38 0.26,-0.07 0.66,-0.04 1.04,0.19z"/>
   <path class="fil6" d="M10.96 45.8l2.73 -0.7c-0.05,-0.49 -0.12,-0.86 -0.24,-1.22 -0.22,-0.65 -0.62,-1.27 -1.17,-2.18 -0.55,-0.92 -1.25,-2.12 -1.68,-2.85 -0.44,-0.74 -0.61,-1 -0.74,-1.08 -0.13,-0.09 -0.22,0 -0.03,1.37 0.19,1.37 0.66,4.02 1.13,6.66z"/>
   <path class="fil7" d="M8.15 40.71c-0.04,-0.31 0.18,-0.59 0.48,-0.63 0.31,-0.04 0.59,0.17 0.63,0.48l0.45 3.25 0.42 0.4 -0.32 -2c-0.19,-1.15 -0.34,-2.13 -0.41,-2.75 -0.09,-0.7 -0.1,-1.08 -0.07,-1.29 0.13,-0.92 0.54,-0.79 1,-0.49 0.12,0.08 0.24,0.19 0.39,0.39 0.12,0.16 0.27,0.39 0.48,0.73 0.23,0.38 0.53,0.88 0.83,1.39 0.31,0.52 0.65,1.05 0.94,1.57 0.45,0.75 0.79,1.32 1.01,1.94 0.21,0.65 0.27,1.29 0.38,2.47l0.03 0.37c0.11,1.24 0.31,3.21 0.5,5.22l0.02 0.13 1.17 1.56 7.71 -3.18c0.29,-0.11 0.61,0.02 0.73,0.31l0.03 0.09 0.04 0.17 1.83 -0.69 -0.06 -0.41c-0.03,-0.25 0.1,-0.49 0.32,-0.58l7.14 -3.22c0.28,-0.13 0.62,0 0.74,0.28 0.02,0.04 0.03,0.08 0.04,0.13l0.01 0.04 6.76 -2.91 -0.03 -0.23c-0.04,-0.26 0.11,-0.51 0.34,-0.6 2.2,-0.98 4.4,-1.95 6.31,-2.81 1.96,-0.88 3.68,-1.67 4.93,-2.28 1.24,-0.6 2.02,-1.02 2.72,-1.48 0.69,-0.46 1.34,-0.98 2.31,-1.76 0.97,-0.77 2.25,-1.82 3.67,-3.01 1.41,-1.18 2.89,-2.46 4.21,-3.68 1.32,-1.22 2.51,-2.42 3.6,-3.56 1.06,-1.11 2.02,-2.17 2.89,-3.14l0.42 -0.46c1.54,-1.72 2.77,-3.09 4.09,-4.22 0.72,-0.62 1.47,-1.17 2.43,-1.73 0.96,-0.55 2.12,-1.12 3.68,-1.79 1.32,-0.57 2.98,-1.23 4.65,-1.88 2.14,-0.83 4.29,-1.63 5.74,-2.15 0.98,-0.35 1.5,-0.53 1.88,-0.66 0.81,-0.28 1.01,-0.35 1.06,-0.41 0.04,-0.03 0.07,-0.11 0.09,-0.2 0.04,-0.14 0.05,-0.32 0.07,-0.51 0.01,-0.22 0.02,-0.44 0.01,-0.64 0,-0.17 -0.01,-0.33 -0.03,-0.45l-0.01 -0.02c-0.01,-0.06 -0.02,-0.1 -0.04,-0.13l-0.01 -0.02c-0.04,-0.06 -0.12,-0.14 -0.24,-0.25 -0.15,-0.15 -0.34,-0.33 -0.62,-0.57 -0.28,-0.23 -0.64,-0.51 -1.11,-0.83l-0.03 -0.02c-0.47,-0.32 -1.04,-0.68 -1.62,-1.02 -0.59,-0.34 -1.19,-0.67 -1.69,-0.92 -0.48,-0.24 -0.85,-0.39 -1.16,-0.5 -0.31,-0.11 -0.56,-0.18 -0.79,-0.24 -0.24,-0.06 -0.46,-0.11 -0.66,-0.14l-0.02 0c-0.2,-0.03 -0.43,-0.05 -0.69,-0.05 -0.28,0 -0.62,0.02 -1.11,0.08 -0.49,0.06 -1.12,0.16 -1.97,0.32 -0.85,0.17 -1.92,0.39 -3.21,0.72 -1.29,0.33 -2.78,0.75 -4.44,1.31 -1.73,0.59 -3.66,1.32 -5.56,2.12 -1.78,0.75 -3.53,1.56 -5.06,2.35 -1.58,0.83 -2.92,1.64 -4.16,2.47 -1.23,0.82 -2.37,1.66 -3.53,2.54l-1.28 0.97c-1.91,1.45 -3.83,2.9 -5.53,4 -1.07,0.69 -2.05,1.24 -3.64,1.98 -1.57,0.72 -3.73,1.63 -7.13,3.01 -3.17,1.3 -7.59,3.07 -12.07,4.86 -4.81,1.93 -9.58,3.82 -12.84,5.1 -1.47,0.58 -2.85,1.12 -3.92,1.53 -2.67,1.04 -3.15,1.23 -3.36,1.41 -0.08,0.07 -0.12,0.17 -0.13,0.35 -0.02,0.3 0.02,0.75 0.1,1.44l0.08 0.68 0.11 0.8c0.04,0.31 -0.17,0.59 -0.48,0.63 -0.31,0.04 -0.59,-0.17 -0.63,-0.48l-0.19 -1.5c-0.09,-0.76 -0.14,-1.27 -0.11,-1.65 0.04,-0.51 0.19,-0.82 0.5,-1.1 0.36,-0.32 0.87,-0.52 3.7,-1.62 0.91,-0.35 2.07,-0.8 3.93,-1.53 3.3,-1.3 8.07,-3.19 12.83,-5.09 4.32,-1.73 8.72,-3.5 12.06,-4.86 3.4,-1.39 5.54,-2.29 7.08,-3 1.53,-0.71 2.48,-1.24 3.5,-1.9 1.7,-1.09 3.58,-2.52 5.47,-3.95l1.28 -0.98c1.15,-0.87 2.3,-1.71 3.58,-2.57 1.27,-0.84 2.65,-1.68 4.26,-2.53 1.56,-0.81 3.34,-1.63 5.15,-2.39 1.92,-0.81 3.88,-1.56 5.63,-2.15 1.72,-0.57 3.23,-1.01 4.53,-1.34 1.3,-0.33 2.4,-0.56 3.27,-0.72 0.89,-0.17 1.54,-0.28 2.05,-0.34 0.51,-0.07 0.9,-0.09 1.24,-0.09 0.33,0 0.61,0.02 0.86,0.06l0.03 0.01c0.27,0.04 0.5,0.1 0.75,0.16 0.25,0.06 0.53,0.14 0.89,0.26 0.35,0.13 0.76,0.3 1.29,0.56 0.5,0.25 1.13,0.59 1.75,0.96 0.6,0.35 1.2,0.72 1.69,1.05l0.03 0.03c0.51,0.34 0.9,0.64 1.2,0.89 0.29,0.25 0.52,0.46 0.68,0.63 0.17,0.16 0.29,0.29 0.38,0.43l0.03 0.03c0.11,0.17 0.17,0.33 0.21,0.55l0 0.02c0.03,0.17 0.05,0.39 0.05,0.62 0.01,0.24 0,0.5 -0.02,0.73 -0.01,0.25 -0.04,0.49 -0.1,0.72 -0.07,0.27 -0.18,0.51 -0.37,0.7 -0.24,0.25 -0.49,0.34 -1.5,0.69 -0.49,0.17 -1.17,0.4 -1.86,0.65 -1.43,0.51 -3.57,1.31 -5.72,2.14 -1.61,0.63 -3.24,1.28 -4.61,1.87 -1.53,0.66 -2.65,1.2 -3.56,1.73 -0.9,0.52 -1.59,1.03 -2.27,1.61 -1.26,1.08 -2.47,2.43 -3.98,4.11l-0.42 0.47c-0.86,0.95 -1.81,2.01 -2.91,3.16 -1.08,1.14 -2.29,2.35 -3.66,3.61 -1.37,1.27 -2.86,2.56 -4.24,3.72 -1.37,1.15 -2.69,2.22 -3.69,3.02 -0.99,0.8 -1.65,1.32 -2.4,1.82 -0.75,0.49 -1.57,0.94 -2.85,1.56 -1.27,0.61 -2.99,1.41 -4.95,2.29 -1.87,0.84 -3.9,1.74 -5.94,2.65l0.03 0.22c0.04,0.25 -0.09,0.51 -0.33,0.61l-7.76 3.34 -0.09 0.03c-0.3,0.07 -0.6,-0.12 -0.68,-0.42l-0.01 -0.05 -6.15 2.76 0.06 0.44c0.04,0.26 -0.11,0.51 -0.36,0.6l-2.81 1.05c-0.03,0.02 -0.07,0.03 -0.11,0.04 -0.31,0.07 -0.61,-0.12 -0.67,-0.43l-0.03 -0.14 -7.5 3.09c-0.23,0.1 -0.5,0.03 -0.66,-0.18l-1.51 -2.02c-0.07,-0.08 -0.11,-0.18 -0.12,-0.29l-0.03 -0.29c-0.19,-1.94 -0.38,-3.85 -0.5,-5.23l-0.04 -0.37c-0.09,-1.09 -0.14,-1.67 -0.32,-2.21 -0.18,-0.52 -0.5,-1.04 -0.91,-1.72 -0.49,-0.75 -0.95,-1.6 -1.41,-2.37 0.08,0.58 0.19,1.29 0.31,2.06 0.17,1.07 0.38,2.37 0.6,3.68 0.03,0.17 -0.02,0.35 -0.15,0.48 -0.22,0.22 -0.57,0.23 -0.79,0.01l-1.77 -1.72c-0.09,-0.08 -0.15,-0.19 -0.17,-0.33l-0.48 -3.44z"/>
   <path class="fil7" d="M14.82 43.6c-0.15,0.06 -0.31,-0.02 -0.36,-0.16 -0.06,-0.14 0.01,-0.31 0.16,-0.36l0.08 -0.03c9.71,-3.77 19.41,-7.54 25.92,-10.11 3.28,-1.3 5.61,-2.24 7.36,-2.95 1.79,-0.73 3.07,-1.27 4.13,-1.72 1.03,-0.43 1.84,-0.78 2.51,-1.12 0.64,-0.33 1.12,-0.63 1.5,-1 0.37,-0.36 0.66,-0.78 0.91,-1.35 0.25,-0.58 0.46,-1.31 0.67,-2.29l0.14 -0.67c0.4,-1.96 0.94,-4.6 2.76,-7.19 0.95,-1.35 2.26,-2.69 3.75,-3.94 1.67,-1.41 3.57,-2.71 5.47,-3.82 1.78,-1.04 3.56,-1.92 5.27,-2.65 1.71,-0.73 3.35,-1.33 4.88,-1.82 1.53,-0.49 2.94,-0.88 4.28,-1.22 1.37,-0.33 2.64,-0.61 3.92,-0.89 0.15,-0.03 0.3,0.06 0.33,0.21 0.03,0.15 -0.06,0.3 -0.21,0.34 -1.29,0.28 -2.58,0.56 -3.9,0.89 -1.34,0.33 -2.73,0.71 -4.25,1.2 -1.5,0.48 -3.13,1.08 -4.83,1.8 -1.7,0.73 -3.45,1.6 -5.21,2.63 -1.87,1.09 -3.75,2.37 -5.39,3.76 -1.46,1.22 -2.73,2.52 -3.65,3.84 -1.76,2.48 -2.28,5.06 -2.68,6.97l-0.14 0.68c-0.21,1 -0.43,1.77 -0.7,2.39 -0.28,0.64 -0.61,1.12 -1.04,1.53 -0.43,0.41 -0.95,0.75 -1.63,1.1 -0.66,0.33 -1.49,0.69 -2.55,1.14 -1.03,0.44 -2.29,0.97 -4.13,1.72 -1.88,0.77 -4.24,1.72 -7.36,2.95 -6.26,2.47 -16.09,6.29 -25.93,10.11l-0.08 0.03z"/>
   <path class="fil7" d="M15.24 45.59c-0.14,0.06 -0.3,-0.02 -0.36,-0.16 -0.05,-0.14 0.02,-0.3 0.16,-0.36 6.23,-2.41 12.45,-4.83 18.16,-7.05 5.63,-2.19 10.8,-4.21 15.05,-5.88 4.15,-1.63 7.27,-2.87 9.76,-3.99 2.49,-1.12 4.35,-2.12 6,-3.27 2.41,-1.67 4.39,-3.67 6.2,-5.51 0.69,-0.69 1.34,-1.36 1.99,-1.98 1.21,-1.14 2.39,-2.13 3.6,-2.99 1.22,-0.87 2.47,-1.62 3.82,-2.3 2.69,-1.35 5.76,-2.43 8.69,-3.45l8.48 -2.97c0.15,-0.05 0.31,0.03 0.36,0.17 0.05,0.15 -0.03,0.31 -0.17,0.36l-8.49 2.97c-2.91,1.01 -5.96,2.08 -8.62,3.42 -1.32,0.67 -2.55,1.41 -3.74,2.25 -1.2,0.85 -2.35,1.82 -3.54,2.95 -0.65,0.61 -1.3,1.28 -1.98,1.96 -1.83,1.86 -3.83,3.88 -6.28,5.58 -1.68,1.17 -3.57,2.18 -6.09,3.32 -2.5,1.12 -5.63,2.37 -9.79,4 -4.06,1.6 -9.27,3.63 -15.05,5.88 -5.71,2.22 -11.93,4.64 -18.16,7.05z"/>
   <path class="fil7" d="M8.5 36.33c-0.03,0.15 -0.18,0.25 -0.33,0.22 -0.15,-0.02 -0.25,-0.17 -0.22,-0.32l0 -0.01c0.03,-0.12 0.05,-0.25 0.13,-0.41 0.04,-0.1 0.1,-0.2 0.19,-0.3 0.1,-0.1 0.23,-0.19 0.42,-0.24 0.17,-0.05 0.39,-0.06 0.63,-0.02 0.2,0.04 0.42,0.11 0.62,0.24 0.22,0.13 0.43,0.31 0.7,0.63 0.25,0.3 0.56,0.73 1.01,1.38 0.51,0.74 1.2,1.77 1.82,2.81 0.46,0.75 0.89,1.51 1.18,2.15 0.67,1.43 0.74,2.33 0.81,3.27l0.02 0.26c0.04,0.54 0.1,1.11 0.17,1.72l0 0.01c0.06,0.53 0.12,1.11 0.18,1.77 0.07,0.71 0.13,1.45 0.18,2.22l0.16 2.41c0.01,0.15 -0.11,0.28 -0.26,0.29 -0.16,0.01 -0.29,-0.1 -0.3,-0.26l-0.16 -2.4c-0.05,-0.79 -0.11,-1.54 -0.17,-2.21 -0.06,-0.61 -0.13,-1.2 -0.19,-1.76l0 0c-0.07,-0.63 -0.13,-1.21 -0.17,-1.74l-0.02 -0.27c-0.07,-0.88 -0.13,-1.73 -0.75,-3.07 -0.3,-0.63 -0.71,-1.37 -1.16,-2.1 -0.61,-1.02 -1.29,-2.05 -1.8,-2.78 -0.43,-0.63 -0.74,-1.05 -0.98,-1.34 -0.23,-0.27 -0.39,-0.42 -0.55,-0.51 -0.15,-0.09 -0.3,-0.14 -0.43,-0.17 -0.16,-0.02 -0.3,-0.02 -0.4,0.01 -0.07,0.02 -0.12,0.05 -0.15,0.09 -0.04,0.04 -0.07,0.09 -0.09,0.14 -0.05,0.11 -0.07,0.2 -0.09,0.29z"/>
   <path class="fil7" d="M61.14 10.52c0.18,0.25 0.13,0.6 -0.11,0.78 -0.25,0.19 -0.6,0.14 -0.79,-0.11 -0.09,-0.11 -0.17,-0.23 -0.26,-0.32 -0.07,-0.07 -0.13,-0.13 -0.21,-0.16 -0.03,-0.02 -0.1,-0.02 -1.25,0.33 -1.34,0.42 -3.86,1.28 -8.71,3.02 -4.05,1.45 -9.89,3.58 -16.04,5.83 -8.07,2.94 -16.79,6.15 -22.46,8.24 -4.89,1.8 -7.39,2.73 -8.65,3.22 -1.2,0.47 -1.29,0.52 -1.35,0.57 -0.03,0.04 -0.06,0.08 -0.09,0.2 -0.05,0.21 -0.08,0.55 -0.09,1.13 -0.02,0.67 -0.02,1.63 0.03,2.69 0.03,0.85 0.1,1.76 0.19,2.63 0.09,0.84 0.22,1.63 0.35,2.33 0.17,0.92 0.36,1.7 0.52,2.29 0.14,0.51 0.26,0.88 0.41,1.2 0.14,0.31 0.32,0.59 0.57,0.93 0.3,0.39 0.7,0.87 1.12,1.29 0.33,0.33 0.68,0.62 0.99,0.82l0.04 0.02c0.29,0.17 0.56,0.26 0.89,0.26 0.4,0.01 0.89,-0.08 1.57,-0.25 0.68,-0.16 1.59,-0.41 2.62,-0.71 1.08,-0.31 2.15,-0.62 3.22,-0.94 0.3,-0.09 0.61,0.08 0.7,0.38 0.08,0.29 -0.09,0.6 -0.38,0.69 -1.15,0.34 -2.29,0.68 -3.23,0.95 -1,0.29 -1.92,0.54 -2.68,0.72 -0.76,0.18 -1.33,0.29 -1.83,0.28 -0.55,-0.01 -0.99,-0.14 -1.46,-0.43l-0.04 -0.02c-0.39,-0.24 -0.8,-0.59 -1.19,-0.98 -0.47,-0.46 -0.91,-0.98 -1.23,-1.41 -0.31,-0.41 -0.52,-0.75 -0.7,-1.14 -0.17,-0.38 -0.31,-0.79 -0.46,-1.37 -0.17,-0.62 -0.37,-1.43 -0.55,-2.37 -0.14,-0.74 -0.27,-1.55 -0.36,-2.42 -0.1,-0.88 -0.16,-1.82 -0.2,-2.71 -0.04,-1.07 -0.05,-2.06 -0.03,-2.76 0.02,-0.66 0.06,-1.08 0.12,-1.35 0.09,-0.38 0.22,-0.57 0.4,-0.74 0.15,-0.15 0.31,-0.27 1.73,-0.82 1.36,-0.53 3.86,-1.46 8.66,-3.23 5.46,-2.01 14.1,-5.19 22.47,-8.24 6,-2.2 11.81,-4.31 16.04,-5.83 4.88,-1.75 7.42,-2.62 8.77,-3.03 1.54,-0.48 1.81,-0.4 2.06,-0.28 0.21,0.1 0.38,0.24 0.53,0.39l0 0.01c0.14,0.14 0.24,0.28 0.35,0.42z"/>
   <path class="fil7" d="M6.92 48.15c0.14,0.06 0.21,0.22 0.15,0.36 -0.05,0.14 -0.22,0.21 -0.36,0.15 -0.23,-0.09 -0.46,-0.18 -0.7,-0.43 -0.23,-0.23 -0.46,-0.6 -0.68,-1.22 -0.21,-0.57 -0.42,-1.36 -0.61,-2.25 -0.21,-0.97 -0.41,-2.05 -0.56,-3.07 -0.14,-0.97 -0.24,-1.89 -0.3,-2.68l0 -0.01c-0.06,-0.8 -0.08,-1.48 -0.04,-1.96 0.04,-0.52 0.14,-0.85 0.29,-1.07l0.02 -0.02c0.16,-0.23 0.36,-0.34 0.6,-0.45 0.21,-0.11 0.46,-0.21 0.74,-0.32 0.25,-0.1 0.59,-0.23 0.99,-0.38l1.72 -0.63c8.96,-3.22 17.92,-6.43 26.88,-9.64 0.14,-0.05 0.3,0.03 0.35,0.17 0.06,0.15 -0.02,0.31 -0.17,0.36l-22.11 7.93 -4.76 1.71 -1.71 0.63c-0.35,0.12 -0.66,0.24 -0.98,0.37 -0.28,0.11 -0.52,0.21 -0.72,0.3 -0.16,0.08 -0.29,0.15 -0.38,0.27l0 0.01c-0.1,0.15 -0.17,0.39 -0.2,0.8 -0.04,0.46 -0.02,1.11 0.04,1.88l0 0c0.05,0.78 0.16,1.68 0.3,2.65 0.14,1 0.34,2.07 0.55,3.03 0.19,0.87 0.39,1.64 0.58,2.18 0.2,0.54 0.38,0.84 0.56,1.02 0.16,0.17 0.34,0.24 0.51,0.31z"/>
   <path class="fil7" d="M4.51 36.06c0.09,0.13 0.06,0.3 -0.07,0.39 -0.12,0.09 -0.3,0.06 -0.39,-0.06l-3.25 -4.57c-0.08,-0.13 -0.06,-0.3 0.07,-0.39 0.13,-0.09 0.3,-0.06 0.39,0.07l3.25 4.56z"/>
   <path class="fil7" d="M11.09 46.34c-0.3,0.08 -0.6,-0.1 -0.68,-0.4 -0.07,-0.3 0.11,-0.61 0.41,-0.68l2.73 -0.7c0.3,-0.08 0.61,0.11 0.69,0.41 0.07,0.3 -0.11,0.6 -0.41,0.68l-2.74 0.69z"/>
   <path class="fil7" d="M32.97 28.94c0.25,0.32 0.62,0.78 0.99,1.23 0.33,0.39 0.66,0.77 0.9,1.04 0.25,0.26 0.4,0.41 0.51,0.48 0.07,0.05 0.1,0.06 0.14,0.06 0.04,0.01 0.09,0.01 0.24,-0.03 0.18,-0.05 0.49,-0.16 1.05,-0.36 0.59,-0.22 1.41,-0.53 2.21,-0.84 0.79,-0.3 1.57,-0.61 2.1,-0.83 0.54,-0.23 0.84,-0.36 1,-0.45 0.1,-0.06 0.11,-0.07 0.12,-0.08l-0.01 -0.03c-0.05,-0.09 -0.16,-0.23 -0.39,-0.47 -0.47,-0.46 -1.34,-1.21 -1.93,-1.71 -0.23,-0.19 -0.46,-0.38 -0.68,-0.58 -0.19,-0.16 -0.27,-0.23 -0.34,-0.28 -0.04,-0.03 -0.08,-0.06 -0.12,-0.07l-0.01 -0.01c-0.02,-0.01 -0.06,-0.02 -0.09,-0.02 -0.04,-0.01 -0.1,0 -0.25,0.03l-0.02 0.01c-0.18,0.05 -0.46,0.14 -0.94,0.31 -0.51,0.18 -1.21,0.44 -1.9,0.7l-1.88 0.71c-0.49,0.19 -0.77,0.3 -0.93,0.36 -0.13,0.06 -0.17,0.08 -0.19,0.09 -0.03,0.04 -0.03,0.04 -0.03,0.09 0,0.01 0.01,0.03 0.04,0.08 0.06,0.1 0.18,0.28 0.41,0.57zm0.56 1.59c-0.37,-0.45 -0.75,-0.92 -1,-1.25 -0.25,-0.31 -0.38,-0.51 -0.46,-0.64 -0.08,-0.15 -0.1,-0.25 -0.11,-0.33l0 -0.04c0,-0.07 0.01,-0.15 0.04,-0.23l0.01 -0.03c0.04,-0.08 0.09,-0.16 0.17,-0.23 0.07,-0.06 0.15,-0.1 0.35,-0.19 0.18,-0.07 0.45,-0.18 0.94,-0.36l1.89 -0.71c0.7,-0.27 1.41,-0.53 1.9,-0.71 0.49,-0.17 0.79,-0.27 0.99,-0.32l0.02 -0.01c0.23,-0.06 0.34,-0.06 0.44,-0.05 0.1,0.01 0.18,0.03 0.26,0.06l0.02 0.01c0.08,0.04 0.15,0.08 0.23,0.14 0.08,0.06 0.16,0.13 0.37,0.31l0.67 0.58c0.6,0.51 1.5,1.28 1.96,1.74 0.28,0.28 0.43,0.47 0.5,0.62 0.1,0.22 0.08,0.36 0.02,0.48 -0.05,0.12 -0.11,0.22 -0.36,0.36 -0.18,0.1 -0.49,0.24 -1.05,0.47 -0.55,0.23 -1.33,0.54 -2.12,0.84 -0.84,0.33 -1.67,0.64 -2.22,0.85 -0.57,0.2 -0.9,0.31 -1.1,0.37 -0.24,0.06 -0.34,0.06 -0.44,0.05 -0.12,-0.02 -0.23,-0.04 -0.4,-0.16 -0.14,-0.1 -0.32,-0.26 -0.6,-0.57 -0.25,-0.27 -0.58,-0.65 -0.92,-1.05z"/>
   <path class="fil7" d="M41.8 29.58c0.11,0.1 0.12,0.28 0.01,0.39 -0.1,0.11 -0.28,0.12 -0.39,0.02 -0.45,-0.42 -1.05,-0.93 -1.5,-1.31 -0.23,-0.2 -0.48,-0.4 -0.71,-0.61 -0.18,-0.15 -0.26,-0.22 -0.33,-0.27 -0.04,-0.03 -0.08,-0.06 -0.12,-0.08l-0.01 0c-0.02,-0.01 -0.06,-0.02 -0.09,-0.02 -0.04,-0.01 -0.1,0 -0.25,0.03l-0.02 0.01c-0.18,0.05 -0.46,0.14 -0.94,0.31 -0.51,0.18 -1.21,0.44 -1.9,0.7l-2.46 0.93c-0.14,0.06 -0.3,-0.02 -0.36,-0.16 -0.05,-0.14 0.02,-0.31 0.16,-0.36l2.47 -0.94c0.7,-0.26 1.41,-0.52 1.9,-0.7 0.49,-0.17 0.79,-0.27 0.99,-0.32l0.02 -0.01c0.23,-0.06 0.34,-0.06 0.44,-0.05 0.1,0.01 0.18,0.03 0.26,0.06l0.02 0.01c0.08,0.04 0.15,0.08 0.23,0.14 0.08,0.06 0.16,0.13 0.36,0.3l0.7 0.61c0.45,0.38 1.04,0.88 1.52,1.32z"/>
   <ellipse class="fil8" transform="matrix(1.94927 -0.363352 0.363352 1.94927 2.37797 39.6883)" rx="0.32" ry="0.74"/>
   <path class="fil7" d="M2.06 37.97c0.29,-0.06 0.58,0.12 0.8,0.45 0.18,0.27 0.34,0.66 0.42,1.1l0 0.01c0.08,0.43 0.08,0.85 0,1.16 -0.09,0.4 -0.29,0.67 -0.58,0.72 -0.29,0.06 -0.58,-0.12 -0.8,-0.46 -0.19,-0.27 -0.34,-0.66 -0.42,-1.09l0 -0.01c-0.08,-0.44 -0.08,-0.85 -0.01,-1.16 0.09,-0.4 0.29,-0.67 0.59,-0.72zm0.34 0.77c-0.1,-0.15 -0.19,-0.23 -0.24,-0.23 -0.05,0.01 -0.1,0.13 -0.14,0.3 -0.06,0.24 -0.06,0.57 0,0.92l0.01 0.05c0.07,0.35 0.19,0.65 0.33,0.86 0.1,0.15 0.18,0.23 0.24,0.22 0.05,-0.01 0.1,-0.12 0.14,-0.29 0.05,-0.24 0.06,-0.57 -0.01,-0.92l-0.01 -0.05c-0.06,-0.35 -0.18,-0.66 -0.32,-0.86z"/>
   <ellipse class="fil8" transform="matrix(1.41152 -0.263113 0.263112 1.41152 2.9043 43.194)" rx="0.32" ry="0.74"/>
   <path class="fil7" d="M2.67 41.87c0.24,-0.04 0.47,0.1 0.65,0.37 0.14,0.2 0.25,0.49 0.31,0.82l0 0.01c0.06,0.32 0.06,0.63 0.01,0.87 -0.08,0.31 -0.24,0.53 -0.49,0.58l-0.01 0c-0.24,0.04 -0.47,-0.11 -0.65,-0.37 -0.14,-0.2 -0.25,-0.49 -0.31,-0.82l-0.01 -0.02c-0.05,-0.32 -0.05,-0.62 0,-0.86 0.08,-0.31 0.24,-0.53 0.49,-0.58l0.01 0zm0.18 0.68c-0.05,-0.08 -0.08,-0.13 -0.09,-0.13 0,0 -0.02,0.06 -0.04,0.15 -0.04,0.17 -0.04,0.39 0,0.63l0.01 0.05c0.05,0.24 0.13,0.45 0.22,0.59 0.06,0.08 0.09,0.12 0.1,0.13 0,-0.01 0.02,-0.06 0.04,-0.16 0.04,-0.16 0.04,-0.38 0,-0.63l-0.01 -0.04c-0.05,-0.24 -0.13,-0.45 -0.23,-0.59z"/>
   <path class="fil2" d="M6.26 38.79c0.03,0.52 0.06,1.04 0.09,1.57 0.23,0.14 0.46,0.28 0.9,0.43 0.44,0.16 1.1,0.33 1.66,0.38 0.06,0.01 0.13,0.02 0.19,0.02 0.46,0.03 0.86,-0.02 1.26,-0.07 -0.09,-0.54 -0.17,-1.05 -0.25,-1.5 -0.29,0.03 -0.58,0.06 -0.95,0.05 -0.1,-0.01 -0.2,-0.01 -0.31,-0.02 -0.33,-0.03 -0.7,-0.1 -1.08,-0.22 -0.49,-0.15 -1,-0.4 -1.51,-0.64z"/>
   <path class="fil1" d="M9.16 39.67c0.37,0.01 0.66,-0.02 0.95,-0.05 -0.04,-0.26 -0.08,-0.5 -0.11,-0.72 -0.27,0.02 -0.54,0.04 -0.77,0.02 -0.19,-0.01 -0.35,-0.05 -0.51,-0.09 -0.02,-0.17 -0.05,-0.32 -0.07,-0.47 -0.02,0 -0.03,0 -0.05,0.01 -0.78,0.14 -1.56,0.28 -2.34,0.42 0.51,0.24 1.02,0.49 1.51,0.64 0.38,0.12 0.75,0.19 1.08,0.22 0.11,0.01 0.21,0.01 0.31,0.02z"/>
   <path class="fil7" d="M10.38 40.84c0.15,-0.02 0.29,0.09 0.31,0.24 0.02,0.16 -0.09,0.3 -0.24,0.31 -0.24,0.03 -0.48,0.06 -0.74,0.08 -0.26,0.01 -0.53,0.01 -0.83,-0.02 -0.27,-0.03 -0.56,-0.08 -0.84,-0.14 -0.33,-0.08 -0.63,-0.17 -0.88,-0.25 -0.23,-0.09 -0.41,-0.17 -0.56,-0.24 -0.16,-0.08 -0.27,-0.15 -0.39,-0.23 -0.13,-0.08 -0.17,-0.25 -0.09,-0.38 0.08,-0.13 0.25,-0.17 0.38,-0.09 0.11,0.07 0.22,0.13 0.35,0.2 0.13,0.07 0.29,0.14 0.49,0.21 0.23,0.08 0.52,0.16 0.82,0.23 0.26,0.06 0.53,0.11 0.78,0.14 0.26,0.02 0.51,0.02 0.74,0.01 0.23,-0.01 0.46,-0.04 0.7,-0.07z"/>
   <path class="fil7" d="M5.99 38.81c-0.01,-0.16 0.11,-0.29 0.26,-0.3 0.15,-0.01 0.29,0.11 0.29,0.27l0.09 1.56c0.01,0.15 -0.11,0.29 -0.26,0.29 -0.15,0.01 -0.29,-0.11 -0.3,-0.26l-0.08 -1.56z"/>
   <path class="fil7" d="M8.57 39.07c-0.15,-0.05 -0.23,-0.2 -0.18,-0.35 0.05,-0.14 0.2,-0.22 0.34,-0.18 0.16,0.04 0.33,0.09 0.52,0.1 0.11,0.01 0.22,0.01 0.34,0l0.39 -0.02c0.16,-0.01 0.29,0.11 0.3,0.26 0.01,0.15 -0.11,0.29 -0.26,0.3l-0.41 0.02c-0.14,0.01 -0.27,0.01 -0.39,0 -0.25,-0.02 -0.45,-0.07 -0.64,-0.12l-0.01 -0.01z"/>
   <path class="fil2" d="M6.8 42.42c0.03,0.52 0.06,1.04 0.09,1.56 0.23,0.14 0.45,0.28 0.89,0.44 0.45,0.15 1.1,0.32 1.66,0.38 0.07,0.01 0.13,0.01 0.19,0.01 0.46,0.03 0.87,-0.01 1.27,-0.06 -0.1,-0.55 -0.18,-1.06 -0.25,-1.51 -0.29,0.04 -0.59,0.07 -0.96,0.05 -0.1,0 -0.2,-0.01 -0.3,-0.02 -0.34,-0.03 -0.71,-0.09 -1.09,-0.21 -0.49,-0.16 -1,-0.4 -1.5,-0.64z"/>
   <path class="fil1" d="M9.69 43.29c0.37,0.02 0.67,-0.01 0.96,-0.05 -0.05,-0.26 -0.08,-0.5 -0.12,-0.72 -0.27,0.02 -0.54,0.04 -0.76,0.03 -0.2,-0.02 -0.36,-0.06 -0.51,-0.1 -0.03,-0.16 -0.05,-0.32 -0.08,-0.47 -0.01,0.01 -0.03,0.01 -0.05,0.01 -0.78,0.14 -1.55,0.28 -2.33,0.43 0.5,0.24 1.01,0.48 1.5,0.64 0.38,0.12 0.75,0.18 1.09,0.21 0.1,0.01 0.2,0.02 0.3,0.02z"/>
   <path class="fil7" d="M6.52 42.43c-0.01,-0.15 0.11,-0.28 0.26,-0.29 0.16,-0.01 0.29,0.11 0.3,0.26l0.09 1.57c0,0.15 -0.11,0.28 -0.27,0.29 -0.15,0.01 -0.28,-0.11 -0.29,-0.26l-0.09 -1.57z"/>
   <path class="fil7" d="M9.1 42.7c-0.14,-0.05 -0.22,-0.21 -0.18,-0.36 0.05,-0.14 0.2,-0.22 0.34,-0.18 0.17,0.05 0.33,0.09 0.53,0.11 0.1,0 0.21,0 0.33,0l0.4 -0.03c0.15,-0.01 0.28,0.11 0.29,0.27 0.01,0.15 -0.1,0.28 -0.26,0.29l-0.4 0.03c-0.15,0 -0.28,0 -0.4,-0.01 -0.25,-0.01 -0.44,-0.07 -0.63,-0.12l-0.02 0z"/>
   <path class="fil7" d="M6.14 39.04c-0.14,-0.06 -0.19,-0.23 -0.13,-0.37 0.07,-0.14 0.24,-0.2 0.38,-0.13 0.49,0.24 0.99,0.48 1.47,0.63 0.21,0.07 0.43,0.12 0.64,0.15 0.24,0.04 0.47,0.06 0.67,0.07 0.37,0.01 0.67,-0.02 0.97,-0.06l0 0c0.15,-0.02 0.3,0.08 0.32,0.24 0.02,0.15 -0.08,0.29 -0.24,0.31l-0.01 0.01c-0.32,0.03 -0.64,0.07 -1.06,0.06 -0.23,-0.01 -0.48,-0.03 -0.74,-0.08 -0.23,-0.04 -0.48,-0.09 -0.72,-0.17 -0.52,-0.16 -1.03,-0.41 -1.55,-0.66z"/>
   <path class="fil7" d="M6.31 39.06c-0.15,0.03 -0.29,-0.07 -0.32,-0.22 -0.03,-0.15 0.07,-0.3 0.23,-0.32l2.38 -0.44c0.15,-0.02 0.3,0.08 0.33,0.23 0.02,0.15 -0.08,0.29 -0.23,0.32l-2.39 0.43z"/>
   <path class="fil7" d="M6.68 42.67c-0.14,-0.07 -0.2,-0.24 -0.13,-0.38 0.06,-0.13 0.23,-0.19 0.37,-0.13 0.49,0.24 0.99,0.48 1.47,0.63 0.22,0.07 0.44,0.12 0.64,0.16 0.24,0.04 0.47,0.06 0.67,0.06 0.37,0.02 0.67,-0.02 0.97,-0.05l0 0c0.16,-0.03 0.3,0.08 0.32,0.23 0.03,0.15 -0.08,0.3 -0.23,0.32l-0.02 0c-0.31,0.04 -0.63,0.08 -1.06,0.06 -0.22,-0.01 -0.48,-0.03 -0.74,-0.07 -0.23,-0.04 -0.48,-0.1 -0.72,-0.17 -0.51,-0.16 -1.03,-0.41 -1.54,-0.66z"/>
   <path class="fil7" d="M10.91 44.46c0.16,-0.01 0.3,0.1 0.31,0.25 0.02,0.15 -0.09,0.29 -0.24,0.31 -0.24,0.03 -0.47,0.06 -0.74,0.07 -0.26,0.02 -0.53,0.02 -0.83,-0.01 -0.27,-0.03 -0.56,-0.08 -0.84,-0.15 -0.32,-0.07 -0.63,-0.16 -0.88,-0.25 -0.23,-0.08 -0.41,-0.16 -0.56,-0.24 -0.15,-0.07 -0.27,-0.15 -0.39,-0.22 -0.13,-0.08 -0.17,-0.25 -0.09,-0.39 0.08,-0.13 0.25,-0.17 0.38,-0.09 0.11,0.07 0.22,0.14 0.35,0.21 0.13,0.06 0.29,0.13 0.5,0.2 0.22,0.08 0.51,0.17 0.81,0.24 0.26,0.06 0.53,0.11 0.78,0.13 0.26,0.03 0.51,0.03 0.74,0.01 0.23,-0.01 0.47,-0.04 0.7,-0.07z"/>
   <path class="fil7" d="M6.85 42.69c-0.15,0.03 -0.3,-0.07 -0.33,-0.23 -0.02,-0.15 0.08,-0.29 0.23,-0.32l2.38 -0.43c0.16,-0.03 0.3,0.07 0.33,0.22 0.03,0.15 -0.07,0.3 -0.23,0.33l-2.38 0.43z"/>
  </g>
 </g>
</svg>
