<?xml version="1.0" encoding="UTF-8"?>
<!DOCTYPE svg PUBLIC "-//W3C//DTD SVG 1.1//EN" "http://www.w3.org/Graphics/SVG/1.1/DTD/svg11.dtd">
<!-- Creator: CorelDRAW 2021.5 -->
<svg xmlns="http://www.w3.org/2000/svg" xml:space="preserve" width="500px" height="208px" version="1.1" style="shape-rendering:geometricPrecision; text-rendering:geometricPrecision; image-rendering:optimizeQuality; fill-rule:evenodd; clip-rule:evenodd"
viewBox="0 0 41.69 17.34"
 xmlns:xlink="http://www.w3.org/1999/xlink"
 xmlns:xodm="http://www.corel.com/coreldraw/odm/2003">
 <defs>
  <style type="text/css">
   <![CDATA[
    .fil3 {fill:#575757}
    .fil2 {fill:dimgray}
    .fil5 {fill:#6E6E6E}
    .fil0 {fill:#737373}
    .fil11 {fill:#7A7A7A}
    .fil4 {fill:gray}
    .fil10 {fill:#858585}
    .fil12 {fill:#8A8A8A}
    .fil8 {fill:#999999}
    .fil9 {fill:#A6A6A6}
    .fil7 {fill:#ADADAD}
    .fil6 {fill:#BFBFBF}
    .fil1 {fill:#5F5F5F;fill-rule:nonzero}
   ]]>
  </style>
 </defs>
 <g id="Слой_x0020_1">
  <metadata id="CorelCorpID_0Corel-Layer"/>
  <g id="_2928648652192">
   <polygon class="fil0" points="14.48,15.39 15.43,17.01 34.7,8.33 33.74,7 "/>
   <path class="fil1" d="M14.82 15.51l0.71 1.2 18.8 -8.48 -0.68 -0.94 -18.83 8.22zm0.41 1.62l-0.95 -1.6 -0.02 -0.04c-0.05,-0.12 0.01,-0.26 0.13,-0.31l19.25 -8.4c0.1,-0.04 0.22,-0.01 0.29,0.08l0.95 1.31c0.01,0.02 0.02,0.04 0.03,0.06 0.06,0.12 0,0.26 -0.12,0.31l-19.26 8.69c-0.11,0.05 -0.24,0.01 -0.3,-0.1z"/>
   <ellipse class="fil2" transform="matrix(1.18307 -0.800735 0.800734 1.18307 14.9062 16.2304)" rx="0.49" ry="0.66"/>
   <path class="fil1" d="M14.24 15.25c0.23,-0.15 0.51,-0.17 0.78,-0.07 0.25,0.08 0.49,0.26 0.66,0.52 0.18,0.26 0.26,0.55 0.25,0.81 -0.01,0.29 -0.14,0.55 -0.36,0.7 -0.23,0.15 -0.51,0.17 -0.78,0.08 -0.25,-0.09 -0.49,-0.27 -0.66,-0.53 -0.18,-0.26 -0.26,-0.55 -0.25,-0.81 0.02,-0.29 0.14,-0.54 0.36,-0.7zm0.63 0.37c-0.14,-0.04 -0.26,-0.04 -0.36,0.03 -0.09,0.06 -0.15,0.18 -0.15,0.32 -0.01,0.16 0.04,0.35 0.16,0.52 0.12,0.17 0.27,0.29 0.43,0.35 0.13,0.04 0.26,0.04 0.35,-0.03 0.1,-0.06 0.15,-0.18 0.15,-0.32 0.01,-0.16 -0.04,-0.35 -0.16,-0.52 -0.11,-0.17 -0.27,-0.29 -0.42,-0.35z"/>
   <path class="fil3" d="M14.91 6.3c0.08,-0.11 0.18,-0.21 0.29,-0.31l-0.64 -0.26c-0.14,-0.05 -0.28,-0.07 -0.42,-0.06 -0.08,0.01 -0.17,0.03 -0.26,0.07l-1.45 0.65 1.83 0.67c0.13,0.04 0.26,0.06 0.38,0.05 0.02,-0.13 0.04,-0.24 0.07,-0.36 0.04,-0.16 0.11,-0.32 0.2,-0.45z"/>
   <path class="fil1" d="M14.82 6.23c0.04,-0.06 0.09,-0.12 0.14,-0.17l0.03 -0.03 -0.48 -0.19c-0.05,-0.02 -0.12,-0.04 -0.17,-0.05 -0.07,-0.01 -0.12,-0.01 -0.18,0 -0.04,0.01 -0.08,0.01 -0.12,0.02 -0.04,0.01 -0.07,0.03 -0.11,0.04l-1.18 0.53 1.55 0.57c0.06,0.02 0.12,0.03 0.17,0.04l0.07 0 0.01 -0.08c0.01,-0.07 0.03,-0.13 0.04,-0.19 0.03,-0.09 0.05,-0.17 0.09,-0.25 0.04,-0.09 0.08,-0.17 0.14,-0.24l0 0zm0.31 -0.01c-0.05,0.05 -0.09,0.09 -0.12,0.15 -0.05,0.06 -0.09,0.13 -0.11,0.19 -0.03,0.07 -0.06,0.14 -0.08,0.22 -0.01,0.05 -0.02,0.11 -0.03,0.16 -0.01,0.06 -0.02,0.12 -0.03,0.18 0,0.05 -0.05,0.1 -0.1,0.1 -0.07,0.01 -0.14,0.01 -0.21,0l-0.01 0c-0.07,-0.01 -0.14,-0.03 -0.22,-0.05l-1.83 -0.67c-0.02,0 -0.05,-0.03 -0.06,-0.06 -0.03,-0.06 0,-0.13 0.06,-0.15l1.45 -0.65c0.04,-0.02 0.1,-0.04 0.14,-0.06 0.05,-0.01 0.1,-0.02 0.15,-0.02 0.08,-0.02 0.16,-0.01 0.24,0 0.07,0.01 0.15,0.03 0.23,0.06l0.64 0.26c0.01,0.01 0.03,0.02 0.04,0.03 0.05,0.05 0.05,0.12 0,0.16 -0.05,0.06 -0.11,0.1 -0.15,0.15l0 0z"/>
   <path class="fil4" d="M13.88 5.74c0.09,-0.04 0.18,-0.06 0.26,-0.07l0 -0.51c-0.08,0.01 -0.17,0.04 -0.26,0.08l-1.91 0.86c-0.03,0.01 -0.04,0.03 -0.04,0.06 0,0.03 0.01,0.06 0.04,0.07l0.46 0.16 1.45 -0.65z"/>
   <path class="fil5" d="M14.14 5.67c0.14,-0.01 0.28,0.01 0.42,0.06l0.64 0.26 1.07 0.43 0.44 -0.2c0.02,-0.01 0.04,-0.04 0.04,-0.07 0,-0.03 -0.02,-0.05 -0.05,-0.06l-2.14 -0.87c-0.14,-0.05 -0.28,-0.08 -0.42,-0.06l0 0.51 0 0z"/>
   <path class="fil6" d="M6.37 10.63c0.89,0.34 1.05,0.44 1.18,0.56 5.18,-2.31 10.35,-4.62 15.53,-6.92 -0.31,-0.02 -0.79,-0.03 -1.65,-0.04 -1.71,-0.02 -4.88,-0.02 -6.54,0 -1.64,0.01 -1.78,0.04 -3.32,0.66 -1.54,0.63 -4.47,1.86 -7.41,3.1 -0.58,0.24 -1.16,0.49 -1.61,0.68 -0.41,0.17 -0.71,0.31 -0.96,0.44 0.05,-0.02 0.13,-0.04 0.21,-0.05 0.14,0 0.32,0.03 1.2,0.34 0.89,0.31 2.49,0.89 3.37,1.23l0 0zm7.89 -3.57l-1.83 -0.67 -0.46 -0.16c-0.03,-0.01 -0.04,-0.04 -0.04,-0.07 0,-0.03 0.01,-0.05 0.04,-0.06l1.91 -0.86c0.09,-0.04 0.18,-0.07 0.26,-0.08 0.14,-0.02 0.28,0.01 0.42,0.06l2.14 0.87c0.03,0.01 0.05,0.03 0.05,0.06 0,0.03 -0.02,0.06 -0.04,0.07l-0.44 0.2 -1.36 0.61c-0.09,0.04 -0.17,0.07 -0.27,0.08 -0.12,0.01 -0.25,-0.01 -0.38,-0.05l0 0z"/>
   <path class="fil7" d="M25.53 4.59c-1.42,0.63 -2.84,1.25 -3.76,1.66 -0.92,0.4 -1.34,0.58 -1.6,0.72 -0.26,0.13 -1.02,0.49 -1.06,0.56 -0.03,0.08 0.58,0.05 0.71,0.1 0.12,0.07 0.42,-0.06 0.82,-0.02 0.4,0.03 0.97,0.07 1.81,0.12 0.84,0.05 1.95,0.12 2.77,0.05 0.83,-0.08 1.38,-0.28 3.98,-1.29 2.59,-1.01 7.23,-2.82 11.87,-4.63 -0.19,-0.16 -0.5,-0.36 -0.92,-0.6 -0.47,-0.27 -1.09,-0.59 -1.47,-0.77 -0.37,-0.19 -0.48,-0.23 -0.58,-0.24 -0.11,-0.02 -0.2,-0.02 -0.43,0.05 -0.21,0.07 -0.56,0.21 -2.37,0.91 -1.8,0.71 -5.08,1.98 -6.93,2.64 -1.85,0.65 -2.27,0.7 -2.63,0.73 -0.08,0 -0.15,0.01 -0.21,0.01l0 0z"/>
   <path class="fil8" d="M23.08 4.27c-5.18,2.3 -10.35,4.61 -15.53,6.92 0.14,0.13 0.24,0.27 0.29,0.46 0.05,0.2 0.05,0.44 -0.01,0.8 0,0.02 -0.01,0.05 -0.01,0.08 3.03,-1.33 6.07,-2.66 7.77,-3.38 1.69,-0.73 2.05,-0.86 2.37,-0.93 0.32,-0.07 0.6,-0.08 1.63,0.02 1.03,0.1 2.8,0.31 3.92,0.4 0.5,0.04 0.87,0.05 1.18,0.04 0.37,-0.01 0.63,-0.05 0.89,-0.11 0.13,-0.03 0.27,-0.06 0.44,-0.11 0.48,-0.14 1.26,-0.43 3.19,-1.17 2.65,-1.02 7.44,-2.9 12.23,-4.78 0,-0.08 -0.01,-0.15 -0.02,-0.2 -0.03,-0.15 -0.1,-0.24 -0.29,-0.4 -0.01,-0.02 -0.04,-0.04 -0.06,-0.05 -4.64,1.81 -9.28,3.62 -11.87,4.63 -2.6,1.01 -3.15,1.21 -3.98,1.29 -0.82,0.07 -1.93,0 -2.77,-0.05 -0.84,-0.05 -1.41,-0.09 -1.81,-0.12 -0.08,-0.01 -1.28,-0.08 -1.21,-0.23 0.04,-0.08 0.48,-0.28 0.74,-0.41 0.26,-0.14 0.68,-0.32 1.6,-0.72 0.92,-0.41 2.34,-1.03 3.76,-1.66 -0.27,0.02 -0.51,0.03 -0.7,0.02 -0.25,-0.01 -0.44,-0.04 -0.63,-0.09 -0.19,-0.06 -0.37,-0.13 -0.59,-0.19 -0.11,-0.03 -0.22,-0.05 -0.53,-0.06l0 0z"/>
   <path class="fil9" d="M25.58 8.57c-0.26,0.06 -0.52,0.1 -0.89,0.11 0,0.92 0,2.1 0,3.02 0.65,-0.11 1,-0.18 1.33,-0.26 0,-0.91 0,-2.08 0,-2.98 -0.17,0.05 -0.31,0.08 -0.44,0.11l0 0z"/>
   <path class="fil10" d="M26.02 8.46c0,0.9 0,2.11 0,3.02 0.1,-0.03 0,0.01 0.29,-0.08 0.29,-0.08 1.09,-0.43 1.44,-0.58 0.35,-0.14 0.45,-0.45 0.72,-0.7 0.28,-0.26 0.73,-0.67 1.09,-0.95 0.36,-0.28 0.63,-0.43 1.1,-0.65 0.46,-0.21 1.12,-0.49 1.6,-0.67 0.28,-0.11 0.5,-0.18 0.66,-0.23 0.12,-0.04 0.21,-0.07 0.28,-0.08 0.18,-0.05 0.23,-0.05 0.27,0.01 0.03,0.06 0.04,0.18 0.04,0.33 0.01,0.14 0.01,0.31 0.03,0.44 0.03,0.14 0.08,0.23 0.16,0.28 0.02,0.02 0.04,0.03 0.06,0.04 0.06,0.02 0.13,0.02 0.21,-0.01 0.12,-0.03 0.26,-0.11 1.45,-0.62 1.19,-0.51 3.41,-1.47 4.57,-1.98 1.16,-0.51 1.25,-0.57 1.31,-0.65 0.06,-0.08 0.11,-0.18 0.13,-0.61 0.02,-0.43 0.02,-1.19 0.02,-1.66 0,-0.29 0,-0.47 -0.01,-0.6 -4.79,1.88 -9.58,3.76 -12.23,4.78 -1.93,0.74 -2.71,1.03 -3.19,1.17l0 0z"/>
   <path class="fil0" d="M33.03 8.39c0.05,0.06 0.12,0.08 0.24,0.12 0.13,0.04 0.31,0.08 0.49,0.13 -0.02,-0.01 -0.04,-0.02 -0.06,-0.04 -0.08,-0.05 -0.13,-0.14 -0.16,-0.28 -0.02,-0.13 -0.02,-0.3 -0.03,-0.44 0,-0.15 -0.01,-0.27 -0.04,-0.33 -0.04,-0.06 -0.09,-0.06 -0.27,-0.01 -0.07,0.01 -0.16,0.04 -0.28,0.08 0,0.18 0,0.37 0.02,0.51 0.01,0.13 0.04,0.21 0.09,0.26z"/>
   <path class="fil11" d="M24.69 11.44c0,-0.92 0,-1.84 0,-2.76 -0.31,0.01 -0.68,0 -1.18,-0.04 -1.12,-0.09 -2.89,-0.3 -3.92,-0.4 -1.03,-0.1 -1.33,-0.28 -1.65,-0.2 0,1.45 0.03,2.73 0.03,4.19 0.62,-0.14 1.32,-0.18 2.5,-0.38 1.18,-0.2 3.34,-0.28 3.93,-0.37 0.58,-0.09 0.19,-0.03 0.29,-0.04z"/>
   <path class="fil10" d="M17.97 12.28l-0.01 -4.06c0,-0.12 -0.68,0.2 -2.37,0.93 -1.7,0.72 -4.74,2.05 -7.77,3.38 -0.07,0.34 -0.18,0.76 -0.24,1.14 -0.08,0.41 -0.12,0.78 -0.12,1.16 0,0.39 0.02,0.77 0.06,1.04 0.03,0.26 0.06,0.41 0.13,0.51 0.06,0.1 0.15,0.17 0.25,0.2 0.1,0.03 0.22,0.02 0.33,0.01 0.08,-0.03 0.16,-0.06 0.27,-0.09 0.42,-0.15 1.17,-0.43 1.61,-0.59 0.01,-0.01 0.02,-0.02 0.04,-0.02 0.43,-0.16 0.53,-0.2 0.59,-0.21 0.06,-0.01 0.08,0 0.1,0.04 0.02,0.04 0.02,0.11 0.02,0.17 -0.01,0.08 -0.03,0.15 -0.06,0.2 -0.03,0.06 -0.07,0.08 -0.11,0.12 0.1,-0.04 0.2,-0.08 1.31,-0.57 1.11,-0.48 3.22,-1.72 4.34,-2.21 1.12,-0.48 1.25,-0.54 1.35,-0.58 0.1,-0.06 0.17,-0.1 0.21,-0.15 0.04,-0.04 0.06,-0.09 0.07,-0.16 0,-0.07 0,-0.16 0,-0.26l0 0z"/>
   <path class="fil0" d="M10.8 16.09c0.03,-0.05 0.05,-0.12 0.06,-0.2 0,-0.06 0,-0.13 -0.02,-0.17 -0.02,-0.04 -0.04,-0.05 -0.1,-0.04 -0.06,0.01 -0.16,0.05 -0.59,0.21 -0.02,0 -0.03,0.01 -0.04,0.02 0.19,0.1 0.38,0.2 0.58,0.3 0.04,-0.04 0.08,-0.06 0.11,-0.12z"/>
   <path class="fil12" d="M7.58 13.67c0.06,-0.38 0.17,-0.8 0.24,-1.14 0,-0.03 0.01,-0.06 0.01,-0.08 0.06,-0.36 0.06,-0.6 0.01,-0.8 -0.05,-0.19 -0.15,-0.33 -0.29,-0.46 -0.13,-0.12 -0.29,-0.22 -1.18,-0.56 -0.88,-0.34 -2.48,-0.92 -3.37,-1.23 -0.88,-0.31 -1.06,-0.34 -1.2,-0.34 -0.08,0.01 -0.16,0.03 -0.21,0.05 -0.03,0.02 -0.05,0.03 -0.07,0.04 -0.09,0.05 -0.17,0.1 -0.25,0.17 0,0 -0.01,0.01 -0.01,0.01 -0.15,0.12 -0.29,0.27 -0.41,0.48 -0.18,0.32 -0.34,0.79 -0.45,1.26 -0.11,0.47 -0.17,0.95 -0.17,1.4 0,0.46 0.06,0.88 0.09,1.12 0.03,0.24 0.06,0.3 0.15,0.37 0.09,0.08 0.26,0.18 0.42,0.27 -0.04,-0.04 -0.07,-0.11 -0.1,-0.23 -0.02,-0.16 -0.04,-0.41 -0.05,-0.74 -0.01,-0.33 -0.03,-0.74 0,-1.15 0.03,-0.41 0.1,-0.82 0.18,-1.15 0.08,-0.33 0.18,-0.57 0.3,-0.76 0.1,-0.19 0.23,-0.33 0.33,-0.43 0.1,-0.09 0.17,-0.13 0.24,-0.16 0.07,-0.02 0.12,-0.02 0.97,0.28 0.84,0.3 2.47,0.91 3.35,1.24 0.88,0.33 1.01,0.39 1.11,0.49 0.06,0.07 0.1,0.16 0.12,0.27 0.01,0.05 0.01,0.11 0,0.18 0,0.2 -0.07,0.46 -0.15,0.83 -0.02,0.1 -0.04,0.21 -0.06,0.32 -0.06,0.31 -0.11,0.64 -0.14,0.94 -0.05,0.41 -0.06,0.75 -0.04,1.09 0.02,0.34 0.07,0.67 0.12,0.86 0.05,0.19 0.12,0.24 0.25,0.3 0.13,0.08 0.33,0.18 0.48,0.22 0.12,0.03 0.2,0.03 0.43,-0.04 -0.11,0.01 -0.23,0.02 -0.33,-0.01 -0.1,-0.03 -0.19,-0.1 -0.26,-0.2 -0.06,-0.1 -0.09,-0.25 -0.12,-0.51 -0.04,-0.27 -0.06,-0.65 -0.06,-1.04 0,-0.38 0.04,-0.75 0.12,-1.16l0 0z"/>
   <path class="fil0" d="M4.27 13.09c1.02,-0.4 2.04,-0.8 3.07,-1.2 -0.02,-0.11 -0.06,-0.2 -0.12,-0.27 -0.1,-0.1 -0.23,-0.16 -1.11,-0.49 -0.88,-0.33 -2.51,-0.94 -3.35,-1.24 -0.85,-0.3 -0.9,-0.3 -0.97,-0.28 -0.07,0.03 -0.14,0.07 -0.24,0.16 -0.1,0.1 -0.23,0.24 -0.33,0.43 -0.12,0.19 -0.22,0.43 -0.3,0.76 -0.08,0.33 -0.15,0.74 -0.18,1.15 -0.03,0.41 -0.01,0.82 0,1.15 0.01,0.33 0.03,0.58 0.05,0.74 0.03,0.12 0.06,0.19 0.1,0.23 0.01,0.01 0.02,0.01 0.03,0.01 0.07,0.03 0.15,0.03 0.26,0 0.12,-0.03 0.24,-0.08 0.76,-0.27 0.41,-0.15 1.08,-0.41 1.79,-0.68 0.18,-0.07 0.35,-0.13 0.52,-0.2 0.01,0 0.01,0 0.02,0l0 0z"/>
   <path class="fil0" d="M4.8 13.5c-0.11,-0.01 -0.23,-0.04 -0.33,-0.09 -0.1,-0.06 -0.18,-0.14 -0.21,-0.19 -0.03,-0.06 -0.01,-0.1 0.01,-0.13 -0.01,0 -0.01,0 -0.02,0 -0.17,0.07 -0.34,0.13 -0.52,0.2 0,0.05 0,0.1 0.03,0.17 0.01,0.07 0.06,0.16 0.18,0.25 0.12,0.1 0.31,0.2 0.48,0.26 0.16,0.06 0.3,0.09 0.4,0.09 0,-0.19 0,-0.37 0,-0.56 -0.01,0 -0.01,0 -0.02,0l0 0z"/>
   <path class="fil12" d="M4.47 13.41c0.1,0.05 0.22,0.08 0.33,0.09 0.01,0 0.01,0 0.02,0 0.1,0.01 0.2,-0.02 0.58,-0.17 0.41,-0.16 1.14,-0.47 1.87,-0.78 0.04,-0.2 0.07,-0.35 0.07,-0.48 0.01,-0.07 0.01,-0.13 0,-0.18 -1.03,0.4 -2.05,0.8 -3.07,1.2 -0.02,0.03 -0.04,0.07 -0.01,0.13 0.03,0.05 0.11,0.13 0.21,0.19l0 0z"/>
   <path class="fil0" d="M5.4 13.33c-0.38,0.15 -0.48,0.18 -0.58,0.17 0,0.19 0,0.37 0,0.56 0.11,0.01 0.19,-0.01 0.57,-0.15 0.38,-0.14 1.06,-0.41 1.74,-0.69 0.02,-0.11 0.04,-0.22 0.06,-0.32 0.03,-0.13 0.05,-0.24 0.08,-0.35 -0.73,0.31 -1.46,0.62 -1.87,0.78l0 0z"/>
   <path class="fil1" d="M4.07 7.77c0.12,-0.05 0.26,0.01 0.31,0.13 0.05,0.12 -0.01,0.25 -0.13,0.3l-1.61 0.68c-0.22,0.1 -0.41,0.18 -0.57,0.25 -0.16,0.08 -0.3,0.15 -0.43,0.22 -0.12,0.08 -0.22,0.15 -0.32,0.24 -0.1,0.09 -0.18,0.2 -0.26,0.34 -0.09,0.14 -0.17,0.32 -0.24,0.51 -0.07,0.21 -0.14,0.45 -0.19,0.68 -0.05,0.22 -0.09,0.45 -0.12,0.68 -0.02,0.24 -0.04,0.46 -0.04,0.67 0,0.22 0.01,0.43 0.03,0.62 0.01,0.18 0.04,0.34 0.05,0.46 0.02,0.11 0.03,0.17 0.04,0.2l0 0c0.01,0.01 0.02,0.02 0.03,0.03 0.08,0.06 0.23,0.16 0.39,0.25 0.11,0.06 0.15,0.2 0.09,0.32 -0.07,0.11 -0.22,0.15 -0.32,0.08 -0.18,-0.1 -0.35,-0.2 -0.46,-0.29 -0.07,-0.06 -0.12,-0.11 -0.16,-0.2l-0.01 -0.02c-0.02,-0.07 -0.04,-0.16 -0.06,-0.3 -0.02,-0.11 -0.04,-0.28 -0.06,-0.49 -0.02,-0.2 -0.03,-0.43 -0.03,-0.66 0,-0.24 0.02,-0.48 0.05,-0.72 0.02,-0.24 0.06,-0.49 0.12,-0.73 0.06,-0.25 0.13,-0.5 0.21,-0.74 0.08,-0.21 0.17,-0.42 0.27,-0.59 0.1,-0.18 0.22,-0.32 0.34,-0.44 0.13,-0.12 0.27,-0.21 0.41,-0.3 0.14,-0.08 0.3,-0.16 0.47,-0.24 0.17,-0.08 0.36,-0.16 0.59,-0.25l1.61 -0.69 0 0z"/>
   <path class="fil1" d="M1.33 9.43c-0.05,0.04 -0.13,0.02 -0.17,-0.02 -0.04,-0.05 -0.03,-0.13 0.02,-0.17 0.07,-0.05 0.14,-0.11 0.24,-0.17 0.04,-0.03 0.09,-0.05 0.16,-0.08 0.06,-0.02 0.13,-0.04 0.21,-0.04 0.09,-0.01 0.17,0 0.36,0.05 0.17,0.04 0.44,0.13 0.89,0.29 0.47,0.16 1.12,0.39 1.76,0.63 0.59,0.21 1.18,0.44 1.61,0.6 0.45,0.17 0.72,0.28 0.89,0.37 0.18,0.08 0.26,0.15 0.33,0.21 0.08,0.07 0.15,0.15 0.2,0.23 0.05,0.09 0.09,0.19 0.12,0.29 0.03,0.11 0.04,0.23 0.04,0.37 0,0.14 -0.01,0.29 -0.04,0.47 -0.04,0.19 -0.08,0.4 -0.13,0.63 -0.05,0.2 -0.09,0.4 -0.13,0.6 -0.03,0.2 -0.06,0.39 -0.09,0.58 -0.01,0.19 -0.02,0.38 -0.02,0.56 0,0.17 0,0.35 0.01,0.51l0 0.01c0.01,0.18 0.03,0.36 0.04,0.5 0.02,0.14 0.04,0.23 0.05,0.31 0.02,0.07 0.04,0.12 0.07,0.16 0.02,0.04 0.05,0.07 0.08,0.09 0.03,0.03 0.07,0.04 0.11,0.06l0 0c0.04,0.01 0.08,0.01 0.13,0.01 0.04,0 0.1,0 0.16,-0.01 0.06,0 0.12,0.04 0.12,0.1 0.01,0.07 -0.04,0.13 -0.11,0.14 -0.05,0 -0.11,0.01 -0.17,0.01 -0.07,0 -0.13,-0.01 -0.19,-0.03l-0.01 0c-0.07,-0.01 -0.13,-0.05 -0.19,-0.09 -0.05,-0.04 -0.09,-0.09 -0.13,-0.16 -0.04,-0.06 -0.07,-0.13 -0.09,-0.23 -0.03,-0.08 -0.04,-0.19 -0.06,-0.33 -0.02,-0.14 -0.04,-0.32 -0.05,-0.52l0 0c0,-0.17 -0.01,-0.35 -0.01,-0.53 0.01,-0.19 0.01,-0.39 0.04,-0.58 0.01,-0.19 0.04,-0.39 0.08,-0.6 0.04,-0.2 0.08,-0.41 0.13,-0.61 0.04,-0.22 0.09,-0.43 0.12,-0.62 0.03,-0.17 0.05,-0.31 0.05,-0.43 0,-0.12 -0.01,-0.22 -0.04,-0.31 -0.02,-0.08 -0.05,-0.16 -0.09,-0.22 -0.04,-0.07 -0.09,-0.13 -0.15,-0.18 -0.06,-0.06 -0.13,-0.11 -0.29,-0.18 -0.17,-0.09 -0.42,-0.2 -0.86,-0.36 -0.42,-0.16 -1.01,-0.38 -1.61,-0.6 -0.65,-0.24 -1.3,-0.47 -1.76,-0.63 -0.44,-0.15 -0.7,-0.24 -0.87,-0.28 -0.15,-0.04 -0.22,-0.06 -0.29,-0.05 -0.05,0 -0.1,0.02 -0.14,0.03 -0.04,0.02 -0.08,0.04 -0.12,0.06 -0.08,0.05 -0.15,0.1 -0.21,0.16l0 0z"/>
   <path class="fil1" d="M10.79 16c0.12,0.06 0.17,0.2 0.1,0.32 -0.05,0.11 -0.2,0.16 -0.31,0.09l-0.58 -0.29c-0.12,-0.06 -0.16,-0.2 -0.1,-0.32 0.06,-0.12 0.2,-0.16 0.31,-0.1l0.58 0.3 0 0z"/>
   <path class="fil1" d="M4.17 13.03c0.03,-0.06 0.11,-0.08 0.16,-0.05 0.06,0.04 0.08,0.11 0.04,0.16l-0.01 0.03c0.01,0.01 0.03,0.04 0.06,0.06 0.03,0.02 0.06,0.05 0.1,0.07 0.05,0.03 0.09,0.04 0.14,0.05l0 0.01c0.05,0.01 0.1,0.02 0.15,0.02l0 0c0.04,0.01 0.08,0 0.14,-0.01 0.08,-0.03 0.21,-0.07 0.41,-0.15l0 0c0.2,-0.08 0.48,-0.2 0.81,-0.33l1.05 -0.44c0.06,-0.03 0.13,0 0.15,0.06 0.03,0.06 0,0.12 -0.06,0.15l-1.05 0.45c-0.32,0.13 -0.6,0.24 -0.81,0.33l-0.01 0c-0.21,0.09 -0.34,0.13 -0.43,0.15 -0.1,0.03 -0.16,0.03 -0.22,0.03l-0.01 0c-0.05,-0.01 -0.12,-0.02 -0.18,-0.04l-0.01 0c-0.06,-0.01 -0.12,-0.04 -0.18,-0.07 -0.05,-0.03 -0.11,-0.07 -0.15,-0.1 -0.05,-0.05 -0.09,-0.1 -0.1,-0.14 -0.03,-0.06 -0.04,-0.1 -0.03,-0.15 0.01,-0.04 0.03,-0.07 0.04,-0.09l0 0zm0.19 0.14l0 0c0,0 0,0 0,0z"/>
   <path class="fil1" d="M3.5 13.29c0.01,-0.14 0.11,-0.24 0.24,-0.23 0.13,0 0.23,0.11 0.23,0.24l0 0.05c0,0.01 0,0.02 0.01,0.03 0.01,0.02 0.01,0.04 0.03,0.06 0.01,0.03 0.04,0.06 0.08,0.09l0.01 0.01c0.04,0.03 0.1,0.07 0.16,0.1 0.08,0.05 0.16,0.09 0.24,0.11 0.07,0.03 0.13,0.04 0.19,0.06 0.05,0.01 0.1,0.01 0.14,0.02l0.01 0c0.02,0 0.05,0 0.1,-0.02 0.08,-0.02 0.19,-0.06 0.37,-0.12 0.37,-0.14 1.03,-0.4 1.69,-0.67l0.05 -0.01c0.11,-0.05 0.25,0.01 0.3,0.13 0.04,0.12 -0.01,0.25 -0.13,0.3l-0.05 0.02c-0.67,0.27 -1.32,0.53 -1.7,0.66 -0.19,0.08 -0.32,0.12 -0.41,0.15 -0.1,0.03 -0.17,0.03 -0.24,0.03l-0.01 0c-0.07,-0.01 -0.14,-0.02 -0.22,-0.03 -0.07,-0.02 -0.16,-0.04 -0.26,-0.08 -0.09,-0.04 -0.2,-0.09 -0.29,-0.13 -0.08,-0.06 -0.16,-0.11 -0.23,-0.16l-0.01 -0.01c-0.08,-0.06 -0.14,-0.12 -0.18,-0.18 -0.05,-0.07 -0.07,-0.13 -0.09,-0.18 -0.02,-0.06 -0.02,-0.1 -0.03,-0.15 0,-0.03 0,-0.07 0,-0.09l0 0z"/>
   <path class="fil1" d="M4.94 14.06c0,0.06 -0.05,0.12 -0.12,0.12 -0.06,0 -0.12,-0.06 -0.12,-0.12l0 -0.56c0,-0.07 0.06,-0.12 0.12,-0.12 0.07,0 0.12,0.05 0.12,0.12l0 0.56z"/>
   <path class="fil1" d="M33.79 8.52c0.06,0.02 0.1,0.08 0.09,0.15 -0.02,0.06 -0.08,0.09 -0.14,0.08l-0.27 -0.07 -0.23 -0.05c-0.06,-0.03 -0.12,-0.04 -0.17,-0.06 -0.05,-0.03 -0.09,-0.06 -0.13,-0.09 -0.03,-0.04 -0.06,-0.09 -0.08,-0.15 -0.02,-0.05 -0.03,-0.11 -0.04,-0.19 -0.02,-0.14 -0.02,-0.33 -0.01,-0.52 0,-0.07 0.05,-0.12 0.11,-0.12 0.07,0 0.12,0.05 0.12,0.12 0,0.18 0,0.37 0.01,0.5 0.01,0.06 0.02,0.1 0.03,0.14 0,0.02 0.02,0.04 0.03,0.05 0.01,0.02 0.03,0.03 0.06,0.04 0.03,0.02 0.08,0.03 0.14,0.05l0.22 0.06 0.26 0.06 0 0z"/>
   <path class="fil1" d="M13.93 5.34l-1.81 0.81 2.18 0.8c0.1,0.03 0.19,0.04 0.29,0.04 0.09,0 0.18,-0.02 0.27,-0.06l1.7 -0.78 -2.05 -0.82c-0.09,-0.04 -0.19,-0.06 -0.29,-0.05 -0.1,0 -0.19,0.02 -0.29,0.06l0 0zm-2.01 0.65l1.92 -0.86c0.12,-0.06 0.25,-0.09 0.38,-0.09 0.13,0 0.25,0.02 0.38,0.07l2.15 0.87c0.03,0.01 0.06,0.03 0.09,0.07 0.01,0.02 0.02,0.06 0.02,0.1 0,0.03 0,0.07 -0.02,0.1 -0.02,0.03 -0.05,0.06 -0.08,0.07l-1.8 0.82c-0.12,0.05 -0.24,0.08 -0.37,0.09 -0.12,0 -0.24,-0.02 -0.37,-0.06l-2.29 -0.83c-0.03,-0.01 -0.07,-0.04 -0.08,-0.07 -0.03,-0.03 -0.04,-0.06 -0.04,-0.1 0,-0.04 0.01,-0.08 0.03,-0.11 0.02,-0.03 0.05,-0.06 0.08,-0.07l0 0z"/>
   <path class="fil1" d="M24.57 8.68c0,-0.06 0.05,-0.12 0.12,-0.12 0.06,0 0.11,0.06 0.11,0.12l0 2.99c0,0.07 -0.05,0.12 -0.11,0.12 -0.07,0 -0.12,-0.05 -0.12,-0.12l0 -2.99z"/>
   <path class="fil1" d="M25.91 8.46c0,-0.07 0.05,-0.12 0.11,-0.12 0.06,0 0.12,0.05 0.12,0.12l0 3.02c0,0.06 -0.06,0.12 -0.12,0.12 -0.06,0 -0.11,-0.06 -0.11,-0.12l0 -3.02z"/>
   <path class="fil1" d="M4.34 13.31c-0.12,0.05 -0.26,-0.01 -0.3,-0.13 -0.05,-0.12 0.01,-0.26 0.13,-0.31l3.08 -1.19c0.13,-0.06 0.26,0.01 0.31,0.13 0.04,0.12 -0.02,0.25 -0.14,0.3l-3.08 1.2z"/>
   <path class="fil1" d="M16.31 6.31c0.06,0.02 0.09,0.09 0.06,0.15 -0.02,0.06 -0.09,0.09 -0.15,0.07l-1.71 -0.69c-0.09,-0.04 -0.19,-0.06 -0.29,-0.06 -0.1,0.01 -0.19,0.03 -0.29,0.07l-1.44 0.65c-0.06,0.03 -0.14,0 -0.16,-0.05 -0.03,-0.07 0,-0.14 0.06,-0.16l1.45 -0.65c0.12,-0.06 0.25,-0.08 0.38,-0.09 0.13,0 0.25,0.02 0.38,0.07l1.71 0.69z"/>
   <path class="fil1" d="M17.73 8.26c-0.06,0.02 -0.13,0 -0.16,-0.06 -0.03,-0.06 0,-0.13 0.06,-0.16l3.7 -1.73c0.06,-0.02 0.12,0 0.15,0.06 0.03,0.06 0,0.13 -0.05,0.16l-3.7 1.73z"/>
   <path class="fil1" d="M7.86 12.63c-0.06,0.03 -0.12,0 -0.15,-0.05 -0.03,-0.07 0,-0.13 0.05,-0.16l10.28 -4.55c0.02,-0.01 0.04,-0.02 0.06,-0.01 0.26,0.05 0.51,0.1 1.52,0.23 0.58,0.07 1.41,0.18 2.23,0.27 0.6,0.07 1.19,0.12 1.67,0.16 0.56,0.04 0.95,0.05 1.26,0.04 0.31,-0.02 0.55,-0.05 0.78,-0.1 0.24,-0.06 0.48,-0.12 0.99,-0.3 0.52,-0.18 1.3,-0.48 2.62,-0.98 2.59,-1 7.35,-2.86 12.11,-4.73l0.12 -0.05c0.06,-0.02 0.13,0.01 0.15,0.07 0.02,0.06 0,0.13 -0.06,0.15l-0.12 0.05c-4.73,1.85 -9.46,3.7 -12.12,4.72 -1.32,0.52 -2.11,0.81 -2.62,0.99 -0.52,0.18 -0.77,0.25 -1.02,0.3 -0.25,0.06 -0.49,0.1 -0.82,0.11 -0.33,0.02 -0.73,0.01 -1.29,-0.04 -0.48,-0.03 -1.07,-0.09 -1.68,-0.16 -0.81,-0.09 -1.64,-0.19 -2.23,-0.27 -0.97,-0.13 -1.25,-0.18 -1.49,-0.22l-10.24 4.53 0 0z"/>
   <path class="fil1" d="M18.09 12.51c0,0.07 -0.05,0.12 -0.12,0.12 -0.06,0 -0.11,-0.05 -0.11,-0.12l-0.01 -4.43c0,-0.06 0.05,-0.12 0.12,-0.12 0.06,0 0.11,0.06 0.11,0.12l0.01 4.43z"/>
   <path class="fil1" d="M14.26 5.67c0,0.07 -0.05,0.12 -0.12,0.12 -0.06,0 -0.11,-0.05 -0.11,-0.12l0 -0.51c0,-0.06 0.05,-0.12 0.11,-0.12 0.07,0 0.12,0.06 0.12,0.12l0 0.51z"/>
   <path class="fil1" d="M25.48 4.49c0.06,-0.03 0.13,0 0.15,0.05 0.03,0.06 0,0.14 -0.06,0.16l-4.81 2.12c-0.26,0.12 -0.45,0.2 -0.64,0.29 -0.2,0.1 -0.38,0.18 -0.55,0.27 0.35,0.04 0.71,0.08 1.06,0.12 0.29,0.04 0.62,0.07 0.96,0.1 0.36,0.03 0.74,0.06 1.16,0.09 0.42,0.02 0.87,0.05 1.3,0.05 0.44,0 0.86,-0.02 1.23,-0.06 0.37,-0.05 0.69,-0.12 1.24,-0.31 0.55,-0.19 1.33,-0.49 2.63,-0.99 2.26,-0.88 6.69,-2.61 11.21,-4.38l0.67 -0.25c0.06,-0.03 0.13,0 0.15,0.07 0.02,0.05 -0.01,0.12 -0.06,0.14l-0.67 0.27c-4.31,1.68 -8.54,3.33 -11.21,4.36 -1.31,0.51 -2.09,0.82 -2.65,1 -0.56,0.2 -0.89,0.28 -1.28,0.32 -0.38,0.05 -0.81,0.06 -1.26,0.06 -0.44,0 -0.89,-0.02 -1.31,-0.05 -0.42,-0.02 -0.81,-0.05 -1.17,-0.09 -0.36,-0.03 -0.68,-0.06 -0.97,-0.09l0 0c-0.29,-0.04 -0.54,-0.07 -0.77,-0.1l-0.66 -0.08c-0.04,0 -0.08,-0.02 -0.1,-0.06 -0.02,-0.05 0,-0.12 0.06,-0.16 0.27,-0.14 0.54,-0.28 0.9,-0.44 0.17,-0.08 0.36,-0.17 0.63,-0.29l1.06 -0.47 3.76 -1.65 0 0z"/>
   <path class="fil1" d="M7.73 11.24c-0.06,0.03 -0.13,0 -0.15,-0.06 -0.03,-0.06 0,-0.13 0.05,-0.16l15.4 -6.86c0.06,-0.03 0.13,0 0.16,0.05 0.02,0.07 0,0.14 -0.06,0.16l-15.4 6.87z"/>
   <path class="fil1" d="M4.17 12.87c0.12,-0.05 0.26,0.02 0.31,0.14 0.04,0.12 -0.02,0.25 -0.14,0.3 -0.71,0.27 -1.26,0.49 -1.69,0.67 -0.82,0.32 -1.26,0.5 -1.53,0.51 -0.51,0.03 -0.52,-0.25 -0.53,-0.87 0,-0.09 0,-0.21 -0.01,-0.34 -0.02,-0.57 0,-1.7 0.26,-2.59 0.18,-0.62 0.47,-1.13 0.95,-1.29 0.15,-0.05 1.59,0.44 2.96,0.95 1.27,0.47 2.52,0.98 2.64,1.11 0.07,0.08 0.12,0.17 0.15,0.28 0.03,0.1 0.05,0.21 0.04,0.34 -0.01,0.17 -0.05,0.36 -0.1,0.61l-0.06 0.26c-0.04,0.19 -0.08,0.42 -0.12,0.65 -0.03,0.19 -0.06,0.39 -0.08,0.58 -0.02,0.21 -0.03,0.38 -0.04,0.56 0,0.17 0,0.33 0.01,0.49 0,0.16 0.02,0.33 0.04,0.47 0.02,0.14 0.04,0.26 0.07,0.35 0.01,0.06 0.03,0.08 0.04,0.1l0.01 0.01c0.01,0.01 0.04,0.03 0.08,0.05 0.08,0.04 0.17,0.09 0.25,0.12 0.07,0.03 0.13,0.06 0.18,0.07 0.05,0.01 0.08,0.02 0.14,0.01 0.08,-0.02 0.21,-0.06 0.42,-0.13 0.38,-0.13 1,-0.37 1.44,-0.53l0.65 -0.24c0.1,-0.03 0.15,-0.05 0.19,-0.06 0.07,-0.01 0.14,-0.01 0.2,0.02l0.02 0.01c0.07,0.03 0.11,0.08 0.14,0.16 0.02,0.03 0.03,0.08 0.03,0.12l0.8 -0.39 2.19 -1.08c0.73,-0.35 1.44,-0.71 2.16,-1.06 0.86,-0.42 1.14,-0.55 1.26,-0.61l0.08 -0.04c0.05,-0.02 0.08,-0.04 0.11,-0.05 0.01,-0.02 0.03,-0.03 0.04,-0.04l0 -0.03c0.01,-0.06 0.01,-0.15 0.01,-0.23l0 0c0,-0.11 0.08,-0.21 0.19,-0.23 0.31,-0.07 0.62,-0.15 1,-0.21 0.38,-0.07 0.84,-0.13 1.44,-0.17 0.71,-0.05 1.64,-0.08 2.51,-0.11 0.53,-0.01 1.04,-0.03 1.45,-0.05 0.51,-0.02 0.86,-0.06 1.14,-0.1l0.02 0c0.26,-0.04 0.46,-0.1 0.69,-0.16 0.25,-0.07 0.54,-0.16 0.8,-0.25 0.23,-0.08 0.45,-0.15 0.61,-0.22 0.16,-0.07 0.26,-0.12 0.34,-0.19 0.1,-0.07 0.19,-0.17 0.32,-0.31l0.08 -0.1c0.29,-0.31 0.71,-0.77 1.06,-1.08 0.2,-0.18 0.37,-0.31 0.55,-0.42 0.19,-0.11 0.38,-0.21 0.62,-0.32 0.23,-0.11 0.51,-0.23 0.79,-0.35 0.3,-0.12 0.59,-0.24 0.83,-0.33 0.24,-0.09 0.43,-0.16 0.59,-0.21 0.16,-0.05 0.28,-0.09 0.37,-0.11l0.02 0c0.1,-0.03 0.17,-0.04 0.23,-0.04 0.14,0 0.22,0.06 0.28,0.16 0.04,0.07 0.05,0.14 0.07,0.22 0,0.06 0.01,0.14 0.01,0.22l0 0.08c0,0.11 0,0.23 0.02,0.33l0 0.01c0.01,0.03 0.02,0.06 0.03,0.09 0.01,0.01 0.03,0.02 0.03,0.03l0.01 0.01c0.02,0 0.04,-0.01 0.07,-0.02l0.01 0c0.05,-0.01 0.15,-0.05 0.48,-0.2l0.93 -0.41 1.55 -0.67c1.08,-0.46 2.29,-0.99 3.02,-1.31 0.57,-0.25 0.88,-0.39 1.05,-0.48 0.13,-0.07 0.15,-0.08 0.17,-0.1 0.01,-0.02 0.02,-0.03 0.03,-0.08l0 -0.01c0.02,-0.08 0.04,-0.19 0.04,-0.38 0.01,-0.22 0.02,-0.51 0.02,-0.81l0 -0.84c0,-0.45 0,-0.63 -0.02,-0.75 -0.01,-0.04 -0.02,-0.08 -0.04,-0.11 -0.04,-0.05 -0.09,-0.1 -0.16,-0.16 -0.1,-0.08 -0.23,-0.18 -0.39,-0.29 -0.15,-0.09 -0.34,-0.21 -0.56,-0.33 -0.21,-0.12 -0.45,-0.25 -0.68,-0.37 -0.29,-0.16 -0.58,-0.3 -0.78,-0.4 -0.18,-0.09 -0.29,-0.15 -0.37,-0.17 -0.07,-0.03 -0.12,-0.04 -0.15,-0.06l-0.02 0c-0.02,0 -0.05,0 -0.09,0 -0.05,0.01 -0.11,0.03 -0.2,0.06 -0.18,0.05 -0.47,0.16 -1.71,0.65l-0.65 0.25c-0.95,0.37 -2.26,0.88 -3.45,1.33 -1.27,0.49 -2.56,0.97 -3.49,1.31 -0.93,0.33 -1.5,0.51 -1.89,0.61 -0.41,0.1 -0.61,0.12 -0.81,0.13 -0.17,0.01 -0.34,0.03 -0.5,0.03 -0.16,0.01 -0.3,0.01 -0.43,0.01 -0.14,-0.01 -0.25,-0.02 -0.36,-0.04 -0.12,-0.01 -0.22,-0.04 -0.33,-0.07 -0.08,-0.02 -0.16,-0.05 -0.24,-0.08 -0.11,-0.04 -0.21,-0.08 -0.33,-0.1 -0.1,-0.03 -0.2,-0.05 -0.44,-0.06 -0.27,-0.02 -0.67,-0.03 -1.34,-0.04 -1.36,-0.01 -3.82,-0.01 -5.29,-0.01l-1.55 0c-0.33,0 -0.52,0.01 -0.67,0.01 -0.13,0.01 -0.23,0.02 -0.47,0.1 -0.28,0.08 -0.72,0.24 -1.54,0.55 -0.85,0.33 -2.06,0.79 -3.44,1.32l-4.57 1.77c-0.12,0.05 -0.26,-0.01 -0.3,-0.13 -0.05,-0.12 0.01,-0.25 0.13,-0.31l4.58 -1.76c1.41,-0.55 2.62,-1.02 3.43,-1.33 0.83,-0.31 1.28,-0.48 1.57,-0.56 0.3,-0.1 0.42,-0.11 0.6,-0.11 0.14,-0.01 0.33,-0.01 0.68,-0.01l1.55 -0.01c1.47,0 3.94,0 5.3,0.01 0.69,0.01 1.09,0.02 1.35,0.04 0.28,0.02 0.42,0.04 0.54,0.07 0.13,0.03 0.25,0.07 0.37,0.12 0.07,0.03 0.15,0.05 0.22,0.07 0.08,0.03 0.16,0.04 0.26,0.06 0.09,0.01 0.2,0.02 0.3,0.03 0.12,0 0.25,0 0.4,-0.01 0.14,0 0.3,-0.01 0.49,-0.02 0.17,-0.02 0.36,-0.04 0.72,-0.13 0.38,-0.1 0.94,-0.27 1.85,-0.59 0.92,-0.33 2.2,-0.81 3.48,-1.31 1.36,-0.52 2.59,-0.99 3.45,-1.33l0.65 -0.25c1.25,-0.49 1.54,-0.6 1.74,-0.67 0.12,-0.04 0.21,-0.06 0.29,-0.06 0.08,-0.02 0.15,-0.01 0.21,0l0.03 0c0.07,0.01 0.13,0.04 0.24,0.08 0.09,0.04 0.22,0.09 0.41,0.18 0.2,0.11 0.49,0.26 0.79,0.41 0.24,0.13 0.48,0.26 0.69,0.38 0.22,0.13 0.42,0.25 0.58,0.36 0.19,0.12 0.33,0.22 0.43,0.3 0.12,0.1 0.2,0.18 0.25,0.26 0.06,0.09 0.1,0.18 0.12,0.28 0.04,0.17 0.04,0.36 0.04,0.85 0,0.18 0,0.44 -0.01,0.85 0,0.31 -0.01,0.61 -0.01,0.82 -0.02,0.22 -0.03,0.37 -0.06,0.47l0 0.01c-0.04,0.13 -0.08,0.2 -0.13,0.26 -0.05,0.06 -0.1,0.12 -0.32,0.23 -0.18,0.1 -0.49,0.24 -1.08,0.5 -0.76,0.33 -1.95,0.85 -3.02,1.3l-1.55 0.67 -0.92 0.41c-0.36,0.16 -0.46,0.2 -0.55,0.23l-0.01 0c-0.08,0.02 -0.16,0.03 -0.23,0.02l-0.01 0c-0.09,-0.01 -0.16,-0.04 -0.23,-0.09 -0.07,-0.05 -0.12,-0.11 -0.17,-0.19 -0.03,-0.06 -0.05,-0.13 -0.07,-0.21l-0.01 -0.02c-0.03,-0.13 -0.03,-0.28 -0.03,-0.42l-0.01 -0.19 -0.01 0c-0.09,0.03 -0.2,0.06 -0.35,0.11 -0.15,0.04 -0.33,0.11 -0.57,0.2 -0.24,0.09 -0.53,0.21 -0.81,0.33 -0.28,0.12 -0.56,0.24 -0.77,0.34 -0.23,0.1 -0.41,0.19 -0.57,0.29 -0.16,0.1 -0.31,0.21 -0.49,0.37 -0.32,0.29 -0.73,0.75 -1.02,1.05l-0.09 0.1c-0.15,0.16 -0.25,0.27 -0.37,0.36 -0.12,0.1 -0.25,0.17 -0.45,0.25 -0.16,0.07 -0.39,0.15 -0.64,0.24 -0.27,0.09 -0.57,0.18 -0.82,0.25 -0.25,0.07 -0.46,0.12 -0.75,0.17l-0.02 0c-0.29,0.05 -0.65,0.08 -1.19,0.11 -0.4,0.02 -0.91,0.04 -1.46,0.05 -0.85,0.03 -1.76,0.06 -2.49,0.11 -0.58,0.04 -1.02,0.1 -1.39,0.16 -0.3,0.05 -0.56,0.11 -0.8,0.17l-0.01 0.09c-0.01,0.06 -0.02,0.11 -0.03,0.16 -0.03,0.05 -0.05,0.1 -0.1,0.14 -0.03,0.04 -0.07,0.08 -0.13,0.11 -0.04,0.03 -0.09,0.05 -0.14,0.08l-0.1 0.05c-0.12,0.05 -0.4,0.18 -1.26,0.61l-4.34 2.13c-0.56,0.28 -0.86,0.42 -1.04,0.5 -0.18,0.1 -0.24,0.12 -0.29,0.14 -0.1,0.04 -0.21,0 -0.28,-0.08 -0.07,-0.11 -0.05,-0.26 0.06,-0.34 0.02,-0.01 0.04,-0.02 0.05,-0.03l-0.57 0.21c-0.46,0.17 -1.08,0.4 -1.46,0.53 -0.23,0.08 -0.37,0.13 -0.49,0.15 -0.14,0.02 -0.23,0.02 -0.34,-0.02 -0.08,-0.01 -0.16,-0.05 -0.25,-0.09 -0.11,-0.04 -0.21,-0.09 -0.29,-0.14 -0.07,-0.04 -0.13,-0.08 -0.19,-0.14l-0.02 -0.01c-0.06,-0.08 -0.1,-0.16 -0.14,-0.3 -0.03,-0.1 -0.06,-0.24 -0.08,-0.41 -0.03,-0.15 -0.04,-0.32 -0.06,-0.5 0,-0.18 -0.01,-0.35 0,-0.54 0.01,-0.18 0.02,-0.38 0.04,-0.59 0.03,-0.19 0.06,-0.4 0.09,-0.6 0.04,-0.24 0.08,-0.47 0.13,-0.68l0.05 -0.26c0.05,-0.23 0.08,-0.41 0.09,-0.53 0,-0.08 0,-0.14 -0.02,-0.19 -0.01,-0.04 -0.03,-0.07 -0.05,-0.09 -0.06,-0.08 -1.23,-0.54 -2.45,-1 -1.3,-0.47 -2.6,-0.95 -2.65,-0.93 -0.31,0.1 -0.51,0.49 -0.65,0.97 -0.24,0.83 -0.26,1.9 -0.23,2.44 0,0.13 0,0.25 0,0.36 0.01,0.28 0.01,0.4 0.04,0.4 0.19,-0.01 0.61,-0.18 1.38,-0.48 0.45,-0.18 1.01,-0.41 1.69,-0.67l0 0zm13.56 -0.38l0 0.01 0 -0.01z"/>
  </g>
 </g>
</svg>
