<?xml version="1.0" encoding="UTF-8"?>
<!DOCTYPE svg PUBLIC "-//W3C//DTD SVG 1.1//EN" "http://www.w3.org/Graphics/SVG/1.1/DTD/svg11.dtd">
<!-- Creator: CorelDRAW 2021.5 -->
<svg xmlns="http://www.w3.org/2000/svg" xml:space="preserve" width="500px" height="238px" version="1.1" style="shape-rendering:geometricPrecision; text-rendering:geometricPrecision; image-rendering:optimizeQuality; fill-rule:evenodd; clip-rule:evenodd"
viewBox="0 0 38.4 18.29"
 xmlns:xlink="http://www.w3.org/1999/xlink"
 xmlns:xodm="http://www.corel.com/coreldraw/odm/2003">
 <defs>
  <style type="text/css">
   <![CDATA[
    .fil2 {fill:dimgray}
    .fil5 {fill:#7D7D7D}
    .fil1 {fill:#858585}
    .fil3 {fill:#999999}
    .fil0 {fill:#BFBFBF}
    .fil4 {fill:#5F5F5F;fill-rule:nonzero}
   ]]>
  </style>
 </defs>
 <g id="Слой_x0020_1">
  <metadata id="CorelCorpID_0Corel-Layer"/>
  <g id="_2928651480656">
   <path class="fil0" d="M37.97 5.32c0.18,-0.06 0.22,-0.1 0.21,-0.57 0,-0.47 -0.04,-1.36 -0.05,-1.97 -0.01,-0.61 0,-0.94 -0.09,-1.19 -0.1,-0.25 -0.3,-0.43 -0.61,-0.58 -0.31,-0.16 -0.71,-0.3 -1.09,-0.42 -0.38,-0.12 -0.73,-0.21 -1.02,-0.28 -0.28,-0.07 -0.48,-0.1 -0.74,-0.09 -0.25,0 -0.55,0.05 -0.86,0.13 -0.31,0.07 -0.64,0.18 -6.07,2.22 -5.44,2.03 -15.99,5.98 -21.34,8 -5.35,2.01 -5.51,2.07 -5.64,2.2 -0.13,0.13 -0.24,0.33 -0.31,0.59 -0.06,0.25 -0.07,0.57 -0.03,0.85 0.04,0.28 0.13,0.52 0.39,0.82 0.25,0.29 0.67,0.64 1.41,1.16 0.74,0.52 1.79,1.2 2.38,1.54 0.59,0.35 0.72,0.36 0.88,0.33 0.16,-0.03 0.34,-0.11 1.24,-0.45 0.9,-0.34 2.5,-0.94 4.02,-1.46 1.52,-0.52 2.95,-0.96 4.17,-1.4 1.21,-0.44 2.22,-0.88 2.97,-1.24 0.75,-0.37 1.25,-0.66 1.75,-0.96 0.51,-0.31 1.03,-0.64 3.96,-1.81 2.94,-1.18 8.3,-3.2 11.13,-4.25 2.84,-1.04 3.17,-1.11 3.34,-1.17zm-7.33 -1.82c-0.04,0.1 -0.07,0.28 -0.25,0.43 -0.05,0.05 -0.11,0.1 -0.18,0.14 0.05,-0.02 0.11,-0.04 0.16,-0.06 0.71,-0.27 1.24,-0.47 1.64,-0.63 -0.35,-0.04 -0.69,-0.07 -0.9,-0.09 -0.22,-0.01 -0.29,0 -0.34,0.03 -0.05,0.02 -0.09,0.07 -0.13,0.18zm-10.93 4.52c0.01,-0.14 0.01,-0.28 0,-0.36 -0.02,-0.09 -0.06,-0.13 -0.11,-0.13 -0.06,-0.01 -0.14,0.02 -0.85,0.29 -0.7,0.26 -2.04,0.76 -3.37,1.26 0.01,0.02 0.02,0.03 0.03,0.05 0.12,0.17 0.17,0.2 0.23,0.23 0.07,0.03 0.15,0.06 0.28,0.05 0.12,-0.02 0.29,-0.08 3.17,-1.16 0.19,-0.07 0.4,-0.15 0.62,-0.23z"/>
   <path class="fil1" d="M15.06 8.6c4.86,-1.77 9.72,-3.54 12.19,-4.44 2.47,-0.91 2.55,-0.95 2.66,-1.02 0.11,-0.07 0.25,-0.17 0.37,-0.24 0.11,-0.07 0.2,-0.11 0.27,-0.13 0.08,-0.03 0.13,-0.03 0.36,-0.01 0.22,0.01 0.62,0.04 0.98,0.09 0.37,0.05 0.7,0.11 1.03,0.17 0.31,-0.12 0.32,-0.15 0.34,-0.18 0.02,-0.06 0.04,-0.16 0.03,-0.24 0,-0.08 -0.04,-0.16 -0.11,-0.22 -0.07,-0.06 -0.19,-0.1 -0.36,-0.15 -0.17,-0.04 -0.4,-0.09 -0.72,-0.13 -0.32,-0.03 -0.72,-0.07 -0.99,-0.08 -0.27,-0.01 -0.39,-0.01 -3.03,0.95 -2.64,0.96 -7.8,2.86 -10.42,3.84 -2.62,0.98 -2.7,1.03 -2.76,1.07 -0.06,0.05 -0.09,0.1 -0.1,0.15 -0.01,0.05 0,0.1 0.01,0.15 0.02,0.05 0.05,0.1 0.16,0.28 0.03,0.04 0.06,0.09 0.09,0.14z"/>
   <path class="fil2" d="M27.25 4.16c-2.47,0.9 -7.33,2.67 -12.19,4.44 0.1,0.16 0.23,0.35 0.32,0.48 1.33,-0.5 2.67,-1 3.37,-1.26 0.71,-0.27 0.79,-0.3 0.85,-0.29 0.05,0 0.09,0.04 0.11,0.13 0.01,0.08 0.01,0.22 0,0.36 2.73,-1.03 7.13,-2.68 9.88,-3.72 0.31,-0.12 0.63,-0.23 0.8,-0.38 0.18,-0.14 0.21,-0.32 0.25,-0.42 0.04,-0.11 0.08,-0.16 0.13,-0.18 0.05,-0.03 0.12,-0.04 0.33,-0.03 0,0 0.01,0 0.01,0 0.17,0.01 0.44,0.04 0.72,0.07 0.05,0.01 0.1,0.01 0.16,0.02 0.01,0 0.01,0 0.02,0 0.45,-0.17 0.73,-0.28 0.91,-0.36 -0.33,-0.06 -0.66,-0.12 -1.03,-0.17 -0.36,-0.05 -0.76,-0.08 -0.98,-0.09 -0.23,-0.02 -0.28,-0.02 -0.36,0.01 -0.07,0.02 -0.16,0.06 -0.27,0.13 -0.12,0.07 -0.26,0.17 -0.37,0.24 -0.11,0.07 -0.19,0.11 -2.66,1.02z"/>
   <path class="fil3" d="M12.69 11.56c-3.44,1.3 -6.89,2.6 -10.33,3.9 0.17,0.11 0.35,0.22 0.54,0.34 3.64,-1.37 7.29,-2.74 10.93,-4.12 8.1,-3.05 16.2,-6.09 24.29,-9.14 0,-0.24 0,-0.42 -0.01,-0.58 -8.47,3.2 -16.94,6.4 -25.42,9.6z"/>
   <path class="fil1" d="M16.34 11.95c-4.06,1.53 -8.12,3.06 -12.19,4.58 -0.43,-0.24 -0.86,-0.49 -1.25,-0.73 -0.19,-0.12 -0.37,-0.23 -0.54,-0.34 -0.03,-0.02 -0.06,-0.03 -0.08,-0.05 -0.53,-0.35 -0.91,-0.65 -1.14,-0.92 -0.23,-0.26 -0.31,-0.49 -0.35,-0.71 -0.03,-0.23 -0.02,-0.45 0.03,-0.65 0.06,-0.21 0.17,-0.39 0.27,-0.58 -0.32,0.13 -0.37,0.17 -0.42,0.22 -0.13,0.13 -0.24,0.33 -0.31,0.59 -0.06,0.25 -0.07,0.57 -0.03,0.85 0.04,0.28 0.13,0.52 0.39,0.82 0.25,0.29 0.67,0.64 1.41,1.16 0.74,0.52 1.79,1.2 2.38,1.54 0.59,0.35 0.72,0.36 0.88,0.33 0.16,-0.03 0.34,-0.11 1.24,-0.45 0.9,-0.34 2.5,-0.94 4.02,-1.46 1.52,-0.52 2.95,-0.96 4.17,-1.4 1.21,-0.44 2.22,-0.88 2.97,-1.24 0.75,-0.37 1.25,-0.66 1.75,-0.96 0.11,-0.07 0.22,-0.14 0.36,-0.22 0.49,-0.27 1.31,-0.67 3.6,-1.59 2.94,-1.18 8.3,-3.2 11.13,-4.25 2.84,-1.04 3.17,-1.11 3.34,-1.17 0.18,-0.06 0.22,-0.1 0.21,-0.57 0,-0.25 -0.01,-0.62 -0.02,-1 -7.27,2.74 -14.55,5.47 -21.82,8.2z"/>
   <path class="fil1" d="M4.15 16.53c4.07,-1.52 8.13,-3.05 12.19,-4.58 7.27,-2.73 14.55,-5.46 21.82,-8.2 -0.01,-0.34 -0.03,-0.69 -0.03,-0.97 0,-0.09 0,-0.17 0,-0.24 -8.1,3.05 -16.2,6.09 -24.3,9.14 -3.64,1.38 -7.29,2.75 -10.93,4.12 0.39,0.24 0.82,0.49 1.25,0.73z"/>
   <path class="fil1" d="M6.27 17.75l-2.12 -1.22c-0.43,-0.24 -0.86,-0.49 -1.25,-0.73 -0.19,-0.12 -0.37,-0.23 -0.54,-0.34 -0.03,-0.02 -0.06,-0.03 -0.08,-0.05 -0.53,-0.35 -0.91,-0.65 -1.14,-0.92 -0.23,-0.26 -0.31,-0.49 -0.35,-0.71 -0.03,-0.23 -0.02,-0.45 0.03,-0.65 0.06,-0.21 0.17,-0.39 0.27,-0.58 -0.32,0.13 -0.37,0.17 -0.42,0.22 -0.13,0.13 -0.24,0.33 -0.31,0.59 -0.06,0.25 -0.07,0.57 -0.03,0.85 0.04,0.28 0.13,0.52 0.39,0.82 0.25,0.29 0.67,0.64 1.41,1.16 0.74,0.52 1.79,1.2 2.38,1.54 0.59,0.35 0.72,0.36 0.88,0.33 0.13,-0.03 0.29,-0.09 0.88,-0.31z"/>
   <path class="fil4" d="M2.94 15.9c-0.06,0.02 -0.12,-0.01 -0.14,-0.06 -0.02,-0.06 0,-0.12 0.06,-0.14l35.23 -13.26c0.05,-0.02 0.12,0.01 0.14,0.06 0.02,0.06 -0.01,0.12 -0.07,0.14l-35.22 13.26z"/>
   <path class="fil4" d="M2.4 15.56c-0.06,0.02 -0.12,0 -0.14,-0.06 -0.02,-0.05 0,-0.12 0.06,-0.14l35.75 -13.5c0.06,-0.02 0.12,0.01 0.14,0.07 0.02,0.05 -0.01,0.11 -0.06,0.14l-35.75 13.49z"/>
   <path class="fil1" d="M10.5 9.94c0.12,0.18 0.37,0.52 0.5,0.71 0.14,0.18 0.17,0.22 0.21,0.24 0.04,0.01 0.1,0.01 0.42,-0.1 0.31,-0.12 0.89,-0.35 1.18,-0.47 0.29,-0.13 0.29,-0.14 0.17,-0.32 -0.13,-0.17 -0.37,-0.5 -0.51,-0.68 -0.13,-0.19 -0.15,-0.22 -0.18,-0.24 -0.03,-0.02 -0.05,-0.03 -0.34,0.06 -0.28,0.09 -0.81,0.28 -1.12,0.39 -0.3,0.11 -0.36,0.13 -0.4,0.16 -0.04,0.03 -0.05,0.06 0.07,0.25z"/>
   <path class="fil4" d="M10.64 9.85c0.11,0.17 0.35,0.5 0.49,0.69 0.04,0.07 0.09,0.13 0.14,0.2 0.01,0 -0.01,-0.01 0.01,-0.01 0.05,-0.01 0.14,-0.04 0.29,-0.1 0.16,-0.05 0.37,-0.14 0.57,-0.21 0.22,-0.09 0.45,-0.19 0.61,-0.25 0.1,-0.05 0.15,-0.06 0.15,-0.06 0.02,-0.05 -0.03,0.02 -0.06,-0.01l-0.2 -0.29 -0.3 -0.4 -0.13 -0.17c-0.04,0 -0.1,0.02 -0.21,0.06 -0.13,0.04 -0.29,0.09 -0.45,0.15 -0.24,0.08 -0.49,0.17 -0.66,0.23 -0.14,0.05 -0.23,0.08 -0.29,0.11l0.04 0.06zm0.22 0.88c-0.14,-0.19 -0.38,-0.52 -0.5,-0.7 -0.07,-0.12 -0.1,-0.19 -0.11,-0.24 -0.02,-0.12 0.01,-0.17 0.07,-0.22l0.01 -0.01c0.03,-0.02 0.07,-0.04 0.14,-0.07 0.06,-0.02 0.15,-0.06 0.31,-0.11 0.17,-0.07 0.42,-0.15 0.66,-0.24 0.19,-0.06 0.36,-0.12 0.47,-0.15 0.14,-0.05 0.23,-0.07 0.29,-0.08 0.1,-0.01 0.14,0.01 0.18,0.04l0.01 0.01c0.02,0.01 0.04,0.03 0.08,0.08l0.13 0.18 0.3 0.4 0.21 0.29c0.1,0.14 0.14,0.22 0.08,0.34 -0.04,0.09 -0.14,0.14 -0.32,0.21 -0.14,0.07 -0.37,0.16 -0.61,0.26 -0.22,0.08 -0.44,0.17 -0.58,0.22 -0.16,0.06 -0.26,0.09 -0.33,0.11 -0.1,0.02 -0.15,0.01 -0.2,-0.01 -0.08,-0.04 -0.12,-0.08 -0.27,-0.29l-0.02 -0.02z"/>
   <path class="fil4" d="M15.07 8.41c0.06,0.1 0.16,0.25 0.24,0.38 0.07,0.1 0.14,0.2 0.19,0.27 0.06,0.08 0.09,0.13 0.12,0.16 0.03,0.02 0.05,0.04 0.07,0.05 0.03,0.01 0.06,0.02 0.09,0.03l0.01 0c0.03,0 0.07,0.01 0.11,0 0.06,-0.01 0.13,-0.03 0.53,-0.17 0.44,-0.16 1.2,-0.45 2.62,-0.98l5.66 -2.13c2.11,-0.79 4.21,-1.58 5.62,-2.11 1.41,-0.54 2.12,-0.81 2.49,-0.96 0.32,-0.13 0.33,-0.14 0.34,-0.15l0 -0.01c0.01,-0.02 0.02,-0.05 0.02,-0.08 0.01,-0.04 0.01,-0.07 0.01,-0.1 -0.01,-0.03 -0.01,-0.06 -0.02,-0.08 -0.02,-0.02 -0.03,-0.04 -0.06,-0.06 -0.03,-0.03 -0.06,-0.05 -0.11,-0.07 -0.06,-0.02 -0.13,-0.04 -0.21,-0.06 -0.08,-0.03 -0.18,-0.05 -0.29,-0.07 -0.12,-0.02 -0.25,-0.04 -0.41,-0.06 -0.16,-0.02 -0.33,-0.03 -0.49,-0.05 -0.19,-0.01 -0.36,-0.03 -0.5,-0.03 -0.12,-0.01 -0.21,-0.01 -0.58,0.1 -0.39,0.12 -1.08,0.36 -2.41,0.84 -1.16,0.43 -2.86,1.05 -4.61,1.69 -2.2,0.81 -4.41,1.63 -5.8,2.15 -1.3,0.49 -1.98,0.74 -2.34,0.89 -0.34,0.13 -0.37,0.15 -0.39,0.17 -0.02,0.01 -0.04,0.03 -0.05,0.04 0,0.02 -0.01,0.03 -0.01,0.04 -0.01,0.01 -0.01,0.03 0,0.04 0,0.02 0,0.04 0.01,0.05 0,0.02 0.01,0.04 0.03,0.08 0.03,0.04 0.06,0.1 0.12,0.19zm0.06 0.5c-0.09,-0.15 -0.18,-0.29 -0.25,-0.39 -0.05,-0.09 -0.09,-0.15 -0.12,-0.2 -0.02,-0.04 -0.04,-0.08 -0.05,-0.11 -0.01,-0.03 -0.02,-0.06 -0.02,-0.1 0,-0.04 0,-0.07 0.01,-0.11 0.01,-0.03 0.02,-0.07 0.04,-0.1 0.03,-0.04 0.05,-0.07 0.09,-0.1 0.04,-0.03 0.08,-0.06 0.45,-0.2 0.35,-0.14 1.02,-0.4 2.34,-0.89 1.5,-0.56 3.72,-1.38 5.8,-2.15 1.73,-0.64 3.42,-1.26 4.62,-1.69 1.32,-0.48 2.01,-0.72 2.41,-0.84 0.42,-0.13 0.52,-0.13 0.67,-0.12 0.14,0.01 0.32,0.02 0.49,0.04 0.17,0.01 0.35,0.03 0.5,0.05 0.16,0.02 0.3,0.04 0.42,0.06 0.13,0.02 0.23,0.04 0.32,0.07 0.09,0.02 0.16,0.05 0.23,0.07 0.07,0.03 0.12,0.06 0.17,0.1 0.05,0.04 0.08,0.08 0.11,0.13 0.02,0.05 0.04,0.1 0.04,0.16 0.01,0.05 0,0.1 0,0.15 -0.01,0.05 -0.03,0.1 -0.04,0.14l-0.01 0.01c-0.02,0.05 -0.05,0.09 -0.45,0.26 -0.37,0.15 -1.09,0.43 -2.49,0.96 -1.41,0.53 -3.51,1.32 -5.62,2.12l-5.67 2.12c-1.45,0.55 -2.22,0.83 -2.61,0.98 -0.43,0.15 -0.51,0.17 -0.58,0.18 -0.07,0.01 -0.13,0.01 -0.18,0l-0.01 0c-0.06,-0.01 -0.1,-0.03 -0.14,-0.05 -0.04,-0.02 -0.08,-0.04 -0.13,-0.09 -0.04,-0.03 -0.08,-0.09 -0.15,-0.18 -0.05,-0.07 -0.12,-0.17 -0.19,-0.28z"/>
   <path class="fil4" d="M15.42 9.18c-0.06,0.02 -0.12,-0.01 -0.14,-0.06 -0.02,-0.06 0,-0.12 0.06,-0.14 1.2,-0.45 2.4,-0.9 3.6,-1.35 0.52,-0.19 0.59,-0.22 0.66,-0.21 0.06,0 0.11,0.02 0.15,0.07 0.03,0.04 0.05,0.08 0.06,0.15l0 0c0.02,0.1 0.02,0.24 0.01,0.38l0 0c0,0.06 -0.05,0.11 -0.11,0.1 -0.06,0 -0.11,-0.05 -0.1,-0.11l0 0c0,-0.13 0,-0.25 -0.01,-0.33l0 0c0,-0.02 -0.01,-0.04 -0.01,-0.05 -0.03,0 -0.1,0.03 -0.57,0.21 -1.2,0.45 -2.4,0.89 -3.6,1.34z"/>
   <path class="fil4" d="M32 3.27c0.06,0.01 0.1,0.06 0.09,0.12 0,0.06 -0.05,0.1 -0.11,0.1l-0.5 -0.06c-0.15,-0.01 -0.29,-0.02 -0.39,-0.03 -0.1,-0.01 -0.16,-0.01 -0.2,0 -0.04,0 -0.06,0.01 -0.07,0.01 -0.01,0.01 -0.02,0.02 -0.03,0.03 -0.02,0.02 -0.03,0.05 -0.05,0.09l-0.01 0.04c-0.04,0.12 -0.09,0.29 -0.27,0.44 -0.19,0.15 -0.51,0.27 -0.83,0.39 -0.05,0.03 -0.11,0 -0.14,-0.05 -0.02,-0.06 0.01,-0.12 0.06,-0.15l0.01 0c0.3,-0.11 0.6,-0.23 0.76,-0.36 0.13,-0.11 0.17,-0.24 0.21,-0.34l0.01 -0.04c0.02,-0.06 0.05,-0.11 0.07,-0.15 0.03,-0.04 0.07,-0.07 0.11,-0.09 0.04,-0.02 0.08,-0.03 0.15,-0.04 0.05,0 0.13,0 0.23,0 0.11,0.01 0.25,0.02 0.4,0.04l0.5 0.05z"/>
   <path class="fil4" d="M32.94 2.92c0.06,0.01 0.1,0.06 0.09,0.12 -0.01,0.06 -0.07,0.1 -0.12,0.09l-0.01 0c-0.33,-0.07 -0.66,-0.13 -1.02,-0.17 -0.16,-0.02 -0.32,-0.04 -0.47,-0.05 -0.2,-0.02 -0.38,-0.04 -0.51,-0.05 -0.11,0 -0.18,-0.01 -0.23,0 -0.03,0 -0.06,0 -0.09,0.01 -0.03,0.01 -0.06,0.02 -0.1,0.04 -0.05,0.02 -0.1,0.05 -0.15,0.08 -0.06,0.04 -0.13,0.09 -0.19,0.13 -0.06,0.04 -0.11,0.08 -0.17,0.11l0 0.01c-0.06,0.04 -0.12,0.07 -0.46,0.2l-0.01 0c-0.36,0.14 -1,0.38 -2.21,0.82 -2.37,0.87 -7.19,2.62 -12.04,4.39l-0.15 0.05c-0.06,0.03 -0.12,0 -0.14,-0.06 -0.02,-0.06 0.01,-0.12 0.07,-0.14l0.15 -0.05c4.77,-1.74 9.51,-3.47 12.03,-4.39 1.25,-0.46 1.88,-0.69 2.21,-0.82l0.01 0c0.32,-0.13 0.37,-0.15 0.42,-0.18l0.01 -0.01c0.04,-0.03 0.1,-0.07 0.16,-0.11 0.07,-0.04 0.14,-0.09 0.2,-0.13 0.06,-0.04 0.11,-0.07 0.16,-0.09 0.05,-0.03 0.1,-0.05 0.14,-0.06 0.05,-0.01 0.09,-0.02 0.15,-0.02 0.06,0 0.13,0 0.24,0.01 0.13,0.01 0.32,0.02 0.52,0.04 0.16,0.02 0.32,0.03 0.48,0.05 0.36,0.05 0.7,0.11 1.03,0.17l0 0.01z"/>
   <path class="fil2" d="M12.98 10c-0.13,-0.17 -0.37,-0.5 -0.51,-0.68 -0.13,-0.19 -0.15,-0.22 -0.18,-0.24 0.01,0.48 0.03,0.95 0.04,1.43 0.19,-0.07 0.36,-0.14 0.48,-0.19 0.29,-0.13 0.29,-0.14 0.17,-0.32z"/>
   <path class="fil4" d="M12.13 9.09c0,-0.09 0.07,-0.17 0.15,-0.17 0.09,0 0.17,0.07 0.17,0.16l0.05 1.43c0,0.09 -0.07,0.16 -0.16,0.16 -0.09,0 -0.17,-0.07 -0.17,-0.15l-0.04 -1.43z"/>
   <path class="fil4" d="M10.64 9.85c0.11,0.17 0.35,0.5 0.49,0.69 0.04,0.07 0.09,0.13 0.14,0.2 0.01,0 -0.01,-0.01 0.01,-0.01 0.05,-0.01 0.14,-0.04 0.29,-0.1 0.16,-0.05 0.37,-0.14 0.57,-0.21 0.22,-0.09 0.45,-0.19 0.61,-0.25 0.1,-0.05 0.15,-0.06 0.15,-0.06 0.02,-0.05 -0.03,0.02 -0.06,-0.01l-0.2 -0.29 -0.3 -0.4 -0.13 -0.17c-0.04,0 -0.1,0.02 -0.21,0.06 -0.13,0.04 -0.29,0.09 -0.45,0.15 -0.24,0.08 -0.49,0.17 -0.66,0.23 -0.14,0.05 -0.23,0.08 -0.29,0.11l0.04 0.06zm0.22 0.88c-0.14,-0.19 -0.38,-0.52 -0.5,-0.7 -0.07,-0.12 -0.1,-0.19 -0.11,-0.24 -0.02,-0.12 0.01,-0.17 0.07,-0.22l0.01 -0.01c0.03,-0.02 0.07,-0.04 0.14,-0.07 0.06,-0.02 0.15,-0.06 0.31,-0.11 0.17,-0.07 0.42,-0.15 0.66,-0.24 0.19,-0.06 0.36,-0.12 0.47,-0.15 0.14,-0.05 0.23,-0.07 0.29,-0.08 0.1,-0.01 0.14,0.01 0.18,0.04l0.01 0.01c0.02,0.01 0.04,0.03 0.08,0.08l0.13 0.18 0.3 0.4 0.21 0.29c0.1,0.14 0.14,0.22 0.08,0.34 -0.04,0.09 -0.14,0.14 -0.32,0.21 -0.14,0.07 -0.37,0.16 -0.61,0.26 -0.22,0.08 -0.44,0.17 -0.58,0.22 -0.16,0.06 -0.26,0.09 -0.33,0.11 -0.1,0.02 -0.15,0.01 -0.2,-0.01 -0.08,-0.04 -0.12,-0.08 -0.27,-0.29l-0.02 -0.02z"/>
   <path class="fil5" d="M16.34 11.95c-4.06,1.53 -8.12,3.06 -12.19,4.58l0.82 0.47 -0.91 0.47 1.23 0.6c0.1,-0.04 0.82,-0.26 1.34,-0.46 0.52,-0.2 2.5,-0.94 4.02,-1.46 1.52,-0.52 2.95,-0.96 4.17,-1.4 1.21,-0.44 2.22,-0.88 2.97,-1.24 0.75,-0.37 1.25,-0.66 1.75,-0.96 0.11,-0.07 0.22,-0.14 0.36,-0.22 0.49,-0.27 1.31,-0.67 3.6,-1.59 0.62,-0.25 1.35,-0.53 2.14,-0.84 2.95,-1.15 6.75,-2.58 8.99,-3.41 2.84,-1.04 3.17,-1.11 3.34,-1.17 0.18,-0.06 0.22,-0.1 0.21,-0.57 0,-0.25 -0.01,-0.62 -0.02,-1 -5.17,1.94 -10.34,3.89 -15.5,5.83 -2.11,0.79 -4.21,1.58 -6.32,2.37z"/>
   <path class="fil4" d="M38.35 5.27c-0.06,0.15 -0.15,0.2 -0.3,0.25l-0.1 0.03c-0.22,0.07 -0.77,0.24 -3.24,1.15 -1.56,0.57 -3.88,1.44 -6.14,2.31 -1.87,0.71 -3.68,1.41 -4.98,1.93 -2.84,1.13 -3.41,1.47 -3.89,1.76l-0.05 0.03c-0.25,0.16 -0.51,0.31 -0.79,0.46 -0.28,0.16 -0.6,0.33 -0.97,0.51 -0.41,0.2 -0.89,0.42 -1.44,0.65 -0.47,0.19 -0.99,0.4 -1.56,0.6 -0.72,0.26 -1.48,0.51 -2.28,0.77 -0.6,0.2 -1.23,0.41 -1.89,0.63 -0.76,0.26 -1.54,0.54 -2.24,0.8 -0.72,0.26 -1.34,0.5 -1.77,0.66l-0.46 0.18c-0.52,0.2 -0.67,0.25 -0.82,0.28 -0.11,0.03 -0.21,0.03 -0.39,-0.03 -0.14,-0.04 -0.33,-0.14 -0.64,-0.32 -0.31,-0.18 -0.73,-0.44 -1.16,-0.72 -0.42,-0.28 -0.86,-0.57 -1.23,-0.83 -0.38,-0.26 -0.67,-0.48 -0.91,-0.68 -0.23,-0.19 -0.41,-0.36 -0.55,-0.52l-0.01 -0.01c-0.15,-0.16 -0.25,-0.32 -0.33,-0.47 -0.08,-0.16 -0.13,-0.31 -0.17,-0.47 -0.03,-0.16 -0.05,-0.34 -0.04,-0.51 0.01,-0.16 0.04,-0.31 0.09,-0.46 0.06,-0.15 0.14,-0.28 0.24,-0.39 0.09,-0.11 0.18,-0.19 0.27,-0.26 0.09,-0.08 0.17,-0.14 0.91,-0.43 0.7,-0.28 2.06,-0.8 4.74,-1.81 2.39,-0.9 6.07,-2.28 9.91,-3.72 4.22,-1.58 8.53,-3.2 11.41,-4.28 2.74,-1.02 4.18,-1.56 4.96,-1.84 0.81,-0.29 0.97,-0.34 1.14,-0.38 0.16,-0.04 0.32,-0.08 0.47,-0.1 0.15,-0.02 0.3,-0.04 0.44,-0.04 0.14,0 0.26,0 0.39,0.02 0.13,0.02 0.26,0.05 0.4,0.08 0.14,0.03 0.31,0.07 0.49,0.13 0.18,0.04 0.36,0.1 0.54,0.15 0.2,0.07 0.4,0.13 0.59,0.2 0.19,0.07 0.38,0.15 0.54,0.23 0.17,0.09 0.31,0.19 0.43,0.3 0.13,0.11 0.22,0.25 0.28,0.41 0.09,0.24 0.09,0.51 0.1,0.96l0 0.29c0.01,0.27 0.02,0.6 0.03,0.93 0.01,0.4 0.03,0.78 0.03,1.05 0,0.25 -0.01,0.4 -0.05,0.5l0 0.02zm-0.4 -0.16l0 -0.01c0.01,-0.05 0.02,-0.16 0.02,-0.35 0,-0.25 -0.02,-0.64 -0.03,-1.03 -0.01,-0.33 -0.02,-0.66 -0.03,-0.94l0 -0.3c-0.01,-0.4 -0.01,-0.64 -0.07,-0.81 -0.04,-0.09 -0.1,-0.18 -0.17,-0.25 -0.09,-0.08 -0.2,-0.15 -0.34,-0.22 -0.14,-0.08 -0.31,-0.15 -0.49,-0.21 -0.19,-0.07 -0.38,-0.14 -0.56,-0.19 -0.19,-0.06 -0.37,-0.11 -0.53,-0.16 -0.17,-0.04 -0.33,-0.09 -0.47,-0.12 -0.14,-0.03 -0.26,-0.06 -0.36,-0.07 -0.11,-0.01 -0.22,-0.02 -0.33,-0.02 -0.11,0 -0.24,0.02 -0.38,0.04 -0.14,0.02 -0.29,0.05 -0.44,0.09 -0.15,0.03 -0.3,0.08 -1.09,0.37 -0.82,0.29 -2.26,0.83 -4.96,1.84 -2.88,1.07 -7.19,2.69 -11.41,4.27 -3.64,1.37 -7.28,2.74 -9.91,3.73 -2.64,0.99 -4,1.51 -4.73,1.8 -0.68,0.27 -0.74,0.31 -0.8,0.36 -0.07,0.05 -0.14,0.12 -0.21,0.21 -0.07,0.07 -0.13,0.17 -0.16,0.27 -0.04,0.1 -0.06,0.21 -0.07,0.32 0,0.14 0.01,0.27 0.04,0.41 0.02,0.12 0.06,0.24 0.12,0.35 0.06,0.12 0.15,0.25 0.27,0.38l0.01 0.02c0.13,0.14 0.29,0.29 0.51,0.47 0.22,0.19 0.51,0.4 0.87,0.65 0.36,0.26 0.8,0.55 1.23,0.83 0.43,0.28 0.84,0.54 1.14,0.71 0.28,0.16 0.45,0.25 0.56,0.29 0.08,0.02 0.12,0.02 0.16,0.01 0.11,-0.02 0.25,-0.08 0.75,-0.27l0.46 -0.17c0.46,-0.18 1.1,-0.41 1.78,-0.67 0.71,-0.26 1.5,-0.54 2.25,-0.8 0.64,-0.21 1.28,-0.42 1.89,-0.63 0.82,-0.27 1.6,-0.52 2.27,-0.76 0.56,-0.2 1.07,-0.41 1.54,-0.6 0.54,-0.23 1.02,-0.45 1.42,-0.64 0.37,-0.18 0.68,-0.34 0.96,-0.49 0.28,-0.16 0.52,-0.31 0.77,-0.46l0.04 -0.02c0.51,-0.31 1.09,-0.65 3.95,-1.8 1.34,-0.54 3.15,-1.24 4.99,-1.94 2.26,-0.86 4.58,-1.73 6.15,-2.31 2.46,-0.91 3.04,-1.08 3.27,-1.15l0.08 -0.03c0.01,0 0.02,0 0.04,0z"/>
   <path class="fil4" d="M0.99 12.5c0.03,-0.05 0.1,-0.07 0.15,-0.04 0.05,0.02 0.07,0.09 0.05,0.14l-0.01 0.01c-0.1,0.18 -0.2,0.36 -0.25,0.55 -0.03,0.09 -0.04,0.19 -0.05,0.29l0 0c0,0.1 0,0.2 0.02,0.31 0.02,0.1 0.04,0.21 0.09,0.31 0.05,0.11 0.13,0.23 0.23,0.35 0.11,0.13 0.26,0.27 0.44,0.42 0.19,0.15 0.41,0.31 0.67,0.49 0.25,0.17 0.54,0.36 0.85,0.55 0.3,0.19 0.61,0.38 0.92,0.57l34.02 -12.8c0.05,-0.02 0.12,0.01 0.14,0.06 0.02,0.06 -0.01,0.12 -0.07,0.14l-34.06 12.82c-0.03,0.01 -0.07,0.01 -0.1,-0.01 -0.33,-0.2 -0.66,-0.41 -0.96,-0.6 -0.31,-0.19 -0.61,-0.38 -0.87,-0.56 -0.26,-0.17 -0.48,-0.34 -0.67,-0.49 -0.19,-0.16 -0.35,-0.31 -0.47,-0.45 -0.12,-0.14 -0.21,-0.27 -0.26,-0.4 -0.06,-0.12 -0.09,-0.25 -0.11,-0.37 -0.02,-0.12 -0.03,-0.24 -0.02,-0.35l0 0c0,-0.12 0.02,-0.23 0.05,-0.34 0.06,-0.22 0.17,-0.41 0.27,-0.6z"/>
   <path class="fil4" d="M4.04 16.66c-0.06,-0.03 -0.07,-0.1 -0.04,-0.15 0.03,-0.05 0.09,-0.07 0.14,-0.04l0.82 0.47c0.05,0.03 0.07,0.1 0.04,0.15 -0.01,0.02 -0.03,0.03 -0.05,0.04l-0.72 0.35c-0.06,0.02 -0.12,0 -0.15,-0.05 -0.02,-0.06 0,-0.12 0.05,-0.15l0.54 -0.26 -0.63 -0.36z"/>
  </g>
 </g>
</svg>
