<?xml version="1.0" encoding="UTF-8"?>
<!DOCTYPE svg PUBLIC "-//W3C//DTD SVG 1.1//EN" "http://www.w3.org/Graphics/SVG/1.1/DTD/svg11.dtd">
<!-- Creator: CorelDRAW 2021.5 -->
<svg xmlns="http://www.w3.org/2000/svg" xml:space="preserve" width="500px" height="203px" version="1.1" style="shape-rendering:geometricPrecision; text-rendering:geometricPrecision; image-rendering:optimizeQuality; fill-rule:evenodd; clip-rule:evenodd"
viewBox="0 0 73.02 29.57"
 xmlns:xlink="http://www.w3.org/1999/xlink"
 xmlns:xodm="http://www.corel.com/coreldraw/odm/2003">
 <defs>
  <style type="text/css">
   <![CDATA[
    .fil0 {fill:#575757}
    .fil3 {fill:#6E6E6E}
    .fil9 {fill:#737373}
    .fil10 {fill:#7A7A7A}
    .fil2 {fill:gray}
    .fil8 {fill:#858585}
    .fil11 {fill:#8A8A8A}
    .fil6 {fill:#999999}
    .fil7 {fill:#A6A6A6}
    .fil5 {fill:#ADADAD}
    .fil4 {fill:#BFBFBF}
    .fil1 {fill:#5F5F5F;fill-rule:nonzero}
   ]]>
  </style>
 </defs>
 <g id="Слой_x0020_1">
  <metadata id="CorelCorpID_0Corel-Layer"/>
  <g id="_1910645715024">
   <path class="fil0" d="M26.12 11.03c0.14,-0.19 0.32,-0.37 0.5,-0.54l-1.12 -0.45c-0.24,-0.1 -0.48,-0.13 -0.73,-0.11 -0.15,0.02 -0.3,0.06 -0.45,0.13l-2.54 1.14 3.2 1.16c0.23,0.08 0.45,0.11 0.67,0.09 0.03,-0.22 0.06,-0.42 0.11,-0.63 0.07,-0.28 0.19,-0.55 0.36,-0.79z"/>
   <path class="fil1" d="M25.95 10.91c0.08,-0.11 0.17,-0.21 0.26,-0.3l0.04 -0.05 -0.83 -0.33c-0.1,-0.04 -0.21,-0.07 -0.31,-0.09 -0.11,-0.01 -0.21,-0.01 -0.31,0 -0.07,0.01 -0.13,0.02 -0.2,0.04 -0.07,0.02 -0.13,0.04 -0.2,0.07l-2.07 0.93 2.72 0.99c0.1,0.03 0.2,0.06 0.29,0.07l0.13 0.01 0.02 -0.15c0.02,-0.12 0.04,-0.23 0.07,-0.33 0.04,-0.15 0.09,-0.3 0.15,-0.44 0.07,-0.15 0.15,-0.29 0.24,-0.42zm0.55 -0.02c-0.08,0.09 -0.15,0.17 -0.21,0.26 -0.08,0.11 -0.15,0.23 -0.2,0.34 -0.05,0.12 -0.1,0.25 -0.13,0.38 -0.02,0.1 -0.04,0.2 -0.06,0.29 -0.02,0.1 -0.03,0.2 -0.04,0.31 -0.01,0.09 -0.09,0.17 -0.18,0.18 -0.12,0.01 -0.25,0.01 -0.37,0l-0.02 0c-0.12,-0.02 -0.25,-0.05 -0.38,-0.1l-3.2 -1.16c-0.05,-0.01 -0.09,-0.05 -0.11,-0.11 -0.05,-0.1 0,-0.22 0.1,-0.27l2.54 -1.14c0.08,-0.03 0.17,-0.07 0.25,-0.09 0.09,-0.02 0.18,-0.04 0.26,-0.05 0.14,-0.02 0.28,-0.01 0.42,0.01 0.13,0.02 0.27,0.05 0.41,0.11l1.11 0.45c0.03,0.01 0.06,0.03 0.08,0.05 0.08,0.08 0.08,0.22 -0.01,0.29 -0.09,0.09 -0.18,0.17 -0.26,0.25z"/>
   <path class="fil2" d="M24.32 10.06c0.15,-0.07 0.3,-0.11 0.45,-0.13l0 -0.89c-0.15,0.02 -0.3,0.06 -0.45,0.13l-3.36 1.51c-0.04,0.02 -0.07,0.06 -0.07,0.11 0,0.06 0.03,0.1 0.08,0.12l0.81 0.29 2.54 -1.14z"/>
   <path class="fil3" d="M24.77 9.93c0.25,-0.02 0.49,0.01 0.73,0.11l1.12 0.45 1.87 0.75 0.78 -0.35c0.04,-0.02 0.07,-0.07 0.07,-0.12 0,-0.05 -0.03,-0.09 -0.08,-0.11l-3.76 -1.51c-0.24,-0.1 -0.48,-0.14 -0.73,-0.11l0 0.89z"/>
   <path class="fil4" d="M11.16 18.62c1.55,0.59 1.84,0.77 2.07,0.98 9.07,-4.04 18.13,-8.09 27.2,-12.13 -0.54,-0.03 -1.39,-0.05 -2.89,-0.06 -2.99,-0.03 -8.55,-0.03 -11.45,0 -2.89,0.02 -3.13,0.06 -5.82,1.16 -2.7,1.1 -7.84,3.26 -12.98,5.42 -1.02,0.43 -2.03,0.86 -2.82,1.19 -0.72,0.31 -1.25,0.54 -1.69,0.78 0.1,-0.04 0.23,-0.08 0.37,-0.09 0.25,-0.01 0.56,0.05 2.11,0.59 1.55,0.54 4.35,1.56 5.9,2.16zm13.82 -6.26l-3.2 -1.16 -0.81 -0.29c-0.05,-0.02 -0.08,-0.06 -0.08,-0.12 0,-0.05 0.03,-0.09 0.07,-0.11l3.36 -1.51c0.15,-0.07 0.3,-0.11 0.45,-0.13 0.25,-0.03 0.49,0.01 0.73,0.11l3.76 1.51c0.05,0.02 0.08,0.06 0.08,0.11 0,0.05 -0.03,0.1 -0.07,0.12l-0.78 0.35 -2.37 1.08c-0.16,0.06 -0.31,0.11 -0.47,0.13 -0.22,0.02 -0.44,-0.01 -0.67,-0.09z"/>
   <path class="fil5" d="M44.71 8.04c-2.48,1.1 -4.97,2.19 -6.58,2.9 -1.61,0.71 -2.35,1.03 -2.8,1.27 -0.46,0.23 -1.79,0.85 -1.85,0.98 -0.06,0.14 1.01,0.08 1.23,0.18 0.22,0.11 0.75,-0.11 1.45,-0.04 0.7,0.06 1.7,0.13 3.17,0.21 1.47,0.09 3.4,0.21 4.85,0.08 1.45,-0.13 2.41,-0.49 6.96,-2.26 4.54,-1.77 12.67,-4.94 20.8,-8.11 -0.34,-0.27 -0.87,-0.62 -1.61,-1.04 -0.83,-0.47 -1.92,-1.04 -2.57,-1.36 -0.65,-0.32 -0.85,-0.39 -1.03,-0.42 -0.19,-0.03 -0.35,-0.03 -0.74,0.1 -0.38,0.12 -0.99,0.36 -4.15,1.59 -3.17,1.24 -8.9,3.46 -12.14,4.62 -3.24,1.15 -3.98,1.23 -4.62,1.28 -0.13,0.01 -0.25,0.02 -0.37,0.02z"/>
   <path class="fil6" d="M40.43 7.47c-9.07,4.04 -18.13,8.09 -27.2,12.13 0.24,0.22 0.41,0.47 0.5,0.81 0.09,0.34 0.09,0.77 -0.02,1.39 0,0.04 -0.01,0.09 -0.02,0.14 5.32,-2.32 10.64,-4.65 13.61,-5.92 2.97,-1.27 3.6,-1.5 4.16,-1.62 0.56,-0.13 1.05,-0.15 2.85,0.03 1.8,0.17 4.9,0.55 6.87,0.7 0.88,0.07 1.53,0.09 2.06,0.07 0.65,-0.02 1.11,-0.09 1.57,-0.19 0.23,-0.05 0.47,-0.1 0.77,-0.2 0.83,-0.24 2.21,-0.75 5.59,-2.05 4.63,-1.78 13.03,-5.07 21.42,-8.36 -0.01,-0.15 -0.02,-0.26 -0.04,-0.36 -0.06,-0.25 -0.17,-0.42 -0.5,-0.7 -0.03,-0.03 -0.07,-0.06 -0.11,-0.09 -8.13,3.17 -16.26,6.34 -20.8,8.11 -4.55,1.77 -5.51,2.13 -6.96,2.26 -1.45,0.13 -3.38,0.01 -4.85,-0.08 -1.47,-0.08 -2.47,-0.15 -3.17,-0.21 -0.14,-0.02 -2.25,-0.14 -2.12,-0.41 0.06,-0.14 0.83,-0.48 1.29,-0.71 0.45,-0.24 1.19,-0.56 2.8,-1.27 1.61,-0.71 4.1,-1.8 6.58,-2.9 -0.47,0.04 -0.88,0.05 -1.22,0.04 -0.44,-0.02 -0.77,-0.07 -1.1,-0.17 -0.33,-0.09 -0.65,-0.23 -1.03,-0.33 -0.19,-0.05 -0.39,-0.09 -0.93,-0.11z"/>
   <path class="fil7" d="M44.81 15.01c-0.46,0.1 -0.92,0.17 -1.57,0.19 0,1.61 0,3.68 0,5.29 1.14,-0.19 1.76,-0.31 2.34,-0.46 0,-1.58 0,-3.63 0,-5.22 -0.3,0.1 -0.54,0.15 -0.77,0.2z"/>
   <path class="fil8" d="M45.58 14.81c0,1.59 0,3.71 0,5.3 0.17,-0.05 -0.01,0.01 0.5,-0.14 0.51,-0.14 1.91,-0.75 2.52,-1.01 0.62,-0.26 0.79,-0.8 1.27,-1.24 0.49,-0.45 1.28,-1.17 1.91,-1.66 0.63,-0.49 1.1,-0.75 1.92,-1.13 0.81,-0.37 1.97,-0.86 2.8,-1.18 0.5,-0.19 0.88,-0.32 1.17,-0.41 0.2,-0.06 0.36,-0.11 0.48,-0.14 0.31,-0.08 0.41,-0.08 0.47,0.03 0.06,0.1 0.08,0.31 0.08,0.57 0.01,0.25 0.01,0.55 0.05,0.78 0.05,0.23 0.14,0.39 0.27,0.48 0.04,0.03 0.08,0.05 0.12,0.07 0.1,0.03 0.22,0.03 0.36,-0.01 0.21,-0.06 0.46,-0.19 2.54,-1.09 2.08,-0.9 5.98,-2.58 8.01,-3.47 2.03,-0.89 2.18,-1 2.29,-1.14 0.11,-0.14 0.19,-0.31 0.23,-1.06 0.03,-0.76 0.03,-2.09 0.03,-2.92 0,-0.5 0,-0.81 -0.01,-1.04 -8.39,3.29 -16.79,6.58 -21.42,8.36 -3.38,1.3 -4.76,1.81 -5.59,2.05z"/>
   <path class="fil9" d="M57.85 14.7c0.09,0.1 0.21,0.14 0.43,0.21 0.23,0.06 0.54,0.14 0.86,0.22 -0.04,-0.02 -0.08,-0.04 -0.12,-0.07 -0.13,-0.09 -0.22,-0.25 -0.27,-0.48 -0.04,-0.23 -0.04,-0.53 -0.05,-0.78 0,-0.26 -0.02,-0.47 -0.08,-0.57 -0.06,-0.11 -0.16,-0.11 -0.47,-0.03 -0.12,0.03 -0.28,0.08 -0.48,0.14 0,0.33 -0.01,0.66 0.02,0.9 0.02,0.23 0.07,0.37 0.16,0.46z"/>
   <path class="fil10" d="M43.24 20.03c0,-1.61 0,-3.22 0,-4.83 -0.53,0.02 -1.18,0 -2.06,-0.07 -1.97,-0.15 -5.07,-0.53 -6.87,-0.7 -1.8,-0.18 -2.33,-0.48 -2.89,-0.35 0.01,2.55 0.05,4.79 0.06,7.34 1.09,-0.25 2.3,-0.32 4.37,-0.67 2.08,-0.35 5.86,-0.48 6.88,-0.64 1.02,-0.16 0.35,-0.05 0.51,-0.08z"/>
   <path class="fil8" d="M31.48 21.51l-0.02 -7.11c0,-0.21 -1.19,0.35 -4.16,1.62 -2.97,1.27 -8.29,3.6 -13.61,5.92 -0.11,0.6 -0.3,1.33 -0.42,2 -0.13,0.72 -0.2,1.37 -0.2,2.04 -0.01,0.67 0.04,1.35 0.1,1.82 0.05,0.46 0.11,0.71 0.23,0.89 0.11,0.18 0.26,0.3 0.44,0.35 0.18,0.05 0.38,0.03 0.58,0.01 0.13,-0.04 0.28,-0.09 0.46,-0.15 0.74,-0.26 2.05,-0.75 2.82,-1.04 0.03,-0.01 0.05,-0.02 0.08,-0.02 0.76,-0.29 0.93,-0.35 1.04,-0.37 0.1,-0.02 0.14,0 0.17,0.07 0.03,0.07 0.04,0.18 0.03,0.3 -0.02,0.13 -0.05,0.26 -0.1,0.35 -0.06,0.09 -0.13,0.14 -0.2,0.2 0.18,-0.07 0.36,-0.14 2.3,-0.99 1.94,-0.84 5.64,-3.01 7.6,-3.87 1.96,-0.85 2.19,-0.95 2.37,-1.03 0.17,-0.09 0.29,-0.17 0.36,-0.25 0.08,-0.08 0.11,-0.16 0.12,-0.28 0.01,-0.12 0.01,-0.29 0.01,-0.46z"/>
   <path class="fil9" d="M18.92 28.19c0.05,-0.09 0.08,-0.22 0.1,-0.35 0.01,-0.12 0,-0.23 -0.03,-0.3 -0.03,-0.07 -0.07,-0.09 -0.17,-0.07 -0.11,0.02 -0.28,0.08 -1.04,0.37 -0.03,0 -0.05,0.01 -0.08,0.02 0.34,0.18 0.68,0.35 1.02,0.53 0.07,-0.06 0.14,-0.11 0.2,-0.2z"/>
   <path class="fil11" d="M13.27 23.94c0.12,-0.67 0.31,-1.4 0.42,-2 0.01,-0.05 0.02,-0.1 0.02,-0.14 0.11,-0.62 0.11,-1.05 0.02,-1.39 -0.09,-0.34 -0.26,-0.59 -0.5,-0.81 -0.23,-0.21 -0.52,-0.39 -2.07,-0.98 -1.55,-0.6 -4.35,-1.62 -5.9,-2.16 -1.55,-0.54 -1.86,-0.6 -2.11,-0.59 -0.14,0.01 -0.27,0.05 -0.37,0.09 -0.04,0.03 -0.08,0.05 -0.12,0.07 -0.15,0.09 -0.29,0.18 -0.43,0.29 -0.01,0.01 -0.02,0.02 -0.03,0.03 -0.26,0.21 -0.5,0.47 -0.71,0.83 -0.32,0.57 -0.6,1.38 -0.79,2.21 -0.19,0.82 -0.29,1.67 -0.29,2.46 0,0.79 0.09,1.53 0.15,1.95 0.06,0.42 0.1,0.52 0.26,0.65 0.16,0.14 0.45,0.31 0.74,0.47 -0.08,-0.06 -0.13,-0.18 -0.17,-0.4 -0.05,-0.28 -0.07,-0.72 -0.09,-1.29 -0.03,-0.58 -0.05,-1.3 0,-2.02 0.05,-0.72 0.17,-1.44 0.31,-2.02 0.15,-0.57 0.32,-0.99 0.52,-1.33 0.19,-0.33 0.41,-0.58 0.58,-0.74 0.18,-0.16 0.31,-0.24 0.43,-0.28 0.11,-0.04 0.21,-0.04 1.69,0.49 1.47,0.52 4.33,1.58 5.87,2.16 1.54,0.58 1.78,0.68 1.94,0.86 0.11,0.12 0.18,0.28 0.21,0.48 0.02,0.09 0.02,0.19 0.01,0.31 -0.01,0.35 -0.13,0.81 -0.26,1.46 -0.04,0.17 -0.07,0.36 -0.11,0.56 -0.1,0.53 -0.19,1.12 -0.25,1.64 -0.08,0.72 -0.1,1.31 -0.06,1.91 0.03,0.59 0.11,1.18 0.21,1.51 0.09,0.33 0.2,0.41 0.43,0.53 0.23,0.13 0.58,0.3 0.84,0.38 0.21,0.05 0.36,0.05 0.76,-0.08 -0.2,0.02 -0.4,0.04 -0.58,-0.01 -0.18,-0.05 -0.33,-0.17 -0.45,-0.35 -0.11,-0.18 -0.17,-0.43 -0.22,-0.89 -0.06,-0.47 -0.11,-1.15 -0.1,-1.82 0,-0.67 0.07,-1.32 0.2,-2.04z"/>
   <path class="fil9" d="M7.48 22.92c1.79,-0.7 3.58,-1.39 5.37,-2.09 -0.03,-0.2 -0.1,-0.36 -0.21,-0.48 -0.16,-0.18 -0.4,-0.28 -1.94,-0.86 -1.54,-0.58 -4.4,-1.64 -5.87,-2.16 -1.48,-0.53 -1.58,-0.53 -1.69,-0.49 -0.12,0.04 -0.25,0.12 -0.43,0.28 -0.17,0.16 -0.39,0.41 -0.58,0.74 -0.2,0.34 -0.37,0.76 -0.52,1.33 -0.14,0.58 -0.26,1.3 -0.31,2.02 -0.05,0.72 -0.03,1.44 0,2.02 0.02,0.57 0.04,1.01 0.09,1.29 0.04,0.22 0.09,0.34 0.17,0.4 0.02,0.02 0.04,0.03 0.06,0.03 0.11,0.05 0.26,0.04 0.45,-0.01 0.2,-0.05 0.42,-0.13 1.33,-0.47 0.72,-0.27 1.89,-0.72 3.14,-1.19 0.3,-0.12 0.61,-0.23 0.91,-0.35 0.01,0 0.02,-0.01 0.03,-0.01z"/>
   <path class="fil9" d="M8.4 23.65c-0.18,-0.02 -0.4,-0.08 -0.57,-0.17 -0.18,-0.1 -0.32,-0.23 -0.37,-0.33 -0.05,-0.1 -0.01,-0.17 0.02,-0.23 -0.01,0 -0.02,0.01 -0.03,0.01 -0.3,0.12 -0.61,0.23 -0.91,0.35 0,0.08 0,0.17 0.04,0.29 0.03,0.12 0.11,0.28 0.32,0.44 0.21,0.17 0.55,0.35 0.84,0.46 0.28,0.11 0.52,0.15 0.71,0.16 0,-0.33 0,-0.65 0,-0.98 -0.02,0 -0.03,0 -0.05,0z"/>
   <path class="fil11" d="M7.83 23.48c0.17,0.09 0.39,0.15 0.57,0.17 0.02,0 0.03,0 0.05,0 0.16,0.01 0.34,-0.04 1,-0.3 0.72,-0.28 2,-0.82 3.28,-1.36 0.07,-0.35 0.12,-0.62 0.13,-0.85 0.01,-0.12 0.01,-0.22 -0.01,-0.31 -1.79,0.7 -3.58,1.39 -5.37,2.09 -0.03,0.06 -0.07,0.13 -0.02,0.23 0.05,0.1 0.19,0.23 0.37,0.33z"/>
   <path class="fil9" d="M9.45 23.35c-0.66,0.26 -0.84,0.31 -1,0.3 0,0.33 0,0.65 0,0.98 0.18,0.01 0.32,-0.02 0.99,-0.27 0.67,-0.25 1.86,-0.72 3.05,-1.2 0.04,-0.2 0.07,-0.39 0.11,-0.56 0.04,-0.23 0.09,-0.43 0.13,-0.61 -1.28,0.54 -2.56,1.08 -3.28,1.36z"/>
   <path class="fil1" d="M7.13 13.61c0.21,-0.09 0.45,0.01 0.54,0.22 0.09,0.21 -0.01,0.45 -0.22,0.54l-2.82 1.19c-0.39,0.17 -0.72,0.31 -1.01,0.44 -0.28,0.13 -0.52,0.25 -0.75,0.38 -0.21,0.13 -0.39,0.26 -0.56,0.42 -0.17,0.15 -0.32,0.34 -0.46,0.59 -0.15,0.25 -0.29,0.56 -0.41,0.9 -0.13,0.37 -0.25,0.78 -0.34,1.19 -0.09,0.39 -0.16,0.79 -0.2,1.19 -0.05,0.41 -0.08,0.8 -0.08,1.18 0,0.38 0.02,0.75 0.05,1.08 0.03,0.31 0.07,0.6 0.1,0.81 0.02,0.18 0.04,0.29 0.07,0.34l0 0.01c0.01,0.02 0.02,0.03 0.04,0.05 0.14,0.11 0.41,0.27 0.69,0.43 0.2,0.11 0.26,0.36 0.15,0.56 -0.11,0.2 -0.37,0.26 -0.56,0.15 -0.31,-0.18 -0.61,-0.35 -0.8,-0.51 -0.13,-0.11 -0.21,-0.2 -0.28,-0.36l-0.01 -0.02c-0.05,-0.13 -0.08,-0.29 -0.12,-0.53 -0.03,-0.2 -0.07,-0.5 -0.1,-0.86 -0.03,-0.35 -0.05,-0.75 -0.05,-1.15 0,-0.42 0.03,-0.85 0.08,-1.27 0.05,-0.42 0.12,-0.85 0.22,-1.28 0.1,-0.44 0.22,-0.88 0.37,-1.29 0.14,-0.38 0.3,-0.74 0.47,-1.03 0.18,-0.32 0.38,-0.57 0.6,-0.78 0.22,-0.21 0.46,-0.37 0.71,-0.53 0.25,-0.14 0.52,-0.27 0.83,-0.42 0.3,-0.13 0.63,-0.28 1.03,-0.44l2.82 -1.2z"/>
   <path class="fil1" d="M2.33 16.51c-0.09,0.07 -0.22,0.05 -0.29,-0.03 -0.07,-0.09 -0.06,-0.22 0.03,-0.29 0.12,-0.1 0.25,-0.2 0.41,-0.3 0.08,-0.05 0.17,-0.1 0.28,-0.14 0.11,-0.04 0.24,-0.07 0.38,-0.08 0.15,-0.01 0.3,0 0.63,0.09 0.3,0.08 0.77,0.24 1.56,0.51 0.81,0.28 1.95,0.69 3.07,1.1 1.04,0.38 2.08,0.77 2.83,1.06 0.79,0.3 1.25,0.49 1.55,0.64 0.32,0.15 0.46,0.26 0.59,0.38 0.13,0.12 0.25,0.25 0.34,0.4 0.1,0.15 0.17,0.32 0.22,0.51 0.05,0.19 0.07,0.4 0.07,0.64 0,0.24 -0.03,0.51 -0.08,0.83 -0.06,0.32 -0.14,0.7 -0.23,1.1 -0.08,0.34 -0.15,0.7 -0.22,1.05 -0.06,0.35 -0.11,0.69 -0.15,1.02 -0.03,0.33 -0.04,0.66 -0.05,0.98 0,0.3 0.01,0.61 0.03,0.89l0 0.01c0.01,0.33 0.04,0.64 0.07,0.89 0.03,0.23 0.06,0.4 0.09,0.53 0.03,0.12 0.07,0.21 0.11,0.28 0.04,0.07 0.09,0.13 0.15,0.17 0.05,0.04 0.11,0.07 0.18,0.09l0.01 0c0.06,0.02 0.14,0.03 0.22,0.03 0.08,0 0.18,-0.01 0.28,-0.02 0.11,-0.01 0.21,0.07 0.22,0.18 0.01,0.12 -0.07,0.22 -0.19,0.23 -0.1,0.01 -0.2,0.02 -0.31,0.02 -0.11,0 -0.22,-0.01 -0.33,-0.04l-0.01 0c-0.12,-0.03 -0.23,-0.09 -0.33,-0.17 -0.09,-0.07 -0.17,-0.16 -0.24,-0.28 -0.07,-0.1 -0.12,-0.23 -0.16,-0.39 -0.04,-0.15 -0.07,-0.34 -0.1,-0.58 -0.03,-0.25 -0.06,-0.57 -0.08,-0.92l0 0c-0.01,-0.29 -0.02,-0.61 -0.02,-0.92 0.01,-0.34 0.02,-0.68 0.06,-1.02 0.03,-0.34 0.08,-0.69 0.15,-1.06 0.06,-0.34 0.14,-0.71 0.22,-1.06 0.08,-0.38 0.17,-0.75 0.22,-1.08 0.05,-0.3 0.08,-0.55 0.08,-0.76 0,-0.21 -0.02,-0.38 -0.06,-0.54 -0.04,-0.15 -0.09,-0.28 -0.17,-0.39 -0.07,-0.12 -0.16,-0.22 -0.26,-0.32 -0.11,-0.09 -0.23,-0.18 -0.5,-0.31 -0.3,-0.15 -0.75,-0.34 -1.51,-0.63 -0.74,-0.28 -1.78,-0.67 -2.83,-1.05 -1.13,-0.42 -2.27,-0.83 -3.07,-1.1 -0.77,-0.27 -1.23,-0.42 -1.53,-0.5 -0.27,-0.07 -0.39,-0.09 -0.5,-0.08 -0.09,0 -0.18,0.03 -0.25,0.05 -0.08,0.03 -0.15,0.07 -0.22,0.11 -0.14,0.09 -0.25,0.18 -0.36,0.27z"/>
   <path class="fil1" d="M18.9 28.02c0.21,0.11 0.29,0.35 0.18,0.56 -0.1,0.2 -0.35,0.28 -0.55,0.17l-1.02 -0.52c-0.2,-0.1 -0.28,-0.35 -0.17,-0.56 0.1,-0.2 0.35,-0.28 0.55,-0.17l1.01 0.52z"/>
   <path class="fil1" d="M7.31 22.82c0.05,-0.1 0.18,-0.14 0.28,-0.08 0.1,0.06 0.13,0.18 0.07,0.28l-0.02 0.04c0.02,0.03 0.05,0.07 0.1,0.11 0.05,0.04 0.11,0.09 0.18,0.13 0.08,0.04 0.16,0.07 0.24,0.09l0.01 0.01c0.08,0.02 0.17,0.04 0.25,0.04l0 0c0.07,0.01 0.14,0 0.25,-0.03 0.14,-0.04 0.36,-0.11 0.71,-0.25l0.01 -0.01c0.35,-0.13 0.84,-0.34 1.41,-0.57l1.85 -0.78c0.1,-0.05 0.22,0 0.26,0.11 0.05,0.1 0,0.22 -0.1,0.27l-1.85 0.78c-0.56,0.23 -1.05,0.43 -1.42,0.58l-0.01 0c-0.37,0.15 -0.59,0.23 -0.75,0.27 -0.18,0.05 -0.28,0.05 -0.39,0.04l-0.01 0c-0.1,-0.01 -0.21,-0.03 -0.33,-0.06l-0.01 0c-0.11,-0.03 -0.21,-0.08 -0.31,-0.13 -0.1,-0.05 -0.19,-0.12 -0.27,-0.18 -0.08,-0.08 -0.15,-0.16 -0.18,-0.24 -0.05,-0.1 -0.06,-0.18 -0.04,-0.26 0.01,-0.07 0.04,-0.12 0.07,-0.16zm0.33 0.24l0 0c0,0.01 0,0 0,0z"/>
   <path class="fil1" d="M6.13 23.27c0.01,-0.23 0.2,-0.41 0.42,-0.4 0.23,0 0.41,0.19 0.4,0.42l0 0.09c0.01,0.02 0.01,0.04 0.02,0.06 0.01,0.03 0.02,0.06 0.05,0.1 0.03,0.05 0.07,0.1 0.14,0.15l0.02 0.02c0.08,0.06 0.18,0.12 0.29,0.18 0.14,0.08 0.28,0.15 0.41,0.19 0.12,0.05 0.23,0.08 0.33,0.1 0.1,0.02 0.18,0.03 0.25,0.04l0.01 0c0.05,0 0.1,0 0.19,-0.03 0.13,-0.03 0.32,-0.1 0.64,-0.22 0.65,-0.24 1.8,-0.7 2.96,-1.16l0.08 -0.03c0.21,-0.08 0.45,0.02 0.53,0.23 0.08,0.21 -0.02,0.45 -0.23,0.53l-0.08 0.04c-1.17,0.46 -2.32,0.92 -2.98,1.16 -0.34,0.13 -0.56,0.21 -0.71,0.25 -0.19,0.05 -0.31,0.05 -0.43,0.05l-0.01 0c-0.12,-0.01 -0.25,-0.02 -0.39,-0.05 -0.13,-0.03 -0.28,-0.07 -0.45,-0.14 -0.17,-0.06 -0.35,-0.15 -0.51,-0.23 -0.15,-0.09 -0.29,-0.18 -0.41,-0.27l-0.02 -0.02c-0.14,-0.11 -0.24,-0.22 -0.31,-0.32 -0.08,-0.12 -0.13,-0.22 -0.16,-0.31 -0.03,-0.1 -0.04,-0.18 -0.05,-0.26 0,-0.06 0,-0.12 0,-0.17z"/>
   <path class="fil1" d="M8.65 24.63c0,0.11 -0.09,0.2 -0.2,0.2 -0.12,0 -0.21,-0.09 -0.21,-0.2l0 -0.98c0,-0.12 0.09,-0.21 0.21,-0.21 0.11,0 0.2,0.09 0.2,0.21l0 0.98z"/>
   <path class="fil1" d="M59.19 14.93c0.11,0.02 0.18,0.14 0.15,0.25 -0.03,0.11 -0.14,0.17 -0.25,0.15l-0.46 -0.12 -0.4 -0.1c-0.12,-0.04 -0.21,-0.07 -0.3,-0.1 -0.09,-0.05 -0.17,-0.1 -0.23,-0.16 -0.06,-0.07 -0.11,-0.15 -0.15,-0.26 -0.03,-0.09 -0.05,-0.2 -0.07,-0.33 -0.02,-0.25 -0.02,-0.58 -0.01,-0.92 0,-0.11 0.09,-0.2 0.2,-0.2 0.12,0 0.21,0.09 0.21,0.2 -0.01,0.33 -0.01,0.65 0.01,0.88 0.01,0.1 0.03,0.18 0.05,0.24 0.01,0.04 0.03,0.08 0.06,0.1 0.02,0.03 0.05,0.05 0.1,0.07 0.06,0.03 0.14,0.05 0.24,0.08l0.39 0.1 0.46 0.12z"/>
   <path class="fil1" d="M24.4 9.36l-3.17 1.42 3.82 1.39c0.17,0.06 0.33,0.08 0.5,0.08 0.16,-0.01 0.32,-0.05 0.48,-0.12l2.98 -1.35 -3.59 -1.44c-0.17,-0.07 -0.34,-0.11 -0.51,-0.1 -0.17,0 -0.34,0.04 -0.51,0.12zm-3.52 1.13l3.36 -1.51c0.21,-0.1 0.44,-0.15 0.66,-0.15 0.23,-0.01 0.45,0.03 0.68,0.12l3.76 1.52c0.06,0.02 0.11,0.06 0.15,0.12 0.03,0.05 0.05,0.11 0.05,0.18 0,0.06 -0.01,0.13 -0.05,0.18 -0.03,0.05 -0.08,0.1 -0.14,0.12l-3.15 1.43c-0.21,0.1 -0.42,0.15 -0.64,0.16 -0.22,0.01 -0.43,-0.03 -0.65,-0.11l-4.01 -1.45c-0.06,-0.02 -0.12,-0.06 -0.15,-0.12 -0.04,-0.05 -0.06,-0.11 -0.07,-0.18 0,-0.07 0.02,-0.13 0.05,-0.19 0.04,-0.05 0.09,-0.1 0.15,-0.12z"/>
   <path class="fil1" d="M43.03 15.2c0,-0.11 0.1,-0.2 0.21,-0.2 0.11,0 0.2,0.09 0.2,0.2l0 5.24c0,0.12 -0.09,0.21 -0.2,0.21 -0.11,0 -0.21,-0.09 -0.21,-0.21l0 -5.24z"/>
   <path class="fil1" d="M45.38 14.81c0,-0.11 0.09,-0.2 0.2,-0.2 0.11,0 0.21,0.09 0.21,0.2l0 5.3c0,0.11 -0.1,0.2 -0.21,0.2 -0.11,0 -0.2,-0.09 -0.2,-0.2l0 -5.3z"/>
   <path class="fil1" d="M7.6 23.31c-0.21,0.09 -0.45,-0.02 -0.53,-0.23 -0.08,-0.21 0.02,-0.45 0.23,-0.53l5.4 -2.1c0.22,-0.09 0.45,0.02 0.54,0.23 0.08,0.21 -0.03,0.45 -0.24,0.53l-5.4 2.1z"/>
   <path class="fil1" d="M28.56 11.05c0.11,0.04 0.16,0.16 0.12,0.27 -0.04,0.1 -0.16,0.15 -0.27,0.11l-2.99 -1.2c-0.17,-0.07 -0.34,-0.1 -0.51,-0.1 -0.17,0.01 -0.34,0.05 -0.51,0.12l-2.53 1.14c-0.1,0.05 -0.23,0 -0.27,-0.1 -0.05,-0.11 0,-0.23 0.1,-0.28l2.54 -1.13c0.21,-0.1 0.44,-0.15 0.66,-0.16 0.23,0 0.45,0.04 0.68,0.13l2.98 1.2z"/>
   <path class="fil1" d="M31.05 14.47c-0.1,0.04 -0.22,0 -0.27,-0.1 -0.05,-0.11 -0.01,-0.23 0.1,-0.28l6.48 -3.03c0.1,-0.05 0.22,-0.01 0.27,0.09 0.05,0.11 0,0.23 -0.1,0.28l-6.48 3.04z"/>
   <path class="fil1" d="M13.77 22.13c-0.1,0.05 -0.22,0 -0.27,-0.1 -0.05,-0.11 0,-0.23 0.1,-0.28l17.99 -7.97c0.04,-0.02 0.08,-0.03 0.12,-0.02 0.45,0.09 0.89,0.18 2.65,0.41 1.02,0.13 2.47,0.31 3.91,0.47 1.05,0.12 2.09,0.22 2.92,0.28 0.98,0.08 1.67,0.09 2.21,0.07 0.55,-0.03 0.96,-0.09 1.37,-0.18 0.42,-0.09 0.84,-0.2 1.74,-0.52 0.9,-0.31 2.27,-0.83 4.59,-1.72 4.53,-1.75 12.86,-5.01 21.21,-8.28l0.21 -0.08c0.1,-0.04 0.22,0.01 0.26,0.12 0.04,0.1 -0.01,0.22 -0.11,0.26l-0.21 0.08c-8.29,3.25 -16.56,6.49 -21.22,8.28 -2.32,0.9 -3.7,1.41 -4.6,1.73 -0.91,0.32 -1.35,0.44 -1.78,0.53 -0.44,0.1 -0.86,0.16 -1.44,0.19 -0.57,0.03 -1.27,0.01 -2.26,-0.07 -0.84,-0.06 -1.88,-0.16 -2.94,-0.28 -1.42,-0.16 -2.88,-0.34 -3.91,-0.47 -1.7,-0.23 -2.19,-0.32 -2.61,-0.4l-17.93 7.95z"/>
   <path class="fil1" d="M31.69 21.92c0,0.11 -0.09,0.2 -0.21,0.2 -0.11,0 -0.2,-0.09 -0.2,-0.2l-0.02 -7.77c0,-0.11 0.09,-0.2 0.21,-0.2 0.11,0 0.2,0.09 0.2,0.2l0.02 7.77z"/>
   <path class="fil1" d="M24.98 9.93c0,0.12 -0.09,0.21 -0.21,0.21 -0.11,0 -0.2,-0.09 -0.2,-0.21l0 -0.89c0,-0.11 0.09,-0.21 0.2,-0.21 0.12,0 0.21,0.1 0.21,0.21l0 0.89z"/>
   <path class="fil1" d="M44.63 7.86c0.1,-0.05 0.22,0 0.27,0.1 0.04,0.1 0,0.23 -0.11,0.27l-8.43 3.71c-0.46,0.21 -0.79,0.36 -1.11,0.51 -0.36,0.17 -0.67,0.32 -0.97,0.47 0.62,0.08 1.24,0.15 1.86,0.22 0.51,0.06 1.08,0.12 1.68,0.17 0.62,0.06 1.3,0.11 2.03,0.16 0.74,0.04 1.52,0.08 2.28,0.08 0.76,0 1.5,-0.02 2.15,-0.1 0.65,-0.08 1.21,-0.21 2.17,-0.54 0.97,-0.33 2.34,-0.86 4.61,-1.74 3.96,-1.54 11.72,-4.57 19.64,-7.66l1.17 -0.45c0.1,-0.04 0.22,0.01 0.26,0.12 0.04,0.1 -0.01,0.22 -0.11,0.26l-1.17 0.46c-7.55,2.94 -14.95,5.83 -19.64,7.65 -2.28,0.89 -3.66,1.42 -4.63,1.75 -0.99,0.34 -1.57,0.48 -2.25,0.56 -0.66,0.08 -1.42,0.1 -2.2,0.1 -0.78,0 -1.57,-0.04 -2.3,-0.08 -0.73,-0.05 -1.42,-0.1 -2.05,-0.16 -0.63,-0.06 -1.19,-0.11 -1.69,-0.17l0 0c-0.52,-0.06 -0.96,-0.11 -1.36,-0.16l-1.16 -0.14c-0.07,-0.01 -0.13,-0.05 -0.16,-0.11 -0.05,-0.1 -0.01,-0.22 0.09,-0.28 0.48,-0.25 0.96,-0.49 1.58,-0.78 0.3,-0.14 0.64,-0.3 1.11,-0.51l1.86 -0.82 6.58 -2.89z"/>
   <path class="fil1" d="M13.54 19.69c-0.1,0.05 -0.22,0 -0.27,-0.1 -0.05,-0.11 0,-0.23 0.1,-0.28l26.97 -12.03c0.11,-0.05 0.23,0 0.28,0.1 0.04,0.11 0,0.23 -0.11,0.27l-26.97 12.04z"/>
   <path class="fil1" d="M7.31 22.54c0.21,-0.08 0.45,0.03 0.53,0.24 0.08,0.22 -0.03,0.45 -0.24,0.54 -1.25,0.47 -2.2,0.85 -2.96,1.16 -1.43,0.57 -2.2,0.88 -2.68,0.9 -0.9,0.05 -0.91,-0.44 -0.92,-1.52 0,-0.17 -0.01,-0.37 -0.02,-0.6 -0.04,-0.99 0,-2.98 0.45,-4.54 0.31,-1.08 0.83,-1.97 1.67,-2.25 0.25,-0.09 2.78,0.76 5.18,1.65 2.23,0.83 4.42,1.72 4.63,1.96 0.12,0.13 0.21,0.29 0.26,0.48 0.05,0.17 0.08,0.37 0.06,0.6 -0.01,0.3 -0.08,0.63 -0.17,1.06l-0.1 0.46c-0.07,0.33 -0.14,0.73 -0.21,1.14 -0.05,0.34 -0.1,0.69 -0.14,1.02 -0.04,0.36 -0.06,0.67 -0.07,0.97 -0.01,0.3 -0.01,0.59 0.01,0.87 0.01,0.28 0.04,0.57 0.08,0.82 0.03,0.24 0.07,0.46 0.11,0.61 0.03,0.1 0.06,0.15 0.08,0.18l0.01 0.01c0.03,0.02 0.08,0.05 0.15,0.09 0.13,0.07 0.29,0.16 0.44,0.22 0.11,0.05 0.22,0.1 0.31,0.12 0.08,0.02 0.14,0.03 0.24,0.01 0.15,-0.03 0.37,-0.1 0.73,-0.23 0.67,-0.23 1.76,-0.64 2.53,-0.92l1.14 -0.42c0.17,-0.06 0.26,-0.09 0.33,-0.1 0.13,-0.03 0.24,-0.02 0.35,0.02l0.04 0.02c0.12,0.06 0.19,0.15 0.24,0.28 0.03,0.06 0.05,0.14 0.06,0.22l1.4 -0.68 3.84 -1.9c1.27,-0.62 2.52,-1.24 3.77,-1.85 1.51,-0.74 2,-0.97 2.22,-1.08l0.14 -0.07c0.08,-0.03 0.13,-0.06 0.18,-0.09 0.03,-0.03 0.06,-0.04 0.07,-0.06l0.01 -0.06c0.01,-0.1 0.01,-0.25 0.01,-0.39l0 -0.01c0,-0.2 0.15,-0.37 0.34,-0.4 0.54,-0.13 1.08,-0.26 1.75,-0.37 0.67,-0.12 1.47,-0.22 2.52,-0.3 1.24,-0.09 2.88,-0.14 4.39,-0.19 0.93,-0.02 1.82,-0.05 2.55,-0.09 0.89,-0.04 1.5,-0.1 1.99,-0.18l0.04 0c0.45,-0.07 0.8,-0.16 1.21,-0.28 0.44,-0.12 0.94,-0.28 1.4,-0.43 0.4,-0.14 0.78,-0.27 1.07,-0.39 0.28,-0.12 0.45,-0.21 0.6,-0.33 0.16,-0.12 0.32,-0.29 0.55,-0.54l0.15 -0.17c0.5,-0.55 1.24,-1.35 1.85,-1.9 0.35,-0.31 0.65,-0.54 0.97,-0.74 0.32,-0.19 0.65,-0.36 1.07,-0.55 0.42,-0.19 0.91,-0.41 1.39,-0.61 0.52,-0.21 1.03,-0.42 1.45,-0.58 0.42,-0.16 0.76,-0.28 1.04,-0.37 0.28,-0.1 0.49,-0.16 0.65,-0.2l0.04 0c0.17,-0.05 0.29,-0.07 0.4,-0.07 0.24,0.01 0.38,0.1 0.49,0.29 0.06,0.11 0.09,0.24 0.11,0.38 0.01,0.11 0.02,0.24 0.02,0.39l0.01 0.13c0,0.2 0,0.41 0.04,0.58l0 0.02c0.01,0.06 0.03,0.11 0.05,0.15 0.02,0.03 0.04,0.05 0.05,0.06l0.02 0.01c0.03,0 0.06,-0.01 0.11,-0.02l0.02 0c0.1,-0.03 0.26,-0.1 0.85,-0.36l1.62 -0.71 2.72 -1.18c1.89,-0.81 4.01,-1.73 5.28,-2.29 1.01,-0.44 1.55,-0.69 1.84,-0.84 0.24,-0.12 0.27,-0.15 0.3,-0.18 0.02,-0.03 0.04,-0.06 0.06,-0.14l0 -0.02c0.03,-0.13 0.06,-0.33 0.07,-0.66 0.02,-0.38 0.03,-0.9 0.04,-1.42l0 -1.48c0,-0.79 0,-1.1 -0.04,-1.31 -0.02,-0.07 -0.04,-0.14 -0.08,-0.19 -0.06,-0.08 -0.15,-0.17 -0.28,-0.28 -0.17,-0.14 -0.39,-0.31 -0.68,-0.5 -0.26,-0.17 -0.59,-0.37 -0.98,-0.59 -0.36,-0.21 -0.78,-0.44 -1.19,-0.65 -0.51,-0.27 -1.01,-0.52 -1.36,-0.7 -0.32,-0.15 -0.52,-0.25 -0.66,-0.3 -0.12,-0.05 -0.2,-0.07 -0.26,-0.09l-0.03 0c-0.04,-0.01 -0.09,-0.01 -0.15,0 -0.09,0.01 -0.2,0.04 -0.36,0.09 -0.32,0.1 -0.82,0.29 -2.99,1.14l-1.14 0.44c-1.66,0.65 -3.96,1.55 -6.05,2.34 -2.22,0.86 -4.47,1.7 -6.1,2.28 -1.64,0.59 -2.64,0.9 -3.32,1.07 -0.71,0.18 -1.07,0.21 -1.41,0.24 -0.3,0.02 -0.6,0.04 -0.89,0.05 -0.27,0.01 -0.52,0.02 -0.75,0.01 -0.24,-0.01 -0.44,-0.03 -0.63,-0.06 -0.2,-0.03 -0.38,-0.07 -0.57,-0.12 -0.15,-0.05 -0.28,-0.1 -0.42,-0.15 -0.19,-0.06 -0.38,-0.13 -0.59,-0.18 -0.17,-0.04 -0.35,-0.08 -0.77,-0.1 -0.46,-0.03 -1.16,-0.05 -2.34,-0.06 -2.38,-0.03 -6.7,-0.03 -9.26,-0.02l-2.73 0c-0.57,0 -0.9,0.01 -1.16,0.02 -0.23,0.01 -0.4,0.02 -0.83,0.16 -0.48,0.14 -1.26,0.43 -2.7,0.97 -1.49,0.57 -3.6,1.38 -6.02,2.31l-8.01 3.11c-0.21,0.08 -0.45,-0.02 -0.53,-0.23 -0.08,-0.22 0.02,-0.45 0.23,-0.54l8.02 -3.1c2.48,-0.96 4.6,-1.78 6.02,-2.32 1.45,-0.55 2.24,-0.84 2.74,-0.99 0.54,-0.16 0.75,-0.18 1.05,-0.19 0.26,-0.01 0.59,-0.02 1.19,-0.02l2.73 -0.01c2.57,0 6.89,0 9.27,0.02 1.21,0.02 1.92,0.04 2.38,0.06 0.49,0.04 0.72,0.08 0.93,0.13 0.23,0.06 0.44,0.13 0.65,0.21 0.13,0.05 0.27,0.09 0.39,0.13 0.14,0.04 0.29,0.07 0.45,0.1 0.17,0.02 0.35,0.04 0.54,0.05 0.2,0 0.43,0 0.69,-0.01 0.24,-0.01 0.53,-0.03 0.86,-0.05 0.3,-0.03 0.63,-0.06 1.27,-0.22 0.66,-0.17 1.64,-0.47 3.24,-1.04 1.61,-0.57 3.85,-1.42 6.09,-2.28 2.38,-0.91 4.53,-1.74 6.04,-2.33l1.14 -0.45c2.19,-0.85 2.69,-1.04 3.04,-1.16 0.22,-0.07 0.38,-0.11 0.52,-0.12 0.14,-0.02 0.26,-0.01 0.37,0.01l0.04 0c0.12,0.02 0.24,0.06 0.42,0.13 0.17,0.07 0.39,0.17 0.72,0.33 0.36,0.18 0.86,0.44 1.38,0.71 0.42,0.22 0.84,0.45 1.22,0.66 0.39,0.23 0.73,0.44 1.02,0.63 0.32,0.21 0.57,0.39 0.75,0.54 0.2,0.17 0.34,0.31 0.43,0.45 0.11,0.16 0.17,0.31 0.21,0.49 0.07,0.29 0.07,0.62 0.07,1.48 0,0.33 0,0.77 -0.01,1.49 -0.01,0.54 -0.02,1.07 -0.03,1.45 -0.02,0.38 -0.05,0.64 -0.1,0.81l0 0.02c-0.06,0.23 -0.13,0.35 -0.22,0.46 -0.09,0.11 -0.18,0.21 -0.56,0.4 -0.32,0.17 -0.87,0.42 -1.89,0.87 -1.34,0.59 -3.42,1.49 -5.29,2.29l-2.72 1.17 -1.61 0.71c-0.63,0.28 -0.8,0.35 -0.96,0.4l-0.02 0c-0.15,0.04 -0.28,0.06 -0.41,0.05l-0.01 -0.01c-0.16,-0.01 -0.29,-0.07 -0.41,-0.15 -0.12,-0.09 -0.21,-0.2 -0.29,-0.33 -0.06,-0.11 -0.1,-0.23 -0.13,-0.37l-0.01 -0.04c-0.05,-0.22 -0.05,-0.49 -0.06,-0.73l-0.01 -0.34 -0.03 0.01c-0.15,0.04 -0.34,0.1 -0.6,0.18 -0.26,0.08 -0.59,0.2 -1,0.36 -0.42,0.16 -0.93,0.36 -1.42,0.57 -0.5,0.21 -0.98,0.42 -1.36,0.59 -0.4,0.18 -0.71,0.34 -0.99,0.51 -0.28,0.18 -0.54,0.38 -0.85,0.65 -0.56,0.51 -1.29,1.31 -1.8,1.85l-0.15 0.16c-0.26,0.29 -0.44,0.48 -0.65,0.64 -0.21,0.17 -0.44,0.29 -0.78,0.44 -0.29,0.12 -0.69,0.26 -1.13,0.41 -0.48,0.16 -0.99,0.32 -1.44,0.44 -0.43,0.13 -0.8,0.22 -1.31,0.3l-0.03 0.01c-0.51,0.08 -1.14,0.14 -2.09,0.18 -0.7,0.04 -1.6,0.07 -2.56,0.1 -1.48,0.04 -3.08,0.09 -4.36,0.18 -1.01,0.08 -1.78,0.18 -2.43,0.29 -0.53,0.09 -0.98,0.19 -1.41,0.29l-0.01 0.17c-0.01,0.1 -0.03,0.18 -0.06,0.27 -0.04,0.09 -0.09,0.17 -0.17,0.25 -0.06,0.07 -0.13,0.13 -0.22,0.19 -0.08,0.05 -0.16,0.09 -0.26,0.14l-0.16 0.08c-0.22,0.1 -0.7,0.33 -2.21,1.07l-7.6 3.74c-0.98,0.48 -1.51,0.74 -1.82,0.88 -0.33,0.16 -0.42,0.2 -0.51,0.23 -0.18,0.07 -0.38,0.01 -0.49,-0.14 -0.13,-0.19 -0.09,-0.45 0.1,-0.58 0.03,-0.02 0.07,-0.05 0.08,-0.06l-1 0.37c-0.79,0.29 -1.89,0.7 -2.55,0.93 -0.4,0.14 -0.65,0.22 -0.85,0.26 -0.25,0.04 -0.41,0.03 -0.61,-0.03 -0.13,-0.03 -0.28,-0.09 -0.43,-0.16 -0.19,-0.08 -0.36,-0.17 -0.5,-0.25 -0.14,-0.07 -0.24,-0.14 -0.35,-0.25l-0.03 -0.02c-0.1,-0.13 -0.18,-0.28 -0.25,-0.51 -0.05,-0.18 -0.1,-0.43 -0.14,-0.72 -0.04,-0.27 -0.07,-0.57 -0.09,-0.88 -0.01,-0.31 -0.02,-0.62 -0.01,-0.94 0.02,-0.33 0.04,-0.67 0.08,-1.04 0.04,-0.33 0.09,-0.7 0.15,-1.06 0.07,-0.41 0.14,-0.82 0.22,-1.18l0.09 -0.46c0.09,-0.4 0.15,-0.71 0.16,-0.93 0.01,-0.13 0,-0.24 -0.03,-0.33 -0.02,-0.07 -0.05,-0.12 -0.09,-0.16 -0.11,-0.14 -2.16,-0.94 -4.29,-1.74 -2.27,-0.84 -4.56,-1.67 -4.64,-1.64 -0.54,0.18 -0.9,0.86 -1.14,1.7 -0.42,1.45 -0.45,3.33 -0.41,4.27 0,0.23 0.01,0.44 0.01,0.63 0.01,0.49 0.01,0.71 0.06,0.71 0.34,-0.02 1.07,-0.31 2.42,-0.85 0.79,-0.31 1.78,-0.71 2.97,-1.17zm23.74 -0.66l0 0.01 0 -0.01z"/>
  </g>
 </g>
</svg>
