<?xml version="1.0" encoding="UTF-8"?>
<!DOCTYPE svg PUBLIC "-//W3C//DTD SVG 1.1//EN" "http://www.w3.org/Graphics/SVG/1.1/DTD/svg11.dtd">
<!-- Creator: CorelDRAW 2021.5 -->
<svg xmlns="http://www.w3.org/2000/svg" xml:space="preserve" width="500px" height="280px" version="1.1" style="shape-rendering:geometricPrecision; text-rendering:geometricPrecision; image-rendering:optimizeQuality; fill-rule:evenodd; clip-rule:evenodd"
viewBox="0 0 39.56 22.12"
 xmlns:xlink="http://www.w3.org/1999/xlink"
 xmlns:xodm="http://www.corel.com/coreldraw/odm/2003">
 <defs>
  <style type="text/css">
   <![CDATA[
    .fil2 {fill:dimgray}
    .fil0 {fill:#858585}
    .fil3 {fill:#999999}
    .fil5 {fill:#AFAFAF}
    .fil4 {fill:#BFBFBF}
    .fil1 {fill:#5F5F5F;fill-rule:nonzero}
   ]]>
  </style>
 </defs>
 <g id="Слой_x0020_1">
  <metadata id="CorelCorpID_0Corel-Layer"/>
  <g id="_2904213037824">
   <path class="fil0" d="M6.09 21.78c1.08,-0.58 2.17,-1.15 2.79,-1.48 0.62,-0.32 0.79,-0.39 0.9,-0.43 0.12,-0.03 0.18,-0.03 0.2,0.02 0.03,0.06 0.02,0.17 0,0.27 -0.02,0.11 -0.05,0.21 -0.1,0.26 -0.06,0.04 -0.13,0.04 -0.2,0.04 0.09,0.03 0.18,0.07 0.41,-0.02 0.23,-0.09 0.6,-0.31 0.79,-0.47 0.2,-0.17 0.21,-0.28 0.22,-0.38 0.01,-0.09 0.03,-0.17 0.06,-0.22 0.03,-0.05 0.08,-0.08 0.52,-0.33 0.44,-0.25 1.27,-0.72 1.82,-1.01 0.55,-0.29 0.81,-0.39 0.97,-0.43 0.15,-0.03 0.2,0.01 0.21,0.1 0.01,0.1 -0.02,0.25 -0.05,0.4 0.19,-0.12 0.39,-0.24 0.89,-0.49 0.49,-0.26 1.28,-0.66 1.72,-0.9 0.44,-0.23 0.53,-0.31 0.57,-0.4 0.05,-0.08 0.06,-0.18 0.08,-0.27 0.02,-0.09 0.06,-0.16 0.21,-0.27 0.16,-0.11 0.43,-0.26 2.27,-1.38 1.85,-1.13 5.28,-3.23 8.62,-5.1 3.34,-1.86 6.59,-3.48 8.27,-4.35 1.67,-0.86 1.76,-0.98 1.85,-1.13 0.08,-0.15 0.17,-0.34 0.21,-0.49 0.04,-0.15 0.02,-0.28 -0.28,-0.7 -0.31,-0.42 -0.91,-1.14 -1.3,-1.6 -0.4,-0.45 -0.61,-0.64 -0.78,-0.74 -0.17,-0.11 -0.31,-0.13 -1.89,0.58 -1.57,0.7 -4.58,2.12 -6.4,2.96 -1.82,0.84 -2.45,1.09 -2.95,1.29 -0.5,0.2 -0.88,0.36 -1.95,0.51 -1.08,0.15 -2.87,0.3 -4.22,0.47 -1.36,0.16 -2.29,0.36 -4.54,2.31 -2.25,1.96 -5.81,5.68 -9.38,9.4 -0.24,1.19 -0.47,2.39 -0.4,3.05 0.08,0.66 0.47,0.79 0.86,0.93z"/>
   <path class="fil1" d="M6.08 21.54l1.47 -0.79c0.49,-0.26 0.92,-0.48 1.23,-0.65 0.3,-0.15 0.5,-0.25 0.65,-0.32 0.14,-0.07 0.22,-0.1 0.29,-0.12 0.08,-0.03 0.15,-0.04 0.21,-0.04 0.12,0.01 0.2,0.07 0.25,0.17 0.03,0.06 0.05,0.14 0.05,0.21 0,0.04 -0.01,0.09 -0.02,0.14 0.06,-0.03 0.13,-0.07 0.19,-0.1 0.13,-0.08 0.25,-0.17 0.34,-0.24 0.12,-0.11 0.13,-0.17 0.14,-0.23l0 -0.01c0.01,-0.06 0.02,-0.11 0.03,-0.15l0 -0.01c0.02,-0.06 0.04,-0.1 0.06,-0.15 0.04,-0.05 0.07,-0.09 0.18,-0.16 0.08,-0.04 0.2,-0.11 0.42,-0.24l0.03 -0.02c0.45,-0.25 1.26,-0.72 1.8,-1 0.28,-0.15 0.49,-0.25 0.64,-0.32 0.17,-0.07 0.29,-0.11 0.38,-0.12l0.01 -0.01c0.13,-0.02 0.23,-0.01 0.3,0.03 0.11,0.06 0.16,0.15 0.17,0.27 0.13,-0.07 0.3,-0.16 0.51,-0.27l0.63 -0.32c0.39,-0.2 0.81,-0.42 1.1,-0.57 0.21,-0.12 0.33,-0.19 0.41,-0.24 0.04,-0.04 0.06,-0.06 0.07,-0.07 0.02,-0.04 0.03,-0.09 0.04,-0.14l0.02 -0.08c0.01,-0.07 0.04,-0.13 0.09,-0.21 0.04,-0.06 0.1,-0.12 0.2,-0.19 0.09,-0.07 0.21,-0.14 0.56,-0.35 0.32,-0.19 0.83,-0.5 1.73,-1.04l0.51 -0.32c1.93,-1.17 5.05,-3.07 8.11,-4.78 2.58,-1.44 5.11,-2.73 6.9,-3.65 0.46,-0.23 0.87,-0.44 1.37,-0.7 0.84,-0.44 1.27,-0.68 1.5,-0.83 0.2,-0.13 0.23,-0.18 0.26,-0.23 0.05,-0.07 0.09,-0.15 0.13,-0.23 0.02,-0.07 0.05,-0.14 0.06,-0.19 0.01,-0.04 0.01,-0.07 0,-0.12l-0.01 -0.01c-0.03,-0.08 -0.1,-0.2 -0.23,-0.39 -0.14,-0.19 -0.35,-0.45 -0.57,-0.72 -0.24,-0.3 -0.51,-0.62 -0.72,-0.86 -0.2,-0.23 -0.35,-0.38 -0.46,-0.49 -0.11,-0.1 -0.19,-0.17 -0.26,-0.21 -0.04,-0.02 -0.08,-0.04 -0.25,0.01 -0.24,0.07 -0.66,0.23 -1.44,0.58 -0.99,0.44 -2.52,1.16 -3.98,1.84 -0.92,0.43 -1.82,0.85 -2.42,1.12 -1.76,0.81 -2.41,1.08 -2.91,1.28l-0.07 0.03c-0.51,0.2 -0.89,0.36 -1.98,0.51 -0.58,0.08 -1.37,0.16 -2.19,0.24 -0.68,0.07 -1.39,0.15 -2.04,0.23 -0.66,0.08 -1.21,0.17 -1.87,0.47 -0.66,0.3 -1.44,0.83 -2.55,1.79 -1.12,0.98 -2.57,2.39 -4.18,4.03 -1.6,1.62 -3.36,3.47 -5.13,5.31 -0.11,0.56 -0.23,1.13 -0.3,1.65 -0.08,0.51 -0.12,0.95 -0.09,1.26 0.03,0.27 0.12,0.42 0.24,0.52 0.1,0.09 0.24,0.15 0.39,0.2zm1.68 -0.4l-1.55 0.83c-0.05,0.03 -0.12,0.04 -0.19,0.02 -0.21,-0.07 -0.43,-0.15 -0.62,-0.31 -0.2,-0.16 -0.34,-0.41 -0.39,-0.81 -0.04,-0.35 0,-0.83 0.08,-1.38 0.08,-0.51 0.2,-1.12 0.32,-1.72 0.01,-0.04 0.03,-0.09 0.06,-0.12 1.78,-1.86 3.57,-3.72 5.18,-5.37 1.63,-1.64 3.09,-3.07 4.21,-4.05 1.14,-0.99 1.95,-1.54 2.66,-1.86 0.71,-0.33 1.3,-0.42 2,-0.51 0.61,-0.07 1.34,-0.15 2.05,-0.22 0.81,-0.08 1.58,-0.16 2.16,-0.24 1.04,-0.15 1.41,-0.3 1.88,-0.49l0.08 -0.03c0.49,-0.19 1.13,-0.45 2.88,-1.26 0.77,-0.36 1.58,-0.73 2.42,-1.13 1.47,-0.68 3.01,-1.4 3.99,-1.84 0.8,-0.35 1.24,-0.53 1.5,-0.6 0.34,-0.09 0.46,-0.04 0.59,0.04 0.1,0.06 0.21,0.14 0.35,0.27 0.13,0.12 0.28,0.28 0.48,0.51 0.21,0.24 0.48,0.56 0.74,0.87 0.22,0.28 0.43,0.55 0.58,0.75 0.16,0.22 0.24,0.37 0.29,0.49l0.01 0.02c0.05,0.15 0.04,0.26 0.02,0.37 -0.03,0.09 -0.06,0.18 -0.1,0.27 -0.04,0.09 -0.09,0.19 -0.14,0.28 -0.06,0.1 -0.12,0.19 -0.4,0.37 -0.26,0.17 -0.7,0.42 -1.54,0.85 -0.26,0.14 -0.79,0.41 -1.38,0.71 -1.79,0.91 -4.31,2.2 -6.88,3.64 -3.04,1.69 -6.17,3.6 -8.09,4.77l-0.52 0.32c-0.87,0.53 -1.4,0.84 -1.73,1.04 -0.35,0.21 -0.46,0.28 -0.53,0.33 -0.05,0.04 -0.08,0.07 -0.1,0.09 -0.01,0.02 -0.02,0.04 -0.02,0.06l-0.02 0.06c-0.01,0.08 -0.03,0.17 -0.08,0.26 -0.04,0.07 -0.09,0.13 -0.2,0.22 -0.09,0.06 -0.23,0.14 -0.46,0.27 -0.27,0.14 -0.7,0.37 -1.11,0.57l-0.62 0.32c-0.49,0.26 -0.68,0.37 -0.86,0.48l-0.02 0.01c-0.05,0.03 -0.1,0.04 -0.16,0.02 -0.11,-0.02 -0.19,-0.13 -0.17,-0.25l0 -0.01c0.01,-0.08 0.03,-0.15 0.04,-0.21 -0.06,0.02 -0.13,0.04 -0.23,0.09 -0.15,0.06 -0.35,0.15 -0.61,0.3 -0.54,0.28 -1.35,0.74 -1.79,0.99l-0.03 0.02c-0.22,0.12 -0.34,0.19 -0.4,0.23 -0.04,0.02 -0.04,0.02 -0.04,0.02l-0.01 0.03c-0.01,0.03 -0.02,0.07 -0.02,0.1l0 0.01c-0.02,0.13 -0.04,0.29 -0.29,0.51 -0.1,0.09 -0.25,0.19 -0.4,0.28 -0.17,0.09 -0.33,0.18 -0.46,0.23 -0.31,0.12 -0.44,0.07 -0.56,0.02 -0.09,-0.04 -0.16,-0.12 -0.15,-0.22 0.01,-0.12 0.1,-0.22 0.22,-0.22l0.05 0 0 0c0.02,-0.03 0.03,-0.07 0.03,-0.11l0.01 -0.01c-0.04,0.02 -0.09,0.04 -0.15,0.07 -0.12,0.06 -0.32,0.15 -0.64,0.32 -0.31,0.16 -0.74,0.39 -1.22,0.64z"/>
   <path class="fil0" d="M15.1 8.74l0 -0.43c-0.12,0.01 -0.25,0.04 -0.37,0.09l-2.16 0.92c-0.07,0.03 -0.12,0.1 -0.12,0.17 -0.01,0.08 0.03,0.15 0.1,0.19l0.07 0.05 2.11 -0.9c0.12,-0.05 0.25,-0.08 0.37,-0.09z"/>
   <path class="fil2" d="M4.55 16.17c-0.43,-0.36 -1.09,-0.88 -1.6,-1.24 -0.51,-0.37 -0.87,-0.59 -1.12,-0.71 -0.24,-0.13 -0.38,-0.17 -0.5,-0.17 -0.12,-0.01 -0.23,0.01 -0.33,0.12 -0.1,0.11 -0.2,0.31 -0.28,0.66 -0.08,0.35 -0.15,0.85 -0.17,1.31 -0.01,0.46 0.03,0.87 0.12,1.18 0.09,0.31 0.23,0.51 0.34,0.65 0.11,0.13 0.19,0.19 0.26,0.21 0.07,0.01 0.13,-0.01 0.19,-0.03 0.01,-0.01 0.02,-0.01 0.02,-0.01 0.13,-0.06 0.31,-0.14 0.58,-0.27 0.63,-0.29 1.76,-0.83 2.89,-1.36 -0.11,-0.1 -0.24,-0.21 -0.4,-0.34z"/>
   <path class="fil3" d="M15.65 8.86l1.82 0.93 0.07 -0.02c0.07,-0.04 0.11,-0.1 0.11,-0.19 0,-0.08 -0.04,-0.15 -0.11,-0.18l-1.89 -0.97c-0.18,-0.09 -0.37,-0.13 -0.55,-0.12l0 0.43c0.18,-0.01 0.37,0.03 0.55,0.12z"/>
   <path class="fil2" d="M17.47 9.79l-1.82 -0.93c-0.18,-0.09 -0.37,-0.13 -0.55,-0.12 -0.12,0.01 -0.25,0.04 -0.37,0.09l-2.11 0.9 1.72 1.01c0.32,0.18 0.67,0.2 1.01,0.05l2.12 -1z"/>
   <path class="fil0" d="M1.48 18.14c0.13,-0.06 0.31,-0.14 0.58,-0.27 -0.27,0.13 -0.45,0.21 -0.58,0.27zm3.83 -1.25c0.1,0.16 0.1,0.28 0.09,0.43 -0.01,0.15 -0.02,0.31 -0.1,0.67 -0.07,0.35 -0.2,0.89 -0.26,1.4 -0.06,0.51 -0.05,0.99 0.01,1.37 0.05,0.38 0.15,0.66 0.24,0.83 0.1,0.17 0.19,0.25 0.28,0.28 0.1,0.04 0.2,0.04 0.29,0.02 0.08,-0.03 0.16,-0.07 0.23,-0.11 -0.03,0.01 -0.06,0.02 -0.1,0 -0.06,-0.02 -0.13,-0.08 -0.21,-0.19 -0.07,-0.11 -0.16,-0.27 -0.21,-0.51 -0.06,-0.25 -0.08,-0.57 -0.07,-1.03 0,-0.45 0.05,-1.03 0.13,-1.49 0.03,-0.2 0.07,-0.38 0.11,-0.54 0.04,-0.21 0.09,-0.39 0.12,-0.54 0.04,-0.19 0.05,-0.34 0.02,-0.49 -0.02,-0.06 -0.04,-0.12 -0.06,-0.18 -0.09,-0.2 -0.27,-0.42 -0.75,-0.82 -0.48,-0.4 -1.26,-0.99 -1.88,-1.43 -0.63,-0.44 -1.09,-0.72 -1.38,-0.86 -0.3,-0.14 -0.43,-0.14 -0.54,-0.11 -0.11,0.02 -0.2,0.06 -0.28,0.11 -0.07,0.06 -0.14,0.12 -0.2,0.18 -0.19,0.22 -0.34,0.52 -0.43,0.96 -0.11,0.48 -0.16,1.13 -0.12,1.67 0.04,0.53 0.17,0.96 0.29,1.23 0.12,0.28 0.24,0.4 0.35,0.46 0.11,0.07 0.21,0.07 0.32,0.04 0.06,-0.01 0.12,-0.03 0.26,-0.09 -0.06,0.02 -0.12,0.04 -0.19,0.03 -0.07,-0.02 -0.15,-0.08 -0.26,-0.21 -0.11,-0.14 -0.25,-0.34 -0.34,-0.65 -0.09,-0.31 -0.13,-0.72 -0.12,-1.18 0.02,-0.46 0.09,-0.96 0.17,-1.31 0.08,-0.35 0.18,-0.55 0.28,-0.66 0.1,-0.11 0.21,-0.13 0.33,-0.12 0.12,0 0.26,0.04 0.5,0.17 0.25,0.12 0.61,0.34 1.12,0.71 0.51,0.36 1.17,0.88 1.6,1.24 0.16,0.13 0.29,0.24 0.4,0.34 0.18,0.16 0.29,0.28 0.36,0.38z"/>
   <path class="fil3" d="M5.88 16.99c0.03,0.15 0.02,0.3 -0.02,0.49 -0.03,0.15 -0.08,0.33 -0.12,0.54 4.1,-2.02 8.2,-4.04 10.62,-5.23 2.42,-1.19 3.15,-1.55 4.01,-1.9 0.87,-0.36 1.87,-0.7 3.06,-0.95 1.19,-0.26 2.58,-0.43 3.55,-0.62 0.97,-0.19 1.52,-0.39 3.5,-1.39 1.99,-1.01 5.41,-2.81 8.84,-4.61 0.03,-0.12 0.02,-0.22 -0.13,-0.48 -3.42,1.77 -6.84,3.53 -8.98,4.53 -2.13,1 -2.97,1.23 -4.11,1.43 -1.13,0.19 -2.56,0.34 -3.72,0.58 -1.16,0.24 -2.06,0.57 -4.76,1.85 -2.71,1.28 -7.23,3.52 -11.74,5.76z"/>
   <path class="fil4" d="M5.88 16.99c4.51,-2.24 9.03,-4.48 11.74,-5.76 2.7,-1.28 3.6,-1.61 4.76,-1.85 1.16,-0.24 2.59,-0.39 3.72,-0.58 1.14,-0.2 1.98,-0.43 4.11,-1.43 2.14,-1 5.56,-2.76 8.98,-4.53 -0.04,-0.06 -0.09,-0.13 -0.15,-0.22 -0.31,-0.42 -0.91,-1.14 -1.3,-1.6 -0.4,-0.45 -0.61,-0.64 -0.78,-0.74 -0.17,-0.1 -0.31,-0.13 -1.89,0.58 -1.57,0.7 -4.58,2.12 -6.4,2.96 -1.82,0.84 -2.45,1.09 -2.95,1.29 -0.5,0.2 -0.88,0.36 -1.95,0.51 -1.08,0.15 -2.87,0.3 -4.22,0.47 -1.36,0.16 -2.29,0.36 -5.22,1.56 -2.92,1.21 -7.83,3.43 -10.42,4.61 -2.59,1.18 -2.85,1.33 -3.07,1.56 -0.02,0.02 -0.04,0.04 -0.05,0.06 0.06,-0.06 0.13,-0.12 0.2,-0.18 0.08,-0.05 0.17,-0.09 0.28,-0.11 0.11,-0.03 0.24,-0.03 0.54,0.11 0.29,0.14 0.75,0.42 1.38,0.86 0.62,0.44 1.4,1.03 1.88,1.43 0.48,0.4 0.66,0.62 0.75,0.82 0.02,0.06 0.04,0.12 0.06,0.18zm9.47 -6.2c-0.34,0.15 -0.69,0.13 -1.01,-0.05l-1.72 -1.01 -0.07 -0.05c-0.07,-0.04 -0.11,-0.11 -0.1,-0.19 0,-0.07 0.05,-0.14 0.12,-0.17l2.16 -0.92c0.12,-0.05 0.25,-0.08 0.37,-0.09 0.18,-0.01 0.37,0.03 0.55,0.12l1.89 0.97c0.07,0.03 0.11,0.1 0.11,0.18 0,0.09 -0.04,0.15 -0.11,0.19l-0.07 0.02 -2.12 1z"/>
   <path class="fil1" d="M6.2 21.97c-0.11,0.06 -0.24,0.02 -0.3,-0.09 -0.06,-0.11 -0.02,-0.24 0.09,-0.3l1.56 -0.83c0.49,-0.26 0.92,-0.48 1.23,-0.65 0.3,-0.15 0.5,-0.25 0.65,-0.32 0.14,-0.07 0.22,-0.1 0.29,-0.12 0.08,-0.03 0.15,-0.04 0.21,-0.04 0.12,0.01 0.2,0.07 0.25,0.17 0.03,0.06 0.05,0.14 0.05,0.21 0,0.04 -0.01,0.09 -0.02,0.14 0.06,-0.03 0.13,-0.07 0.19,-0.1 0.13,-0.08 0.25,-0.17 0.34,-0.24 0.12,-0.11 0.13,-0.17 0.14,-0.23l0 -0.01c0.01,-0.06 0.02,-0.11 0.03,-0.15l0 -0.01c0.02,-0.06 0.04,-0.1 0.06,-0.15 0.04,-0.05 0.07,-0.09 0.18,-0.16 0.08,-0.04 0.2,-0.11 0.42,-0.24l0.03 -0.02c0.45,-0.25 1.26,-0.72 1.8,-1 0.28,-0.15 0.49,-0.25 0.64,-0.32 0.17,-0.07 0.29,-0.11 0.38,-0.12l0.01 -0.01c0.13,-0.02 0.23,-0.01 0.3,0.03 0.11,0.06 0.16,0.15 0.17,0.27 0.13,-0.07 0.3,-0.16 0.51,-0.27l0.63 -0.32c0.39,-0.2 0.81,-0.42 1.1,-0.57 0.21,-0.12 0.33,-0.19 0.41,-0.24 0.04,-0.04 0.06,-0.06 0.07,-0.07 0.02,-0.04 0.03,-0.09 0.04,-0.14l0.02 -0.08c0.01,-0.07 0.04,-0.13 0.09,-0.21 0.04,-0.06 0.1,-0.12 0.2,-0.19 0.09,-0.07 0.21,-0.14 0.56,-0.35 0.32,-0.19 0.83,-0.5 1.73,-1.04l0.51 -0.32c1.93,-1.17 5.05,-3.07 8.11,-4.78 2.58,-1.44 5.11,-2.73 6.9,-3.65 0.46,-0.23 0.87,-0.44 1.37,-0.7 0.84,-0.44 1.27,-0.68 1.5,-0.83 0.2,-0.13 0.23,-0.18 0.26,-0.23 0.05,-0.07 0.09,-0.15 0.13,-0.23 0.02,-0.07 0.05,-0.14 0.06,-0.19 0.01,-0.04 0.01,-0.07 0,-0.12l-0.01 -0.01c-0.03,-0.08 -0.1,-0.2 -0.23,-0.39 -0.14,-0.19 -0.35,-0.45 -0.57,-0.72 -0.24,-0.3 -0.51,-0.62 -0.72,-0.86 -0.2,-0.23 -0.35,-0.38 -0.46,-0.49 -0.11,-0.1 -0.19,-0.17 -0.26,-0.21 -0.04,-0.02 -0.08,-0.04 -0.25,0.01 -0.24,0.07 -0.66,0.23 -1.44,0.58 -0.99,0.44 -2.52,1.16 -3.98,1.84 -0.92,0.43 -1.82,0.85 -2.42,1.12 -1.76,0.81 -2.41,1.08 -2.91,1.28l-0.07 0.03c-0.51,0.2 -0.89,0.36 -1.98,0.51 -0.58,0.08 -1.37,0.16 -2.19,0.24 -0.68,0.07 -1.39,0.15 -2.04,0.23 -0.66,0.08 -1.23,0.17 -1.98,0.38 -0.77,0.22 -1.72,0.57 -3.17,1.17 -1.19,0.49 -2.73,1.16 -4.31,1.86 -2.28,1.01 -4.6,2.06 -6.11,2.74 -1.28,0.59 -1.99,0.92 -2.41,1.14 -0.39,0.19 -0.5,0.27 -0.59,0.37 -0.09,0.1 -0.17,0.21 -0.24,0.36 -0.07,0.15 -0.14,0.34 -0.19,0.56 -0.05,0.23 -0.09,0.5 -0.11,0.79 -0.02,0.27 -0.02,0.56 0,0.81 0.02,0.23 0.05,0.43 0.09,0.62 0.06,0.22 0.12,0.4 0.18,0.54 0.06,0.12 0.11,0.2 0.15,0.26l0.01 0.01c0.04,0.05 0.07,0.07 0.1,0.09 0.02,0.01 0.05,0.02 0.07,0.02 0.03,0.01 0.06,0 0.09,0 0.05,-0.01 0.1,-0.03 0.2,-0.08 0.12,-0.05 0.31,-0.14 0.62,-0.28l2.89 -1.36c0.11,-0.05 0.24,-0.01 0.29,0.1 0.05,0.12 0.01,0.25 -0.1,0.3l-2.89 1.36c-0.32,0.15 -0.5,0.24 -0.63,0.29 -0.14,0.06 -0.21,0.08 -0.28,0.1 -0.08,0.02 -0.15,0.03 -0.23,0.02 -0.09,-0.01 -0.17,-0.04 -0.25,-0.08 -0.08,-0.05 -0.15,-0.11 -0.22,-0.2l-0.02 -0.01c-0.06,-0.08 -0.13,-0.2 -0.2,-0.36 -0.08,-0.16 -0.15,-0.37 -0.21,-0.62 -0.05,-0.2 -0.09,-0.43 -0.11,-0.69 -0.02,-0.27 -0.01,-0.58 0.01,-0.87 0.02,-0.31 0.06,-0.6 0.12,-0.86 0.06,-0.26 0.13,-0.48 0.22,-0.66 0.09,-0.18 0.2,-0.34 0.32,-0.47 0.12,-0.13 0.26,-0.23 0.7,-0.46 0.42,-0.21 1.13,-0.54 2.44,-1.14 1.54,-0.71 3.88,-1.77 6.11,-2.75 1.57,-0.7 3.1,-1.36 4.32,-1.86 1.47,-0.61 2.44,-0.96 3.22,-1.19 0.78,-0.22 1.36,-0.31 2.05,-0.4 0.61,-0.07 1.34,-0.15 2.05,-0.22 0.81,-0.08 1.58,-0.16 2.16,-0.24 1.04,-0.15 1.41,-0.3 1.88,-0.49l0.08 -0.03c0.49,-0.19 1.13,-0.45 2.88,-1.26 0.77,-0.36 1.58,-0.73 2.42,-1.13 1.47,-0.68 3.01,-1.4 3.99,-1.84 0.8,-0.35 1.24,-0.53 1.5,-0.6 0.34,-0.09 0.46,-0.04 0.59,0.04 0.1,0.06 0.21,0.14 0.35,0.27 0.13,0.12 0.28,0.28 0.48,0.51 0.21,0.24 0.48,0.56 0.74,0.87 0.22,0.28 0.43,0.55 0.58,0.75 0.16,0.22 0.24,0.37 0.29,0.49l0.01 0.02c0.05,0.15 0.04,0.26 0.02,0.37 -0.03,0.09 -0.06,0.18 -0.1,0.27 -0.04,0.09 -0.09,0.19 -0.14,0.28 -0.06,0.1 -0.12,0.19 -0.4,0.37 -0.26,0.17 -0.7,0.42 -1.54,0.85 -0.26,0.14 -0.79,0.41 -1.38,0.71 -1.79,0.91 -4.31,2.2 -6.88,3.64 -3.04,1.69 -6.17,3.6 -8.09,4.77l-0.52 0.32c-0.87,0.53 -1.4,0.84 -1.73,1.04 -0.35,0.21 -0.46,0.28 -0.53,0.33 -0.05,0.04 -0.08,0.07 -0.1,0.09 -0.01,0.02 -0.02,0.04 -0.02,0.06l-0.02 0.06c-0.01,0.08 -0.03,0.17 -0.08,0.26 -0.04,0.07 -0.09,0.13 -0.2,0.22 -0.09,0.06 -0.23,0.14 -0.46,0.27 -0.27,0.14 -0.7,0.37 -1.11,0.57l-0.62 0.32c-0.49,0.26 -0.68,0.37 -0.86,0.48l-0.02 0.01c-0.05,0.03 -0.1,0.04 -0.16,0.02 -0.11,-0.02 -0.19,-0.13 -0.17,-0.25l0 -0.01c0.01,-0.08 0.03,-0.15 0.04,-0.21 -0.06,0.02 -0.13,0.04 -0.23,0.09 -0.15,0.06 -0.35,0.15 -0.61,0.3 -0.54,0.28 -1.35,0.74 -1.79,0.99l-0.03 0.02c-0.22,0.12 -0.34,0.19 -0.4,0.23 -0.04,0.02 -0.04,0.02 -0.04,0.02l-0.01 0.03c-0.01,0.03 -0.02,0.07 -0.02,0.1l0 0.01c-0.02,0.13 -0.04,0.29 -0.29,0.51 -0.1,0.09 -0.25,0.19 -0.4,0.28 -0.17,0.09 -0.33,0.18 -0.46,0.23 -0.31,0.12 -0.44,0.07 -0.56,0.02 -0.09,-0.04 -0.16,-0.12 -0.15,-0.22 0.01,-0.12 0.1,-0.22 0.22,-0.22l0.05 0 0 0c0.02,-0.03 0.03,-0.07 0.03,-0.11l0.01 -0.01c-0.04,0.02 -0.09,0.04 -0.15,0.07 -0.12,0.06 -0.32,0.15 -0.64,0.32 -0.31,0.16 -0.74,0.39 -1.22,0.64l-1.56 0.83z"/>
   <path class="fil1" d="M9.78 20.25c0.11,0.06 0.16,0.19 0.1,0.3 -0.05,0.11 -0.18,0.16 -0.29,0.11l-0.58 -0.27c-0.11,-0.05 -0.16,-0.19 -0.11,-0.3 0.05,-0.11 0.19,-0.16 0.3,-0.11l0.58 0.27z"/>
   <path class="fil1" d="M14.69 17.88c0.12,0.04 0.19,0.16 0.15,0.28 -0.04,0.12 -0.16,0.19 -0.28,0.15l-0.78 -0.25c-0.11,-0.03 -0.18,-0.16 -0.14,-0.28 0.03,-0.11 0.16,-0.18 0.28,-0.14l0.77 0.24z"/>
   <path class="fil1" d="M5.98 21.58c0.11,-0.06 0.25,-0.02 0.31,0.09 0.06,0.11 0.02,0.24 -0.09,0.3 -0.03,0.02 -0.07,0.05 -0.12,0.07 -0.06,0.03 -0.11,0.05 -0.17,0.06 -0.06,0.02 -0.13,0.03 -0.21,0.02 -0.07,0 -0.14,-0.01 -0.2,-0.04 -0.08,-0.03 -0.15,-0.07 -0.22,-0.13 -0.06,-0.06 -0.13,-0.15 -0.18,-0.25 -0.06,-0.11 -0.12,-0.25 -0.17,-0.42 -0.04,-0.14 -0.08,-0.3 -0.1,-0.49 -0.03,-0.2 -0.05,-0.44 -0.05,-0.7 0,-0.23 0.01,-0.48 0.04,-0.73 0.05,-0.42 0.14,-0.84 0.21,-1.18l0.06 -0.25c0.03,-0.16 0.05,-0.29 0.06,-0.38 0.02,-0.1 0.02,-0.17 0.03,-0.24 0,-0.06 0,-0.12 0,-0.16 -0.01,-0.04 -0.03,-0.09 -0.06,-0.14 -0.04,-0.07 -0.11,-0.14 -0.22,-0.24 -0.12,-0.12 -0.28,-0.25 -0.49,-0.43 -0.23,-0.19 -0.53,-0.42 -0.84,-0.66 -0.27,-0.21 -0.53,-0.41 -0.75,-0.57 -0.24,-0.17 -0.44,-0.31 -0.6,-0.41 -0.2,-0.13 -0.36,-0.22 -0.49,-0.29 -0.11,-0.05 -0.2,-0.09 -0.26,-0.11l-0.01 0c-0.06,-0.02 -0.1,-0.03 -0.14,-0.03 -0.04,0 -0.07,0 -0.1,0.01 -0.02,0 -0.04,0.02 -0.06,0.04 -0.03,0.04 -0.07,0.09 -0.1,0.18 -0.05,0.09 -0.09,0.21 -0.12,0.38 -0.05,0.18 -0.08,0.39 -0.11,0.62 -0.03,0.21 -0.05,0.43 -0.06,0.65 0,0.21 0.01,0.42 0.03,0.61 0.01,0.19 0.05,0.36 0.09,0.5 0.04,0.13 0.09,0.25 0.14,0.34 0.05,0.1 0.1,0.17 0.15,0.23 0.04,0.05 0.08,0.09 0.11,0.11 0.02,0.01 0.02,0.02 0.03,0.02 0.01,0 0.04,-0.01 0.08,-0.03 0.12,-0.04 0.25,0.01 0.29,0.12 0.05,0.12 -0.01,0.25 -0.12,0.29 -0.1,0.05 -0.2,0.09 -0.35,0.06 -0.07,-0.02 -0.13,-0.05 -0.21,-0.11 -0.05,-0.04 -0.11,-0.1 -0.17,-0.18 -0.07,-0.08 -0.14,-0.17 -0.2,-0.29 -0.07,-0.12 -0.13,-0.26 -0.18,-0.44 -0.05,-0.17 -0.09,-0.36 -0.11,-0.58 -0.02,-0.2 -0.03,-0.43 -0.02,-0.67 0.01,-0.22 0.03,-0.46 0.05,-0.69 0.04,-0.25 0.08,-0.48 0.12,-0.66 0.05,-0.19 0.09,-0.34 0.15,-0.46 0.05,-0.13 0.12,-0.23 0.18,-0.3 0.08,-0.09 0.17,-0.14 0.26,-0.17 0.08,-0.03 0.17,-0.03 0.25,-0.03 0.08,0.01 0.16,0.02 0.25,0.05l0.01 0c0.1,0.03 0.2,0.08 0.34,0.15 0.13,0.07 0.31,0.17 0.52,0.3 0.18,0.12 0.39,0.26 0.62,0.42 0.25,0.19 0.51,0.39 0.77,0.59 0.3,0.23 0.61,0.47 0.84,0.67 0.23,0.18 0.39,0.33 0.52,0.44 0.13,0.13 0.22,0.23 0.28,0.33 0.07,0.1 0.11,0.2 0.13,0.3 0.01,0.1 0.01,0.18 0,0.26 0,0.08 -0.01,0.16 -0.02,0.28 -0.02,0.1 -0.04,0.23 -0.08,0.41l-0.05 0.25c-0.07,0.33 -0.16,0.75 -0.21,1.14 -0.03,0.24 -0.04,0.47 -0.04,0.68 0.01,0.23 0.02,0.45 0.05,0.64 0.02,0.16 0.05,0.31 0.09,0.43 0.04,0.13 0.08,0.24 0.13,0.32 0.03,0.07 0.07,0.11 0.1,0.14 0.02,0.02 0.04,0.04 0.06,0.05 0.02,0 0.05,0.01 0.07,0.01 0.03,0 0.05,0 0.08,-0.01 0.03,-0.01 0.06,-0.02 0.08,-0.03 0.03,-0.01 0.07,-0.04 0.1,-0.06z"/>
   <path class="fil1" d="M0.86 13.96c-0.04,0.04 -0.11,0.04 -0.15,0 -0.05,-0.04 -0.05,-0.12 0,-0.16 0.03,-0.03 0.07,-0.07 0.1,-0.1l0.01 0c0.03,-0.03 0.07,-0.06 0.11,-0.09 0.05,-0.03 0.09,-0.06 0.15,-0.08l0 0c0.05,-0.02 0.11,-0.04 0.17,-0.05 0.06,-0.02 0.14,-0.03 0.24,-0.01 0.09,0.02 0.21,0.05 0.36,0.13 0.16,0.07 0.36,0.18 0.6,0.33l0 0.01c0.24,0.14 0.5,0.32 0.8,0.53 0.32,0.23 0.69,0.49 1.03,0.75l0 0.01c0.33,0.24 0.63,0.48 0.86,0.68 0.25,0.2 0.42,0.36 0.54,0.49 0.12,0.14 0.19,0.26 0.24,0.37 0.05,0.11 0.08,0.23 0.08,0.35 0.01,0.12 0,0.24 -0.03,0.38l0 0.01c-0.02,0.1 -0.05,0.21 -0.08,0.34 -0.05,0.2 -0.11,0.44 -0.15,0.72 -0.04,0.22 -0.07,0.47 -0.09,0.72 -0.02,0.27 -0.04,0.54 -0.04,0.77 -0.01,0.22 0,0.41 0.01,0.58 0.01,0.16 0.03,0.3 0.06,0.41 0.02,0.12 0.06,0.21 0.09,0.29l0 0c0.03,0.08 0.07,0.14 0.1,0.19 0.04,0.04 0.07,0.08 0.1,0.11 0.02,0.02 0.04,0.03 0.06,0.04l0.01 0c0.01,0 0.02,-0.01 0.03,-0.02 0.06,-0.03 0.13,-0.01 0.16,0.05 0.02,0.05 0,0.12 -0.05,0.15 -0.03,0.01 -0.05,0.03 -0.09,0.04 -0.04,0.01 -0.09,0.01 -0.14,-0.01 -0.04,-0.02 -0.09,-0.05 -0.14,-0.09 -0.04,-0.04 -0.08,-0.09 -0.12,-0.14 -0.04,-0.06 -0.08,-0.14 -0.12,-0.23l0 0c-0.04,-0.09 -0.08,-0.2 -0.11,-0.33 -0.03,-0.13 -0.05,-0.27 -0.06,-0.45 -0.02,-0.17 -0.02,-0.37 -0.02,-0.6 0.01,-0.24 0.02,-0.51 0.05,-0.78 0.02,-0.25 0.05,-0.5 0.09,-0.73 0.04,-0.29 0.1,-0.53 0.15,-0.74 0.03,-0.13 0.06,-0.24 0.08,-0.34l0 0c0.02,-0.13 0.04,-0.23 0.03,-0.33 0,-0.1 -0.02,-0.18 -0.06,-0.27 -0.04,-0.09 -0.1,-0.19 -0.21,-0.31 -0.11,-0.12 -0.27,-0.28 -0.51,-0.47 -0.23,-0.2 -0.53,-0.44 -0.85,-0.68l-0.01 0c-0.34,-0.26 -0.7,-0.52 -1.02,-0.75 -0.3,-0.21 -0.56,-0.39 -0.78,-0.52l-0.01 -0.01c-0.24,-0.15 -0.43,-0.25 -0.57,-0.32 -0.14,-0.07 -0.24,-0.1 -0.31,-0.11 -0.06,-0.01 -0.11,0 -0.15,0 -0.05,0.01 -0.09,0.03 -0.13,0.04l0 0.01c-0.05,0.01 -0.08,0.03 -0.11,0.06 -0.04,0.02 -0.07,0.04 -0.1,0.07l0 0c-0.04,0.03 -0.07,0.06 -0.1,0.09z"/>
   <path class="fil1" d="M5.92 17.09c-0.05,0.03 -0.12,0 -0.14,-0.05 -0.03,-0.06 -0.01,-0.12 0.05,-0.15l0.01 -0.01c4.51,-2.23 9.02,-4.47 11.73,-5.75 1.35,-0.64 2.26,-1.05 2.97,-1.32l0 0c0.72,-0.28 1.23,-0.42 1.82,-0.54 0.71,-0.15 1.51,-0.26 2.28,-0.37 0.5,-0.07 1,-0.14 1.44,-0.21 0.57,-0.1 1.06,-0.21 1.67,-0.41 0.61,-0.21 1.36,-0.51 2.42,-1.01 2.12,-1 5.54,-2.76 8.96,-4.52l0.01 -0.01c0.05,-0.02 0.12,0 0.15,0.05 0.02,0.06 0,0.12 -0.05,0.15l-0.01 0.01c-3.41,1.76 -6.83,3.52 -8.97,4.52 -1.07,0.5 -1.82,0.81 -2.44,1.02 -0.63,0.21 -1.13,0.32 -1.7,0.42 -0.45,0.07 -0.95,0.14 -1.45,0.21 -0.77,0.11 -1.57,0.22 -2.27,0.37 -0.57,0.12 -1.08,0.26 -1.78,0.52l0 0.01c-0.71,0.27 -1.6,0.67 -2.96,1.31 -2.7,1.28 -7.21,3.52 -11.72,5.75l-0.02 0.01z"/>
   <path class="fil1" d="M39.27 3.22c0.05,-0.03 0.12,-0.01 0.15,0.05 0.03,0.05 0,0.12 -0.05,0.15l-0.06 0.03c-3.41,1.79 -6.8,3.58 -8.78,4.58 -0.99,0.5 -1.63,0.8 -2.14,1 -0.51,0.21 -0.9,0.3 -1.39,0.4 -0.4,0.08 -0.88,0.15 -1.39,0.23 -0.7,0.12 -1.46,0.24 -2.16,0.39 -0.59,0.12 -1.14,0.27 -1.64,0.43 -0.5,0.16 -0.96,0.33 -1.39,0.51 -0.85,0.34 -1.58,0.7 -3.9,1.85 -3.58,1.76 -7.16,3.52 -10.74,5.28 -0.05,0.02 -0.12,0 -0.14,-0.05 -0.03,-0.06 -0.01,-0.13 0.05,-0.15 3.57,-1.76 7.15,-3.52 10.73,-5.28 2.33,-1.15 3.06,-1.51 3.91,-1.86 0.43,-0.17 0.9,-0.35 1.41,-0.51 0.52,-0.16 1.07,-0.31 1.67,-0.44 0.69,-0.15 1.46,-0.27 2.17,-0.39 0.5,-0.07 0.97,-0.15 1.38,-0.23 0.48,-0.09 0.85,-0.19 1.35,-0.39 0.5,-0.19 1.14,-0.49 2.12,-0.99 1.98,-1 5.37,-2.78 8.77,-4.57l0.07 -0.04z"/>
   <path class="fil1" d="M14.77 8.5l-2.16 0.92c-0.01,0.01 -0.03,0.02 -0.04,0.03 0,0.02 -0.01,0.03 -0.01,0.05 0,0.02 0,0.04 0.01,0.05l0 0c0.01,0.02 0.02,0.03 0.03,0.04l1.8 1.05c0.14,0.09 0.29,0.13 0.44,0.14 0.15,0.01 0.31,-0.03 0.46,-0.1l2.19 -1.02c0.02,0 0.03,-0.02 0.04,-0.03 0.01,-0.01 0.01,-0.03 0.01,-0.05 0,-0.02 0,-0.03 -0.01,-0.05 -0.01,-0.01 -0.02,-0.02 -0.04,-0.03l-1.89 -0.97c-0.14,-0.07 -0.28,-0.11 -0.41,-0.11 -0.14,-0.01 -0.28,0.02 -0.42,0.08zm-2.24 0.72l2.15 -0.92c0.17,-0.08 0.34,-0.11 0.51,-0.1 0.17,0 0.34,0.05 0.51,0.13l1.89 0.97c0.06,0.03 0.1,0.07 0.13,0.12 0.03,0.05 0.05,0.11 0.04,0.17 0,0.06 -0.01,0.12 -0.05,0.16 -0.03,0.05 -0.07,0.09 -0.12,0.11l-2.2 1.03c-0.18,0.08 -0.37,0.12 -0.56,0.11 -0.19,-0.01 -0.37,-0.06 -0.55,-0.17l-1.79 -1.05c-0.05,-0.03 -0.09,-0.07 -0.12,-0.12l0 0c-0.03,-0.05 -0.04,-0.11 -0.03,-0.17 0,-0.06 0.02,-0.12 0.05,-0.17 0.04,-0.04 0.08,-0.08 0.14,-0.1z"/>
   <path class="fil1" d="M17.53 9.7c0.05,0.02 0.07,0.09 0.04,0.15 -0.02,0.05 -0.09,0.07 -0.15,0.04l-1.82 -0.93c-0.14,-0.07 -0.28,-0.11 -0.41,-0.11 -0.14,0 -0.28,0.02 -0.42,0.08l-2.1 0.9c-0.06,0.02 -0.13,0 -0.15,-0.06 -0.02,-0.06 0,-0.12 0.06,-0.14l2.1 -0.9c0.17,-0.08 0.34,-0.11 0.51,-0.1 0.17,0 0.34,0.05 0.51,0.13l1.83 0.94z"/>
   <path class="fil1" d="M15.21 8.74c0,0.06 -0.05,0.11 -0.11,0.11 -0.06,0 -0.11,-0.05 -0.11,-0.11l0 -0.43c0,-0.06 0.05,-0.11 0.11,-0.11 0.06,0 0.11,0.05 0.11,0.11l0 0.43z"/>
   <path class="fil2" d="M9.98 19.89c-0.02,-0.05 -0.08,-0.05 -0.2,-0.02 -0.1,0.03 -0.23,0.09 -0.68,0.32 0.2,0.09 0.39,0.18 0.58,0.27 0.07,0 0.14,0 0.2,-0.04 0.05,-0.05 0.08,-0.15 0.1,-0.26 0.02,-0.1 0.03,-0.21 0,-0.27z"/>
   <path class="fil1" d="M9.94 19.91c-0.01,-0.01 -0.01,-0.01 -0.03,-0.01 -0.02,0 -0.06,0 -0.11,0.02 -0.05,0.01 -0.11,0.04 -0.21,0.08 -0.08,0.04 -0.2,0.1 -0.37,0.18l0.47 0.23c0.06,0 0.12,0 0.15,-0.03 0.02,-0.02 0.04,-0.05 0.05,-0.08 0.02,-0.04 0.03,-0.09 0.04,-0.14 0.01,-0.06 0.02,-0.11 0.02,-0.16 0,-0.04 0,-0.07 -0.01,-0.09zm-0.02 -0.11c0.05,0 0.09,0.02 0.11,0.07 0.02,0.03 0.02,0.08 0.02,0.13 0,0.05 -0.01,0.12 -0.02,0.17 -0.01,0.06 -0.02,0.12 -0.05,0.17 -0.01,0.05 -0.04,0.09 -0.07,0.11 -0.07,0.06 -0.15,0.06 -0.23,0.06l-0.02 -0.01 -0.58 -0.27c-0.01,0 -0.02,-0.01 -0.02,-0.02 -0.01,-0.03 0,-0.06 0.02,-0.07 0.22,-0.11 0.37,-0.18 0.47,-0.23 0.11,-0.05 0.17,-0.07 0.22,-0.09 0.06,-0.02 0.11,-0.03 0.15,-0.02z"/>
   <path class="fil2" d="M13.85 17.85c0.26,0.08 0.52,0.16 0.78,0.25 0.03,-0.15 0.06,-0.3 0.05,-0.4 -0.01,-0.09 -0.06,-0.13 -0.21,-0.1 -0.12,0.03 -0.3,0.09 -0.62,0.25z"/>
   <path class="fil1" d="M13.99 17.84l0.6 0.19c0.03,-0.13 0.05,-0.25 0.04,-0.32 0,-0.03 -0.01,-0.05 -0.02,-0.06 -0.02,-0.01 -0.07,-0.01 -0.13,0 -0.06,0.01 -0.13,0.04 -0.23,0.07 -0.07,0.03 -0.16,0.07 -0.26,0.12zm0.62 0.3l-0.78 -0.24c-0.01,-0.01 -0.02,-0.01 -0.03,-0.03 -0.01,-0.02 0,-0.05 0.03,-0.06 0.16,-0.08 0.29,-0.14 0.39,-0.18 0.1,-0.04 0.18,-0.06 0.24,-0.07 0.09,-0.02 0.15,-0.02 0.19,0 0.05,0.03 0.08,0.08 0.08,0.14 0.01,0.1 -0.02,0.25 -0.05,0.4l-0.01 0.01c0,0.03 -0.03,0.04 -0.06,0.03z"/>
   <path class="fil1" d="M20 10.27c-0.06,0.03 -0.12,0 -0.15,-0.05 -0.03,-0.06 -0.01,-0.12 0.05,-0.15 1.9,-0.93 3.79,-1.87 4.99,-2.75 0.6,-0.45 1.03,-0.89 1.46,-1.33 0.42,-0.43 0.84,-0.87 1.44,-1.32 1.21,-0.92 3.11,-1.91 5.02,-2.9l0.01 -0.01c0.06,-0.02 0.12,0 0.14,0.06 0.03,0.05 0.01,0.11 -0.04,0.14l-0.01 0.01c-1.89,0.98 -3.79,1.97 -4.99,2.88 -0.58,0.44 -1,0.87 -1.41,1.3 -0.44,0.44 -0.87,0.89 -1.49,1.35 -1.21,0.89 -3.11,1.83 -5.02,2.77z"/>
   <path class="fil5" d="M24.95 7.41c-1.2,0.89 -3.1,1.82 -5,2.76 1.06,-0.45 1.69,-0.64 2.43,-0.79 1.16,-0.24 2.59,-0.39 3.72,-0.58 1.14,-0.2 1.98,-0.43 4.11,-1.43 2.14,-1 5.56,-2.76 8.98,-4.53 -0.04,-0.06 -0.09,-0.13 -0.15,-0.22 -0.31,-0.42 -0.91,-1.14 -1.3,-1.6 -0.4,-0.45 -0.61,-0.64 -0.78,-0.74 -0.17,-0.1 -0.31,-0.13 -1.89,0.58 -0.58,0.26 -1.36,0.62 -2.2,1.01 -1.91,0.99 -3.81,1.97 -5.01,2.89 -1.2,0.92 -1.7,1.76 -2.91,2.65z"/>
   <path class="fil1" d="M25.02 7.5c-0.85,0.62 -2.04,1.27 -3.33,1.93 0.22,-0.06 0.44,-0.11 0.67,-0.16 0.71,-0.15 1.51,-0.26 2.28,-0.37 0.5,-0.07 1,-0.14 1.44,-0.21 0.57,-0.1 1.06,-0.21 1.67,-0.41 0.61,-0.21 1.36,-0.51 2.42,-1.01 2.1,-0.99 5.47,-2.72 8.86,-4.47l-0.08 -0.11c-0.15,-0.2 -0.35,-0.46 -0.57,-0.74 -0.25,-0.3 -0.51,-0.61 -0.73,-0.86 -0.2,-0.22 -0.35,-0.38 -0.46,-0.49 -0.12,-0.11 -0.21,-0.18 -0.29,-0.23 -0.06,-0.03 -0.12,-0.06 -0.33,0 -0.25,0.07 -0.67,0.24 -1.45,0.59 -0.29,0.13 -0.63,0.28 -1.01,0.45l-1.2 0.56c-1.89,0.98 -3.79,1.97 -4.99,2.88 -0.58,0.44 -1,0.87 -1.41,1.3 -0.44,0.44 -0.87,0.89 -1.49,1.35zm-5.12 2.57c1.9,-0.93 3.79,-1.87 4.99,-2.75 0.6,-0.45 1.03,-0.89 1.46,-1.33 0.42,-0.43 0.84,-0.87 1.44,-1.32 1.21,-0.92 3.11,-1.91 5.02,-2.9l1.21 -0.56c0.37,-0.17 0.71,-0.32 1.01,-0.45 0.79,-0.36 1.22,-0.53 1.48,-0.6 0.3,-0.08 0.4,-0.04 0.51,0.02 0.09,0.06 0.19,0.14 0.32,0.26 0.13,0.12 0.28,0.28 0.48,0.51 0.21,0.24 0.48,0.55 0.73,0.86 0.22,0.28 0.43,0.54 0.58,0.75l0.08 0.12 0.08 0.11c0.02,0.06 0,0.12 -0.05,0.15l-0.01 0.01c-3.41,1.76 -6.83,3.52 -8.97,4.52 -1.07,0.5 -1.82,0.81 -2.44,1.02 -0.63,0.21 -1.13,0.32 -1.7,0.42 -0.45,0.07 -0.95,0.14 -1.45,0.21 -0.77,0.11 -1.57,0.22 -2.27,0.37 -0.36,0.07 -0.7,0.16 -1.08,0.28 -0.38,0.12 -0.8,0.28 -1.33,0.5 -0.05,0.02 -0.12,0 -0.14,-0.05 -0.03,-0.06 -0.01,-0.12 0.05,-0.15z"/>
  </g>
 </g>
</svg>
