<?xml version="1.0" encoding="UTF-8"?>
<!DOCTYPE svg PUBLIC "-//W3C//DTD SVG 1.1//EN" "http://www.w3.org/Graphics/SVG/1.1/DTD/svg11.dtd">
<!-- Creator: CorelDRAW 2021.5 -->
<svg xmlns="http://www.w3.org/2000/svg" xml:space="preserve" width="500px" height="310px" version="1.1" style="shape-rendering:geometricPrecision; text-rendering:geometricPrecision; image-rendering:optimizeQuality; fill-rule:evenodd; clip-rule:evenodd"
viewBox="0 0 54.91 34.05"
 xmlns:xlink="http://www.w3.org/1999/xlink"
 xmlns:xodm="http://www.corel.com/coreldraw/odm/2003">
 <defs>
  <style type="text/css">
   <![CDATA[
    .fil2 {fill:dimgray}
    .fil6 {fill:#737373}
    .fil1 {fill:#7A7A7A}
    .fil3 {fill:#858585}
    .fil5 {fill:#8C8C8C}
    .fil0 {fill:#999999}
    .fil4 {fill:#A5C8FA}
    .fil7 {fill:#BFBFBF}
    .fil8 {fill:#5F5F5F;fill-rule:nonzero}
   ]]>
  </style>
 </defs>
 <g id="Слой_x0020_1">
  <metadata id="CorelCorpID_0Corel-Layer"/>
  <g id="_2928717013152">
   <path class="fil0" d="M37.98 7.89c4.56,-2.36 9.11,-4.73 13.67,-7.09 -0.47,-0.57 -0.68,-0.54 -1.01,-0.41 -0.37,0.15 -0.89,0.41 -3.12,1.57 -2.23,1.16 -6.16,3.21 -10.09,5.26 0.03,0.03 0.06,0.05 0.1,0.08 0.15,0.13 0.28,0.3 0.45,0.59z"/>
   <path class="fil1" d="M51.65 0.8c-4.56,2.36 -9.11,4.73 -13.67,7.09 0.14,0.23 0.31,0.54 0.53,0.97 0.51,0.94 1.32,2.46 1.75,3.34 0.06,0.12 0.11,0.23 0.16,0.33 4.64,-2.43 9.28,-4.86 13.93,-7.29 -0.09,-0.16 -0.22,-0.4 -0.45,-0.8 -0.51,-0.89 -1.48,-2.57 -2.07,-3.4 -0.07,-0.09 -0.13,-0.17 -0.18,-0.24z"/>
   <path class="fil2" d="M54.35 5.24c-4.65,2.43 -9.29,4.86 -13.93,7.29 0.17,0.37 0.26,0.59 0.3,0.76 4.25,-2.16 8.5,-4.32 10.84,-5.51 2.34,-1.19 2.76,-1.41 2.93,-1.62 0.18,-0.21 0.1,-0.41 0.03,-0.56 -0.03,-0.09 -0.06,-0.16 -0.17,-0.36z"/>
   <path class="fil3" d="M40.26 12.2c-0.43,-0.88 -1.24,-2.4 -1.75,-3.34 -0.22,-0.43 -0.39,-0.74 -0.53,-0.97 -0.17,-0.29 -0.3,-0.46 -0.45,-0.59 -0.04,-0.03 -0.07,-0.05 -0.1,-0.08 -0.68,0.34 -1.35,0.67 -2.41,1.32 -1.06,0.66 -2.51,1.63 -3.44,2.54 -0.92,0.92 -1.33,1.77 -1.54,2.54 -0.22,0.78 -0.25,1.49 -0.21,1.97 0.04,0.49 0.15,0.75 0.25,1.01 0.07,0.09 0.12,0.26 0.14,0.59 0.04,0.63 -0.02,1.81 -0.08,2.99 1.46,-0.81 2.8,-1.57 3.93,-2.2 5.48,-3.09 6.02,-3.43 6.32,-3.71 0.3,-0.27 0.36,-0.47 0.36,-0.7 0,-0.08 -0.01,-0.17 -0.03,-0.28 -0.04,-0.17 -0.13,-0.39 -0.3,-0.76 -0.05,-0.1 -0.1,-0.21 -0.16,-0.33z"/>
   <path class="fil4" d="M29.83 15.59c-0.04,-0.48 -0.01,-1.19 0.21,-1.97 0.21,-0.77 0.62,-1.62 1.54,-2.54 0.93,-0.91 2.38,-1.88 3.44,-2.54 1.06,-0.65 1.73,-0.98 2.41,-1.32 -0.27,-0.18 -0.62,-0.24 -1.16,-0.07 -0.61,0.18 -1.46,0.65 -5.72,2.72 -3.09,1.51 -7.96,3.86 -12.27,5.93 -1.01,0.49 -1.98,0.96 -2.9,1.4 -0.44,0.21 -0.87,0.42 -1.28,0.62 -0.12,0.05 -0.24,0.11 -0.36,0.17 -4.67,2.26 -6.8,3.29 -7.95,3.89 -0.05,0.02 -0.1,0.05 -0.15,0.07 -0.67,0.35 -0.98,0.54 -1.16,0.66 1.71,0.47 3.42,0.94 5.13,1.41 0.02,-0.01 0.04,-0.03 0.06,-0.04 0.26,-0.18 0.5,-0.28 3.77,-1.51 3.27,-1.23 9.57,-3.6 12.82,-4.79 3.25,-1.19 3.44,-1.21 3.61,-1.19 0.08,0.01 0.15,0.03 0.21,0.11 -0.1,-0.26 -0.21,-0.52 -0.25,-1.01z"/>
   <path class="fil0" d="M26.26 17.68c-3.25,1.19 -9.55,3.56 -12.82,4.79 -3.27,1.23 -3.51,1.33 -3.77,1.51 -0.02,0.01 -0.04,0.03 -0.06,0.04 -0.24,0.18 -0.52,0.47 -1.25,1.5 -0.8,1.12 -2.15,3.12 -2.87,4.21 -0.72,1.1 -0.8,1.28 -0.86,1.44 -0.05,0.17 -0.08,0.33 -0.07,0.75 0.01,0.42 0.06,1.11 0.1,1.8 0.08,-0.01 0.16,-0.02 0.24,-0.04 0.34,-0.08 0.81,-0.2 1.3,-0.37 0.49,-0.16 1,-0.38 6.47,-3.4 4.35,-2.4 11.82,-6.56 17.47,-9.73 0.06,-1.18 0.12,-2.36 0.08,-2.99 -0.02,-0.33 -0.07,-0.5 -0.14,-0.59 -0.06,-0.08 -0.13,-0.1 -0.21,-0.11 -0.17,-0.02 -0.36,0 -3.61,1.19z"/>
   <path class="fil5" d="M8.36 25.52c0.73,-1.03 1.01,-1.32 1.25,-1.5 -1.71,-0.47 -3.42,-0.94 -5.13,-1.41 -0.12,0.09 -0.18,0.15 -0.24,0.21 -0.15,0.16 -0.32,0.36 -0.9,1.34 -0.59,0.98 -1.59,2.75 -2.14,3.78 -0.56,1.02 -0.67,1.3 -0.74,1.53 -0.04,0.14 -0.07,0.25 -0.08,0.4 1.41,0.44 2.83,0.87 4.25,1.3 0.06,-0.16 0.14,-0.34 0.86,-1.44 0.72,-1.09 2.07,-3.09 2.87,-4.21z"/>
   <path class="fil6" d="M4.63 31.17c-1.42,-0.43 -2.84,-0.86 -4.25,-1.3 -0.02,0.11 -0.03,0.24 -0.04,0.41 -0.02,0.38 -0.03,0.97 -0.03,1.36 0,0.39 0.02,0.58 0.05,0.73 0.04,0.15 0.09,0.26 0.22,0.35 0.13,0.09 0.34,0.15 0.96,0.33 0.61,0.18 1.62,0.47 2.22,0.6 0.45,0.1 0.68,0.11 0.9,0.07 -0.04,-0.69 -0.09,-1.38 -0.1,-1.8 -0.01,-0.42 0.02,-0.58 0.07,-0.75z"/>
   <path class="fil7" d="M14.1 17.82c-0.12,0.05 -0.24,0.11 -0.36,0.17 -4.67,2.26 -6.8,3.29 -7.95,3.89 -0.05,0.02 -0.1,0.05 -0.15,0.07 -0.67,0.35 -0.98,0.54 -1.16,0.66 1.71,0.47 3.42,0.94 5.13,1.41 0.02,-0.01 0.04,-0.03 0.06,-0.04 0.26,-0.18 0.5,-0.28 3.77,-1.51 3.27,-1.23 9.57,-3.6 12.82,-4.79 3.25,-1.19 3.44,-1.21 3.61,-1.19 0.08,0.01 0.15,0.03 0.21,0.11 -0.1,-0.26 -0.21,-0.52 -0.25,-1.01 -0.04,-0.48 -0.01,-1.19 0.21,-1.97 0.21,-0.77 0.62,-1.62 1.54,-2.54 0.93,-0.91 2.47,-1.59 3.53,-2.25 1.06,-0.65 2.04,-0.86 2.71,-1.2 -0.04,-0.02 -0.48,-0.46 -0.53,-0.48 -0.25,-0.12 -0.57,-0.14 -1.02,0 -0.61,0.18 -1.46,0.65 -5.72,2.72 -7.3,3.56 -16.36,7.9 -16.45,7.95z"/>
   <path class="fil6" d="M15.38 17.2c-2.2,-1 -4.41,-2.01 -5.57,-2.53 -1.17,-0.52 -1.3,-0.56 -1.46,-0.56 -0.14,0 -0.31,0.03 -0.44,0.08 -0.16,0.09 -0.27,0.17 -0.34,0.23 0,0 -0.01,0 -0.01,0 -0.06,0.05 -0.1,0.1 -0.14,0.15 -0.1,0.13 -0.14,0.28 -0.15,0.54 -0.01,0.27 0.01,0.64 0.05,1.08 0.05,0.43 0.13,0.93 0.18,1.22 0.05,0.3 0.07,0.4 0.12,0.47 0.05,0.07 0.12,0.1 0.23,0.15 0.1,0.05 0.24,0.11 0.34,0.13 0.11,0.02 0.17,-0.01 0.21,-0.06 0.04,-0.04 0.05,-0.11 0,-0.46 -0.06,-0.36 -0.18,-1 -0.24,-1.41 -0.06,-0.41 -0.05,-0.58 0,-0.71 0.05,-0.13 0.14,-0.22 0.27,-0.26 0.12,-0.04 0.28,-0.05 1.23,0.39 0.44,0.2 1.06,0.5 1.77,0.84 0.81,0.4 1.74,0.86 2.67,1.33 0.41,-0.2 0.84,-0.41 1.28,-0.62z"/>
   <path class="fil2" d="M11.41 16.5l-1.75 -0.85c-0.37,-0.17 -0.62,-0.27 -0.79,-0.33 -0.18,-0.06 -0.32,-0.08 -0.44,-0.06 0,0 0,0 0,0 -0.13,0.04 -0.22,0.13 -0.27,0.26 -0.05,0.11 -0.05,0.3 -0.02,0.52 0,0.06 0.01,0.12 0.02,0.19 0.03,0.21 0.08,0.49 0.12,0.75 0.07,0.32 0.12,0.63 0.14,0.84 0.03,0.2 0.01,0.25 -0.02,0.28 1,-0.53 2.01,-1.06 3.01,-1.6z"/>
   <path class="fil3" d="M8.96 20.31c-1.92,-0.84 -3.84,-1.67 -4.83,-2.1 -1.01,-0.42 -1.07,-0.44 -1.17,-0.44 -0.11,0 -0.24,0.02 -0.4,0.08 -0.15,0.07 -0.33,0.18 -0.49,0.35 -0.16,0.18 -0.3,0.42 -0.38,0.7 -0.07,0.27 -0.07,0.57 -0.04,0.78 0.03,0.22 0.09,0.34 0.15,0.43 0.06,0.09 0.12,0.14 0.79,0.43 0.66,0.29 1.93,0.82 3.2,1.34 0.65,-0.34 1.61,-0.81 3.17,-1.57z"/>
   <path class="fil0" d="M15.38 17.2c0.92,-0.44 1.89,-0.91 2.9,-1.4 -1.01,0.49 -1.98,0.96 -2.9,1.4zm-5.57 -2.53c1.16,0.52 3.37,1.53 5.57,2.53 -0.44,0.21 -0.87,0.42 -1.28,0.62 0.09,-0.05 9.06,-4.35 16.34,-7.89 -3.09,1.5 -7.9,3.82 -12.16,5.87 -1.64,-0.82 -3.29,-1.64 -4.31,-2.14 -1.03,-0.5 -1.44,-0.67 -1.72,-0.78 -0.29,-0.11 -0.45,-0.15 -0.61,-0.18 -0.16,-0.03 -0.32,-0.04 -0.52,0 -0.2,0.04 -0.44,0.13 -0.98,0.38 -0.55,0.26 -1.41,0.67 -1.93,0.95 -0.11,0.06 -0.22,0.11 -0.3,0.16 0.13,-0.05 0.3,-0.08 0.44,-0.08 0.16,0 0.29,0.04 1.46,0.56z"/>
   <path class="fil8" d="M36.36 7.44c-0.41,0.13 -0.96,0.4 -2.76,1.28 -0.8,0.4 -1.83,0.9 -2.92,1.43 -2.98,1.46 -7.96,3.85 -12.33,5.96l-4.47 2.16c-2.51,1.21 -4.26,2.06 -5.46,2.65 -1.26,0.61 -2.06,1.01 -2.64,1.31 -0.54,0.28 -0.85,0.45 -1.03,0.57 -0.16,0.11 -0.22,0.17 -0.28,0.23 -0.07,0.07 -0.14,0.16 -0.26,0.33 -0.13,0.19 -0.32,0.48 -0.61,0.96 -0.28,0.47 -0.66,1.13 -1.04,1.8 -0.39,0.69 -0.8,1.42 -1.09,1.96 -0.28,0.52 -0.45,0.84 -0.54,1.05 -0.1,0.21 -0.14,0.32 -0.17,0.43 -0.03,0.1 -0.05,0.19 -0.07,0.3l0 0.01c-0.02,0.12 -0.03,0.25 -0.04,0.42 -0.01,0.2 -0.02,0.45 -0.02,0.68 -0.01,0.24 -0.01,0.48 -0.01,0.67 0,0.17 0,0.31 0.01,0.43 0.01,0.1 0.02,0.18 0.04,0.23 0.01,0.05 0.02,0.09 0.03,0.11l0.01 0.01c0.01,0.02 0.02,0.03 0.04,0.04l0.01 0.01c0.04,0.02 0.1,0.05 0.22,0.09 0.15,0.05 0.35,0.11 0.64,0.2 0.32,0.09 0.72,0.21 1.11,0.31 0.4,0.11 0.79,0.21 1.1,0.28 0.28,0.06 0.46,0.08 0.61,0.08 0.13,0 0.25,-0.02 0.4,-0.05 0.18,-0.04 0.4,-0.1 0.65,-0.17 0.19,-0.05 0.4,-0.12 0.61,-0.19 0.24,-0.08 0.48,-0.17 1.33,-0.61 0.86,-0.45 2.36,-1.26 5.09,-2.77 2.68,-1.48 6.39,-3.54 10.1,-5.61 4.08,-2.27 8.32,-4.65 11.3,-6.32 2.74,-1.55 4.25,-2.4 5.1,-2.91 0.83,-0.49 1.02,-0.63 1.16,-0.76 0.11,-0.1 0.18,-0.19 0.22,-0.27 0.03,-0.06 0.04,-0.13 0.04,-0.21 0,-0.08 -0.01,-0.17 -0.06,-0.33 -0.07,-0.19 -0.19,-0.47 -0.39,-0.89 -0.43,-0.88 -1.23,-2.37 -1.74,-3.31l-0.02 -0.04c-0.24,-0.45 -0.41,-0.77 -0.56,-1.01 -0.13,-0.22 -0.23,-0.35 -0.34,-0.44 -0.1,-0.09 -0.22,-0.15 -0.36,-0.17 -0.15,-0.02 -0.35,-0.01 -0.61,0.07zm-3.04 0.73c1.84,-0.91 2.4,-1.18 2.86,-1.32 0.35,-0.11 0.64,-0.13 0.89,-0.09 0.26,0.04 0.47,0.15 0.65,0.3 0.17,0.15 0.32,0.32 0.48,0.59 0.14,0.23 0.32,0.57 0.58,1.05l0.02 0.04c0.51,0.94 1.31,2.44 1.74,3.32 0.22,0.46 0.35,0.76 0.42,0.97 0.08,0.25 0.1,0.4 0.1,0.54 0,0.15 -0.03,0.3 -0.1,0.46 -0.07,0.15 -0.18,0.3 -0.36,0.47 -0.17,0.15 -0.39,0.32 -1.27,0.84 -0.86,0.51 -2.37,1.37 -5.11,2.91 -2.79,1.57 -7.03,3.94 -11.3,6.32 -3.84,2.15 -7.58,4.22 -10.1,5.61 -2.73,1.51 -4.23,2.32 -5.11,2.78 -0.89,0.46 -1.15,0.56 -1.41,0.65 -0.22,0.07 -0.44,0.14 -0.65,0.2 -0.25,0.07 -0.48,0.13 -0.68,0.17 -0.19,0.04 -0.34,0.07 -0.53,0.07 -0.2,0 -0.42,-0.03 -0.74,-0.1 -0.3,-0.06 -0.71,-0.17 -1.13,-0.28 -0.42,-0.12 -0.82,-0.23 -1.12,-0.32 -0.32,-0.09 -0.54,-0.16 -0.68,-0.21 -0.16,-0.05 -0.26,-0.1 -0.35,-0.15l-0.01 -0.01c-0.1,-0.07 -0.17,-0.14 -0.23,-0.23l-0.02 -0.03c-0.04,-0.08 -0.07,-0.18 -0.1,-0.28 -0.02,-0.09 -0.03,-0.2 -0.04,-0.32 -0.01,-0.12 -0.02,-0.27 -0.02,-0.48 0,-0.2 0,-0.44 0.01,-0.68 0,-0.26 0.01,-0.51 0.02,-0.7 0.01,-0.2 0.03,-0.35 0.04,-0.48l0.01 -0.01c0.02,-0.13 0.04,-0.25 0.08,-0.38 0.04,-0.13 0.09,-0.27 0.21,-0.52 0.11,-0.24 0.28,-0.58 0.55,-1.08 0.28,-0.51 0.69,-1.24 1.1,-1.98 0.38,-0.67 0.77,-1.33 1.05,-1.81 0.3,-0.5 0.49,-0.8 0.63,-1 0.15,-0.2 0.24,-0.3 0.32,-0.39 0.09,-0.1 0.17,-0.18 0.39,-0.33 0.2,-0.13 0.52,-0.31 1.09,-0.6 0.55,-0.28 1.35,-0.69 2.64,-1.32 1.35,-0.66 3.09,-1.5 5.47,-2.65l4.47 -2.15c4.27,-2.06 9.12,-4.4 12.33,-5.97 1.38,-0.67 2.24,-1.09 2.91,-1.42z"/>
   <path class="fil8" d="M4.82 33.71c0,0.09 -0.06,0.16 -0.15,0.17 -0.08,0 -0.16,-0.06 -0.16,-0.15l-0.06 -1c-0.02,-0.31 -0.03,-0.59 -0.04,-0.81 -0.01,-0.21 0,-0.37 0.01,-0.48 0.01,-0.13 0.03,-0.22 0.06,-0.31 0.03,-0.1 0.07,-0.19 0.2,-0.41 0.11,-0.19 0.32,-0.51 0.68,-1.07 0.4,-0.61 0.99,-1.5 1.58,-2.36 0.47,-0.69 0.94,-1.37 1.29,-1.86 0.41,-0.57 0.68,-0.92 0.88,-1.14 0.21,-0.24 0.34,-0.35 0.48,-0.44 0.13,-0.09 0.26,-0.17 0.78,-0.37 0.5,-0.2 1.38,-0.54 3.02,-1.16 1.85,-0.69 4.73,-1.78 7.53,-2.82 2.05,-0.77 3.98,-1.48 5.29,-1.96 1.63,-0.6 2.49,-0.91 2.97,-1.06 0.5,-0.16 0.61,-0.15 0.71,-0.14 0.12,0.01 0.24,0.04 0.33,0.19 0.08,0.12 0.13,0.31 0.15,0.65 0.02,0.32 0.02,0.78 0,1.3 -0.02,0.53 -0.05,1.12 -0.08,1.71 0,0.09 -0.08,0.15 -0.16,0.15 -0.09,0 -0.15,-0.08 -0.15,-0.16 0.03,-0.6 0.06,-1.19 0.08,-1.71 0.02,-0.51 0.02,-0.96 0,-1.27 -0.01,-0.28 -0.05,-0.43 -0.1,-0.5 -0.02,-0.04 -0.06,-0.05 -0.11,-0.05 -0.06,-0.01 -0.14,-0.01 -0.58,0.13 -0.48,0.15 -1.34,0.45 -2.96,1.05 -1.42,0.52 -3.33,1.23 -5.28,1.96 -2.68,1 -5.6,2.1 -7.53,2.82 -1.64,0.62 -2.52,0.95 -3.02,1.15 -0.48,0.2 -0.6,0.27 -0.72,0.35 -0.12,0.08 -0.24,0.17 -0.42,0.38 -0.19,0.22 -0.46,0.56 -0.86,1.12 -0.36,0.5 -0.82,1.17 -1.29,1.86 -0.58,0.86 -1.17,1.75 -1.57,2.35 -0.35,0.53 -0.55,0.85 -0.67,1.06 -0.11,0.19 -0.15,0.27 -0.17,0.34 -0.03,0.08 -0.04,0.15 -0.05,0.25 -0.01,0.1 -0.02,0.24 -0.01,0.45 0,0.2 0.02,0.48 0.04,0.79l0.06 1z"/>
   <path class="fil8" d="M30.22 16.54c0.03,0.07 0,0.17 -0.08,0.2 -0.08,0.03 -0.17,0 -0.2,-0.08l-0.01 -0.01c-0.1,-0.27 -0.21,-0.55 -0.25,-1.05 -0.02,-0.27 -0.03,-0.61 0.01,-1 0.04,-0.31 0.1,-0.66 0.2,-1.02 0.11,-0.4 0.27,-0.82 0.52,-1.24 0.25,-0.43 0.58,-0.87 1.05,-1.3 0.46,-0.42 1.05,-0.85 1.66,-1.24 0.61,-0.39 1.25,-0.75 1.8,-1.04 1.13,-0.6 1.96,-0.96 2.8,-1.33 0.03,-0.01 0.06,-0.01 0.09,-0.01 0.05,0.01 0.1,0.05 0.11,0.11 0.02,0.05 0.01,0.1 -0.02,0.14l0 0.01c-0.02,0.01 -0.04,0.03 -0.06,0.04 -0.83,0.36 -1.65,0.72 -2.77,1.31 -0.56,0.3 -1.19,0.65 -1.79,1.03 -0.59,0.39 -1.17,0.8 -1.61,1.21 -0.44,0.41 -0.76,0.82 -1,1.22 -0.23,0.4 -0.38,0.8 -0.48,1.18 -0.1,0.34 -0.16,0.66 -0.19,0.96 -0.03,0.37 -0.03,0.69 -0.01,0.95 0.03,0.46 0.13,0.7 0.23,0.95l0 0.01z"/>
   <path class="fil8" d="M9.65 23.87c0.08,0.03 0.13,0.11 0.11,0.19 -0.02,0.09 -0.11,0.14 -0.19,0.11l-5.13 -1.41c-0.08,-0.02 -0.13,-0.1 -0.11,-0.19 0.02,-0.08 0.11,-0.13 0.19,-0.11l5.13 1.41z"/>
   <path class="fil8" d="M4.68 31.03c0.08,0.02 0.12,0.11 0.1,0.19 -0.03,0.08 -0.11,0.13 -0.19,0.1l-4.26 -1.3c-0.08,-0.03 -0.13,-0.11 -0.1,-0.19 0.02,-0.08 0.11,-0.13 0.19,-0.11l4.26 1.31z"/>
   <path class="fil8" d="M9.14 20.05c0.16,0.07 0.23,0.25 0.16,0.41 -0.06,0.15 -0.25,0.23 -0.4,0.16l-0.07 -0.03c-1.9,-0.83 -3.79,-1.65 -4.82,-2.09 -0.5,-0.21 -0.76,-0.32 -0.91,-0.38 -0.11,-0.04 -0.13,-0.04 -0.14,-0.04 -0.03,0 -0.08,0.01 -0.12,0.01 -0.05,0.01 -0.1,0.03 -0.16,0.05 -0.06,0.03 -0.13,0.06 -0.2,0.11l-0.02 0.01c-0.05,0.04 -0.11,0.09 -0.16,0.15 -0.07,0.08 -0.13,0.17 -0.19,0.27 -0.05,0.09 -0.09,0.19 -0.12,0.29 -0.02,0.11 -0.04,0.22 -0.05,0.33 0,0.12 0,0.25 0.02,0.34 0.01,0.08 0.02,0.15 0.04,0.19 0.02,0.04 0.04,0.08 0.05,0.1l0.01 0.01c0.01,0.01 0.02,0.02 0.06,0.04 0.1,0.06 0.27,0.14 0.59,0.28 0.67,0.29 1.93,0.81 3.2,1.33 0.16,0.07 0.23,0.25 0.17,0.4 -0.07,0.16 -0.25,0.24 -0.41,0.17 -1.27,-0.52 -2.54,-1.04 -3.21,-1.33 -0.34,-0.15 -0.53,-0.24 -0.65,-0.31 -0.15,-0.09 -0.2,-0.15 -0.25,-0.22l-0.02 -0.02c-0.04,-0.06 -0.08,-0.13 -0.12,-0.23 -0.03,-0.09 -0.06,-0.19 -0.08,-0.32 -0.01,-0.14 -0.02,-0.3 -0.01,-0.47 0,-0.14 0.03,-0.3 0.06,-0.44 0.04,-0.16 0.11,-0.3 0.18,-0.44 0.08,-0.15 0.17,-0.28 0.27,-0.38 0.08,-0.09 0.17,-0.17 0.26,-0.24l0.02 -0.01c0.11,-0.08 0.22,-0.14 0.33,-0.18 0.09,-0.04 0.19,-0.07 0.27,-0.08 0.09,-0.02 0.17,-0.03 0.23,-0.03 0.09,0 0.16,0.01 0.36,0.08 0.16,0.06 0.43,0.17 0.94,0.39 0.96,0.41 2.89,1.25 4.83,2.09l0.06 0.03z"/>
   <path class="fil8" d="M18.42 15.53c0.15,0.07 0.21,0.26 0.14,0.41 -0.08,0.15 -0.27,0.21 -0.42,0.14l-0.06 -0.03c-1.64,-0.82 -3.28,-1.64 -4.25,-2.11 -0.51,-0.25 -0.86,-0.41 -1.13,-0.53 -0.27,-0.12 -0.43,-0.19 -0.57,-0.24 -0.13,-0.05 -0.23,-0.09 -0.32,-0.12 -0.08,-0.02 -0.15,-0.03 -0.22,-0.05 -0.07,-0.01 -0.14,-0.02 -0.2,-0.02 -0.06,0 -0.13,0 -0.21,0.02 -0.08,0.02 -0.18,0.05 -0.31,0.1 -0.14,0.05 -0.34,0.14 -0.6,0.26 -0.32,0.15 -0.7,0.33 -1.06,0.51 -0.3,0.15 -0.61,0.3 -0.85,0.43 -0.25,0.13 -0.41,0.23 -0.52,0.3 -0.09,0.06 -0.14,0.11 -0.17,0.15 -0.03,0.04 -0.05,0.08 -0.06,0.12 -0.02,0.07 -0.03,0.15 -0.03,0.25 -0.01,0.13 0,0.28 0,0.46 0.01,0.17 0.03,0.37 0.05,0.58 0.02,0.18 0.05,0.37 0.07,0.56 0.04,0.25 0.07,0.47 0.1,0.64 0.03,0.14 0.05,0.23 0.06,0.29l0.02 0.05 0.1 0.05 0.13 0.06 -0.02 -0.13c-0.02,-0.15 -0.06,-0.36 -0.1,-0.58 -0.05,-0.28 -0.1,-0.58 -0.14,-0.82 -0.03,-0.22 -0.04,-0.38 -0.04,-0.51 0,-0.16 0.02,-0.27 0.06,-0.36 0.04,-0.11 0.1,-0.2 0.18,-0.28 0.08,-0.07 0.17,-0.13 0.27,-0.16 0.12,-0.04 0.24,-0.06 0.49,0.01 0.19,0.05 0.49,0.16 0.98,0.38 0.46,0.21 1.14,0.54 1.93,0.93 0.87,0.43 1.69,0.84 2.52,1.25 0.15,0.07 0.22,0.26 0.14,0.41 -0.08,0.16 -0.26,0.22 -0.41,0.14 -0.93,-0.45 -1.85,-0.91 -2.52,-1.24 -0.76,-0.38 -1.43,-0.7 -1.92,-0.92 -0.46,-0.21 -0.72,-0.31 -0.88,-0.36 -0.09,-0.02 -0.11,-0.02 -0.12,-0.02 -0.03,0.01 -0.04,0.02 -0.06,0.03 -0.01,0.01 -0.02,0.03 -0.02,0.05 -0.02,0.03 -0.02,0.07 -0.02,0.14 0,0.09 0.01,0.23 0.04,0.42 0.03,0.21 0.08,0.52 0.13,0.81 0.04,0.22 0.08,0.44 0.1,0.59 0.03,0.2 0.04,0.32 0.04,0.41 0,0.15 -0.05,0.23 -0.11,0.31 -0.05,0.06 -0.13,0.11 -0.22,0.14 -0.08,0.03 -0.17,0.03 -0.27,0.01 -0.07,-0.01 -0.14,-0.03 -0.21,-0.06l-0.02 0c-0.07,-0.03 -0.14,-0.06 -0.19,-0.09 -0.06,-0.02 -0.11,-0.05 -0.16,-0.08l-0.02 -0.01c-0.07,-0.04 -0.12,-0.1 -0.17,-0.17 -0.05,-0.06 -0.08,-0.13 -0.11,-0.24 -0.02,-0.09 -0.04,-0.19 -0.07,-0.35 -0.03,-0.17 -0.06,-0.4 -0.1,-0.65 -0.03,-0.19 -0.05,-0.39 -0.07,-0.59 -0.03,-0.22 -0.04,-0.42 -0.05,-0.61 -0.01,-0.19 -0.01,-0.36 -0.01,-0.51 0.01,-0.15 0.02,-0.28 0.05,-0.39 0.04,-0.12 0.09,-0.23 0.17,-0.33 0.07,-0.09 0.16,-0.18 0.31,-0.29 0.13,-0.09 0.31,-0.2 0.58,-0.34 0.23,-0.12 0.54,-0.28 0.87,-0.44 0.4,-0.19 0.79,-0.38 1.07,-0.51 0.27,-0.13 0.47,-0.22 0.63,-0.28 0.18,-0.07 0.3,-0.11 0.42,-0.13 0.12,-0.02 0.23,-0.03 0.34,-0.03 0.11,0 0.2,0.02 0.29,0.03 0.09,0.02 0.18,0.04 0.3,0.07 0.1,0.03 0.21,0.07 0.37,0.13 0.15,0.06 0.33,0.13 0.59,0.25 0.27,0.12 0.63,0.29 1.15,0.54 1.05,0.51 2.65,1.31 4.26,2.11l0.06 0.04z"/>
   <path class="fil8" d="M7.67 14.53c-0.06,0.06 -0.16,0.06 -0.22,0 -0.06,-0.06 -0.06,-0.16 0,-0.22l0.02 -0.01c0.09,-0.09 0.19,-0.17 0.35,-0.24 0.08,-0.03 0.17,-0.06 0.26,-0.08 0.09,-0.01 0.19,-0.02 0.27,-0.02 0.1,0 0.19,0.01 0.41,0.09 0.19,0.08 0.52,0.22 1.11,0.48 0.61,0.27 1.45,0.65 2.4,1.08l3.18 1.45c0.07,0.03 0.11,0.12 0.07,0.2 -0.03,0.08 -0.12,0.11 -0.2,0.08l-3.18 -1.44c-0.99,-0.45 -1.84,-0.84 -2.4,-1.09 -0.57,-0.25 -0.9,-0.39 -1.09,-0.47 -0.18,-0.06 -0.24,-0.07 -0.3,-0.07 -0.06,0 -0.14,0 -0.21,0.02 -0.07,0.01 -0.14,0.03 -0.2,0.06 -0.11,0.04 -0.19,0.11 -0.27,0.18z"/>
   <path class="fil8" d="M8.54 18.38c-0.15,0.08 -0.34,0.02 -0.42,-0.13 -0.08,-0.15 -0.02,-0.34 0.13,-0.42l3.03 -1.61c0.15,-0.08 0.34,-0.02 0.42,0.13 0.08,0.15 0.03,0.34 -0.13,0.42l-3.03 1.61z"/>
   <path class="fil8" d="M37.57 7.5c-0.15,0.08 -0.34,0.02 -0.42,-0.13 -0.08,-0.15 -0.02,-0.34 0.13,-0.42l10.1 -5.26c1.08,-0.57 1.77,-0.92 2.26,-1.17 0.47,-0.23 0.7,-0.34 0.89,-0.41 0.25,-0.11 0.46,-0.16 0.75,-0.04 0.22,0.1 0.47,0.33 0.8,0.79 0.3,0.43 0.7,1.06 1.08,1.7 0.39,0.64 0.76,1.29 1.01,1.73 0.25,0.44 0.39,0.69 0.48,0.86 0.09,0.18 0.12,0.25 0.16,0.33 0.04,0.1 0.09,0.21 0.1,0.36 0.01,0.16 -0.03,0.34 -0.18,0.52 -0.11,0.14 -0.28,0.26 -0.74,0.52 -0.45,0.24 -1.13,0.59 -2.29,1.18l-10.85 5.51c-0.15,0.07 -0.33,0.01 -0.41,-0.14 -0.08,-0.15 -0.02,-0.34 0.14,-0.42l10.84 -5.51c1.18,-0.6 1.88,-0.95 2.27,-1.17 0.38,-0.2 0.51,-0.29 0.56,-0.36 0.03,-0.04 0.04,-0.06 0.04,-0.09 -0.01,-0.05 -0.03,-0.11 -0.05,-0.16 -0.03,-0.08 -0.06,-0.14 -0.13,-0.28 -0.08,-0.14 -0.22,-0.39 -0.48,-0.84 -0.25,-0.45 -0.62,-1.09 -1,-1.72 -0.37,-0.63 -0.76,-1.25 -1.05,-1.66 -0.26,-0.36 -0.43,-0.53 -0.55,-0.58 -0.07,-0.03 -0.16,0 -0.27,0.04 -0.18,0.07 -0.4,0.17 -0.84,0.4 -0.42,0.21 -1.11,0.56 -2.26,1.16l-10.09 5.26z"/>
   <path class="fil8" d="M38.05 8.03c-0.07,0.04 -0.17,0.01 -0.2,-0.07 -0.04,-0.07 -0.01,-0.17 0.06,-0.21l13.67 -7.09c0.07,-0.03 0.17,0 0.2,0.07 0.04,0.08 0.01,0.17 -0.06,0.21l-13.67 7.09z"/>
   <path class="fil8" d="M54.27 5.1c0.08,-0.04 0.17,-0.01 0.21,0.07 0.04,0.07 0.01,0.17 -0.06,0.21l-13.93 7.28c-0.07,0.04 -0.17,0.01 -0.21,-0.06 -0.04,-0.08 -0.01,-0.17 0.07,-0.21l13.92 -7.29z"/>
  </g>
 </g>
</svg>
