<svg clip-rule="evenodd" fill-rule="evenodd" height="274" image-rendering="optimizeQuality" shape-rendering="geometricPrecision" text-rendering="geometricPrecision" viewBox="0 0 743.47 407.18" width="500" xmlns="http://www.w3.org/2000/svg"><path d="m125.6 216.96-89.89-54.03c-15.75-8.79-42.7 23.29-26.02 33.51 21.58 13.5 43.16 27.01 64.73 40.51 17.78-6.94 35.19-13.74 51.18-19.99z" fill="#999"/><path d="m78.06 102.09c7.61-18.55 7.09-13.73 60.58 18.12l77.82 48.46c.57 1.04.89 1.9.34 3.99 5.2-16.72 7.02-14.97-19.93-31.44-13.33-8.15-106.66-65.4-116.1-62.37-8.01 2.56-8.57 7.32-12.35 18.61-7.43 22.16-22.95 46.44-14.74 60.92 2.31 4.06 5.59 5.37 10.63 5.62-6.39-3.63-3.88-11.11.22-23.95 3.41-10.7 9.67-28.57 13.53-37.96z" fill="#999"/><path d="m84.83 91.37c-5.17 1.42-28.44 63.03-23.2 70.49 5.7 8.11 61.68-10.86 73.16-32.49 1.61-3.05 2.74-6.1 3.85-9.16-16.41-9.77-47.64-30.55-53.81-28.84z" fill="#737373"/><path d="m80.77 78.85c9.43-3.04 102.78 54.23 116.1 62.37 27.6 16.86 24.76 14.59 19.93 31.44-3.02 10.49-4.37 9.97-32.2 21.07l-126.01 49.4c9.81-2.48 66.11 32.98 73.25 42.43 199.85-80.87 399.71-161.74 599.57-242.61l-55.04-36.51c-11.93-6.15-22.85 1.09-81.46 24.39-31.67 12.59-244.49 99.92-259.93 97.86l-23.52-1.94c-13.38.36-128.15-75.44-143.7-77.15-5.09-.56-86.76 23.79-92.91 32.36 1.81-1.19 3.63-2.38 5.92-3.11zm54.49-4.24c4.53-7.85 19.02-8.01 28.36-5.94 18.54 4.1 146.42 78.11 166.68 93.7 14.73 11.33 4.73 31.6-38.71 11.32-19.42-9.06-147.42-77.94-155.96-91.31-1.63-2.54-1.84-5.24-.37-7.77z" fill="#bfbfbf"/><path d="m135.63 82.38c8.53 13.36 136.56 82.25 155.96 91.31 43.44 20.29 53.44 0 38.71-11.32 10.35 8.53 7.35 23.88-44.52-3.17-14.3-7.46-135.28-72.82-140.49-79.59-6.51-8.45 4.47-12 14.73-11.6-16.89-2.46-30.34 5.06-24.39 14.37z" fill="#999"/><path d="m145.29 79.61c5.03 6.53 151.67 87.61 170.58 92.96 22.48 6.36 22.17-4.03 14.43-10.2-19.09-15.24-148.67-89.72-166.68-93.7-12.53-2.77-24.91 2.38-18.33 10.94z" fill="#d6d6d6"/><path d="m731.41 42.95c-199.86 80.87-399.72 161.74-599.57 242.61 4.3 5.7 4.58 13.04 4.68 20.68 200.78-81.5 401.56-163 602.33-244.5-.43-7.37-2.46-13.82-7.44-18.79z" fill="#737373"/><path d="m89.89 256.55c-38.99-22.39-43.83-25.5-42.2 59.94.35 18.7 6.27 27.76 22.56 32.13 1.33.35 2.66.65 4 .87-13.3-6.54-14.78-19-15.31-38.01-.17-6.43-.4-45.73 4.41-46.92 6.02-1.48 42.55 22.52 49.52 27.29 9.49 6.49 10.85 8.67 11.05 18.88.85 44.45-12.79 84 26.04 90.98-29.11-9-3.53-96.83-18.12-116.15-6.9-9.14-30.28-22.3-41.95-29.01z" fill="#999"/><path d="m254.16 298.79c-23.79-4.45-39.46 47.45-16.36 54.25 24.56 7.23 41.83-49.31 16.36-54.25z" fill="#bfbfbf"/><path d="m228.47 320.74c4.66-14.27 15.94-23.78 25.69-21.95-29.54-13.34-48.13 50.1-17.63 53.8-9.1-3.75-12.72-17.6-8.06-31.85z" fill="#686868"/><path d="m123.92 310.73c-.2-10.21-1.56-12.39-11.05-18.88-6.97-4.77-43.5-28.77-49.52-27.29-5.59 1.39-7.78 68.55 3.81 80.32 15.02 15.25 44.77-5.73 56.3-11.9.31-8.35.57-16.55.46-22.25z" fill="#737373"/><path d="m738.85 61.74c-200.77 81.5-401.55 163-602.33 244.5.6 47.61-13.17 105.79 30.81 95.44l100.98-42.9c32.96-14.92 40.86-23.22 69.13-46.66 28.36-23.52 38.45-35.98 67.75-48.64 23.2-10.03 90.74-35.81 106.91-51.07 31.17-29.41-.6-26.18 69.8-58.2 29.55-13.44 15.87 2.64 38.4-15.15 10.65-8.41 15-1.14 32.33-10.99 26.06-14.79 7.87-3.86 30.77-12.33 10.76-3.97 37.92-14.86 45.15-22.48 8.1-8.53 10.99-19.85 10.3-31.52zm-506.67 289.49c-23.85-7-6.26-60.96 17.62-53.95l5.62 1.81c22.64 6.62 8.58 60.71-18.89 53.5-.7-.08-3.67-1.17-4.35-1.36z" fill="#999"/><g fill="#5f5f5f" fill-rule="nonzero"><path d="m121.38 329.05c2.76-1.47 14.22 2.28-.94 10.79-19.35 10.87-46.55 25.71-68.89 2.81-10.92-11.2-8.57-25.71-8.26-46.79 1.01-68.13 4.8-70.91 67.31-32.19 41.27 25.56 29.02 30.06 29.31 98.71.22 51.72 19.27 38.97 69.21 17.4 100.63-43.48 79.78-33.03 163.45-102.64 32.27-26.85 115.98-43.28 142.91-74.68 21.14-24.63.34-23.05 64.58-52.29 30.8-14.03 16.19 2.24 37.49-14.59 13.45-10.63 14.45.21 37.82-14.35 12.82-7.99 17.48-5.47 40.11-15.2 22.65-9.73 40.39-15.03 38.94-44.09-.92-18.32-18.52-25.86-39.78-39.35-26.75-16.97-23.02-17.03-46.38-8.06l-252.47 99.51c-74.54 28.45-43.77 16.63-84.24 17.15-15.98.2-130.83-75.75-144.26-77.17-3.68-.39-83.85 23.64-89.02 30.78l-1.14 2.91-15.47 39.33c-6.06 13.06-13.55 35.47 9.15 32.14 15.48-2.27 50.74-14.4 60.05-31.9 3.06-5.75 3.62-13.57 9.4-11.42 7.95 2.96-2.56 25.04-24.24 36.52-20.37 10.79-75.06 34.5-68.65-10.51l17.32-47.25c8.21-24.6 13.31-22.21 57.08-36.59 55.49-18.24 41.17-18.8 93.36 11.32 12.95 7.47 89.69 53.04 96.18 52.96 40.53-.49 9.37 10.88 81.31-16.59l252.47-99.47c29.28-11.25 28.42-8.61 69.45 18.63 19.69 13.06 31.45 20.35 28.47 46.5-3.07 26.98-21.68 33.24-44.02 42.83-34.34 14.76-17.4 2.53-44.17 17.73-20.4 11.58-20.99 1.2-34.74 13.1-15.2 13.17-11.61 2-36.34 13.23-69.3 31.47-36.2 26.8-68.6 57.37-26.29 24.81-108.37 44.65-136.9 68.33-93.16 77.36-65.87 60.86-184.15 111.98-27.52 11.89-58.15 24.03-62.42-18.5-2.12-21.14 3.61-77.94-2.45-87.86-6.16-10.09-63.81-44.47-70.08-41.97-8.41 3.35-6.81 37.1-6.98 48.35-.32 21.83-5.1 45.55 24.11 49.34 17.05 2.2 31.01-8.33 45.11-16.26z"/><path d="m76.72 345.79c11.21 7.46-20.62 23.05-22.21-34.19-.21-7.4.13-43.87 3.84-48.88 6.32-8.51 27.85 7.06 38.53 13.61 46.47 28.48 27.74 20.43 30.3 90.83 1.5 41.38 35.65 23.71 33.88 36.22-1.2 8.41-36.56 3.26-41.71-25.2-3.51-19.37 2.86-68.99-1.3-76.04-3.42-5.8-45.32-30.66-52.7-33.02-2 12.84-5.07 62.44 4.97 72.64z"/><path d="m58.17 248.06c-5.46 2.13-8.68-6.15-3.24-8.28l154.79-62.01c5.48-8.53 4.88-6.44-17.16-19.96-11.76-7.21-102.45-63.19-106.59-62.15l-10.19 25.11c-2.11 5.91-14.67 36.05-9.29 39.35 10.17 6.24-10.83 15.58-10.44-3.41.14-6.39 17.22-66.59 27.59-69.62 7.63-2.23 20.57 7.54 32.87 14.82 9.08 5.37 99.94 57.78 103.85 64.62 3.1 5.41-.76 16.82-10.11 21.32z"/><path d="m76.06 83.82c-6.63 4.32-3.03-11.62 11.7-6.29 16.32 5.91 118.3 64.8 130.43 75.2 8.27 7.1.97 22.98-2.05 22.05-5.62-1.74 6.2-12.64-.84-18.68-8.87-7.59-125.86-77.69-133.86-75.14-1.98.63-3.68 1.75-5.38 2.86z"/><path d="m132.68 287.62c-2.72 1.1-4.39-3.02-1.67-4.12l599.56-242.61c2.72-1.1 4.39 3.03 1.67 4.13z"/><path d="m137.35 308.3c-2.71 1.1-4.39-3.02-1.67-4.12l602.34-244.5c2.71-1.1 4.39 3.02 1.67 4.13z"/><path d="m256.07 296.97c26.99 8.36 7.52 66.51-19.33 58.07-25.11-7.91-9.11-64.63 19.33-58.07zm-.97 4.35c-21.32-6.61-37.82 43.17-16.65 49.6 20.68 6.27 37.4-42.83 16.65-49.6z"/><path d="m236.8 350.38c1.44.17 6.12 6.69-5.68 2.84-25.67-8.37-8.66-69.71 23.95-56.45.22.08 5.65 6.32-5.9 2.64-21.45-6.84-39.64 47.76-12.37 50.97z"/><path d="m11.94 192.59c5.19 3.03.44 12.96-7.23 5.61-16.83-16.14 15.41-51.64 34.67-38.24 4.81 3.34-.27 10.65-5.08 7.3-10.96-7.62-33.63 18.14-22.36 25.33z"/><path d="m33.43 166.74c-5.02-3-.46-10.63 4.56-7.62l89.89 54.03c5.02 3 .45 10.62-4.56 7.62z"/><path d="m6.8 199.87c-4.98-3.09-.27-10.65 4.7-7.55l65.27 40.85c4.97 3.11.26 10.65-4.7 7.55z"/><path d="m161.87 98.85c26.05 15.65 130.47 78.9 155.92 81.4 13.32 1.3 23.11-6.48 12.22-15.29-17.28-13.96-148.5-90.09-166.87-94.13-13.19-2.9-39.29.65-19 16.7 2.06 1.63 3.82 2.95 17.73 11.32zm32.17 24.16c-16.81-9.79-53.9-29.88-60.28-39.43-7.94-11.89 12.07-27.17 44.26-11.98 18.31 8.64 155.93 83.51 160.33 96.75 4.45 13.41-12.03 20.12-30.75 14.25-23.66-7.43-88.9-45.22-113.56-59.59z"/><path d="m160.11 65.79c2.92.12 2.75 4.55-.17 4.44-12.53-.49-19.45 4.12-9.62 10.87l155.8 85.56c11.34 4.9 36.81 10.74 22.62-2.72-3.56-3.38 4.55-7.44 8.19 4.09 4.67 14.79-23.58 6.58-32.56 2.7-8.41-3.63-153.45-80.38-160.84-89.77-6.87-8.71 1.43-15.75 16.58-15.17z"/></g></svg>