<?xml version="1.0" encoding="UTF-8"?>
<!DOCTYPE svg PUBLIC "-//W3C//DTD SVG 1.1//EN" "http://www.w3.org/Graphics/SVG/1.1/DTD/svg11.dtd">
<!-- Creator: CorelDRAW 2021.5 -->
<svg xmlns="http://www.w3.org/2000/svg" xml:space="preserve" width="500px" height="225px" version="1.1" style="shape-rendering:geometricPrecision; text-rendering:geometricPrecision; image-rendering:optimizeQuality; fill-rule:evenodd; clip-rule:evenodd"
viewBox="0 0 72.78 32.71"
 xmlns:xlink="http://www.w3.org/1999/xlink"
 xmlns:xodm="http://www.corel.com/coreldraw/odm/2003">
 <defs>
  <style type="text/css">
   <![CDATA[
    .fil1 {fill:dimgray}
    .fil0 {fill:#858585}
    .fil2 {fill:#999999}
    .fil3 {fill:#BFBFBF}
    .fil4 {fill:#5F5F5F;fill-rule:nonzero}
   ]]>
  </style>
 </defs>
 <g id="Слой_x0020_1">
  <metadata id="CorelCorpID_0Corel-Layer"/>
  <g id="_2126725743552">
   <path class="fil0" d="M13.62 15.85c-0.89,0 -2.09,0.47 -2.74,0.98l-2.12 -1.41 -1.22 -0.96c0.7,-0.83 1.75,-1.36 2.92,-1.36 0.6,0 1.1,0.11 1.61,0.35l-1.87 -1.67c-0.69,-0.69 -1.63,-1.11 -2.67,-1.11 -2.09,0 -3.79,1.69 -3.79,3.78 0,1.27 0.72,2.42 1.55,3.03l1 0.83 6.13 5.1 3.05 -4.05 2.53 -0.99 -1.95 -1.64c-0.51,-0.43 -1.13,-0.72 -1.81,-0.83 -0.2,-0.04 -0.41,-0.05 -0.62,-0.05z"/>
   <path class="fil1" d="M10.88 16.83c0.65,-0.51 1.85,-0.98 2.74,-0.98 0.21,0 0.42,0.01 0.62,0.05l-0.88 -0.65 -1.29 -0.95 0 -0.85c-0.51,-0.24 -1.01,-0.35 -1.61,-0.35 -1.17,0 -2.22,0.53 -2.92,1.36l1.22 0.96 2.12 1.41z"/>
   <path class="fil2" d="M36.84 16.76c-1.17,0.47 -2.53,1.02 -4.23,1.68 -3.48,1.37 -8.37,3.27 -11.25,4.38 -2.87,1.11 -3.73,1.42 -4.6,1.74 -0.59,0.93 -1.19,1.86 -1.42,2.89 -0.23,1.03 -0.1,2.16 0.1,2.98 0.2,0.83 0.46,1.35 0.72,1.87 6.65,-2.28 13.3,-4.55 18.83,-6.94 0.89,-0.39 1.74,-0.77 2.56,-1.16 5.98,-2.82 10.21,-5.83 13.02,-8.07 1.72,-1.36 2.91,-2.45 4.03,-3.42 0.72,-0.62 1.4,-1.19 2.19,-1.76 2.02,-1.48 4.69,-2.97 7.39,-4.1 2.7,-1.13 5.45,-1.9 8.19,-2.68l-4.06 -3.76c-3.28,0.78 -6.56,1.56 -9.73,2.89 -3.17,1.33 -6.23,3.21 -8.43,4.9 -1.05,0.81 -1.91,1.58 -2.69,2.29 -0.84,0.78 -1.58,1.48 -2.36,2.09 -1.51,1.17 -3.17,1.99 -5.05,2.82 -0.96,0.43 -1.98,0.86 -3.21,1.36zm-13.54 7.2c0.18,0.1 0.31,0.24 0.37,0.44 0.35,1.18 0.29,2.42 -0.05,3.6 -0.12,0.41 -0.41,0.71 -0.81,0.85l-2.86 1.02c-0.06,0.02 -0.12,0.04 -0.18,0.05 -0.52,0.11 -1.05,-0.11 -1.35,-0.57 -0.58,-0.91 -0.68,-2.43 0.32,-3.59 0.12,-0.15 0.26,-0.28 0.41,-0.42 0.12,-0.09 0.24,-0.16 0.38,-0.22l3.2 -1.19c0.19,-0.07 0.38,-0.06 0.57,0.03z"/>
   <path class="fil0" d="M64.18 6.85c-2.7,1.13 -5.37,2.62 -7.39,4.1 -0.79,0.57 -1.47,1.14 -2.19,1.76 -1.12,0.97 -2.31,2.06 -4.03,3.42 -2.81,2.24 -7.04,5.25 -13.02,8.07 -0.82,0.39 -1.67,0.77 -2.56,1.16 3.57,-1.51 7.14,-3.01 10.12,-4.42 2.98,-1.41 5.37,-2.71 7.29,-3.98 1.93,-1.27 3.38,-2.5 5.09,-3.81 1.71,-1.32 3.69,-2.72 6.16,-3.76 2.47,-1.05 5.45,-1.74 8.42,-2.44 0.1,-0.92 0.2,-1.85 0.3,-2.78 -2.74,0.78 -5.49,1.55 -8.19,2.68z"/>
   <path class="fil3" d="M22.06 25.62c0.51,-0.22 0.83,-0.56 1.01,-0.85 0.17,-0.3 0.2,-0.55 0.23,-0.81 -0.19,-0.09 -0.38,-0.1 -0.57,-0.03l-3.2 1.19c-0.14,0.06 -0.26,0.13 -0.38,0.22 -0.15,0.14 -0.29,0.27 -0.41,0.42 0.07,0.01 0.14,0.03 0.21,0.04 0.4,0.07 0.82,0.14 1.32,0.14 0.58,0 1.28,-0.1 1.79,-0.32z"/>
   <path class="fil2" d="M23.07 24.77c-0.18,0.29 -0.5,0.63 -1.01,0.85 -0.51,0.22 -1.21,0.32 -1.79,0.32 -0.5,0 -0.92,-0.07 -1.32,-0.14 0.44,0.13 0.88,0.27 1.25,0.62 0.4,0.35 0.71,0.93 0.73,1.52 0.02,0.58 -0.25,1.18 -0.5,1.51 -0.24,0.33 -0.45,0.4 -0.66,0.47 0.06,-0.01 0.12,-0.03 0.18,-0.05l2.86 -1.02c0.4,-0.14 0.69,-0.44 0.81,-0.85 0.34,-1.18 0.4,-2.42 0.05,-3.6 -0.06,-0.2 -0.19,-0.34 -0.37,-0.44 -0.03,0.26 -0.06,0.51 -0.23,0.81z"/>
   <path class="fil0" d="M20.93 27.94c-0.02,-0.59 -0.33,-1.17 -0.73,-1.52 -0.37,-0.35 -0.81,-0.49 -1.25,-0.62 -0.07,-0.01 -0.14,-0.03 -0.21,-0.04 -1,1.16 -0.9,2.68 -0.32,3.59 0.3,0.46 0.83,0.68 1.35,0.57 0.21,-0.07 0.42,-0.14 0.66,-0.47 0.25,-0.33 0.52,-0.93 0.5,-1.51z"/>
   <path class="fil3" d="M16.76 24.56c0.87,-0.32 1.73,-0.63 4.6,-1.74 2.88,-1.11 7.77,-3.01 11.25,-4.38 1.7,-0.66 3.06,-1.21 4.23,-1.68 1.23,-0.5 2.25,-0.93 3.21,-1.36 1.88,-0.83 3.54,-1.65 5.05,-2.82 0.78,-0.61 1.52,-1.31 2.36,-2.09 -0.72,0.42 -1.44,0.83 -2.34,1.12 -0.9,0.28 -1.97,0.44 -3.52,0.82 -1.56,0.38 -3.58,0.99 -8.15,2.72 -1.96,0.74 -4.39,1.69 -7.08,2.75 -3.54,1.41 -7.54,3.01 -11.55,4.62 -0.05,0.02 -0.1,0.05 -0.15,0.07 0.7,0.65 1.39,1.31 2.09,1.97z"/>
   <path class="fil0" d="M16.76 24.56c-0.7,-0.66 -1.39,-1.32 -2.09,-1.97 -0.42,0.57 -0.84,1.15 -1.17,1.8 -0.13,0.26 -0.24,0.53 -0.33,0.81 -0.3,0.95 -0.36,2.06 -0.31,2.81l0.1 0.7c0.1,0.4 0.3,0.69 0.69,1.13 0.57,0.63 1.54,1.54 2.51,2.46 -0.26,-0.52 -0.52,-1.04 -0.72,-1.87 -0.2,-0.82 -0.33,-1.95 -0.1,-2.98 0.23,-1.03 0.83,-1.96 1.42,-2.89z"/>
   <path class="fil0" d="M14.82 22.52l1.93 -2.39 -1.28 -0.77 -3.05 4.05 -0.16 0.21 1.24 0.77c0.33,-0.65 0.75,-1.23 1.17,-1.8 0.05,-0.02 0.1,-0.05 0.15,-0.07z"/>
   <path class="fil1" d="M13.5 24.39l-1.24 -0.77 -0.02 0.02 0.62 4.37c-0.05,-0.75 0.01,-1.86 0.31,-2.81 0.09,-0.28 0.2,-0.55 0.33,-0.81z"/>
   <polygon class="fil0" points="1.74,13.37 4.59,9.28 3.32,8.51 0.56,12.59 "/>
   <polygon class="fil1" points="1.61,17.78 1.74,13.37 0.56,12.59 0.54,12.61 0.41,17.01 "/>
   <polygon class="fil3" points="4.59,9.28 13.07,5.88 11.77,5.21 3.32,8.51 "/>
   <path class="fil2" d="M13.07 5.88l-8.48 3.4 -2.85 4.09 -0.13 4.41 2.44 1.57 2.24 -1.04 -1 -0.83c-0.83,-0.61 -1.55,-1.76 -1.55,-3.03 0,-2.09 1.7,-3.78 3.79,-3.78 1.04,0 1.98,0.42 2.67,1.11l2.18 1.81 -0.31 0.71 1.08 0.8 0.31 -0.6c2.07,-4.29 2.07,-7.17 -0.27,-8.56l-0.12 -0.06z"/>
   <polygon class="fil3" points="24.22,15.91 18,18.37 15.47,19.36 16.75,20.13 25.28,16.92 "/>
   <path class="fil2" d="M25.28 16.92l-8.53 3.21 -1.93 2.39c4.01,-1.61 8.01,-3.21 11.55,-4.62 -0.17,-0.15 -0.87,-0.85 -1.09,-0.98z"/>
   <path class="fil4" d="M6.12 17.94c0.21,-0.1 0.45,-0.01 0.54,0.2 0.1,0.2 0.01,0.45 -0.2,0.54l-2.24 1.04c-0.13,0.07 -0.29,0.05 -0.4,-0.03l-3.63 -2.33c-0.13,-0.09 -0.2,-0.24 -0.19,-0.38l0.13 -4.38c0.01,-0.08 0.03,-0.16 0.07,-0.22l2.78 -4.1c0.05,-0.08 0.12,-0.13 0.2,-0.16l8.44 -3.29c0.11,-0.04 0.23,-0.03 0.33,0.02l1.45 0.74c1.28,0.76 1.89,1.99 1.91,3.59 0.02,1.59 -0.55,3.55 -1.64,5.8 -0.09,0.2 -0.34,0.29 -0.54,0.19 -0.21,-0.1 -0.29,-0.34 -0.19,-0.55 1.03,-2.13 1.57,-3.97 1.55,-5.43 -0.02,-1.3 -0.5,-2.29 -1.5,-2.89l-1.25 -0.64 -8.15 3.18 -2.64 3.9 -0.12 4.05 3.25 2.09 2.04 -0.94z"/>
   <path class="fil4" d="M1.81 17.79c0,0.11 -0.09,0.2 -0.21,0.2 -0.11,-0.01 -0.2,-0.1 -0.19,-0.21l0.12 -4.42c0,-0.04 0.02,-0.08 0.04,-0.11l2.85 -4.09c0.03,-0.03 0.06,-0.06 0.1,-0.07l8.48 -3.4c0.1,-0.04 0.22,0.01 0.26,0.12 0.04,0.1 -0.01,0.22 -0.11,0.27l-8.43 3.37 -2.78 3.99 -0.13 4.35z"/>
   <path class="fil4" d="M1.85 13.2c0.09,0.06 0.12,0.19 0.06,0.28 -0.07,0.1 -0.19,0.12 -0.29,0.06l-1.18 -0.78c-0.09,-0.06 -0.12,-0.19 -0.05,-0.28 0.06,-0.1 0.19,-0.12 0.28,-0.06l1.18 0.78z"/>
   <path class="fil4" d="M4.7 9.1c0.09,0.06 0.13,0.19 0.07,0.28 -0.06,0.1 -0.19,0.13 -0.28,0.07l-1.28 -0.77c-0.1,-0.05 -0.13,-0.18 -0.07,-0.28 0.06,-0.09 0.19,-0.13 0.28,-0.07l1.28 0.77z"/>
   <path class="fil4" d="M13.37 28.66c0.03,0.22 -0.13,0.43 -0.35,0.46 -0.23,0.03 -0.44,-0.13 -0.47,-0.35l-0.71 -5.07c-0.02,-0.11 0.01,-0.22 0.07,-0.3l3.23 -4.28c0.05,-0.07 0.11,-0.11 0.18,-0.14l8.75 -3.45c0.16,-0.07 0.34,-0.02 0.46,0.1l1.01 0.97c0.22,0.15 0.62,0.54 0.89,0.8l0.21 0.2c0.17,0.15 0.18,0.41 0.03,0.58 -0.15,0.17 -0.41,0.18 -0.58,0.03l-0.23 -0.22c-0.26,-0.26 -0.66,-0.65 -0.78,-0.72 -0.03,-0.01 -0.06,-0.03 -0.08,-0.05l-0.87 -0.83 -8.4 3.31 -3.06 4.06 0.7 4.9z"/>
   <path class="fil4" d="M14.98 22.65c-0.07,0.09 -0.2,0.1 -0.29,0.03 -0.09,-0.07 -0.1,-0.2 -0.03,-0.28l1.93 -2.4c0.02,-0.02 0.05,-0.05 0.09,-0.06l8.53 -3.21c0.11,-0.04 0.23,0.01 0.27,0.12 0.04,0.1 -0.02,0.22 -0.12,0.26l-8.49 3.2 -1.89 2.34z"/>
   <path class="fil4" d="M13.61 24.21c0.1,0.06 0.13,0.19 0.07,0.28 -0.06,0.1 -0.19,0.13 -0.28,0.07l-1.25 -0.76c-0.1,-0.06 -0.13,-0.19 -0.07,-0.28 0.06,-0.1 0.19,-0.13 0.28,-0.07l1.25 0.76z"/>
   <path class="fil4" d="M16.85 19.96c0.1,0.06 0.13,0.18 0.07,0.28 -0.05,0.1 -0.18,0.13 -0.28,0.07l-1.27 -0.77c-0.1,-0.06 -0.13,-0.18 -0.07,-0.28 0.06,-0.1 0.18,-0.13 0.28,-0.07l1.27 0.77z"/>
   <path class="fil4" d="M5.53 17.14c0.18,0.14 0.22,0.39 0.09,0.58 -0.13,0.18 -0.39,0.22 -0.57,0.09 -0.49,-0.35 -0.94,-0.88 -1.26,-1.49 -0.28,-0.56 -0.46,-1.2 -0.46,-1.87 0,-1.15 0.47,-2.2 1.23,-2.96l0.02 -0.02c0.76,-0.75 1.8,-1.21 2.95,-1.21 0.56,0 1.1,0.11 1.6,0.32 0.51,0.21 0.97,0.52 1.36,0.91 0.16,0.16 0.16,0.41 0,0.58 -0.16,0.16 -0.42,0.16 -0.58,0 -0.31,-0.31 -0.68,-0.57 -1.09,-0.74 -0.4,-0.16 -0.84,-0.25 -1.29,-0.25 -0.93,0 -1.76,0.37 -2.37,0.97l-0.02 0.02c-0.61,0.61 -0.99,1.45 -0.99,2.38 0,0.54 0.15,1.05 0.37,1.49 0.26,0.5 0.62,0.92 1.01,1.2z"/>
   <path class="fil4" d="M15.79 17.04c-0.18,-0.14 -0.2,-0.4 -0.05,-0.58 0.14,-0.17 0.4,-0.19 0.57,-0.05l1.95 1.64c0.18,0.15 0.2,0.4 0.06,0.58 -0.15,0.17 -0.41,0.2 -0.58,0.05l-1.95 -1.64z"/>
   <path class="fil4" d="M5.03 17.79c-0.18,-0.14 -0.2,-0.4 -0.06,-0.58 0.15,-0.17 0.41,-0.19 0.58,-0.05l7.13 5.94c0.17,0.14 0.2,0.4 0.05,0.57 -0.14,0.18 -0.4,0.2 -0.58,0.06l-7.12 -5.94z"/>
   <path class="fil4" d="M68.03 0.71c-0.16,-0.15 -0.17,-0.41 -0.02,-0.58 0.16,-0.16 0.42,-0.17 0.58,-0.02l4.06 3.76c0.16,0.16 0.17,0.42 0.02,0.58 -0.16,0.17 -0.42,0.18 -0.58,0.03l-4.06 -3.77z"/>
   <path class="fil4" d="M68.22 0.01c0.22,-0.05 0.44,0.09 0.49,0.31 0.05,0.22 -0.08,0.44 -0.3,0.49l-0.01 0c-3.26,0.78 -6.52,1.56 -9.66,2.87 -1.48,0.62 -2.95,1.37 -4.3,2.16 -1.51,0.87 -2.89,1.81 -4.04,2.69 -1.2,0.92 -2.15,1.8 -3.01,2.59 -0.71,0.65 -1.35,1.25 -2.04,1.78 -0.77,0.6 -1.58,1.11 -2.44,1.58 -0.86,0.46 -1.75,0.88 -2.69,1.3 -0.94,0.41 -1.94,0.83 -3.13,1.32 -1.17,0.48 -2.56,1.03 -4.33,1.72 -1.55,0.61 -3.53,1.39 -5.53,2.16 -2.13,0.83 -4.2,1.64 -5.72,2.22 -2.78,1.07 -3.67,1.4 -4.48,1.7 -0.26,0.42 -0.53,0.84 -0.75,1.26 -0.24,0.45 -0.43,0.9 -0.54,1.38 -0.09,0.42 -0.12,0.87 -0.11,1.3 0.02,0.54 0.1,1.06 0.21,1.5 0.09,0.39 0.2,0.71 0.31,0.99 0.07,0.16 0.14,0.32 0.22,0.47 3.73,-1.28 7.46,-2.56 11,-3.87 3.63,-1.34 7.04,-2.7 10.01,-4.1 2.97,-1.4 5.5,-2.85 7.65,-4.23 2.14,-1.37 3.89,-2.67 5.29,-3.79 1.31,-1.04 2.3,-1.91 3.19,-2.69 1.04,-0.91 1.95,-1.71 3.04,-2.5 1.03,-0.76 2.23,-1.51 3.51,-2.23 1.26,-0.7 2.61,-1.35 3.96,-1.92 2.73,-1.14 5.48,-1.91 8.24,-2.69 0.21,-0.06 0.44,0.07 0.5,0.28 0.06,0.22 -0.06,0.45 -0.28,0.51 -2.73,0.77 -5.46,1.54 -8.14,2.66 -1.33,0.56 -2.65,1.2 -3.88,1.88 -1.25,0.69 -2.42,1.43 -3.43,2.17 -1.07,0.78 -1.96,1.56 -2.98,2.45 -0.9,0.8 -1.91,1.69 -3.22,2.73 -1.41,1.12 -3.19,2.44 -5.36,3.83 -2.17,1.4 -4.74,2.86 -7.74,4.28 -3,1.42 -6.44,2.79 -10.08,4.14 -3.63,1.34 -7.5,2.66 -11.36,3.98 -0.19,0.06 -0.41,-0.02 -0.5,-0.21 -0.13,-0.27 -0.27,-0.54 -0.39,-0.84 -0.14,-0.32 -0.26,-0.68 -0.36,-1.11 -0.11,-0.48 -0.21,-1.05 -0.23,-1.66 -0.01,-0.5 0.02,-1.01 0.13,-1.51 0.13,-0.56 0.35,-1.08 0.61,-1.58 0.26,-0.5 0.57,-0.97 0.87,-1.44 0.04,-0.07 0.1,-0.12 0.17,-0.15l0.04 -0.02c0.89,-0.32 1.78,-0.65 4.59,-1.73 1.51,-0.59 3.58,-1.39 5.72,-2.22 1.82,-0.71 3.78,-1.47 5.52,-2.16 1.72,-0.68 3.11,-1.23 4.32,-1.72 1.19,-0.49 2.18,-0.9 3.11,-1.32 0.93,-0.41 1.81,-0.82 2.63,-1.26 0.82,-0.45 1.59,-0.93 2.33,-1.5 0.65,-0.51 1.29,-1.1 1.98,-1.74 0.87,-0.8 1.83,-1.69 3.07,-2.64 1.17,-0.91 2.59,-1.86 4.12,-2.75 1.39,-0.81 2.89,-1.57 4.41,-2.21 3.2,-1.34 6.49,-2.12 9.78,-2.91l0.01 0z"/>
   <path class="fil4" d="M35.15 25.73c-0.21,0.09 -0.45,-0.01 -0.53,-0.22 -0.09,-0.2 0.01,-0.44 0.22,-0.53 1.79,-0.76 3.59,-1.52 5.27,-2.24 1.69,-0.74 3.32,-1.46 4.82,-2.17 1.49,-0.7 2.83,-1.38 4.03,-2.03 1.2,-0.66 2.27,-1.3 3.22,-1.93 1.38,-0.91 2.54,-1.82 3.73,-2.75 0.42,-0.33 0.84,-0.66 1.33,-1.04 0.87,-0.66 1.8,-1.35 2.83,-2 1.03,-0.65 2.16,-1.28 3.42,-1.81 2.51,-1.06 5.5,-1.76 8.48,-2.46l0.01 0c0.23,-0.05 0.44,0.09 0.49,0.32 0.05,0.22 -0.09,0.44 -0.31,0.48l-0.01 0.01c-2.95,0.69 -5.91,1.38 -8.34,2.41 -1.21,0.51 -2.3,1.11 -3.3,1.74 -1.01,0.64 -1.92,1.31 -2.77,1.96 -0.42,0.33 -0.88,0.68 -1.32,1.03 -1.2,0.94 -2.35,1.85 -3.79,2.8 -0.97,0.64 -2.06,1.29 -3.28,1.96 -1.22,0.66 -2.58,1.35 -4.07,2.05 -1.47,0.7 -3.12,1.43 -4.85,2.18 -1.74,0.75 -3.51,1.5 -5.28,2.24z"/>
   <path class="fil4" d="M71.96 4.13c0.02,-0.22 0.23,-0.39 0.45,-0.36 0.23,0.02 0.39,0.22 0.37,0.45l-0.3 2.78c-0.03,0.22 -0.23,0.38 -0.45,0.36 -0.23,-0.02 -0.39,-0.23 -0.37,-0.45l0.3 -2.78z"/>
   <path class="fil4" d="M14.82 22.97c-0.21,0.08 -0.45,-0.02 -0.53,-0.23 -0.09,-0.21 0.01,-0.45 0.22,-0.54 3.49,-1.39 6.98,-2.8 10.35,-4.14 3.26,-1.29 6.18,-2.44 8.44,-3.3 2.3,-0.87 3.95,-1.45 5.23,-1.87 1.28,-0.41 2.18,-0.66 2.97,-0.85 0.66,-0.17 1.23,-0.29 1.74,-0.4 0.69,-0.14 1.26,-0.27 1.75,-0.42 0.86,-0.28 1.56,-0.68 2.27,-1.08 0.12,-0.07 0.26,-0.07 0.38,-0.02l0.02 0.02c0.07,0.04 0.13,0.09 0.17,0.17 0.04,0.09 0.05,0.19 0.03,0.28l0 0c-0.03,0.11 -0.09,0.2 -0.2,0.26 -0.74,0.42 -1.48,0.85 -2.42,1.15 -0.55,0.17 -1.13,0.3 -1.83,0.45 -0.51,0.1 -1.08,0.22 -1.72,0.38 -0.76,0.19 -1.65,0.43 -2.91,0.84 -1.27,0.42 -2.92,1 -5.19,1.86 -2.3,0.87 -5.21,2.02 -8.43,3.29 -3.1,1.24 -6.72,2.69 -10.34,4.15z"/>
   <path class="fil4" d="M14.34 22.34c0.13,-0.18 0.39,-0.22 0.57,-0.08 0.18,0.13 0.22,0.39 0.09,0.57 -0.57,0.78 -1.14,1.57 -1.44,2.49 -0.13,0.42 -0.21,0.87 -0.26,1.31 -0.06,0.54 -0.05,1.06 -0.02,1.46 0.02,0.32 0.07,0.56 0.16,0.76 0.1,0.22 0.26,0.43 0.52,0.71 0.28,0.31 0.66,0.69 1.08,1.11 0.49,0.47 0.94,0.9 1.4,1.33 0.16,0.16 0.17,0.42 0.02,0.58 -0.16,0.17 -0.42,0.17 -0.58,0.02 -0.52,-0.49 -1.03,-0.97 -1.41,-1.34 -0.44,-0.43 -0.83,-0.83 -1.12,-1.15 -0.31,-0.34 -0.51,-0.61 -0.65,-0.91 -0.14,-0.31 -0.21,-0.63 -0.24,-1.05 -0.04,-0.44 -0.04,-1.01 0.02,-1.61 0.06,-0.48 0.15,-0.99 0.3,-1.46 0.34,-1.06 0.95,-1.9 1.55,-2.73l0.01 -0.01z"/>
   <path class="fil4" d="M14.53 22.73c-0.09,-0.07 -0.09,-0.2 -0.01,-0.28 0.07,-0.09 0.2,-0.09 0.29,-0.01l2.09 1.97c0.09,0.08 0.09,0.21 0.01,0.29 -0.08,0.08 -0.21,0.09 -0.29,0.01l-2.09 -1.98z"/>
   <path class="fil4" d="M19.88 29.68l2.86 -1.02c0.17,-0.06 0.32,-0.16 0.43,-0.28 0.11,-0.12 0.2,-0.27 0.25,-0.44 0.17,-0.59 0.27,-1.19 0.28,-1.79 0.01,-0.57 -0.06,-1.13 -0.23,-1.69 -0.02,-0.07 -0.05,-0.13 -0.1,-0.18 -0.04,-0.05 -0.1,-0.1 -0.16,-0.13l-0.01 -0.01c-0.07,-0.03 -0.13,-0.04 -0.2,-0.05 -0.07,0 -0.13,0.01 -0.2,0.04l-3.19 1.19c-0.06,0.02 -0.12,0.04 -0.17,0.08 -0.05,0.02 -0.1,0.06 -0.15,0.1l-0.01 0c-0.61,0.52 -0.93,1.14 -1.04,1.76 -0.14,0.73 0.03,1.46 0.36,1.98 0.13,0.21 0.33,0.37 0.56,0.44 0.22,0.08 0.48,0.08 0.72,0zm3 -0.64l-2.86 1.02c-0.33,0.12 -0.68,0.12 -0.99,0.01 -0.31,-0.1 -0.59,-0.32 -0.78,-0.61 -0.38,-0.6 -0.57,-1.44 -0.41,-2.28 0.12,-0.7 0.49,-1.41 1.18,-1.99l0 0c0.07,-0.06 0.14,-0.11 0.21,-0.15 0.07,-0.04 0.15,-0.08 0.23,-0.11l3.19 -1.19c0.13,-0.04 0.25,-0.06 0.37,-0.06l0.01 0c0.12,0.01 0.23,0.04 0.35,0.1l0.01 0c0.12,0.06 0.22,0.14 0.3,0.23 0.08,0.1 0.14,0.21 0.17,0.33 0.18,0.6 0.26,1.2 0.25,1.81 -0.01,0.64 -0.11,1.28 -0.3,1.9 -0.07,0.24 -0.18,0.45 -0.34,0.61 -0.16,0.17 -0.36,0.3 -0.59,0.38z"/>
   <path class="fil4" d="M18.7 25.96c-0.12,-0.02 -0.19,-0.13 -0.17,-0.24 0.03,-0.11 0.13,-0.19 0.25,-0.16l0.01 0c0.46,0.09 0.92,0.18 1.48,0.17 0.29,0 0.62,-0.02 0.94,-0.08 0.27,-0.05 0.54,-0.12 0.77,-0.22 0.21,-0.09 0.38,-0.2 0.53,-0.32 0.17,-0.15 0.3,-0.3 0.38,-0.45 0.15,-0.25 0.18,-0.49 0.2,-0.72l0.01 -0.01c0.02,-0.12 0.13,-0.19 0.24,-0.17 0.11,0.03 0.18,0.13 0.16,0.24 -0.03,0.27 -0.06,0.54 -0.26,0.87 -0.1,0.18 -0.26,0.37 -0.47,0.55 -0.17,0.15 -0.38,0.28 -0.63,0.39 -0.26,0.11 -0.56,0.19 -0.86,0.24 -0.34,0.06 -0.69,0.09 -1.01,0.09 -0.6,0.01 -1.08,-0.09 -1.56,-0.18l-0.01 0z"/>
   <path class="fil4" d="M18.82 25.97c-0.11,-0.03 -0.17,-0.14 -0.14,-0.25 0.03,-0.11 0.14,-0.17 0.25,-0.14 0.24,0.07 0.48,0.14 0.72,0.25l0.01 0c0.24,0.11 0.47,0.24 0.68,0.43 0.23,0.21 0.43,0.48 0.57,0.78 0.13,0.27 0.22,0.58 0.23,0.89 0.01,0.29 -0.05,0.57 -0.13,0.83 -0.11,0.32 -0.27,0.61 -0.41,0.81 -0.28,0.38 -0.52,0.46 -0.76,0.54 -0.02,0.01 -0.05,0.01 -0.07,0.01 -0.11,0.01 -0.2,-0.09 -0.2,-0.2 0,-0.1 0.06,-0.18 0.15,-0.2 0.18,-0.06 0.35,-0.12 0.55,-0.39 0.12,-0.17 0.26,-0.42 0.35,-0.7 0.07,-0.21 0.12,-0.45 0.11,-0.69 -0.01,-0.25 -0.08,-0.5 -0.19,-0.73 -0.12,-0.25 -0.29,-0.47 -0.47,-0.64 -0.18,-0.16 -0.37,-0.27 -0.57,-0.36l-0.01 -0.01c-0.22,-0.09 -0.45,-0.16 -0.67,-0.23z"/>
   <path class="fil4" d="M7.86 14.73c-0.15,0.17 -0.41,0.19 -0.58,0.05 -0.17,-0.15 -0.2,-0.41 -0.05,-0.58 0.39,-0.47 0.88,-0.85 1.45,-1.12 0.54,-0.25 1.15,-0.39 1.78,-0.39 0.32,0 0.63,0.03 0.93,0.09 0.29,0.07 0.58,0.17 0.86,0.31 0.2,0.1 0.28,0.34 0.18,0.54 -0.1,0.21 -0.34,0.29 -0.54,0.19 -0.23,-0.11 -0.45,-0.19 -0.68,-0.24 -0.23,-0.05 -0.48,-0.07 -0.75,-0.07 -0.52,0 -1,0.11 -1.44,0.32 -0.45,0.21 -0.84,0.52 -1.16,0.9z"/>
   <path class="fil4" d="M11.43 17.37c-0.18,0.14 -0.44,0.11 -0.58,-0.07 -0.14,-0.18 -0.11,-0.44 0.07,-0.58 0.37,-0.29 0.91,-0.59 1.48,-0.81l0.04 -0.01c0.49,-0.19 1.01,-0.31 1.47,-0.31 0.5,0 0.91,0.05 1.3,0.18 0.39,0.13 0.73,0.33 1.1,0.64 0.18,0.15 0.2,0.4 0.06,0.58 -0.15,0.17 -0.41,0.2 -0.58,0.05 -0.29,-0.24 -0.55,-0.4 -0.84,-0.5 -0.29,-0.09 -0.62,-0.13 -1.04,-0.13 -0.36,0 -0.78,0.1 -1.18,0.25l-0.04 0.02c-0.49,0.18 -0.95,0.44 -1.26,0.69z"/>
   <path class="fil4" d="M7.31 14.8c-0.19,-0.13 -0.23,-0.39 -0.1,-0.58 0.13,-0.18 0.39,-0.22 0.57,-0.09l3.63 2.58c0.18,0.13 0.23,0.39 0.1,0.57 -0.13,0.19 -0.39,0.23 -0.58,0.1l-3.62 -2.58z"/>
   <path class="fil4" d="M11.65 13.45c0,-0.22 0.19,-0.41 0.42,-0.41 0.22,0 0.41,0.19 0.41,0.41l0 0.85c0,0.23 -0.19,0.42 -0.41,0.42 -0.23,0 -0.42,-0.19 -0.42,-0.42l0 -0.85z"/>
   <path class="fil4" d="M8.91 15.33c-0.08,0.08 -0.21,0.08 -0.29,-0.01 -0.07,-0.08 -0.07,-0.21 0.01,-0.29 0.43,-0.4 0.95,-0.66 1.51,-0.81 0.63,-0.17 1.31,-0.2 1.93,-0.12 0.12,0.01 0.2,0.11 0.18,0.23 -0.01,0.11 -0.11,0.19 -0.22,0.18 -0.58,-0.07 -1.2,-0.05 -1.78,0.11 -0.5,0.13 -0.97,0.36 -1.34,0.71z"/>
   <path class="fil4" d="M11.83 14.64c-0.18,-0.13 -0.23,-0.38 -0.1,-0.57 0.13,-0.19 0.38,-0.23 0.57,-0.1l2.36 1.63c0.19,0.12 0.23,0.38 0.11,0.57 -0.13,0.18 -0.39,0.23 -0.57,0.1l-2.37 -1.63z"/>
   <path class="fil4" d="M12.34 13.15c0.17,0.15 0.18,0.41 0.03,0.58 -0.15,0.17 -0.41,0.18 -0.58,0.03l-1.87 -1.68c-0.16,-0.15 -0.18,-0.41 -0.03,-0.58 0.16,-0.17 0.42,-0.18 0.58,-0.03l1.87 1.68z"/>
  </g>
 </g>
</svg>
