<?xml version="1.0" encoding="UTF-8"?>
<!DOCTYPE svg PUBLIC "-//W3C//DTD SVG 1.1//EN" "http://www.w3.org/Graphics/SVG/1.1/DTD/svg11.dtd">
<!-- Creator: CorelDRAW 2021.5 -->
<svg xmlns="http://www.w3.org/2000/svg" xml:space="preserve" width="500px" height="243px" version="1.1" style="shape-rendering:geometricPrecision; text-rendering:geometricPrecision; image-rendering:optimizeQuality; fill-rule:evenodd; clip-rule:evenodd"
viewBox="0 0 55.76 27.15"
 xmlns:xlink="http://www.w3.org/1999/xlink"
 xmlns:xodm="http://www.corel.com/coreldraw/odm/2003">
 <defs>
  <style type="text/css">
   <![CDATA[
    .fil5 {fill:dimgray}
    .fil4 {fill:#737373}
    .fil3 {fill:#858585}
    .fil6 {fill:#8C8C8C}
    .fil2 {fill:#999999}
    .fil0 {fill:#BFBFBF}
    .fil1 {fill:#5F5F5F;fill-rule:nonzero}
   ]]>
  </style>
 </defs>
 <g id="Слой_x0020_1">
  <metadata id="CorelCorpID_0Corel-Layer"/>
  <g id="_2126724466160">
   <path class="fil0" d="M13.86 25.56c2.68,-1.01 7.71,-2.9 10.26,-3.87 2.56,-0.96 2.65,-0.99 2.75,-1 0.11,-0.02 0.23,-0.01 0.47,0.05 0.23,0.07 0.57,0.19 0.82,0.27 0.24,0.08 0.39,0.1 0.52,0.11 0.13,0.02 0.24,0.01 0.42,-0.03 0.17,-0.04 0.41,-0.13 0.96,-0.33 0.55,-0.19 1.41,-0.51 1.86,-0.68 0.45,-0.18 0.5,-0.22 0.54,-0.28 0.03,-0.06 0.05,-0.14 0.06,-0.22 0,-0.08 -0.01,-0.16 -0.07,-0.3 -0.06,-0.14 -0.17,-0.33 -0.39,-0.66 -0.22,-0.33 -0.56,-0.8 -0.76,-1.1 -0.19,-0.3 -0.25,-0.43 -0.29,-0.53 -0.04,-0.11 -0.05,-0.19 -0.04,-0.28 0.01,-0.08 0.05,-0.17 0.12,-0.25 0.07,-0.08 0.19,-0.14 0.49,-0.28 0.31,-0.14 0.81,-0.36 1.32,-0.57 0.51,-0.22 1.04,-0.44 1.59,-0.69 0.54,-0.25 1.1,-0.54 1.82,-0.93 0.73,-0.38 1.61,-0.86 2.41,-1.29 0.81,-0.42 1.54,-0.79 2.53,-1.22 1,-0.42 2.28,-0.9 3.63,-1.42 1.35,-0.51 2.78,-1.05 4.08,-1.55 1.3,-0.49 2.47,-0.93 3.49,-1.32 1.02,-0.39 1.9,-0.72 2.37,-0.9 0.46,-0.18 0.52,-0.21 0.56,-0.24 0.04,-0.03 0.06,-0.07 0.07,-0.13 0,-0.07 0,-0.17 0,-0.61 0,-0.44 0,-1.22 -0.01,-1.66 -0.01,-0.43 -0.03,-0.52 -0.09,-0.65 -0.05,-0.13 -0.14,-0.3 -0.24,-0.43 -0.09,-0.13 -0.18,-0.23 -0.36,-0.4 -0.17,-0.16 -0.43,-0.4 -0.73,-0.63 -0.31,-0.22 -0.66,-0.45 -0.99,-0.65 -0.33,-0.2 -0.63,-0.36 -0.87,-0.46 -0.23,-0.1 -0.4,-0.12 -0.56,-0.11 -0.16,0 -0.31,0.04 -2.52,0.84 -2.2,0.81 -6.46,2.38 -8.8,3.24 -2.34,0.87 -2.77,1.03 -3.41,1.24 -0.63,0.21 -1.46,0.47 -2.78,0.85 -1.32,0.37 -3.13,0.87 -4.35,1.21 -1.22,0.33 -1.84,0.5 -2.67,0.78 -0.84,0.27 -1.87,0.65 -5.83,2.13 -3.96,1.47 -10.84,4.03 -17.73,6.6 0.41,0.21 0.82,0.42 1.22,0.63 -0.27,0.13 -0.54,0.26 -0.8,0.48 -0.25,0.22 -0.49,0.52 -0.66,0.8 -0.17,0.28 -0.28,0.52 -0.4,0.74 -0.13,0.21 -0.27,0.4 -0.45,0.55 -0.19,0.15 -0.42,0.26 -0.65,0.35 -0.24,0.09 -0.47,0.16 -0.71,0.22 -0.24,0.06 -0.49,0.11 -0.75,0.15 0.85,0.43 1.7,0.86 2.54,1.29 0.39,-0.06 0.78,-0.11 1.14,-0.19 0.35,-0.07 0.68,-0.15 0.92,-0.24 0.24,-0.1 0.41,-0.21 0.56,-0.38 0.14,-0.17 0.27,-0.41 0.38,-0.63 0.1,-0.22 0.18,-0.43 0.27,-0.61 0.09,-0.18 0.19,-0.34 0.33,-0.49 0.13,-0.15 0.31,-0.28 0.51,-0.39 0.19,-0.1 0.41,-0.16 0.62,-0.23 0.34,0.13 0.67,0.26 0.93,0.39 0.26,0.14 0.44,0.27 0.58,0.44 0.14,0.16 0.23,0.36 0.32,0.66 0.08,0.3 0.17,0.71 0.25,1.54 0.07,0.82 0.14,2.07 0.19,2.86 0.05,0.79 0.08,1.13 0.13,1.34 0.06,0.21 0.13,0.28 0.23,0.32 0.09,0.03 0.2,0.03 0.42,-0.03 0.22,-0.07 0.55,-0.2 3.23,-1.22z"/>
   <path class="fil1" d="M13.75 25.27c2.68,-1.01 7.7,-2.91 10.26,-3.87l0.03 -0.01c2.56,-0.96 2.65,-1 2.79,-1.02 0.08,-0.01 0.16,-0.01 0.26,0 0.09,0.01 0.19,0.03 0.33,0.07 0.15,0.04 0.33,0.1 0.51,0.16l0.32 0.11c0.11,0.03 0.2,0.06 0.28,0.07 0.07,0.02 0.13,0.03 0.18,0.03 0.05,0.01 0.09,0.01 0.14,0 0.05,0 0.1,-0.01 0.17,-0.02 0.08,-0.02 0.17,-0.05 0.32,-0.1 0.17,-0.06 0.36,-0.13 0.61,-0.22l0.97 -0.35c0.35,-0.13 0.69,-0.26 0.88,-0.34 0.22,-0.08 0.33,-0.13 0.39,-0.16l0.01 -0.01c0,-0.02 0,-0.03 0,-0.05 0,-0.02 0,-0.03 0,-0.04 0,-0.03 -0.02,-0.06 -0.04,-0.11l-0.01 -0.02c-0.02,-0.06 -0.06,-0.12 -0.11,-0.21 -0.06,-0.1 -0.14,-0.23 -0.24,-0.39 -0.12,-0.18 -0.25,-0.37 -0.38,-0.55 -0.14,-0.19 -0.27,-0.38 -0.38,-0.55 -0.1,-0.15 -0.17,-0.27 -0.22,-0.36 -0.05,-0.1 -0.08,-0.17 -0.11,-0.24l0 -0.02c-0.03,-0.07 -0.04,-0.13 -0.05,-0.18l0 -0.02c-0.01,-0.06 -0.01,-0.13 0,-0.2 0.01,-0.07 0.03,-0.15 0.07,-0.23 0.03,-0.07 0.07,-0.13 0.13,-0.19 0.06,-0.06 0.13,-0.12 0.23,-0.18 0.08,-0.04 0.19,-0.1 0.36,-0.18 0.14,-0.06 0.32,-0.14 0.54,-0.24 0.25,-0.1 0.52,-0.22 0.79,-0.33l0.19 -0.08c0.44,-0.19 0.9,-0.38 1.38,-0.61l0.03 -0.01c0.24,-0.11 0.51,-0.24 0.81,-0.4 0.29,-0.14 0.61,-0.31 0.98,-0.51l0.96 -0.51c0.48,-0.26 0.98,-0.53 1.45,-0.77 0.39,-0.21 0.77,-0.41 1.2,-0.62 0.42,-0.2 0.85,-0.41 1.35,-0.62 0.94,-0.4 2.12,-0.84 3.38,-1.32 2.61,-0.99 5.22,-1.98 7.83,-2.97l2.36 -0.91 0.44 -0.17 -0.01 -0.83c0,-0.43 0,-0.99 -0.01,-1.33 0,-0.2 -0.01,-0.32 -0.02,-0.41 -0.01,-0.05 -0.02,-0.09 -0.04,-0.13 -0.02,-0.05 -0.05,-0.12 -0.09,-0.19l-0.01 -0.01c-0.03,-0.06 -0.07,-0.12 -0.1,-0.17 -0.04,-0.05 -0.08,-0.1 -0.13,-0.15 -0.05,-0.06 -0.11,-0.12 -0.2,-0.2 -0.08,-0.08 -0.19,-0.18 -0.3,-0.28 -0.12,-0.11 -0.26,-0.22 -0.4,-0.32 -0.14,-0.11 -0.3,-0.22 -0.47,-0.33 -0.18,-0.11 -0.34,-0.22 -0.49,-0.31 -0.16,-0.09 -0.32,-0.18 -0.46,-0.26 -0.14,-0.08 -0.26,-0.14 -0.37,-0.18 -0.09,-0.04 -0.17,-0.06 -0.24,-0.08l-0.01 0c-0.07,-0.01 -0.12,-0.01 -0.18,-0.01 -0.05,0 -0.11,0.01 -0.4,0.11 -0.32,0.1 -0.91,0.31 -2.02,0.72 -1.02,0.37 -2.66,0.97 -4.35,1.6l-4.67 1.72c-2.13,0.79 -2.55,0.94 -3.2,1.16 -0.29,0.09 -0.65,0.21 -1.14,0.36 -0.48,0.15 -1.02,0.31 -1.65,0.49 -0.61,0.17 -1.4,0.39 -2.22,0.62l-2.34 0.65c-1.06,0.29 -1.66,0.45 -2.46,0.72 -0.42,0.14 -0.89,0.3 -1.73,0.61 -0.91,0.33 -2.15,0.79 -4.08,1.51 -3.83,1.42 -10.37,3.86 -17.02,6.34l-0.04 0.02 0.59 0.3c0.15,0.08 0.21,0.27 0.13,0.42 -0.03,0.07 -0.09,0.12 -0.16,0.15 -0.12,0.06 -0.24,0.12 -0.37,0.19 -0.12,0.07 -0.23,0.14 -0.34,0.24 -0.1,0.09 -0.21,0.2 -0.3,0.31 -0.12,0.14 -0.22,0.28 -0.3,0.42 -0.1,0.16 -0.18,0.31 -0.25,0.45 -0.05,0.1 -0.1,0.19 -0.15,0.27 -0.07,0.12 -0.14,0.24 -0.23,0.34 -0.08,0.11 -0.18,0.21 -0.3,0.3 -0.11,0.09 -0.23,0.17 -0.35,0.24 -0.13,0.06 -0.25,0.12 -0.38,0.17 -0.12,0.04 -0.24,0.09 -0.37,0.13 -0.09,0.02 -0.17,0.05 -0.26,0.07l1.66 0.84 0.48 -0.08c0.17,-0.03 0.35,-0.06 0.54,-0.09 0.18,-0.04 0.34,-0.08 0.5,-0.12 0.14,-0.04 0.26,-0.08 0.37,-0.12 0.1,-0.04 0.18,-0.08 0.25,-0.12 0.07,-0.05 0.13,-0.1 0.18,-0.16 0.06,-0.07 0.12,-0.16 0.17,-0.26l0.01 -0.01c0.06,-0.09 0.11,-0.19 0.16,-0.29 0.04,-0.09 0.08,-0.2 0.13,-0.31l0.01 -0.01c0.04,-0.1 0.08,-0.2 0.13,-0.3 0.05,-0.1 0.1,-0.2 0.16,-0.29 0.06,-0.1 0.13,-0.19 0.22,-0.27 0.08,-0.09 0.17,-0.18 0.27,-0.26 0.1,-0.07 0.21,-0.14 0.32,-0.2 0.22,-0.11 0.45,-0.18 0.68,-0.25l0.03 -0.01c0.07,-0.01 0.14,0 0.2,0.03 0.16,0.06 0.32,0.12 0.47,0.18 0.17,0.07 0.33,0.14 0.46,0.21 0.15,0.08 0.27,0.15 0.38,0.24 0.12,0.08 0.22,0.18 0.3,0.28 0.09,0.1 0.16,0.21 0.22,0.34 0.06,0.13 0.11,0.26 0.16,0.43l0 0.01c0.05,0.16 0.09,0.35 0.14,0.6 0.04,0.24 0.08,0.56 0.12,0.99 0.06,0.67 0.11,1.57 0.16,2.31l0.03 0.56c0.03,0.4 0.04,0.68 0.06,0.88 0.02,0.19 0.04,0.31 0.07,0.4 0.01,0.05 0.02,0.09 0.04,0.11l0.02 0c0.05,-0.01 0.11,-0.02 0.19,-0.04 0.13,-0.04 0.34,-0.12 1.29,-0.48l1.92 -0.73zm10.48 -3.28c-2.55,0.96 -7.58,2.86 -10.26,3.87l-1.92 0.73c-0.96,0.36 -1.16,0.44 -1.33,0.49 -0.13,0.04 -0.24,0.06 -0.33,0.07 -0.11,0 -0.21,-0.01 -0.3,-0.05 -0.09,-0.04 -0.18,-0.09 -0.26,-0.2 -0.06,-0.08 -0.11,-0.19 -0.15,-0.33 -0.03,-0.12 -0.06,-0.27 -0.08,-0.5 -0.02,-0.22 -0.04,-0.51 -0.07,-0.9l-0.03 -0.56c-0.04,-0.75 -0.1,-1.67 -0.16,-2.3 -0.03,-0.39 -0.07,-0.7 -0.11,-0.94 -0.04,-0.22 -0.08,-0.39 -0.12,-0.52l-0.01 -0.01c-0.04,-0.14 -0.07,-0.25 -0.12,-0.34 -0.04,-0.08 -0.08,-0.15 -0.13,-0.21 -0.06,-0.06 -0.12,-0.12 -0.19,-0.18 -0.08,-0.06 -0.18,-0.12 -0.29,-0.18 -0.13,-0.06 -0.27,-0.12 -0.41,-0.18l-0.39 -0.16c-0.16,0.05 -0.32,0.11 -0.47,0.18 -0.08,0.04 -0.15,0.09 -0.23,0.15 -0.07,0.05 -0.14,0.11 -0.19,0.17 -0.06,0.07 -0.11,0.13 -0.15,0.19 -0.05,0.07 -0.09,0.14 -0.13,0.23 -0.04,0.08 -0.07,0.17 -0.12,0.27l0 0.01c-0.04,0.1 -0.09,0.2 -0.15,0.32 -0.05,0.11 -0.11,0.23 -0.17,0.35l-0.01 0.01c-0.08,0.13 -0.16,0.24 -0.24,0.35 -0.1,0.11 -0.2,0.19 -0.31,0.27 -0.11,0.07 -0.23,0.13 -0.38,0.19 -0.13,0.05 -0.27,0.1 -0.43,0.14 -0.17,0.04 -0.35,0.09 -0.54,0.12 -0.17,0.04 -0.36,0.07 -0.57,0.1l-0.58 0.09c-0.06,0.01 -0.13,0 -0.19,-0.03l-2.54 -1.28c-0.08,-0.05 -0.15,-0.13 -0.16,-0.23 -0.04,-0.17 0.08,-0.33 0.25,-0.36 0.24,-0.05 0.49,-0.1 0.73,-0.15 0.11,-0.03 0.22,-0.06 0.33,-0.1 0.11,-0.03 0.22,-0.07 0.33,-0.11 0.11,-0.04 0.21,-0.09 0.31,-0.14 0.1,-0.05 0.19,-0.1 0.26,-0.17 0.07,-0.05 0.14,-0.12 0.2,-0.2 0.06,-0.08 0.12,-0.16 0.17,-0.26 0.05,-0.09 0.1,-0.17 0.14,-0.25 0.08,-0.15 0.16,-0.32 0.27,-0.5 0.1,-0.15 0.22,-0.32 0.35,-0.48 0.12,-0.14 0.24,-0.27 0.38,-0.39 0.11,-0.09 0.22,-0.17 0.33,-0.24l-0.69 -0.35c-0.07,-0.04 -0.12,-0.09 -0.15,-0.17 -0.06,-0.16 0.02,-0.34 0.18,-0.4l0.72 -0.27c6.64,-2.48 13.18,-4.92 17.01,-6.34 2.02,-0.75 3.28,-1.22 4.09,-1.51 0.87,-0.32 1.34,-0.49 1.75,-0.62 0.77,-0.26 1.38,-0.43 2.49,-0.73l2.34 -0.64c0.72,-0.21 1.49,-0.42 2.21,-0.63 0.69,-0.2 1.22,-0.35 1.64,-0.48 0.41,-0.13 0.78,-0.25 1.13,-0.36 0.57,-0.19 1,-0.35 3.18,-1.15l4.66 -1.72c1.58,-0.58 3.17,-1.17 4.35,-1.6 1.1,-0.4 1.69,-0.61 2.04,-0.73 0.37,-0.12 0.47,-0.13 0.58,-0.14 0.1,0 0.2,0 0.31,0.02l0.01 0c0.11,0.03 0.23,0.06 0.37,0.12 0.13,0.05 0.28,0.12 0.43,0.21 0.15,0.08 0.31,0.17 0.48,0.27 0.17,0.11 0.35,0.22 0.51,0.32 0.17,0.11 0.34,0.23 0.5,0.35 0.17,0.12 0.31,0.24 0.44,0.35 0.13,0.12 0.24,0.22 0.33,0.3 0.09,0.09 0.16,0.16 0.22,0.23 0.07,0.08 0.13,0.14 0.18,0.22 0.05,0.07 0.1,0.14 0.14,0.22l0.01 0.02c0.05,0.08 0.09,0.17 0.12,0.24 0.04,0.09 0.07,0.17 0.08,0.3 0.02,0.1 0.03,0.24 0.03,0.48 0.01,0.34 0.01,0.9 0.01,1.34l0 0.61c0,0.22 0,0.29 0,0.35 -0.01,0.06 -0.02,0.12 -0.04,0.16l-0.02 0.03c-0.03,0.07 -0.07,0.11 -0.13,0.16 -0.04,0.03 -0.08,0.05 -0.19,0.1 -0.08,0.04 -0.22,0.09 -0.45,0.18l-1.08 0.42c-3.04,1.15 -6.08,2.3 -9.12,3.46 -1.25,0.47 -2.42,0.91 -3.35,1.31 -0.5,0.21 -0.93,0.41 -1.33,0.6 -0.38,0.19 -0.77,0.4 -1.18,0.61 -0.47,0.25 -0.97,0.52 -1.44,0.77l-0.97 0.52c-0.36,0.19 -0.68,0.36 -0.98,0.52 -0.28,0.14 -0.55,0.27 -0.84,0.4l-0.02 0.02c-0.47,0.21 -0.95,0.41 -1.41,0.61l-0.97 0.41c-0.2,0.08 -0.38,0.16 -0.53,0.23 -0.14,0.07 -0.23,0.11 -0.3,0.16 -0.05,0.02 -0.07,0.04 -0.09,0.06 -0.01,0.01 -0.02,0.02 -0.02,0.03 -0.01,0.02 -0.01,0.03 -0.02,0.04l0 0.05c0.01,0.02 0.01,0.04 0.02,0.07l0.01 0.02c0.01,0.04 0.03,0.08 0.06,0.14 0.04,0.08 0.1,0.17 0.2,0.32 0.09,0.13 0.22,0.33 0.36,0.53 0.14,0.2 0.29,0.41 0.39,0.56 0.11,0.17 0.2,0.31 0.27,0.43 0.05,0.1 0.1,0.18 0.13,0.26l0.02 0.02c0.03,0.09 0.06,0.16 0.07,0.23 0.02,0.08 0.02,0.14 0.02,0.2l0 0.01c0,0.06 -0.01,0.13 -0.03,0.19 -0.01,0.05 -0.03,0.1 -0.06,0.15l-0.01 0.03c-0.05,0.07 -0.09,0.13 -0.24,0.21 -0.08,0.05 -0.22,0.11 -0.46,0.2 -0.25,0.1 -0.58,0.22 -0.9,0.34l-0.96 0.35 -0.63 0.22c-0.15,0.06 -0.27,0.09 -0.37,0.12 -0.1,0.02 -0.19,0.04 -0.28,0.04 -0.08,0.01 -0.16,0 -0.24,0 -0.08,-0.01 -0.16,-0.02 -0.25,-0.04 -0.09,-0.02 -0.2,-0.05 -0.33,-0.09 -0.11,-0.03 -0.22,-0.07 -0.34,-0.11 -0.17,-0.06 -0.35,-0.12 -0.48,-0.15 -0.1,-0.03 -0.17,-0.05 -0.23,-0.05 -0.04,-0.01 -0.08,-0.01 -0.11,0 -0.07,0.01 -0.15,0.04 -2.65,0.98l-0.03 0.01zm7.96 -2.36c-0.01,0.01 -0.01,0.02 -0.01,0.01l0.01 -0.01z"/>
   <path class="fil2" d="M26.85 13.62c-4.03,1.58 -10.87,4.06 -17.7,6.54 0.1,0.15 0.18,0.33 0.26,0.59 0.04,0.16 0.09,0.36 0.14,0.63 6.7,-2.43 13.39,-4.86 17.36,-6.41 3.97,-1.56 5.21,-2.24 6.2,-2.79 0.99,-0.54 1.74,-0.96 5.42,-2.33 3.69,-1.36 10.3,-3.68 16.91,-6 0,-0.07 0,-0.14 0,-0.2 -0.01,-0.43 -0.03,-0.52 -0.09,-0.65 -0.05,-0.12 -0.13,-0.28 -0.22,-0.41 -6.51,2.29 -13.02,4.57 -16.65,5.92 -3.63,1.35 -4.38,1.76 -5.37,2.31 -0.99,0.55 -2.23,1.23 -6.26,2.8z"/>
   <path class="fil3" d="M26.91 14.97c-3.97,1.55 -10.66,3.98 -17.36,6.41 0.03,0.24 0.07,0.53 0.11,0.91 0.07,0.82 0.14,2.07 0.19,2.86 0.05,0.79 0.08,1.13 0.13,1.34 0.05,0.17 0.11,0.25 0.18,0.29 0.01,0.01 0.01,0.01 0.02,0.02 0.01,0 0.02,0 0.03,0.01 0.09,0.03 0.2,0.03 0.42,-0.03 0.22,-0.07 0.55,-0.2 3.23,-1.22 2.68,-1.01 7.71,-2.9 10.26,-3.87 2.56,-0.96 2.65,-0.99 2.75,-1 0.11,-0.02 0.23,-0.01 0.47,0.05 0.23,0.07 0.57,0.19 0.82,0.27 0.24,0.08 0.39,0.1 0.52,0.11 0.13,0.02 0.24,0.01 0.42,-0.03 0.17,-0.04 0.41,-0.13 0.96,-0.33 0.55,-0.19 1.41,-0.51 1.86,-0.68 0.45,-0.18 0.5,-0.22 0.54,-0.28 0.03,-0.06 0.05,-0.14 0.06,-0.22 0,-0.08 -0.01,-0.16 -0.07,-0.3 -0.06,-0.14 -0.17,-0.33 -0.39,-0.66 -0.22,-0.33 -0.56,-0.8 -0.76,-1.1 -0.19,-0.3 -0.25,-0.43 -0.29,-0.53 -0.04,-0.11 -0.05,-0.19 -0.04,-0.28 0.01,-0.08 0.05,-0.17 0.12,-0.25 0.07,-0.08 0.19,-0.14 0.49,-0.28 0.31,-0.14 0.81,-0.36 1.32,-0.57 0.51,-0.22 1.04,-0.44 1.59,-0.69 0.54,-0.25 1.1,-0.54 1.82,-0.93 0.73,-0.38 1.61,-0.86 2.41,-1.29 0.81,-0.42 1.54,-0.79 2.53,-1.22 1,-0.42 2.28,-0.9 3.63,-1.42 1.35,-0.51 2.78,-1.05 4.08,-1.55 1.3,-0.49 2.47,-0.93 3.49,-1.32 1.02,-0.39 1.9,-0.72 2.37,-0.9 0.46,-0.18 0.52,-0.21 0.56,-0.24 0.04,-0.03 0.06,-0.07 0.07,-0.13 0,-0.07 0,-0.17 0,-0.61 0,-0.38 0,-1.02 -0.01,-1.46 -6.61,2.32 -13.22,4.64 -16.91,6 -3.68,1.37 -4.43,1.79 -5.42,2.33 -0.99,0.55 -2.23,1.23 -6.2,2.79z"/>
   <path class="fil2" d="M7.58 20.29c0,-0.35 0,-0.69 0,-1.03 -0.21,0.07 -0.43,0.13 -0.62,0.23 -0.2,0.11 -0.38,0.24 -0.51,0.39 -0.14,0.15 -0.24,0.31 -0.33,0.49 -0.09,0.18 -0.17,0.39 -0.27,0.61 -0.11,0.22 -0.24,0.46 -0.38,0.63 -0.15,0.17 -0.32,0.28 -0.56,0.38 -0.24,0.09 -0.57,0.17 -0.92,0.24 -0.36,0.08 -0.75,0.13 -1.14,0.19 0,0.33 0,0.65 0,0.98 0.07,-0.01 0.13,-0.02 0.2,-0.03 0.19,-0.03 0.38,-0.06 0.58,-0.09 0.16,-0.03 0.32,-0.06 0.49,-0.1 0.46,-0.11 0.97,-0.26 1.31,-0.37 0.34,-0.12 0.51,-0.2 0.7,-0.51 0.2,-0.31 0.41,-0.84 0.59,-1.19 0.19,-0.35 0.35,-0.52 0.49,-0.62 0.13,-0.11 0.25,-0.16 0.37,-0.2z"/>
   <path class="fil4" d="M7.58 19.26c0,0.34 0,0.68 0,1.03 0.16,0.04 0.31,0.08 0.46,0.16 0.15,0.08 0.29,0.2 0.4,0.33 0.1,0.12 0.16,0.25 0.22,0.46 0.06,0.2 0.11,0.47 0.17,1.15 0,0.04 0,0.08 0.01,0.12 0.06,0.77 0.13,2.01 0.18,2.69 0.04,0.68 0.05,0.79 0.06,0.86 0.02,0.08 0.04,0.12 0.23,0.24 0.18,0.11 0.51,0.3 0.85,0.48 -0.07,-0.04 -0.13,-0.12 -0.18,-0.29 -0.05,-0.21 -0.08,-0.55 -0.13,-1.34 -0.05,-0.79 -0.12,-2.04 -0.19,-2.86 -0.04,-0.38 -0.08,-0.67 -0.11,-0.91 -0.05,-0.27 -0.1,-0.47 -0.14,-0.63 -0.08,-0.26 -0.16,-0.44 -0.26,-0.59 -0.02,-0.02 -0.04,-0.05 -0.06,-0.07 -0.14,-0.17 -0.32,-0.3 -0.58,-0.44 -0.26,-0.13 -0.59,-0.26 -0.93,-0.39z"/>
   <path class="fil5" d="M7.58 20.29c-0.12,0.04 -0.24,0.09 -0.37,0.2 -0.14,0.1 -0.3,0.27 -0.49,0.62 -0.18,0.35 -0.39,0.88 -0.59,1.19 -0.19,0.31 -0.36,0.39 -0.7,0.51 -0.34,0.11 -0.85,0.26 -1.31,0.37 -0.17,0.04 -0.33,0.07 -0.49,0.1 0.11,0.18 0.22,0.36 0.32,0.47 0.11,0.11 0.2,0.15 0.31,0.17 0.12,0.01 0.25,0 1.02,-0.25 0.76,-0.26 2.15,-0.77 3.55,-1.28 -0.06,-0.68 -0.11,-0.95 -0.17,-1.15 -0.06,-0.21 -0.12,-0.34 -0.22,-0.46 -0.11,-0.13 -0.25,-0.25 -0.4,-0.33 -0.15,-0.08 -0.3,-0.12 -0.46,-0.16z"/>
   <path class="fil4" d="M3.27 19.12c0.17,-0.28 0.41,-0.58 0.66,-0.8 0.26,-0.22 0.53,-0.35 0.8,-0.48 -0.4,-0.21 -0.81,-0.42 -1.22,-0.63 -0.07,0.03 -0.15,0.06 -0.25,0.14 -0.1,0.08 -0.22,0.21 -0.3,0.34 -0.08,0.13 -0.11,0.26 -0.12,0.63 -0.01,0.36 0,0.97 0.01,1.57 0,-0.01 0.01,-0.02 0.02,-0.03 0.12,-0.22 0.23,-0.46 0.4,-0.74z"/>
   <path class="fil4" d="M2.85 22.42c-0.84,-0.43 -1.69,-0.86 -2.54,-1.29 0.01,0.31 0.01,0.62 0.02,0.93 0.84,0.45 1.68,0.89 2.52,1.34 0,-0.33 0,-0.65 0,-0.98z"/>
   <path class="fil1" d="M7.43 19.26c0,-0.09 0.07,-0.16 0.15,-0.16 0.09,0 0.16,0.07 0.16,0.16l0 1.03c0,0.08 -0.07,0.15 -0.16,0.15 -0.08,0 -0.15,-0.07 -0.15,-0.15l0 -1.03z"/>
   <path class="fil1" d="M2.7 22.42c0,-0.09 0.07,-0.16 0.15,-0.16 0.09,0 0.16,0.07 0.16,0.16l0 0.98c0,0.09 -0.07,0.16 -0.16,0.16 -0.08,0 -0.15,-0.07 -0.15,-0.16l0 -0.98z"/>
   <path class="fil1" d="M3.36 23.45c-0.09,-0.15 -0.05,-0.35 0.1,-0.44 0.15,-0.09 0.34,-0.04 0.44,0.1 0.1,0.17 0.2,0.34 0.28,0.42l0.02 0.02c0.02,0.02 0.03,0.03 0.05,0.04 0.01,0.01 0.03,0.01 0.06,0.02l0 0c0.03,0 0.06,0 0.15,-0.02 0.13,-0.03 0.34,-0.1 0.71,-0.22 0.77,-0.26 2.16,-0.77 3.55,-1.28 0.16,-0.06 0.34,0.03 0.4,0.19 0.06,0.16 -0.02,0.34 -0.19,0.4 -1.4,0.51 -2.79,1.03 -3.55,1.28 -0.39,0.14 -0.63,0.21 -0.79,0.24 -0.18,0.04 -0.27,0.04 -0.36,0.03l-0.01 0c-0.09,-0.01 -0.17,-0.04 -0.26,-0.08 -0.07,-0.04 -0.15,-0.1 -0.22,-0.17l-0.02 -0.02c-0.12,-0.13 -0.24,-0.32 -0.36,-0.51z"/>
   <path class="fil1" d="M4.27 23.76c0.09,0 0.15,0.08 0.15,0.16 0,0.09 -0.08,0.16 -0.16,0.15 -0.1,0 -0.21,-0.01 -0.31,-0.02 -0.11,-0.02 -0.22,-0.04 -0.34,-0.1 -0.11,-0.05 -0.22,-0.12 -0.34,-0.2 -0.1,-0.08 -0.21,-0.17 -0.32,-0.26 -0.07,-0.05 -0.08,-0.15 -0.02,-0.22 0.05,-0.06 0.15,-0.07 0.22,-0.02 0.1,0.08 0.2,0.17 0.31,0.24 0.1,0.08 0.19,0.14 0.28,0.18 0.09,0.03 0.17,0.06 0.26,0.07 0.09,0.01 0.18,0.02 0.27,0.02z"/>
   <path class="fil1" d="M3.39 16.92c0.16,-0.07 0.35,0.01 0.41,0.17 0.07,0.16 0,0.34 -0.17,0.41 -0.03,0.01 -0.06,0.03 -0.09,0.04 -0.02,0.01 -0.05,0.03 -0.08,0.06 -0.04,0.03 -0.09,0.08 -0.14,0.13 -0.04,0.04 -0.07,0.08 -0.09,0.12 -0.02,0.04 -0.04,0.07 -0.05,0.13 -0.01,0.07 -0.02,0.18 -0.03,0.35 0,0.18 0,0.42 0,0.68l0.01 0.88c0,0.17 -0.14,0.31 -0.31,0.32 -0.17,0 -0.31,-0.14 -0.32,-0.31l-0.01 -0.88c0,-0.28 0,-0.53 0,-0.71 0.01,-0.2 0.02,-0.34 0.04,-0.46 0.03,-0.13 0.07,-0.23 0.13,-0.32 0.05,-0.08 0.11,-0.16 0.17,-0.22 0.06,-0.08 0.14,-0.15 0.21,-0.2 0.06,-0.06 0.12,-0.09 0.18,-0.12 0.06,-0.04 0.1,-0.05 0.14,-0.07z"/>
   <path class="fil1" d="M9.2 20.31c-0.08,0.03 -0.17,-0.01 -0.2,-0.09 -0.03,-0.08 0.01,-0.17 0.09,-0.2l0.04 -0.02c6.82,-2.47 13.63,-4.94 17.66,-6.52 2.02,-0.79 3.33,-1.35 4.27,-1.79 0.93,-0.43 1.48,-0.73 1.98,-1.01l0 0c1,-0.55 1.76,-0.97 5.39,-2.32 3.64,-1.35 10.14,-3.63 16.65,-5.92 0.08,-0.02 0.17,0.02 0.2,0.1 0.03,0.08 -0.02,0.17 -0.1,0.2 -6.51,2.29 -13.03,4.57 -16.64,5.92 -3.61,1.34 -4.36,1.75 -5.34,2.29l-0.01 0.01c-0.5,0.27 -1.06,0.58 -2,1.02 -0.94,0.44 -2.26,1 -4.28,1.79 -4.03,1.58 -10.85,4.05 -17.68,6.53l-0.03 0.01z"/>
   <path class="fil4" d="M24.6 10.1l-2.55 0.94c-0.04,0.02 -0.06,0.05 -0.06,0.09 0,0.03 0.02,0.06 0.06,0.08l3.36 1.29c0.17,0.06 0.34,0.06 0.51,0l2.72 -0.93c0.04,-0.01 0.06,-0.04 0.06,-0.08 0,-0.04 -0.03,-0.07 -0.06,-0.08l-3.55 -1.32c-0.16,-0.06 -0.33,-0.05 -0.49,0.01z"/>
   <path class="fil1" d="M24.65 10.25l-2.37 0.88 3.19 1.22c0.07,0.02 0.13,0.04 0.2,0.04 0.06,0 0.13,-0.01 0.2,-0.03l2.53 -0.87 -3.36 -1.25c-0.07,-0.02 -0.13,-0.03 -0.19,-0.03 -0.07,0 -0.13,0.01 -0.2,0.04zm-2.66 0.65l2.55 -0.95c0.1,-0.03 0.2,-0.05 0.3,-0.06 0.1,0 0.21,0.02 0.31,0.06l3.54 1.31c0.05,0.02 0.09,0.05 0.12,0.09 0.03,0.04 0.05,0.09 0.05,0.14 0,0.05 -0.02,0.1 -0.05,0.14 -0.03,0.04 -0.07,0.07 -0.12,0.09l-2.72 0.93c-0.1,0.04 -0.2,0.05 -0.31,0.05 -0.1,0 -0.2,-0.02 -0.3,-0.06l-3.37 -1.29c-0.04,-0.01 -0.08,-0.04 -0.1,-0.07l-0.01 -0.02c-0.03,-0.04 -0.05,-0.09 -0.05,-0.13 0,-0.05 0.02,-0.09 0.04,-0.13l0.01 -0.02c0.02,-0.03 0.06,-0.06 0.1,-0.08l0.01 0z"/>
   <path class="fil2" d="M24.88 10.62l0 -0.57c-0.09,0 -0.19,0.02 -0.28,0.05l-2.55 0.94c-0.04,0.02 -0.06,0.05 -0.06,0.09 0,0.03 0.02,0.06 0.06,0.08l0.53 0.2 2.02 -0.74c0.09,-0.04 0.19,-0.05 0.28,-0.05z"/>
   <path class="fil1" d="M24.72 10.47l0 -0.24 -0.07 0.02 -2.37 0.88 0.31 0.11 1.96 -0.72c0.06,-0.02 0.11,-0.04 0.16,-0.05l0.01 0zm0.32 -0.42l0 0.57c-0.01,0.09 -0.08,0.16 -0.17,0.16 -0.03,-0.01 -0.06,0 -0.1,0l0 0c-0.04,0.01 -0.08,0.02 -0.11,0.03l-2.02 0.75c-0.04,0.01 -0.07,0.01 -0.11,0l-0.54 -0.21c-0.04,-0.01 -0.08,-0.04 -0.1,-0.07l-0.01 -0.02c-0.03,-0.04 -0.05,-0.09 -0.05,-0.13 0,-0.05 0.02,-0.09 0.04,-0.13l0.01 -0.02c0.02,-0.03 0.06,-0.06 0.1,-0.08l2.56 -0.95c0.06,-0.02 0.12,-0.03 0.17,-0.04 0.05,-0.01 0.11,-0.02 0.16,-0.02l0.01 0c0.09,0 0.16,0.07 0.16,0.16z"/>
   <path class="fil6" d="M24.88 10.05l0 0.57c0.07,0 0.14,0.02 0.21,0.04l2.96 1.11 0.59 -0.2c0.04,-0.01 0.06,-0.04 0.06,-0.08 0,-0.04 -0.03,-0.07 -0.06,-0.08l-3.55 -1.32c-0.07,-0.02 -0.14,-0.04 -0.21,-0.04z"/>
   <path class="fil1" d="M25.04 10.24l0 0.24c0.03,0.01 0.07,0.02 0.11,0.04l2.9 1.09 0.35 -0.12 -3.36 -1.25zm-0.32 0.38l0 -0.57c0.01,-0.09 0.08,-0.16 0.17,-0.16 0.04,0.01 0.08,0.01 0.12,0.02l0.01 0c0.04,0.01 0.08,0.02 0.13,0.04l3.54 1.31c0.05,0.02 0.09,0.05 0.12,0.09 0.03,0.04 0.05,0.09 0.05,0.14 0,0.05 -0.02,0.1 -0.05,0.14 -0.03,0.04 -0.07,0.07 -0.12,0.09l-0.59 0.2c-0.03,0.01 -0.07,0.01 -0.1,0l-2.96 -1.11c-0.03,-0.01 -0.06,-0.02 -0.09,-0.02l-0.07 -0.01c-0.09,0 -0.16,-0.07 -0.16,-0.16z"/>
   <path class="fil1" d="M7.5 20.59c-0.16,-0.04 -0.26,-0.22 -0.22,-0.38 0.04,-0.17 0.22,-0.27 0.38,-0.23 0.08,0.02 0.17,0.05 0.26,0.08l0.01 0c0.09,0.03 0.18,0.07 0.26,0.11 0.09,0.05 0.18,0.11 0.26,0.18 0.09,0.07 0.16,0.15 0.23,0.23 0.06,0.08 0.12,0.16 0.17,0.26 0.04,0.09 0.08,0.19 0.11,0.32 0.04,0.12 0.07,0.25 0.1,0.46 0.03,0.21 0.06,0.48 0.09,0.86 0.06,0.68 0.12,1.8 0.17,2.51l0.05 0.84 0.01 0.14 0.09 0.06c0.1,0.06 0.23,0.14 0.37,0.22l0.49 0.27c0.16,0.08 0.21,0.28 0.13,0.43 -0.08,0.15 -0.28,0.21 -0.43,0.12l-0.5 -0.28c-0.16,-0.09 -0.3,-0.17 -0.39,-0.23 -0.12,-0.07 -0.19,-0.13 -0.24,-0.18 -0.08,-0.09 -0.11,-0.16 -0.13,-0.25 -0.01,-0.06 -0.02,-0.11 -0.03,-0.25l-0.05 -0.85c-0.04,-0.7 -0.11,-1.77 -0.17,-2.49 -0.03,-0.38 -0.06,-0.64 -0.08,-0.83 -0.03,-0.18 -0.06,-0.29 -0.08,-0.39 -0.03,-0.08 -0.05,-0.15 -0.08,-0.21 -0.02,-0.05 -0.05,-0.09 -0.09,-0.13 -0.04,-0.05 -0.09,-0.1 -0.14,-0.14 -0.05,-0.05 -0.1,-0.08 -0.16,-0.11 -0.05,-0.03 -0.1,-0.06 -0.16,-0.07l-0.01 -0.01c-0.07,-0.02 -0.14,-0.04 -0.22,-0.06z"/>
   <path class="fil1" d="M0 21.14c0,-0.17 0.14,-0.32 0.31,-0.32 0.17,0 0.32,0.14 0.32,0.31l0.01 0.74 2.27 1.2c0.37,-0.05 0.74,-0.1 1.14,-0.2 0.2,-0.04 0.42,-0.1 0.64,-0.16 0.23,-0.07 0.46,-0.14 0.64,-0.2 0.15,-0.05 0.25,-0.1 0.33,-0.15 0.07,-0.05 0.14,-0.12 0.21,-0.23 0.1,-0.16 0.22,-0.42 0.33,-0.67 0.08,-0.17 0.16,-0.33 0.25,-0.49 0.1,-0.2 0.19,-0.34 0.29,-0.46 0.09,-0.12 0.19,-0.21 0.27,-0.27l0.02 -0.02c0.08,-0.06 0.16,-0.1 0.23,-0.14 0.08,-0.04 0.15,-0.06 0.21,-0.09 0.17,-0.06 0.35,0.02 0.41,0.19 0.06,0.16 -0.02,0.34 -0.19,0.4 -0.05,0.02 -0.11,0.04 -0.15,0.06 -0.04,0.02 -0.08,0.05 -0.13,0.08l-0.01 0.01c-0.05,0.04 -0.11,0.1 -0.17,0.17 -0.07,0.09 -0.15,0.2 -0.23,0.36 -0.06,0.12 -0.14,0.29 -0.22,0.47 -0.13,0.26 -0.25,0.54 -0.38,0.74 -0.12,0.19 -0.24,0.31 -0.39,0.41 -0.14,0.1 -0.29,0.16 -0.48,0.22 -0.18,0.07 -0.42,0.14 -0.67,0.21 -0.21,0.06 -0.44,0.12 -0.67,0.18 -0.47,0.1 -0.88,0.16 -1.29,0.22 -0.06,0.01 -0.13,0 -0.19,-0.03l-2.53 -1.34c-0.09,-0.05 -0.16,-0.16 -0.16,-0.27l-0.02 -0.93z"/>
   <path class="fil1" d="M9.56 21.55c-0.08,0.03 -0.17,-0.02 -0.2,-0.1 -0.03,-0.08 0.01,-0.17 0.09,-0.2 6.71,-2.44 13.43,-4.87 17.4,-6.43 1.99,-0.78 3.29,-1.33 4.21,-1.77 0.93,-0.43 1.48,-0.73 1.98,-1l0 -0.01c1,-0.55 1.76,-0.96 5.44,-2.33 1.86,-0.69 4.43,-1.61 7.36,-2.65 2.88,-1.02 6.21,-2.19 9.55,-3.36 0.08,-0.03 0.17,0.01 0.2,0.1 0.03,0.08 -0.02,0.17 -0.1,0.2 -3.27,1.14 -6.55,2.29 -9.55,3.36 -2.95,1.04 -5.53,1.97 -7.35,2.64 -3.66,1.36 -4.41,1.78 -5.39,2.32l-0.01 0c-0.5,0.28 -1.06,0.59 -1.99,1.02 -0.94,0.43 -2.24,0.99 -4.23,1.77 -3.98,1.56 -10.7,4 -17.41,6.44z"/>
   <path class="fil2" d="M7.58 19.26l-2.85 -1.42c-0.27,0.13 -0.54,0.26 -0.8,0.48 -0.25,0.22 -0.49,0.52 -0.66,0.8 -0.17,0.28 -0.28,0.52 -0.4,0.74 -0.01,0.01 -0.02,0.02 -0.02,0.03 -0.12,0.2 -0.26,0.38 -0.43,0.52 -0.19,0.15 -0.42,0.26 -0.65,0.35 -0.24,0.09 -0.47,0.16 -0.71,0.22 -0.24,0.06 -0.49,0.11 -0.75,0.15 0.85,0.43 1.7,0.86 2.54,1.29 0.39,-0.06 0.78,-0.11 1.14,-0.19 0.35,-0.07 0.68,-0.15 0.92,-0.24 0.24,-0.1 0.41,-0.21 0.56,-0.38 0.14,-0.17 0.27,-0.41 0.38,-0.63 0.1,-0.22 0.18,-0.43 0.27,-0.61 0.09,-0.18 0.19,-0.34 0.33,-0.49 0.13,-0.15 0.31,-0.28 0.51,-0.39 0.19,-0.1 0.41,-0.16 0.62,-0.23z"/>
   <path class="fil4" d="M3.12 20.9c0.11,-0.04 0.23,-0.09 0.33,-0.16 0.1,-0.07 0.16,-0.15 0.22,-0.27 0.07,-0.12 0.14,-0.28 0.22,-0.39 0.07,-0.12 0.16,-0.19 0.25,-0.23 0.1,-0.04 0.21,-0.06 0.3,-0.05 0.1,0.02 0.17,0.06 0.24,0.13 0.06,0.08 0.1,0.19 0.1,0.3 0.01,0.11 -0.02,0.22 -0.07,0.35 -0.06,0.12 -0.13,0.26 -0.23,0.38 -0.1,0.11 -0.22,0.2 -0.39,0.29 -0.17,0.08 -0.39,0.16 -0.6,0.17 -0.21,0.02 -0.41,-0.03 -0.54,-0.09 -0.14,-0.07 -0.22,-0.14 -0.23,-0.21 -0.01,-0.06 0.05,-0.12 0.12,-0.15 0.08,-0.03 0.17,-0.04 0.28,-0.07z"/>
   <path class="fil1" d="M3.08 20.74c0.05,-0.01 0.1,-0.03 0.16,-0.05 0.04,-0.03 0.08,-0.05 0.12,-0.07 0.03,-0.03 0.06,-0.06 0.09,-0.09 0.03,-0.04 0.06,-0.09 0.09,-0.14l0.07 -0.14c0.04,-0.09 0.09,-0.18 0.15,-0.26 0.04,-0.07 0.09,-0.13 0.14,-0.17l0.01 -0.01c0.05,-0.04 0.11,-0.08 0.17,-0.1 0.06,-0.03 0.12,-0.05 0.19,-0.06 0.06,-0.01 0.13,-0.01 0.19,0l0.01 0c0.06,0.01 0.12,0.03 0.17,0.06 0.06,0.03 0.11,0.07 0.16,0.12 0.04,0.06 0.07,0.12 0.1,0.19l0 0.01c0.02,0.06 0.04,0.13 0.04,0.19 0,0.08 0,0.15 -0.02,0.22l0 0c-0.02,0.07 -0.04,0.13 -0.07,0.2 -0.03,0.06 -0.06,0.14 -0.1,0.21 -0.04,0.07 -0.09,0.14 -0.15,0.21l-0.01 0.01c-0.05,0.06 -0.11,0.12 -0.18,0.17 -0.07,0.05 -0.15,0.1 -0.25,0.15l-0.01 0c-0.1,0.05 -0.21,0.1 -0.32,0.13 -0.11,0.03 -0.22,0.05 -0.33,0.06 -0.11,0.01 -0.22,0 -0.31,-0.02l-0.02 0c-0.11,-0.02 -0.21,-0.05 -0.29,-0.09 -0.08,-0.04 -0.15,-0.08 -0.2,-0.13 -0.07,-0.05 -0.11,-0.12 -0.12,-0.19 -0.01,-0.08 0.01,-0.15 0.06,-0.21l0.01 -0.01c0.04,-0.04 0.09,-0.08 0.15,-0.1 0.06,-0.03 0.12,-0.04 0.18,-0.06l0.12 -0.03zm0.29 0.23c-0.07,0.03 -0.14,0.06 -0.2,0.07l-0.14 0.04c-0.05,0.01 -0.09,0.02 -0.13,0.03l0 0.01c0.02,0.02 0.06,0.04 0.11,0.06 0.06,0.03 0.14,0.05 0.22,0.07l0.01 0c0.08,0.02 0.16,0.02 0.24,0.02 0.09,-0.01 0.17,-0.03 0.26,-0.05 0.1,-0.03 0.19,-0.07 0.27,-0.11l0.01 0c0.08,-0.04 0.14,-0.08 0.2,-0.12 0.05,-0.04 0.1,-0.08 0.13,-0.13l0.01 0c0.04,-0.05 0.08,-0.11 0.11,-0.17 0.04,-0.06 0.07,-0.12 0.09,-0.18 0.02,-0.05 0.04,-0.1 0.05,-0.14l0 -0.01c0.01,-0.04 0.02,-0.08 0.02,-0.12 0,-0.04 -0.01,-0.07 -0.02,-0.11l-0.01 -0.01c-0.01,-0.03 -0.03,-0.07 -0.05,-0.09 -0.01,-0.02 -0.03,-0.04 -0.05,-0.05 -0.02,-0.01 -0.05,-0.02 -0.07,-0.02l-0.01 0c-0.03,0 -0.07,0 -0.11,0 -0.03,0.01 -0.07,0.02 -0.1,0.03 -0.04,0.02 -0.06,0.03 -0.09,0.06l-0.01 0c-0.03,0.03 -0.06,0.07 -0.09,0.11 -0.05,0.07 -0.09,0.15 -0.13,0.24l-0.08 0.14c-0.04,0.07 -0.07,0.13 -0.11,0.18 -0.05,0.06 -0.1,0.11 -0.16,0.15 -0.05,0.04 -0.11,0.07 -0.17,0.1z"/>
   <path class="fil1" d="M13.75 25.27c2.68,-1.01 7.7,-2.91 10.26,-3.87l0.03 -0.01c2.56,-0.96 2.65,-1 2.79,-1.02 0.08,-0.01 0.16,-0.01 0.26,0 0.09,0.01 0.19,0.03 0.33,0.07 0.15,0.04 0.33,0.1 0.51,0.16l0.32 0.11c0.11,0.03 0.2,0.06 0.28,0.07 0.07,0.02 0.13,0.03 0.18,0.03 0.05,0.01 0.09,0.01 0.14,0 0.05,0 0.1,-0.01 0.17,-0.02 0.08,-0.02 0.17,-0.05 0.32,-0.1 0.17,-0.06 0.36,-0.13 0.61,-0.22l0.97 -0.35c0.35,-0.13 0.69,-0.26 0.88,-0.34 0.22,-0.08 0.33,-0.13 0.39,-0.16l0.01 -0.01c0,-0.02 0,-0.03 0,-0.05 0,-0.02 0,-0.03 0,-0.04 0,-0.03 -0.02,-0.06 -0.04,-0.11l-0.01 -0.02c-0.02,-0.06 -0.06,-0.12 -0.11,-0.21 -0.06,-0.1 -0.14,-0.23 -0.24,-0.39 -0.12,-0.18 -0.25,-0.37 -0.38,-0.55 -0.14,-0.19 -0.27,-0.38 -0.38,-0.55 -0.1,-0.15 -0.17,-0.27 -0.22,-0.36 -0.05,-0.1 -0.08,-0.17 -0.11,-0.24l0 -0.02c-0.03,-0.07 -0.04,-0.13 -0.05,-0.18l0 -0.02c-0.01,-0.06 -0.01,-0.13 0,-0.2 0.01,-0.07 0.03,-0.15 0.07,-0.23 0.03,-0.07 0.07,-0.13 0.13,-0.19 0.06,-0.06 0.13,-0.12 0.23,-0.18 0.08,-0.04 0.19,-0.1 0.36,-0.18 0.14,-0.06 0.32,-0.14 0.54,-0.24 0.25,-0.1 0.52,-0.22 0.79,-0.33l0.19 -0.08c0.44,-0.19 0.9,-0.38 1.38,-0.61l0.03 -0.01c0.24,-0.11 0.51,-0.24 0.81,-0.4 0.29,-0.14 0.61,-0.31 0.98,-0.51l0.96 -0.51c0.48,-0.26 0.98,-0.53 1.45,-0.77 0.39,-0.21 0.77,-0.41 1.2,-0.62 0.42,-0.2 0.85,-0.41 1.35,-0.62 0.94,-0.4 2.12,-0.84 3.38,-1.32 2.61,-0.99 5.22,-1.98 7.83,-2.97l2.36 -0.91 0.44 -0.17 -0.01 -0.83c0,-0.43 0,-0.99 -0.01,-1.33 0,-0.2 -0.01,-0.32 -0.02,-0.41 -0.01,-0.05 -0.02,-0.09 -0.04,-0.13 -0.02,-0.05 -0.05,-0.12 -0.09,-0.19l-0.01 -0.01c-0.03,-0.06 -0.07,-0.12 -0.1,-0.17 -0.04,-0.05 -0.08,-0.1 -0.13,-0.15 -0.05,-0.06 -0.11,-0.12 -0.2,-0.2 -0.08,-0.08 -0.19,-0.18 -0.3,-0.28 -0.12,-0.11 -0.26,-0.22 -0.4,-0.32 -0.14,-0.11 -0.3,-0.22 -0.47,-0.33 -0.18,-0.11 -0.34,-0.22 -0.49,-0.31 -0.16,-0.09 -0.32,-0.18 -0.46,-0.26 -0.14,-0.08 -0.26,-0.14 -0.37,-0.18 -0.09,-0.04 -0.17,-0.06 -0.24,-0.08l-0.01 0c-0.07,-0.01 -0.12,-0.01 -0.18,-0.01 -0.05,0 -0.11,0.01 -0.4,0.11 -0.32,0.1 -0.91,0.31 -2.02,0.72 -1.02,0.37 -2.66,0.97 -4.35,1.6l-4.67 1.72c-2.13,0.79 -2.55,0.94 -3.2,1.16 -0.29,0.09 -0.65,0.21 -1.14,0.36 -0.48,0.15 -1.02,0.31 -1.65,0.49 -0.61,0.17 -1.4,0.39 -2.22,0.62l-2.34 0.65c-1.06,0.29 -1.66,0.45 -2.46,0.72 -0.42,0.14 -0.89,0.3 -1.73,0.61 -0.91,0.33 -2.15,0.79 -4.08,1.51 -3.83,1.42 -10.37,3.86 -17.02,6.34l-0.04 0.02 0.59 0.3c0.15,0.08 0.21,0.27 0.13,0.42 -0.03,0.07 -0.09,0.12 -0.16,0.15 -0.12,0.06 -0.24,0.12 -0.37,0.19 -0.12,0.07 -0.23,0.14 -0.34,0.24 -0.1,0.09 -0.21,0.2 -0.3,0.31 -0.12,0.14 -0.22,0.28 -0.3,0.42 -0.1,0.16 -0.18,0.31 -0.25,0.45 -0.05,0.1 -0.1,0.19 -0.15,0.27 -0.07,0.12 -0.14,0.24 -0.23,0.34 -0.08,0.11 -0.18,0.21 -0.3,0.3 -0.11,0.09 -0.23,0.17 -0.35,0.24 -0.13,0.06 -0.25,0.12 -0.38,0.17 -0.12,0.04 -0.24,0.09 -0.37,0.13 -0.09,0.02 -0.17,0.05 -0.26,0.07l1.66 0.84 0.48 -0.08c0.17,-0.03 0.35,-0.06 0.54,-0.09 0.18,-0.04 0.34,-0.08 0.5,-0.12 0.14,-0.04 0.26,-0.08 0.37,-0.12 0.1,-0.04 0.18,-0.08 0.25,-0.12 0.07,-0.05 0.13,-0.1 0.18,-0.16 0.06,-0.07 0.12,-0.16 0.17,-0.26l0.01 -0.01c0.06,-0.09 0.11,-0.19 0.16,-0.29 0.04,-0.09 0.08,-0.2 0.13,-0.31l0.01 -0.01c0.04,-0.1 0.08,-0.2 0.13,-0.3 0.05,-0.1 0.1,-0.2 0.16,-0.29 0.06,-0.1 0.13,-0.19 0.22,-0.27 0.08,-0.09 0.17,-0.18 0.27,-0.26 0.1,-0.07 0.21,-0.14 0.32,-0.2 0.22,-0.11 0.45,-0.18 0.68,-0.25l0.03 -0.01c0.07,-0.01 0.14,0 0.2,0.03 0.16,0.06 0.32,0.12 0.47,0.18 0.17,0.07 0.33,0.14 0.46,0.21 0.15,0.08 0.27,0.15 0.38,0.24 0.12,0.08 0.22,0.18 0.3,0.28 0.09,0.1 0.16,0.21 0.22,0.34 0.06,0.13 0.11,0.26 0.16,0.43l0 0.01c0.05,0.16 0.09,0.35 0.14,0.6 0.04,0.24 0.08,0.56 0.12,0.99 0.06,0.67 0.11,1.57 0.16,2.31l0.03 0.56c0.03,0.4 0.04,0.68 0.06,0.88 0.02,0.19 0.04,0.31 0.07,0.4 0.01,0.05 0.02,0.09 0.04,0.11l0.02 0c0.05,-0.01 0.11,-0.02 0.19,-0.04 0.13,-0.04 0.34,-0.12 1.29,-0.48l1.92 -0.73zm10.48 -3.28c-2.55,0.96 -7.58,2.86 -10.26,3.87l-1.92 0.73c-0.96,0.36 -1.16,0.44 -1.33,0.49 -0.13,0.04 -0.24,0.06 -0.33,0.07 -0.11,0 -0.21,-0.01 -0.3,-0.05 -0.09,-0.04 -0.18,-0.09 -0.26,-0.2 -0.06,-0.08 -0.11,-0.19 -0.15,-0.33 -0.03,-0.12 -0.06,-0.27 -0.08,-0.5 -0.02,-0.22 -0.04,-0.51 -0.07,-0.9l-0.03 -0.56c-0.04,-0.75 -0.1,-1.67 -0.16,-2.3 -0.03,-0.39 -0.07,-0.7 -0.11,-0.94 -0.04,-0.22 -0.08,-0.39 -0.12,-0.52l-0.01 -0.01c-0.04,-0.14 -0.07,-0.25 -0.12,-0.34 -0.04,-0.08 -0.08,-0.15 -0.13,-0.21 -0.06,-0.06 -0.12,-0.12 -0.19,-0.18 -0.08,-0.06 -0.18,-0.12 -0.29,-0.18 -0.13,-0.06 -0.27,-0.12 -0.41,-0.18l-0.39 -0.16c-0.16,0.05 -0.32,0.11 -0.47,0.18 -0.08,0.04 -0.15,0.09 -0.23,0.15 -0.07,0.05 -0.14,0.11 -0.19,0.17 -0.06,0.07 -0.11,0.13 -0.15,0.19 -0.05,0.07 -0.09,0.14 -0.13,0.23 -0.04,0.08 -0.07,0.17 -0.12,0.27l0 0.01c-0.04,0.1 -0.09,0.2 -0.15,0.32 -0.05,0.11 -0.11,0.23 -0.17,0.35l-0.01 0.01c-0.08,0.13 -0.16,0.24 -0.24,0.35 -0.1,0.11 -0.2,0.19 -0.31,0.27 -0.11,0.07 -0.23,0.13 -0.38,0.19 -0.13,0.05 -0.27,0.1 -0.43,0.14 -0.17,0.04 -0.35,0.09 -0.54,0.12 -0.17,0.04 -0.36,0.07 -0.57,0.1l-0.58 0.09c-0.06,0.01 -0.13,0 -0.19,-0.03l-2.54 -1.28c-0.08,-0.05 -0.15,-0.13 -0.16,-0.23 -0.04,-0.17 0.08,-0.33 0.25,-0.36 0.24,-0.05 0.49,-0.1 0.73,-0.15 0.11,-0.03 0.22,-0.06 0.33,-0.1 0.11,-0.03 0.22,-0.07 0.33,-0.11 0.11,-0.04 0.21,-0.09 0.31,-0.14 0.1,-0.05 0.19,-0.1 0.26,-0.17 0.07,-0.05 0.14,-0.12 0.2,-0.2 0.06,-0.08 0.12,-0.16 0.17,-0.26 0.05,-0.09 0.1,-0.17 0.14,-0.25 0.08,-0.15 0.16,-0.32 0.27,-0.5 0.1,-0.15 0.22,-0.32 0.35,-0.48 0.12,-0.14 0.24,-0.27 0.38,-0.39 0.11,-0.09 0.22,-0.17 0.33,-0.24l-0.69 -0.35c-0.07,-0.04 -0.12,-0.09 -0.15,-0.17 -0.06,-0.16 0.02,-0.34 0.18,-0.4l0.72 -0.27c6.64,-2.48 13.18,-4.92 17.01,-6.34 2.02,-0.75 3.28,-1.22 4.09,-1.51 0.87,-0.32 1.34,-0.49 1.75,-0.62 0.77,-0.26 1.38,-0.43 2.49,-0.73l2.34 -0.64c0.72,-0.21 1.49,-0.42 2.21,-0.63 0.69,-0.2 1.22,-0.35 1.64,-0.48 0.41,-0.13 0.78,-0.25 1.13,-0.36 0.57,-0.19 1,-0.35 3.18,-1.15l4.66 -1.72c1.58,-0.58 3.17,-1.17 4.35,-1.6 1.1,-0.4 1.69,-0.61 2.04,-0.73 0.37,-0.12 0.47,-0.13 0.58,-0.14 0.1,0 0.2,0 0.31,0.02l0.01 0c0.11,0.03 0.23,0.06 0.37,0.12 0.13,0.05 0.28,0.12 0.43,0.21 0.15,0.08 0.31,0.17 0.48,0.27 0.17,0.11 0.35,0.22 0.51,0.32 0.17,0.11 0.34,0.23 0.5,0.35 0.17,0.12 0.31,0.24 0.44,0.35 0.13,0.12 0.24,0.22 0.33,0.3 0.09,0.09 0.16,0.16 0.22,0.23 0.07,0.08 0.13,0.14 0.18,0.22 0.05,0.07 0.1,0.14 0.14,0.22l0.01 0.02c0.05,0.08 0.09,0.17 0.12,0.24 0.04,0.09 0.07,0.17 0.08,0.3 0.02,0.1 0.03,0.24 0.03,0.48 0.01,0.34 0.01,0.9 0.01,1.34l0 0.61c0,0.22 0,0.29 0,0.35 -0.01,0.06 -0.02,0.12 -0.04,0.16l-0.02 0.03c-0.03,0.07 -0.07,0.11 -0.13,0.16 -0.04,0.03 -0.08,0.05 -0.19,0.1 -0.08,0.04 -0.22,0.09 -0.45,0.18l-1.08 0.42c-3.04,1.15 -6.08,2.3 -9.12,3.46 -1.25,0.47 -2.42,0.91 -3.35,1.31 -0.5,0.21 -0.93,0.41 -1.33,0.6 -0.38,0.19 -0.77,0.4 -1.18,0.61 -0.47,0.25 -0.97,0.52 -1.44,0.77l-0.97 0.52c-0.36,0.19 -0.68,0.36 -0.98,0.52 -0.28,0.14 -0.55,0.27 -0.84,0.4l-0.02 0.02c-0.47,0.21 -0.95,0.41 -1.41,0.61l-0.97 0.41c-0.2,0.08 -0.38,0.16 -0.53,0.23 -0.14,0.07 -0.23,0.11 -0.3,0.16 -0.05,0.02 -0.07,0.04 -0.09,0.06 -0.01,0.01 -0.02,0.02 -0.02,0.03 -0.01,0.02 -0.01,0.03 -0.02,0.04l0 0.05c0.01,0.02 0.01,0.04 0.02,0.07l0.01 0.02c0.01,0.04 0.03,0.08 0.06,0.14 0.04,0.08 0.1,0.17 0.2,0.32 0.09,0.13 0.22,0.33 0.36,0.53 0.14,0.2 0.29,0.41 0.39,0.56 0.11,0.17 0.2,0.31 0.27,0.43 0.05,0.1 0.1,0.18 0.13,0.26l0.02 0.02c0.03,0.09 0.06,0.16 0.07,0.23 0.02,0.08 0.02,0.14 0.02,0.2l0 0.01c0,0.06 -0.01,0.13 -0.03,0.19 -0.01,0.05 -0.03,0.1 -0.06,0.15l-0.01 0.03c-0.05,0.07 -0.09,0.13 -0.24,0.21 -0.08,0.05 -0.22,0.11 -0.46,0.2 -0.25,0.1 -0.58,0.22 -0.9,0.34l-0.96 0.35 -0.63 0.22c-0.15,0.06 -0.27,0.09 -0.37,0.12 -0.1,0.02 -0.19,0.04 -0.28,0.04 -0.08,0.01 -0.16,0 -0.24,0 -0.08,-0.01 -0.16,-0.02 -0.25,-0.04 -0.09,-0.02 -0.2,-0.05 -0.33,-0.09 -0.11,-0.03 -0.22,-0.07 -0.34,-0.11 -0.17,-0.06 -0.35,-0.12 -0.48,-0.15 -0.1,-0.03 -0.17,-0.05 -0.23,-0.05 -0.04,-0.01 -0.08,-0.01 -0.11,0 -0.07,0.01 -0.15,0.04 -2.65,0.98l-0.03 0.01zm7.96 -2.36c-0.01,0.01 -0.01,0.02 -0.01,0.01l0.01 -0.01z"/>
   <path class="fil1" d="M4.59 18.12c-0.15,-0.08 -0.22,-0.27 -0.14,-0.42 0.08,-0.16 0.27,-0.22 0.42,-0.14l2.85 1.42c0.16,0.08 0.22,0.27 0.15,0.42 -0.08,0.16 -0.27,0.22 -0.43,0.14l-2.85 -1.42z"/>
  </g>
 </g>
</svg>
