<?xml version="1.0" encoding="UTF-8"?>
<!DOCTYPE svg PUBLIC "-//W3C//DTD SVG 1.1//EN" "http://www.w3.org/Graphics/SVG/1.1/DTD/svg11.dtd">
<!-- Creator: CorelDRAW 2021.5 -->
<svg xmlns="http://www.w3.org/2000/svg" xml:space="preserve" width="500px" height="268px" version="1.1" style="shape-rendering:geometricPrecision; text-rendering:geometricPrecision; image-rendering:optimizeQuality; fill-rule:evenodd; clip-rule:evenodd"
viewBox="0 0 670.32 358.81"
 xmlns:xlink="http://www.w3.org/1999/xlink"
 xmlns:xodm="http://www.corel.com/coreldraw/odm/2003">
 <defs>
  <style type="text/css">
   <![CDATA[
    .fil2 {fill:dimgray}
    .fil1 {fill:#858585}
    .fil3 {fill:#999999}
    .fil0 {fill:#BFBFBF}
    .fil4 {fill:#5F5F5F;fill-rule:nonzero}
   ]]>
  </style>
 </defs>
 <g id="Слой_x0020_1">
  <metadata id="CorelCorpID_0Corel-Layer"/>
  <g id="_1704836002896">
   <path class="fil0" d="M186.85 212.91c42.95,-16.74 123.71,-46.14 170.12,-63.06 46.41,-16.92 58.47,-21.36 68.63,-25.47 10.15,-4.1 18.4,-7.87 23.84,-11.44 5.44,-3.57 8.07,-6.93 12.7,-11.16 4.64,-4.23 11.29,-9.33 17.36,-13.13 6.08,-3.8 11.59,-6.3 42.36,-18.35 30.77,-12.05 86.79,-33.65 142.81,-55.25 -0.63,-0.82 -1.43,-1.46 -2.38,-2.04 -1.83,-1.12 -4.21,-2.03 -13.75,-3.39 -9.55,-1.37 -26.26,-3.2 -36.28,-4.27 -10.02,-1.07 -13.35,-1.38 -16.29,-1.51 -2.95,-0.14 -5.51,-0.1 -9.41,0.91 -3.9,1 -9.14,2.96 -37.08,12.58 -27.94,9.62 -78.58,26.89 -108.23,36.57 -29.64,9.69 -38.3,11.79 -47.36,13.52 -9.06,1.73 -18.52,3.1 -26.33,4.04 -7.81,0.95 -13.97,1.49 -19.48,1.84 -5.51,0.35 -10.36,0.51 -19.49,2.91 -9.13,2.4 -22.53,7.02 -65.31,21.44 -42.78,14.41 -114.93,38.61 -159.09,53.38 -44.17,14.78 -60.36,20.13 -70.61,23.84 -10.25,3.72 -14.56,5.79 -17.87,8.82 -3.31,3.03 -5.63,7.01 -7.18,11.26 -0.56,1.55 -1.02,3.14 -1.4,4.91 1,-3.3 2.01,-6.6 4.18,-9.09 2.17,-2.5 5.5,-4.19 9.15,-4.1 3.66,0.1 7.63,1.99 23.84,8.75 16.2,6.76 44.64,18.4 60.77,25.26 16.14,6.85 19.97,8.94 22.45,11.16 2.49,2.22 3.64,4.58 3.82,9.93 0.09,2.66 -0.05,6.06 -0.32,9.82 0.98,-7.64 2.29,-10.63 4.47,-13.53 3.24,-4.3 8.4,-8.4 51.36,-25.15z"/>
   <path class="fil1" d="M356.97 149.85c-46.41,16.92 -127.17,46.32 -170.12,63.06 -42.96,16.75 -48.12,20.85 -51.36,25.15 -2.18,2.9 -3.49,5.89 -4.47,13.53 -0.47,3.69 -0.86,8.46 -1.23,14.82 -1.16,19.53 -2.16,54.06 -3.16,88.6 2.63,0.16 4.76,-0.55 8.17,-1.76 4.51,-1.58 11.24,-4.02 22.42,-8.5 7.06,-2.84 15.91,-6.5 25.41,-10.46 5.53,-2.3 11.28,-4.71 17.03,-7.12 0.12,2.22 0.25,4.43 -0.05,7.06 -0.29,2.62 -0.99,5.67 -1.7,8.71 5.07,-2.21 10.14,-4.43 14.66,-6.62 4.52,-2.2 8.48,-4.38 10.85,-6.37 2.36,-1.98 3.13,-3.76 3.62,-6.78 0.49,-3.01 0.69,-7.27 0.89,-11.52 51.38,-22.86 102.76,-45.71 154.13,-68.57 8.4,-3.74 16.79,-7.47 25.19,-11.21 -0.12,8.51 -0.25,17.02 -0.37,25.52 4.79,-2.02 9.57,-4.04 12.58,-5.46 3.01,-1.41 4.24,-2.22 5.13,-3.24 0.89,-1.02 1.43,-2.25 1.72,-4.78 0.28,-2.53 0.3,-6.34 0.53,-9.3 0.22,-2.95 0.64,-5.05 2.78,-8.67 2.15,-3.64 6.03,-8.81 10.51,-15.38 4.49,-6.58 9.57,-14.57 15.31,-25.61 5.74,-11.03 12.12,-25.12 16.83,-35.39 4.71,-10.26 7.75,-16.71 10.97,-21.41 3.22,-4.69 6.64,-7.64 11.12,-10.42 4.49,-2.78 10.05,-5.4 37.55,-15.87 27.5,-10.47 76.94,-28.8 102.57,-38.38 25.62,-9.58 27.43,-10.4 28.75,-11.52 1.32,-1.12 2.15,-2.54 2.62,-6.7 0.47,-4.17 0.57,-11.1 0.65,-16.3 0.08,-5.2 0.12,-8.68 -0.49,-11.08 -0.3,-1.16 -0.75,-2.07 -1.34,-2.83 -56.02,21.6 -112.04,43.2 -142.81,55.25 -30.77,12.05 -36.28,14.55 -42.36,18.35 -6.07,3.8 -12.72,8.9 -17.36,13.13 -4.63,4.23 -7.26,7.59 -12.7,11.16 -5.44,3.57 -13.69,7.34 -23.84,11.44 -10.16,4.11 -22.22,8.55 -68.63,25.47z"/>
   <path class="fil2" d="M407.25 231.87c-8.4,3.74 -16.79,7.47 -25.19,11.21 0,0.73 0.01,1.46 0.02,2.08 0.01,0.63 0.02,1.15 0.28,1.65 0.26,0.51 0.77,1 4.89,2.76 4.13,1.76 11.88,4.79 19.63,7.82 0.12,-8.5 0.25,-17.01 0.37,-25.52z"/>
   <path class="fil2" d="M199.61 334.23c0.3,-2.63 0.17,-4.84 0.05,-7.06 -5.75,2.41 -11.5,4.82 -17.03,7.13 0.22,0.59 0.44,1.18 1.03,1.86 0.59,0.67 1.55,1.42 3.99,2.56 2.44,1.15 6.35,2.68 10.26,4.22 0.71,-3.04 1.41,-6.09 1.7,-8.71z"/>
   <path class="fil3" d="M126.63 355.01c1,-34.54 2,-69.07 3.16,-88.6 0.37,-6.36 0.76,-11.13 1.23,-14.82 0.27,-3.76 0.41,-7.16 0.32,-9.82 -0.18,-5.35 -1.33,-7.71 -3.82,-9.93 -2.48,-2.22 -6.31,-4.31 -22.45,-11.16 -16.13,-6.86 -44.57,-18.5 -60.77,-25.26 -16.21,-6.76 -20.18,-8.65 -23.84,-8.75 -3.65,-0.09 -6.98,1.6 -9.15,4.1 -2.17,2.49 -3.18,5.79 -4.18,9.09 -0.67,3.07 -1.11,6.71 -1.46,11.68 -0.55,7.83 -0.88,18.96 -1.2,33.17 -0.33,14.21 -0.65,31.49 -0.69,41.09 -0.04,9.59 0.2,11.5 0.89,12.99 0.69,1.48 1.83,2.54 4.37,3.84 2.54,1.3 6.49,2.84 10.43,4.39 0.3,-22.49 0.6,-44.98 1.01,-56.81 0.42,-11.83 0.96,-13.01 2.08,-13.89 1.12,-0.88 2.83,-1.47 4.82,-1.39 1.44,0.06 3.02,0.46 8.34,2.53 2.07,0.8 4.7,1.86 8.12,3.24 12.19,4.95 34.3,14.09 45.72,19.12 11.43,5.03 12.17,5.95 12.84,7.13 0.67,1.19 1.28,2.63 1.59,5.18 0.07,0.52 0.12,1.08 0.16,1.74 0.16,2.59 0.13,6.7 -0.13,15.57 -0.33,11.13 -1.03,29.74 -1.36,40.13 -0.33,10.38 -0.28,12.54 0.65,14.26 0.94,1.73 2.77,3.03 6.65,5.04 3.89,2.01 9.85,4.73 13.96,5.72 0.99,0.24 1.87,0.38 2.71,0.42z"/>
   <path class="fil1" d="M34.72 289.6c0.33,-17.38 0.66,-34.76 1,-52.14 -5.32,-2.07 -6.9,-2.47 -8.34,-2.53 -1.99,-0.08 -3.7,0.51 -4.82,1.39 -1.12,0.88 -1.66,2.06 -2.08,13.89 -0.41,11.83 -0.71,34.32 -1.01,56.81 5.01,-2.11 10.02,-4.22 15.03,-6.33 0.08,-3.7 0.15,-7.39 0.22,-11.09z"/>
   <path class="fil2" d="M35.72 237.46c-0.34,17.38 -0.67,34.76 -1,52.14 9.32,-3.74 18.64,-7.49 27.96,-11.23 4.33,-1.74 8.66,-3.48 12.99,-5.22 4.27,2.2 8.53,4.4 12.79,6.61 5.23,-1.97 10.46,-3.93 15.69,-5.89 -0.04,-0.66 -0.09,-1.22 -0.16,-1.74 -0.31,-2.55 -0.92,-3.99 -1.59,-5.18 -0.67,-1.18 -1.41,-2.1 -12.84,-7.13 -11.42,-5.03 -33.53,-14.17 -45.72,-19.12 -3.42,-1.38 -6.05,-2.44 -8.12,-3.24z"/>
   <path class="fil2" d="M75.67 273.15c-4.33,1.74 -8.66,3.48 -12.99,5.22 2.61,2.34 5.23,4.68 9.44,7.52 4.2,2.85 10.01,6.21 15.81,9.56 0.18,-5.23 0.36,-10.46 0.53,-15.69 -4.26,-2.21 -8.52,-4.41 -12.79,-6.61z"/>
   <path class="fil2" d="M88.46 279.76c-0.17,5.23 -0.35,10.46 -0.53,15.69 5.36,-2 10.72,-4.01 16.09,-6.01 0.26,-8.87 0.29,-12.98 0.13,-15.57 -5.23,1.96 -10.46,3.92 -15.69,5.89z"/>
   <path class="fil4" d="M635.8 67.02l-25.64 9.56c-24.96,9.29 -55.7,20.74 -76.9,28.82 -13.76,5.23 -21.98,8.49 -27.27,10.76 -5.2,2.22 -7.57,3.49 -9.65,4.78 -2.02,1.26 -3.81,2.55 -5.45,4.07 -1.61,1.47 -3.09,3.18 -4.53,5.27l-0.11 0.17c-1.46,2.14 -2.92,4.75 -4.56,8.02l-0.11 0.19c-1.66,3.32 -3.57,7.43 -5.88,12.47l-1.37 3c-4.6,10.04 -10.41,22.71 -15.53,32.57 -2.82,5.44 -5.59,10.29 -8.26,14.68 -2.66,4.39 -5.07,8.07 -7.29,11.31 -1.69,2.49 -3.29,4.75 -4.73,6.81 -2.38,3.39 -4.37,6.22 -5.64,8.36 -0.9,1.52 -1.43,2.69 -1.75,3.75 -0.3,1.02 -0.43,2.05 -0.52,3.28 -0.11,1.42 -0.16,2.69 -0.21,3.94 -0.08,2.01 -0.17,4 -0.34,5.51l-0.01 0.11c-0.18,1.52 -0.46,2.73 -0.84,3.74l-0.09 0.22c-0.44,1.11 -1,1.98 -1.69,2.76 -0.67,0.77 -1.45,1.45 -2.59,2.17 -0.97,0.62 -2.16,1.25 -3.77,2.01l-0.21 0.09c-3.11,1.45 -7.82,3.44 -12.51,5.43 -1.92,0.81 -4.14,-0.1 -4.95,-2.02 -0.21,-0.51 -0.31,-1.04 -0.29,-1.56l0.28 -19.57 -171.8 76.43c-0.18,3.55 -0.39,6.96 -0.82,9.62 -0.3,1.87 -0.72,3.42 -1.48,4.9 -0.79,1.55 -1.87,2.87 -3.45,4.18 -1.32,1.11 -3.09,2.28 -5.16,3.47 -2.07,1.19 -4.24,2.32 -6.45,3.4l-0.21 0.1c-2.14,1.03 -4.53,2.13 -7.04,3.25l-7.56 3.33c-1.91,0.83 -4.14,-0.04 -4.97,-1.95 -0.34,-0.77 -0.4,-1.59 -0.22,-2.35 0.36,-1.57 0.73,-3.15 0.99,-4.43 0.27,-1.33 0.5,-2.64 0.64,-3.86l0.08 -0.98 -17.72 7.39c-7.15,2.97 -13.84,5.72 -19.6,8.03 -5.62,2.26 -10.13,4 -13.78,5.37l-0.19 0.07c-3.84,1.44 -6.52,2.4 -8.59,3.13l-0.18 0.06c-2.34,0.82 -4.14,1.43 -6.09,1.73 -2.13,0.34 -4.17,0.27 -6.75,-0.35 -2.02,-0.49 -4.38,-1.32 -6.71,-2.28l-0.2 -0.09c-2.91,-1.2 -5.74,-2.55 -7.9,-3.66 -2.14,-1.11 -3.74,-2.04 -4.96,-2.95 -1.52,-1.13 -2.54,-2.29 -3.29,-3.66 -0.74,-1.37 -1.12,-2.78 -1.24,-5.53 -0.09,-2.15 -0.02,-5.35 0.15,-10.64l0.58 -17.05c0.29,-8.3 0.59,-16.99 0.77,-23.06 0.17,-5.56 0.24,-9.22 0.24,-11.77 -0.01,-2.43 -0.09,-3.84 -0.23,-4.97 -0.14,-1.01 -0.31,-1.77 -0.52,-2.39l-0.07 -0.25c-0.16,-0.42 -0.34,-0.79 -0.54,-1.14 -0.06,-0.11 -0.16,-0.22 -1.03,-0.74 -1.56,-0.93 -4.48,-2.35 -10.05,-4.8 -5.07,-2.23 -12.1,-5.21 -19.39,-8.26 -9.24,-3.86 -19.24,-7.97 -26.23,-10.81 -6.13,-2.49 -9.71,-3.9 -11.88,-4.65 -1.9,-0.67 -2.68,-0.83 -3.3,-0.86 -0.52,-0.02 -1.02,0.05 -1.46,0.17l-0.16 0.04c-0.29,0.1 -0.54,0.24 -0.72,0.38 -0.12,0.1 0.19,-0.09 0.09,0.5 -0.31,1.75 -0.53,4.86 -0.73,10.54 -0.21,5.95 -0.39,14.51 -0.55,24.35 -0.17,9.96 -0.32,21.17 -0.47,32.38 -0.02,2.08 -1.73,3.75 -3.81,3.73 -0.51,-0.01 -0.99,-0.11 -1.42,-0.3l-0.03 -0.01c-3.96,-1.54 -7.91,-3.09 -10.65,-4.49 -1.57,-0.8 -2.74,-1.57 -3.67,-2.39 -1.1,-0.97 -1.84,-2 -2.41,-3.22 -0.54,-1.14 -0.89,-2.35 -1.07,-4.77 -0.15,-1.87 -0.2,-4.84 -0.18,-9.83 0.02,-4.45 0.1,-10.5 0.21,-17.1 0.13,-7.81 0.31,-16.39 0.49,-24.04 0.16,-7.19 0.33,-13.56 0.51,-19.02 0.2,-5.71 0.42,-10.51 0.69,-14.33 0.28,-4.06 0.62,-7.27 1.1,-10.02 0.49,-2.86 1.13,-5.26 1.98,-7.61 0.89,-2.44 2.03,-4.84 3.45,-7.07 1.33,-2.08 2.89,-4 4.73,-5.68 1.93,-1.76 4.11,-3.23 7.23,-4.76 2.94,-1.44 6.69,-2.94 11.91,-4.83 8.47,-3.07 21.12,-7.3 50.52,-17.12l104.6 -35.04 90.37 -30.39c30.7,-10.36 41.86,-14.12 49.84,-16.22l0.18 -0.04c8.77,-2.28 13.71,-2.59 18.94,-2.91l1.09 -0.07c2.89,-0.19 5.81,-0.41 8.78,-0.68 2.92,-0.27 6.36,-0.64 10.5,-1.14 4.1,-0.5 8.73,-1.13 13.57,-1.87 4.21,-0.64 8.46,-1.36 12.49,-2.13 4.47,-0.85 8.83,-1.8 15.67,-3.7 6.85,-1.91 16.37,-4.85 31.23,-9.7 13.06,-4.27 29.49,-9.76 46.1,-15.38 21.5,-7.26 45.28,-15.4 62.07,-21.18l19.63 -6.77c11.45,-3.96 14.87,-5.15 17.74,-5.89 2.23,-0.57 4.05,-0.87 5.7,-1 1.64,-0.13 3.18,-0.1 4.82,-0.03l0.05 0.01c1.47,0.06 3.08,0.18 5.61,0.42 2.8,0.26 6.13,0.6 10.86,1.1 5.2,0.56 12.04,1.3 18.35,2.02 6.65,0.77 13.25,1.57 18.06,2.26 4.94,0.71 8.07,1.31 10.22,1.88l0.17 0.05c2.37,0.65 3.67,1.28 4.81,1.99l0.22 0.14c1.16,0.74 2.19,1.58 3.06,2.67 0.96,1.19 1.68,2.59 2.13,4.34l0.07 0.39c0.33,1.41 0.48,3.03 0.54,4.94 0.05,1.86 0.02,4.08 -0.02,6.73 -0.04,2.67 -0.08,5.77 -0.18,8.61 -0.09,3.03 -0.25,5.92 -0.49,8.06 -0.27,2.47 -0.69,4.21 -1.27,5.56 -0.69,1.64 -1.58,2.67 -2.66,3.6 -0.96,0.82 -1.97,1.48 -6.28,3.22l-0.2 0.08c-3.77,1.52 -10.65,4.13 -23.39,8.89zm-28.27 2.48l25.63 -9.55c12.45,-4.66 19.26,-7.24 23.2,-8.83l0.19 -0.08c3.31,-1.34 3.87,-1.66 4.23,-1.97 0.24,-0.18 0.44,-0.42 0.6,-0.8 0.29,-0.68 0.52,-1.74 0.71,-3.43 0.23,-2.02 0.37,-4.69 0.46,-7.46 0.09,-2.96 0.14,-5.93 0.18,-8.46 0.03,-2.55 0.06,-4.68 0.01,-6.45 -0.04,-1.4 -0.14,-2.53 -0.32,-3.39l-0.08 -0.27c-0.17,-0.66 -0.4,-1.13 -0.68,-1.48 -0.28,-0.36 -0.68,-0.68 -1.17,-0.99l-0.18 -0.1c-0.63,-0.39 -1.37,-0.75 -2.82,-1.14l-0.16 -0.04c-1.88,-0.5 -4.72,-1.04 -9.32,-1.7 -4.73,-0.68 -11.27,-1.47 -17.86,-2.23 -6.93,-0.8 -13.47,-1.51 -18.29,-2.02l-10.74 -1.11c-2.31,-0.21 -3.83,-0.32 -5.28,-0.39l-0.05 0c-1.3,-0.06 -2.53,-0.08 -3.88,0.03 -1.33,0.1 -2.75,0.33 -4.42,0.76 -2.58,0.67 -5.93,1.83 -17.15,5.72l-19.63 6.79c-15.19,5.23 -38.28,13.12 -62.13,21.18 -17.25,5.83 -33.86,11.4 -46.16,15.41 -14.77,4.83 -24.41,7.79 -31.56,9.79 -7.17,1.99 -11.67,2.97 -16.26,3.85 -4.35,0.83 -8.67,1.56 -12.78,2.19 -4.81,0.74 -9.53,1.37 -13.81,1.89 -3.67,0.45 -7.23,0.82 -10.71,1.14 -3.44,0.32 -6.37,0.55 -8.98,0.71l-1.13 0.07c-4.85,0.3 -9.45,0.59 -17.48,2.68l-0.16 0.04c-7.82,2.06 -18.89,5.79 -49.37,16.07l-90.36 30.39 -104.6 35.04c-29.24,9.77 -41.81,13.97 -50.35,17.07 -5.03,1.82 -8.57,3.22 -11.17,4.5 -2.42,1.19 -4.06,2.27 -5.45,3.54 -1.32,1.22 -2.48,2.63 -3.46,4.17 -1.08,1.71 -1.98,3.61 -2.7,5.6 -0.69,1.9 -1.22,3.89 -1.63,6.3 -0.44,2.51 -0.75,5.48 -1.02,9.25 -0.28,4 -0.5,8.69 -0.68,14.06 -0.2,5.61 -0.36,11.91 -0.52,18.94 -0.17,7.7 -0.35,16.28 -0.48,24.01 -0.11,6.62 -0.19,12.65 -0.21,17.01 -0.02,4.6 0.03,7.39 0.17,9.24 0.1,1.3 0.22,1.8 0.38,2.15 0.12,0.26 0.3,0.5 0.58,0.75 0.44,0.4 1.11,0.82 2.08,1.32 1.27,0.65 3.03,1.41 5.01,2.21l0.39 -26.92c0.16,-9.98 0.35,-18.59 0.55,-24.47 0.22,-6.15 0.47,-9.56 0.82,-11.57 0.55,-3.17 1.45,-4.2 2.69,-5.17 0.87,-0.69 1.96,-1.26 3.18,-1.65l0.31 -0.1c1.14,-0.33 2.43,-0.5 3.82,-0.44 1.36,0.05 2.73,0.3 5.5,1.27 2.51,0.87 6.17,2.31 12.23,4.77 6.69,2.71 16.63,6.8 26.29,10.84 7.47,3.12 14.58,6.14 19.54,8.31 5.85,2.58 9.02,4.14 10.85,5.22 2.52,1.5 3.14,2.44 3.75,3.52 0.38,0.67 0.75,1.44 1.1,2.39l0.14 0.37c0.34,1.03 0.63,2.28 0.82,3.82 0.17,1.41 0.26,3.1 0.27,5.9 0.01,2.68 -0.07,6.41 -0.23,11.97 -0.19,6.43 -0.49,15 -0.78,23.11l-0.57 17.03c-0.16,5.09 -0.23,8.16 -0.15,10.12 0.05,1.35 0.16,1.89 0.35,2.24 0.19,0.35 0.55,0.72 1.15,1.17 0.9,0.67 2.17,1.4 3.91,2.3 2.1,1.08 4.76,2.37 7.3,3.41l0.2 0.08c2.03,0.83 4.01,1.54 5.59,1.92 1.53,0.36 2.69,0.42 3.85,0.24 1.25,-0.2 2.76,-0.71 4.74,-1.41l0.17 -0.06c2.35,-0.83 5.18,-1.85 8.46,-3.07l0.17 -0.07c3.63,-1.36 8.09,-3.08 13.63,-5.31 5.43,-2.18 12.15,-4.95 19.51,-8l22.64 -9.46c0.52,-0.25 1.09,-0.4 1.7,-0.4 2.09,0 3.79,1.7 3.79,3.79 0.12,2.31 0.24,4.63 -0.08,7.47l-0.26 1.89 0.8 -0.35c2.27,-1.02 4.55,-2.07 6.81,-3.16l0.19 -0.11c2.3,-1.12 4.38,-2.18 6.01,-3.13 1.63,-0.94 3.03,-1.86 4.07,-2.73 0.79,-0.66 1.28,-1.23 1.58,-1.81 0.34,-0.67 0.56,-1.53 0.74,-2.66 0.45,-2.76 0.65,-6.86 0.85,-10.96l0 -0.16c0.08,-1.37 0.9,-2.66 2.24,-3.25l179.31 -79.78c0.48,-0.22 1.02,-0.34 1.58,-0.33 2.08,0.02 3.75,1.74 3.73,3.82l-0.28 19.74c2.69,-1.15 5.13,-2.21 6.92,-3.05l0.19 -0.1c1.39,-0.65 2.33,-1.14 2.94,-1.53 0.46,-0.29 0.74,-0.53 0.96,-0.78 0.13,-0.15 0.25,-0.33 0.34,-0.55l0.05 -0.12c0.16,-0.43 0.3,-1.05 0.4,-1.93l0.01 -0.12c0.16,-1.39 0.23,-3.16 0.3,-4.94 0.07,-1.56 0.13,-3.12 0.21,-4.21 0.13,-1.72 0.32,-3.22 0.82,-4.88 0.49,-1.64 1.25,-3.34 2.49,-5.44 1.43,-2.41 3.49,-5.35 5.96,-8.86 1.44,-2.05 3.03,-4.31 4.68,-6.72 2.27,-3.34 4.66,-6.96 7.08,-10.96 2.44,-4 5.09,-8.67 7.99,-14.26 5.26,-10.13 10.91,-22.46 15.38,-32.21l1.38 -3c2.3,-5.03 4.22,-9.16 6,-12.72l0.1 -0.21c1.77,-3.53 3.39,-6.41 5.07,-8.88l0.11 -0.17c1.78,-2.59 3.62,-4.72 5.65,-6.58 1.99,-1.83 4.16,-3.4 6.61,-4.92 2.4,-1.49 5.06,-2.93 10.64,-5.32 5.49,-2.35 13.81,-5.64 27.54,-10.88 18.65,-7.1 50.81,-19.08 76.97,-28.82z"/>
   <path class="fil4" d="M408.25 253.87c1.95,0.76 2.91,2.95 2.15,4.9 -0.76,1.94 -2.95,2.9 -4.9,2.14l-0.78 -0.31c-7.52,-2.94 -14.92,-5.84 -18.95,-7.56 -2.22,-0.94 -3.53,-1.59 -4.35,-2.08 -1.48,-0.89 -2,-1.63 -2.42,-2.43 -0.34,-0.68 -0.53,-1.32 -0.62,-1.98 -0.06,-0.44 -0.07,-0.87 -0.08,-1.34l-0.01 -2.1c-0.02,-2.08 1.66,-3.79 3.74,-3.8 2.08,-0.02 3.79,1.66 3.8,3.74l0.02 1.73c0.59,0.3 1.51,0.72 2.89,1.31 3.94,1.68 11.28,4.56 18.73,7.47l0.78 0.31z"/>
   <path class="fil4" d="M199.28 339.42c1.95,0.76 2.91,2.95 2.15,4.9 -0.76,1.94 -2.95,2.9 -4.9,2.14l-5.72 -2.27c-1.7,-0.69 -3.33,-1.38 -4.76,-2.05 -1.41,-0.66 -2.43,-1.23 -3.19,-1.74 -0.93,-0.62 -1.54,-1.19 -2.03,-1.74l-0.02 -0.03c-1.04,-1.18 -1.38,-2.1 -1.72,-3.01 -0.14,-0.38 -0.22,-0.77 -0.23,-1.16l-0.01 -0.22c0.03,-1.57 1.03,-3.01 2.59,-3.52 1.5,-0.5 3.09,0 4.05,1.13l0.2 0.25c0.2,0.27 0.36,0.57 0.47,0.89 0.1,0.25 0.2,0.52 0.33,0.67 0.1,0.12 0.27,0.26 0.57,0.47 0.48,0.31 1.17,0.7 2.19,1.18 1.01,0.47 2.56,1.12 4.4,1.87l5.63 2.24z"/>
   <path class="fil4" d="M20.94 310.49c-1.92,0.81 -4.14,-0.09 -4.95,-2.01 -0.8,-1.92 0.1,-4.13 2.02,-4.94l12.77 -5.38 1.16 -60.76c0.04,-2.08 1.75,-3.74 3.84,-3.71 2.08,0.03 3.74,1.75 3.71,3.83l-1.21 63.23c-0.03,1.45 -0.89,2.82 -2.31,3.42l-15.03 6.32z"/>
   <path class="fil4" d="M128.52 355.12c0,1.05 -0.85,1.9 -1.89,1.9 -1.05,0 -1.9,-0.85 -1.9,-1.9l0.01 -0.24c1.01,-34.58 2.01,-69.13 3.16,-88.58 0.58,-9.88 1.21,-15.98 2.11,-20.17 0.94,-4.43 2.2,-6.84 3.97,-9.2 1.77,-2.35 4.03,-4.62 11.43,-8.46 7.1,-3.67 19.19,-8.91 40.76,-17.32 41.52,-16.18 118.04,-44.08 165.04,-61.21l5.12 -1.87c22.93,-8.36 37.46,-13.67 47.9,-17.53 10.12,-3.75 15.66,-5.89 20.66,-7.91 5.04,-2.04 9.61,-3.99 13.59,-5.88 3.91,-1.86 7.26,-3.66 9.92,-5.4 3.66,-2.39 6.02,-4.72 8.64,-7.3 1.2,-1.17 2.45,-2.41 3.83,-3.67 2.42,-2.2 5.37,-4.64 8.49,-7 2.97,-2.25 6.13,-4.45 9.15,-6.34 3.1,-1.94 6.06,-3.55 12.16,-6.2 6.04,-2.64 15.13,-6.28 30.5,-12.3 29.72,-11.64 84.73,-32.85 140.14,-54.22l2.68 -1.03c0.97,-0.38 2.07,0.11 2.44,1.08 0.38,0.97 -0.11,2.06 -1.08,2.44l-2.68 1.03c-54.83,21.14 -109.29,42.14 -140.12,54.22 -15.39,6.03 -24.45,9.66 -30.37,12.24 -5.87,2.55 -8.7,4.1 -11.68,5.96 -2.91,1.81 -5.96,3.95 -8.86,6.14 -3.04,2.29 -5.89,4.65 -8.22,6.78 -1.41,1.28 -2.6,2.45 -3.73,3.56 -2.77,2.73 -5.28,5.2 -9.22,7.78 -2.78,1.82 -6.28,3.7 -10.38,5.65 -4.04,1.91 -8.68,3.9 -13.79,5.97 -5.15,2.08 -10.72,4.22 -20.77,7.95 -9.72,3.6 -24.44,8.98 -47.91,17.53l-5.12 1.87c-47.05,17.15 -123.66,45.08 -164.97,61.18 -21.39,8.34 -33.37,13.53 -40.39,17.16 -6.73,3.48 -8.67,5.41 -10.14,7.36 -1.45,1.93 -2.49,3.94 -3.29,7.72 -0.86,4.02 -1.47,9.95 -2.04,19.61 -1.16,19.56 -2.16,54.01 -3.16,88.47l0.01 0.13z"/>
   <path class="fil4" d="M36.12 293.11c-1.93,0.77 -4.14,-0.17 -4.91,-2.1 -0.77,-1.94 0.17,-4.14 2.1,-4.92l40.96 -16.45c1.06,-0.42 2.19,-0.33 3.13,0.15l11.31 5.84 14.12 -5.3c1.96,-0.73 4.13,0.27 4.86,2.22 0.72,1.95 -0.27,4.12 -2.22,4.85l-15.5 5.82c-1,0.44 -2.19,0.43 -3.24,-0.1l-11.26 -5.82 -39.35 15.81z"/>
   <path class="fil4" d="M102.7 285.9c1.95,-0.72 4.12,0.27 4.85,2.22 0.73,1.96 -0.26,4.13 -2.22,4.86l-16.08 6.01c-1.09,0.4 -2.25,0.27 -3.19,-0.27l-0.29 -0.16c-5.8,-3.34 -11.57,-6.69 -15.77,-9.53 -4.34,-2.93 -7.07,-5.37 -9.79,-7.8l-0.02 -0.02c-1.56,-1.37 -1.72,-3.76 -0.35,-5.33 1.37,-1.56 3.76,-1.72 5.32,-0.35l0.05 0.04c2.49,2.23 4.98,4.46 9.02,7.19 3.77,2.55 8.86,5.52 14.06,8.53l14.41 -5.39z"/>
   <path class="fil4" d="M89.82 295.51c-0.03,1.04 -0.91,1.86 -1.95,1.83 -1.04,-0.04 -1.85,-0.91 -1.82,-1.95l0.53 -15.69c0.03,-1.04 0.9,-1.86 1.94,-1.83 1.04,0.03 1.86,0.9 1.83,1.94l-0.53 15.7z"/>
   <path class="fil4" d="M131.85 264c-0.09,1.04 -1.01,1.8 -2.05,1.71 -1.03,-0.09 -1.8,-1.01 -1.7,-2.05 0.77,-8.29 1.54,-16.59 1.36,-21.83 -0.09,-2.43 -0.38,-4.16 -0.91,-5.49 -0.5,-1.23 -1.25,-2.17 -2.28,-3.09l-0.11 -0.1c-1.11,-0.97 -2.58,-1.95 -5.59,-3.47 -3.24,-1.63 -8.2,-3.85 -16.24,-7.26 -10.41,-4.43 -25.44,-10.64 -39.17,-16.32l-27.51 -11.42c-11.12,-4.66 -14.45,-6.05 -17.23,-6.12 -1.48,-0.04 -2.9,0.27 -4.17,0.84 -1.37,0.61 -2.58,1.52 -3.52,2.6 -1.91,2.21 -2.86,5.31 -3.8,8.4 -0.06,0.21 -0.16,0.4 -0.28,0.57 -0.53,0.73 -1.53,0.99 -2.37,0.57 -0.84,-0.42 -1.23,-1.39 -0.95,-2.26 1.06,-3.49 2.13,-6.98 4.55,-9.76 1.3,-1.48 2.95,-2.73 4.83,-3.56 1.76,-0.79 3.74,-1.23 5.8,-1.17 3.53,0.09 7.01,1.54 18.59,6.4l27.49 11.42c13.96,5.77 29.22,12.08 39.22,16.33 8.1,3.44 13.13,5.69 16.46,7.37 3.34,1.69 5.04,2.83 6.39,4.01l0.12 0.11c1.45,1.29 2.53,2.65 3.27,4.49 0.7,1.75 1.08,3.88 1.18,6.79 0.19,5.47 -0.6,13.89 -1.38,22.29z"/>
  </g>
 </g>
</svg>
